<?xml version="1.0" encoding="utf-8" standalone="no"?>
<!DOCTYPE svg PUBLIC "-//W3C//DTD SVG 1.1//EN"
  "http://www.w3.org/Graphics/SVG/1.1/DTD/svg11.dtd">
<svg xmlns:xlink="http://www.w3.org/1999/xlink" width="576pt" height="360pt" viewBox="0 0 576 360" xmlns="http://www.w3.org/2000/svg" version="1.1">
 <metadata>
  <rdf:RDF xmlns:dc="http://purl.org/dc/elements/1.1/" xmlns:cc="http://creativecommons.org/ns#" xmlns:rdf="http://www.w3.org/1999/02/22-rdf-syntax-ns#">
   <cc:Work>
    <dc:type rdf:resource="http://purl.org/dc/dcmitype/StillImage"/>
    <dc:date>2025-02-25T09:36:16.836864</dc:date>
    <dc:format>image/svg+xml</dc:format>
    <dc:creator>
     <cc:Agent>
      <dc:title>Matplotlib v3.6.3, https://matplotlib.org/</dc:title>
     </cc:Agent>
    </dc:creator>
   </cc:Work>
  </rdf:RDF>
 </metadata>
 <defs>
  <style type="text/css">*{stroke-linejoin: round; stroke-linecap: butt}</style>
 </defs>
 <g id="figure_1">
  <g id="patch_1">
   <path d="M 0 360 
L 576 360 
L 576 0 
L 0 0 
z
" style="fill: #ffffff"/>
  </g>
  <g id="axes_1">
   <g id="patch_2">
    <path d="M 62.67125 318.04 
L 178.815 318.04 
L 178.815 29.76 
L 62.67125 29.76 
z
" style="fill: #ffffff"/>
   </g>
   <g id="matplotlib.axis_1">
    <g id="xtick_1">
     <g id="line2d_1">
      <defs>
       <path id="m444717a607" d="M 0 0 
L 0 3.5 
" style="stroke: #000000; stroke-width: 0.8"/>
      </defs>
      <g>
       <use xlink:href="#m444717a607" x="120.451307" y="318.04" style="stroke: #000000; stroke-width: 0.8"/>
      </g>
     </g>
     <g id="text_1">
      <!-- 100 -->
      <g transform="translate(110.907557 332.638438) scale(0.1 -0.1)">
       <defs>
        <path id="DejaVuSans-31" d="M 794 531 
L 1825 531 
L 1825 4091 
L 703 3866 
L 703 4441 
L 1819 4666 
L 2450 4666 
L 2450 531 
L 3481 531 
L 3481 0 
L 794 0 
L 794 531 
z
" transform="scale(0.015625)"/>
        <path id="DejaVuSans-30" d="M 2034 4250 
Q 1547 4250 1301 3770 
Q 1056 3291 1056 2328 
Q 1056 1369 1301 889 
Q 1547 409 2034 409 
Q 2525 409 2770 889 
Q 3016 1369 3016 2328 
Q 3016 3291 2770 3770 
Q 2525 4250 2034 4250 
z
M 2034 4750 
Q 2819 4750 3233 4129 
Q 3647 3509 3647 2328 
Q 3647 1150 3233 529 
Q 2819 -91 2034 -91 
Q 1250 -91 836 529 
Q 422 1150 422 2328 
Q 422 3509 836 4129 
Q 1250 4750 2034 4750 
z
" transform="scale(0.015625)"/>
       </defs>
       <use xlink:href="#DejaVuSans-31"/>
       <use xlink:href="#DejaVuSans-30" x="63.623047"/>
       <use xlink:href="#DejaVuSans-30" x="127.246094"/>
      </g>
     </g>
    </g>
    <g id="xtick_2">
     <g id="line2d_2">
      <g>
       <use xlink:href="#m444717a607" x="178.815" y="318.04" style="stroke: #000000; stroke-width: 0.8"/>
      </g>
     </g>
     <g id="text_2">
      <!-- 200 -->
      <g transform="translate(169.27125 332.638438) scale(0.1 -0.1)">
       <defs>
        <path id="DejaVuSans-32" d="M 1228 531 
L 3431 531 
L 3431 0 
L 469 0 
L 469 531 
Q 828 903 1448 1529 
Q 2069 2156 2228 2338 
Q 2531 2678 2651 2914 
Q 2772 3150 2772 3378 
Q 2772 3750 2511 3984 
Q 2250 4219 1831 4219 
Q 1534 4219 1204 4116 
Q 875 4013 500 3803 
L 500 4441 
Q 881 4594 1212 4672 
Q 1544 4750 1819 4750 
Q 2544 4750 2975 4387 
Q 3406 4025 3406 3419 
Q 3406 3131 3298 2873 
Q 3191 2616 2906 2266 
Q 2828 2175 2409 1742 
Q 1991 1309 1228 531 
z
" transform="scale(0.015625)"/>
       </defs>
       <use xlink:href="#DejaVuSans-32"/>
       <use xlink:href="#DejaVuSans-30" x="63.623047"/>
       <use xlink:href="#DejaVuSans-30" x="127.246094"/>
      </g>
     </g>
    </g>
    <g id="text_3">
     <!-- timesteps -->
     <g transform="translate(96.026719 346.316563) scale(0.1 -0.1)">
      <defs>
       <path id="DejaVuSans-74" d="M 1172 4494 
L 1172 3500 
L 2356 3500 
L 2356 3053 
L 1172 3053 
L 1172 1153 
Q 1172 725 1289 603 
Q 1406 481 1766 481 
L 2356 481 
L 2356 0 
L 1766 0 
Q 1100 0 847 248 
Q 594 497 594 1153 
L 594 3053 
L 172 3053 
L 172 3500 
L 594 3500 
L 594 4494 
L 1172 4494 
z
" transform="scale(0.015625)"/>
       <path id="DejaVuSans-69" d="M 603 3500 
L 1178 3500 
L 1178 0 
L 603 0 
L 603 3500 
z
M 603 4863 
L 1178 4863 
L 1178 4134 
L 603 4134 
L 603 4863 
z
" transform="scale(0.015625)"/>
       <path id="DejaVuSans-6d" d="M 3328 2828 
Q 3544 3216 3844 3400 
Q 4144 3584 4550 3584 
Q 5097 3584 5394 3201 
Q 5691 2819 5691 2113 
L 5691 0 
L 5113 0 
L 5113 2094 
Q 5113 2597 4934 2840 
Q 4756 3084 4391 3084 
Q 3944 3084 3684 2787 
Q 3425 2491 3425 1978 
L 3425 0 
L 2847 0 
L 2847 2094 
Q 2847 2600 2669 2842 
Q 2491 3084 2119 3084 
Q 1678 3084 1418 2786 
Q 1159 2488 1159 1978 
L 1159 0 
L 581 0 
L 581 3500 
L 1159 3500 
L 1159 2956 
Q 1356 3278 1631 3431 
Q 1906 3584 2284 3584 
Q 2666 3584 2933 3390 
Q 3200 3197 3328 2828 
z
" transform="scale(0.015625)"/>
       <path id="DejaVuSans-65" d="M 3597 1894 
L 3597 1613 
L 953 1613 
Q 991 1019 1311 708 
Q 1631 397 2203 397 
Q 2534 397 2845 478 
Q 3156 559 3463 722 
L 3463 178 
Q 3153 47 2828 -22 
Q 2503 -91 2169 -91 
Q 1331 -91 842 396 
Q 353 884 353 1716 
Q 353 2575 817 3079 
Q 1281 3584 2069 3584 
Q 2775 3584 3186 3129 
Q 3597 2675 3597 1894 
z
M 3022 2063 
Q 3016 2534 2758 2815 
Q 2500 3097 2075 3097 
Q 1594 3097 1305 2825 
Q 1016 2553 972 2059 
L 3022 2063 
z
" transform="scale(0.015625)"/>
       <path id="DejaVuSans-73" d="M 2834 3397 
L 2834 2853 
Q 2591 2978 2328 3040 
Q 2066 3103 1784 3103 
Q 1356 3103 1142 2972 
Q 928 2841 928 2578 
Q 928 2378 1081 2264 
Q 1234 2150 1697 2047 
L 1894 2003 
Q 2506 1872 2764 1633 
Q 3022 1394 3022 966 
Q 3022 478 2636 193 
Q 2250 -91 1575 -91 
Q 1294 -91 989 -36 
Q 684 19 347 128 
L 347 722 
Q 666 556 975 473 
Q 1284 391 1588 391 
Q 1994 391 2212 530 
Q 2431 669 2431 922 
Q 2431 1156 2273 1281 
Q 2116 1406 1581 1522 
L 1381 1569 
Q 847 1681 609 1914 
Q 372 2147 372 2553 
Q 372 3047 722 3315 
Q 1072 3584 1716 3584 
Q 2034 3584 2315 3537 
Q 2597 3491 2834 3397 
z
" transform="scale(0.015625)"/>
       <path id="DejaVuSans-70" d="M 1159 525 
L 1159 -1331 
L 581 -1331 
L 581 3500 
L 1159 3500 
L 1159 2969 
Q 1341 3281 1617 3432 
Q 1894 3584 2278 3584 
Q 2916 3584 3314 3078 
Q 3713 2572 3713 1747 
Q 3713 922 3314 415 
Q 2916 -91 2278 -91 
Q 1894 -91 1617 61 
Q 1341 213 1159 525 
z
M 3116 1747 
Q 3116 2381 2855 2742 
Q 2594 3103 2138 3103 
Q 1681 3103 1420 2742 
Q 1159 2381 1159 1747 
Q 1159 1113 1420 752 
Q 1681 391 2138 391 
Q 2594 391 2855 752 
Q 3116 1113 3116 1747 
z
" transform="scale(0.015625)"/>
      </defs>
      <use xlink:href="#DejaVuSans-74"/>
      <use xlink:href="#DejaVuSans-69" x="39.208984"/>
      <use xlink:href="#DejaVuSans-6d" x="66.992188"/>
      <use xlink:href="#DejaVuSans-65" x="164.404297"/>
      <use xlink:href="#DejaVuSans-73" x="225.927734"/>
      <use xlink:href="#DejaVuSans-74" x="278.027344"/>
      <use xlink:href="#DejaVuSans-65" x="317.236328"/>
      <use xlink:href="#DejaVuSans-70" x="378.759766"/>
      <use xlink:href="#DejaVuSans-73" x="442.236328"/>
     </g>
    </g>
   </g>
   <g id="matplotlib.axis_2">
    <g id="ytick_1">
     <g id="line2d_3">
      <defs>
       <path id="mbb5042e188" d="M 0 0 
L -3.5 0 
" style="stroke: #000000; stroke-width: 0.8"/>
      </defs>
      <g>
       <use xlink:href="#mbb5042e188" x="62.67125" y="318.04" style="stroke: #000000; stroke-width: 0.8"/>
      </g>
     </g>
     <g id="text_4">
      <!-- −1.00 -->
      <g transform="translate(25.025938 321.839219) scale(0.1 -0.1)">
       <defs>
        <path id="DejaVuSans-2212" d="M 678 2272 
L 4684 2272 
L 4684 1741 
L 678 1741 
L 678 2272 
z
" transform="scale(0.015625)"/>
        <path id="DejaVuSans-2e" d="M 684 794 
L 1344 794 
L 1344 0 
L 684 0 
L 684 794 
z
" transform="scale(0.015625)"/>
       </defs>
       <use xlink:href="#DejaVuSans-2212"/>
       <use xlink:href="#DejaVuSans-31" x="83.789062"/>
       <use xlink:href="#DejaVuSans-2e" x="147.412109"/>
       <use xlink:href="#DejaVuSans-30" x="179.199219"/>
       <use xlink:href="#DejaVuSans-30" x="242.822266"/>
      </g>
     </g>
    </g>
    <g id="ytick_2">
     <g id="line2d_4">
      <g>
       <use xlink:href="#mbb5042e188" x="62.67125" y="282.005" style="stroke: #000000; stroke-width: 0.8"/>
      </g>
     </g>
     <g id="text_5">
      <!-- −0.75 -->
      <g transform="translate(25.025938 285.804219) scale(0.1 -0.1)">
       <defs>
        <path id="DejaVuSans-37" d="M 525 4666 
L 3525 4666 
L 3525 4397 
L 1831 0 
L 1172 0 
L 2766 4134 
L 525 4134 
L 525 4666 
z
" transform="scale(0.015625)"/>
        <path id="DejaVuSans-35" d="M 691 4666 
L 3169 4666 
L 3169 4134 
L 1269 4134 
L 1269 2991 
Q 1406 3038 1543 3061 
Q 1681 3084 1819 3084 
Q 2600 3084 3056 2656 
Q 3513 2228 3513 1497 
Q 3513 744 3044 326 
Q 2575 -91 1722 -91 
Q 1428 -91 1123 -41 
Q 819 9 494 109 
L 494 744 
Q 775 591 1075 516 
Q 1375 441 1709 441 
Q 2250 441 2565 725 
Q 2881 1009 2881 1497 
Q 2881 1984 2565 2268 
Q 2250 2553 1709 2553 
Q 1456 2553 1204 2497 
Q 953 2441 691 2322 
L 691 4666 
z
" transform="scale(0.015625)"/>
       </defs>
       <use xlink:href="#DejaVuSans-2212"/>
       <use xlink:href="#DejaVuSans-30" x="83.789062"/>
       <use xlink:href="#DejaVuSans-2e" x="147.412109"/>
       <use xlink:href="#DejaVuSans-37" x="179.199219"/>
       <use xlink:href="#DejaVuSans-35" x="242.822266"/>
      </g>
     </g>
    </g>
    <g id="ytick_3">
     <g id="line2d_5">
      <g>
       <use xlink:href="#mbb5042e188" x="62.67125" y="245.97" style="stroke: #000000; stroke-width: 0.8"/>
      </g>
     </g>
     <g id="text_6">
      <!-- −0.50 -->
      <g transform="translate(25.025938 249.769219) scale(0.1 -0.1)">
       <use xlink:href="#DejaVuSans-2212"/>
       <use xlink:href="#DejaVuSans-30" x="83.789062"/>
       <use xlink:href="#DejaVuSans-2e" x="147.412109"/>
       <use xlink:href="#DejaVuSans-35" x="179.199219"/>
       <use xlink:href="#DejaVuSans-30" x="242.822266"/>
      </g>
     </g>
    </g>
    <g id="ytick_4">
     <g id="line2d_6">
      <g>
       <use xlink:href="#mbb5042e188" x="62.67125" y="209.935" style="stroke: #000000; stroke-width: 0.8"/>
      </g>
     </g>
     <g id="text_7">
      <!-- −0.25 -->
      <g transform="translate(25.025938 213.734219) scale(0.1 -0.1)">
       <use xlink:href="#DejaVuSans-2212"/>
       <use xlink:href="#DejaVuSans-30" x="83.789062"/>
       <use xlink:href="#DejaVuSans-2e" x="147.412109"/>
       <use xlink:href="#DejaVuSans-32" x="179.199219"/>
       <use xlink:href="#DejaVuSans-35" x="242.822266"/>
      </g>
     </g>
    </g>
    <g id="ytick_5">
     <g id="line2d_7">
      <g>
       <use xlink:href="#mbb5042e188" x="62.67125" y="173.9" style="stroke: #000000; stroke-width: 0.8"/>
      </g>
     </g>
     <g id="text_8">
      <!-- 0.00 -->
      <g transform="translate(33.405625 177.699219) scale(0.1 -0.1)">
       <use xlink:href="#DejaVuSans-30"/>
       <use xlink:href="#DejaVuSans-2e" x="63.623047"/>
       <use xlink:href="#DejaVuSans-30" x="95.410156"/>
       <use xlink:href="#DejaVuSans-30" x="159.033203"/>
      </g>
     </g>
    </g>
    <g id="ytick_6">
     <g id="line2d_8">
      <g>
       <use xlink:href="#mbb5042e188" x="62.67125" y="137.865" style="stroke: #000000; stroke-width: 0.8"/>
      </g>
     </g>
     <g id="text_9">
      <!-- 0.25 -->
      <g transform="translate(33.405625 141.664219) scale(0.1 -0.1)">
       <use xlink:href="#DejaVuSans-30"/>
       <use xlink:href="#DejaVuSans-2e" x="63.623047"/>
       <use xlink:href="#DejaVuSans-32" x="95.410156"/>
       <use xlink:href="#DejaVuSans-35" x="159.033203"/>
      </g>
     </g>
    </g>
    <g id="ytick_7">
     <g id="line2d_9">
      <g>
       <use xlink:href="#mbb5042e188" x="62.67125" y="101.83" style="stroke: #000000; stroke-width: 0.8"/>
      </g>
     </g>
     <g id="text_10">
      <!-- 0.50 -->
      <g transform="translate(33.405625 105.629219) scale(0.1 -0.1)">
       <use xlink:href="#DejaVuSans-30"/>
       <use xlink:href="#DejaVuSans-2e" x="63.623047"/>
       <use xlink:href="#DejaVuSans-35" x="95.410156"/>
       <use xlink:href="#DejaVuSans-30" x="159.033203"/>
      </g>
     </g>
    </g>
    <g id="ytick_8">
     <g id="line2d_10">
      <g>
       <use xlink:href="#mbb5042e188" x="62.67125" y="65.795" style="stroke: #000000; stroke-width: 0.8"/>
      </g>
     </g>
     <g id="text_11">
      <!-- 0.75 -->
      <g transform="translate(33.405625 69.594219) scale(0.1 -0.1)">
       <use xlink:href="#DejaVuSans-30"/>
       <use xlink:href="#DejaVuSans-2e" x="63.623047"/>
       <use xlink:href="#DejaVuSans-37" x="95.410156"/>
       <use xlink:href="#DejaVuSans-35" x="159.033203"/>
      </g>
     </g>
    </g>
    <g id="ytick_9">
     <g id="line2d_11">
      <g>
       <use xlink:href="#mbb5042e188" x="62.67125" y="29.76" style="stroke: #000000; stroke-width: 0.8"/>
      </g>
     </g>
     <g id="text_12">
      <!-- 1.00 -->
      <g transform="translate(33.405625 33.559219) scale(0.1 -0.1)">
       <use xlink:href="#DejaVuSans-31"/>
       <use xlink:href="#DejaVuSans-2e" x="63.623047"/>
       <use xlink:href="#DejaVuSans-30" x="95.410156"/>
       <use xlink:href="#DejaVuSans-30" x="159.033203"/>
      </g>
     </g>
    </g>
    <g id="text_13">
     <!-- w_i -->
     <g transform="translate(18.668125 181.878125) rotate(-90) scale(0.1 -0.1)">
      <defs>
       <path id="DejaVuSans-77" d="M 269 3500 
L 844 3500 
L 1563 769 
L 2278 3500 
L 2956 3500 
L 3675 769 
L 4391 3500 
L 4966 3500 
L 4050 0 
L 3372 0 
L 2619 2869 
L 1863 0 
L 1184 0 
L 269 3500 
z
" transform="scale(0.015625)"/>
       <path id="DejaVuSans-5f" d="M 3263 -1063 
L 3263 -1509 
L -63 -1509 
L -63 -1063 
L 3263 -1063 
z
" transform="scale(0.015625)"/>
      </defs>
      <use xlink:href="#DejaVuSans-77"/>
      <use xlink:href="#DejaVuSans-5f" x="81.787109"/>
      <use xlink:href="#DejaVuSans-69" x="131.787109"/>
     </g>
    </g>
   </g>
   <g id="line2d_12">
    <path d="M 62.087613 262.828773 
L 63.838524 176.988939 
L 64.422161 154.313827 
L 65.005798 137.673265 
L 65.589435 125.323523 
L 66.173072 116.032551 
L 66.756709 108.929218 
L 67.340345 103.397071 
L 68.507619 95.426621 
L 69.674893 89.938865 
L 70.842167 85.829032 
L 72.009441 82.531754 
L 73.176715 79.752568 
L 74.927626 76.230176 
L 76.678536 73.259626 
L 78.429447 70.70914 
L 80.180358 68.502467 
L 81.931269 66.587074 
L 84.265817 64.417022 
L 86.600364 62.615385 
L 88.934912 61.119161 
L 91.26946 59.876454 
L 94.187644 58.614807 
L 97.105829 57.614401 
L 100.607651 56.683401 
L 104.109472 55.978647 
L 108.194931 55.369808 
L 113.447663 54.828212 
L 119.86767 54.410517 
L 128.038587 54.110876 
L 140.294962 53.90695 
L 162.473166 53.804532 
L 178.231363 53.78939 
L 178.231363 53.78939 
" clip-path="url(#p1062387c0b)" style="fill: none; stroke: #0072bd; stroke-width: 2; stroke-linecap: square"/>
   </g>
   <g id="line2d_13">
    <path d="M 62.087613 138.698483 
L 63.254887 123.521118 
L 64.422161 112.836842 
L 65.589435 104.999801 
L 66.756709 98.970594 
L 67.923982 94.119714 
L 69.091256 90.067554 
L 70.842167 85.008896 
L 72.593078 80.808149 
L 74.343989 77.237227 
L 76.094899 74.165163 
L 77.84581 71.506651 
L 79.596721 69.199484 
L 81.347632 67.194526 
L 83.098543 65.451083 
L 85.43309 63.474272 
L 87.767638 61.832544 
L 90.102186 60.468986 
L 92.436734 59.336433 
L 95.354918 58.186606 
L 98.273103 57.274864 
L 101.774925 56.426377 
L 105.860383 55.693366 
L 110.529479 55.10106 
L 116.365848 54.611859 
L 123.369491 54.258103 
L 133.291319 53.999058 
L 149.049516 53.844964 
L 178.231363 53.78939 
L 178.231363 53.78939 
" clip-path="url(#p1062387c0b)" style="fill: none; stroke: #0072bd; stroke-width: 2; stroke-linecap: square"/>
   </g>
   <g id="line2d_14">
    <path d="M 62.087613 191.851847 
L 63.254887 151.316549 
L 63.838524 137.192905 
L 64.422161 126.456604 
L 65.005798 118.173208 
L 65.589435 111.673484 
L 66.756709 102.240698 
L 67.923982 95.722066 
L 69.091256 90.852706 
L 70.25853 86.968754 
L 71.425804 83.715982 
L 73.176715 79.620315 
L 74.927626 76.184813 
L 76.678536 73.244067 
L 78.429447 70.703803 
L 80.180358 68.500636 
L 81.931269 66.586446 
L 84.265817 64.416871 
L 86.600364 62.615349 
L 88.934912 61.119152 
L 91.26946 59.876452 
L 94.187644 58.614806 
L 97.105829 57.614401 
L 100.607651 56.683401 
L 104.109472 55.978647 
L 108.194931 55.369808 
L 113.447663 54.828212 
L 119.86767 54.410517 
L 128.038587 54.110876 
L 140.294962 53.90695 
L 162.473166 53.804532 
L 178.231363 53.78939 
L 178.231363 53.78939 
" clip-path="url(#p1062387c0b)" style="fill: none; stroke: #0072bd; stroke-width: 2; stroke-linecap: square"/>
   </g>
   <g id="line2d_15">
    <path d="M 62.087613 91.636827 
L 63.254887 86.807393 
L 63.838524 89.621874 
L 64.422161 93.156882 
L 65.005798 94.863403 
L 65.589435 95.35662 
L 66.173072 95.055719 
L 66.756709 94.245435 
L 67.923982 91.804387 
L 72.593078 80.674675 
L 74.343989 77.191445 
L 76.094899 74.14946 
L 77.84581 71.501265 
L 79.596721 69.197637 
L 81.347632 67.193892 
L 83.098543 65.450866 
L 85.43309 63.47422 
L 87.767638 61.832531 
L 90.102186 60.468983 
L 92.436734 59.336433 
L 95.354918 58.186606 
L 98.273103 57.274864 
L 101.774925 56.426377 
L 105.860383 55.693366 
L 110.529479 55.10106 
L 116.365848 54.611859 
L 123.369491 54.258103 
L 133.291319 53.999058 
L 149.049516 53.844964 
L 178.231363 53.78939 
L 178.231363 53.78939 
" clip-path="url(#p1062387c0b)" style="fill: none; stroke: #0072bd; stroke-width: 2; stroke-linecap: square"/>
   </g>
   <g id="line2d_16">
    <path d="M 62.087613 93.188574 
L 62.67125 90.304215 
L 63.254887 90.562404 
L 63.838524 94.665003 
L 64.422161 96.687072 
L 65.005798 97.334537 
L 65.589435 97.086413 
L 66.173072 96.266574 
L 67.340345 93.711742 
L 72.009441 81.973414 
L 73.760352 78.313229 
L 75.511263 75.121229 
L 77.262173 72.34473 
L 79.013084 69.930573 
L 80.763995 67.831178 
L 82.514906 66.005161 
L 84.849454 63.934533 
L 87.184001 62.214841 
L 89.518549 60.786522 
L 91.853097 59.600178 
L 94.771281 58.39574 
L 97.689466 57.440694 
L 101.191288 56.551908 
L 105.276746 55.784083 
L 109.945842 55.163645 
L 115.198574 54.69243 
L 122.202217 54.304272 
L 131.540408 54.031279 
L 146.131332 53.861058 
L 175.896815 53.790625 
L 178.231363 53.78939 
L 178.231363 53.78939 
" clip-path="url(#p1062387c0b)" style="fill: none; stroke: #0072bd; stroke-width: 2; stroke-linecap: square"/>
   </g>
   <g id="line2d_17">
    <path d="M 62.087613 155.640901 
L 178.231363 155.640901 
L 178.231363 155.640901 
" clip-path="url(#p1062387c0b)" style="fill: none; stroke-dasharray: 7.4,3.2; stroke-dashoffset: 0; stroke: #0072bd; stroke-width: 2"/>
   </g>
   <g id="line2d_18">
    <path d="M 62.087613 112.82794 
L 178.231363 112.82794 
L 178.231363 112.82794 
" clip-path="url(#p1062387c0b)" style="fill: none; stroke: #b2b2b2; stroke-width: 2; stroke-linecap: square"/>
   </g>
   <g id="patch_3">
    <path d="M 62.67125 318.04 
L 62.67125 29.76 
" style="fill: none; stroke: #000000; stroke-width: 0.8; stroke-linejoin: miter; stroke-linecap: square"/>
   </g>
   <g id="patch_4">
    <path d="M 178.815 318.04 
L 178.815 29.76 
" style="fill: none; stroke: #000000; stroke-width: 0.8; stroke-linejoin: miter; stroke-linecap: square"/>
   </g>
   <g id="patch_5">
    <path d="M 62.67125 318.04 
L 178.815 318.04 
" style="fill: none; stroke: #000000; stroke-width: 0.8; stroke-linejoin: miter; stroke-linecap: square"/>
   </g>
   <g id="patch_6">
    <path d="M 62.67125 29.76 
L 178.815 29.76 
" style="fill: none; stroke: #000000; stroke-width: 0.8; stroke-linejoin: miter; stroke-linecap: square"/>
   </g>
   <g id="text_14">
    <!-- Leaders -->
    <g transform="translate(84.961875 23.76) scale(0.16 -0.16)">
     <defs>
      <path id="DejaVuSans-Bold-4c" d="M 588 4666 
L 1791 4666 
L 1791 909 
L 3903 909 
L 3903 0 
L 588 0 
L 588 4666 
z
" transform="scale(0.015625)"/>
      <path id="DejaVuSans-Bold-65" d="M 4031 1759 
L 4031 1441 
L 1416 1441 
Q 1456 1047 1700 850 
Q 1944 653 2381 653 
Q 2734 653 3104 758 
Q 3475 863 3866 1075 
L 3866 213 
Q 3469 63 3072 -14 
Q 2675 -91 2278 -91 
Q 1328 -91 801 392 
Q 275 875 275 1747 
Q 275 2603 792 3093 
Q 1309 3584 2216 3584 
Q 3041 3584 3536 3087 
Q 4031 2591 4031 1759 
z
M 2881 2131 
Q 2881 2450 2695 2645 
Q 2509 2841 2209 2841 
Q 1884 2841 1681 2658 
Q 1478 2475 1428 2131 
L 2881 2131 
z
" transform="scale(0.015625)"/>
      <path id="DejaVuSans-Bold-61" d="M 2106 1575 
Q 1756 1575 1579 1456 
Q 1403 1338 1403 1106 
Q 1403 894 1545 773 
Q 1688 653 1941 653 
Q 2256 653 2472 879 
Q 2688 1106 2688 1447 
L 2688 1575 
L 2106 1575 
z
M 3816 1997 
L 3816 0 
L 2688 0 
L 2688 519 
Q 2463 200 2181 54 
Q 1900 -91 1497 -91 
Q 953 -91 614 226 
Q 275 544 275 1050 
Q 275 1666 698 1953 
Q 1122 2241 2028 2241 
L 2688 2241 
L 2688 2328 
Q 2688 2594 2478 2717 
Q 2269 2841 1825 2841 
Q 1466 2841 1156 2769 
Q 847 2697 581 2553 
L 581 3406 
Q 941 3494 1303 3539 
Q 1666 3584 2028 3584 
Q 2975 3584 3395 3211 
Q 3816 2838 3816 1997 
z
" transform="scale(0.015625)"/>
      <path id="DejaVuSans-Bold-64" d="M 2919 2988 
L 2919 4863 
L 4044 4863 
L 4044 0 
L 2919 0 
L 2919 506 
Q 2688 197 2409 53 
Q 2131 -91 1766 -91 
Q 1119 -91 703 423 
Q 288 938 288 1747 
Q 288 2556 703 3070 
Q 1119 3584 1766 3584 
Q 2128 3584 2408 3439 
Q 2688 3294 2919 2988 
z
M 2181 722 
Q 2541 722 2730 984 
Q 2919 1247 2919 1747 
Q 2919 2247 2730 2509 
Q 2541 2772 2181 2772 
Q 1825 2772 1636 2509 
Q 1447 2247 1447 1747 
Q 1447 1247 1636 984 
Q 1825 722 2181 722 
z
" transform="scale(0.015625)"/>
      <path id="DejaVuSans-Bold-72" d="M 3138 2547 
Q 2991 2616 2845 2648 
Q 2700 2681 2553 2681 
Q 2122 2681 1889 2404 
Q 1656 2128 1656 1613 
L 1656 0 
L 538 0 
L 538 3500 
L 1656 3500 
L 1656 2925 
Q 1872 3269 2151 3426 
Q 2431 3584 2822 3584 
Q 2878 3584 2943 3579 
Q 3009 3575 3134 3559 
L 3138 2547 
z
" transform="scale(0.015625)"/>
      <path id="DejaVuSans-Bold-73" d="M 3272 3391 
L 3272 2541 
Q 2913 2691 2578 2766 
Q 2244 2841 1947 2841 
Q 1628 2841 1473 2761 
Q 1319 2681 1319 2516 
Q 1319 2381 1436 2309 
Q 1553 2238 1856 2203 
L 2053 2175 
Q 2913 2066 3209 1816 
Q 3506 1566 3506 1031 
Q 3506 472 3093 190 
Q 2681 -91 1863 -91 
Q 1516 -91 1145 -36 
Q 775 19 384 128 
L 384 978 
Q 719 816 1070 734 
Q 1422 653 1784 653 
Q 2113 653 2278 743 
Q 2444 834 2444 1013 
Q 2444 1163 2330 1236 
Q 2216 1309 1875 1350 
L 1678 1375 
Q 931 1469 631 1722 
Q 331 1975 331 2491 
Q 331 3047 712 3315 
Q 1094 3584 1881 3584 
Q 2191 3584 2531 3537 
Q 2872 3491 3272 3391 
z
" transform="scale(0.015625)"/>
     </defs>
     <use xlink:href="#DejaVuSans-Bold-4c"/>
     <use xlink:href="#DejaVuSans-Bold-65" x="63.720703"/>
     <use xlink:href="#DejaVuSans-Bold-61" x="131.542969"/>
     <use xlink:href="#DejaVuSans-Bold-64" x="199.023438"/>
     <use xlink:href="#DejaVuSans-Bold-65" x="270.605469"/>
     <use xlink:href="#DejaVuSans-Bold-72" x="338.427734"/>
     <use xlink:href="#DejaVuSans-Bold-73" x="387.744141"/>
    </g>
   </g>
  </g>
  <g id="axes_2">
   <g id="patch_7">
    <path d="M 251.07125 318.04 
L 367.215 318.04 
L 367.215 29.76 
L 251.07125 29.76 
z
" style="fill: #ffffff"/>
   </g>
   <g id="matplotlib.axis_3">
    <g id="xtick_3">
     <g id="line2d_19">
      <g>
       <use xlink:href="#m444717a607" x="308.851307" y="318.04" style="stroke: #000000; stroke-width: 0.8"/>
      </g>
     </g>
     <g id="text_15">
      <!-- 100 -->
      <g transform="translate(299.307557 332.638438) scale(0.1 -0.1)">
       <use xlink:href="#DejaVuSans-31"/>
       <use xlink:href="#DejaVuSans-30" x="63.623047"/>
       <use xlink:href="#DejaVuSans-30" x="127.246094"/>
      </g>
     </g>
    </g>
    <g id="xtick_4">
     <g id="line2d_20">
      <g>
       <use xlink:href="#m444717a607" x="367.215" y="318.04" style="stroke: #000000; stroke-width: 0.8"/>
      </g>
     </g>
     <g id="text_16">
      <!-- 200 -->
      <g transform="translate(357.67125 332.638438) scale(0.1 -0.1)">
       <use xlink:href="#DejaVuSans-32"/>
       <use xlink:href="#DejaVuSans-30" x="63.623047"/>
       <use xlink:href="#DejaVuSans-30" x="127.246094"/>
      </g>
     </g>
    </g>
    <g id="text_17">
     <!-- timesteps -->
     <g transform="translate(284.426719 346.316563) scale(0.1 -0.1)">
      <use xlink:href="#DejaVuSans-74"/>
      <use xlink:href="#DejaVuSans-69" x="39.208984"/>
      <use xlink:href="#DejaVuSans-6d" x="66.992188"/>
      <use xlink:href="#DejaVuSans-65" x="164.404297"/>
      <use xlink:href="#DejaVuSans-73" x="225.927734"/>
      <use xlink:href="#DejaVuSans-74" x="278.027344"/>
      <use xlink:href="#DejaVuSans-65" x="317.236328"/>
      <use xlink:href="#DejaVuSans-70" x="378.759766"/>
      <use xlink:href="#DejaVuSans-73" x="442.236328"/>
     </g>
    </g>
   </g>
   <g id="matplotlib.axis_4">
    <g id="ytick_10">
     <g id="line2d_21">
      <g>
       <use xlink:href="#mbb5042e188" x="251.07125" y="318.04" style="stroke: #000000; stroke-width: 0.8"/>
      </g>
     </g>
     <g id="text_18">
      <!-- −1.00 -->
      <g transform="translate(213.425937 321.839219) scale(0.1 -0.1)">
       <use xlink:href="#DejaVuSans-2212"/>
       <use xlink:href="#DejaVuSans-31" x="83.789062"/>
       <use xlink:href="#DejaVuSans-2e" x="147.412109"/>
       <use xlink:href="#DejaVuSans-30" x="179.199219"/>
       <use xlink:href="#DejaVuSans-30" x="242.822266"/>
      </g>
     </g>
    </g>
    <g id="ytick_11">
     <g id="line2d_22">
      <g>
       <use xlink:href="#mbb5042e188" x="251.07125" y="282.005" style="stroke: #000000; stroke-width: 0.8"/>
      </g>
     </g>
     <g id="text_19">
      <!-- −0.75 -->
      <g transform="translate(213.425937 285.804219) scale(0.1 -0.1)">
       <use xlink:href="#DejaVuSans-2212"/>
       <use xlink:href="#DejaVuSans-30" x="83.789062"/>
       <use xlink:href="#DejaVuSans-2e" x="147.412109"/>
       <use xlink:href="#DejaVuSans-37" x="179.199219"/>
       <use xlink:href="#DejaVuSans-35" x="242.822266"/>
      </g>
     </g>
    </g>
    <g id="ytick_12">
     <g id="line2d_23">
      <g>
       <use xlink:href="#mbb5042e188" x="251.07125" y="245.97" style="stroke: #000000; stroke-width: 0.8"/>
      </g>
     </g>
     <g id="text_20">
      <!-- −0.50 -->
      <g transform="translate(213.425937 249.769219) scale(0.1 -0.1)">
       <use xlink:href="#DejaVuSans-2212"/>
       <use xlink:href="#DejaVuSans-30" x="83.789062"/>
       <use xlink:href="#DejaVuSans-2e" x="147.412109"/>
       <use xlink:href="#DejaVuSans-35" x="179.199219"/>
       <use xlink:href="#DejaVuSans-30" x="242.822266"/>
      </g>
     </g>
    </g>
    <g id="ytick_13">
     <g id="line2d_24">
      <g>
       <use xlink:href="#mbb5042e188" x="251.07125" y="209.935" style="stroke: #000000; stroke-width: 0.8"/>
      </g>
     </g>
     <g id="text_21">
      <!-- −0.25 -->
      <g transform="translate(213.425937 213.734219) scale(0.1 -0.1)">
       <use xlink:href="#DejaVuSans-2212"/>
       <use xlink:href="#DejaVuSans-30" x="83.789062"/>
       <use xlink:href="#DejaVuSans-2e" x="147.412109"/>
       <use xlink:href="#DejaVuSans-32" x="179.199219"/>
       <use xlink:href="#DejaVuSans-35" x="242.822266"/>
      </g>
     </g>
    </g>
    <g id="ytick_14">
     <g id="line2d_25">
      <g>
       <use xlink:href="#mbb5042e188" x="251.07125" y="173.9" style="stroke: #000000; stroke-width: 0.8"/>
      </g>
     </g>
     <g id="text_22">
      <!-- 0.00 -->
      <g transform="translate(221.805625 177.699219) scale(0.1 -0.1)">
       <use xlink:href="#DejaVuSans-30"/>
       <use xlink:href="#DejaVuSans-2e" x="63.623047"/>
       <use xlink:href="#DejaVuSans-30" x="95.410156"/>
       <use xlink:href="#DejaVuSans-30" x="159.033203"/>
      </g>
     </g>
    </g>
    <g id="ytick_15">
     <g id="line2d_26">
      <g>
       <use xlink:href="#mbb5042e188" x="251.07125" y="137.865" style="stroke: #000000; stroke-width: 0.8"/>
      </g>
     </g>
     <g id="text_23">
      <!-- 0.25 -->
      <g transform="translate(221.805625 141.664219) scale(0.1 -0.1)">
       <use xlink:href="#DejaVuSans-30"/>
       <use xlink:href="#DejaVuSans-2e" x="63.623047"/>
       <use xlink:href="#DejaVuSans-32" x="95.410156"/>
       <use xlink:href="#DejaVuSans-35" x="159.033203"/>
      </g>
     </g>
    </g>
    <g id="ytick_16">
     <g id="line2d_27">
      <g>
       <use xlink:href="#mbb5042e188" x="251.07125" y="101.83" style="stroke: #000000; stroke-width: 0.8"/>
      </g>
     </g>
     <g id="text_24">
      <!-- 0.50 -->
      <g transform="translate(221.805625 105.629219) scale(0.1 -0.1)">
       <use xlink:href="#DejaVuSans-30"/>
       <use xlink:href="#DejaVuSans-2e" x="63.623047"/>
       <use xlink:href="#DejaVuSans-35" x="95.410156"/>
       <use xlink:href="#DejaVuSans-30" x="159.033203"/>
      </g>
     </g>
    </g>
    <g id="ytick_17">
     <g id="line2d_28">
      <g>
       <use xlink:href="#mbb5042e188" x="251.07125" y="65.795" style="stroke: #000000; stroke-width: 0.8"/>
      </g>
     </g>
     <g id="text_25">
      <!-- 0.75 -->
      <g transform="translate(221.805625 69.594219) scale(0.1 -0.1)">
       <use xlink:href="#DejaVuSans-30"/>
       <use xlink:href="#DejaVuSans-2e" x="63.623047"/>
       <use xlink:href="#DejaVuSans-37" x="95.410156"/>
       <use xlink:href="#DejaVuSans-35" x="159.033203"/>
      </g>
     </g>
    </g>
    <g id="ytick_18">
     <g id="line2d_29">
      <g>
       <use xlink:href="#mbb5042e188" x="251.07125" y="29.76" style="stroke: #000000; stroke-width: 0.8"/>
      </g>
     </g>
     <g id="text_26">
      <!-- 1.00 -->
      <g transform="translate(221.805625 33.559219) scale(0.1 -0.1)">
       <use xlink:href="#DejaVuSans-31"/>
       <use xlink:href="#DejaVuSans-2e" x="63.623047"/>
       <use xlink:href="#DejaVuSans-30" x="95.410156"/>
       <use xlink:href="#DejaVuSans-30" x="159.033203"/>
      </g>
     </g>
    </g>
    <g id="text_27">
     <!-- w_i -->
     <g transform="translate(207.068125 181.878125) rotate(-90) scale(0.1 -0.1)">
      <use xlink:href="#DejaVuSans-77"/>
      <use xlink:href="#DejaVuSans-5f" x="81.787109"/>
      <use xlink:href="#DejaVuSans-69" x="131.787109"/>
     </g>
    </g>
   </g>
   <g id="line2d_30">
    <path d="M 250.487613 239.457004 
L 251.07125 237.314917 
L 251.654887 231.684699 
L 252.238524 222.783396 
L 253.989435 183.293061 
L 255.156709 164.827314 
L 256.323982 151.301922 
L 257.491256 141.09373 
L 258.65853 133.143006 
L 259.825804 126.757725 
L 260.993078 121.484522 
L 262.160352 117.024368 
L 263.911263 111.440714 
L 265.662173 106.827276 
L 267.413084 102.935424 
L 269.163995 99.610086 
L 270.914906 96.747067 
L 272.665817 94.271076 
L 274.416727 92.124261 
L 276.167638 90.260098 
L 278.502186 88.148419 
L 280.836734 86.395722 
L 283.171281 84.940426 
L 285.505829 83.731849 
L 288.424014 82.504928 
L 291.342198 81.53209 
L 294.84402 80.626758 
L 298.929479 79.844644 
L 303.598574 79.212662 
L 308.851307 78.732679 
L 315.85495 78.337299 
L 325.193141 78.059226 
L 339.200427 77.889598 
L 366.631363 77.816033 
L 366.631363 77.816033 
" clip-path="url(#p7643996680)" style="fill: none; stroke: #d95319; stroke-width: 2; stroke-linecap: square"/>
   </g>
   <g id="line2d_31">
    <path d="M 250.487613 238.340885 
L 251.07125 236.332733 
L 251.654887 230.836746 
L 252.822161 206.278474 
L 253.989435 181.482842 
L 255.156709 163.697557 
L 256.323982 150.59684 
L 257.491256 140.653689 
L 258.65853 132.868376 
L 259.825804 126.586329 
L 260.993078 121.377553 
L 262.160352 116.957609 
L 263.911263 111.407799 
L 265.662173 106.811047 
L 267.413084 102.927423 
L 269.163995 99.606141 
L 270.914906 96.745122 
L 272.665817 94.270117 
L 274.416727 92.123788 
L 276.167638 90.259865 
L 278.502186 88.148328 
L 280.836734 86.395687 
L 283.171281 84.940412 
L 285.505829 83.731843 
L 288.424014 82.504926 
L 291.342198 81.532089 
L 294.84402 80.626758 
L 298.929479 79.844644 
L 303.598574 79.212662 
L 308.851307 78.732679 
L 315.85495 78.337299 
L 325.193141 78.059226 
L 339.200427 77.889598 
L 366.631363 77.816033 
L 366.631363 77.816033 
" clip-path="url(#p7643996680)" style="fill: none; stroke: #d95319; stroke-width: 2; stroke-linecap: square"/>
   </g>
   <g id="line2d_32">
    <path d="M 250.487613 86.876289 
L 251.07125 93.572226 
L 251.654887 106.359899 
L 252.238524 115.500041 
L 252.822161 121.871002 
L 253.405798 126.136078 
L 253.989435 128.804139 
L 254.573072 130.265755 
L 255.156709 130.820778 
L 255.740345 130.699434 
L 256.323982 130.078443 
L 256.907619 129.093382 
L 258.074893 126.422275 
L 260.409441 119.927926 
L 263.327626 111.923746 
L 265.078536 107.656796 
L 266.829447 103.858581 
L 268.580358 100.512455 
L 270.331269 97.581016 
L 272.08218 95.020713 
L 273.83309 92.788336 
L 275.584001 90.843717 
L 277.918549 88.636541 
L 280.253097 86.802468 
L 282.587644 85.278779 
L 284.922192 84.013084 
L 287.840377 82.728016 
L 290.758562 81.709012 
L 294.260383 80.760694 
L 297.762205 80.042828 
L 301.847663 79.42266 
L 307.100396 78.870987 
L 313.520402 78.44552 
L 321.691319 78.140304 
L 333.947695 77.932583 
L 355.542261 77.829285 
L 366.631363 77.816033 
L 366.631363 77.816033 
" clip-path="url(#p7643996680)" style="fill: none; stroke: #d95319; stroke-width: 2; stroke-linecap: square"/>
   </g>
   <g id="line2d_33">
    <path d="M 250.487613 41.827587 
L 251.07125 49.696321 
L 252.238524 69.534559 
L 253.989435 102.990678 
L 254.573072 109.873121 
L 255.156709 114.710597 
L 255.740345 117.972391 
L 256.323982 120.024079 
L 256.907619 121.150435 
L 257.491256 121.573228 
L 258.074893 121.465082 
L 258.65853 120.960261 
L 259.242167 120.163082 
L 260.409441 117.997095 
L 262.160352 114.062896 
L 265.662173 106.107379 
L 267.996721 101.489551 
L 269.747632 98.470301 
L 271.498543 95.813713 
L 273.249454 93.487779 
L 275.000364 91.456944 
L 277.334912 89.148582 
L 279.66946 87.228818 
L 282.004008 85.633315 
L 284.338555 84.30772 
L 286.673103 83.206538 
L 289.591288 82.08848 
L 292.509472 81.2019 
L 296.011294 80.376818 
L 300.096753 79.664024 
L 304.765848 79.088053 
L 310.602217 78.612343 
L 318.189497 78.24741 
L 328.694962 77.99785 
L 345.620433 77.856446 
L 366.631363 77.816033 
L 366.631363 77.816033 
" clip-path="url(#p7643996680)" style="fill: none; stroke: #d95319; stroke-width: 2; stroke-linecap: square"/>
   </g>
   <g id="line2d_34">
    <path d="M 250.487613 65.52614 
L 251.654887 81.491996 
L 252.238524 90.862106 
L 252.822161 102.407034 
L 253.405798 110.759543 
L 253.989435 116.656677 
L 254.573072 120.669259 
L 255.156709 123.239547 
L 255.740345 124.710261 
L 256.323982 125.346996 
L 256.907619 125.35554 
L 257.491256 124.895261 
L 258.074893 124.089488 
L 259.242167 121.800973 
L 260.993078 117.546877 
L 264.494899 108.852788 
L 266.829447 103.790617 
L 268.580358 100.478946 
L 270.331269 97.564495 
L 272.08218 95.012567 
L 273.83309 92.78432 
L 275.584001 90.841737 
L 277.918549 88.635769 
L 280.253097 86.802167 
L 282.587644 85.278662 
L 284.922192 84.013039 
L 287.840377 82.728002 
L 290.758562 81.709007 
L 294.260383 80.760693 
L 297.762205 80.042828 
L 301.847663 79.42266 
L 307.100396 78.870987 
L 313.520402 78.44552 
L 321.691319 78.140304 
L 333.947695 77.932583 
L 355.542261 77.829285 
L 366.631363 77.816033 
L 366.631363 77.816033 
" clip-path="url(#p7643996680)" style="fill: none; stroke: #d95319; stroke-width: 2; stroke-linecap: square"/>
   </g>
   <g id="line2d_35">
    <path d="M 250.487613 214.888437 
L 251.07125 208.662014 
L 251.654887 199.93026 
L 252.822161 180.268264 
L 253.989435 165.249871 
L 255.156709 153.566559 
L 256.323982 144.274085 
L 257.491256 136.707657 
L 258.65853 130.405657 
L 259.825804 125.049346 
L 261.576715 118.324824 
L 263.327626 112.762588 
L 265.078536 108.070378 
L 266.829447 104.062493 
L 268.580358 100.612991 
L 270.331269 97.630585 
L 272.08218 95.045152 
L 273.83309 92.800385 
L 275.584001 90.849658 
L 277.918549 88.638855 
L 280.253097 86.803369 
L 282.587644 85.279131 
L 284.922192 84.013221 
L 287.840377 82.728058 
L 290.758562 81.709024 
L 294.260383 80.760697 
L 297.762205 80.042829 
L 301.847663 79.422661 
L 307.100396 78.870987 
L 313.520402 78.44552 
L 321.691319 78.140304 
L 333.947695 77.932583 
L 355.542261 77.829285 
L 366.631363 77.816033 
L 366.631363 77.816033 
" clip-path="url(#p7643996680)" style="fill: none; stroke: #d95319; stroke-width: 2; stroke-linecap: square"/>
   </g>
   <g id="line2d_36">
    <path d="M 250.487613 147.81939 
L 366.631363 147.81939 
L 366.631363 147.81939 
" clip-path="url(#p7643996680)" style="fill: none; stroke-dasharray: 7.4,3.2; stroke-dashoffset: 0; stroke: #d95319; stroke-width: 2"/>
   </g>
   <g id="line2d_37">
    <path d="M 250.487613 112.82794 
L 366.631363 112.82794 
L 366.631363 112.82794 
" clip-path="url(#p7643996680)" style="fill: none; stroke: #b2b2b2; stroke-width: 2; stroke-linecap: square"/>
   </g>
   <g id="patch_8">
    <path d="M 251.07125 318.04 
L 251.07125 29.76 
" style="fill: none; stroke: #000000; stroke-width: 0.8; stroke-linejoin: miter; stroke-linecap: square"/>
   </g>
   <g id="patch_9">
    <path d="M 367.215 318.04 
L 367.215 29.76 
" style="fill: none; stroke: #000000; stroke-width: 0.8; stroke-linejoin: miter; stroke-linecap: square"/>
   </g>
   <g id="patch_10">
    <path d="M 251.07125 318.04 
L 367.215 318.04 
" style="fill: none; stroke: #000000; stroke-width: 0.8; stroke-linejoin: miter; stroke-linecap: square"/>
   </g>
   <g id="patch_11">
    <path d="M 251.07125 29.76 
L 367.215 29.76 
" style="fill: none; stroke: #000000; stroke-width: 0.8; stroke-linejoin: miter; stroke-linecap: square"/>
   </g>
   <g id="text_28">
    <!-- Followers -->
    <g transform="translate(265.996875 23.76) scale(0.16 -0.16)">
     <defs>
      <path id="DejaVuSans-Bold-46" d="M 588 4666 
L 3834 4666 
L 3834 3756 
L 1791 3756 
L 1791 2888 
L 3713 2888 
L 3713 1978 
L 1791 1978 
L 1791 0 
L 588 0 
L 588 4666 
z
" transform="scale(0.015625)"/>
      <path id="DejaVuSans-Bold-6f" d="M 2203 2784 
Q 1831 2784 1636 2517 
Q 1441 2250 1441 1747 
Q 1441 1244 1636 976 
Q 1831 709 2203 709 
Q 2569 709 2762 976 
Q 2956 1244 2956 1747 
Q 2956 2250 2762 2517 
Q 2569 2784 2203 2784 
z
M 2203 3584 
Q 3106 3584 3614 3096 
Q 4122 2609 4122 1747 
Q 4122 884 3614 396 
Q 3106 -91 2203 -91 
Q 1297 -91 786 396 
Q 275 884 275 1747 
Q 275 2609 786 3096 
Q 1297 3584 2203 3584 
z
" transform="scale(0.015625)"/>
      <path id="DejaVuSans-Bold-6c" d="M 538 4863 
L 1656 4863 
L 1656 0 
L 538 0 
L 538 4863 
z
" transform="scale(0.015625)"/>
      <path id="DejaVuSans-Bold-77" d="M 225 3500 
L 1313 3500 
L 1900 1088 
L 2491 3500 
L 3425 3500 
L 4013 1113 
L 4603 3500 
L 5691 3500 
L 4769 0 
L 3547 0 
L 2956 2406 
L 2369 0 
L 1147 0 
L 225 3500 
z
" transform="scale(0.015625)"/>
     </defs>
     <use xlink:href="#DejaVuSans-Bold-46"/>
     <use xlink:href="#DejaVuSans-Bold-6f" x="64.310547"/>
     <use xlink:href="#DejaVuSans-Bold-6c" x="133.011719"/>
     <use xlink:href="#DejaVuSans-Bold-6c" x="167.289062"/>
     <use xlink:href="#DejaVuSans-Bold-6f" x="201.566406"/>
     <use xlink:href="#DejaVuSans-Bold-77" x="270.267578"/>
     <use xlink:href="#DejaVuSans-Bold-65" x="362.650391"/>
     <use xlink:href="#DejaVuSans-Bold-72" x="430.472656"/>
     <use xlink:href="#DejaVuSans-Bold-73" x="479.789062"/>
    </g>
   </g>
  </g>
  <g id="axes_3">
   <g id="patch_12">
    <path d="M 439.47125 318.04 
L 555.615 318.04 
L 555.615 29.76 
L 439.47125 29.76 
z
" style="fill: #ffffff"/>
   </g>
   <g id="matplotlib.axis_5">
    <g id="xtick_5">
     <g id="line2d_38">
      <g>
       <use xlink:href="#m444717a607" x="497.251307" y="318.04" style="stroke: #000000; stroke-width: 0.8"/>
      </g>
     </g>
     <g id="text_29">
      <!-- 100 -->
      <g transform="translate(487.707557 332.638438) scale(0.1 -0.1)">
       <use xlink:href="#DejaVuSans-31"/>
       <use xlink:href="#DejaVuSans-30" x="63.623047"/>
       <use xlink:href="#DejaVuSans-30" x="127.246094"/>
      </g>
     </g>
    </g>
    <g id="xtick_6">
     <g id="line2d_39">
      <g>
       <use xlink:href="#m444717a607" x="555.615" y="318.04" style="stroke: #000000; stroke-width: 0.8"/>
      </g>
     </g>
     <g id="text_30">
      <!-- 200 -->
      <g transform="translate(546.07125 332.638438) scale(0.1 -0.1)">
       <use xlink:href="#DejaVuSans-32"/>
       <use xlink:href="#DejaVuSans-30" x="63.623047"/>
       <use xlink:href="#DejaVuSans-30" x="127.246094"/>
      </g>
     </g>
    </g>
    <g id="text_31">
     <!-- timesteps -->
     <g transform="translate(472.826719 346.316563) scale(0.1 -0.1)">
      <use xlink:href="#DejaVuSans-74"/>
      <use xlink:href="#DejaVuSans-69" x="39.208984"/>
      <use xlink:href="#DejaVuSans-6d" x="66.992188"/>
      <use xlink:href="#DejaVuSans-65" x="164.404297"/>
      <use xlink:href="#DejaVuSans-73" x="225.927734"/>
      <use xlink:href="#DejaVuSans-74" x="278.027344"/>
      <use xlink:href="#DejaVuSans-65" x="317.236328"/>
      <use xlink:href="#DejaVuSans-70" x="378.759766"/>
      <use xlink:href="#DejaVuSans-73" x="442.236328"/>
     </g>
    </g>
   </g>
   <g id="matplotlib.axis_6">
    <g id="ytick_19">
     <g id="line2d_40">
      <g>
       <use xlink:href="#mbb5042e188" x="439.47125" y="318.04" style="stroke: #000000; stroke-width: 0.8"/>
      </g>
     </g>
     <g id="text_32">
      <!-- −1.00 -->
      <g transform="translate(401.825937 321.839219) scale(0.1 -0.1)">
       <use xlink:href="#DejaVuSans-2212"/>
       <use xlink:href="#DejaVuSans-31" x="83.789062"/>
       <use xlink:href="#DejaVuSans-2e" x="147.412109"/>
       <use xlink:href="#DejaVuSans-30" x="179.199219"/>
       <use xlink:href="#DejaVuSans-30" x="242.822266"/>
      </g>
     </g>
    </g>
    <g id="ytick_20">
     <g id="line2d_41">
      <g>
       <use xlink:href="#mbb5042e188" x="439.47125" y="282.005" style="stroke: #000000; stroke-width: 0.8"/>
      </g>
     </g>
     <g id="text_33">
      <!-- −0.75 -->
      <g transform="translate(401.825937 285.804219) scale(0.1 -0.1)">
       <use xlink:href="#DejaVuSans-2212"/>
       <use xlink:href="#DejaVuSans-30" x="83.789062"/>
       <use xlink:href="#DejaVuSans-2e" x="147.412109"/>
       <use xlink:href="#DejaVuSans-37" x="179.199219"/>
       <use xlink:href="#DejaVuSans-35" x="242.822266"/>
      </g>
     </g>
    </g>
    <g id="ytick_21">
     <g id="line2d_42">
      <g>
       <use xlink:href="#mbb5042e188" x="439.47125" y="245.97" style="stroke: #000000; stroke-width: 0.8"/>
      </g>
     </g>
     <g id="text_34">
      <!-- −0.50 -->
      <g transform="translate(401.825937 249.769219) scale(0.1 -0.1)">
       <use xlink:href="#DejaVuSans-2212"/>
       <use xlink:href="#DejaVuSans-30" x="83.789062"/>
       <use xlink:href="#DejaVuSans-2e" x="147.412109"/>
       <use xlink:href="#DejaVuSans-35" x="179.199219"/>
       <use xlink:href="#DejaVuSans-30" x="242.822266"/>
      </g>
     </g>
    </g>
    <g id="ytick_22">
     <g id="line2d_43">
      <g>
       <use xlink:href="#mbb5042e188" x="439.47125" y="209.935" style="stroke: #000000; stroke-width: 0.8"/>
      </g>
     </g>
     <g id="text_35">
      <!-- −0.25 -->
      <g transform="translate(401.825937 213.734219) scale(0.1 -0.1)">
       <use xlink:href="#DejaVuSans-2212"/>
       <use xlink:href="#DejaVuSans-30" x="83.789062"/>
       <use xlink:href="#DejaVuSans-2e" x="147.412109"/>
       <use xlink:href="#DejaVuSans-32" x="179.199219"/>
       <use xlink:href="#DejaVuSans-35" x="242.822266"/>
      </g>
     </g>
    </g>
    <g id="ytick_23">
     <g id="line2d_44">
      <g>
       <use xlink:href="#mbb5042e188" x="439.47125" y="173.9" style="stroke: #000000; stroke-width: 0.8"/>
      </g>
     </g>
     <g id="text_36">
      <!-- 0.00 -->
      <g transform="translate(410.205625 177.699219) scale(0.1 -0.1)">
       <use xlink:href="#DejaVuSans-30"/>
       <use xlink:href="#DejaVuSans-2e" x="63.623047"/>
       <use xlink:href="#DejaVuSans-30" x="95.410156"/>
       <use xlink:href="#DejaVuSans-30" x="159.033203"/>
      </g>
     </g>
    </g>
    <g id="ytick_24">
     <g id="line2d_45">
      <g>
       <use xlink:href="#mbb5042e188" x="439.47125" y="137.865" style="stroke: #000000; stroke-width: 0.8"/>
      </g>
     </g>
     <g id="text_37">
      <!-- 0.25 -->
      <g transform="translate(410.205625 141.664219) scale(0.1 -0.1)">
       <use xlink:href="#DejaVuSans-30"/>
       <use xlink:href="#DejaVuSans-2e" x="63.623047"/>
       <use xlink:href="#DejaVuSans-32" x="95.410156"/>
       <use xlink:href="#DejaVuSans-35" x="159.033203"/>
      </g>
     </g>
    </g>
    <g id="ytick_25">
     <g id="line2d_46">
      <g>
       <use xlink:href="#mbb5042e188" x="439.47125" y="101.83" style="stroke: #000000; stroke-width: 0.8"/>
      </g>
     </g>
     <g id="text_38">
      <!-- 0.50 -->
      <g transform="translate(410.205625 105.629219) scale(0.1 -0.1)">
       <use xlink:href="#DejaVuSans-30"/>
       <use xlink:href="#DejaVuSans-2e" x="63.623047"/>
       <use xlink:href="#DejaVuSans-35" x="95.410156"/>
       <use xlink:href="#DejaVuSans-30" x="159.033203"/>
      </g>
     </g>
    </g>
    <g id="ytick_26">
     <g id="line2d_47">
      <g>
       <use xlink:href="#mbb5042e188" x="439.47125" y="65.795" style="stroke: #000000; stroke-width: 0.8"/>
      </g>
     </g>
     <g id="text_39">
      <!-- 0.75 -->
      <g transform="translate(410.205625 69.594219) scale(0.1 -0.1)">
       <use xlink:href="#DejaVuSans-30"/>
       <use xlink:href="#DejaVuSans-2e" x="63.623047"/>
       <use xlink:href="#DejaVuSans-37" x="95.410156"/>
       <use xlink:href="#DejaVuSans-35" x="159.033203"/>
      </g>
     </g>
    </g>
    <g id="ytick_27">
     <g id="line2d_48">
      <g>
       <use xlink:href="#mbb5042e188" x="439.47125" y="29.76" style="stroke: #000000; stroke-width: 0.8"/>
      </g>
     </g>
     <g id="text_40">
      <!-- 1.00 -->
      <g transform="translate(410.205625 33.559219) scale(0.1 -0.1)">
       <use xlink:href="#DejaVuSans-31"/>
       <use xlink:href="#DejaVuSans-2e" x="63.623047"/>
       <use xlink:href="#DejaVuSans-30" x="95.410156"/>
       <use xlink:href="#DejaVuSans-30" x="159.033203"/>
      </g>
     </g>
    </g>
    <g id="text_41">
     <!-- w_i -->
     <g transform="translate(395.468125 181.878125) rotate(-90) scale(0.1 -0.1)">
      <use xlink:href="#DejaVuSans-77"/>
      <use xlink:href="#DejaVuSans-5f" x="81.787109"/>
      <use xlink:href="#DejaVuSans-69" x="131.787109"/>
     </g>
    </g>
   </g>
   <g id="line2d_49">
    <path d="M 438.887613 173.613125 
L 440.054887 171.66396 
L 441.222161 170.085136 
L 442.389435 168.806288 
L 443.556709 167.770421 
L 445.307619 166.573669 
L 447.05853 165.701236 
L 448.809441 165.065232 
L 451.143989 164.476863 
L 454.062173 164.017186 
L 457.563995 163.706613 
L 462.816727 163.490829 
L 472.154918 163.379647 
L 503.087676 163.354454 
L 555.031363 163.354359 
L 555.031363 163.354359 
" clip-path="url(#p4de4c0dd1a)" style="fill: none; stroke: #000000; stroke-width: 2; stroke-linecap: square"/>
   </g>
   <g id="line2d_50">
    <path d="M 438.887613 121.011305 
L 440.054887 125.459942 
L 441.805798 131.069337 
L 442.973072 134.269904 
L 444.140345 139.79595 
L 445.307619 144.272048 
L 446.474893 147.897687 
L 447.642167 150.834455 
L 448.809441 153.213236 
L 449.976715 155.14005 
L 451.143989 156.700769 
L 452.311263 157.964951 
L 453.478536 158.988938 
L 455.229447 160.171967 
L 456.980358 161.034395 
L 458.731269 161.663106 
L 461.065817 162.244728 
L 463.984001 162.699133 
L 467.485823 163.006145 
L 472.738555 163.219454 
L 482.076746 163.329361 
L 513.593141 163.354274 
L 555.031363 163.354359 
L 555.031363 163.354359 
" clip-path="url(#p4de4c0dd1a)" style="fill: none; stroke: #000000; stroke-width: 2; stroke-linecap: square"/>
   </g>
   <g id="line2d_51">
    <path d="M 438.887613 112.58226 
L 440.054887 118.479849 
L 441.222161 123.545192 
L 442.973072 129.914102 
L 443.556709 131.775331 
L 444.723982 137.775346 
L 445.891256 142.635358 
L 447.05853 146.571969 
L 448.225804 149.760623 
L 449.393078 152.343433 
L 450.560352 154.435509 
L 451.727626 156.13009 
L 452.894899 157.502701 
L 454.062173 158.614516 
L 455.813084 159.899014 
L 457.563995 160.835412 
L 459.314906 161.518047 
L 461.649454 162.149555 
L 464.567638 162.642934 
L 468.06946 162.976279 
L 473.322192 163.207883 
L 482.076746 163.324201 
L 508.924045 163.354122 
L 555.031363 163.354359 
L 555.031363 163.354359 
" clip-path="url(#p4de4c0dd1a)" style="fill: none; stroke: #000000; stroke-width: 2; stroke-linecap: square"/>
   </g>
   <g id="line2d_52">
    <path d="M 438.887613 211.304112 
L 439.47125 207.986256 
L 440.638524 199.506196 
L 441.805798 192.637347 
L 442.973072 187.073579 
L 444.140345 182.566927 
L 445.307619 178.916539 
L 446.474893 175.959725 
L 447.642167 173.564705 
L 448.809441 171.62474 
L 449.976715 170.053367 
L 451.143989 168.780556 
L 452.311263 167.749578 
L 454.062173 166.558474 
L 455.813084 165.690159 
L 457.563995 165.057157 
L 459.898543 164.471565 
L 462.816727 164.014058 
L 466.318549 163.70495 
L 471.571281 163.490185 
L 480.909472 163.379528 
L 512.425867 163.354444 
L 555.031363 163.354359 
L 555.031363 163.354359 
" clip-path="url(#p4de4c0dd1a)" style="fill: none; stroke: #000000; stroke-width: 2; stroke-linecap: square"/>
   </g>
   <g id="line2d_53">
    <path d="M 438.887613 156.258363 
L 440.054887 154.648031 
L 441.222161 153.496063 
L 442.389435 155.36914 
L 443.556709 156.886331 
L 444.723982 158.115257 
L 445.891256 159.110686 
L 447.642167 160.260721 
L 449.393078 161.099097 
L 451.143989 161.710273 
L 453.478536 162.275674 
L 456.396721 162.717406 
L 459.898543 163.015856 
L 465.151275 163.223216 
L 474.489466 163.330058 
L 506.589497 163.354285 
L 555.031363 163.354359 
L 555.031363 163.354359 
" clip-path="url(#p4de4c0dd1a)" style="fill: none; stroke: #000000; stroke-width: 2; stroke-linecap: square"/>
   </g>
   <g id="line2d_54">
    <path d="M 438.887613 173.011185 
L 440.054887 171.176388 
L 441.222161 169.690203 
L 442.389435 168.486392 
L 443.556709 167.511306 
L 445.307619 166.384773 
L 447.05853 165.563531 
L 448.809441 164.964845 
L 451.143989 164.410999 
L 454.062173 163.978294 
L 458.147632 163.652785 
L 463.984001 163.458414 
L 475.073103 163.368415 
L 527.01679 163.35436 
L 555.031363 163.354359 
L 555.031363 163.354359 
" clip-path="url(#p4de4c0dd1a)" style="fill: none; stroke: #000000; stroke-width: 2; stroke-linecap: square"/>
   </g>
   <g id="line2d_55">
    <path d="M 438.887613 314.070831 
L 441.805798 289.321612 
L 443.556709 271.517819 
L 444.723982 255.30312 
L 445.891256 237.832855 
L 447.05853 223.681941 
L 448.225804 212.219701 
L 449.393078 202.935286 
L 450.560352 195.41491 
L 451.727626 189.323405 
L 452.894899 184.389286 
L 454.062173 180.39265 
L 455.229447 177.155375 
L 456.396721 174.533182 
L 457.563995 172.409205 
L 458.731269 170.688785 
L 459.898543 169.295244 
L 461.065817 168.166476 
L 462.816727 166.862392 
L 464.567638 165.911715 
L 466.318549 165.218672 
L 468.653097 164.577534 
L 471.571281 164.076632 
L 475.073103 163.738204 
L 480.325835 163.503069 
L 489.080389 163.384977 
L 515.927688 163.3546 
L 555.031363 163.354359 
L 555.031363 163.354359 
" clip-path="url(#p4de4c0dd1a)" style="fill: none; stroke: #000000; stroke-width: 2; stroke-linecap: square"/>
   </g>
   <g id="line2d_56">
    <path d="M 438.887613 95.249542 
L 440.054887 104.126625 
L 441.222161 111.659288 
L 442.389435 118.086003 
L 443.556709 123.624576 
L 444.140345 126.118622 
L 445.307619 133.193412 
L 446.474893 138.923992 
L 447.642167 143.565762 
L 448.809441 147.325595 
L 449.976715 150.37106 
L 451.143989 152.837887 
L 452.311263 154.836017 
L 453.478536 156.454502 
L 454.64581 157.765475 
L 455.813084 158.827363 
L 457.563995 160.054179 
L 459.314906 160.948528 
L 461.065817 161.600508 
L 463.400364 162.203657 
L 466.318549 162.674881 
L 469.820371 162.993257 
L 475.073103 163.214461 
L 484.411294 163.328436 
L 514.760415 163.354251 
L 555.031363 163.354359 
L 555.031363 163.354359 
" clip-path="url(#p4de4c0dd1a)" style="fill: none; stroke: #000000; stroke-width: 2; stroke-linecap: square"/>
   </g>
   <g id="line2d_57">
    <path d="M 438.887613 63.592198 
L 439.47125 68.093924 
L 440.638524 81.730724 
L 441.805798 93.201495 
L 442.973072 102.911544 
L 444.140345 111.17499 
L 444.723982 114.866442 
L 445.891256 124.079146 
L 447.05853 131.541436 
L 448.225804 137.585892 
L 449.393078 142.4819 
L 450.560352 146.447668 
L 451.727626 149.659939 
L 452.894899 152.261879 
L 454.062173 154.36945 
L 455.229447 156.076583 
L 456.396721 157.45936 
L 457.563995 158.57941 
L 459.314906 159.873421 
L 461.065817 160.816755 
L 462.816727 161.504446 
L 465.151275 162.140631 
L 468.06946 162.637665 
L 471.571281 162.973478 
L 476.824014 163.206798 
L 485.578568 163.323977 
L 512.425867 163.35412 
L 555.031363 163.354359 
L 555.031363 163.354359 
" clip-path="url(#p4de4c0dd1a)" style="fill: none; stroke: #000000; stroke-width: 2; stroke-linecap: square"/>
   </g>
   <g id="line2d_58">
    <path d="M 438.887613 212.850669 
L 439.47125 209.393622 
L 440.638524 200.646162 
L 441.805798 193.56072 
L 442.973072 187.821511 
L 444.140345 183.172752 
L 445.307619 179.407258 
L 446.474893 176.357207 
L 447.642167 173.886666 
L 448.809441 171.885527 
L 449.976715 170.264605 
L 451.143989 168.951659 
L 452.311263 167.888172 
L 454.062173 166.659508 
L 455.813084 165.763813 
L 457.563995 165.110851 
L 459.898543 164.506793 
L 462.816727 164.03486 
L 466.318549 163.716005 
L 471.571281 163.494468 
L 480.909472 163.380321 
L 511.258593 163.354467 
L 555.031363 163.354359 
L 555.031363 163.354359 
" clip-path="url(#p4de4c0dd1a)" style="fill: none; stroke: #000000; stroke-width: 2; stroke-linecap: square"/>
   </g>
   <g id="line2d_59">
    <path d="M 438.887613 163.354359 
L 555.031363 163.354359 
L 555.031363 163.354359 
" clip-path="url(#p4de4c0dd1a)" style="fill: none; stroke-dasharray: 7.4,3.2; stroke-dashoffset: 0; stroke: #000000; stroke-width: 2"/>
   </g>
   <g id="line2d_60">
    <path d="M 438.887613 112.82794 
L 555.031363 112.82794 
L 555.031363 112.82794 
" clip-path="url(#p4de4c0dd1a)" style="fill: none; stroke: #b2b2b2; stroke-width: 2; stroke-linecap: square"/>
   </g>
   <g id="patch_13">
    <path d="M 439.47125 318.04 
L 439.47125 29.76 
" style="fill: none; stroke: #000000; stroke-width: 0.8; stroke-linejoin: miter; stroke-linecap: square"/>
   </g>
   <g id="patch_14">
    <path d="M 555.615 318.04 
L 555.615 29.76 
" style="fill: none; stroke: #000000; stroke-width: 0.8; stroke-linejoin: miter; stroke-linecap: square"/>
   </g>
   <g id="patch_15">
    <path d="M 439.47125 318.04 
L 555.615 318.04 
" style="fill: none; stroke: #000000; stroke-width: 0.8; stroke-linejoin: miter; stroke-linecap: square"/>
   </g>
   <g id="patch_16">
    <path d="M 439.47125 29.76 
L 555.615 29.76 
" style="fill: none; stroke: #000000; stroke-width: 0.8; stroke-linejoin: miter; stroke-linecap: square"/>
   </g>
   <g id="text_42">
    <!-- Uninformed -->
    <g transform="translate(444.504375 23.76) scale(0.16 -0.16)">
     <defs>
      <path id="DejaVuSans-Bold-55" d="M 588 4666 
L 1791 4666 
L 1791 1869 
Q 1791 1291 1980 1042 
Q 2169 794 2597 794 
Q 3028 794 3217 1042 
Q 3406 1291 3406 1869 
L 3406 4666 
L 4609 4666 
L 4609 1869 
Q 4609 878 4112 393 
Q 3616 -91 2597 -91 
Q 1581 -91 1084 393 
Q 588 878 588 1869 
L 588 4666 
z
" transform="scale(0.015625)"/>
      <path id="DejaVuSans-Bold-6e" d="M 4056 2131 
L 4056 0 
L 2931 0 
L 2931 347 
L 2931 1631 
Q 2931 2084 2911 2256 
Q 2891 2428 2841 2509 
Q 2775 2619 2662 2680 
Q 2550 2741 2406 2741 
Q 2056 2741 1856 2470 
Q 1656 2200 1656 1722 
L 1656 0 
L 538 0 
L 538 3500 
L 1656 3500 
L 1656 2988 
Q 1909 3294 2193 3439 
Q 2478 3584 2822 3584 
Q 3428 3584 3742 3212 
Q 4056 2841 4056 2131 
z
" transform="scale(0.015625)"/>
      <path id="DejaVuSans-Bold-69" d="M 538 3500 
L 1656 3500 
L 1656 0 
L 538 0 
L 538 3500 
z
M 538 4863 
L 1656 4863 
L 1656 3950 
L 538 3950 
L 538 4863 
z
" transform="scale(0.015625)"/>
      <path id="DejaVuSans-Bold-66" d="M 2841 4863 
L 2841 4128 
L 2222 4128 
Q 1984 4128 1890 4042 
Q 1797 3956 1797 3744 
L 1797 3500 
L 2753 3500 
L 2753 2700 
L 1797 2700 
L 1797 0 
L 678 0 
L 678 2700 
L 122 2700 
L 122 3500 
L 678 3500 
L 678 3744 
Q 678 4316 997 4589 
Q 1316 4863 1984 4863 
L 2841 4863 
z
" transform="scale(0.015625)"/>
      <path id="DejaVuSans-Bold-6d" d="M 3781 2919 
Q 3994 3244 4286 3414 
Q 4578 3584 4928 3584 
Q 5531 3584 5847 3212 
Q 6163 2841 6163 2131 
L 6163 0 
L 5038 0 
L 5038 1825 
Q 5041 1866 5042 1909 
Q 5044 1953 5044 2034 
Q 5044 2406 4934 2573 
Q 4825 2741 4581 2741 
Q 4263 2741 4089 2478 
Q 3916 2216 3909 1719 
L 3909 0 
L 2784 0 
L 2784 1825 
Q 2784 2406 2684 2573 
Q 2584 2741 2328 2741 
Q 2006 2741 1831 2477 
Q 1656 2213 1656 1722 
L 1656 0 
L 531 0 
L 531 3500 
L 1656 3500 
L 1656 2988 
Q 1863 3284 2130 3434 
Q 2397 3584 2719 3584 
Q 3081 3584 3359 3409 
Q 3638 3234 3781 2919 
z
" transform="scale(0.015625)"/>
     </defs>
     <use xlink:href="#DejaVuSans-Bold-55"/>
     <use xlink:href="#DejaVuSans-Bold-6e" x="81.201172"/>
     <use xlink:href="#DejaVuSans-Bold-69" x="152.392578"/>
     <use xlink:href="#DejaVuSans-Bold-6e" x="186.669922"/>
     <use xlink:href="#DejaVuSans-Bold-66" x="257.861328"/>
     <use xlink:href="#DejaVuSans-Bold-6f" x="301.367188"/>
     <use xlink:href="#DejaVuSans-Bold-72" x="370.068359"/>
     <use xlink:href="#DejaVuSans-Bold-6d" x="419.384766"/>
     <use xlink:href="#DejaVuSans-Bold-65" x="523.583984"/>
     <use xlink:href="#DejaVuSans-Bold-64" x="591.40625"/>
    </g>
   </g>
  </g>
 </g>
 <defs>
  <clipPath id="p1062387c0b">
   <rect x="62.67125" y="29.76" width="116.14375" height="288.28"/>
  </clipPath>
  <clipPath id="p7643996680">
   <rect x="251.07125" y="29.76" width="116.14375" height="288.28"/>
  </clipPath>
  <clipPath id="p4de4c0dd1a">
   <rect x="439.47125" y="29.76" width="116.14375" height="288.28"/>
  </clipPath>
 </defs>
</svg>
