<?xml version="1.0" encoding="utf-8" standalone="no"?>
<!DOCTYPE svg PUBLIC "-//W3C//DTD SVG 1.1//EN"
  "http://www.w3.org/Graphics/SVG/1.1/DTD/svg11.dtd">
<svg xmlns:xlink="http://www.w3.org/1999/xlink" width="460.8pt" height="345.6pt" viewBox="0 0 460.8 345.6" xmlns="http://www.w3.org/2000/svg" version="1.1">
 <metadata>
  <rdf:RDF xmlns:dc="http://purl.org/dc/elements/1.1/" xmlns:cc="http://creativecommons.org/ns#" xmlns:rdf="http://www.w3.org/1999/02/22-rdf-syntax-ns#">
   <cc:Work>
    <dc:type rdf:resource="http://purl.org/dc/dcmitype/StillImage"/>
    <dc:date>2025-05-07T10:43:18.434909</dc:date>
    <dc:format>image/svg+xml</dc:format>
    <dc:creator>
     <cc:Agent>
      <dc:title>Matplotlib v3.10.1, https://matplotlib.org/</dc:title>
     </cc:Agent>
    </dc:creator>
   </cc:Work>
  </rdf:RDF>
 </metadata>
 <defs>
  <style type="text/css">*{stroke-linejoin: round; stroke-linecap: butt}</style>
 </defs>
 <g id="figure_1">
  <g id="patch_1">
   <path d="M 0 345.6 
L 460.8 345.6 
L 460.8 0 
L 0 0 
z
" style="fill: #ffffff"/>
  </g>
  <g id="axes_1">
   <g id="patch_2">
    <path d="M 57.6 307.584 
L 414.72 307.584 
L 414.72 41.472 
L 57.6 41.472 
z
" style="fill: #ffffff"/>
   </g>
   <g id="PathCollection_1">
    <defs>
     <path id="ma372fc7834" d="M 0 3 
C 0.795609 3 1.55874 2.683901 2.12132 2.12132 
C 2.683901 1.55874 3 0.795609 3 0 
C 3 -0.795609 2.683901 -1.55874 2.12132 -2.12132 
C 1.55874 -2.683901 0.795609 -3 0 -3 
C -0.795609 -3 -1.55874 -2.683901 -2.12132 -2.12132 
C -2.683901 -1.55874 -3 -0.795609 -3 0 
C -3 0.795609 -2.683901 1.55874 -2.12132 2.12132 
C -1.55874 2.683901 -0.795609 3 0 3 
z
" style="stroke: #0000ff"/>
    </defs>
    <g clip-path="url(#p9bc8f8a7b1)">
     <use xlink:href="#ma372fc7834" x="340.488187" y="83.175811" style="fill: #0000ff; stroke: #0000ff"/>
     <use xlink:href="#ma372fc7834" x="216.081891" y="253.176823" style="fill: #0000ff; stroke: #0000ff"/>
     <use xlink:href="#ma372fc7834" x="124.921043" y="268.154011" style="fill: #0000ff; stroke: #0000ff"/>
     <use xlink:href="#ma372fc7834" x="337.725088" y="73.214981" style="fill: #0000ff; stroke: #0000ff"/>
     <use xlink:href="#ma372fc7834" x="305.446378" y="79.129948" style="fill: #0000ff; stroke: #0000ff"/>
     <use xlink:href="#ma372fc7834" x="264.401428" y="184.913181" style="fill: #0000ff; stroke: #0000ff"/>
     <use xlink:href="#ma372fc7834" x="286.645358" y="120.133779" style="fill: #0000ff; stroke: #0000ff"/>
     <use xlink:href="#ma372fc7834" x="141.728243" y="218.508112" style="fill: #0000ff; stroke: #0000ff"/>
     <use xlink:href="#ma372fc7834" x="294.701387" y="113.552659" style="fill: #0000ff; stroke: #0000ff"/>
     <use xlink:href="#ma372fc7834" x="148.361233" y="282.268749" style="fill: #0000ff; stroke: #0000ff"/>
     <use xlink:href="#ma372fc7834" x="304.273796" y="122.082462" style="fill: #0000ff; stroke: #0000ff"/>
     <use xlink:href="#ma372fc7834" x="324.515615" y="59.177073" style="fill: #0000ff; stroke: #0000ff"/>
     <use xlink:href="#ma372fc7834" x="206.951654" y="163.743749" style="fill: #0000ff; stroke: #0000ff"/>
     <use xlink:href="#ma372fc7834" x="319.493394" y="90.920064" style="fill: #0000ff; stroke: #0000ff"/>
     <use xlink:href="#ma372fc7834" x="132.7798" y="234.624848" style="fill: #0000ff; stroke: #0000ff"/>
     <use xlink:href="#ma372fc7834" x="314.787451" y="55.382723" style="fill: #0000ff; stroke: #0000ff"/>
     <use xlink:href="#ma372fc7834" x="201.451899" y="270.34046" style="fill: #0000ff; stroke: #0000ff"/>
     <use xlink:href="#ma372fc7834" x="294.902893" y="125.748766" style="fill: #0000ff; stroke: #0000ff"/>
     <use xlink:href="#ma372fc7834" x="210.611131" y="274.586049" style="fill: #0000ff; stroke: #0000ff"/>
     <use xlink:href="#ma372fc7834" x="144.142372" y="262.047885" style="fill: #0000ff; stroke: #0000ff"/>
     <use xlink:href="#ma372fc7834" x="255.059355" y="141.713626" style="fill: #0000ff; stroke: #0000ff"/>
     <use xlink:href="#ma372fc7834" x="200.474318" y="148.167618" style="fill: #0000ff; stroke: #0000ff"/>
     <use xlink:href="#ma372fc7834" x="144.136065" y="237.759313" style="fill: #0000ff; stroke: #0000ff"/>
     <use xlink:href="#ma372fc7834" x="327.998555" y="146.296469" style="fill: #0000ff; stroke: #0000ff"/>
     <use xlink:href="#ma372fc7834" x="305.042121" y="58.830451" style="fill: #0000ff; stroke: #0000ff"/>
     <use xlink:href="#ma372fc7834" x="269.180692" y="116.226385" style="fill: #0000ff; stroke: #0000ff"/>
     <use xlink:href="#ma372fc7834" x="257.297701" y="131.803271" style="fill: #0000ff; stroke: #0000ff"/>
     <use xlink:href="#ma372fc7834" x="276.283469" y="170.390923" style="fill: #0000ff; stroke: #0000ff"/>
     <use xlink:href="#ma372fc7834" x="150.315926" y="250.763514" style="fill: #0000ff; stroke: #0000ff"/>
     <use xlink:href="#ma372fc7834" x="145.617523" y="291.783609" style="fill: #0000ff; stroke: #0000ff"/>
     <use xlink:href="#ma372fc7834" x="166.873683" y="285.621017" style="fill: #0000ff; stroke: #0000ff"/>
     <use xlink:href="#ma372fc7834" x="348.466312" y="75.84486" style="fill: #0000ff; stroke: #0000ff"/>
     <use xlink:href="#ma372fc7834" x="197.19739" y="279.980864" style="fill: #0000ff; stroke: #0000ff"/>
     <use xlink:href="#ma372fc7834" x="157.163862" y="286.08255" style="fill: #0000ff; stroke: #0000ff"/>
     <use xlink:href="#ma372fc7834" x="171.763059" y="249.744177" style="fill: #0000ff; stroke: #0000ff"/>
     <use xlink:href="#ma372fc7834" x="336.966284" y="152.369161" style="fill: #0000ff; stroke: #0000ff"/>
     <use xlink:href="#ma372fc7834" x="156.007464" y="295.488" style="fill: #0000ff; stroke: #0000ff"/>
     <use xlink:href="#ma372fc7834" x="139.797527" y="228.244921" style="fill: #0000ff; stroke: #0000ff"/>
     <use xlink:href="#ma372fc7834" x="356.880939" y="94.360146" style="fill: #0000ff; stroke: #0000ff"/>
     <use xlink:href="#ma372fc7834" x="165.273376" y="155.247047" style="fill: #0000ff; stroke: #0000ff"/>
     <use xlink:href="#ma372fc7834" x="328.888041" y="80.887169" style="fill: #0000ff; stroke: #0000ff"/>
     <use xlink:href="#ma372fc7834" x="315.841697" y="66.720096" style="fill: #0000ff; stroke: #0000ff"/>
     <use xlink:href="#ma372fc7834" x="116.912406" y="219.714924" style="fill: #0000ff; stroke: #0000ff"/>
     <use xlink:href="#ma372fc7834" x="138.413094" y="283.077424" style="fill: #0000ff; stroke: #0000ff"/>
     <use xlink:href="#ma372fc7834" x="282.792801" y="88.867913" style="fill: #0000ff; stroke: #0000ff"/>
     <use xlink:href="#ma372fc7834" x="151.449469" y="269.584375" style="fill: #0000ff; stroke: #0000ff"/>
     <use xlink:href="#ma372fc7834" x="308.049934" y="89.808304" style="fill: #0000ff; stroke: #0000ff"/>
     <use xlink:href="#ma372fc7834" x="352.186538" y="133.01834" style="fill: #0000ff; stroke: #0000ff"/>
     <use xlink:href="#ma372fc7834" x="303.79983" y="112.012145" style="fill: #0000ff; stroke: #0000ff"/>
     <use xlink:href="#ma372fc7834" x="161.17127" y="267.513282" style="fill: #0000ff; stroke: #0000ff"/>
     <use xlink:href="#ma372fc7834" x="120.660995" y="257.740474" style="fill: #0000ff; stroke: #0000ff"/>
     <use xlink:href="#ma372fc7834" x="135.208549" y="269.713163" style="fill: #0000ff; stroke: #0000ff"/>
     <use xlink:href="#ma372fc7834" x="229.178879" y="205.537165" style="fill: #0000ff; stroke: #0000ff"/>
     <use xlink:href="#ma372fc7834" x="153.950286" y="260.29678" style="fill: #0000ff; stroke: #0000ff"/>
     <use xlink:href="#ma372fc7834" x="262.259579" y="123.559907" style="fill: #0000ff; stroke: #0000ff"/>
     <use xlink:href="#ma372fc7834" x="286.277837" y="108.3983" style="fill: #0000ff; stroke: #0000ff"/>
     <use xlink:href="#ma372fc7834" x="143.633598" y="273.992909" style="fill: #0000ff; stroke: #0000ff"/>
     <use xlink:href="#ma372fc7834" x="122.261994" y="230.397846" style="fill: #0000ff; stroke: #0000ff"/>
     <use xlink:href="#ma372fc7834" x="159.317216" y="211.682239" style="fill: #0000ff; stroke: #0000ff"/>
     <use xlink:href="#ma372fc7834" x="278.878354" y="114.181053" style="fill: #0000ff; stroke: #0000ff"/>
     <use xlink:href="#ma372fc7834" x="294.577159" y="78.953216" style="fill: #0000ff; stroke: #0000ff"/>
     <use xlink:href="#ma372fc7834" x="343.742103" y="126.640721" style="fill: #0000ff; stroke: #0000ff"/>
     <use xlink:href="#ma372fc7834" x="199.866924" y="209.286832" style="fill: #0000ff; stroke: #0000ff"/>
     <use xlink:href="#ma372fc7834" x="115.439061" y="239.227256" style="fill: #0000ff; stroke: #0000ff"/>
     <use xlink:href="#ma372fc7834" x="129.649314" y="278.025187" style="fill: #0000ff; stroke: #0000ff"/>
     <use xlink:href="#ma372fc7834" x="293.50759" y="145.773436" style="fill: #0000ff; stroke: #0000ff"/>
     <use xlink:href="#ma372fc7834" x="297.313338" y="102.485025" style="fill: #0000ff; stroke: #0000ff"/>
     <use xlink:href="#ma372fc7834" x="204.430625" y="261.127563" style="fill: #0000ff; stroke: #0000ff"/>
     <use xlink:href="#ma372fc7834" x="268.702004" y="201.973045" style="fill: #0000ff; stroke: #0000ff"/>
     <use xlink:href="#ma372fc7834" x="342.38282" y="138.589368" style="fill: #0000ff; stroke: #0000ff"/>
     <use xlink:href="#ma372fc7834" x="162.41415" y="256.290059" style="fill: #0000ff; stroke: #0000ff"/>
     <use xlink:href="#ma372fc7834" x="191.545846" y="221.48231" style="fill: #0000ff; stroke: #0000ff"/>
     <use xlink:href="#ma372fc7834" x="166.994184" y="201.291029" style="fill: #0000ff; stroke: #0000ff"/>
     <use xlink:href="#ma372fc7834" x="284.39179" y="76.350431" style="fill: #0000ff; stroke: #0000ff"/>
     <use xlink:href="#ma372fc7834" x="125.777665" y="241.369357" style="fill: #0000ff; stroke: #0000ff"/>
     <use xlink:href="#ma372fc7834" x="182.649041" y="250.31417" style="fill: #0000ff; stroke: #0000ff"/>
     <use xlink:href="#ma372fc7834" x="353.173021" y="121.169089" style="fill: #0000ff; stroke: #0000ff"/>
     <use xlink:href="#ma372fc7834" x="171.494317" y="261.323321" style="fill: #0000ff; stroke: #0000ff"/>
     <use xlink:href="#ma372fc7834" x="344.4062" y="66.116511" style="fill: #0000ff; stroke: #0000ff"/>
     <use xlink:href="#ma372fc7834" x="350.602469" y="109.518839" style="fill: #0000ff; stroke: #0000ff"/>
     <use xlink:href="#ma372fc7834" x="187.783334" y="284.900555" style="fill: #0000ff; stroke: #0000ff"/>
     <use xlink:href="#ma372fc7834" x="154.302092" y="202.451573" style="fill: #0000ff; stroke: #0000ff"/>
     <use xlink:href="#ma372fc7834" x="122.519366" y="209.425049" style="fill: #0000ff; stroke: #0000ff"/>
     <use xlink:href="#ma372fc7834" x="176.69487" y="283.330121" style="fill: #0000ff; stroke: #0000ff"/>
     <use xlink:href="#ma372fc7834" x="129.571545" y="224.186903" style="fill: #0000ff; stroke: #0000ff"/>
     <use xlink:href="#ma372fc7834" x="319.644949" y="129.251835" style="fill: #0000ff; stroke: #0000ff"/>
     <use xlink:href="#ma372fc7834" x="305.641767" y="69.034743" style="fill: #0000ff; stroke: #0000ff"/>
     <use xlink:href="#ma372fc7834" x="350.636422" y="85.787784" style="fill: #0000ff; stroke: #0000ff"/>
     <use xlink:href="#ma372fc7834" x="167.621568" y="275.346806" style="fill: #0000ff; stroke: #0000ff"/>
     <use xlink:href="#ma372fc7834" x="274.670326" y="125.483028" style="fill: #0000ff; stroke: #0000ff"/>
     <use xlink:href="#ma372fc7834" x="320.071423" y="171.77338" style="fill: #0000ff; stroke: #0000ff"/>
     <use xlink:href="#ma372fc7834" x="261.600207" y="208.258917" style="fill: #0000ff; stroke: #0000ff"/>
     <use xlink:href="#ma372fc7834" x="345.653223" y="94.671017" style="fill: #0000ff; stroke: #0000ff"/>
     <use xlink:href="#ma372fc7834" x="176.258987" y="194.565288" style="fill: #0000ff; stroke: #0000ff"/>
     <use xlink:href="#ma372fc7834" x="271.58487" y="213.383642" style="fill: #0000ff; stroke: #0000ff"/>
     <use xlink:href="#ma372fc7834" x="285.791445" y="53.568" style="fill: #0000ff; stroke: #0000ff"/>
     <use xlink:href="#ma372fc7834" x="157.240612" y="276.931529" style="fill: #0000ff; stroke: #0000ff"/>
     <use xlink:href="#ma372fc7834" x="180.49013" y="293.507054" style="fill: #0000ff; stroke: #0000ff"/>
     <use xlink:href="#ma372fc7834" x="327.981673" y="69.15888" style="fill: #0000ff; stroke: #0000ff"/>
     <use xlink:href="#ma372fc7834" x="295.664948" y="66.066416" style="fill: #0000ff; stroke: #0000ff"/>
    </g>
   </g>
   <g id="Quiver_1">
    <path d="M 339.730377 82.418488 
L 346.887842 75.256421 
L 344.614901 74.499586 
L 354.461554 69.19346 
L 349.161757 79.04352 
L 348.403461 76.771066 
L 341.245996 83.933133 
L 339.730377 82.418488 
" clip-path="url(#p9bc8f8a7b1)" style="fill: #ff0000"/>
    <path d="M 216.837633 253.936209 
L 209.545706 261.193147 
L 211.816576 261.956176 
L 201.955494 267.235438 
L 207.282125 257.399863 
L 208.034223 259.674376 
L 215.326149 252.417438 
L 216.837633 253.936209 
" clip-path="url(#p9bc8f8a7b1)" style="fill: #ff0000"/>
    <path d="M 125.679724 268.91046 
L 118.492116 276.119275 
L 120.765928 276.873492 
L 110.925393 282.190955 
L 116.213841 272.334797 
L 116.974754 274.606377 
L 124.162362 267.397562 
L 125.679724 268.91046 
" clip-path="url(#p9bc8f8a7b1)" style="fill: #ff0000"/>
    <path d="M 336.966514 72.458424 
L 344.065369 65.340652 
L 341.791665 64.586111 
L 351.632957 59.270049 
L 346.343105 69.125454 
L 345.582516 66.853766 
L 338.483661 73.971538 
L 336.966514 72.458424 
" clip-path="url(#p9bc8f8a7b1)" style="fill: #ff0000"/>
    <path d="M 304.698599 78.36272 
L 312.013609 71.233143 
L 309.750823 70.446466 
L 319.66644 65.27036 
L 314.237497 75.049834 
L 313.509167 72.767599 
L 306.194157 79.897176 
L 304.698599 78.36272 
" clip-path="url(#p9bc8f8a7b1)" style="fill: #ff0000"/>
    <path d="M 263.669045 184.131243 
L 271.113346 177.158719 
L 268.866641 176.327226 
L 278.883171 171.349208 
L 273.260941 181.018854 
L 272.578112 178.722595 
L 265.133812 185.695119 
L 263.669045 184.131243 
" clip-path="url(#p9bc8f8a7b1)" style="fill: #ff0000"/>
    <path d="M 285.876108 119.388081 
L 292.947417 112.093433 
L 290.663218 111.371286 
L 300.427953 105.915878 
L 295.27872 115.845477 
L 294.485918 113.58483 
L 287.414609 120.879477 
L 285.876108 119.388081 
" clip-path="url(#p9bc8f8a7b1)" style="fill: #ff0000"/>
    <path d="M 142.461517 219.289214 
L 135.026199 226.269255 
L 137.27385 227.098186 
L 127.263003 232.087621 
L 132.874205 222.411571 
L 133.559651 224.70705 
L 140.994968 217.727009 
L 142.461517 219.289214 
" clip-path="url(#p9bc8f8a7b1)" style="fill: #ff0000"/>
    <path d="M 293.955173 112.783909 
L 301.144801 105.805044 
L 298.883622 105.013759 
L 308.809765 99.857867 
L 303.360908 109.626259 
L 302.637229 107.342544 
L 295.447601 114.321409 
L 293.955173 112.783909 
" clip-path="url(#p9bc8f8a7b1)" style="fill: #ff0000"/>
    <path d="M 149.114033 283.031051 
L 141.947631 290.108135 
L 144.215533 290.879937 
L 134.334117 296.121038 
L 139.69873 286.306128 
L 140.44203 288.583532 
L 147.608432 281.506448 
L 149.114033 283.031051 
" clip-path="url(#p9bc8f8a7b1)" style="fill: #ff0000"/>
    <path d="M 303.523502 121.317694 
L 310.811661 114.167473 
L 308.546305 113.38823 
L 318.444872 108.179593 
L 313.04807 117.976841 
L 312.31225 115.69701 
L 305.02409 122.847231 
L 303.523502 121.317694 
" clip-path="url(#p9bc8f8a7b1)" style="fill: #ff0000"/>
    <path d="M 323.774637 58.403274 
L 331.112442 51.376701 
L 328.856688 50.570082 
L 338.817605 45.481698 
L 333.302555 55.212873 
L 332.594398 52.924298 
L 325.256593 59.950871 
L 323.774637 58.403274 
" clip-path="url(#p9bc8f8a7b1)" style="fill: #ff0000"/>
    <path d="M 207.694801 164.515465 
L 200.359244 171.579461 
L 202.617253 172.379745 
L 192.670657 177.496068 
L 198.158372 167.749452 
L 198.87295 170.03603 
L 206.208507 162.972033 
L 207.694801 164.515465 
" clip-path="url(#p9bc8f8a7b1)" style="fill: #ff0000"/>
    <path d="M 318.71298 90.186057 
L 325.747279 82.707031 
L 323.452445 82.019429 
L 333.133761 76.417318 
L 328.134925 86.423475 
L 327.308106 84.175046 
L 320.273807 91.654072 
L 318.71298 90.186057 
" clip-path="url(#p9bc8f8a7b1)" style="fill: #ff0000"/>
    <path d="M 133.530481 235.389237 
L 126.228763 242.560016 
L 128.494514 243.338112 
L 118.598584 248.551758 
L 123.990427 238.75178 
L 124.727401 241.031238 
L 132.029119 233.860459 
L 133.530481 235.389237 
" clip-path="url(#p9bc8f8a7b1)" style="fill: #ff0000"/>
    <path d="M 314.047452 54.607988 
L 321.383401 47.600959 
L 319.128669 46.791487 
L 329.096016 41.715708 
L 323.56866 51.439898 
L 322.863398 49.150429 
L 315.527449 56.157458 
L 314.047452 54.607988 
" clip-path="url(#p9bc8f8a7b1)" style="fill: #ff0000"/>
    <path d="M 202.199981 271.107393 
L 194.799996 278.32549 
L 197.063092 279.111273 
L 187.149519 284.291294 
L 192.574601 274.509677 
L 193.303832 276.791624 
L 200.703817 269.573527 
L 202.199981 271.107393 
" clip-path="url(#p9bc8f8a7b1)" style="fill: #ff0000"/>
    <path d="M 294.125915 125.011123 
L 301.153461 117.608844 
L 298.861862 116.910534 
L 308.569232 111.353691 
L 303.523727 121.336396 
L 302.707416 119.084131 
L 295.67987 126.48641 
L 294.125915 125.011123 
" clip-path="url(#p9bc8f8a7b1)" style="fill: #ff0000"/>
    <path d="M 211.36406 275.348223 
L 204.10495 282.519279 
L 206.372983 283.290698 
L 196.492451 288.533466 
L 201.855408 278.717651 
L 202.599092 280.99493 
L 209.858202 273.823874 
L 211.36406 275.348223 
" clip-path="url(#p9bc8f8a7b1)" style="fill: #ff0000"/>
    <path d="M 144.896692 262.808682 
L 137.577165 270.065897 
L 139.846604 270.833171 
L 129.975668 276.093984 
L 135.32068 266.268386 
L 136.068524 268.544302 
L 143.388051 261.287088 
L 144.896692 262.808682 
" clip-path="url(#p9bc8f8a7b1)" style="fill: #ff0000"/>
    <path d="M 254.312908 140.945103 
L 261.605565 133.861922 
L 259.344146 133.071324 
L 269.268721 127.912414 
L 263.822833 137.682462 
L 263.09846 135.398968 
L 255.805803 142.482149 
L 254.312908 140.945103 
" clip-path="url(#p9bc8f8a7b1)" style="fill: #ff0000"/>
    <path d="M 199.750199 147.378021 
L 207.255018 140.495545 
L 205.017183 139.64047 
L 215.085512 134.76807 
L 209.361897 144.378053 
L 208.703256 142.074739 
L 201.198437 148.957215 
L 199.750199 147.378021 
" clip-path="url(#p9bc8f8a7b1)" style="fill: #ff0000"/>
    <path d="M 144.898788 238.511687 
L 137.679747 245.830035 
L 139.957567 246.572058 
L 130.145664 251.94217 
L 135.381228 242.057818 
L 136.154301 244.325288 
L 143.373342 237.00694 
L 144.898788 238.511687 
" clip-path="url(#p9bc8f8a7b1)" style="fill: #ff0000"/>
    <path d="M 327.234516 145.545432 
L 334.426507 138.228934 
L 332.147392 137.490899 
L 341.94988 132.10362 
L 336.731626 141.997121 
L 335.954585 139.731008 
L 328.762594 147.047506 
L 327.234516 145.545432 
" clip-path="url(#p9bc8f8a7b1)" style="fill: #ff0000"/>
    <path d="M 304.287923 58.069533 
L 311.490024 50.931034 
L 309.220709 50.163396 
L 319.092488 44.904165 
L 313.7459 54.728906 
L 312.998422 52.452871 
L 305.79632 59.59137 
L 304.287923 58.069533 
" clip-path="url(#p9bc8f8a7b1)" style="fill: #ff0000"/>
    <path d="M 268.414756 115.477283 
L 275.563666 108.167725 
L 273.282691 107.435456 
L 283.071523 102.023404 
L 277.878307 111.93007 
L 277.095538 109.66593 
L 269.946628 116.975488 
L 268.414756 115.477283 
" clip-path="url(#p9bc8f8a7b1)" style="fill: #ff0000"/>
    <path d="M 256.543076 131.042775 
L 263.762088 123.87949 
L 261.492342 123.113124 
L 271.361172 117.848361 
L 266.020092 127.676097 
L 265.271337 125.400481 
L 258.052326 132.563766 
L 256.543076 131.042775 
" clip-path="url(#p9bc8f8a7b1)" style="fill: #ff0000"/>
    <path d="M 275.495476 169.665059 
L 282.383913 162.187024 
L 280.082062 161.523288 
L 289.704686 155.820951 
L 284.810021 165.878474 
L 283.959899 163.638753 
L 277.071462 171.116788 
L 275.495476 169.665059 
" clip-path="url(#p9bc8f8a7b1)" style="fill: #ff0000"/>
    <path d="M 151.077086 251.517469 
L 143.887866 258.775391 
L 146.164141 259.522141 
L 136.341112 264.871874 
L 141.597182 254.998411 
L 142.365546 257.267481 
L 149.554767 250.009559 
L 151.077086 251.517469 
" clip-path="url(#p9bc8f8a7b1)" style="fill: #ff0000"/>
    <path d="M 146.375675 292.540588 
L 139.205934 299.721438 
L 141.479217 300.477245 
L 131.634968 305.787828 
L 136.930304 295.935369 
L 137.689629 298.20748 
L 144.85937 291.02663 
L 146.375675 292.540588 
" clip-path="url(#p9bc8f8a7b1)" style="fill: #ff0000"/>
    <path d="M 167.631913 286.377918 
L 160.382339 293.64023 
L 162.655701 294.3958 
L 152.812003 299.707404 
L 158.106318 289.854396 
L 158.865878 292.126428 
L 166.115452 284.864116 
L 167.631913 286.377918 
" clip-path="url(#p9bc8f8a7b1)" style="fill: #ff0000"/>
    <path d="M 347.699208 75.096954 
L 354.801136 67.81273 
L 352.519022 67.084021 
L 362.299397 61.656701 
L 357.121646 71.571459 
L 356.335344 69.308543 
L 349.233416 76.592767 
L 347.699208 75.096954 
" clip-path="url(#p9bc8f8a7b1)" style="fill: #ff0000"/>
    <path d="M 197.962793 280.730512 
L 190.856246 287.986421 
L 193.136699 288.720312 
L 183.344019 294.125399 
L 188.544282 284.222429 
L 189.325441 286.487126 
L 196.431988 279.231217 
L 197.962793 280.730512 
" clip-path="url(#p9bc8f8a7b1)" style="fill: #ff0000"/>
    <path d="M 157.920153 286.841389 
L 150.677523 294.05969 
L 152.948943 294.821078 
L 143.091678 300.107464 
L 148.411201 290.268042 
L 149.164942 292.542011 
L 156.407572 285.323711 
L 157.920153 286.841389 
" clip-path="url(#p9bc8f8a7b1)" style="fill: #ff0000"/>
    <path d="M 172.523387 250.498971 
L 165.260971 257.814629 
L 167.536421 258.56389 
L 157.707497 263.902784 
L 162.974454 254.035125 
L 163.740316 256.305041 
L 171.002731 248.989383 
L 172.523387 250.498971 
" clip-path="url(#p9bc8f8a7b1)" style="fill: #ff0000"/>
    <path d="M 336.201364 151.619022 
L 343.387709 144.291067 
L 341.107728 143.55571 
L 350.90388 138.156919 
L 345.697253 148.056544 
L 344.91755 145.791345 
L 337.731205 153.1193 
L 336.201364 151.619022 
" clip-path="url(#p9bc8f8a7b1)" style="fill: #ff0000"/>
    <path d="M 156.76776 296.242826 
L 149.571144 303.491593 
L 151.846562 304.240949 
L 142.017414 309.579431 
L 147.284786 299.711993 
L 148.050552 301.981941 
L 155.247168 294.733174 
L 156.76776 296.242826 
" clip-path="url(#p9bc8f8a7b1)" style="fill: #ff0000"/>
    <path d="M 140.554442 229.003137 
L 133.367331 236.177911 
L 135.639377 236.937429 
L 125.786468 242.231929 
L 131.097888 232.388131 
L 131.853501 234.661479 
L 139.040612 227.486705 
L 140.554442 229.003137 
" clip-path="url(#p9bc8f8a7b1)" style="fill: #ff0000"/>
    <path d="M 356.119847 93.606123 
L 363.253359 86.40574 
L 360.977151 85.658785 
L 370.800662 80.309937 
L 365.543702 90.182926 
L 364.775542 87.913787 
L 357.64203 95.11417 
L 356.119847 93.606123 
" clip-path="url(#p9bc8f8a7b1)" style="fill: #ff0000"/>
    <path d="M 166.01254 156.022579 
L 158.630557 163.058388 
L 160.884416 163.870287 
L 150.911607 168.935328 
L 156.449434 159.217097 
L 157.15223 161.507324 
L 164.534213 154.471516 
L 166.01254 156.022579 
" clip-path="url(#p9bc8f8a7b1)" style="fill: #ff0000"/>
    <path d="M 328.12774 80.132348 
L 335.352596 72.855034 
L 333.077173 72.105694 
L 342.906283 66.767143 
L 337.63898 76.634618 
L 336.873199 74.364675 
L 329.648342 81.64199 
L 328.12774 80.132348 
" clip-path="url(#p9bc8f8a7b1)" style="fill: #ff0000"/>
    <path d="M 315.08939 65.957308 
L 322.370267 58.776479 
L 320.102865 58.003209 
L 329.987672 52.768506 
L 324.616706 62.579941 
L 323.874881 60.302057 
L 316.594003 67.482885 
L 315.08939 65.957308 
" clip-path="url(#p9bc8f8a7b1)" style="fill: #ff0000"/>
    <path d="M 117.721047 220.417713 
L 111.052728 228.090388 
L 113.372798 228.687326 
L 103.918984 234.665363 
L 108.520955 224.47059 
L 109.435447 226.684809 
L 116.103766 219.012135 
L 117.721047 220.417713 
" clip-path="url(#p9bc8f8a7b1)" style="fill: #ff0000"/>
    <path d="M 139.173849 283.831787 
L 132.017081 291.049197 
L 134.292954 291.797168 
L 124.467056 297.14163 
L 129.728423 287.270989 
L 130.49557 289.54047 
L 137.652339 282.323061 
L 139.173849 283.831787 
" clip-path="url(#p9bc8f8a7b1)" style="fill: #ff0000"/>
    <path d="M 282.042292 88.103355 
L 289.394067 80.886669 
L 287.128491 80.108062 
L 297.025595 74.896645 
L 291.631545 84.695408 
L 290.895085 82.415784 
L 283.54331 89.632471 
L 282.042292 88.103355 
" clip-path="url(#p9bc8f8a7b1)" style="fill: #ff0000"/>
    <path d="M 152.207459 270.341517 
L 145.01343 277.543608 
L 147.286552 278.299901 
L 137.441166 283.608377 
L 142.738612 273.757052 
L 143.49745 276.029325 
L 150.691479 268.827234 
L 152.207459 270.341517 
" clip-path="url(#p9bc8f8a7b1)" style="fill: #ff0000"/>
    <path d="M 307.279693 89.063629 
L 314.357072 81.743279 
L 312.071915 81.024169 
L 321.829392 75.555789 
L 316.693359 85.492222 
L 315.897553 83.23263 
L 308.820174 90.55298 
L 307.279693 89.063629 
" clip-path="url(#p9bc8f8a7b1)" style="fill: #ff0000"/>
    <path d="M 351.424298 132.265478 
L 358.602587 124.997771 
L 356.325243 124.254287 
L 366.140588 118.890469 
L 360.898686 128.771461 
L 360.127068 126.503496 
L 352.948779 133.771202 
L 351.424298 132.265478 
" clip-path="url(#p9bc8f8a7b1)" style="fill: #ff0000"/>
    <path d="M 303.044221 111.252627 
L 310.388887 103.945767 
L 308.118152 103.182339 
L 317.98016 97.904807 
L 312.651804 107.739448 
L 311.900105 105.464803 
L 304.555439 112.771664 
L 303.044221 111.252627 
" clip-path="url(#p9bc8f8a7b1)" style="fill: #ff0000"/>
    <path d="M 161.930932 268.268746 
L 154.833109 275.406017 
L 157.107897 276.157282 
L 147.274273 281.487514 
L 152.549923 271.6245 
L 153.313784 273.89509 
L 160.411607 266.757818 
L 161.930932 268.268746 
" clip-path="url(#p9bc8f8a7b1)" style="fill: #ff0000"/>
    <path d="M 121.427217 258.489284 
L 114.33806 265.743285 
L 116.619314 266.474683 
L 106.83255 271.890473 
L 112.021982 261.981824 
L 112.805616 264.245666 
L 119.894773 256.991664 
L 121.427217 258.489284 
" clip-path="url(#p9bc8f8a7b1)" style="fill: #ff0000"/>
    <path d="M 135.953667 270.482976 
L 128.724088 277.480635 
L 130.984137 278.275143 
L 121.050655 283.416882 
L 126.51343 273.656266 
L 127.233853 275.941009 
L 134.463431 268.943351 
L 135.953667 270.482976 
" clip-path="url(#p9bc8f8a7b1)" style="fill: #ff0000"/>
    <path d="M 229.936279 206.294897 
L 222.722489 213.505527 
L 224.995021 214.263591 
L 215.145502 219.564395 
L 220.450621 209.7172 
L 221.207689 211.990063 
L 228.421479 204.779433 
L 229.936279 206.294897 
" clip-path="url(#p9bc8f8a7b1)" style="fill: #ff0000"/>
    <path d="M 154.709274 261.052922 
L 147.469236 268.320211 
L 149.743353 269.073507 
L 139.904974 274.394959 
L 145.189427 264.536658 
L 145.951261 266.807928 
L 153.191298 259.540639 
L 154.709274 261.052922 
" clip-path="url(#p9bc8f8a7b1)" style="fill: #ff0000"/>
    <path d="M 261.514063 122.790481 
L 268.919873 115.614811 
L 266.659414 114.821474 
L 276.590231 109.674591 
L 271.132512 119.438035 
L 270.410906 117.153665 
L 263.005095 124.329334 
L 261.514063 122.790481 
" clip-path="url(#p9bc8f8a7b1)" style="fill: #ff0000"/>
    <path d="M 285.519758 107.641248 
L 292.852988 100.298059 
L 290.579777 99.542036 
L 300.424534 94.232393 
L 295.128256 104.084346 
L 294.369148 101.812163 
L 287.035917 109.155352 
L 285.519758 107.641248 
" clip-path="url(#p9bc8f8a7b1)" style="fill: #ff0000"/>
    <path d="M 144.381684 274.759838 
L 137.029554 281.931334 
L 139.292655 282.717105 
L 129.37911 287.89718 
L 134.804138 278.115534 
L 135.533382 280.397477 
L 142.885512 273.225981 
L 144.381684 274.759838 
" clip-path="url(#p9bc8f8a7b1)" style="fill: #ff0000"/>
    <path d="M 123.024285 231.150657 
L 115.782863 238.483272 
L 118.060256 239.226603 
L 108.245273 244.591082 
L 113.486509 234.709737 
L 114.25828 236.97765 
L 121.499703 229.645035 
L 123.024285 231.150657 
" clip-path="url(#p9bc8f8a7b1)" style="fill: #ff0000"/>
    <path d="M 160.079154 212.435408 
L 152.929102 219.668705 
L 155.206146 220.413105 
L 145.388645 225.772975 
L 150.63452 215.894092 
L 151.405227 218.162367 
L 158.555278 210.92907 
L 160.079154 212.435408 
" clip-path="url(#p9bc8f8a7b1)" style="fill: #ff0000"/>
    <path d="M 278.123838 113.420449 
L 285.270796 106.330704 
L 283.001161 105.564011 
L 292.870748 100.300669 
L 287.528253 110.127636 
L 286.779827 107.851912 
L 279.632869 114.941658 
L 278.123838 113.420449 
" clip-path="url(#p9bc8f8a7b1)" style="fill: #ff0000"/>
    <path d="M 293.83011 78.185276 
L 301.20322 71.012746 
L 298.941184 70.223916 
L 308.861724 65.057251 
L 303.423474 74.831553 
L 302.697317 72.548625 
L 295.324207 79.721155 
L 293.83011 78.185276 
" clip-path="url(#p9bc8f8a7b1)" style="fill: #ff0000"/>
    <path d="M 342.979686 125.888038 
L 350.12403 118.651297 
L 347.846512 117.908348 
L 357.660596 112.542223 
L 352.421017 122.424447 
L 351.648865 120.156663 
L 344.504521 127.393404 
L 342.979686 125.888038 
" clip-path="url(#p9bc8f8a7b1)" style="fill: #ff0000"/>
    <path d="M 200.627886 210.040986 
L 193.405097 217.328974 
L 195.681175 218.076321 
L 185.856744 223.423479 
L 191.115403 213.551394 
L 191.883172 215.820665 
L 199.105961 208.532677 
L 200.627886 210.040986 
" clip-path="url(#p9bc8f8a7b1)" style="fill: #ff0000"/>
    <path d="M 116.197 239.984448 
L 109.029994 247.158519 
L 111.303065 247.914966 
L 101.457322 253.222778 
L 106.755431 243.37181 
L 107.514116 245.644134 
L 114.681122 238.470063 
L 116.197 239.984448 
" clip-path="url(#p9bc8f8a7b1)" style="fill: #ff0000"/>
    <path d="M 130.410818 278.778794 
L 123.231029 286.033814 
L 125.507644 286.779525 
L 115.687058 292.133741 
L 120.938621 282.25788 
L 121.708022 284.526599 
L 128.887811 277.27158 
L 130.410818 278.778794 
" clip-path="url(#p9bc8f8a7b1)" style="fill: #ff0000"/>
    <path d="M 292.741789 145.024195 
L 299.890482 137.717496 
L 297.609639 136.984816 
L 307.399447 131.574529 
L 302.204445 141.480259 
L 301.422083 139.215977 
L 294.273391 146.522676 
L 292.741789 145.024195 
" clip-path="url(#p9bc8f8a7b1)" style="fill: #ff0000"/>
    <path d="M 296.561619 101.721657 
L 303.778732 94.61468 
L 301.511926 93.839663 
L 311.400764 88.612579 
L 306.022239 98.419872 
L 305.282169 96.141417 
L 298.065057 103.248393 
L 296.561619 101.721657 
" clip-path="url(#p9bc8f8a7b1)" style="fill: #ff0000"/>
    <path d="M 205.189602 261.883715 
L 198.096045 269.003786 
L 200.370152 269.757111 
L 190.531704 275.078435 
L 195.816285 265.220203 
L 196.578089 267.491483 
L 203.671647 260.371412 
L 205.189602 261.883715 
" clip-path="url(#p9bc8f8a7b1)" style="fill: #ff0000"/>
    <path d="M 269.482022 202.707474 
L 262.614721 210.001052 
L 264.909184 210.689892 
L 255.224845 216.286778 
L 260.229081 206.28332 
L 261.054686 208.532195 
L 267.921987 201.238616 
L 269.482022 202.707474 
" clip-path="url(#p9bc8f8a7b1)" style="fill: #ff0000"/>
    <path d="M 341.615677 137.841502 
L 348.714373 130.559828 
L 346.43222 129.831239 
L 356.21231 124.403405 
L 351.035079 134.318435 
L 350.248659 132.05556 
L 343.149963 139.337234 
L 341.615677 137.841502 
" clip-path="url(#p9bc8f8a7b1)" style="fill: #ff0000"/>
    <path d="M 163.172752 257.046587 
L 156.02533 264.213612 
L 158.299063 264.968065 
L 148.457978 270.284509 
L 153.747447 260.428899 
L 154.508125 262.700557 
L 161.655547 255.533532 
L 163.172752 257.046587 
" clip-path="url(#p9bc8f8a7b1)" style="fill: #ff0000"/>
    <path d="M 192.298565 222.244692 
L 185.084518 229.367309 
L 187.352338 230.139353 
L 177.470363 235.379401 
L 182.836022 225.565063 
L 183.579079 227.842545 
L 190.793126 220.719929 
L 192.298565 222.244692 
" clip-path="url(#p9bc8f8a7b1)" style="fill: #ff0000"/>
    <path d="M 167.742603 202.057632 
L 160.383475 209.242198 
L 162.646917 210.026986 
L 152.735624 215.211368 
L 158.156402 205.427365 
L 158.886637 207.708991 
L 166.245765 200.524425 
L 167.742603 202.057632 
" clip-path="url(#p9bc8f8a7b1)" style="fill: #ff0000"/>
    <path d="M 283.643146 75.584046 
L 290.955946 68.440527 
L 288.692275 67.656402 
L 298.602049 62.469119 
L 293.184137 72.254708 
L 292.453234 69.973296 
L 285.140433 77.116815 
L 283.643146 75.584046 
" clip-path="url(#p9bc8f8a7b1)" style="fill: #ff0000"/>
    <path d="M 126.539403 242.122727 
L 119.331218 249.410985 
L 121.608066 250.155986 
L 111.78915 255.513265 
L 117.037633 245.635767 
L 117.807741 247.904245 
L 125.015926 240.615987 
L 126.539403 242.122727 
" clip-path="url(#p9bc8f8a7b1)" style="fill: #ff0000"/>
    <path d="M 183.407712 251.070628 
L 176.155551 258.344004 
L 178.429352 259.09825 
L 168.588751 264.415589 
L 173.877323 254.559498 
L 174.638208 256.831087 
L 181.890369 249.557711 
L 183.407712 251.070628 
" clip-path="url(#p9bc8f8a7b1)" style="fill: #ff0000"/>
    <path d="M 352.41244 120.41455 
L 359.579298 113.190297 
L 357.303597 112.441801 
L 367.130726 107.099605 
L 361.867084 116.969033 
L 361.10046 114.699375 
L 353.933602 121.923627 
L 352.41244 120.41455 
" clip-path="url(#p9bc8f8a7b1)" style="fill: #ff0000"/>
    <path d="M 172.257833 262.07489 
L 165.043156 269.40424 
L 167.321756 270.143864 
L 157.515516 275.524308 
L 162.740665 265.634447 
L 163.516126 267.901101 
L 170.730802 260.571751 
L 172.257833 262.07489 
" clip-path="url(#p9bc8f8a7b1)" style="fill: #ff0000"/>
    <path d="M 343.635368 65.372448 
L 350.744456 58.007606 
L 348.458729 57.29031 
L 358.211861 51.814184 
L 353.08372 61.754692 
L 352.28612 59.495733 
L 345.177032 66.860575 
L 343.635368 65.372448 
" clip-path="url(#p9bc8f8a7b1)" style="fill: #ff0000"/>
    <path d="M 349.838306 108.767929 
L 356.997841 101.482039 
L 354.718604 100.744381 
L 364.5202 95.355482 
L 359.303583 105.249845 
L 358.526167 102.983861 
L 351.366632 110.26975 
L 349.838306 108.767929 
" clip-path="url(#p9bc8f8a7b1)" style="fill: #ff0000"/>
    <path d="M 188.524621 285.674058 
L 181.129103 292.761566 
L 183.385179 293.567283 
L 173.426296 298.659648 
L 178.937457 288.92627 
L 179.646529 291.214561 
L 187.042047 284.127053 
L 188.524621 285.674058 
" clip-path="url(#p9bc8f8a7b1)" style="fill: #ff0000"/>
    <path d="M 155.064967 203.203793 
L 147.93569 210.434064 
L 150.213659 211.175627 
L 140.402842 216.547721 
L 145.636408 206.662312 
L 146.409939 208.929625 
L 153.539217 201.699354 
L 155.064967 203.203793 
" clip-path="url(#p9bc8f8a7b1)" style="fill: #ff0000"/>
    <path d="M 123.307317 210.150959 
L 116.352205 217.700503 
L 118.654018 218.364372 
L 109.031065 224.066154 
L 113.926311 214.008912 
L 114.776303 216.248683 
L 121.731415 208.699139 
L 123.307317 210.150959 
" clip-path="url(#p9bc8f8a7b1)" style="fill: #ff0000"/>
    <path d="M 177.433612 284.106055 
L 170.094141 291.093722 
L 172.347558 291.906849 
L 162.371993 296.966458 
L 167.915111 287.251244 
L 168.616659 289.541854 
L 175.956129 282.554187 
L 177.433612 284.106055 
" clip-path="url(#p9bc8f8a7b1)" style="fill: #ff0000"/>
    <path d="M 130.319794 224.953673 
L 123.137452 231.962524 
L 125.400719 232.747816 
L 115.488272 237.929991 
L 120.911227 228.147195 
L 121.640955 230.428984 
L 128.823297 223.420133 
L 130.319794 224.953673 
" clip-path="url(#p9bc8f8a7b1)" style="fill: #ff0000"/>
    <path d="M 318.881219 128.500483 
L 326.019575 121.244527 
L 323.740764 120.505554 
L 333.545469 115.122311 
L 328.323142 125.013663 
L 327.547034 122.74723 
L 320.408679 130.003186 
L 318.881219 128.500483 
" clip-path="url(#p9bc8f8a7b1)" style="fill: #ff0000"/>
    <path d="M 304.893211 68.268274 
L 312.181467 61.150346 
L 309.917885 60.365964 
L 319.828248 55.179805 
L 314.409225 64.964779 
L 313.678581 62.683284 
L 306.390324 69.801212 
L 304.893211 68.268274 
" clip-path="url(#p9bc8f8a7b1)" style="fill: #ff0000"/>
    <path d="M 349.875124 85.033968 
L 357.084597 77.752947 
L 354.808186 77.006612 
L 364.63024 71.655089 
L 359.37597 81.529509 
L 358.607191 79.26058 
L 351.397719 86.5416 
L 349.875124 85.033968 
" clip-path="url(#p9bc8f8a7b1)" style="fill: #ff0000"/>
    <path d="M 168.381539 276.101959 
L 161.213557 283.31568 
L 163.488652 284.066014 
L 153.65721 289.400269 
L 158.928824 279.535097 
L 159.693614 281.805374 
L 166.861596 274.591653 
L 168.381539 276.101959 
" clip-path="url(#p9bc8f8a7b1)" style="fill: #ff0000"/>
    <path d="M 273.901812 124.736572 
L 281.063329 117.363432 
L 278.779844 116.639033 
L 288.549955 111.193259 
L 283.390931 121.117774 
L 282.600358 118.856346 
L 275.438841 126.229485 
L 273.901812 124.736572 
" clip-path="url(#p9bc8f8a7b1)" style="fill: #ff0000"/>
    <path d="M 319.313691 171.01598 
L 326.529383 163.797125 
L 324.25652 163.040057 
L 334.103715 157.734938 
L 328.802911 167.584457 
L 328.044847 165.311925 
L 320.829155 172.53078 
L 319.313691 171.01598 
" clip-path="url(#p9bc8f8a7b1)" style="fill: #ff0000"/>
    <path d="M 262.342992 209.030981 
L 254.875282 216.215494 
L 257.132916 217.016837 
L 247.183921 222.128494 
L 252.676206 212.384453 
L 253.389712 214.671366 
L 260.857422 207.486853 
L 262.342992 209.030981 
" clip-path="url(#p9bc8f8a7b1)" style="fill: #ff0000"/>
    <path d="M 344.888795 93.920376 
L 352.009644 86.66874 
L 349.730147 85.931885 
L 359.529842 80.539529 
L 354.316715 90.435732 
L 353.5385 88.170022 
L 346.417651 95.421658 
L 344.888795 93.920376 
" clip-path="url(#p9bc8f8a7b1)" style="fill: #ff0000"/>
    <path d="M 177.014852 195.324551 
L 169.755871 202.551042 
L 172.026864 203.313703 
L 162.166638 208.594562 
L 167.491675 198.758124 
L 168.244141 201.032515 
L 175.503122 193.806025 
L 177.014852 195.324551 
" clip-path="url(#p9bc8f8a7b1)" style="fill: #ff0000"/>
    <path d="M 272.345561 214.13807 
L 265.176449 221.366699 
L 267.452259 222.114864 
L 257.625908 227.458491 
L 262.888113 217.588297 
L 263.655067 219.857844 
L 270.824179 212.629214 
L 272.345561 214.13807 
" clip-path="url(#p9bc8f8a7b1)" style="fill: #ff0000"/>
    <path d="M 285.065817 52.779789 
L 292.568655 45.872664 
L 290.329188 45.021871 
L 300.38818 40.130222 
L 294.682957 49.751135 
L 294.019911 47.449086 
L 286.517073 54.356211 
L 285.065817 52.779789 
" clip-path="url(#p9bc8f8a7b1)" style="fill: #ff0000"/>
    <path d="M 157.999291 277.687979 
L 150.844267 284.864091 
L 153.118077 285.618312 
L 143.277533 290.935759 
L 148.565998 281.07961 
L 149.326907 283.35119 
L 156.481932 276.175078 
L 157.999291 277.687979 
" clip-path="url(#p9bc8f8a7b1)" style="fill: #ff0000"/>
    <path d="M 181.220447 294.290922 
L 173.767714 301.234506 
L 176.012216 302.071926 
L 165.982581 307.023488 
L 171.630315 297.368715 
L 172.30708 299.666769 
L 179.759813 292.723185 
L 181.220447 294.290922 
" clip-path="url(#p9bc8f8a7b1)" style="fill: #ff0000"/>
    <path d="M 327.228298 68.397146 
L 334.43146 61.273029 
L 332.162976 60.502936 
L 342.04044 55.254389 
L 336.683226 65.073339 
L 335.93821 62.796497 
L 328.735048 69.920614 
L 327.228298 68.397146 
" clip-path="url(#p9bc8f8a7b1)" style="fill: #ff0000"/>
    <path d="M 294.917708 65.298663 
L 302.180368 58.230045 
L 299.918135 57.44178 
L 309.837383 52.272636 
L 304.401576 62.048296 
L 303.674848 59.765551 
L 296.412188 66.834168 
L 294.917708 65.298663 
" clip-path="url(#p9bc8f8a7b1)" style="fill: #ff0000"/>
   </g>
   <g id="matplotlib.axis_1">
    <g id="xtick_1">
     <g id="line2d_1">
      <defs>
       <path id="mf1d962ed46" d="M 0 0 
L 0 3.5 
" style="stroke: #000000; stroke-width: 0.8"/>
      </defs>
      <g>
       <use xlink:href="#mf1d962ed46" x="72.535819" y="307.584" style="stroke: #000000; stroke-width: 0.8"/>
      </g>
     </g>
     <g id="text_1">
      <!-- −60 -->
      <g transform="translate(59.873007 323.702125) scale(0.12 -0.12)">
       <defs>
        <path id="DejaVuSans-2212" d="M 678 2272 
L 4684 2272 
L 4684 1741 
L 678 1741 
L 678 2272 
z
" transform="scale(0.015625)"/>
        <path id="DejaVuSans-36" d="M 2113 2584 
Q 1688 2584 1439 2293 
Q 1191 2003 1191 1497 
Q 1191 994 1439 701 
Q 1688 409 2113 409 
Q 2538 409 2786 701 
Q 3034 994 3034 1497 
Q 3034 2003 2786 2293 
Q 2538 2584 2113 2584 
z
M 3366 4563 
L 3366 3988 
Q 3128 4100 2886 4159 
Q 2644 4219 2406 4219 
Q 1781 4219 1451 3797 
Q 1122 3375 1075 2522 
Q 1259 2794 1537 2939 
Q 1816 3084 2150 3084 
Q 2853 3084 3261 2657 
Q 3669 2231 3669 1497 
Q 3669 778 3244 343 
Q 2819 -91 2113 -91 
Q 1303 -91 875 529 
Q 447 1150 447 2328 
Q 447 3434 972 4092 
Q 1497 4750 2381 4750 
Q 2619 4750 2861 4703 
Q 3103 4656 3366 4563 
z
" transform="scale(0.015625)"/>
        <path id="DejaVuSans-30" d="M 2034 4250 
Q 1547 4250 1301 3770 
Q 1056 3291 1056 2328 
Q 1056 1369 1301 889 
Q 1547 409 2034 409 
Q 2525 409 2770 889 
Q 3016 1369 3016 2328 
Q 3016 3291 2770 3770 
Q 2525 4250 2034 4250 
z
M 2034 4750 
Q 2819 4750 3233 4129 
Q 3647 3509 3647 2328 
Q 3647 1150 3233 529 
Q 2819 -91 2034 -91 
Q 1250 -91 836 529 
Q 422 1150 422 2328 
Q 422 3509 836 4129 
Q 1250 4750 2034 4750 
z
" transform="scale(0.015625)"/>
       </defs>
       <use xlink:href="#DejaVuSans-2212"/>
       <use xlink:href="#DejaVuSans-36" transform="translate(83.789062 0)"/>
       <use xlink:href="#DejaVuSans-30" transform="translate(147.412109 0)"/>
      </g>
     </g>
    </g>
    <g id="xtick_2">
     <g id="line2d_2">
      <g>
       <use xlink:href="#mf1d962ed46" x="127.532453" y="307.584" style="stroke: #000000; stroke-width: 0.8"/>
      </g>
     </g>
     <g id="text_2">
      <!-- −40 -->
      <g transform="translate(114.869641 323.702125) scale(0.12 -0.12)">
       <defs>
        <path id="DejaVuSans-34" d="M 2419 4116 
L 825 1625 
L 2419 1625 
L 2419 4116 
z
M 2253 4666 
L 3047 4666 
L 3047 1625 
L 3713 1625 
L 3713 1100 
L 3047 1100 
L 3047 0 
L 2419 0 
L 2419 1100 
L 313 1100 
L 313 1709 
L 2253 4666 
z
" transform="scale(0.015625)"/>
       </defs>
       <use xlink:href="#DejaVuSans-2212"/>
       <use xlink:href="#DejaVuSans-34" transform="translate(83.789062 0)"/>
       <use xlink:href="#DejaVuSans-30" transform="translate(147.412109 0)"/>
      </g>
     </g>
    </g>
    <g id="xtick_3">
     <g id="line2d_3">
      <g>
       <use xlink:href="#mf1d962ed46" x="182.529088" y="307.584" style="stroke: #000000; stroke-width: 0.8"/>
      </g>
     </g>
     <g id="text_3">
      <!-- −20 -->
      <g transform="translate(169.866275 323.702125) scale(0.12 -0.12)">
       <defs>
        <path id="DejaVuSans-32" d="M 1228 531 
L 3431 531 
L 3431 0 
L 469 0 
L 469 531 
Q 828 903 1448 1529 
Q 2069 2156 2228 2338 
Q 2531 2678 2651 2914 
Q 2772 3150 2772 3378 
Q 2772 3750 2511 3984 
Q 2250 4219 1831 4219 
Q 1534 4219 1204 4116 
Q 875 4013 500 3803 
L 500 4441 
Q 881 4594 1212 4672 
Q 1544 4750 1819 4750 
Q 2544 4750 2975 4387 
Q 3406 4025 3406 3419 
Q 3406 3131 3298 2873 
Q 3191 2616 2906 2266 
Q 2828 2175 2409 1742 
Q 1991 1309 1228 531 
z
" transform="scale(0.015625)"/>
       </defs>
       <use xlink:href="#DejaVuSans-2212"/>
       <use xlink:href="#DejaVuSans-32" transform="translate(83.789062 0)"/>
       <use xlink:href="#DejaVuSans-30" transform="translate(147.412109 0)"/>
      </g>
     </g>
    </g>
    <g id="xtick_4">
     <g id="line2d_4">
      <g>
       <use xlink:href="#mf1d962ed46" x="237.525722" y="307.584" style="stroke: #000000; stroke-width: 0.8"/>
      </g>
     </g>
     <g id="text_4">
      <!-- 0 -->
      <g transform="translate(233.708222 323.702125) scale(0.12 -0.12)">
       <use xlink:href="#DejaVuSans-30"/>
      </g>
     </g>
    </g>
    <g id="xtick_5">
     <g id="line2d_5">
      <g>
       <use xlink:href="#mf1d962ed46" x="292.522356" y="307.584" style="stroke: #000000; stroke-width: 0.8"/>
      </g>
     </g>
     <g id="text_5">
      <!-- 20 -->
      <g transform="translate(284.887356 323.702125) scale(0.12 -0.12)">
       <use xlink:href="#DejaVuSans-32"/>
       <use xlink:href="#DejaVuSans-30" transform="translate(63.623047 0)"/>
      </g>
     </g>
    </g>
    <g id="xtick_6">
     <g id="line2d_6">
      <g>
       <use xlink:href="#mf1d962ed46" x="347.518991" y="307.584" style="stroke: #000000; stroke-width: 0.8"/>
      </g>
     </g>
     <g id="text_6">
      <!-- 40 -->
      <g transform="translate(339.883991 323.702125) scale(0.12 -0.12)">
       <use xlink:href="#DejaVuSans-34"/>
       <use xlink:href="#DejaVuSans-30" transform="translate(63.623047 0)"/>
      </g>
     </g>
    </g>
    <g id="xtick_7">
     <g id="line2d_7">
      <g>
       <use xlink:href="#mf1d962ed46" x="402.515625" y="307.584" style="stroke: #000000; stroke-width: 0.8"/>
      </g>
     </g>
     <g id="text_7">
      <!-- 60 -->
      <g transform="translate(394.880625 323.702125) scale(0.12 -0.12)">
       <use xlink:href="#DejaVuSans-36"/>
       <use xlink:href="#DejaVuSans-30" transform="translate(63.623047 0)"/>
      </g>
     </g>
    </g>
    <g id="text_8">
     <!-- x -->
     <g transform="translate(232.016875 340.835562) scale(0.14 -0.14)">
      <defs>
       <path id="DejaVuSans-78" d="M 3513 3500 
L 2247 1797 
L 3578 0 
L 2900 0 
L 1881 1375 
L 863 0 
L 184 0 
L 1544 1831 
L 300 3500 
L 978 3500 
L 1906 2253 
L 2834 3500 
L 3513 3500 
z
" transform="scale(0.015625)"/>
      </defs>
      <use xlink:href="#DejaVuSans-78"/>
     </g>
    </g>
   </g>
   <g id="matplotlib.axis_2">
    <g id="ytick_1">
     <g id="line2d_8">
      <defs>
       <path id="ma308a43285" d="M 0 0 
L -3.5 0 
" style="stroke: #000000; stroke-width: 0.8"/>
      </defs>
      <g>
       <use xlink:href="#ma308a43285" x="57.6" y="284.550847" style="stroke: #000000; stroke-width: 0.8"/>
      </g>
     </g>
     <g id="text_9">
      <!-- −40 -->
      <g transform="translate(25.274375 289.109909) scale(0.12 -0.12)">
       <use xlink:href="#DejaVuSans-2212"/>
       <use xlink:href="#DejaVuSans-34" transform="translate(83.789062 0)"/>
       <use xlink:href="#DejaVuSans-30" transform="translate(147.412109 0)"/>
      </g>
     </g>
    </g>
    <g id="ytick_2">
     <g id="line2d_9">
      <g>
       <use xlink:href="#ma308a43285" x="57.6" y="229.554213" style="stroke: #000000; stroke-width: 0.8"/>
      </g>
     </g>
     <g id="text_10">
      <!-- −20 -->
      <g transform="translate(25.274375 234.113275) scale(0.12 -0.12)">
       <use xlink:href="#DejaVuSans-2212"/>
       <use xlink:href="#DejaVuSans-32" transform="translate(83.789062 0)"/>
       <use xlink:href="#DejaVuSans-30" transform="translate(147.412109 0)"/>
      </g>
     </g>
    </g>
    <g id="ytick_3">
     <g id="line2d_10">
      <g>
       <use xlink:href="#ma308a43285" x="57.6" y="174.557578" style="stroke: #000000; stroke-width: 0.8"/>
      </g>
     </g>
     <g id="text_11">
      <!-- 0 -->
      <g transform="translate(42.965 179.116641) scale(0.12 -0.12)">
       <use xlink:href="#DejaVuSans-30"/>
      </g>
     </g>
    </g>
    <g id="ytick_4">
     <g id="line2d_11">
      <g>
       <use xlink:href="#ma308a43285" x="57.6" y="119.560944" style="stroke: #000000; stroke-width: 0.8"/>
      </g>
     </g>
     <g id="text_12">
      <!-- 20 -->
      <g transform="translate(35.33 124.120007) scale(0.12 -0.12)">
       <use xlink:href="#DejaVuSans-32"/>
       <use xlink:href="#DejaVuSans-30" transform="translate(63.623047 0)"/>
      </g>
     </g>
    </g>
    <g id="ytick_5">
     <g id="line2d_12">
      <g>
       <use xlink:href="#ma308a43285" x="57.6" y="64.56431" style="stroke: #000000; stroke-width: 0.8"/>
      </g>
     </g>
     <g id="text_13">
      <!-- 40 -->
      <g transform="translate(35.33 69.123372) scale(0.12 -0.12)">
       <use xlink:href="#DejaVuSans-34"/>
       <use xlink:href="#DejaVuSans-30" transform="translate(63.623047 0)"/>
      </g>
     </g>
    </g>
    <g id="text_14">
     <!-- y -->
     <g transform="translate(18.362813 178.671125) rotate(-90) scale(0.14 -0.14)">
      <defs>
       <path id="DejaVuSans-79" d="M 2059 -325 
Q 1816 -950 1584 -1140 
Q 1353 -1331 966 -1331 
L 506 -1331 
L 506 -850 
L 844 -850 
Q 1081 -850 1212 -737 
Q 1344 -625 1503 -206 
L 1606 56 
L 191 3500 
L 800 3500 
L 1894 763 
L 2988 3500 
L 3597 3500 
L 2059 -325 
z
" transform="scale(0.015625)"/>
      </defs>
      <use xlink:href="#DejaVuSans-79"/>
     </g>
    </g>
   </g>
   <g id="patch_3">
    <path d="M 57.6 307.584 
L 57.6 41.472 
" style="fill: none; stroke: #000000; stroke-width: 0.8; stroke-linejoin: miter; stroke-linecap: square"/>
   </g>
   <g id="patch_4">
    <path d="M 414.72 307.584 
L 414.72 41.472 
" style="fill: none; stroke: #000000; stroke-width: 0.8; stroke-linejoin: miter; stroke-linecap: square"/>
   </g>
   <g id="patch_5">
    <path d="M 57.6 307.584 
L 414.72 307.584 
" style="fill: none; stroke: #000000; stroke-width: 0.8; stroke-linejoin: miter; stroke-linecap: square"/>
   </g>
   <g id="patch_6">
    <path d="M 57.6 41.472 
L 414.72 41.472 
" style="fill: none; stroke: #000000; stroke-width: 0.8; stroke-linejoin: miter; stroke-linecap: square"/>
   </g>
   <g id="text_15">
    <!-- Velocities at the final time -->
    <g transform="translate(116.81 35.472) scale(0.16 -0.16)">
     <defs>
      <path id="DejaVuSans-Bold-56" d="M 31 4666 
L 1241 4666 
L 2478 1222 
L 3713 4666 
L 4922 4666 
L 3194 0 
L 1759 0 
L 31 4666 
z
" transform="scale(0.015625)"/>
      <path id="DejaVuSans-Bold-65" d="M 4031 1759 
L 4031 1441 
L 1416 1441 
Q 1456 1047 1700 850 
Q 1944 653 2381 653 
Q 2734 653 3104 758 
Q 3475 863 3866 1075 
L 3866 213 
Q 3469 63 3072 -14 
Q 2675 -91 2278 -91 
Q 1328 -91 801 392 
Q 275 875 275 1747 
Q 275 2603 792 3093 
Q 1309 3584 2216 3584 
Q 3041 3584 3536 3087 
Q 4031 2591 4031 1759 
z
M 2881 2131 
Q 2881 2450 2695 2645 
Q 2509 2841 2209 2841 
Q 1884 2841 1681 2658 
Q 1478 2475 1428 2131 
L 2881 2131 
z
" transform="scale(0.015625)"/>
      <path id="DejaVuSans-Bold-6c" d="M 538 4863 
L 1656 4863 
L 1656 0 
L 538 0 
L 538 4863 
z
" transform="scale(0.015625)"/>
      <path id="DejaVuSans-Bold-6f" d="M 2203 2784 
Q 1831 2784 1636 2517 
Q 1441 2250 1441 1747 
Q 1441 1244 1636 976 
Q 1831 709 2203 709 
Q 2569 709 2762 976 
Q 2956 1244 2956 1747 
Q 2956 2250 2762 2517 
Q 2569 2784 2203 2784 
z
M 2203 3584 
Q 3106 3584 3614 3096 
Q 4122 2609 4122 1747 
Q 4122 884 3614 396 
Q 3106 -91 2203 -91 
Q 1297 -91 786 396 
Q 275 884 275 1747 
Q 275 2609 786 3096 
Q 1297 3584 2203 3584 
z
" transform="scale(0.015625)"/>
      <path id="DejaVuSans-Bold-63" d="M 3366 3391 
L 3366 2478 
Q 3138 2634 2908 2709 
Q 2678 2784 2431 2784 
Q 1963 2784 1702 2511 
Q 1441 2238 1441 1747 
Q 1441 1256 1702 982 
Q 1963 709 2431 709 
Q 2694 709 2930 787 
Q 3166 866 3366 1019 
L 3366 103 
Q 3103 6 2833 -42 
Q 2563 -91 2291 -91 
Q 1344 -91 809 395 
Q 275 881 275 1747 
Q 275 2613 809 3098 
Q 1344 3584 2291 3584 
Q 2566 3584 2833 3536 
Q 3100 3488 3366 3391 
z
" transform="scale(0.015625)"/>
      <path id="DejaVuSans-Bold-69" d="M 538 3500 
L 1656 3500 
L 1656 0 
L 538 0 
L 538 3500 
z
M 538 4863 
L 1656 4863 
L 1656 3950 
L 538 3950 
L 538 4863 
z
" transform="scale(0.015625)"/>
      <path id="DejaVuSans-Bold-74" d="M 1759 4494 
L 1759 3500 
L 2913 3500 
L 2913 2700 
L 1759 2700 
L 1759 1216 
Q 1759 972 1856 886 
Q 1953 800 2241 800 
L 2816 800 
L 2816 0 
L 1856 0 
Q 1194 0 917 276 
Q 641 553 641 1216 
L 641 2700 
L 84 2700 
L 84 3500 
L 641 3500 
L 641 4494 
L 1759 4494 
z
" transform="scale(0.015625)"/>
      <path id="DejaVuSans-Bold-73" d="M 3272 3391 
L 3272 2541 
Q 2913 2691 2578 2766 
Q 2244 2841 1947 2841 
Q 1628 2841 1473 2761 
Q 1319 2681 1319 2516 
Q 1319 2381 1436 2309 
Q 1553 2238 1856 2203 
L 2053 2175 
Q 2913 2066 3209 1816 
Q 3506 1566 3506 1031 
Q 3506 472 3093 190 
Q 2681 -91 1863 -91 
Q 1516 -91 1145 -36 
Q 775 19 384 128 
L 384 978 
Q 719 816 1070 734 
Q 1422 653 1784 653 
Q 2113 653 2278 743 
Q 2444 834 2444 1013 
Q 2444 1163 2330 1236 
Q 2216 1309 1875 1350 
L 1678 1375 
Q 931 1469 631 1722 
Q 331 1975 331 2491 
Q 331 3047 712 3315 
Q 1094 3584 1881 3584 
Q 2191 3584 2531 3537 
Q 2872 3491 3272 3391 
z
" transform="scale(0.015625)"/>
      <path id="DejaVuSans-Bold-20" transform="scale(0.015625)"/>
      <path id="DejaVuSans-Bold-61" d="M 2106 1575 
Q 1756 1575 1579 1456 
Q 1403 1338 1403 1106 
Q 1403 894 1545 773 
Q 1688 653 1941 653 
Q 2256 653 2472 879 
Q 2688 1106 2688 1447 
L 2688 1575 
L 2106 1575 
z
M 3816 1997 
L 3816 0 
L 2688 0 
L 2688 519 
Q 2463 200 2181 54 
Q 1900 -91 1497 -91 
Q 953 -91 614 226 
Q 275 544 275 1050 
Q 275 1666 698 1953 
Q 1122 2241 2028 2241 
L 2688 2241 
L 2688 2328 
Q 2688 2594 2478 2717 
Q 2269 2841 1825 2841 
Q 1466 2841 1156 2769 
Q 847 2697 581 2553 
L 581 3406 
Q 941 3494 1303 3539 
Q 1666 3584 2028 3584 
Q 2975 3584 3395 3211 
Q 3816 2838 3816 1997 
z
" transform="scale(0.015625)"/>
      <path id="DejaVuSans-Bold-68" d="M 4056 2131 
L 4056 0 
L 2931 0 
L 2931 347 
L 2931 1625 
Q 2931 2084 2911 2256 
Q 2891 2428 2841 2509 
Q 2775 2619 2662 2680 
Q 2550 2741 2406 2741 
Q 2056 2741 1856 2470 
Q 1656 2200 1656 1722 
L 1656 0 
L 538 0 
L 538 4863 
L 1656 4863 
L 1656 2988 
Q 1909 3294 2193 3439 
Q 2478 3584 2822 3584 
Q 3428 3584 3742 3212 
Q 4056 2841 4056 2131 
z
" transform="scale(0.015625)"/>
      <path id="DejaVuSans-Bold-66" d="M 2841 4863 
L 2841 4128 
L 2222 4128 
Q 1984 4128 1890 4042 
Q 1797 3956 1797 3744 
L 1797 3500 
L 2753 3500 
L 2753 2700 
L 1797 2700 
L 1797 0 
L 678 0 
L 678 2700 
L 122 2700 
L 122 3500 
L 678 3500 
L 678 3744 
Q 678 4316 997 4589 
Q 1316 4863 1984 4863 
L 2841 4863 
z
" transform="scale(0.015625)"/>
      <path id="DejaVuSans-Bold-6e" d="M 4056 2131 
L 4056 0 
L 2931 0 
L 2931 347 
L 2931 1631 
Q 2931 2084 2911 2256 
Q 2891 2428 2841 2509 
Q 2775 2619 2662 2680 
Q 2550 2741 2406 2741 
Q 2056 2741 1856 2470 
Q 1656 2200 1656 1722 
L 1656 0 
L 538 0 
L 538 3500 
L 1656 3500 
L 1656 2988 
Q 1909 3294 2193 3439 
Q 2478 3584 2822 3584 
Q 3428 3584 3742 3212 
Q 4056 2841 4056 2131 
z
" transform="scale(0.015625)"/>
      <path id="DejaVuSans-Bold-6d" d="M 3781 2919 
Q 3994 3244 4286 3414 
Q 4578 3584 4928 3584 
Q 5531 3584 5847 3212 
Q 6163 2841 6163 2131 
L 6163 0 
L 5038 0 
L 5038 1825 
Q 5041 1866 5042 1909 
Q 5044 1953 5044 2034 
Q 5044 2406 4934 2573 
Q 4825 2741 4581 2741 
Q 4263 2741 4089 2478 
Q 3916 2216 3909 1719 
L 3909 0 
L 2784 0 
L 2784 1825 
Q 2784 2406 2684 2573 
Q 2584 2741 2328 2741 
Q 2006 2741 1831 2477 
Q 1656 2213 1656 1722 
L 1656 0 
L 531 0 
L 531 3500 
L 1656 3500 
L 1656 2988 
Q 1863 3284 2130 3434 
Q 2397 3584 2719 3584 
Q 3081 3584 3359 3409 
Q 3638 3234 3781 2919 
z
" transform="scale(0.015625)"/>
     </defs>
     <use xlink:href="#DejaVuSans-Bold-56"/>
     <use xlink:href="#DejaVuSans-Bold-65" transform="translate(71.892578 0)"/>
     <use xlink:href="#DejaVuSans-Bold-6c" transform="translate(139.714844 0)"/>
     <use xlink:href="#DejaVuSans-Bold-6f" transform="translate(173.992188 0)"/>
     <use xlink:href="#DejaVuSans-Bold-63" transform="translate(242.693359 0)"/>
     <use xlink:href="#DejaVuSans-Bold-69" transform="translate(301.970703 0)"/>
     <use xlink:href="#DejaVuSans-Bold-74" transform="translate(336.248047 0)"/>
     <use xlink:href="#DejaVuSans-Bold-69" transform="translate(384.050781 0)"/>
     <use xlink:href="#DejaVuSans-Bold-65" transform="translate(418.328125 0)"/>
     <use xlink:href="#DejaVuSans-Bold-73" transform="translate(486.150391 0)"/>
     <use xlink:href="#DejaVuSans-Bold-20" transform="translate(545.671875 0)"/>
     <use xlink:href="#DejaVuSans-Bold-61" transform="translate(580.486328 0)"/>
     <use xlink:href="#DejaVuSans-Bold-74" transform="translate(647.966797 0)"/>
     <use xlink:href="#DejaVuSans-Bold-20" transform="translate(695.769531 0)"/>
     <use xlink:href="#DejaVuSans-Bold-74" transform="translate(730.583984 0)"/>
     <use xlink:href="#DejaVuSans-Bold-68" transform="translate(778.386719 0)"/>
     <use xlink:href="#DejaVuSans-Bold-65" transform="translate(849.578125 0)"/>
     <use xlink:href="#DejaVuSans-Bold-20" transform="translate(917.400391 0)"/>
     <use xlink:href="#DejaVuSans-Bold-66" transform="translate(952.214844 0)"/>
     <use xlink:href="#DejaVuSans-Bold-69" transform="translate(995.720703 0)"/>
     <use xlink:href="#DejaVuSans-Bold-6e" transform="translate(1029.998047 0)"/>
     <use xlink:href="#DejaVuSans-Bold-61" transform="translate(1101.189453 0)"/>
     <use xlink:href="#DejaVuSans-Bold-6c" transform="translate(1168.669922 0)"/>
     <use xlink:href="#DejaVuSans-Bold-20" transform="translate(1202.947266 0)"/>
     <use xlink:href="#DejaVuSans-Bold-74" transform="translate(1237.761719 0)"/>
     <use xlink:href="#DejaVuSans-Bold-69" transform="translate(1285.564453 0)"/>
     <use xlink:href="#DejaVuSans-Bold-6d" transform="translate(1319.841797 0)"/>
     <use xlink:href="#DejaVuSans-Bold-65" transform="translate(1424.041016 0)"/>
    </g>
   </g>
   <g id="legend_1">
    <g id="patch_7">
     <path d="M 64.6 78.82825 
L 144.053125 78.82825 
Q 146.053125 78.82825 146.053125 76.82825 
L 146.053125 48.472 
Q 146.053125 46.472 144.053125 46.472 
L 64.6 46.472 
Q 62.6 46.472 62.6 48.472 
L 62.6 76.82825 
Q 62.6 78.82825 64.6 78.82825 
z
" style="fill: #ffffff; opacity: 0.8; stroke: #cccccc; stroke-linejoin: miter"/>
    </g>
    <g id="PathCollection_2">
     <g>
      <use xlink:href="#ma372fc7834" x="76.6" y="55.445437" style="fill: #0000ff; stroke: #0000ff"/>
     </g>
    </g>
    <g id="text_16">
     <!-- Positions -->
     <g transform="translate(94.6 58.070437) scale(0.1 -0.1)">
      <defs>
       <path id="DejaVuSans-50" d="M 1259 4147 
L 1259 2394 
L 2053 2394 
Q 2494 2394 2734 2622 
Q 2975 2850 2975 3272 
Q 2975 3691 2734 3919 
Q 2494 4147 2053 4147 
L 1259 4147 
z
M 628 4666 
L 2053 4666 
Q 2838 4666 3239 4311 
Q 3641 3956 3641 3272 
Q 3641 2581 3239 2228 
Q 2838 1875 2053 1875 
L 1259 1875 
L 1259 0 
L 628 0 
L 628 4666 
z
" transform="scale(0.015625)"/>
       <path id="DejaVuSans-6f" d="M 1959 3097 
Q 1497 3097 1228 2736 
Q 959 2375 959 1747 
Q 959 1119 1226 758 
Q 1494 397 1959 397 
Q 2419 397 2687 759 
Q 2956 1122 2956 1747 
Q 2956 2369 2687 2733 
Q 2419 3097 1959 3097 
z
M 1959 3584 
Q 2709 3584 3137 3096 
Q 3566 2609 3566 1747 
Q 3566 888 3137 398 
Q 2709 -91 1959 -91 
Q 1206 -91 779 398 
Q 353 888 353 1747 
Q 353 2609 779 3096 
Q 1206 3584 1959 3584 
z
" transform="scale(0.015625)"/>
       <path id="DejaVuSans-73" d="M 2834 3397 
L 2834 2853 
Q 2591 2978 2328 3040 
Q 2066 3103 1784 3103 
Q 1356 3103 1142 2972 
Q 928 2841 928 2578 
Q 928 2378 1081 2264 
Q 1234 2150 1697 2047 
L 1894 2003 
Q 2506 1872 2764 1633 
Q 3022 1394 3022 966 
Q 3022 478 2636 193 
Q 2250 -91 1575 -91 
Q 1294 -91 989 -36 
Q 684 19 347 128 
L 347 722 
Q 666 556 975 473 
Q 1284 391 1588 391 
Q 1994 391 2212 530 
Q 2431 669 2431 922 
Q 2431 1156 2273 1281 
Q 2116 1406 1581 1522 
L 1381 1569 
Q 847 1681 609 1914 
Q 372 2147 372 2553 
Q 372 3047 722 3315 
Q 1072 3584 1716 3584 
Q 2034 3584 2315 3537 
Q 2597 3491 2834 3397 
z
" transform="scale(0.015625)"/>
       <path id="DejaVuSans-69" d="M 603 3500 
L 1178 3500 
L 1178 0 
L 603 0 
L 603 3500 
z
M 603 4863 
L 1178 4863 
L 1178 4134 
L 603 4134 
L 603 4863 
z
" transform="scale(0.015625)"/>
       <path id="DejaVuSans-74" d="M 1172 4494 
L 1172 3500 
L 2356 3500 
L 2356 3053 
L 1172 3053 
L 1172 1153 
Q 1172 725 1289 603 
Q 1406 481 1766 481 
L 2356 481 
L 2356 0 
L 1766 0 
Q 1100 0 847 248 
Q 594 497 594 1153 
L 594 3053 
L 172 3053 
L 172 3500 
L 594 3500 
L 594 4494 
L 1172 4494 
z
" transform="scale(0.015625)"/>
       <path id="DejaVuSans-6e" d="M 3513 2113 
L 3513 0 
L 2938 0 
L 2938 2094 
Q 2938 2591 2744 2837 
Q 2550 3084 2163 3084 
Q 1697 3084 1428 2787 
Q 1159 2491 1159 1978 
L 1159 0 
L 581 0 
L 581 3500 
L 1159 3500 
L 1159 2956 
Q 1366 3272 1645 3428 
Q 1925 3584 2291 3584 
Q 2894 3584 3203 3211 
Q 3513 2838 3513 2113 
z
" transform="scale(0.015625)"/>
      </defs>
      <use xlink:href="#DejaVuSans-50"/>
      <use xlink:href="#DejaVuSans-6f" transform="translate(56.677734 0)"/>
      <use xlink:href="#DejaVuSans-73" transform="translate(117.859375 0)"/>
      <use xlink:href="#DejaVuSans-69" transform="translate(169.958984 0)"/>
      <use xlink:href="#DejaVuSans-74" transform="translate(197.742188 0)"/>
      <use xlink:href="#DejaVuSans-69" transform="translate(236.951172 0)"/>
      <use xlink:href="#DejaVuSans-6f" transform="translate(264.734375 0)"/>
      <use xlink:href="#DejaVuSans-6e" transform="translate(325.916016 0)"/>
      <use xlink:href="#DejaVuSans-73" transform="translate(389.294922 0)"/>
     </g>
    </g>
    <g id="patch_8">
     <path d="M 66.6 72.748562 
L 86.6 72.748562 
L 86.6 65.748562 
L 66.6 65.748562 
z
" style="fill: #ff0000"/>
    </g>
    <g id="text_17">
     <!-- Velocities -->
     <g transform="translate(94.6 72.748562) scale(0.1 -0.1)">
      <defs>
       <path id="DejaVuSans-56" d="M 1831 0 
L 50 4666 
L 709 4666 
L 2188 738 
L 3669 4666 
L 4325 4666 
L 2547 0 
L 1831 0 
z
" transform="scale(0.015625)"/>
       <path id="DejaVuSans-65" d="M 3597 1894 
L 3597 1613 
L 953 1613 
Q 991 1019 1311 708 
Q 1631 397 2203 397 
Q 2534 397 2845 478 
Q 3156 559 3463 722 
L 3463 178 
Q 3153 47 2828 -22 
Q 2503 -91 2169 -91 
Q 1331 -91 842 396 
Q 353 884 353 1716 
Q 353 2575 817 3079 
Q 1281 3584 2069 3584 
Q 2775 3584 3186 3129 
Q 3597 2675 3597 1894 
z
M 3022 2063 
Q 3016 2534 2758 2815 
Q 2500 3097 2075 3097 
Q 1594 3097 1305 2825 
Q 1016 2553 972 2059 
L 3022 2063 
z
" transform="scale(0.015625)"/>
       <path id="DejaVuSans-6c" d="M 603 4863 
L 1178 4863 
L 1178 0 
L 603 0 
L 603 4863 
z
" transform="scale(0.015625)"/>
       <path id="DejaVuSans-63" d="M 3122 3366 
L 3122 2828 
Q 2878 2963 2633 3030 
Q 2388 3097 2138 3097 
Q 1578 3097 1268 2742 
Q 959 2388 959 1747 
Q 959 1106 1268 751 
Q 1578 397 2138 397 
Q 2388 397 2633 464 
Q 2878 531 3122 666 
L 3122 134 
Q 2881 22 2623 -34 
Q 2366 -91 2075 -91 
Q 1284 -91 818 406 
Q 353 903 353 1747 
Q 353 2603 823 3093 
Q 1294 3584 2113 3584 
Q 2378 3584 2631 3529 
Q 2884 3475 3122 3366 
z
" transform="scale(0.015625)"/>
      </defs>
      <use xlink:href="#DejaVuSans-56"/>
      <use xlink:href="#DejaVuSans-65" transform="translate(60.658203 0)"/>
      <use xlink:href="#DejaVuSans-6c" transform="translate(122.181641 0)"/>
      <use xlink:href="#DejaVuSans-6f" transform="translate(149.964844 0)"/>
      <use xlink:href="#DejaVuSans-63" transform="translate(211.146484 0)"/>
      <use xlink:href="#DejaVuSans-69" transform="translate(266.126953 0)"/>
      <use xlink:href="#DejaVuSans-74" transform="translate(293.910156 0)"/>
      <use xlink:href="#DejaVuSans-69" transform="translate(333.119141 0)"/>
      <use xlink:href="#DejaVuSans-65" transform="translate(360.902344 0)"/>
      <use xlink:href="#DejaVuSans-73" transform="translate(422.425781 0)"/>
     </g>
    </g>
   </g>
  </g>
 </g>
 <defs>
  <clipPath id="p9bc8f8a7b1">
   <rect x="57.6" y="41.472" width="357.12" height="266.112"/>
  </clipPath>
 </defs>
</svg>
