<?xml version="1.0" encoding="utf-8" standalone="no"?>
<!DOCTYPE svg PUBLIC "-//W3C//DTD SVG 1.1//EN"
  "http://www.w3.org/Graphics/SVG/1.1/DTD/svg11.dtd">
<svg xmlns:xlink="http://www.w3.org/1999/xlink" width="460.8pt" height="345.6pt" viewBox="0 0 460.8 345.6" xmlns="http://www.w3.org/2000/svg" version="1.1">
 <metadata>
  <rdf:RDF xmlns:dc="http://purl.org/dc/elements/1.1/" xmlns:cc="http://creativecommons.org/ns#" xmlns:rdf="http://www.w3.org/1999/02/22-rdf-syntax-ns#">
   <cc:Work>
    <dc:type rdf:resource="http://purl.org/dc/dcmitype/StillImage"/>
    <dc:date>2025-05-07T10:57:01.091363</dc:date>
    <dc:format>image/svg+xml</dc:format>
    <dc:creator>
     <cc:Agent>
      <dc:title>Matplotlib v3.10.1, https://matplotlib.org/</dc:title>
     </cc:Agent>
    </dc:creator>
   </cc:Work>
  </rdf:RDF>
 </metadata>
 <defs>
  <style type="text/css">*{stroke-linejoin: round; stroke-linecap: butt}</style>
 </defs>
 <g id="figure_1">
  <g id="patch_1">
   <path d="M 0 345.6 
L 460.8 345.6 
L 460.8 0 
L 0 0 
z
" style="fill: #ffffff"/>
  </g>
  <g id="axes_1">
   <g id="patch_2">
    <path d="M 57.6 307.584 
L 414.72 307.584 
L 414.72 41.472 
L 57.6 41.472 
z
" style="fill: #ffffff"/>
   </g>
   <g id="PathCollection_1">
    <defs>
     <path id="mfc9efe43e4" d="M 0 3 
C 0.795609 3 1.55874 2.683901 2.12132 2.12132 
C 2.683901 1.55874 3 0.795609 3 0 
C 3 -0.795609 2.683901 -1.55874 2.12132 -2.12132 
C 1.55874 -2.683901 0.795609 -3 0 -3 
C -0.795609 -3 -1.55874 -2.683901 -2.12132 -2.12132 
C -2.683901 -1.55874 -3 -0.795609 -3 0 
C -3 0.795609 -2.683901 1.55874 -2.12132 2.12132 
C -1.55874 2.683901 -0.795609 3 0 3 
z
" style="stroke: #0000ff"/>
    </defs>
    <g clip-path="url(#p7dac7a26a6)">
     <use xlink:href="#mfc9efe43e4" x="132.155375" y="104.736137" style="fill: #0000ff; stroke: #0000ff"/>
     <use xlink:href="#mfc9efe43e4" x="151.72835" y="70.428768" style="fill: #0000ff; stroke: #0000ff"/>
     <use xlink:href="#mfc9efe43e4" x="337.607993" y="266.325114" style="fill: #0000ff; stroke: #0000ff"/>
     <use xlink:href="#mfc9efe43e4" x="287.262696" y="182.308643" style="fill: #0000ff; stroke: #0000ff"/>
     <use xlink:href="#mfc9efe43e4" x="202.636809" y="72.533817" style="fill: #0000ff; stroke: #0000ff"/>
     <use xlink:href="#mfc9efe43e4" x="199.133837" y="131.923587" style="fill: #0000ff; stroke: #0000ff"/>
     <use xlink:href="#mfc9efe43e4" x="279.221441" y="239.713666" style="fill: #0000ff; stroke: #0000ff"/>
     <use xlink:href="#mfc9efe43e4" x="316.188398" y="269.142374" style="fill: #0000ff; stroke: #0000ff"/>
     <use xlink:href="#mfc9efe43e4" x="158.869438" y="153.410447" style="fill: #0000ff; stroke: #0000ff"/>
     <use xlink:href="#mfc9efe43e4" x="190.700227" y="63.274623" style="fill: #0000ff; stroke: #0000ff"/>
     <use xlink:href="#mfc9efe43e4" x="319.268921" y="259.617968" style="fill: #0000ff; stroke: #0000ff"/>
     <use xlink:href="#mfc9efe43e4" x="122.644511" y="104.852808" style="fill: #0000ff; stroke: #0000ff"/>
     <use xlink:href="#mfc9efe43e4" x="191.602009" y="100.110729" style="fill: #0000ff; stroke: #0000ff"/>
     <use xlink:href="#mfc9efe43e4" x="144.543719" y="83.853701" style="fill: #0000ff; stroke: #0000ff"/>
     <use xlink:href="#mfc9efe43e4" x="307.495579" y="263.530701" style="fill: #0000ff; stroke: #0000ff"/>
     <use xlink:href="#mfc9efe43e4" x="178.896154" y="90.54344" style="fill: #0000ff; stroke: #0000ff"/>
     <use xlink:href="#mfc9efe43e4" x="270.324403" y="148.768671" style="fill: #0000ff; stroke: #0000ff"/>
     <use xlink:href="#mfc9efe43e4" x="162.358015" y="86.47507" style="fill: #0000ff; stroke: #0000ff"/>
     <use xlink:href="#mfc9efe43e4" x="139.649553" y="59.422301" style="fill: #0000ff; stroke: #0000ff"/>
     <use xlink:href="#mfc9efe43e4" x="321.895945" y="218.28017" style="fill: #0000ff; stroke: #0000ff"/>
     <use xlink:href="#mfc9efe43e4" x="175.675332" y="268.202102" style="fill: #0000ff; stroke: #0000ff"/>
     <use xlink:href="#mfc9efe43e4" x="124.467908" y="73.545183" style="fill: #0000ff; stroke: #0000ff"/>
     <use xlink:href="#mfc9efe43e4" x="154.014212" y="90.82872" style="fill: #0000ff; stroke: #0000ff"/>
     <use xlink:href="#mfc9efe43e4" x="113.133632" y="105.713644" style="fill: #0000ff; stroke: #0000ff"/>
     <use xlink:href="#mfc9efe43e4" x="144.263415" y="93.010096" style="fill: #0000ff; stroke: #0000ff"/>
     <use xlink:href="#mfc9efe43e4" x="124.843113" y="94.86456" style="fill: #0000ff; stroke: #0000ff"/>
     <use xlink:href="#mfc9efe43e4" x="320.991862" y="295.488" style="fill: #0000ff; stroke: #0000ff"/>
     <use xlink:href="#mfc9efe43e4" x="180.322999" y="56.494272" style="fill: #0000ff; stroke: #0000ff"/>
     <use xlink:href="#mfc9efe43e4" x="331.432697" y="180.978345" style="fill: #0000ff; stroke: #0000ff"/>
     <use xlink:href="#mfc9efe43e4" x="214.303714" y="74.729104" style="fill: #0000ff; stroke: #0000ff"/>
     <use xlink:href="#mfc9efe43e4" x="295.055547" y="253.268243" style="fill: #0000ff; stroke: #0000ff"/>
     <use xlink:href="#mfc9efe43e4" x="313.824178" y="278.138956" style="fill: #0000ff; stroke: #0000ff"/>
     <use xlink:href="#mfc9efe43e4" x="155.040101" y="143.06622" style="fill: #0000ff; stroke: #0000ff"/>
     <use xlink:href="#mfc9efe43e4" x="275.361141" y="173.426467" style="fill: #0000ff; stroke: #0000ff"/>
     <use xlink:href="#mfc9efe43e4" x="137.518836" y="211.271913" style="fill: #0000ff; stroke: #0000ff"/>
     <use xlink:href="#mfc9efe43e4" x="341.763545" y="237.62884" style="fill: #0000ff; stroke: #0000ff"/>
     <use xlink:href="#mfc9efe43e4" x="319.422674" y="285.877217" style="fill: #0000ff; stroke: #0000ff"/>
     <use xlink:href="#mfc9efe43e4" x="150.462007" y="59.183113" style="fill: #0000ff; stroke: #0000ff"/>
     <use xlink:href="#mfc9efe43e4" x="149.780126" y="110.399087" style="fill: #0000ff; stroke: #0000ff"/>
     <use xlink:href="#mfc9efe43e4" x="116.563821" y="115.290973" style="fill: #0000ff; stroke: #0000ff"/>
     <use xlink:href="#mfc9efe43e4" x="153.992347" y="80.390279" style="fill: #0000ff; stroke: #0000ff"/>
     <use xlink:href="#mfc9efe43e4" x="339.826173" y="256.981728" style="fill: #0000ff; stroke: #0000ff"/>
     <use xlink:href="#mfc9efe43e4" x="339.097652" y="279.137401" style="fill: #0000ff; stroke: #0000ff"/>
     <use xlink:href="#mfc9efe43e4" x="283.188489" y="145.243665" style="fill: #0000ff; stroke: #0000ff"/>
     <use xlink:href="#mfc9efe43e4" x="196.038185" y="121.077653" style="fill: #0000ff; stroke: #0000ff"/>
     <use xlink:href="#mfc9efe43e4" x="296.288855" y="263.872305" style="fill: #0000ff; stroke: #0000ff"/>
     <use xlink:href="#mfc9efe43e4" x="320.17274" y="180.522053" style="fill: #0000ff; stroke: #0000ff"/>
     <use xlink:href="#mfc9efe43e4" x="326.137387" y="266.269698" style="fill: #0000ff; stroke: #0000ff"/>
     <use xlink:href="#mfc9efe43e4" x="191.1925" y="73.623704" style="fill: #0000ff; stroke: #0000ff"/>
     <use xlink:href="#mfc9efe43e4" x="118.989427" y="86.975294" style="fill: #0000ff; stroke: #0000ff"/>
     <use xlink:href="#mfc9efe43e4" x="164.198214" y="76.938495" style="fill: #0000ff; stroke: #0000ff"/>
     <use xlink:href="#mfc9efe43e4" x="172.055965" y="83.493402" style="fill: #0000ff; stroke: #0000ff"/>
     <use xlink:href="#mfc9efe43e4" x="202.195006" y="112.023019" style="fill: #0000ff; stroke: #0000ff"/>
     <use xlink:href="#mfc9efe43e4" x="237.980374" y="208.488488" style="fill: #0000ff; stroke: #0000ff"/>
     <use xlink:href="#mfc9efe43e4" x="133.639179" y="68.04493" style="fill: #0000ff; stroke: #0000ff"/>
     <use xlink:href="#mfc9efe43e4" x="151.955541" y="162.339695" style="fill: #0000ff; stroke: #0000ff"/>
     <use xlink:href="#mfc9efe43e4" x="315.235958" y="209.281427" style="fill: #0000ff; stroke: #0000ff"/>
     <use xlink:href="#mfc9efe43e4" x="187.509697" y="109.826554" style="fill: #0000ff; stroke: #0000ff"/>
     <use xlink:href="#mfc9efe43e4" x="140.830069" y="101.777598" style="fill: #0000ff; stroke: #0000ff"/>
     <use xlink:href="#mfc9efe43e4" x="183.241491" y="80.772157" style="fill: #0000ff; stroke: #0000ff"/>
     <use xlink:href="#mfc9efe43e4" x="329.506399" y="227.701712" style="fill: #0000ff; stroke: #0000ff"/>
     <use xlink:href="#mfc9efe43e4" x="342.649155" y="247.711503" style="fill: #0000ff; stroke: #0000ff"/>
     <use xlink:href="#mfc9efe43e4" x="308.668251" y="285.59399" style="fill: #0000ff; stroke: #0000ff"/>
     <use xlink:href="#mfc9efe43e4" x="165.052155" y="67.131561" style="fill: #0000ff; stroke: #0000ff"/>
     <use xlink:href="#mfc9efe43e4" x="288.462214" y="286.765467" style="fill: #0000ff; stroke: #0000ff"/>
     <use xlink:href="#mfc9efe43e4" x="134.548694" y="91.904624" style="fill: #0000ff; stroke: #0000ff"/>
     <use xlink:href="#mfc9efe43e4" x="188.987733" y="90.491508" style="fill: #0000ff; stroke: #0000ff"/>
     <use xlink:href="#mfc9efe43e4" x="303.785152" y="276.789936" style="fill: #0000ff; stroke: #0000ff"/>
     <use xlink:href="#mfc9efe43e4" x="239.322997" y="116.818689" style="fill: #0000ff; stroke: #0000ff"/>
     <use xlink:href="#mfc9efe43e4" x="291.213369" y="273.467427" style="fill: #0000ff; stroke: #0000ff"/>
     <use xlink:href="#mfc9efe43e4" x="236.096466" y="191.041357" style="fill: #0000ff; stroke: #0000ff"/>
     <use xlink:href="#mfc9efe43e4" x="228.724087" y="115.765145" style="fill: #0000ff; stroke: #0000ff"/>
     <use xlink:href="#mfc9efe43e4" x="244.00795" y="274.677074" style="fill: #0000ff; stroke: #0000ff"/>
     <use xlink:href="#mfc9efe43e4" x="180.779503" y="100.774377" style="fill: #0000ff; stroke: #0000ff"/>
     <use xlink:href="#mfc9efe43e4" x="331.656703" y="273.247023" style="fill: #0000ff; stroke: #0000ff"/>
     <use xlink:href="#mfc9efe43e4" x="359.186368" y="245.636548" style="fill: #0000ff; stroke: #0000ff"/>
     <use xlink:href="#mfc9efe43e4" x="299.399015" y="289.446122" style="fill: #0000ff; stroke: #0000ff"/>
     <use xlink:href="#mfc9efe43e4" x="315.488815" y="235.423077" style="fill: #0000ff; stroke: #0000ff"/>
     <use xlink:href="#mfc9efe43e4" x="303.837838" y="195.604284" style="fill: #0000ff; stroke: #0000ff"/>
     <use xlink:href="#mfc9efe43e4" x="151.120501" y="100.091101" style="fill: #0000ff; stroke: #0000ff"/>
     <use xlink:href="#mfc9efe43e4" x="248.966832" y="217.881289" style="fill: #0000ff; stroke: #0000ff"/>
     <use xlink:href="#mfc9efe43e4" x="200.986901" y="62.08075" style="fill: #0000ff; stroke: #0000ff"/>
     <use xlink:href="#mfc9efe43e4" x="359.027794" y="234.516452" style="fill: #0000ff; stroke: #0000ff"/>
     <use xlink:href="#mfc9efe43e4" x="169.05512" y="94.796617" style="fill: #0000ff; stroke: #0000ff"/>
     <use xlink:href="#mfc9efe43e4" x="346.11933" y="201.524162" style="fill: #0000ff; stroke: #0000ff"/>
     <use xlink:href="#mfc9efe43e4" x="161.349375" y="113.479865" style="fill: #0000ff; stroke: #0000ff"/>
     <use xlink:href="#mfc9efe43e4" x="269.18867" y="165.105186" style="fill: #0000ff; stroke: #0000ff"/>
     <use xlink:href="#mfc9efe43e4" x="230.953121" y="182.662913" style="fill: #0000ff; stroke: #0000ff"/>
     <use xlink:href="#mfc9efe43e4" x="247.025356" y="202.787344" style="fill: #0000ff; stroke: #0000ff"/>
     <use xlink:href="#mfc9efe43e4" x="175.851398" y="73.800353" style="fill: #0000ff; stroke: #0000ff"/>
     <use xlink:href="#mfc9efe43e4" x="329.953055" y="257.255773" style="fill: #0000ff; stroke: #0000ff"/>
     <use xlink:href="#mfc9efe43e4" x="196.833812" y="83.391383" style="fill: #0000ff; stroke: #0000ff"/>
     <use xlink:href="#mfc9efe43e4" x="309.542952" y="294.906812" style="fill: #0000ff; stroke: #0000ff"/>
     <use xlink:href="#mfc9efe43e4" x="138.798267" y="76.681762" style="fill: #0000ff; stroke: #0000ff"/>
     <use xlink:href="#mfc9efe43e4" x="322.677614" y="275.789709" style="fill: #0000ff; stroke: #0000ff"/>
     <use xlink:href="#mfc9efe43e4" x="330.804793" y="291.128537" style="fill: #0000ff; stroke: #0000ff"/>
     <use xlink:href="#mfc9efe43e4" x="129.002478" y="82.57154" style="fill: #0000ff; stroke: #0000ff"/>
     <use xlink:href="#mfc9efe43e4" x="127.401066" y="114.463959" style="fill: #0000ff; stroke: #0000ff"/>
     <use xlink:href="#mfc9efe43e4" x="328.818874" y="282.214707" style="fill: #0000ff; stroke: #0000ff"/>
     <use xlink:href="#mfc9efe43e4" x="207.342052" y="53.568" style="fill: #0000ff; stroke: #0000ff"/>
    </g>
   </g>
   <g id="Quiver_1">
    <path d="M 131.385977 105.481683 
L 124.22947 98.096228 
L 123.436221 100.356719 
L 118.288949 90.426103 
L 128.052607 95.88344 
L 125.768265 96.605136 
L 132.924772 103.99059 
L 131.385977 105.481683 
" clip-path="url(#p7dac7a26a6)" style="fill: #ff0000"/>
    <path d="M 150.988095 71.203258 
L 143.612778 64.153954 
L 142.906758 66.443189 
L 137.382622 56.717169 
L 147.348288 61.796249 
L 145.093288 62.604974 
L 152.468605 69.654278 
L 150.988095 71.203258 
" clip-path="url(#p7dac7a26a6)" style="fill: #ff0000"/>
    <path d="M 338.368409 265.570409 
L 345.567002 272.82348 
L 346.33313 270.553654 
L 351.598929 280.421931 
L 341.770632 275.081883 
L 344.04617 274.33289 
L 336.847577 267.079819 
L 338.368409 265.570409 
" clip-path="url(#p7dac7a26a6)" style="fill: #ff0000"/>
    <path d="M 288.020534 181.551349 
L 295.192563 188.728531 
L 295.950945 186.456105 
L 301.250369 196.306366 
L 291.403917 190.999868 
L 293.676887 190.243118 
L 286.504859 183.065936 
L 288.020534 181.551349 
" clip-path="url(#p7dac7a26a6)" style="fill: #ff0000"/>
    <path d="M 201.917447 73.327751 
L 194.344093 66.465738 
L 193.699303 68.772967 
L 187.918053 59.197546 
L 198.015475 64.009365 
L 195.782817 64.87787 
L 203.356171 71.739883 
L 201.917447 73.327751 
" clip-path="url(#p7dac7a26a6)" style="fill: #ff0000"/>
    <path d="M 198.366133 132.670877 
L 191.230395 125.340207 
L 190.442277 127.602491 
L 185.27249 117.683578 
L 195.048503 123.118751 
L 192.765804 123.845627 
L 199.901541 131.176297 
L 198.366133 132.670877 
" clip-path="url(#p7dac7a26a6)" style="fill: #ff0000"/>
    <path d="M 279.97858 238.955674 
L 287.209651 246.178615 
L 287.965939 243.905492 
L 293.274438 253.750865 
L 283.4231 248.453443 
L 285.695372 247.694599 
L 278.464301 240.471658 
L 279.97858 238.955674 
" clip-path="url(#p7dac7a26a6)" style="fill: #ff0000"/>
    <path d="M 316.946911 268.385757 
L 324.036413 275.493026 
L 324.796823 273.221278 
L 330.087455 283.076264 
L 320.245742 277.760981 
L 322.519386 277.00626 
L 315.429884 269.898992 
L 316.946911 268.385757 
" clip-path="url(#p7dac7a26a6)" style="fill: #ff0000"/>
    <path d="M 158.120425 154.176471 
L 150.832011 147.04991 
L 150.100009 149.33097 
L 144.68681 139.542773 
L 154.594085 144.734828 
L 152.330036 145.517863 
L 159.61845 152.644423 
L 158.120425 154.176471 
" clip-path="url(#p7dac7a26a6)" style="fill: #ff0000"/>
    <path d="M 189.966732 64.055518 
L 182.495123 57.037429 
L 181.809027 59.332714 
L 176.200564 49.655077 
L 186.209999 54.647345 
L 183.962113 55.475639 
L 191.433722 62.493729 
L 189.966732 64.055518 
" clip-path="url(#p7dac7a26a6)" style="fill: #ff0000"/>
    <path d="M 320.031393 258.865341 
L 327.093857 266.020182 
L 327.866174 263.752454 
L 333.105035 273.635058 
L 323.291341 268.268221 
L 325.568913 267.525437 
L 318.506449 260.370596 
L 320.031393 258.865341 
" clip-path="url(#p7dac7a26a6)" style="fill: #ff0000"/>
    <path d="M 121.883741 105.607156 
L 114.702737 98.365029 
L 113.935547 100.634496 
L 108.674368 90.763755 
L 118.500164 96.108404 
L 116.224276 96.856332 
L 123.40528 104.098459 
L 121.883741 105.607156 
" clip-path="url(#p7dac7a26a6)" style="fill: #ff0000"/>
    <path d="M 190.837907 100.861703 
L 183.727877 93.627382 
L 182.950648 95.89343 
L 177.733217 85.999496 
L 187.535256 91.387589 
L 185.25608 92.125435 
L 192.36611 99.359756 
L 190.837907 100.861703 
" clip-path="url(#p7dac7a26a6)" style="fill: #ff0000"/>
    <path d="M 143.776354 84.60134 
L 136.697103 77.335309 
L 135.910013 79.597951 
L 130.735718 69.681388 
L 140.5142 75.112118 
L 138.231832 75.840031 
L 145.311084 83.106062 
L 143.776354 84.60134 
" clip-path="url(#p7dac7a26a6)" style="fill: #ff0000"/>
    <path d="M 308.276624 262.797365 
L 315.299483 270.2771 
L 316.128234 268.029383 
L 321.118467 278.039834 
L 311.44197 272.429402 
L 313.737394 271.743773 
L 306.714535 264.264038 
L 308.276624 262.797365 
" clip-path="url(#p7dac7a26a6)" style="fill: #ff0000"/>
    <path d="M 178.138763 91.301181 
L 170.931557 84.097313 
L 170.174517 86.370186 
L 164.869275 76.523058 
L 174.71886 81.823738 
L 172.446338 82.58183 
L 179.653544 89.785698 
L 178.138763 91.301181 
" clip-path="url(#p7dac7a26a6)" style="fill: #ff0000"/>
    <path d="M 269.581276 149.540407 
L 262.28446 142.514088 
L 261.569942 144.800685 
L 256.08197 135.054214 
L 266.028701 140.170274 
L 263.770713 140.970618 
L 271.067529 147.996936 
L 269.581276 149.540407 
" clip-path="url(#p7dac7a26a6)" style="fill: #ff0000"/>
    <path d="M 161.598346 87.230527 
L 154.491772 80.084332 
L 153.727891 82.354915 
L 148.452327 72.491855 
L 158.285905 77.822173 
L 156.01111 78.573418 
L 163.117684 85.719613 
L 161.598346 87.230527 
" clip-path="url(#p7dac7a26a6)" style="fill: #ff0000"/>
    <path d="M 138.901222 60.18899 
L 131.657782 53.118986 
L 130.927808 55.400695 
L 125.505913 45.617312 
L 135.417798 50.800561 
L 133.154446 51.585608 
L 140.397885 58.655612 
L 138.901222 60.18899 
" clip-path="url(#p7dac7a26a6)" style="fill: #ff0000"/>
    <path d="M 322.664703 217.533963 
L 329.808479 224.893633 
L 330.599787 222.632462 
L 335.755578 232.558658 
L 325.987242 227.1097 
L 328.270963 226.386045 
L 321.127188 219.026376 
L 322.664703 217.533963 
" clip-path="url(#p7dac7a26a6)" style="fill: #ff0000"/>
    <path d="M 176.433505 267.445144 
L 183.639705 274.662916 
L 184.399094 272.390827 
L 189.694152 282.243436 
L 179.850053 276.932574 
L 182.123358 276.176832 
L 174.917158 268.959059 
L 176.433505 267.445144 
" clip-path="url(#p7dac7a26a6)" style="fill: #ff0000"/>
    <path d="M 123.715228 74.307603 
L 116.479174 67.163986 
L 115.736233 69.441507 
L 110.370074 59.627442 
L 120.252316 64.866987 
L 117.984535 65.639146 
L 125.220589 72.782763 
L 123.715228 74.307603 
" clip-path="url(#p7dac7a26a6)" style="fill: #ff0000"/>
    <path d="M 153.251463 91.581067 
L 146.048303 84.278315 
L 145.275152 86.545758 
L 140.039929 76.661226 
L 149.851647 82.031676 
L 147.573801 82.773621 
L 154.776961 90.076373 
L 153.251463 91.581067 
" clip-path="url(#p7dac7a26a6)" style="fill: #ff0000"/>
    <path d="M 112.370795 106.465902 
L 105.109998 99.103004 
L 104.336583 101.370357 
L 99.102509 91.485217 
L 108.913602 96.856807 
L 106.635671 97.598487 
L 113.896468 104.961385 
L 112.370795 106.465902 
" clip-path="url(#p7dac7a26a6)" style="fill: #ff0000"/>
    <path d="M 143.500791 93.762569 
L 136.309756 86.474529 
L 135.536981 88.742101 
L 130.300117 78.858438 
L 140.112726 84.227259 
L 137.835004 84.969582 
L 145.02604 92.257622 
L 143.500791 93.762569 
" clip-path="url(#p7dac7a26a6)" style="fill: #ff0000"/>
    <path d="M 124.081961 95.618523 
L 117.011441 88.480583 
L 116.243099 90.749661 
L 110.986927 80.876252 
L 120.810011 86.225884 
L 118.533745 86.972658 
L 125.604265 94.110597 
L 124.081961 95.618523 
" clip-path="url(#p7dac7a26a6)" style="fill: #ff0000"/>
    <path d="M 321.763506 294.744779 
L 328.810021 302.060784 
L 329.61009 299.802698 
L 334.727362 309.748806 
L 324.980222 304.262022 
L 327.266732 303.547225 
L 320.220217 296.231221 
L 321.763506 294.744779 
" clip-path="url(#p7dac7a26a6)" style="fill: #ff0000"/>
    <path d="M 179.588076 57.273823 
L 172.251881 50.357606 
L 171.561585 52.651631 
L 165.970848 42.963742 
L 175.971127 47.974326 
L 173.721729 48.798504 
L 181.057923 55.714721 
L 179.588076 57.273823 
" clip-path="url(#p7dac7a26a6)" style="fill: #ff0000"/>
    <path d="M 332.193975 180.22451 
L 339.368617 187.469993 
L 340.137339 185.201044 
L 345.391854 195.075334 
L 335.569668 189.724055 
L 337.84606 188.977663 
L 330.671418 181.73218 
L 332.193975 180.22451 
" clip-path="url(#p7dac7a26a6)" style="fill: #ff0000"/>
    <path d="M 213.56375 75.503872 
L 206.115026 68.389752 
L 205.409865 70.679252 
L 199.882081 60.955305 
L 209.849652 66.030646 
L 207.594955 66.840217 
L 215.043679 73.954336 
L 213.56375 75.503872 
" clip-path="url(#p7dac7a26a6)" style="fill: #ff0000"/>
    <path d="M 295.807861 252.505461 
L 303.096524 259.694101 
L 303.838371 257.416224 
L 309.209246 267.227709 
L 299.324487 261.992914 
L 301.591896 261.219665 
L 294.303233 254.031025 
L 295.807861 252.505461 
" clip-path="url(#p7dac7a26a6)" style="fill: #ff0000"/>
    <path d="M 314.579768 277.379419 
L 321.715133 284.47771 
L 322.466777 282.203047 
L 327.795372 292.037558 
L 317.933236 286.760266 
L 320.203953 285.996783 
L 313.068588 278.898492 
L 314.579768 277.379419 
" clip-path="url(#p7dac7a26a6)" style="fill: #ff0000"/>
    <path d="M 154.288536 143.829739 
L 147.026939 136.681837 
L 146.287328 138.960441 
L 140.906828 129.154231 
L 150.796719 134.379324 
L 148.530069 135.154798 
L 155.791666 142.3027 
L 154.288536 143.829739 
" clip-path="url(#p7dac7a26a6)" style="fill: #ff0000"/>
    <path d="M 276.11071 172.660987 
L 283.485287 179.882285 
L 284.218945 177.601758 
L 289.625032 187.393886 
L 279.721532 182.194634 
L 281.986149 181.413244 
L 274.611572 174.191946 
L 276.11071 172.660987 
" clip-path="url(#p7dac7a26a6)" style="fill: #ff0000"/>
    <path d="M 136.761225 212.029434 
L 129.54966 204.81702 
L 128.79196 207.089673 
L 123.489578 197.241004 
L 133.337623 202.544545 
L 131.064881 203.301977 
L 138.276446 210.514391 
L 136.761225 212.029434 
" clip-path="url(#p7dac7a26a6)" style="fill: #ff0000"/>
    <path d="M 342.497065 236.847968 
L 349.88338 243.78638 
L 350.569548 241.491116 
L 356.177706 251.168931 
L 346.168428 246.176347 
L 348.41634 245.348123 
L 341.030025 238.409711 
L 342.497065 236.847968 
" clip-path="url(#p7dac7a26a6)" style="fill: #ff0000"/>
    <path d="M 320.185922 285.125375 
L 327.350877 292.399033 
L 328.125531 290.132103 
L 333.3542 300.020103 
L 323.546045 294.64315 
L 325.824382 293.902715 
L 318.659426 286.629058 
L 320.185922 285.125375 
" clip-path="url(#p7dac7a26a6)" style="fill: #ff0000"/>
    <path d="M 149.721438 59.957303 
L 142.425505 52.978213 
L 141.718557 55.267162 
L 136.198365 45.538903 
L 146.16197 50.622022 
L 143.906643 51.429833 
L 151.202576 58.408924 
L 149.721438 59.957303 
" clip-path="url(#p7dac7a26a6)" style="fill: #ff0000"/>
    <path d="M 149.024808 111.158894 
L 141.736448 103.913587 
L 140.985618 106.188519 
L 135.653506 96.355914 
L 145.517529 101.629678 
L 143.247085 102.393973 
L 150.535445 109.63928 
L 149.024808 111.158894 
" clip-path="url(#p7dac7a26a6)" style="fill: #ff0000"/>
    <path d="M 115.789649 116.031561 
L 108.779047 108.703039 
L 107.97129 110.958387 
L 102.88793 100.994904 
L 112.616322 106.514861 
L 110.327391 107.221864 
L 117.337993 114.550386 
L 115.789649 116.031561 
" clip-path="url(#p7dac7a26a6)" style="fill: #ff0000"/>
    <path d="M 153.230122 81.143158 
L 146.054314 73.87827 
L 145.282743 76.146251 
L 140.040633 66.26537 
L 149.856091 71.628981 
L 147.578763 72.372513 
L 154.754571 79.637401 
L 153.230122 81.143158 
" clip-path="url(#p7dac7a26a6)" style="fill: #ff0000"/>
    <path d="M 340.577797 256.218266 
L 347.886641 263.413785 
L 348.626427 261.135238 
L 354.006171 270.941863 
L 344.116683 265.716008 
L 346.383393 264.940708 
L 339.074549 257.745189 
L 340.577797 256.218266 
" clip-path="url(#p7dac7a26a6)" style="fill: #ff0000"/>
    <path d="M 339.862792 278.387486 
L 347.042786 285.713259 
L 347.823153 283.448289 
L 353.026878 293.34944 
L 343.232309 287.947777 
L 345.512505 287.213089 
L 338.332511 279.887316 
L 339.862792 278.387486 
" clip-path="url(#p7dac7a26a6)" style="fill: #ff0000"/>
    <path d="M 283.961985 144.502372 
L 291.002434 151.848665 
L 291.808133 149.592582 
L 296.900579 159.551424 
L 287.167156 154.040343 
L 289.455442 153.331252 
L 282.414993 145.984959 
L 283.961985 144.502372 
" clip-path="url(#p7dac7a26a6)" style="fill: #ff0000"/>
    <path d="M 195.278326 121.832918 
L 188.035106 114.545644 
L 187.270653 116.816034 
L 181.997574 106.951645 
L 191.829808 112.28444 
L 189.554824 113.035112 
L 196.798044 120.322387 
L 195.278326 121.832918 
" clip-path="url(#p7dac7a26a6)" style="fill: #ff0000"/>
    <path d="M 297.046912 263.115231 
L 304.353029 270.43083 
L 305.112068 268.158625 
L 310.408641 278.010419 
L 300.563726 272.701071 
L 302.836914 271.944979 
L 295.530798 264.62938 
L 297.046912 263.115231 
" clip-path="url(#p7dac7a26a6)" style="fill: #ff0000"/>
    <path d="M 320.933167 179.767359 
L 328.12428 187.013098 
L 328.89044 184.743283 
L 334.1561 194.611635 
L 324.327879 189.271447 
L 326.603427 188.522486 
L 319.412313 181.276747 
L 320.933167 179.767359 
" clip-path="url(#p7dac7a26a6)" style="fill: #ff0000"/>
    <path d="M 326.897062 265.514246 
L 334.074764 272.732072 
L 334.838662 270.461495 
L 340.114153 280.324594 
L 330.280615 274.994204 
L 332.555415 274.242975 
L 325.377713 267.025149 
L 326.897062 265.514246 
" clip-path="url(#p7dac7a26a6)" style="fill: #ff0000"/>
    <path d="M 190.45133 74.397318 
L 183.115681 67.369307 
L 182.406954 69.657705 
L 176.894327 59.925158 
L 186.853977 65.016022 
L 184.598022 65.822079 
L 191.933671 72.85009 
L 190.45133 74.397318 
" clip-path="url(#p7dac7a26a6)" style="fill: #ff0000"/>
    <path d="M 118.205716 87.70578 
L 111.217031 80.207886 
L 110.380095 82.452568 
L 105.426367 72.424004 
L 115.082359 78.069652 
L 112.784452 78.746914 
L 119.773138 86.244808 
L 118.205716 87.70578 
" clip-path="url(#p7dac7a26a6)" style="fill: #ff0000"/>
    <path d="M 163.442682 77.698089 
L 156.175302 70.46958 
L 155.423833 72.744301 
L 150.094483 62.910199 
L 159.957024 68.186734 
L 157.686366 68.950391 
L 164.953745 76.1789 
L 163.442682 77.698089 
" clip-path="url(#p7dac7a26a6)" style="fill: #ff0000"/>
    <path d="M 171.292045 84.24456 
L 164.158399 76.98972 
L 163.381718 79.255956 
L 158.161895 69.363283 
L 167.965237 74.749007 
L 165.686239 75.487403 
L 172.819885 82.742244 
L 171.292045 84.24456 
" clip-path="url(#p7dac7a26a6)" style="fill: #ff0000"/>
    <path d="M 201.452267 112.795126 
L 194.023652 105.649066 
L 193.31028 107.93602 
L 187.817424 98.192301 
L 197.766718 103.303375 
L 195.509131 104.104851 
L 202.937746 111.250911 
L 201.452267 112.795126 
" clip-path="url(#p7dac7a26a6)" style="fill: #ff0000"/>
    <path d="M 238.736266 207.729253 
L 245.981029 214.942113 
L 246.733578 212.667749 
L 252.058258 222.504381 
L 242.198224 217.223164 
L 244.469244 216.460585 
L 237.224481 209.247724 
L 238.736266 207.729253 
" clip-path="url(#p7dac7a26a6)" style="fill: #ff0000"/>
    <path d="M 132.887224 68.808066 
L 125.64582 61.672756 
L 124.905045 63.950982 
L 119.529554 54.142026 
L 129.416775 59.372168 
L 127.149729 60.146484 
L 134.391134 67.281795 
L 132.887224 68.808066 
" clip-path="url(#p7dac7a26a6)" style="fill: #ff0000"/>
    <path d="M 151.183225 163.082217 
L 144.102311 155.717185 
L 143.300202 157.974547 
L 138.191923 148.023817 
L 147.934099 153.519411 
L 145.646944 154.23214 
L 152.727857 161.597172 
L 151.183225 163.082217 
" clip-path="url(#p7dac7a26a6)" style="fill: #ff0000"/>
    <path d="M 315.993099 208.523437 
L 323.194828 215.717095 
L 323.95112 213.443973 
L 329.259602 223.289355 
L 319.408273 217.991916 
L 321.680546 217.233076 
L 314.478817 210.039418 
L 315.993099 208.523437 
" clip-path="url(#p7dac7a26a6)" style="fill: #ff0000"/>
    <path d="M 186.747668 110.57963 
L 179.634986 103.382389 
L 178.864004 105.650571 
L 173.619328 95.771051 
L 183.436178 101.132113 
L 181.159044 101.876237 
L 188.271726 109.073477 
L 186.747668 110.57963 
" clip-path="url(#p7dac7a26a6)" style="fill: #ff0000"/>
    <path d="M 140.063977 102.526541 
L 133.00858 95.309594 
L 132.22534 97.573572 
L 127.034185 87.665824 
L 136.82189 93.079914 
L 134.540764 93.811708 
L 141.596161 101.028655 
L 140.063977 102.526541 
" clip-path="url(#p7dac7a26a6)" style="fill: #ff0000"/>
    <path d="M 182.488497 81.534267 
L 175.314337 74.445928 
L 174.57046 76.723143 
L 169.208336 66.906873 
L 179.088423 72.15048 
L 176.820325 72.921707 
L 183.994485 80.010046 
L 182.488497 81.534267 
" clip-path="url(#p7dac7a26a6)" style="fill: #ff0000"/>
    <path d="M 330.278561 226.959029 
L 337.34649 234.3075 
L 338.148131 232.049972 
L 343.258477 241.99964 
L 333.515159 236.506071 
L 335.802166 235.792866 
L 328.734237 228.444395 
L 330.278561 226.959029 
" clip-path="url(#p7dac7a26a6)" style="fill: #ff0000"/>
    <path d="M 343.390454 246.938012 
L 350.772876 254.013184 
L 351.481982 251.724903 
L 356.992995 261.458365 
L 347.034189 256.365848 
L 349.290278 255.560166 
L 341.907856 248.484994 
L 343.390454 246.938012 
" clip-path="url(#p7dac7a26a6)" style="fill: #ff0000"/>
    <path d="M 309.419124 284.82979 
L 316.711842 291.995337 
L 317.449389 289.716064 
L 322.838765 299.517399 
L 312.944148 294.301262 
L 315.210095 293.523737 
L 307.917377 286.35819 
L 309.419124 284.82979 
" clip-path="url(#p7dac7a26a6)" style="fill: #ff0000"/>
    <path d="M 164.298436 67.892955 
L 157.028903 60.696699 
L 156.282859 62.973205 
L 150.930079 53.151836 
L 160.805171 58.404843 
L 158.53634 59.173911 
L 165.805874 66.370168 
L 164.298436 67.892955 
" clip-path="url(#p7dac7a26a6)" style="fill: #ff0000"/>
    <path d="M 289.171803 285.962787 
L 296.820036 292.724003 
L 297.436532 290.409053 
L 303.334574 299.912981 
L 293.179001 295.225138 
L 295.400859 294.329365 
L 287.752626 287.568148 
L 289.171803 285.962787 
" clip-path="url(#p7dac7a26a6)" style="fill: #ff0000"/>
    <path d="M 133.785912 92.656938 
L 126.616762 85.38803 
L 125.843512 87.655439 
L 120.608721 77.770678 
L 130.420204 83.141557 
L 128.142326 83.883402 
L 135.311476 91.15231 
L 133.785912 92.656938 
" clip-path="url(#p7dac7a26a6)" style="fill: #ff0000"/>
    <path d="M 188.222429 91.241256 
L 181.004802 83.873875 
L 180.223942 86.138675 
L 175.022374 76.23639 
L 184.815766 81.640187 
L 182.53541 82.374379 
L 189.753037 89.741761 
L 188.222429 91.241256 
" clip-path="url(#p7dac7a26a6)" style="fill: #ff0000"/>
    <path d="M 304.529877 276.019743 
L 311.718453 282.970616 
L 312.43771 280.685506 
L 317.905462 290.443335 
L 307.96936 285.306662 
L 310.229003 284.511002 
L 303.040427 277.560129 
L 304.529877 276.019743 
" clip-path="url(#p7dac7a26a6)" style="fill: #ff0000"/>
    <path d="M 238.554852 117.565526 
L 231.464853 110.273228 
L 230.675398 112.535047 
L 225.511472 102.613081 
L 235.284272 108.054029 
L 233.001145 108.779556 
L 240.091143 116.071853 
L 238.554852 117.565526 
" clip-path="url(#p7dac7a26a6)" style="fill: #ff0000"/>
    <path d="M 291.968456 272.70739 
L 299.319114 280.01018 
L 300.069252 277.735019 
L 305.404357 287.566 
L 295.538729 282.295239 
L 297.80894 281.530253 
L 290.458281 274.227463 
L 291.968456 272.70739 
" clip-path="url(#p7dac7a26a6)" style="fill: #ff0000"/>
    <path d="M 236.873709 190.303992 
L 244.047335 197.865587 
L 244.864457 195.613616 
L 249.90637 205.598136 
L 240.201 200.037801 
L 242.49285 199.340316 
L 235.319223 191.778721 
L 236.873709 190.303992 
" clip-path="url(#p7dac7a26a6)" style="fill: #ff0000"/>
    <path d="M 227.979298 116.535276 
L 220.624361 109.422356 
L 219.904913 111.707406 
L 214.437974 101.949122 
L 224.373648 107.086622 
L 222.113939 107.882095 
L 229.468877 114.995015 
L 227.979298 116.535276 
" clip-path="url(#p7dac7a26a6)" style="fill: #ff0000"/>
    <path d="M 244.765509 273.919501 
L 251.97758 281.131435 
L 252.735124 278.85873 
L 258.03818 288.707036 
L 248.189772 283.404169 
L 250.462463 282.646581 
L 243.250391 275.434647 
L 244.765509 273.919501 
" clip-path="url(#p7dac7a26a6)" style="fill: #ff0000"/>
    <path d="M 180.013764 101.523681 
L 172.831399 94.183786 
L 172.049226 96.448133 
L 166.853399 86.542836 
L 176.643657 91.952308 
L 174.362876 92.685178 
L 181.545241 100.025073 
L 180.013764 101.523681 
" clip-path="url(#p7dac7a26a6)" style="fill: #ff0000"/>
    <path d="M 332.420405 272.495642 
L 339.605412 279.798468 
L 340.381435 277.532006 
L 345.604134 287.423161 
L 335.799226 282.040288 
L 338.07801 281.301229 
L 330.893002 273.998403 
L 332.420405 272.495642 
" clip-path="url(#p7dac7a26a6)" style="fill: #ff0000"/>
    <path d="M 359.965831 244.901532 
L 366.920844 252.277114 
L 367.744754 250.027618 
L 372.756531 260.027299 
L 363.067975 254.437718 
L 365.361918 253.747147 
L 358.406905 246.371565 
L 359.965831 244.901532 
" clip-path="url(#p7dac7a26a6)" style="fill: #ff0000"/>
    <path d="M 300.136535 288.669027 
L 307.485192 295.643435 
L 308.183136 293.351725 
L 313.741529 303.058207 
L 303.758018 298.014296 
L 306.010153 297.197625 
L 298.661496 290.223217 
L 300.136535 288.669027 
" clip-path="url(#p7dac7a26a6)" style="fill: #ff0000"/>
    <path d="M 316.219324 234.639389 
L 323.692223 241.605193 
L 324.369553 239.307306 
L 330.014912 248.963467 
L 319.986496 244.009439 
L 322.231204 243.172571 
L 314.758305 236.206766 
L 316.219324 234.639389 
" clip-path="url(#p7dac7a26a6)" style="fill: #ff0000"/>
    <path d="M 304.592581 194.843905 
L 311.848805 202.046343 
L 312.597911 199.770843 
L 317.937471 209.599405 
L 308.069456 204.333115 
L 310.339319 203.5671 
L 303.083096 196.364663 
L 304.592581 194.843905 
" clip-path="url(#p7dac7a26a6)" style="fill: #ff0000"/>
    <path d="M 150.354142 100.83977 
L 143.336026 93.65582 
L 142.551976 95.919517 
L 137.364365 86.009914 
L 147.150133 91.427504 
L 144.868745 92.158482 
L 151.886861 99.342432 
L 150.354142 100.83977 
" clip-path="url(#p7dac7a26a6)" style="fill: #ff0000"/>
    <path d="M 249.711958 217.111484 
L 256.956177 224.123456 
L 257.676623 221.83872 
L 263.139298 231.599392 
L 253.205869 226.457551 
L 255.465925 225.663067 
L 248.221707 218.651094 
L 249.711958 217.111484 
" clip-path="url(#p7dac7a26a6)" style="fill: #ff0000"/>
    <path d="M 200.247893 62.85643 
L 192.896296 55.852398 
L 192.19396 58.142766 
L 186.654183 48.425646 
L 196.628007 53.488685 
L 194.374311 54.301037 
L 201.725909 61.30507 
L 200.247893 62.85643 
" clip-path="url(#p7dac7a26a6)" style="fill: #ff0000"/>
    <path d="M 359.804131 233.778135 
L 366.815747 241.15082 
L 367.630105 238.897848 
L 372.684264 248.876175 
L 362.972079 243.327751 
L 365.263072 242.627454 
L 358.251456 235.254769 
L 359.804131 233.778135 
" clip-path="url(#p7dac7a26a6)" style="fill: #ff0000"/>
    <path d="M 168.295028 95.551648 
L 161.086696 88.295005 
L 160.321544 90.565159 
L 155.051505 80.699146 
L 164.882095 86.034971 
L 162.60688 86.784942 
L 169.815212 94.041585 
L 168.295028 95.551648 
" clip-path="url(#p7dac7a26a6)" style="fill: #ff0000"/>
    <path d="M 346.878001 200.767703 
L 354.074892 207.985631 
L 354.835774 205.714041 
L 360.124357 215.570127 
L 350.283749 210.252798 
L 352.55755 209.49855 
L 345.360659 202.280622 
L 346.878001 200.767703 
" clip-path="url(#p7dac7a26a6)" style="fill: #ff0000"/>
    <path d="M 160.583253 114.228777 
L 153.374375 106.85423 
L 152.591041 109.118175 
L 147.400293 99.210215 
L 157.187777 104.624706 
L 154.90662 105.356407 
L 162.115498 112.730954 
L 160.583253 114.228777 
" clip-path="url(#p7dac7a26a6)" style="fill: #ff0000"/>
    <path d="M 269.920075 164.322332 
L 277.302652 171.219735 
L 277.982609 168.922624 
L 283.616926 178.585233 
L 273.594179 173.619743 
L 275.839842 172.785442 
L 268.457265 165.888039 
L 269.920075 164.322332 
" clip-path="url(#p7dac7a26a6)" style="fill: #ff0000"/>
    <path d="M 231.699796 181.89461 
L 238.92052 188.912072 
L 239.645567 186.628792 
L 245.088568 196.400448 
L 235.165518 191.238607 
L 237.42717 190.448677 
L 230.206447 183.431216 
L 231.699796 181.89461 
" clip-path="url(#p7dac7a26a6)" style="fill: #ff0000"/>
    <path d="M 247.785443 202.032308 
L 254.970571 209.265496 
L 255.735708 206.995336 
L 261.005813 216.861315 
L 251.175187 211.525556 
L 253.450397 210.775569 
L 246.265269 203.542381 
L 247.785443 202.032308 
" clip-path="url(#p7dac7a26a6)" style="fill: #ff0000"/>
    <path d="M 175.085744 74.549744 
L 167.877948 67.185517 
L 167.09603 69.449951 
L 161.89909 59.545238 
L 171.689956 64.95361 
L 169.409257 65.686736 
L 176.617052 73.050963 
L 175.085744 74.549744 
" clip-path="url(#p7dac7a26a6)" style="fill: #ff0000"/>
    <path d="M 330.711167 256.498754 
L 337.887661 263.685605 
L 338.646866 261.413454 
L 343.942725 271.265632 
L 334.098194 265.955571 
L 336.371437 265.199644 
L 329.194943 258.012793 
L 330.711167 256.498754 
" clip-path="url(#p7dac7a26a6)" style="fill: #ff0000"/>
    <path d="M 196.06711 84.139701 
L 188.870723 76.766512 
L 188.085636 79.02985 
L 182.902566 69.117872 
L 192.685851 74.539944 
L 190.404128 75.269877 
L 197.600515 82.643065 
L 196.06711 84.139701 
" clip-path="url(#p7dac7a26a6)" style="fill: #ff0000"/>
    <path d="M 310.295559 294.144319 
L 317.637177 301.390744 
L 318.379897 299.113151 
L 323.747009 308.926695 
L 313.864258 303.68811 
L 316.131964 302.91573 
L 308.790346 295.669305 
L 310.295559 294.144319 
" clip-path="url(#p7dac7a26a6)" style="fill: #ff0000"/>
    <path d="M 138.040647 77.439274 
L 130.77207 70.169663 
L 130.014342 72.442307 
L 124.712081 62.593573 
L 134.560061 67.897235 
L 132.287309 68.654639 
L 139.555887 75.92425 
L 138.040647 77.439274 
" clip-path="url(#p7dac7a26a6)" style="fill: #ff0000"/>
    <path d="M 323.43829 275.035266 
L 330.577088 282.233032 
L 331.343995 279.96347 
L 336.606404 289.833555 
L 326.779942 284.490131 
L 329.055737 283.741919 
L 321.916939 276.544153 
L 323.43829 275.035266 
" clip-path="url(#p7dac7a26a6)" style="fill: #ff0000"/>
    <path d="M 331.580816 290.389889 
L 338.657818 297.824968 
L 339.471214 295.571649 
L 344.529633 305.547817 
L 334.81508 300.00354 
L 337.105773 299.302265 
L 330.028771 291.867186 
L 331.580816 290.389889 
" clip-path="url(#p7dac7a26a6)" style="fill: #ff0000"/>
    <path d="M 128.230088 83.313986 
L 121.304974 76.109575 
L 120.502641 78.366857 
L 115.395349 68.415621 
L 125.13698 73.91218 
L 122.849754 74.624683 
L 129.774868 81.829094 
L 128.230088 83.313986 
" clip-path="url(#p7dac7a26a6)" style="fill: #ff0000"/>
    <path d="M 126.62631 115.203934 
L 119.567024 107.812839 
L 118.757486 110.067547 
L 113.682 100.100051 
L 123.406027 105.627693 
L 121.116538 106.332888 
L 128.175823 113.723983 
L 126.62631 115.203934 
" clip-path="url(#p7dac7a26a6)" style="fill: #ff0000"/>
    <path d="M 329.585719 281.466536 
L 336.76199 288.821922 
L 337.547509 286.558734 
L 342.728688 296.471701 
L 332.946437 291.047762 
L 335.228299 290.318265 
L 328.052028 282.962879 
L 329.585719 281.466536 
" clip-path="url(#p7dac7a26a6)" style="fill: #ff0000"/>
    <path d="M 206.59183 54.332839 
L 199.318678 47.198674 
L 198.583071 49.478574 
L 193.185354 39.681831 
L 203.084408 44.889543 
L 200.819124 45.668997 
L 208.092275 52.803161 
L 206.59183 54.332839 
" clip-path="url(#p7dac7a26a6)" style="fill: #ff0000"/>
   </g>
   <g id="matplotlib.axis_1">
    <g id="xtick_1">
     <g id="line2d_1">
      <defs>
       <path id="mc9d1b0c504" d="M 0 0 
L 0 3.5 
" style="stroke: #000000; stroke-width: 0.8"/>
      </defs>
      <g>
       <use xlink:href="#mc9d1b0c504" x="70.582927" y="307.584" style="stroke: #000000; stroke-width: 0.8"/>
      </g>
     </g>
     <g id="text_1">
      <!-- −60 -->
      <g transform="translate(57.920114 323.702125) scale(0.12 -0.12)">
       <defs>
        <path id="DejaVuSans-2212" d="M 678 2272 
L 4684 2272 
L 4684 1741 
L 678 1741 
L 678 2272 
z
" transform="scale(0.015625)"/>
        <path id="DejaVuSans-36" d="M 2113 2584 
Q 1688 2584 1439 2293 
Q 1191 2003 1191 1497 
Q 1191 994 1439 701 
Q 1688 409 2113 409 
Q 2538 409 2786 701 
Q 3034 994 3034 1497 
Q 3034 2003 2786 2293 
Q 2538 2584 2113 2584 
z
M 3366 4563 
L 3366 3988 
Q 3128 4100 2886 4159 
Q 2644 4219 2406 4219 
Q 1781 4219 1451 3797 
Q 1122 3375 1075 2522 
Q 1259 2794 1537 2939 
Q 1816 3084 2150 3084 
Q 2853 3084 3261 2657 
Q 3669 2231 3669 1497 
Q 3669 778 3244 343 
Q 2819 -91 2113 -91 
Q 1303 -91 875 529 
Q 447 1150 447 2328 
Q 447 3434 972 4092 
Q 1497 4750 2381 4750 
Q 2619 4750 2861 4703 
Q 3103 4656 3366 4563 
z
" transform="scale(0.015625)"/>
        <path id="DejaVuSans-30" d="M 2034 4250 
Q 1547 4250 1301 3770 
Q 1056 3291 1056 2328 
Q 1056 1369 1301 889 
Q 1547 409 2034 409 
Q 2525 409 2770 889 
Q 3016 1369 3016 2328 
Q 3016 3291 2770 3770 
Q 2525 4250 2034 4250 
z
M 2034 4750 
Q 2819 4750 3233 4129 
Q 3647 3509 3647 2328 
Q 3647 1150 3233 529 
Q 2819 -91 2034 -91 
Q 1250 -91 836 529 
Q 422 1150 422 2328 
Q 422 3509 836 4129 
Q 1250 4750 2034 4750 
z
" transform="scale(0.015625)"/>
       </defs>
       <use xlink:href="#DejaVuSans-2212"/>
       <use xlink:href="#DejaVuSans-36" transform="translate(83.789062 0)"/>
       <use xlink:href="#DejaVuSans-30" transform="translate(147.412109 0)"/>
      </g>
     </g>
    </g>
    <g id="xtick_2">
     <g id="line2d_2">
      <g>
       <use xlink:href="#mc9d1b0c504" x="126.333172" y="307.584" style="stroke: #000000; stroke-width: 0.8"/>
      </g>
     </g>
     <g id="text_2">
      <!-- −40 -->
      <g transform="translate(113.670359 323.702125) scale(0.12 -0.12)">
       <defs>
        <path id="DejaVuSans-34" d="M 2419 4116 
L 825 1625 
L 2419 1625 
L 2419 4116 
z
M 2253 4666 
L 3047 4666 
L 3047 1625 
L 3713 1625 
L 3713 1100 
L 3047 1100 
L 3047 0 
L 2419 0 
L 2419 1100 
L 313 1100 
L 313 1709 
L 2253 4666 
z
" transform="scale(0.015625)"/>
       </defs>
       <use xlink:href="#DejaVuSans-2212"/>
       <use xlink:href="#DejaVuSans-34" transform="translate(83.789062 0)"/>
       <use xlink:href="#DejaVuSans-30" transform="translate(147.412109 0)"/>
      </g>
     </g>
    </g>
    <g id="xtick_3">
     <g id="line2d_3">
      <g>
       <use xlink:href="#mc9d1b0c504" x="182.083416" y="307.584" style="stroke: #000000; stroke-width: 0.8"/>
      </g>
     </g>
     <g id="text_3">
      <!-- −20 -->
      <g transform="translate(169.420604 323.702125) scale(0.12 -0.12)">
       <defs>
        <path id="DejaVuSans-32" d="M 1228 531 
L 3431 531 
L 3431 0 
L 469 0 
L 469 531 
Q 828 903 1448 1529 
Q 2069 2156 2228 2338 
Q 2531 2678 2651 2914 
Q 2772 3150 2772 3378 
Q 2772 3750 2511 3984 
Q 2250 4219 1831 4219 
Q 1534 4219 1204 4116 
Q 875 4013 500 3803 
L 500 4441 
Q 881 4594 1212 4672 
Q 1544 4750 1819 4750 
Q 2544 4750 2975 4387 
Q 3406 4025 3406 3419 
Q 3406 3131 3298 2873 
Q 3191 2616 2906 2266 
Q 2828 2175 2409 1742 
Q 1991 1309 1228 531 
z
" transform="scale(0.015625)"/>
       </defs>
       <use xlink:href="#DejaVuSans-2212"/>
       <use xlink:href="#DejaVuSans-32" transform="translate(83.789062 0)"/>
       <use xlink:href="#DejaVuSans-30" transform="translate(147.412109 0)"/>
      </g>
     </g>
    </g>
    <g id="xtick_4">
     <g id="line2d_4">
      <g>
       <use xlink:href="#mc9d1b0c504" x="237.833661" y="307.584" style="stroke: #000000; stroke-width: 0.8"/>
      </g>
     </g>
     <g id="text_4">
      <!-- 0 -->
      <g transform="translate(234.016161 323.702125) scale(0.12 -0.12)">
       <use xlink:href="#DejaVuSans-30"/>
      </g>
     </g>
    </g>
    <g id="xtick_5">
     <g id="line2d_5">
      <g>
       <use xlink:href="#mc9d1b0c504" x="293.583906" y="307.584" style="stroke: #000000; stroke-width: 0.8"/>
      </g>
     </g>
     <g id="text_5">
      <!-- 20 -->
      <g transform="translate(285.948906 323.702125) scale(0.12 -0.12)">
       <use xlink:href="#DejaVuSans-32"/>
       <use xlink:href="#DejaVuSans-30" transform="translate(63.623047 0)"/>
      </g>
     </g>
    </g>
    <g id="xtick_6">
     <g id="line2d_6">
      <g>
       <use xlink:href="#mc9d1b0c504" x="349.334151" y="307.584" style="stroke: #000000; stroke-width: 0.8"/>
      </g>
     </g>
     <g id="text_6">
      <!-- 40 -->
      <g transform="translate(341.699151 323.702125) scale(0.12 -0.12)">
       <use xlink:href="#DejaVuSans-34"/>
       <use xlink:href="#DejaVuSans-30" transform="translate(63.623047 0)"/>
      </g>
     </g>
    </g>
    <g id="xtick_7">
     <g id="line2d_7">
      <g>
       <use xlink:href="#mc9d1b0c504" x="405.084396" y="307.584" style="stroke: #000000; stroke-width: 0.8"/>
      </g>
     </g>
     <g id="text_7">
      <!-- 60 -->
      <g transform="translate(397.449396 323.702125) scale(0.12 -0.12)">
       <use xlink:href="#DejaVuSans-36"/>
       <use xlink:href="#DejaVuSans-30" transform="translate(63.623047 0)"/>
      </g>
     </g>
    </g>
    <g id="text_8">
     <!-- x -->
     <g transform="translate(232.016875 340.835562) scale(0.14 -0.14)">
      <defs>
       <path id="DejaVuSans-78" d="M 3513 3500 
L 2247 1797 
L 3578 0 
L 2900 0 
L 1881 1375 
L 863 0 
L 184 0 
L 1544 1831 
L 300 3500 
L 978 3500 
L 1906 2253 
L 2834 3500 
L 3513 3500 
z
" transform="scale(0.015625)"/>
      </defs>
      <use xlink:href="#DejaVuSans-78"/>
     </g>
    </g>
   </g>
   <g id="matplotlib.axis_2">
    <g id="ytick_1">
     <g id="line2d_8">
      <defs>
       <path id="mb83dad3a15" d="M 0 0 
L -3.5 0 
" style="stroke: #000000; stroke-width: 0.8"/>
      </defs>
      <g>
       <use xlink:href="#mb83dad3a15" x="57.6" y="285.125255" style="stroke: #000000; stroke-width: 0.8"/>
      </g>
     </g>
     <g id="text_9">
      <!-- −40 -->
      <g transform="translate(25.274375 289.684317) scale(0.12 -0.12)">
       <use xlink:href="#DejaVuSans-2212"/>
       <use xlink:href="#DejaVuSans-34" transform="translate(83.789062 0)"/>
       <use xlink:href="#DejaVuSans-30" transform="translate(147.412109 0)"/>
      </g>
     </g>
    </g>
    <g id="ytick_2">
     <g id="line2d_9">
      <g>
       <use xlink:href="#mb83dad3a15" x="57.6" y="229.37501" style="stroke: #000000; stroke-width: 0.8"/>
      </g>
     </g>
     <g id="text_10">
      <!-- −20 -->
      <g transform="translate(25.274375 233.934072) scale(0.12 -0.12)">
       <use xlink:href="#DejaVuSans-2212"/>
       <use xlink:href="#DejaVuSans-32" transform="translate(83.789062 0)"/>
       <use xlink:href="#DejaVuSans-30" transform="translate(147.412109 0)"/>
      </g>
     </g>
    </g>
    <g id="ytick_3">
     <g id="line2d_10">
      <g>
       <use xlink:href="#mb83dad3a15" x="57.6" y="173.624765" style="stroke: #000000; stroke-width: 0.8"/>
      </g>
     </g>
     <g id="text_11">
      <!-- 0 -->
      <g transform="translate(42.965 178.183828) scale(0.12 -0.12)">
       <use xlink:href="#DejaVuSans-30"/>
      </g>
     </g>
    </g>
    <g id="ytick_4">
     <g id="line2d_11">
      <g>
       <use xlink:href="#mb83dad3a15" x="57.6" y="117.87452" style="stroke: #000000; stroke-width: 0.8"/>
      </g>
     </g>
     <g id="text_12">
      <!-- 20 -->
      <g transform="translate(35.33 122.433583) scale(0.12 -0.12)">
       <use xlink:href="#DejaVuSans-32"/>
       <use xlink:href="#DejaVuSans-30" transform="translate(63.623047 0)"/>
      </g>
     </g>
    </g>
    <g id="ytick_5">
     <g id="line2d_12">
      <g>
       <use xlink:href="#mb83dad3a15" x="57.6" y="62.124275" style="stroke: #000000; stroke-width: 0.8"/>
      </g>
     </g>
     <g id="text_13">
      <!-- 40 -->
      <g transform="translate(35.33 66.683338) scale(0.12 -0.12)">
       <use xlink:href="#DejaVuSans-34"/>
       <use xlink:href="#DejaVuSans-30" transform="translate(63.623047 0)"/>
      </g>
     </g>
    </g>
    <g id="text_14">
     <!-- y -->
     <g transform="translate(18.362813 178.671125) rotate(-90) scale(0.14 -0.14)">
      <defs>
       <path id="DejaVuSans-79" d="M 2059 -325 
Q 1816 -950 1584 -1140 
Q 1353 -1331 966 -1331 
L 506 -1331 
L 506 -850 
L 844 -850 
Q 1081 -850 1212 -737 
Q 1344 -625 1503 -206 
L 1606 56 
L 191 3500 
L 800 3500 
L 1894 763 
L 2988 3500 
L 3597 3500 
L 2059 -325 
z
" transform="scale(0.015625)"/>
      </defs>
      <use xlink:href="#DejaVuSans-79"/>
     </g>
    </g>
   </g>
   <g id="patch_3">
    <path d="M 57.6 307.584 
L 57.6 41.472 
" style="fill: none; stroke: #000000; stroke-width: 0.8; stroke-linejoin: miter; stroke-linecap: square"/>
   </g>
   <g id="patch_4">
    <path d="M 414.72 307.584 
L 414.72 41.472 
" style="fill: none; stroke: #000000; stroke-width: 0.8; stroke-linejoin: miter; stroke-linecap: square"/>
   </g>
   <g id="patch_5">
    <path d="M 57.6 307.584 
L 414.72 307.584 
" style="fill: none; stroke: #000000; stroke-width: 0.8; stroke-linejoin: miter; stroke-linecap: square"/>
   </g>
   <g id="patch_6">
    <path d="M 57.6 41.472 
L 414.72 41.472 
" style="fill: none; stroke: #000000; stroke-width: 0.8; stroke-linejoin: miter; stroke-linecap: square"/>
   </g>
   <g id="text_15">
    <!-- Velocities at the final time -->
    <g transform="translate(116.81 35.472) scale(0.16 -0.16)">
     <defs>
      <path id="DejaVuSans-Bold-56" d="M 31 4666 
L 1241 4666 
L 2478 1222 
L 3713 4666 
L 4922 4666 
L 3194 0 
L 1759 0 
L 31 4666 
z
" transform="scale(0.015625)"/>
      <path id="DejaVuSans-Bold-65" d="M 4031 1759 
L 4031 1441 
L 1416 1441 
Q 1456 1047 1700 850 
Q 1944 653 2381 653 
Q 2734 653 3104 758 
Q 3475 863 3866 1075 
L 3866 213 
Q 3469 63 3072 -14 
Q 2675 -91 2278 -91 
Q 1328 -91 801 392 
Q 275 875 275 1747 
Q 275 2603 792 3093 
Q 1309 3584 2216 3584 
Q 3041 3584 3536 3087 
Q 4031 2591 4031 1759 
z
M 2881 2131 
Q 2881 2450 2695 2645 
Q 2509 2841 2209 2841 
Q 1884 2841 1681 2658 
Q 1478 2475 1428 2131 
L 2881 2131 
z
" transform="scale(0.015625)"/>
      <path id="DejaVuSans-Bold-6c" d="M 538 4863 
L 1656 4863 
L 1656 0 
L 538 0 
L 538 4863 
z
" transform="scale(0.015625)"/>
      <path id="DejaVuSans-Bold-6f" d="M 2203 2784 
Q 1831 2784 1636 2517 
Q 1441 2250 1441 1747 
Q 1441 1244 1636 976 
Q 1831 709 2203 709 
Q 2569 709 2762 976 
Q 2956 1244 2956 1747 
Q 2956 2250 2762 2517 
Q 2569 2784 2203 2784 
z
M 2203 3584 
Q 3106 3584 3614 3096 
Q 4122 2609 4122 1747 
Q 4122 884 3614 396 
Q 3106 -91 2203 -91 
Q 1297 -91 786 396 
Q 275 884 275 1747 
Q 275 2609 786 3096 
Q 1297 3584 2203 3584 
z
" transform="scale(0.015625)"/>
      <path id="DejaVuSans-Bold-63" d="M 3366 3391 
L 3366 2478 
Q 3138 2634 2908 2709 
Q 2678 2784 2431 2784 
Q 1963 2784 1702 2511 
Q 1441 2238 1441 1747 
Q 1441 1256 1702 982 
Q 1963 709 2431 709 
Q 2694 709 2930 787 
Q 3166 866 3366 1019 
L 3366 103 
Q 3103 6 2833 -42 
Q 2563 -91 2291 -91 
Q 1344 -91 809 395 
Q 275 881 275 1747 
Q 275 2613 809 3098 
Q 1344 3584 2291 3584 
Q 2566 3584 2833 3536 
Q 3100 3488 3366 3391 
z
" transform="scale(0.015625)"/>
      <path id="DejaVuSans-Bold-69" d="M 538 3500 
L 1656 3500 
L 1656 0 
L 538 0 
L 538 3500 
z
M 538 4863 
L 1656 4863 
L 1656 3950 
L 538 3950 
L 538 4863 
z
" transform="scale(0.015625)"/>
      <path id="DejaVuSans-Bold-74" d="M 1759 4494 
L 1759 3500 
L 2913 3500 
L 2913 2700 
L 1759 2700 
L 1759 1216 
Q 1759 972 1856 886 
Q 1953 800 2241 800 
L 2816 800 
L 2816 0 
L 1856 0 
Q 1194 0 917 276 
Q 641 553 641 1216 
L 641 2700 
L 84 2700 
L 84 3500 
L 641 3500 
L 641 4494 
L 1759 4494 
z
" transform="scale(0.015625)"/>
      <path id="DejaVuSans-Bold-73" d="M 3272 3391 
L 3272 2541 
Q 2913 2691 2578 2766 
Q 2244 2841 1947 2841 
Q 1628 2841 1473 2761 
Q 1319 2681 1319 2516 
Q 1319 2381 1436 2309 
Q 1553 2238 1856 2203 
L 2053 2175 
Q 2913 2066 3209 1816 
Q 3506 1566 3506 1031 
Q 3506 472 3093 190 
Q 2681 -91 1863 -91 
Q 1516 -91 1145 -36 
Q 775 19 384 128 
L 384 978 
Q 719 816 1070 734 
Q 1422 653 1784 653 
Q 2113 653 2278 743 
Q 2444 834 2444 1013 
Q 2444 1163 2330 1236 
Q 2216 1309 1875 1350 
L 1678 1375 
Q 931 1469 631 1722 
Q 331 1975 331 2491 
Q 331 3047 712 3315 
Q 1094 3584 1881 3584 
Q 2191 3584 2531 3537 
Q 2872 3491 3272 3391 
z
" transform="scale(0.015625)"/>
      <path id="DejaVuSans-Bold-20" transform="scale(0.015625)"/>
      <path id="DejaVuSans-Bold-61" d="M 2106 1575 
Q 1756 1575 1579 1456 
Q 1403 1338 1403 1106 
Q 1403 894 1545 773 
Q 1688 653 1941 653 
Q 2256 653 2472 879 
Q 2688 1106 2688 1447 
L 2688 1575 
L 2106 1575 
z
M 3816 1997 
L 3816 0 
L 2688 0 
L 2688 519 
Q 2463 200 2181 54 
Q 1900 -91 1497 -91 
Q 953 -91 614 226 
Q 275 544 275 1050 
Q 275 1666 698 1953 
Q 1122 2241 2028 2241 
L 2688 2241 
L 2688 2328 
Q 2688 2594 2478 2717 
Q 2269 2841 1825 2841 
Q 1466 2841 1156 2769 
Q 847 2697 581 2553 
L 581 3406 
Q 941 3494 1303 3539 
Q 1666 3584 2028 3584 
Q 2975 3584 3395 3211 
Q 3816 2838 3816 1997 
z
" transform="scale(0.015625)"/>
      <path id="DejaVuSans-Bold-68" d="M 4056 2131 
L 4056 0 
L 2931 0 
L 2931 347 
L 2931 1625 
Q 2931 2084 2911 2256 
Q 2891 2428 2841 2509 
Q 2775 2619 2662 2680 
Q 2550 2741 2406 2741 
Q 2056 2741 1856 2470 
Q 1656 2200 1656 1722 
L 1656 0 
L 538 0 
L 538 4863 
L 1656 4863 
L 1656 2988 
Q 1909 3294 2193 3439 
Q 2478 3584 2822 3584 
Q 3428 3584 3742 3212 
Q 4056 2841 4056 2131 
z
" transform="scale(0.015625)"/>
      <path id="DejaVuSans-Bold-66" d="M 2841 4863 
L 2841 4128 
L 2222 4128 
Q 1984 4128 1890 4042 
Q 1797 3956 1797 3744 
L 1797 3500 
L 2753 3500 
L 2753 2700 
L 1797 2700 
L 1797 0 
L 678 0 
L 678 2700 
L 122 2700 
L 122 3500 
L 678 3500 
L 678 3744 
Q 678 4316 997 4589 
Q 1316 4863 1984 4863 
L 2841 4863 
z
" transform="scale(0.015625)"/>
      <path id="DejaVuSans-Bold-6e" d="M 4056 2131 
L 4056 0 
L 2931 0 
L 2931 347 
L 2931 1631 
Q 2931 2084 2911 2256 
Q 2891 2428 2841 2509 
Q 2775 2619 2662 2680 
Q 2550 2741 2406 2741 
Q 2056 2741 1856 2470 
Q 1656 2200 1656 1722 
L 1656 0 
L 538 0 
L 538 3500 
L 1656 3500 
L 1656 2988 
Q 1909 3294 2193 3439 
Q 2478 3584 2822 3584 
Q 3428 3584 3742 3212 
Q 4056 2841 4056 2131 
z
" transform="scale(0.015625)"/>
      <path id="DejaVuSans-Bold-6d" d="M 3781 2919 
Q 3994 3244 4286 3414 
Q 4578 3584 4928 3584 
Q 5531 3584 5847 3212 
Q 6163 2841 6163 2131 
L 6163 0 
L 5038 0 
L 5038 1825 
Q 5041 1866 5042 1909 
Q 5044 1953 5044 2034 
Q 5044 2406 4934 2573 
Q 4825 2741 4581 2741 
Q 4263 2741 4089 2478 
Q 3916 2216 3909 1719 
L 3909 0 
L 2784 0 
L 2784 1825 
Q 2784 2406 2684 2573 
Q 2584 2741 2328 2741 
Q 2006 2741 1831 2477 
Q 1656 2213 1656 1722 
L 1656 0 
L 531 0 
L 531 3500 
L 1656 3500 
L 1656 2988 
Q 1863 3284 2130 3434 
Q 2397 3584 2719 3584 
Q 3081 3584 3359 3409 
Q 3638 3234 3781 2919 
z
" transform="scale(0.015625)"/>
     </defs>
     <use xlink:href="#DejaVuSans-Bold-56"/>
     <use xlink:href="#DejaVuSans-Bold-65" transform="translate(71.892578 0)"/>
     <use xlink:href="#DejaVuSans-Bold-6c" transform="translate(139.714844 0)"/>
     <use xlink:href="#DejaVuSans-Bold-6f" transform="translate(173.992188 0)"/>
     <use xlink:href="#DejaVuSans-Bold-63" transform="translate(242.693359 0)"/>
     <use xlink:href="#DejaVuSans-Bold-69" transform="translate(301.970703 0)"/>
     <use xlink:href="#DejaVuSans-Bold-74" transform="translate(336.248047 0)"/>
     <use xlink:href="#DejaVuSans-Bold-69" transform="translate(384.050781 0)"/>
     <use xlink:href="#DejaVuSans-Bold-65" transform="translate(418.328125 0)"/>
     <use xlink:href="#DejaVuSans-Bold-73" transform="translate(486.150391 0)"/>
     <use xlink:href="#DejaVuSans-Bold-20" transform="translate(545.671875 0)"/>
     <use xlink:href="#DejaVuSans-Bold-61" transform="translate(580.486328 0)"/>
     <use xlink:href="#DejaVuSans-Bold-74" transform="translate(647.966797 0)"/>
     <use xlink:href="#DejaVuSans-Bold-20" transform="translate(695.769531 0)"/>
     <use xlink:href="#DejaVuSans-Bold-74" transform="translate(730.583984 0)"/>
     <use xlink:href="#DejaVuSans-Bold-68" transform="translate(778.386719 0)"/>
     <use xlink:href="#DejaVuSans-Bold-65" transform="translate(849.578125 0)"/>
     <use xlink:href="#DejaVuSans-Bold-20" transform="translate(917.400391 0)"/>
     <use xlink:href="#DejaVuSans-Bold-66" transform="translate(952.214844 0)"/>
     <use xlink:href="#DejaVuSans-Bold-69" transform="translate(995.720703 0)"/>
     <use xlink:href="#DejaVuSans-Bold-6e" transform="translate(1029.998047 0)"/>
     <use xlink:href="#DejaVuSans-Bold-61" transform="translate(1101.189453 0)"/>
     <use xlink:href="#DejaVuSans-Bold-6c" transform="translate(1168.669922 0)"/>
     <use xlink:href="#DejaVuSans-Bold-20" transform="translate(1202.947266 0)"/>
     <use xlink:href="#DejaVuSans-Bold-74" transform="translate(1237.761719 0)"/>
     <use xlink:href="#DejaVuSans-Bold-69" transform="translate(1285.564453 0)"/>
     <use xlink:href="#DejaVuSans-Bold-6d" transform="translate(1319.841797 0)"/>
     <use xlink:href="#DejaVuSans-Bold-65" transform="translate(1424.041016 0)"/>
    </g>
   </g>
   <g id="legend_1">
    <g id="patch_7">
     <path d="M 328.266875 78.82825 
L 407.72 78.82825 
Q 409.72 78.82825 409.72 76.82825 
L 409.72 48.472 
Q 409.72 46.472 407.72 46.472 
L 328.266875 46.472 
Q 326.266875 46.472 326.266875 48.472 
L 326.266875 76.82825 
Q 326.266875 78.82825 328.266875 78.82825 
z
" style="fill: #ffffff; opacity: 0.8; stroke: #cccccc; stroke-linejoin: miter"/>
    </g>
    <g id="PathCollection_2">
     <g>
      <use xlink:href="#mfc9efe43e4" x="340.266875" y="55.445437" style="fill: #0000ff; stroke: #0000ff"/>
     </g>
    </g>
    <g id="text_16">
     <!-- Positions -->
     <g transform="translate(358.266875 58.070437) scale(0.1 -0.1)">
      <defs>
       <path id="DejaVuSans-50" d="M 1259 4147 
L 1259 2394 
L 2053 2394 
Q 2494 2394 2734 2622 
Q 2975 2850 2975 3272 
Q 2975 3691 2734 3919 
Q 2494 4147 2053 4147 
L 1259 4147 
z
M 628 4666 
L 2053 4666 
Q 2838 4666 3239 4311 
Q 3641 3956 3641 3272 
Q 3641 2581 3239 2228 
Q 2838 1875 2053 1875 
L 1259 1875 
L 1259 0 
L 628 0 
L 628 4666 
z
" transform="scale(0.015625)"/>
       <path id="DejaVuSans-6f" d="M 1959 3097 
Q 1497 3097 1228 2736 
Q 959 2375 959 1747 
Q 959 1119 1226 758 
Q 1494 397 1959 397 
Q 2419 397 2687 759 
Q 2956 1122 2956 1747 
Q 2956 2369 2687 2733 
Q 2419 3097 1959 3097 
z
M 1959 3584 
Q 2709 3584 3137 3096 
Q 3566 2609 3566 1747 
Q 3566 888 3137 398 
Q 2709 -91 1959 -91 
Q 1206 -91 779 398 
Q 353 888 353 1747 
Q 353 2609 779 3096 
Q 1206 3584 1959 3584 
z
" transform="scale(0.015625)"/>
       <path id="DejaVuSans-73" d="M 2834 3397 
L 2834 2853 
Q 2591 2978 2328 3040 
Q 2066 3103 1784 3103 
Q 1356 3103 1142 2972 
Q 928 2841 928 2578 
Q 928 2378 1081 2264 
Q 1234 2150 1697 2047 
L 1894 2003 
Q 2506 1872 2764 1633 
Q 3022 1394 3022 966 
Q 3022 478 2636 193 
Q 2250 -91 1575 -91 
Q 1294 -91 989 -36 
Q 684 19 347 128 
L 347 722 
Q 666 556 975 473 
Q 1284 391 1588 391 
Q 1994 391 2212 530 
Q 2431 669 2431 922 
Q 2431 1156 2273 1281 
Q 2116 1406 1581 1522 
L 1381 1569 
Q 847 1681 609 1914 
Q 372 2147 372 2553 
Q 372 3047 722 3315 
Q 1072 3584 1716 3584 
Q 2034 3584 2315 3537 
Q 2597 3491 2834 3397 
z
" transform="scale(0.015625)"/>
       <path id="DejaVuSans-69" d="M 603 3500 
L 1178 3500 
L 1178 0 
L 603 0 
L 603 3500 
z
M 603 4863 
L 1178 4863 
L 1178 4134 
L 603 4134 
L 603 4863 
z
" transform="scale(0.015625)"/>
       <path id="DejaVuSans-74" d="M 1172 4494 
L 1172 3500 
L 2356 3500 
L 2356 3053 
L 1172 3053 
L 1172 1153 
Q 1172 725 1289 603 
Q 1406 481 1766 481 
L 2356 481 
L 2356 0 
L 1766 0 
Q 1100 0 847 248 
Q 594 497 594 1153 
L 594 3053 
L 172 3053 
L 172 3500 
L 594 3500 
L 594 4494 
L 1172 4494 
z
" transform="scale(0.015625)"/>
       <path id="DejaVuSans-6e" d="M 3513 2113 
L 3513 0 
L 2938 0 
L 2938 2094 
Q 2938 2591 2744 2837 
Q 2550 3084 2163 3084 
Q 1697 3084 1428 2787 
Q 1159 2491 1159 1978 
L 1159 0 
L 581 0 
L 581 3500 
L 1159 3500 
L 1159 2956 
Q 1366 3272 1645 3428 
Q 1925 3584 2291 3584 
Q 2894 3584 3203 3211 
Q 3513 2838 3513 2113 
z
" transform="scale(0.015625)"/>
      </defs>
      <use xlink:href="#DejaVuSans-50"/>
      <use xlink:href="#DejaVuSans-6f" transform="translate(56.677734 0)"/>
      <use xlink:href="#DejaVuSans-73" transform="translate(117.859375 0)"/>
      <use xlink:href="#DejaVuSans-69" transform="translate(169.958984 0)"/>
      <use xlink:href="#DejaVuSans-74" transform="translate(197.742188 0)"/>
      <use xlink:href="#DejaVuSans-69" transform="translate(236.951172 0)"/>
      <use xlink:href="#DejaVuSans-6f" transform="translate(264.734375 0)"/>
      <use xlink:href="#DejaVuSans-6e" transform="translate(325.916016 0)"/>
      <use xlink:href="#DejaVuSans-73" transform="translate(389.294922 0)"/>
     </g>
    </g>
    <g id="patch_8">
     <path d="M 330.266875 72.748562 
L 350.266875 72.748562 
L 350.266875 65.748562 
L 330.266875 65.748562 
z
" style="fill: #ff0000"/>
    </g>
    <g id="text_17">
     <!-- Velocities -->
     <g transform="translate(358.266875 72.748562) scale(0.1 -0.1)">
      <defs>
       <path id="DejaVuSans-56" d="M 1831 0 
L 50 4666 
L 709 4666 
L 2188 738 
L 3669 4666 
L 4325 4666 
L 2547 0 
L 1831 0 
z
" transform="scale(0.015625)"/>
       <path id="DejaVuSans-65" d="M 3597 1894 
L 3597 1613 
L 953 1613 
Q 991 1019 1311 708 
Q 1631 397 2203 397 
Q 2534 397 2845 478 
Q 3156 559 3463 722 
L 3463 178 
Q 3153 47 2828 -22 
Q 2503 -91 2169 -91 
Q 1331 -91 842 396 
Q 353 884 353 1716 
Q 353 2575 817 3079 
Q 1281 3584 2069 3584 
Q 2775 3584 3186 3129 
Q 3597 2675 3597 1894 
z
M 3022 2063 
Q 3016 2534 2758 2815 
Q 2500 3097 2075 3097 
Q 1594 3097 1305 2825 
Q 1016 2553 972 2059 
L 3022 2063 
z
" transform="scale(0.015625)"/>
       <path id="DejaVuSans-6c" d="M 603 4863 
L 1178 4863 
L 1178 0 
L 603 0 
L 603 4863 
z
" transform="scale(0.015625)"/>
       <path id="DejaVuSans-63" d="M 3122 3366 
L 3122 2828 
Q 2878 2963 2633 3030 
Q 2388 3097 2138 3097 
Q 1578 3097 1268 2742 
Q 959 2388 959 1747 
Q 959 1106 1268 751 
Q 1578 397 2138 397 
Q 2388 397 2633 464 
Q 2878 531 3122 666 
L 3122 134 
Q 2881 22 2623 -34 
Q 2366 -91 2075 -91 
Q 1284 -91 818 406 
Q 353 903 353 1747 
Q 353 2603 823 3093 
Q 1294 3584 2113 3584 
Q 2378 3584 2631 3529 
Q 2884 3475 3122 3366 
z
" transform="scale(0.015625)"/>
      </defs>
      <use xlink:href="#DejaVuSans-56"/>
      <use xlink:href="#DejaVuSans-65" transform="translate(60.658203 0)"/>
      <use xlink:href="#DejaVuSans-6c" transform="translate(122.181641 0)"/>
      <use xlink:href="#DejaVuSans-6f" transform="translate(149.964844 0)"/>
      <use xlink:href="#DejaVuSans-63" transform="translate(211.146484 0)"/>
      <use xlink:href="#DejaVuSans-69" transform="translate(266.126953 0)"/>
      <use xlink:href="#DejaVuSans-74" transform="translate(293.910156 0)"/>
      <use xlink:href="#DejaVuSans-69" transform="translate(333.119141 0)"/>
      <use xlink:href="#DejaVuSans-65" transform="translate(360.902344 0)"/>
      <use xlink:href="#DejaVuSans-73" transform="translate(422.425781 0)"/>
     </g>
    </g>
   </g>
  </g>
 </g>
 <defs>
  <clipPath id="p7dac7a26a6">
   <rect x="57.6" y="41.472" width="357.12" height="266.112"/>
  </clipPath>
 </defs>
</svg>
