<?xml version="1.0" encoding="utf-8" standalone="no"?>
<!DOCTYPE svg PUBLIC "-//W3C//DTD SVG 1.1//EN"
  "http://www.w3.org/Graphics/SVG/1.1/DTD/svg11.dtd">
<svg xmlns:xlink="http://www.w3.org/1999/xlink" width="460.8pt" height="345.6pt" viewBox="0 0 460.8 345.6" xmlns="http://www.w3.org/2000/svg" version="1.1">
 <metadata>
  <rdf:RDF xmlns:dc="http://purl.org/dc/elements/1.1/" xmlns:cc="http://creativecommons.org/ns#" xmlns:rdf="http://www.w3.org/1999/02/22-rdf-syntax-ns#">
   <cc:Work>
    <dc:type rdf:resource="http://purl.org/dc/dcmitype/StillImage"/>
    <dc:date>2025-02-27T11:47:32.221202</dc:date>
    <dc:format>image/svg+xml</dc:format>
    <dc:creator>
     <cc:Agent>
      <dc:title>Matplotlib v3.6.3, https://matplotlib.org/</dc:title>
     </cc:Agent>
    </dc:creator>
   </cc:Work>
  </rdf:RDF>
 </metadata>
 <defs>
  <style type="text/css">*{stroke-linejoin: round; stroke-linecap: butt}</style>
 </defs>
 <g id="figure_1">
  <g id="patch_1">
   <path d="M 0 345.6 
L 460.8 345.6 
L 460.8 0 
L 0 0 
z
" style="fill: #ffffff"/>
  </g>
  <g id="axes_1">
   <g id="patch_2">
    <path d="M 57.6 307.584 
L 414.72 307.584 
L 414.72 41.472 
L 57.6 41.472 
z
" style="fill: #ffffff"/>
   </g>
   <g id="Quiver_1">
    <path d="M 207.185969 223.959294 
L 215.141075 228.366067 
L 215.233394 226.181112 
L 222.366819 233.486854 
L 212.389881 231.31422 
L 214.193237 230.077103 
L 206.238132 225.67033 
L 207.185969 223.959294 
" clip-path="url(#pa9deed4877)"/>
    <path d="M 336.201557 235.489925 
L 341.244751 227.763425 
L 339.0722 227.513282 
L 346.87485 220.927065 
L 343.986151 230.720687 
L 342.882735 228.83256 
L 337.839541 236.55906 
L 336.201557 235.489925 
" clip-path="url(#pa9deed4877)"/>
    <path d="M 174.567338 238.667511 
L 182.384543 243.809481 
L 182.642379 241.637829 
L 189.200922 249.463756 
L 179.417591 246.540391 
L 181.309614 245.443668 
L 173.492409 240.301698 
L 174.567338 238.667511 
" clip-path="url(#pa9deed4877)"/>
    <path d="M 148.998777 179.872005 
L 148.506145 189.652617 
L 150.508893 188.774239 
L 147.086583 198.394395 
L 144.648242 188.479048 
L 146.552594 189.55422 
L 147.045227 179.773608 
L 148.998777 179.872005 
" clip-path="url(#pa9deed4877)"/>
    <path d="M 200.499908 158.958192 
L 195.85739 167.053183 
L 198.040735 167.177905 
L 190.629975 174.202166 
L 192.950374 164.258557 
L 194.160603 166.080067 
L 198.803121 157.985076 
L 200.499908 158.958192 
" clip-path="url(#pa9deed4877)"/>
    <path d="M 331.96191 161.318118 
L 331.003292 153.845305 
L 329.187604 155.064251 
L 330.853391 144.990286 
L 335.00799 154.317607 
L 332.94342 153.596424 
L 333.902039 161.069236 
L 331.96191 161.318118 
" clip-path="url(#pa9deed4877)"/>
    <path d="M 251.797936 141.640337 
L 242.021715 139.138199 
L 242.484193 141.275642 
L 233.736955 136.008249 
L 243.939177 135.590804 
L 242.50671 137.243253 
L 252.282931 139.745391 
L 251.797936 141.640337 
" clip-path="url(#pa9deed4877)"/>
    <path d="M 283.373417 172.524825 
L 281.592505 165.733944 
L 279.948555 167.176157 
L 280.305674 156.971644 
L 285.624691 165.687587 
L 283.484551 165.237754 
L 285.265463 172.028635 
L 283.373417 172.524825 
" clip-path="url(#pa9deed4877)"/>
    <path d="M 193.683515 197.390838 
L 198.540157 206.361088 
L 199.794611 204.569748 
L 201.870912 214.567177 
L 194.634314 207.363618 
L 196.820058 207.292378 
L 191.963416 198.322128 
L 193.683515 197.390838 
" clip-path="url(#pa9deed4877)"/>
    <path d="M 225.256407 257.725506 
L 232.294878 259.185969 
L 231.734667 257.072036 
L 240.714715 261.931908 
L 230.542452 262.817729 
L 231.897472 261.1012 
L 224.859001 259.640737 
L 225.256407 257.725506 
" clip-path="url(#pa9deed4877)"/>
    <path d="M 229.565687 213.187056 
L 236.120419 214.432106 
L 235.5246 212.327931 
L 244.585415 217.035504 
L 234.429557 218.092933 
L 235.755405 216.353773 
L 229.200672 215.108723 
L 229.565687 213.187056 
" clip-path="url(#pa9deed4877)"/>
    <path d="M 246.774924 237.647145 
L 255.072307 238.088286 
L 254.199521 236.083094 
L 263.810089 239.532236 
L 253.887977 241.942898 
L 254.968459 240.041554 
L 246.671077 239.600414 
L 246.774924 237.647145 
" clip-path="url(#pa9deed4877)"/>
    <path d="M 232.158944 122.699383 
L 221.490881 123.899696 
L 222.681464 125.734107 
L 212.634602 123.911972 
L 222.025359 119.902821 
L 221.27218 121.955934 
L 231.940242 120.755621 
L 232.158944 122.699383 
" clip-path="url(#pa9deed4877)"/>
    <path d="M 270.116377 232.660756 
L 279.232017 226.430764 
L 277.320877 225.367706 
L 287.050925 222.271615 
L 280.631944 230.212414 
L 280.335706 228.045667 
L 271.220066 234.275659 
L 270.116377 232.660756 
" clip-path="url(#pa9deed4877)"/>
    <path d="M 290.555547 112.061236 
L 284.690732 107.54945 
L 284.273229 109.696132 
L 278.310521 101.40724 
L 287.851254 105.0451 
L 285.883407 105.999106 
L 291.748222 110.510891 
L 290.555547 112.061236 
" clip-path="url(#pa9deed4877)"/>
    <path d="M 281.240131 128.865927 
L 276.544513 125.627978 
L 276.239253 127.793472 
L 269.853404 119.826004 
L 279.570471 122.962597 
L 277.654919 124.017686 
L 282.350537 127.255635 
L 281.240131 128.865927 
" clip-path="url(#pa9deed4877)"/>
    <path d="M 251.243008 207.535129 
L 258.989061 205.937405 
L 257.636073 204.219274 
L 267.80728 205.117134 
L 258.821487 209.966374 
L 259.384199 207.853105 
L 251.638146 209.450829 
L 251.243008 207.535129 
" clip-path="url(#pa9deed4877)"/>
    <path d="M 348.301846 198.537203 
L 350.326201 187.188153 
L 348.228828 187.80749 
L 352.834675 178.694544 
L 354.005727 188.837928 
L 352.251834 187.531632 
L 350.227479 198.880682 
L 348.301846 198.537203 
" clip-path="url(#pa9deed4877)"/>
    <path d="M 218.189789 148.538877 
L 210.546127 154.216608 
L 212.497612 155.203652 
L 202.896909 158.680159 
L 208.998501 150.492963 
L 209.379757 152.646378 
L 217.023419 146.968647 
L 218.189789 148.538877 
" clip-path="url(#pa9deed4877)"/>
    <path d="M 317.052896 208.631843 
L 320.998707 199.483712 
L 318.815284 199.607059 
L 325.382859 191.78871 
L 324.203516 201.931134 
L 322.794785 200.258404 
L 318.848973 209.406535 
L 317.052896 208.631843 
" clip-path="url(#pa9deed4877)"/>
    <path d="M 257.504801 108.212873 
L 248.679263 106.779057 
L 249.330952 108.866604 
L 240.147888 104.402195 
L 250.271955 103.074465 
L 248.992931 104.848344 
L 257.818469 106.28216 
L 257.504801 108.212873 
" clip-path="url(#pa9deed4877)"/>
    <path d="M 204.487674 174.699726 
L 201.705449 180.645561 
L 203.891615 180.588742 
L 197.089071 188.20353 
L 198.576632 178.10171 
L 199.933788 179.816551 
L 202.716014 173.870716 
L 204.487674 174.699726 
" clip-path="url(#pa9deed4877)"/>
    <path d="M 221.478304 240.194751 
L 227.560485 239.555855 
L 226.383479 237.712703 
L 236.416614 239.608966 
L 226.996512 243.548674 
L 227.76483 241.501178 
L 221.682649 242.140075 
L 221.478304 240.194751 
" clip-path="url(#pa9deed4877)"/>
    <path d="M 298.139754 82.784666 
L 290.454496 78.284968 
L 290.310178 80.467106 
L 283.352728 72.993586 
L 293.275105 75.403157 
L 291.442805 76.596986 
L 299.128064 81.096683 
L 298.139754 82.784666 
" clip-path="url(#pa9deed4877)"/>
    <path d="M 143.561643 128.780765 
L 137.909677 137.370661 
L 140.081293 137.628803 
L 132.25444 144.186241 
L 135.179186 134.403324 
L 136.275642 136.295501 
L 141.927607 127.705605 
L 143.561643 128.780765 
" clip-path="url(#pa9deed4877)"/>
    <path d="M 241.009199 66.29324 
L 231.772927 65.925751 
L 232.672403 67.919113 
L 223.016647 64.598571 
L 232.905695 62.055672 
L 231.850691 63.97127 
L 241.086963 64.33876 
L 241.009199 66.29324 
" clip-path="url(#pa9deed4877)"/>
    <path d="M 180.55145 152.458365 
L 175.376826 160.955078 
L 177.556134 161.137198 
L 169.963141 167.964062 
L 172.544339 158.084941 
L 173.706228 159.937659 
L 178.880852 151.440946 
L 180.55145 152.458365 
" clip-path="url(#pa9deed4877)"/>
    <path d="M 259.271266 157.912032 
L 253.775393 154.044807 
L 253.449602 156.207308 
L 247.139631 148.179614 
L 256.826503 151.408256 
L 254.901027 152.445123 
L 260.3969 156.312348 
L 259.271266 157.912032 
" clip-path="url(#pa9deed4877)"/>
    <path d="M 282.510007 191.762886 
L 285.842039 183.305961 
L 283.663659 183.498866 
L 289.978598 175.475079 
L 289.123257 185.64995 
L 287.661905 184.022989 
L 284.329873 192.479914 
L 282.510007 191.762886 
" clip-path="url(#pa9deed4877)"/>
    <path d="M 176.956494 201.747323 
L 180.037969 209.406191 
L 181.487571 207.768752 
L 182.416137 217.937202 
L 176.0436 209.959084 
L 178.223312 210.136302 
L 175.141837 202.477433 
L 176.956494 201.747323 
" clip-path="url(#pa9deed4877)"/>
    <path d="M 266.361757 287.379321 
L 274.966737 285.16138 
L 273.531466 283.511366 
L 283.734382 283.91149 
L 274.996099 289.193726 
L 275.454948 287.0555 
L 266.849968 289.273441 
L 266.361757 287.379321 
" clip-path="url(#pa9deed4877)"/>
    <path d="M 232.259216 92.436922 
L 221.47148 95.248473 
L 222.911189 96.894616 
L 212.707231 96.521969 
L 221.431259 91.216221 
L 220.97817 93.355674 
L 231.765906 90.544124 
L 232.259216 92.436922 
" clip-path="url(#pa9deed4877)"/>
    <path d="M 167.574976 210.669414 
L 171.404464 218.560406 
L 172.737212 216.826527 
L 174.367608 226.90628 
L 167.457964 219.38854 
L 169.644715 219.41441 
L 165.815227 211.523418 
L 167.574976 210.669414 
" clip-path="url(#pa9deed4877)"/>
    <path d="M 174.028269 138.108732 
L 167.683467 145.92735 
L 169.818581 146.400468 
L 161.377614 152.145875 
L 165.26205 142.702848 
L 166.164624 144.69481 
L 172.509425 136.876192 
L 174.028269 138.108732 
" clip-path="url(#pa9deed4877)"/>
    <path d="M 148.146207 256.514471 
L 153.031779 263.080784 
L 154.017273 261.128516 
L 157.501406 270.726455 
L 149.309365 264.631368 
L 151.462477 264.248402 
L 146.576904 257.682088 
L 148.146207 256.514471 
" clip-path="url(#pa9deed4877)"/>
    <path d="M 209.698953 108.52382 
L 202.764689 111.521612 
L 204.438597 112.928945 
L 194.297162 114.116763 
L 202.110019 107.542657 
L 201.988497 109.726182 
L 208.922761 106.72839 
L 209.698953 108.52382 
" clip-path="url(#pa9deed4877)"/>
    <path d="M 321.030154 101.17948 
L 315.123579 94.033254 
L 314.238963 96.033255 
L 310.269729 86.625556 
L 318.762043 92.294791 
L 316.631272 92.787099 
L 322.537847 99.933325 
L 321.030154 101.17948 
" clip-path="url(#pa9deed4877)"/>
    <path d="M 181.229242 88.003366 
L 173.114308 92.941648 
L 174.966626 94.104176 
L 165.086616 96.681969 
L 171.916095 89.091329 
L 172.097464 91.270699 
L 180.212399 86.332417 
L 181.229242 88.003366 
" clip-path="url(#pa9deed4877)"/>
    <path d="M 219.513245 278.749928 
L 225.451136 280.173295 
L 224.956025 278.043173 
L 233.78279 283.176188 
L 223.588144 283.749597 
L 224.995175 282.075436 
L 219.057285 280.65207 
L 219.513245 278.749928 
" clip-path="url(#pa9deed4877)"/>
    <path d="M 163.970381 252.350573 
L 171.714013 258.94536 
L 172.237664 256.822074 
L 177.781151 265.397001 
L 168.432959 261.289578 
L 170.445778 260.434528 
L 162.702146 253.839741 
L 163.970381 252.350573 
" clip-path="url(#pa9deed4877)"/>
    <path d="M 138.510862 144.235622 
L 135.914828 153.757019 
L 138.059234 153.327983 
L 132.655857 161.991881 
L 132.397815 151.784382 
L 134.027688 153.242486 
L 136.623722 143.721088 
L 138.510862 144.235622 
" clip-path="url(#pa9deed4877)"/>
    <path d="M 166.163688 175.738525 
L 166.90484 187.042615 
L 168.79269 185.938725 
L 166.504796 195.889863 
L 162.937182 186.322641 
L 164.953004 187.170587 
L 164.211852 175.866497 
L 166.163688 175.738525 
" clip-path="url(#pa9deed4877)"/>
    <path d="M 184.764767 177.275636 
L 184.112328 188.963479 
L 186.119824 188.096005 
L 182.645246 197.697407 
L 180.260865 187.768946 
L 182.159341 188.854459 
L 182.811781 177.166616 
L 184.764767 177.275636 
" clip-path="url(#pa9deed4877)"/>
    <path d="M 296.179677 200.181344 
L 296.990646 190.062105 
L 294.962742 190.880735 
L 298.668693 181.366244 
L 300.812069 191.349508 
L 298.940422 190.218363 
L 298.129453 200.337602 
L 296.179677 200.181344 
" clip-path="url(#pa9deed4877)"/>
    <path d="M 208.21591 236.377685 
L 212.091664 238.511079 
L 212.178108 236.325884 
L 219.331152 243.612417 
L 209.348409 241.466621 
L 211.148431 240.224658 
L 207.272677 238.091264 
L 208.21591 236.377685 
" clip-path="url(#pa9deed4877)"/>
    <path d="M 223.817405 207.567651 
L 230.795201 209.695196 
L 230.430175 207.538971 
L 238.929424 213.197803 
L 228.718767 213.151943 
L 230.224732 211.566187 
L 223.246936 209.438641 
L 223.817405 207.567651 
" clip-path="url(#pa9deed4877)"/>
    <path d="M 283.944031 72.949705 
L 274.77133 69.81789 
L 275.064863 71.985005 
L 266.757363 66.048251 
L 276.960921 66.431688 
L 275.403349 67.966784 
L 284.57605 71.0986 
L 283.944031 72.949705 
" clip-path="url(#pa9deed4877)"/>
    <path d="M 231.304058 197.142917 
L 239.502223 199.900036 
L 239.198742 197.734291 
L 247.533412 203.63284 
L 237.328202 203.296255 
L 238.878709 201.754024 
L 230.680544 198.996905 
L 231.304058 197.142917 
" clip-path="url(#pa9deed4877)"/>
    <path d="M 284.397864 209.014406 
L 289.416601 200.408772 
L 287.234219 200.268205 
L 294.695771 193.297922 
L 292.303254 203.224426 
L 291.106279 201.394179 
L 286.087543 209.999813 
L 284.397864 209.014406 
" clip-path="url(#pa9deed4877)"/>
    <path d="M 312.394358 273.271629 
L 321.418559 266.623168 
L 319.470958 265.628481 
L 329.085216 262.189637 
L 322.951575 270.352851 
L 322.578765 268.197958 
L 313.554564 274.846419 
L 312.394358 273.271629 
" clip-path="url(#pa9deed4877)"/>
    <path d="M 195.936749 73.106253 
L 187.58908 75.763232 
L 189.114283 77.330493 
L 178.904946 77.500945 
L 187.334511 71.738823 
L 186.995823 73.899341 
L 195.343492 71.242363 
L 195.936749 73.106253 
" clip-path="url(#pa9deed4877)"/>
    <path d="M 188.927595 214.316392 
L 193.993475 221.447506 
L 195.021691 219.517396 
L 198.293773 229.189681 
L 190.237841 222.9158 
L 192.398858 222.580307 
L 187.332978 215.449193 
L 188.927595 214.316392 
" clip-path="url(#pa9deed4877)"/>
    <path d="M 210.78215 124.976628 
L 201.55341 130.258573 
L 203.373854 131.470405 
L 193.428207 133.782055 
L 200.458985 126.377477 
L 200.581787 128.560931 
L 209.810527 123.278986 
L 210.78215 124.976628 
" clip-path="url(#pa9deed4877)"/>
    <path d="M 233.553711 78.955598 
L 223.181668 78.655185 
L 224.102641 80.638707 
L 214.411552 77.422747 
L 224.272531 74.773087 
L 223.238298 76.699978 
L 233.610341 77.000391 
L 233.553711 78.955598 
" clip-path="url(#pa9deed4877)"/>
    <path d="M 236.723688 274.933102 
L 247.369438 277.938348 
L 246.959619 275.790186 
L 255.574792 281.270916 
L 245.365392 281.437558 
L 246.838029 279.820805 
L 236.192279 276.81556 
L 236.723688 274.933102 
" clip-path="url(#pa9deed4877)"/>
    <path d="M 274.311787 202.705872 
L 281.273236 194.525724 
L 279.149762 194.00284 
L 287.722687 188.456258 
L 283.618638 197.805932 
L 282.762861 195.793422 
L 275.801412 203.97357 
L 274.311787 202.705872 
" clip-path="url(#pa9deed4877)"/>
    <path d="M 185.783259 275.017582 
L 195.157253 279.153845 
L 195.052114 276.969469 
L 202.815435 283.601999 
L 192.683197 282.338137 
L 194.367614 280.943401 
L 184.993619 276.807138 
L 185.783259 275.017582 
" clip-path="url(#pa9deed4877)"/>
    <path d="M 326.082549 113.436334 
L 318.767028 106.330554 
L 318.105712 108.415072 
L 313.134565 99.496142 
L 322.194291 104.20581 
L 320.129888 104.927467 
L 327.445409 112.033247 
L 326.082549 113.436334 
" clip-path="url(#pa9deed4877)"/>
    <path d="M 132.422479 221.251591 
L 135.467882 229.86085 
L 136.985782 228.286515 
L 137.481241 238.485246 
L 131.45362 230.243439 
L 133.623828 230.513158 
L 130.578425 221.903899 
L 132.422479 221.251591 
" clip-path="url(#pa9deed4877)"/>
    <path d="M 293.958787 160.788151 
L 292.037564 151.415945 
L 290.317784 152.766836 
L 291.22805 142.596732 
L 296.066325 151.588434 
L 293.953744 151.023144 
L 295.874968 160.395351 
L 293.958787 160.788151 
" clip-path="url(#pa9deed4877)"/>
    <path d="M 300.681602 96.836317 
L 293.551929 92.030968 
L 293.269711 94.199586 
L 286.799507 86.300467 
L 296.549376 89.333564 
L 294.64515 90.40896 
L 301.774824 95.214309 
L 300.681602 96.836317 
" clip-path="url(#pa9deed4877)"/>
    <path d="M 260.2094 66.229919 
L 251.836819 64.697015 
L 252.446576 66.797193 
L 243.35475 62.149796 
L 253.503374 61.025058 
L 252.189085 62.77297 
L 260.561666 64.305874 
L 260.2094 66.229919 
" clip-path="url(#pa9deed4877)"/>
    <path d="M 185.155551 125.979142 
L 178.568709 132.065337 
L 180.614473 132.838254 
L 171.44011 137.320518 
L 176.63214 128.528337 
L 177.241265 130.628698 
L 183.828106 124.542503 
L 185.155551 125.979142 
" clip-path="url(#pa9deed4877)"/>
    <path d="M 194.633272 257.959264 
L 202.095641 261.559768 
L 202.06479 259.373081 
L 209.598248 266.265586 
L 199.514808 264.65815 
L 201.245647 263.321457 
L 193.783278 259.720954 
L 194.633272 257.959264 
" clip-path="url(#pa9deed4877)"/>
    <path d="M 317.809801 185.620007 
L 319.102422 178.696305 
L 317.000129 179.298729 
L 321.679225 170.223175 
L 322.768541 180.375663 
L 321.025226 179.055283 
L 319.732605 185.978985 
L 317.809801 185.620007 
" clip-path="url(#pa9deed4877)"/>
    <path d="M 213.026629 89.747567 
L 205.018011 91.984896 
L 206.486252 93.605642 
L 196.277343 93.411273 
L 204.90737 87.953961 
L 204.491717 90.101002 
L 212.500334 87.863674 
L 213.026629 89.747567 
" clip-path="url(#pa9deed4877)"/>
    <path d="M 340.138448 123.659608 
L 336.142935 114.567051 
L 334.745629 116.249338 
L 333.497231 106.115182 
L 340.117906 113.888616 
L 337.933694 113.780144 
L 341.929207 122.8727 
L 340.138448 123.659608 
" clip-path="url(#pa9deed4877)"/>
    <path d="M 298.561727 237.109628 
L 305.681521 230.946845 
L 303.661904 230.107979 
L 312.976825 225.925652 
L 307.502346 234.544799 
L 306.961668 232.425785 
L 299.841875 238.588568 
L 298.561727 237.109628 
" clip-path="url(#pa9deed4877)"/>
    <path d="M 309.661463 134.636721 
L 303.373156 125.835267 
L 302.350156 127.768147 
L 299.051966 118.104734 
L 307.124811 124.356836 
L 304.964707 124.698164 
L 311.253015 133.499618 
L 309.661463 134.636721 
" clip-path="url(#pa9deed4877)"/>
    <path d="M 265.270951 82.963169 
L 256.17064 81.181542 
L 256.754623 83.289033 
L 247.720411 78.530606 
L 257.882052 77.530277 
L 256.54645 79.261957 
L 265.646761 81.043584 
L 265.270951 82.963169 
" clip-path="url(#pa9deed4877)"/>
    <path d="M 240.161838 134.571124 
L 229.268588 134.177858 
L 230.175394 136.167896 
L 220.507483 132.882915 
L 230.387105 130.303636 
L 229.339158 132.223104 
L 240.232409 132.616371 
L 240.161838 134.571124 
" clip-path="url(#pa9deed4877)"/>
    <path d="M 291.277134 146.362393 
L 286.823013 137.356757 
L 285.503298 139.100575 
L 283.797402 129.033325 
L 290.763196 136.499068 
L 288.576312 136.489588 
L 293.030433 145.495224 
L 291.277134 146.362393 
" clip-path="url(#pa9deed4877)"/>
    <path d="M 286.198982 266.762089 
L 294.562724 261.826838 
L 292.726371 260.639253 
L 302.640489 258.195922 
L 295.708518 265.69308 
L 295.556773 263.511447 
L 287.193031 268.446698 
L 286.198982 266.762089 
" clip-path="url(#pa9deed4877)"/>
    <path d="M 158.552882 141.176727 
L 152.736228 149.743437 
L 154.903867 150.033078 
L 146.982643 156.4762 
L 150.049102 146.736773 
L 151.117973 148.644668 
L 156.934627 140.077959 
L 158.552882 141.176727 
" clip-path="url(#pa9deed4877)"/>
    <path d="M 171.912338 267.795793 
L 179.707429 273.176571 
L 180.01373 271.011223 
L 186.395748 278.981759 
L 176.68019 275.840496 
L 178.596249 274.786329 
L 170.801158 269.405551 
L 171.912338 267.795793 
" clip-path="url(#pa9deed4877)"/>
    <path d="M 249.444918 90.116158 
L 240.023351 87.701607 
L 240.485151 89.839197 
L 231.739584 84.56903 
L 241.941938 84.15482 
L 240.508947 85.806814 
L 249.930513 88.221366 
L 249.444918 90.116158 
" clip-path="url(#pa9deed4877)"/>
    <path d="M 224.202148 106.327734 
L 213.314006 107.460653 
L 214.489201 109.30496 
L 204.457933 107.39884 
L 213.881901 103.468389 
L 213.111573 105.515129 
L 223.999714 104.38221 
L 224.202148 106.327734 
" clip-path="url(#pa9deed4877)"/>
    <path d="M 128.307879 196.684218 
L 128.161479 205.963047 
L 130.132692 205.016014 
L 127.044726 214.748643 
L 124.265342 204.923439 
L 126.205696 205.932189 
L 126.352096 196.65336 
L 128.307879 196.684218 
" clip-path="url(#pa9deed4877)"/>
    <path d="M 304.894543 180.252256 
L 303.969654 171.99504 
L 302.13465 173.184708 
L 303.961793 163.138756 
L 307.966262 172.53151 
L 305.913525 171.777307 
L 306.838414 180.034523 
L 304.894543 180.252256 
" clip-path="url(#pa9deed4877)"/>
    <path d="M 243.35147 294.511286 
L 254.034103 293.960061 
L 252.956591 292.057031 
L 262.874927 294.483187 
L 253.258983 297.917315 
L 254.1349 295.913489 
L 243.452267 296.464714 
L 243.35147 294.511286 
" clip-path="url(#pa9deed4877)"/>
    <path d="M 119.161045 172.776861 
L 119.252442 183.387661 
L 121.199972 182.392836 
L 118.350279 192.197879 
L 115.332109 182.443379 
L 117.296487 183.404508 
L 117.20509 172.793708 
L 119.161045 172.776861 
" clip-path="url(#pa9deed4877)"/>
    <path d="M 324.72367 261.301701 
L 332.630511 252.464585 
L 330.520663 251.889179 
L 339.228556 246.556994 
L 334.893812 255.801971 
L 334.088227 253.768849 
L 326.181386 262.605965 
L 324.72367 261.301701 
" clip-path="url(#pa9deed4877)"/>
    <path d="M 340.012868 135.937525 
L 337.941965 129.589394 
L 336.385705 131.12582 
L 336.141892 120.917971 
L 341.964441 129.305911 
L 339.801544 128.982758 
L 341.872446 135.330889 
L 340.012868 135.937525 
" clip-path="url(#pa9deed4877)"/>
    <path d="M 303.025661 223.414641 
L 309.290608 216.40317 
L 307.180375 215.829175 
L 315.884703 210.49117 
L 311.556138 219.739042 
L 310.749195 217.706459 
L 304.484249 224.71793 
L 303.025661 223.414641 
" clip-path="url(#pa9deed4877)"/>
    <path d="M 142.00951 211.593234 
L 146.014803 220.73195 
L 147.413729 219.051011 
L 148.652361 229.186365 
L 142.03918 221.406555 
L 144.223287 221.517132 
L 140.217993 212.378415 
L 142.00951 211.593234 
" clip-path="url(#pa9deed4877)"/>
    <path d="M 275.982539 92.944316 
L 268.088758 89.082961 
L 268.107797 91.269783 
L 260.611677 84.336688 
L 270.686288 85.998564 
L 268.948255 87.325888 
L 276.842036 91.187243 
L 275.982539 92.944316 
" clip-path="url(#pa9deed4877)"/>
    <path d="M 140.650466 193.79791 
L 142.012607 204.518946 
L 143.829766 203.302194 
L 142.151812 213.37414 
L 138.008483 204.041807 
L 140.072179 204.765483 
L 138.710038 194.044448 
L 140.650466 193.79791 
" clip-path="url(#pa9deed4877)"/>
    <path d="M 188.17796 140.651424 
L 183.43903 145.402351 
L 185.514583 146.091288 
L 176.530431 150.943569 
L 181.359981 141.947178 
L 182.054163 144.020981 
L 186.793093 139.270054 
L 188.17796 140.651424 
" clip-path="url(#pa9deed4877)"/>
    <path d="M 280.506329 290.335108 
L 289.051834 285.27591 
L 287.213764 284.090985 
L 297.124335 281.633304 
L 290.203223 289.14049 
L 290.048321 286.959078 
L 281.502816 292.018276 
L 280.506329 290.335108 
" clip-path="url(#pa9deed4877)"/>
    <path d="M 284.674358 249.541703 
L 295.274808 243.062956 
L 293.420261 241.903987 
L 303.295303 239.307228 
L 296.480411 246.910967 
L 296.294858 244.731949 
L 285.694408 251.210696 
L 284.674358 249.541703 
" clip-path="url(#pa9deed4877)"/>
    <path d="M 172.509543 106.487931 
L 166.315475 111.451796 
L 168.301871 112.366554 
L 158.835227 116.193076 
L 164.63223 107.78746 
L 165.092261 109.925432 
L 171.286329 104.961566 
L 172.509543 106.487931 
" clip-path="url(#pa9deed4877)"/>
    <path d="M 296.058099 216.465824 
L 302.771684 208.795392 
L 300.655677 208.243064 
L 309.304815 202.816091 
L 305.0713 212.10786 
L 304.243558 210.083657 
L 297.529974 217.75409 
L 296.058099 216.465824 
" clip-path="url(#pa9deed4877)"/>
    <path d="M 311.203049 170.137843 
L 309.119519 161.245248 
L 307.438173 162.643686 
L 308.063791 152.45211 
L 313.151528 161.30505 
L 311.02397 160.799036 
L 313.1075 169.691631 
L 311.203049 170.137843 
" clip-path="url(#pa9deed4877)"/>
    <path d="M 311.089022 161.002195 
L 307.247111 149.33977 
L 305.695302 150.880692 
L 305.421958 140.673592 
L 311.26875 149.044651 
L 309.104927 148.727757 
L 312.946838 160.390181 
L 311.089022 161.002195 
" clip-path="url(#pa9deed4877)"/>
    <path d="M 262.221861 276.268005 
L 271.96651 273.286421 
L 270.458995 271.702138 
L 280.669602 271.646293 
L 272.175891 277.313434 
L 272.538809 275.156853 
L 262.79416 278.138436 
L 262.221861 276.268005 
" clip-path="url(#pa9deed4877)"/>
    <path d="M 353.169252 166.151469 
L 352.089181 158.78031 
L 350.295611 160.031572 
L 351.780744 149.929394 
L 356.101694 159.180827 
L 354.024542 158.496728 
L 355.104613 165.867887 
L 353.169252 166.151469 
" clip-path="url(#pa9deed4877)"/>
    <path d="M 272.395835 255.607276 
L 279.1583 252.620804 
L 277.473444 251.226598 
L 287.605284 249.959546 
L 279.844051 256.59452 
L 279.948502 254.410111 
L 273.186037 257.396584 
L 272.395835 255.607276 
" clip-path="url(#pa9deed4877)"/>
    <path d="M 225.192337 54.542546 
L 213.983791 55.48887 
L 215.122897 57.355683 
L 205.130596 55.254842 
L 214.629218 51.508406 
L 213.819232 53.539778 
L 225.027778 52.593454 
L 225.192337 54.542546 
" clip-path="url(#pa9deed4877)"/>
    <path d="M 193.813675 122.649187 
L 187.746963 127.589232 
L 189.740437 128.48846 
L 180.303944 132.388742 
L 186.035173 123.938143 
L 186.511875 126.07246 
L 192.578587 121.132414 
L 193.813675 122.649187 
" clip-path="url(#pa9deed4877)"/>
    <path d="M 217.91545 62.829524 
L 205.771387 64.029138 
L 206.936948 65.879548 
L 196.915758 63.921141 
L 206.360095 60.03989 
L 205.579103 62.082585 
L 217.723165 60.882971 
L 217.91545 62.829524 
" clip-path="url(#pa9deed4877)"/>
    <path d="M 143.743795 234.478637 
L 148.987783 241.257176 
L 149.936457 239.286753 
L 153.600136 248.817601 
L 145.29513 242.877359 
L 147.440673 242.454045 
L 142.196686 235.675506 
L 143.743795 234.478637 
" clip-path="url(#pa9deed4877)"/>
    <path d="M 252.60018 262.473169 
L 264.015729 258.289171 
L 262.424321 256.78918 
L 272.616795 256.178365 
L 264.443711 262.298847 
L 264.688859 260.125727 
L 253.273309 264.309725 
L 252.60018 262.473169 
" clip-path="url(#pa9deed4877)"/>
    <path d="M 208.514043 291.741675 
L 216.526183 293.603347 
L 216.016249 291.476725 
L 224.878549 296.54814 
L 214.688144 297.192537 
L 216.083481 295.508617 
L 208.071341 293.646946 
L 208.514043 291.741675 
" clip-path="url(#pa9deed4877)"/>
    <path d="M 159.984575 120.371561 
L 154.932288 125.417602 
L 157.00654 126.110445 
L 148.013268 130.945803 
L 152.859747 121.95852 
L 153.550024 124.033627 
L 158.602311 118.987586 
L 159.984575 120.371561 
" clip-path="url(#pa9deed4877)"/>
    <path d="M 324.411057 137.259195 
L 319.083181 129.074886 
L 317.977477 130.961674 
L 315.100652 121.164558 
L 322.895313 127.760228 
L 320.72246 128.007738 
L 326.050336 136.192046 
L 324.411057 137.259195 
" clip-path="url(#pa9deed4877)"/>
    <path d="M 254.936111 115.033405 
L 245.768668 111.903537 
L 246.062234 114.070648 
L 237.754646 108.134018 
L 247.958209 108.517302 
L 246.40066 110.052422 
L 255.568103 113.18229 
L 254.936111 115.033405 
" clip-path="url(#pa9deed4877)"/>
    <path d="M 168.054741 168.310937 
L 165.278832 176.98081 
L 167.439928 176.645827 
L 161.663364 185.065501 
L 161.851317 174.856472 
L 163.415961 176.384359 
L 166.191871 167.714485 
L 168.054741 168.310937 
" clip-path="url(#pa9deed4877)"/>
    <path d="M 124.406592 151.98469 
L 122.64431 160.313718 
L 124.76042 159.761786 
L 119.865437 168.722743 
L 119.019438 158.547091 
L 120.730649 159.90882 
L 122.492931 151.579791 
L 124.406592 151.98469 
" clip-path="url(#pa9deed4877)"/>
    <path d="M 264.075536 174.87169 
L 259.959712 166.647618 
L 258.648214 168.397624 
L 256.894985 158.338509 
L 263.895818 165.771406 
L 261.708913 165.772211 
L 265.824737 173.996284 
L 264.075536 174.87169 
" clip-path="url(#pa9deed4877)"/>
    <path d="M 264.88873 152.617472 
L 259.92604 148.658777 
L 259.470834 150.797781 
L 253.65488 142.405267 
L 263.130134 146.210418 
L 261.145807 147.129656 
L 266.108497 151.088351 
L 264.88873 152.617472 
" clip-path="url(#pa9deed4877)"/>
    <path d="M 195.397944 99.556694 
L 185.403863 104.995043 
L 187.197854 106.245702 
L 177.204843 108.343161 
L 184.393067 101.091331 
L 184.468935 103.276919 
L 194.463015 97.838571 
L 195.397944 99.556694 
" clip-path="url(#pa9deed4877)"/>
    <path d="M 150.305416 154.57035 
L 145.475922 164.177903 
L 147.662821 164.182581 
L 140.648837 171.60307 
L 142.419876 161.547075 
L 143.728273 163.299401 
L 148.557767 153.691848 
L 150.305416 154.57035 
" clip-path="url(#pa9deed4877)"/>
    <path d="M 171.271944 82.559545 
L 163.239102 88.074088 
L 165.152453 89.133164 
L 155.428874 92.249512 
L 161.831303 84.295362 
L 162.132053 86.461487 
L 170.164894 80.946944 
L 171.271944 82.559545 
" clip-path="url(#pa9deed4877)"/>
    <path d="M 312.749221 250.871341 
L 319.710264 244.261231 
L 317.654154 243.516271 
L 326.766567 238.909369 
L 321.694866 247.771505 
L 321.057168 245.679642 
L 314.096125 252.289752 
L 312.749221 250.871341 
" clip-path="url(#pa9deed4877)"/>
    <path d="M 295.855078 275.848501 
L 304.960968 270.503862 
L 303.127384 269.312006 
L 313.047163 266.891758 
L 306.097759 274.372761 
L 305.951093 272.19078 
L 296.845203 277.535419 
L 295.855078 275.848501 
" clip-path="url(#pa9deed4877)"/>
    <path d="M 228.01253 293.438498 
L 237.480135 296.281213 
L 237.105936 294.126561 
L 245.62919 299.749172 
L 235.41843 299.746764 
L 236.917633 298.154614 
L 227.450028 295.311899 
L 228.01253 293.438498 
" clip-path="url(#pa9deed4877)"/>
    <path d="M 147.308477 114.05931 
L 141.432302 120.195533 
L 143.521463 120.842028 
L 134.638063 125.876392 
L 139.28327 116.783446 
L 140.019571 118.842672 
L 145.895746 112.70645 
L 147.308477 114.05931 
" clip-path="url(#pa9deed4877)"/>
    <path d="M 192.755116 282.555594 
L 202.148565 286.001002 
L 201.903936 283.827823 
L 210.075558 289.950257 
L 199.883231 289.337007 
L 201.474997 287.837397 
L 192.081548 284.391989 
L 192.755116 282.555594 
" clip-path="url(#pa9deed4877)"/>
    <path d="M 161.78459 218.196464 
L 166.91311 227.647755 
L 168.165888 225.855243 
L 170.251537 235.850726 
L 163.008207 228.653937 
L 165.193883 228.580653 
L 160.065363 219.129362 
L 161.78459 218.196464 
" clip-path="url(#pa9deed4877)"/>
    <path d="M 152.6317 87.516682 
L 144.519412 94.159799 
L 146.515365 95.053512 
L 137.089691 98.97987 
L 142.797534 90.513457 
L 143.280135 92.646447 
L 151.392423 86.00333 
L 152.6317 87.516682 
" clip-path="url(#pa9deed4877)"/>
   </g>
   <g id="matplotlib.axis_1">
    <g id="xtick_1">
     <g id="line2d_1">
      <defs>
       <path id="mc97a5cd3a9" d="M 0 0 
L 0 3.5 
" style="stroke: #000000; stroke-width: 0.8"/>
      </defs>
      <g>
       <use xlink:href="#mc97a5cd3a9" x="101.267043" y="307.584" style="stroke: #000000; stroke-width: 0.8"/>
      </g>
     </g>
     <g id="text_1">
      <!-- −1.0 -->
      <g transform="translate(86.697355 323.702125) scale(0.12 -0.12)">
       <defs>
        <path id="DejaVuSans-2212" d="M 678 2272 
L 4684 2272 
L 4684 1741 
L 678 1741 
L 678 2272 
z
" transform="scale(0.015625)"/>
        <path id="DejaVuSans-31" d="M 794 531 
L 1825 531 
L 1825 4091 
L 703 3866 
L 703 4441 
L 1819 4666 
L 2450 4666 
L 2450 531 
L 3481 531 
L 3481 0 
L 794 0 
L 794 531 
z
" transform="scale(0.015625)"/>
        <path id="DejaVuSans-2e" d="M 684 794 
L 1344 794 
L 1344 0 
L 684 0 
L 684 794 
z
" transform="scale(0.015625)"/>
        <path id="DejaVuSans-30" d="M 2034 4250 
Q 1547 4250 1301 3770 
Q 1056 3291 1056 2328 
Q 1056 1369 1301 889 
Q 1547 409 2034 409 
Q 2525 409 2770 889 
Q 3016 1369 3016 2328 
Q 3016 3291 2770 3770 
Q 2525 4250 2034 4250 
z
M 2034 4750 
Q 2819 4750 3233 4129 
Q 3647 3509 3647 2328 
Q 3647 1150 3233 529 
Q 2819 -91 2034 -91 
Q 1250 -91 836 529 
Q 422 1150 422 2328 
Q 422 3509 836 4129 
Q 1250 4750 2034 4750 
z
" transform="scale(0.015625)"/>
       </defs>
       <use xlink:href="#DejaVuSans-2212"/>
       <use xlink:href="#DejaVuSans-31" x="83.789062"/>
       <use xlink:href="#DejaVuSans-2e" x="147.412109"/>
       <use xlink:href="#DejaVuSans-30" x="179.199219"/>
      </g>
     </g>
    </g>
    <g id="xtick_2">
     <g id="line2d_2">
      <g>
       <use xlink:href="#mc97a5cd3a9" x="155.64118" y="307.584" style="stroke: #000000; stroke-width: 0.8"/>
      </g>
     </g>
     <g id="text_2">
      <!-- −0.5 -->
      <g transform="translate(141.071493 323.702125) scale(0.12 -0.12)">
       <defs>
        <path id="DejaVuSans-35" d="M 691 4666 
L 3169 4666 
L 3169 4134 
L 1269 4134 
L 1269 2991 
Q 1406 3038 1543 3061 
Q 1681 3084 1819 3084 
Q 2600 3084 3056 2656 
Q 3513 2228 3513 1497 
Q 3513 744 3044 326 
Q 2575 -91 1722 -91 
Q 1428 -91 1123 -41 
Q 819 9 494 109 
L 494 744 
Q 775 591 1075 516 
Q 1375 441 1709 441 
Q 2250 441 2565 725 
Q 2881 1009 2881 1497 
Q 2881 1984 2565 2268 
Q 2250 2553 1709 2553 
Q 1456 2553 1204 2497 
Q 953 2441 691 2322 
L 691 4666 
z
" transform="scale(0.015625)"/>
       </defs>
       <use xlink:href="#DejaVuSans-2212"/>
       <use xlink:href="#DejaVuSans-30" x="83.789062"/>
       <use xlink:href="#DejaVuSans-2e" x="147.412109"/>
       <use xlink:href="#DejaVuSans-35" x="179.199219"/>
      </g>
     </g>
    </g>
    <g id="xtick_3">
     <g id="line2d_3">
      <g>
       <use xlink:href="#mc97a5cd3a9" x="210.015317" y="307.584" style="stroke: #000000; stroke-width: 0.8"/>
      </g>
     </g>
     <g id="text_3">
      <!-- 0.0 -->
      <g transform="translate(200.473442 323.702125) scale(0.12 -0.12)">
       <use xlink:href="#DejaVuSans-30"/>
       <use xlink:href="#DejaVuSans-2e" x="63.623047"/>
       <use xlink:href="#DejaVuSans-30" x="95.410156"/>
      </g>
     </g>
    </g>
    <g id="xtick_4">
     <g id="line2d_4">
      <g>
       <use xlink:href="#mc97a5cd3a9" x="264.389455" y="307.584" style="stroke: #000000; stroke-width: 0.8"/>
      </g>
     </g>
     <g id="text_4">
      <!-- 0.5 -->
      <g transform="translate(254.84758 323.702125) scale(0.12 -0.12)">
       <use xlink:href="#DejaVuSans-30"/>
       <use xlink:href="#DejaVuSans-2e" x="63.623047"/>
       <use xlink:href="#DejaVuSans-35" x="95.410156"/>
      </g>
     </g>
    </g>
    <g id="xtick_5">
     <g id="line2d_5">
      <g>
       <use xlink:href="#mc97a5cd3a9" x="318.763592" y="307.584" style="stroke: #000000; stroke-width: 0.8"/>
      </g>
     </g>
     <g id="text_5">
      <!-- 1.0 -->
      <g transform="translate(309.221717 323.702125) scale(0.12 -0.12)">
       <use xlink:href="#DejaVuSans-31"/>
       <use xlink:href="#DejaVuSans-2e" x="63.623047"/>
       <use xlink:href="#DejaVuSans-30" x="95.410156"/>
      </g>
     </g>
    </g>
    <g id="xtick_6">
     <g id="line2d_6">
      <g>
       <use xlink:href="#mc97a5cd3a9" x="373.13773" y="307.584" style="stroke: #000000; stroke-width: 0.8"/>
      </g>
     </g>
     <g id="text_6">
      <!-- 1.5 -->
      <g transform="translate(363.595855 323.702125) scale(0.12 -0.12)">
       <use xlink:href="#DejaVuSans-31"/>
       <use xlink:href="#DejaVuSans-2e" x="63.623047"/>
       <use xlink:href="#DejaVuSans-35" x="95.410156"/>
      </g>
     </g>
    </g>
    <g id="text_7">
     <!-- x -->
     <g transform="translate(232.016875 340.835562) scale(0.14 -0.14)">
      <defs>
       <path id="DejaVuSans-78" d="M 3513 3500 
L 2247 1797 
L 3578 0 
L 2900 0 
L 1881 1375 
L 863 0 
L 184 0 
L 1544 1831 
L 300 3500 
L 978 3500 
L 1906 2253 
L 2834 3500 
L 3513 3500 
z
" transform="scale(0.015625)"/>
      </defs>
      <use xlink:href="#DejaVuSans-78"/>
     </g>
    </g>
   </g>
   <g id="matplotlib.axis_2">
    <g id="ytick_1">
     <g id="line2d_7">
      <defs>
       <path id="mb23ac3fc7b" d="M 0 0 
L -3.5 0 
" style="stroke: #000000; stroke-width: 0.8"/>
      </defs>
      <g>
       <use xlink:href="#mb23ac3fc7b" x="57.6" y="282.358868" style="stroke: #000000; stroke-width: 0.8"/>
      </g>
     </g>
     <g id="text_8">
      <!-- 1.5 -->
      <g transform="translate(31.51625 286.917931) scale(0.12 -0.12)">
       <use xlink:href="#DejaVuSans-31"/>
       <use xlink:href="#DejaVuSans-2e" x="63.623047"/>
       <use xlink:href="#DejaVuSans-35" x="95.410156"/>
      </g>
     </g>
    </g>
    <g id="ytick_2">
     <g id="line2d_8">
      <g>
       <use xlink:href="#mb23ac3fc7b" x="57.6" y="227.984731" style="stroke: #000000; stroke-width: 0.8"/>
      </g>
     </g>
     <g id="text_9">
      <!-- 2.0 -->
      <g transform="translate(31.51625 232.543793) scale(0.12 -0.12)">
       <defs>
        <path id="DejaVuSans-32" d="M 1228 531 
L 3431 531 
L 3431 0 
L 469 0 
L 469 531 
Q 828 903 1448 1529 
Q 2069 2156 2228 2338 
Q 2531 2678 2651 2914 
Q 2772 3150 2772 3378 
Q 2772 3750 2511 3984 
Q 2250 4219 1831 4219 
Q 1534 4219 1204 4116 
Q 875 4013 500 3803 
L 500 4441 
Q 881 4594 1212 4672 
Q 1544 4750 1819 4750 
Q 2544 4750 2975 4387 
Q 3406 4025 3406 3419 
Q 3406 3131 3298 2873 
Q 3191 2616 2906 2266 
Q 2828 2175 2409 1742 
Q 1991 1309 1228 531 
z
" transform="scale(0.015625)"/>
       </defs>
       <use xlink:href="#DejaVuSans-32"/>
       <use xlink:href="#DejaVuSans-2e" x="63.623047"/>
       <use xlink:href="#DejaVuSans-30" x="95.410156"/>
      </g>
     </g>
    </g>
    <g id="ytick_3">
     <g id="line2d_9">
      <g>
       <use xlink:href="#mb23ac3fc7b" x="57.6" y="173.610594" style="stroke: #000000; stroke-width: 0.8"/>
      </g>
     </g>
     <g id="text_10">
      <!-- 2.5 -->
      <g transform="translate(31.51625 178.169656) scale(0.12 -0.12)">
       <use xlink:href="#DejaVuSans-32"/>
       <use xlink:href="#DejaVuSans-2e" x="63.623047"/>
       <use xlink:href="#DejaVuSans-35" x="95.410156"/>
      </g>
     </g>
    </g>
    <g id="ytick_4">
     <g id="line2d_10">
      <g>
       <use xlink:href="#mb23ac3fc7b" x="57.6" y="119.236456" style="stroke: #000000; stroke-width: 0.8"/>
      </g>
     </g>
     <g id="text_11">
      <!-- 3.0 -->
      <g transform="translate(31.51625 123.795519) scale(0.12 -0.12)">
       <defs>
        <path id="DejaVuSans-33" d="M 2597 2516 
Q 3050 2419 3304 2112 
Q 3559 1806 3559 1356 
Q 3559 666 3084 287 
Q 2609 -91 1734 -91 
Q 1441 -91 1130 -33 
Q 819 25 488 141 
L 488 750 
Q 750 597 1062 519 
Q 1375 441 1716 441 
Q 2309 441 2620 675 
Q 2931 909 2931 1356 
Q 2931 1769 2642 2001 
Q 2353 2234 1838 2234 
L 1294 2234 
L 1294 2753 
L 1863 2753 
Q 2328 2753 2575 2939 
Q 2822 3125 2822 3475 
Q 2822 3834 2567 4026 
Q 2313 4219 1838 4219 
Q 1578 4219 1281 4162 
Q 984 4106 628 3988 
L 628 4550 
Q 988 4650 1302 4700 
Q 1616 4750 1894 4750 
Q 2613 4750 3031 4423 
Q 3450 4097 3450 3541 
Q 3450 3153 3228 2886 
Q 3006 2619 2597 2516 
z
" transform="scale(0.015625)"/>
       </defs>
       <use xlink:href="#DejaVuSans-33"/>
       <use xlink:href="#DejaVuSans-2e" x="63.623047"/>
       <use xlink:href="#DejaVuSans-30" x="95.410156"/>
      </g>
     </g>
    </g>
    <g id="ytick_5">
     <g id="line2d_11">
      <g>
       <use xlink:href="#mb23ac3fc7b" x="57.6" y="64.862319" style="stroke: #000000; stroke-width: 0.8"/>
      </g>
     </g>
     <g id="text_12">
      <!-- 3.5 -->
      <g transform="translate(31.51625 69.421381) scale(0.12 -0.12)">
       <use xlink:href="#DejaVuSans-33"/>
       <use xlink:href="#DejaVuSans-2e" x="63.623047"/>
       <use xlink:href="#DejaVuSans-35" x="95.410156"/>
      </g>
     </g>
    </g>
    <g id="text_13">
     <!-- y -->
     <g transform="translate(24.604688 178.671125) rotate(-90) scale(0.14 -0.14)">
      <defs>
       <path id="DejaVuSans-79" d="M 2059 -325 
Q 1816 -950 1584 -1140 
Q 1353 -1331 966 -1331 
L 506 -1331 
L 506 -850 
L 844 -850 
Q 1081 -850 1212 -737 
Q 1344 -625 1503 -206 
L 1606 56 
L 191 3500 
L 800 3500 
L 1894 763 
L 2988 3500 
L 3597 3500 
L 2059 -325 
z
" transform="scale(0.015625)"/>
      </defs>
      <use xlink:href="#DejaVuSans-79"/>
     </g>
    </g>
   </g>
   <g id="line2d_12">
    <defs>
     <path id="mf673afe998" d="M 0 3 
C 0.795609 3 1.55874 2.683901 2.12132 2.12132 
C 2.683901 1.55874 3 0.795609 3 0 
C 3 -0.795609 2.683901 -1.55874 2.12132 -2.12132 
C 1.55874 -2.683901 0.795609 -3 0 -3 
C -0.795609 -3 -1.55874 -2.683901 -2.12132 -2.12132 
C -2.683901 -1.55874 -3 -0.795609 -3 0 
C -3 0.795609 -2.683901 1.55874 -2.12132 2.12132 
C -1.55874 2.683901 -0.795609 3 0 3 
z
" style="stroke: #0000ff"/>
    </defs>
    <g clip-path="url(#pa9deed4877)">
     <use xlink:href="#mf673afe998" x="206.71205" y="224.814812" style="fill: #0000ff; stroke: #0000ff"/>
     <use xlink:href="#mf673afe998" x="337.020549" y="236.024492" style="fill: #0000ff; stroke: #0000ff"/>
     <use xlink:href="#mf673afe998" x="174.029874" y="239.484604" style="fill: #0000ff; stroke: #0000ff"/>
     <use xlink:href="#mf673afe998" x="148.022002" y="179.822806" style="fill: #0000ff; stroke: #0000ff"/>
     <use xlink:href="#mf673afe998" x="199.651515" y="158.471634" style="fill: #0000ff; stroke: #0000ff"/>
     <use xlink:href="#mf673afe998" x="332.931974" y="161.193677" style="fill: #0000ff; stroke: #0000ff"/>
     <use xlink:href="#mf673afe998" x="252.040433" y="140.692864" style="fill: #0000ff; stroke: #0000ff"/>
     <use xlink:href="#mf673afe998" x="284.31944" y="172.27673" style="fill: #0000ff; stroke: #0000ff"/>
     <use xlink:href="#mf673afe998" x="192.823466" y="197.856483" style="fill: #0000ff; stroke: #0000ff"/>
     <use xlink:href="#mf673afe998" x="225.057704" y="258.683121" style="fill: #0000ff; stroke: #0000ff"/>
     <use xlink:href="#mf673afe998" x="229.383179" y="214.14789" style="fill: #0000ff; stroke: #0000ff"/>
     <use xlink:href="#mf673afe998" x="246.723" y="238.62378" style="fill: #0000ff; stroke: #0000ff"/>
     <use xlink:href="#mf673afe998" x="232.049593" y="121.727502" style="fill: #0000ff; stroke: #0000ff"/>
     <use xlink:href="#mf673afe998" x="270.668221" y="233.468208" style="fill: #0000ff; stroke: #0000ff"/>
     <use xlink:href="#mf673afe998" x="291.151885" y="111.286064" style="fill: #0000ff; stroke: #0000ff"/>
     <use xlink:href="#mf673afe998" x="281.795334" y="128.060781" style="fill: #0000ff; stroke: #0000ff"/>
     <use xlink:href="#mf673afe998" x="251.440577" y="208.492979" style="fill: #0000ff; stroke: #0000ff"/>
     <use xlink:href="#mf673afe998" x="349.264662" y="198.708942" style="fill: #0000ff; stroke: #0000ff"/>
     <use xlink:href="#mf673afe998" x="217.606604" y="147.753762" style="fill: #0000ff; stroke: #0000ff"/>
     <use xlink:href="#mf673afe998" x="317.950934" y="209.019189" style="fill: #0000ff; stroke: #0000ff"/>
    </g>
   </g>
   <g id="line2d_13">
    <defs>
     <path id="m599c48aa81" d="M 0 3 
C 0.795609 3 1.55874 2.683901 2.12132 2.12132 
C 2.683901 1.55874 3 0.795609 3 0 
C 3 -0.795609 2.683901 -1.55874 2.12132 -2.12132 
C 1.55874 -2.683901 0.795609 -3 0 -3 
C -0.795609 -3 -1.55874 -2.683901 -2.12132 -2.12132 
C -2.683901 -1.55874 -3 -0.795609 -3 0 
C -3 0.795609 -2.683901 1.55874 -2.12132 2.12132 
C -1.55874 2.683901 -0.795609 3 0 3 
z
" style="stroke: #ff0000"/>
    </defs>
    <g clip-path="url(#pa9deed4877)">
     <use xlink:href="#m599c48aa81" x="257.661635" y="107.247517" style="fill: #ff0000; stroke: #ff0000"/>
     <use xlink:href="#m599c48aa81" x="203.601844" y="174.285221" style="fill: #ff0000; stroke: #ff0000"/>
     <use xlink:href="#m599c48aa81" x="221.580476" y="241.167413" style="fill: #ff0000; stroke: #ff0000"/>
     <use xlink:href="#m599c48aa81" x="298.633909" y="81.940674" style="fill: #ff0000; stroke: #ff0000"/>
     <use xlink:href="#m599c48aa81" x="142.744625" y="128.243185" style="fill: #ff0000; stroke: #ff0000"/>
     <use xlink:href="#m599c48aa81" x="241.048081" y="65.316" style="fill: #ff0000; stroke: #ff0000"/>
     <use xlink:href="#m599c48aa81" x="179.716151" y="151.949656" style="fill: #ff0000; stroke: #ff0000"/>
     <use xlink:href="#m599c48aa81" x="259.834083" y="157.11219" style="fill: #ff0000; stroke: #ff0000"/>
     <use xlink:href="#m599c48aa81" x="283.41994" y="192.1214" style="fill: #ff0000; stroke: #ff0000"/>
     <use xlink:href="#m599c48aa81" x="176.049166" y="202.112378" style="fill: #ff0000; stroke: #ff0000"/>
     <use xlink:href="#m599c48aa81" x="266.605862" y="288.326381" style="fill: #ff0000; stroke: #ff0000"/>
     <use xlink:href="#m599c48aa81" x="232.012561" y="91.490523" style="fill: #ff0000; stroke: #ff0000"/>
     <use xlink:href="#m599c48aa81" x="166.695101" y="211.096416" style="fill: #ff0000; stroke: #ff0000"/>
     <use xlink:href="#m599c48aa81" x="173.268847" y="137.492462" style="fill: #ff0000; stroke: #ff0000"/>
     <use xlink:href="#m599c48aa81" x="147.361555" y="257.09828" style="fill: #ff0000; stroke: #ff0000"/>
     <use xlink:href="#m599c48aa81" x="209.310857" y="107.626105" style="fill: #ff0000; stroke: #ff0000"/>
     <use xlink:href="#m599c48aa81" x="321.784" y="100.556402" style="fill: #ff0000; stroke: #ff0000"/>
     <use xlink:href="#m599c48aa81" x="180.72082" y="87.167892" style="fill: #ff0000; stroke: #ff0000"/>
     <use xlink:href="#m599c48aa81" x="219.285265" y="279.700999" style="fill: #ff0000; stroke: #ff0000"/>
     <use xlink:href="#m599c48aa81" x="163.336264" y="253.095157" style="fill: #ff0000; stroke: #ff0000"/>
     <use xlink:href="#m599c48aa81" x="137.567292" y="143.978355" style="fill: #ff0000; stroke: #ff0000"/>
     <use xlink:href="#m599c48aa81" x="165.18777" y="175.802511" style="fill: #ff0000; stroke: #ff0000"/>
     <use xlink:href="#m599c48aa81" x="183.788274" y="177.221126" style="fill: #ff0000; stroke: #ff0000"/>
     <use xlink:href="#m599c48aa81" x="297.154565" y="200.259473" style="fill: #ff0000; stroke: #ff0000"/>
     <use xlink:href="#m599c48aa81" x="207.744294" y="237.234475" style="fill: #ff0000; stroke: #ff0000"/>
     <use xlink:href="#m599c48aa81" x="223.53217" y="208.503146" style="fill: #ff0000; stroke: #ff0000"/>
     <use xlink:href="#m599c48aa81" x="284.26004" y="72.024153" style="fill: #ff0000; stroke: #ff0000"/>
     <use xlink:href="#m599c48aa81" x="230.992301" y="198.069911" style="fill: #ff0000; stroke: #ff0000"/>
     <use xlink:href="#m599c48aa81" x="285.242704" y="209.507109" style="fill: #ff0000; stroke: #ff0000"/>
     <use xlink:href="#m599c48aa81" x="312.974461" y="274.059024" style="fill: #ff0000; stroke: #ff0000"/>
     <use xlink:href="#m599c48aa81" x="195.64012" y="72.174308" style="fill: #ff0000; stroke: #ff0000"/>
     <use xlink:href="#m599c48aa81" x="188.130287" y="214.882792" style="fill: #ff0000; stroke: #ff0000"/>
     <use xlink:href="#m599c48aa81" x="210.296339" y="124.127807" style="fill: #ff0000; stroke: #ff0000"/>
     <use xlink:href="#m599c48aa81" x="233.582026" y="77.977994" style="fill: #ff0000; stroke: #ff0000"/>
     <use xlink:href="#m599c48aa81" x="236.457983" y="275.874331" style="fill: #ff0000; stroke: #ff0000"/>
     <use xlink:href="#m599c48aa81" x="275.056599" y="203.339721" style="fill: #ff0000; stroke: #ff0000"/>
     <use xlink:href="#m599c48aa81" x="185.388439" y="275.91236" style="fill: #ff0000; stroke: #ff0000"/>
     <use xlink:href="#m599c48aa81" x="326.763979" y="112.734791" style="fill: #ff0000; stroke: #ff0000"/>
     <use xlink:href="#m599c48aa81" x="131.500452" y="221.577745" style="fill: #ff0000; stroke: #ff0000"/>
     <use xlink:href="#m599c48aa81" x="294.916877" y="160.591751" style="fill: #ff0000; stroke: #ff0000"/>
     <use xlink:href="#m599c48aa81" x="301.228213" y="96.025313" style="fill: #ff0000; stroke: #ff0000"/>
     <use xlink:href="#m599c48aa81" x="260.385533" y="65.267896" style="fill: #ff0000; stroke: #ff0000"/>
     <use xlink:href="#m599c48aa81" x="184.491829" y="125.260823" style="fill: #ff0000; stroke: #ff0000"/>
     <use xlink:href="#m599c48aa81" x="194.208275" y="258.840109" style="fill: #ff0000; stroke: #ff0000"/>
     <use xlink:href="#m599c48aa81" x="318.771203" y="185.799496" style="fill: #ff0000; stroke: #ff0000"/>
     <use xlink:href="#m599c48aa81" x="212.763482" y="88.80562" style="fill: #ff0000; stroke: #ff0000"/>
     <use xlink:href="#m599c48aa81" x="341.033827" y="123.266154" style="fill: #ff0000; stroke: #ff0000"/>
     <use xlink:href="#m599c48aa81" x="299.201801" y="237.849098" style="fill: #ff0000; stroke: #ff0000"/>
     <use xlink:href="#m599c48aa81" x="310.457239" y="134.068169" style="fill: #ff0000; stroke: #ff0000"/>
     <use xlink:href="#m599c48aa81" x="265.458856" y="82.003377" style="fill: #ff0000; stroke: #ff0000"/>
    </g>
   </g>
   <g id="line2d_14">
    <defs>
     <path id="m41b96baac6" d="M 0 3 
C 0.795609 3 1.55874 2.683901 2.12132 2.12132 
C 2.683901 1.55874 3 0.795609 3 0 
C 3 -0.795609 2.683901 -1.55874 2.12132 -2.12132 
C 1.55874 -2.683901 0.795609 -3 0 -3 
C -0.795609 -3 -1.55874 -2.683901 -2.12132 -2.12132 
C -2.683901 -1.55874 -3 -0.795609 -3 0 
C -3 0.795609 -2.683901 1.55874 -2.12132 2.12132 
C -1.55874 2.683901 -0.795609 3 0 3 
z
" style="stroke: #000000"/>
    </defs>
    <g clip-path="url(#pa9deed4877)">
     <use xlink:href="#m41b96baac6" x="240.197124" y="133.593748" style="stroke: #000000"/>
     <use xlink:href="#m41b96baac6" x="292.153784" y="145.928808" style="stroke: #000000"/>
     <use xlink:href="#m41b96baac6" x="286.696007" y="267.604393" style="stroke: #000000"/>
     <use xlink:href="#m41b96baac6" x="157.743754" y="140.627343" style="stroke: #000000"/>
     <use xlink:href="#m41b96baac6" x="171.356748" y="268.600672" style="stroke: #000000"/>
     <use xlink:href="#m41b96baac6" x="249.687716" y="89.168762" style="stroke: #000000"/>
     <use xlink:href="#m41b96baac6" x="224.100931" y="105.354972" style="stroke: #000000"/>
     <use xlink:href="#m41b96baac6" x="127.329988" y="196.668789" style="stroke: #000000"/>
     <use xlink:href="#m41b96baac6" x="305.866479" y="180.143389" style="stroke: #000000"/>
     <use xlink:href="#m41b96baac6" x="243.401868" y="295.488" style="stroke: #000000"/>
     <use xlink:href="#m41b96baac6" x="118.183068" y="172.785285" style="stroke: #000000"/>
     <use xlink:href="#m41b96baac6" x="325.452528" y="261.953833" style="stroke: #000000"/>
     <use xlink:href="#m41b96baac6" x="340.942657" y="135.634207" style="stroke: #000000"/>
     <use xlink:href="#m41b96baac6" x="303.754955" y="224.066285" style="stroke: #000000"/>
     <use xlink:href="#m41b96baac6" x="141.113751" y="211.985825" style="stroke: #000000"/>
     <use xlink:href="#m41b96baac6" x="276.412288" y="92.065779" style="stroke: #000000"/>
     <use xlink:href="#m41b96baac6" x="139.680252" y="193.921179" style="stroke: #000000"/>
     <use xlink:href="#m41b96baac6" x="187.485526" y="139.960739" style="stroke: #000000"/>
     <use xlink:href="#m41b96baac6" x="281.004572" y="291.176692" style="stroke: #000000"/>
     <use xlink:href="#m41b96baac6" x="285.184383" y="250.3762" style="stroke: #000000"/>
     <use xlink:href="#m41b96baac6" x="171.897936" y="105.724748" style="stroke: #000000"/>
     <use xlink:href="#m41b96baac6" x="296.794037" y="217.109957" style="stroke: #000000"/>
     <use xlink:href="#m41b96baac6" x="312.155275" y="169.914737" style="stroke: #000000"/>
     <use xlink:href="#m41b96baac6" x="312.01793" y="160.696188" style="stroke: #000000"/>
     <use xlink:href="#m41b96baac6" x="262.50801" y="277.203221" style="stroke: #000000"/>
     <use xlink:href="#m41b96baac6" x="354.136932" y="166.009678" style="stroke: #000000"/>
     <use xlink:href="#m41b96baac6" x="272.790936" y="256.50193" style="stroke: #000000"/>
     <use xlink:href="#m41b96baac6" x="225.110058" y="53.568" style="stroke: #000000"/>
     <use xlink:href="#m41b96baac6" x="193.196131" y="121.890801" style="stroke: #000000"/>
     <use xlink:href="#m41b96baac6" x="217.819308" y="61.856247" style="stroke: #000000"/>
     <use xlink:href="#m41b96baac6" x="142.970241" y="235.077071" style="stroke: #000000"/>
     <use xlink:href="#m41b96baac6" x="252.936745" y="263.391447" style="stroke: #000000"/>
     <use xlink:href="#m41b96baac6" x="208.292692" y="292.69431" style="stroke: #000000"/>
     <use xlink:href="#m41b96baac6" x="159.293443" y="119.679574" style="stroke: #000000"/>
     <use xlink:href="#m41b96baac6" x="325.230697" y="136.725621" style="stroke: #000000"/>
     <use xlink:href="#m41b96baac6" x="255.252107" y="114.107847" style="stroke: #000000"/>
     <use xlink:href="#m41b96baac6" x="167.123306" y="168.012711" style="stroke: #000000"/>
     <use xlink:href="#m41b96baac6" x="123.449762" y="151.78224" style="stroke: #000000"/>
     <use xlink:href="#m41b96baac6" x="264.950136" y="174.433987" style="stroke: #000000"/>
     <use xlink:href="#m41b96baac6" x="265.498614" y="151.852911" style="stroke: #000000"/>
     <use xlink:href="#m41b96baac6" x="194.93048" y="98.697633" style="stroke: #000000"/>
     <use xlink:href="#m41b96baac6" x="149.431591" y="154.131099" style="stroke: #000000"/>
     <use xlink:href="#m41b96baac6" x="170.718419" y="81.753245" style="stroke: #000000"/>
     <use xlink:href="#m41b96baac6" x="313.422673" y="251.580547" style="stroke: #000000"/>
     <use xlink:href="#m41b96baac6" x="296.350141" y="276.69196" style="stroke: #000000"/>
     <use xlink:href="#m41b96baac6" x="227.731279" y="294.375198" style="stroke: #000000"/>
     <use xlink:href="#m41b96baac6" x="146.602112" y="113.38288" style="stroke: #000000"/>
     <use xlink:href="#m41b96baac6" x="192.418332" y="283.473792" style="stroke: #000000"/>
     <use xlink:href="#m41b96baac6" x="160.924976" y="218.662913" style="stroke: #000000"/>
     <use xlink:href="#m41b96baac6" x="152.012061" y="86.760006" style="stroke: #000000"/>
    </g>
   </g>
   <g id="patch_3">
    <path d="M 57.6 307.584 
L 57.6 41.472 
" style="fill: none; stroke: #000000; stroke-width: 0.8; stroke-linejoin: miter; stroke-linecap: square"/>
   </g>
   <g id="patch_4">
    <path d="M 414.72 307.584 
L 414.72 41.472 
" style="fill: none; stroke: #000000; stroke-width: 0.8; stroke-linejoin: miter; stroke-linecap: square"/>
   </g>
   <g id="patch_5">
    <path d="M 57.6 307.584 
L 414.72 307.584 
" style="fill: none; stroke: #000000; stroke-width: 0.8; stroke-linejoin: miter; stroke-linecap: square"/>
   </g>
   <g id="patch_6">
    <path d="M 57.6 41.472 
L 414.72 41.472 
" style="fill: none; stroke: #000000; stroke-width: 0.8; stroke-linejoin: miter; stroke-linecap: square"/>
   </g>
   <g id="text_14">
    <!-- Velocities at the final time -->
    <g transform="translate(116.81 35.472) scale(0.16 -0.16)">
     <defs>
      <path id="DejaVuSans-Bold-56" d="M 31 4666 
L 1241 4666 
L 2478 1222 
L 3713 4666 
L 4922 4666 
L 3194 0 
L 1759 0 
L 31 4666 
z
" transform="scale(0.015625)"/>
      <path id="DejaVuSans-Bold-65" d="M 4031 1759 
L 4031 1441 
L 1416 1441 
Q 1456 1047 1700 850 
Q 1944 653 2381 653 
Q 2734 653 3104 758 
Q 3475 863 3866 1075 
L 3866 213 
Q 3469 63 3072 -14 
Q 2675 -91 2278 -91 
Q 1328 -91 801 392 
Q 275 875 275 1747 
Q 275 2603 792 3093 
Q 1309 3584 2216 3584 
Q 3041 3584 3536 3087 
Q 4031 2591 4031 1759 
z
M 2881 2131 
Q 2881 2450 2695 2645 
Q 2509 2841 2209 2841 
Q 1884 2841 1681 2658 
Q 1478 2475 1428 2131 
L 2881 2131 
z
" transform="scale(0.015625)"/>
      <path id="DejaVuSans-Bold-6c" d="M 538 4863 
L 1656 4863 
L 1656 0 
L 538 0 
L 538 4863 
z
" transform="scale(0.015625)"/>
      <path id="DejaVuSans-Bold-6f" d="M 2203 2784 
Q 1831 2784 1636 2517 
Q 1441 2250 1441 1747 
Q 1441 1244 1636 976 
Q 1831 709 2203 709 
Q 2569 709 2762 976 
Q 2956 1244 2956 1747 
Q 2956 2250 2762 2517 
Q 2569 2784 2203 2784 
z
M 2203 3584 
Q 3106 3584 3614 3096 
Q 4122 2609 4122 1747 
Q 4122 884 3614 396 
Q 3106 -91 2203 -91 
Q 1297 -91 786 396 
Q 275 884 275 1747 
Q 275 2609 786 3096 
Q 1297 3584 2203 3584 
z
" transform="scale(0.015625)"/>
      <path id="DejaVuSans-Bold-63" d="M 3366 3391 
L 3366 2478 
Q 3138 2634 2908 2709 
Q 2678 2784 2431 2784 
Q 1963 2784 1702 2511 
Q 1441 2238 1441 1747 
Q 1441 1256 1702 982 
Q 1963 709 2431 709 
Q 2694 709 2930 787 
Q 3166 866 3366 1019 
L 3366 103 
Q 3103 6 2833 -42 
Q 2563 -91 2291 -91 
Q 1344 -91 809 395 
Q 275 881 275 1747 
Q 275 2613 809 3098 
Q 1344 3584 2291 3584 
Q 2566 3584 2833 3536 
Q 3100 3488 3366 3391 
z
" transform="scale(0.015625)"/>
      <path id="DejaVuSans-Bold-69" d="M 538 3500 
L 1656 3500 
L 1656 0 
L 538 0 
L 538 3500 
z
M 538 4863 
L 1656 4863 
L 1656 3950 
L 538 3950 
L 538 4863 
z
" transform="scale(0.015625)"/>
      <path id="DejaVuSans-Bold-74" d="M 1759 4494 
L 1759 3500 
L 2913 3500 
L 2913 2700 
L 1759 2700 
L 1759 1216 
Q 1759 972 1856 886 
Q 1953 800 2241 800 
L 2816 800 
L 2816 0 
L 1856 0 
Q 1194 0 917 276 
Q 641 553 641 1216 
L 641 2700 
L 84 2700 
L 84 3500 
L 641 3500 
L 641 4494 
L 1759 4494 
z
" transform="scale(0.015625)"/>
      <path id="DejaVuSans-Bold-73" d="M 3272 3391 
L 3272 2541 
Q 2913 2691 2578 2766 
Q 2244 2841 1947 2841 
Q 1628 2841 1473 2761 
Q 1319 2681 1319 2516 
Q 1319 2381 1436 2309 
Q 1553 2238 1856 2203 
L 2053 2175 
Q 2913 2066 3209 1816 
Q 3506 1566 3506 1031 
Q 3506 472 3093 190 
Q 2681 -91 1863 -91 
Q 1516 -91 1145 -36 
Q 775 19 384 128 
L 384 978 
Q 719 816 1070 734 
Q 1422 653 1784 653 
Q 2113 653 2278 743 
Q 2444 834 2444 1013 
Q 2444 1163 2330 1236 
Q 2216 1309 1875 1350 
L 1678 1375 
Q 931 1469 631 1722 
Q 331 1975 331 2491 
Q 331 3047 712 3315 
Q 1094 3584 1881 3584 
Q 2191 3584 2531 3537 
Q 2872 3491 3272 3391 
z
" transform="scale(0.015625)"/>
      <path id="DejaVuSans-Bold-20" transform="scale(0.015625)"/>
      <path id="DejaVuSans-Bold-61" d="M 2106 1575 
Q 1756 1575 1579 1456 
Q 1403 1338 1403 1106 
Q 1403 894 1545 773 
Q 1688 653 1941 653 
Q 2256 653 2472 879 
Q 2688 1106 2688 1447 
L 2688 1575 
L 2106 1575 
z
M 3816 1997 
L 3816 0 
L 2688 0 
L 2688 519 
Q 2463 200 2181 54 
Q 1900 -91 1497 -91 
Q 953 -91 614 226 
Q 275 544 275 1050 
Q 275 1666 698 1953 
Q 1122 2241 2028 2241 
L 2688 2241 
L 2688 2328 
Q 2688 2594 2478 2717 
Q 2269 2841 1825 2841 
Q 1466 2841 1156 2769 
Q 847 2697 581 2553 
L 581 3406 
Q 941 3494 1303 3539 
Q 1666 3584 2028 3584 
Q 2975 3584 3395 3211 
Q 3816 2838 3816 1997 
z
" transform="scale(0.015625)"/>
      <path id="DejaVuSans-Bold-68" d="M 4056 2131 
L 4056 0 
L 2931 0 
L 2931 347 
L 2931 1625 
Q 2931 2084 2911 2256 
Q 2891 2428 2841 2509 
Q 2775 2619 2662 2680 
Q 2550 2741 2406 2741 
Q 2056 2741 1856 2470 
Q 1656 2200 1656 1722 
L 1656 0 
L 538 0 
L 538 4863 
L 1656 4863 
L 1656 2988 
Q 1909 3294 2193 3439 
Q 2478 3584 2822 3584 
Q 3428 3584 3742 3212 
Q 4056 2841 4056 2131 
z
" transform="scale(0.015625)"/>
      <path id="DejaVuSans-Bold-66" d="M 2841 4863 
L 2841 4128 
L 2222 4128 
Q 1984 4128 1890 4042 
Q 1797 3956 1797 3744 
L 1797 3500 
L 2753 3500 
L 2753 2700 
L 1797 2700 
L 1797 0 
L 678 0 
L 678 2700 
L 122 2700 
L 122 3500 
L 678 3500 
L 678 3744 
Q 678 4316 997 4589 
Q 1316 4863 1984 4863 
L 2841 4863 
z
" transform="scale(0.015625)"/>
      <path id="DejaVuSans-Bold-6e" d="M 4056 2131 
L 4056 0 
L 2931 0 
L 2931 347 
L 2931 1631 
Q 2931 2084 2911 2256 
Q 2891 2428 2841 2509 
Q 2775 2619 2662 2680 
Q 2550 2741 2406 2741 
Q 2056 2741 1856 2470 
Q 1656 2200 1656 1722 
L 1656 0 
L 538 0 
L 538 3500 
L 1656 3500 
L 1656 2988 
Q 1909 3294 2193 3439 
Q 2478 3584 2822 3584 
Q 3428 3584 3742 3212 
Q 4056 2841 4056 2131 
z
" transform="scale(0.015625)"/>
      <path id="DejaVuSans-Bold-6d" d="M 3781 2919 
Q 3994 3244 4286 3414 
Q 4578 3584 4928 3584 
Q 5531 3584 5847 3212 
Q 6163 2841 6163 2131 
L 6163 0 
L 5038 0 
L 5038 1825 
Q 5041 1866 5042 1909 
Q 5044 1953 5044 2034 
Q 5044 2406 4934 2573 
Q 4825 2741 4581 2741 
Q 4263 2741 4089 2478 
Q 3916 2216 3909 1719 
L 3909 0 
L 2784 0 
L 2784 1825 
Q 2784 2406 2684 2573 
Q 2584 2741 2328 2741 
Q 2006 2741 1831 2477 
Q 1656 2213 1656 1722 
L 1656 0 
L 531 0 
L 531 3500 
L 1656 3500 
L 1656 2988 
Q 1863 3284 2130 3434 
Q 2397 3584 2719 3584 
Q 3081 3584 3359 3409 
Q 3638 3234 3781 2919 
z
" transform="scale(0.015625)"/>
     </defs>
     <use xlink:href="#DejaVuSans-Bold-56"/>
     <use xlink:href="#DejaVuSans-Bold-65" x="71.892578"/>
     <use xlink:href="#DejaVuSans-Bold-6c" x="139.714844"/>
     <use xlink:href="#DejaVuSans-Bold-6f" x="173.992188"/>
     <use xlink:href="#DejaVuSans-Bold-63" x="242.693359"/>
     <use xlink:href="#DejaVuSans-Bold-69" x="301.970703"/>
     <use xlink:href="#DejaVuSans-Bold-74" x="336.248047"/>
     <use xlink:href="#DejaVuSans-Bold-69" x="384.050781"/>
     <use xlink:href="#DejaVuSans-Bold-65" x="418.328125"/>
     <use xlink:href="#DejaVuSans-Bold-73" x="486.150391"/>
     <use xlink:href="#DejaVuSans-Bold-20" x="545.671875"/>
     <use xlink:href="#DejaVuSans-Bold-61" x="580.486328"/>
     <use xlink:href="#DejaVuSans-Bold-74" x="647.966797"/>
     <use xlink:href="#DejaVuSans-Bold-20" x="695.769531"/>
     <use xlink:href="#DejaVuSans-Bold-74" x="730.583984"/>
     <use xlink:href="#DejaVuSans-Bold-68" x="778.386719"/>
     <use xlink:href="#DejaVuSans-Bold-65" x="849.578125"/>
     <use xlink:href="#DejaVuSans-Bold-20" x="917.400391"/>
     <use xlink:href="#DejaVuSans-Bold-66" x="952.214844"/>
     <use xlink:href="#DejaVuSans-Bold-69" x="995.720703"/>
     <use xlink:href="#DejaVuSans-Bold-6e" x="1029.998047"/>
     <use xlink:href="#DejaVuSans-Bold-61" x="1101.189453"/>
     <use xlink:href="#DejaVuSans-Bold-6c" x="1168.669922"/>
     <use xlink:href="#DejaVuSans-Bold-20" x="1202.947266"/>
     <use xlink:href="#DejaVuSans-Bold-74" x="1237.761719"/>
     <use xlink:href="#DejaVuSans-Bold-69" x="1285.564453"/>
     <use xlink:href="#DejaVuSans-Bold-6d" x="1319.841797"/>
     <use xlink:href="#DejaVuSans-Bold-65" x="1424.041016"/>
    </g>
   </g>
  </g>
 </g>
 <defs>
  <clipPath id="pa9deed4877">
   <rect x="57.6" y="41.472" width="357.12" height="266.112"/>
  </clipPath>
 </defs>
</svg>
