<?xml version="1.0" encoding="utf-8" standalone="no"?>
<!DOCTYPE svg PUBLIC "-//W3C//DTD SVG 1.1//EN"
  "http://www.w3.org/Graphics/SVG/1.1/DTD/svg11.dtd">
<svg xmlns:xlink="http://www.w3.org/1999/xlink" width="460.8pt" height="345.6pt" viewBox="0 0 460.8 345.6" xmlns="http://www.w3.org/2000/svg" version="1.1">
 <metadata>
  <rdf:RDF xmlns:dc="http://purl.org/dc/elements/1.1/" xmlns:cc="http://creativecommons.org/ns#" xmlns:rdf="http://www.w3.org/1999/02/22-rdf-syntax-ns#">
   <cc:Work>
    <dc:type rdf:resource="http://purl.org/dc/dcmitype/StillImage"/>
    <dc:date>2025-03-06T16:55:22.896323</dc:date>
    <dc:format>image/svg+xml</dc:format>
    <dc:creator>
     <cc:Agent>
      <dc:title>Matplotlib v3.6.3, https://matplotlib.org/</dc:title>
     </cc:Agent>
    </dc:creator>
   </cc:Work>
  </rdf:RDF>
 </metadata>
 <defs>
  <style type="text/css">*{stroke-linejoin: round; stroke-linecap: butt}</style>
 </defs>
 <g id="figure_1">
  <g id="patch_1">
   <path d="M 0 345.6 
L 460.8 345.6 
L 460.8 0 
L 0 0 
z
" style="fill: #ffffff"/>
  </g>
  <g id="axes_1">
   <g id="patch_2">
    <path d="M 57.6 307.584 
L 414.72 307.584 
L 414.72 41.472 
L 57.6 41.472 
z
" style="fill: #ffffff"/>
   </g>
   <g id="Quiver_1">
    <path d="M 182.696075 156.477415 
L 175.546608 163.00253 
L 177.903327 163.909509 
L 167.278098 169.02002 
L 173.335577 158.904697 
L 174.024025 161.334259 
L 181.173492 154.809144 
L 182.696075 156.477415 
" clip-path="url(#pd599fb9246)"/>
    <path d="M 296.60981 244.854725 
L 289.465781 251.373447 
L 291.822401 252.280684 
L 281.196614 257.390034 
L 287.255197 247.275372 
L 287.94338 249.70501 
L 295.087409 243.186288 
L 296.60981 244.854725 
" clip-path="url(#pd599fb9246)"/>
    <path d="M 191.865174 129.217966 
L 184.712905 135.743672 
L 187.069488 136.651005 
L 176.443492 141.759922 
L 182.502488 131.645508 
L 183.190572 134.075173 
L 190.342841 127.549467 
L 191.865174 129.217966 
" clip-path="url(#pd599fb9246)"/>
    <path d="M 237.81871 137.847183 
L 230.669297 144.368883 
L 233.025783 145.276468 
L 222.399241 150.384249 
L 228.459319 140.270482 
L 229.147142 142.700221 
L 236.296555 136.178521 
L 237.81871 137.847183 
" clip-path="url(#pd599fb9246)"/>
    <path d="M 239.988147 194.298323 
L 232.844687 200.816451 
L 235.201302 201.723701 
L 224.575485 206.83299 
L 230.634127 196.718363 
L 231.322296 199.148005 
L 238.465755 192.629877 
L 239.988147 194.298323 
" clip-path="url(#pd599fb9246)"/>
    <path d="M 239.73473 270.588311 
L 232.590062 277.106282 
L 234.94659 278.013759 
L 224.320282 283.122027 
L 230.379896 273.007982 
L 231.067831 275.43769 
L 238.212499 268.919719 
L 239.73473 270.588311 
" clip-path="url(#pd599fb9246)"/>
    <path d="M 248.138576 238.904444 
L 240.996573 245.421595 
L 243.353212 246.328781 
L 232.727533 251.438356 
L 238.785902 241.323567 
L 239.474136 243.75319 
L 246.616139 237.236039 
L 248.138576 238.904444 
" clip-path="url(#pd599fb9246)"/>
    <path d="M 205.474183 102.680751 
L 198.319349 109.206483 
L 200.675772 110.114231 
L 190.048874 115.221272 
L 196.109656 105.107928 
L 196.797311 107.537715 
L 203.952145 101.011983 
L 205.474183 102.680751 
" clip-path="url(#pd599fb9246)"/>
    <path d="M 160.57784 137.629617 
L 153.424919 144.158265 
L 155.781664 145.065175 
L 145.156583 150.175994 
L 151.213769 140.060495 
L 151.902288 142.490038 
L 159.055208 135.961391 
L 160.57784 137.629617 
" clip-path="url(#pd599fb9246)"/>
    <path d="M 205.78588 173.957133 
L 198.639139 180.479002 
L 200.995805 181.386117 
L 190.370279 186.496012 
L 196.428345 176.38104 
L 197.116652 178.810643 
L 204.263393 172.288774 
L 205.78588 173.957133 
" clip-path="url(#pd599fb9246)"/>
    <path d="M 176.138131 182.528141 
L 168.989958 189.052603 
L 171.346713 189.959487 
L 160.721689 195.070424 
L 166.778762 184.954858 
L 167.467308 187.384393 
L 174.615481 180.859932 
L 176.138131 182.528141 
" clip-path="url(#pd599fb9246)"/>
    <path d="M 264.650984 124.238082 
L 257.501263 130.757586 
L 259.857577 131.665616 
L 249.230069 136.771387 
L 255.29206 126.658766 
L 255.979424 129.088636 
L 263.129145 122.569132 
L 264.650984 124.238082 
" clip-path="url(#pd599fb9246)"/>
    <path d="M 270.316947 262.55853 
L 263.172759 269.076645 
L 265.529326 269.984017 
L 254.903245 275.092756 
L 260.962411 264.978443 
L 261.650453 267.40812 
L 268.794642 260.890005 
L 270.316947 262.55853 
" clip-path="url(#pd599fb9246)"/>
    <path d="M 253.272122 93.943902 
L 246.117163 100.466716 
L 248.473376 101.37501 
L 237.845297 106.479593 
L 243.908418 96.36765 
L 244.595511 98.797596 
L 251.750469 92.274782 
L 253.272122 93.943902 
" clip-path="url(#pd599fb9246)"/>
    <path d="M 315.083341 90.491135 
L 307.931726 97.009826 
L 310.287864 97.918314 
L 299.659366 103.022023 
L 305.723318 92.910579 
L 306.41021 95.340581 
L 313.561826 88.82189 
L 315.083341 90.491135 
" clip-path="url(#pd599fb9246)"/>
    <path d="M 219.618521 247.764926 
L 212.476765 254.281679 
L 214.833392 255.188897 
L 204.207646 260.298333 
L 210.266148 250.183623 
L 210.95435 252.613255 
L 218.096106 246.096501 
L 219.618521 247.764926 
" clip-path="url(#pd599fb9246)"/>
    <path d="M 138.752262 113.220024 
L 131.596169 119.751284 
L 133.952895 120.658246 
L 123.327703 125.768835 
L 129.385107 115.653467 
L 130.073573 118.083025 
L 137.229666 111.551764 
L 138.752262 113.220024 
" clip-path="url(#pd599fb9246)"/>
    <path d="M 222.914989 217.740922 
L 215.771567 224.258835 
L 218.128169 225.166118 
L 207.502282 230.27526 
L 213.561063 220.160717 
L 214.249198 222.590368 
L 221.39262 216.072455 
L 222.914989 217.740922 
" clip-path="url(#pd599fb9246)"/>
    <path d="M 258.687288 154.445881 
L 251.540916 160.964668 
L 253.897392 161.872278 
L 243.270796 166.979946 
L 249.330981 156.866244 
L 250.018779 159.29599 
L 257.165151 152.777202 
L 258.687288 154.445881 
" clip-path="url(#pd599fb9246)"/>
    <path d="M 232.756373 167.187952 
L 225.609691 173.708433 
L 227.966265 174.615789 
L 217.340219 179.724602 
L 223.399314 169.610247 
L 224.087374 172.039919 
L 231.234057 165.519438 
L 232.756373 167.187952 
" clip-path="url(#pd599fb9246)"/>
    <path d="M 291.336289 102.436988 
L 284.184108 108.955764 
L 286.540216 109.864329 
L 275.91155 114.967688 
L 281.975835 104.856444 
L 282.662648 107.286469 
L 289.814829 100.767693 
L 291.336289 102.436988 
" clip-path="url(#pd599fb9246)"/>
    <path d="M 275.601492 99.211879 
L 268.448589 105.731267 
L 270.804694 106.63984 
L 260.17601 111.743162 
L 266.24033 101.631939 
L 266.927135 104.061966 
L 274.080038 97.542579 
L 275.601492 99.211879 
" clip-path="url(#pd599fb9246)"/>
    <path d="M 228.31152 54.402543 
L 221.154801 60.927252 
L 223.511033 61.835493 
L 212.883067 66.94031 
L 218.945966 56.828234 
L 219.633111 59.258165 
L 226.789831 52.733457 
L 228.31152 54.402543 
" clip-path="url(#pd599fb9246)"/>
    <path d="M 220.418963 190.582357 
L 213.273681 197.103009 
L 215.630355 198.010104 
L 205.004875 203.120092 
L 211.062851 193.005066 
L 211.75118 195.434663 
L 218.896461 188.914011 
L 220.418963 190.582357 
" clip-path="url(#pd599fb9246)"/>
    <path d="M 229.849381 73.724415 
L 222.69344 80.248035 
L 225.049646 81.156345 
L 214.421532 86.260854 
L 220.484723 76.148953 
L 221.171799 78.578904 
L 228.32774 72.055284 
L 229.849381 73.724415 
" clip-path="url(#pd599fb9246)"/>
    <path d="M 209.03658 76.874555 
L 201.879085 83.400727 
L 204.23537 84.308833 
L 193.607699 89.414264 
L 199.670013 79.301837 
L 200.3573 81.731729 
L 207.514794 75.205556 
L 209.03658 76.874555 
" clip-path="url(#pd599fb9246)"/>
    <path d="M 279.673545 287.523253 
L 272.522636 294.045537 
L 274.879068 294.953262 
L 264.252221 300.060409 
L 270.312902 289.947004 
L 271.000581 292.376784 
L 278.15149 285.8545 
L 279.673545 287.523253 
" clip-path="url(#pd599fb9246)"/>
    <path d="M 309.690031 179.90001 
L 302.545334 186.417933 
L 304.901856 187.325423 
L 294.27552 192.433631 
L 300.335191 182.319621 
L 301.023112 184.749333 
L 308.167809 178.231409 
L 309.690031 179.90001 
" clip-path="url(#pd599fb9246)"/>
    <path d="M 147.499784 207.233903 
L 140.351318 213.761528 
L 142.708274 214.667892 
L 132.08438 219.781178 
L 138.139216 209.664273 
L 138.828299 212.093655 
L 145.976765 205.56603 
L 147.499784 207.233903 
" clip-path="url(#pd599fb9246)"/>
    <path d="M 150.99961 190.018334 
L 143.850682 196.545683 
L 146.20759 197.452172 
L 135.583424 202.564893 
L 141.638799 192.44831 
L 142.327752 194.877729 
L 149.476679 188.35038 
L 150.99961 190.018334 
" clip-path="url(#pd599fb9246)"/>
    <path d="M 307.703336 155.291441 
L 300.556857 161.80851 
L 302.913207 162.716447 
L 292.285903 167.822641 
L 298.34749 157.709779 
L 299.034952 160.139621 
L 306.18143 153.622552 
L 307.703336 155.291441 
" clip-path="url(#pd599fb9246)"/>
    <path d="M 259.826981 292.051528 
L 252.678833 298.571097 
L 255.035251 299.478857 
L 244.408328 304.585845 
L 250.46916 294.472531 
L 251.156803 296.902321 
L 258.30495 290.382753 
L 259.826981 292.051528 
" clip-path="url(#pd599fb9246)"/>
    <path d="M 312.825522 267.03773 
L 305.674978 273.560758 
L 308.031484 274.468289 
L 297.405058 279.57631 
L 303.464907 269.462407 
L 304.152786 271.892131 
L 311.30333 265.369103 
L 312.825522 267.03773 
" clip-path="url(#pd599fb9246)"/>
    <path d="M 286.997083 220.002071 
L 279.854524 226.51867 
L 282.21109 227.426047 
L 271.584997 232.534762 
L 277.644185 222.420463 
L 278.332222 224.850142 
L 285.474782 218.333542 
L 286.997083 220.002071 
" clip-path="url(#pd599fb9246)"/>
    <path d="M 151.937141 87.949828 
L 144.779222 94.480709 
L 147.135807 95.388038 
L 136.509818 100.49697 
L 142.5688 90.382547 
L 143.256887 92.812212 
L 150.414805 86.281331 
L 151.937141 87.949828 
" clip-path="url(#pd599fb9246)"/>
    <path d="M 307.85015 116.894318 
L 300.699914 123.411921 
L 303.056063 124.320378 
L 292.427631 129.424224 
L 298.491453 119.312702 
L 299.178377 121.742696 
L 306.328613 115.225093 
L 307.85015 116.894318 
" clip-path="url(#pd599fb9246)"/>
    <path d="M 269.14282 176.657251 
L 261.999248 183.174215 
L 264.355775 184.081693 
L 253.729464 189.189955 
L 259.789084 179.075914 
L 260.477018 181.505622 
L 267.62059 174.988657 
L 269.14282 176.657251 
" clip-path="url(#pd599fb9246)"/>
    <path d="M 180.42314 283.306198 
L 173.279853 289.82782 
L 175.636721 290.734413 
L 165.01233 295.846666 
L 171.06815 285.73035 
L 171.756996 288.159799 
L 178.900283 281.638177 
L 180.42314 283.306198 
" clip-path="url(#pd599fb9246)"/>
    <path d="M 228.280227 111.074189 
L 221.127827 117.596567 
L 223.484171 118.50452 
L 212.856831 123.610641 
L 218.918488 113.497821 
L 219.605933 115.927667 
L 226.758333 109.405289 
L 228.280227 111.074189 
" clip-path="url(#pd599fb9246)"/>
    <path d="M 308.663683 201.451453 
L 301.518696 207.971131 
L 303.875322 208.878352 
L 293.249566 213.987769 
L 299.308087 203.873069 
L 299.996285 206.302703 
L 307.141272 199.783025 
L 308.663683 201.451453 
" clip-path="url(#pd599fb9246)"/>
    <path d="M 238.110516 296.322171 
L 230.966212 302.841964 
L 233.322888 303.749053 
L 222.697421 308.859068 
L 228.755371 298.744027 
L 229.443706 301.173622 
L 236.58801 294.653829 
L 238.110516 296.322171 
" clip-path="url(#pd599fb9246)"/>
    <path d="M 322.441144 216.092979 
L 315.296946 222.612504 
L 317.653611 223.519624 
L 307.028077 228.629501 
L 313.08616 218.514539 
L 313.774463 220.944143 
L 320.91866 214.424618 
L 322.441144 216.092979 
" clip-path="url(#pd599fb9246)"/>
    <path d="M 296.618507 276.804241 
L 289.468152 283.326887 
L 291.824643 284.234456 
L 281.198135 289.342307 
L 287.258146 279.228501 
L 287.945986 281.658235 
L 295.096341 275.135589 
L 296.618507 276.804241 
" clip-path="url(#pd599fb9246)"/>
    <path d="M 187.279512 83.264362 
L 180.121814 89.792504 
L 182.478222 90.70029 
L 171.851246 95.807166 
L 177.912184 85.693915 
L 178.599801 88.123713 
L 185.7575 81.59557 
L 187.279512 83.264362 
" clip-path="url(#pd599fb9246)"/>
    <path d="M 168.304589 75.680263 
L 161.146216 82.209971 
L 163.50269 83.117585 
L 152.876084 88.225233 
L 158.936289 78.111542 
L 159.624082 80.54129 
L 166.782455 74.011582 
L 168.304589 75.680263 
" clip-path="url(#pd599fb9246)"/>
    <path d="M 187.641046 64.359954 
L 180.482757 70.888209 
L 182.839136 71.796071 
L 172.211994 76.902602 
L 178.273261 66.789548 
L 178.960799 69.219368 
L 186.119088 62.691113 
L 187.641046 64.359954 
" clip-path="url(#pd599fb9246)"/>
    <path d="M 207.886927 58.049872 
L 200.729268 64.576358 
L 203.085565 65.484435 
L 192.457957 70.589998 
L 198.520145 60.477496 
L 199.207462 62.907379 
L 206.365121 56.380893 
L 207.886927 58.049872 
" clip-path="url(#pd599fb9246)"/>
    <path d="M 341.617704 233.886691 
L 334.47269 240.403977 
L 336.829148 241.311634 
L 326.20245 246.419088 
L 332.262838 236.305508 
L 332.950587 238.735268 
L 340.095601 232.217983 
L 341.617704 233.886691 
" clip-path="url(#pd599fb9246)"/>
    <path d="M 321.425093 234.922373 
L 314.282061 241.442749 
L 316.638858 242.349524 
L 306.014071 247.460954 
L 312.070675 237.345106 
L 312.759333 239.774609 
L 319.902366 233.254234 
L 321.425093 234.922373 
" clip-path="url(#pd599fb9246)"/>
    <path d="M 252.844818 175.975145 
L 245.700471 182.49306 
L 248.057015 183.400494 
L 237.4308 188.508954 
L 243.490231 178.3948 
L 244.17821 180.824495 
L 251.322556 174.306581 
L 252.844818 175.975145 
" clip-path="url(#pd599fb9246)"/>
    <path d="M 296.928186 169.570859 
L 289.783768 176.087847 
L 292.140243 176.99546 
L 281.51364 182.103114 
L 287.573838 171.989419 
L 288.261633 174.419167 
L 295.406051 167.902179 
L 296.928186 169.570859 
" clip-path="url(#pd599fb9246)"/>
    <path d="M 272.713004 235.998563 
L 265.570999 242.515159 
L 267.9276 243.422446 
L 257.301703 248.531569 
L 263.360503 238.417037 
L 264.048634 240.846689 
L 271.190639 234.330093 
L 272.713004 235.998563 
" clip-path="url(#pd599fb9246)"/>
    <path d="M 303.301988 218.839881 
L 296.158467 225.359329 
L 298.51517 226.266351 
L 287.889846 231.376667 
L 293.947511 221.261455 
L 294.635915 223.69103 
L 301.779436 217.171582 
L 303.301988 218.839881 
" clip-path="url(#pd599fb9246)"/>
    <path d="M 288.309665 120.273321 
L 281.160172 126.791312 
L 283.516395 127.699578 
L 272.888379 132.804289 
L 278.951377 122.692273 
L 279.638499 125.122211 
L 286.787992 118.604219 
L 288.309665 120.273321 
" clip-path="url(#pd599fb9246)"/>
    <path d="M 242.930752 115.754885 
L 235.778103 122.277997 
L 238.134482 123.185858 
L 227.50734 128.29239 
L 233.568607 118.179336 
L 234.256145 120.609156 
L 241.408794 114.086044 
L 242.930752 115.754885 
" clip-path="url(#pd599fb9246)"/>
    <path d="M 217.591501 124.866482 
L 210.440623 131.3895 
L 212.797108 132.297088 
L 202.170559 137.404854 
L 208.230651 127.291096 
L 208.918471 129.720836 
L 216.069348 123.197818 
L 217.591501 124.866482 
" clip-path="url(#pd599fb9246)"/>
    <path d="M 322.90415 165.078202 
L 315.757812 171.595791 
L 318.114207 172.503611 
L 307.487155 177.610331 
L 313.548242 167.497169 
L 314.235824 169.926977 
L 321.382162 163.409388 
L 322.90415 165.078202 
" clip-path="url(#pd599fb9246)"/>
    <path d="M 357.074103 178.178279 
L 349.9282 184.694209 
L 352.284507 185.602256 
L 341.656964 190.707952 
L 347.719025 180.595375 
L 348.406373 183.025249 
L 355.552276 176.509318 
L 357.074103 178.178279 
" clip-path="url(#pd599fb9246)"/>
    <path d="M 337.812535 176.901374 
L 330.666682 183.418522 
L 333.023078 184.326342 
L 322.396027 189.433064 
L 328.457112 179.319901 
L 329.144694 181.749709 
L 336.290547 175.232561 
L 337.812535 176.901374 
" clip-path="url(#pd599fb9246)"/>
    <path d="M 280.912116 167.692009 
L 273.768061 174.208437 
L 276.12452 175.116091 
L 265.497828 180.223559 
L 271.558203 170.10997 
L 272.245956 172.53973 
L 279.390011 166.023302 
L 280.912116 167.692009 
" clip-path="url(#pd599fb9246)"/>
    <path d="M 244.036414 216.537695 
L 236.892905 223.0559 
L 239.249522 223.963145 
L 228.623717 229.07246 
L 234.682334 218.957818 
L 235.370509 221.387458 
L 242.514019 214.869253 
L 244.036414 216.537695 
" clip-path="url(#pd599fb9246)"/>
    <path d="M 306.921978 133.910667 
L 299.775642 140.427056 
L 302.131954 141.335091 
L 291.504435 146.440839 
L 297.566448 136.328232 
L 298.253807 138.758103 
L 305.400143 132.241714 
L 306.921978 133.910667 
" clip-path="url(#pd599fb9246)"/>
    <path d="M 228.266243 91.497911 
L 221.110869 98.021173 
L 223.467086 98.929454 
L 212.839034 104.034092 
L 218.902102 93.922118 
L 219.589207 96.352061 
L 226.744581 89.828799 
L 228.266243 91.497911 
" clip-path="url(#pd599fb9246)"/>
    <path d="M 323.676959 190.717593 
L 316.531286 197.2362 
L 318.887793 198.143727 
L 308.261376 203.251767 
L 314.321207 193.137852 
L 315.00909 195.567575 
L 322.154764 189.048968 
L 323.676959 190.717593 
" clip-path="url(#pd599fb9246)"/>
    <path d="M 144.696654 255.668803 
L 137.552926 262.194993 
L 139.910081 263.100836 
L 129.287315 268.216466 
L 135.33992 258.098225 
L 136.029539 260.527456 
L 143.173268 254.001266 
L 144.696654 255.668803 
" clip-path="url(#pd599fb9246)"/>
    <path d="M 322.512949 142.900879 
L 315.365687 149.418509 
L 317.722027 150.326473 
L 307.094663 155.432542 
L 313.156369 145.319752 
L 313.843801 147.749602 
L 320.991062 141.231972 
L 322.512949 142.900879 
" clip-path="url(#pd599fb9246)"/>
    <path d="M 327.88259 253.111733 
L 320.733836 259.634054 
L 323.090406 260.541419 
L 312.464341 265.650191 
L 318.523475 255.535859 
L 319.211525 257.965534 
L 326.36028 251.443213 
L 327.88259 253.111733 
" clip-path="url(#pd599fb9246)"/>
    <path d="M 116.768343 168.497125 
L 109.616475 175.028223 
L 111.973456 175.93452 
L 101.349704 181.048102 
L 107.404259 170.931028 
L 108.093409 173.360392 
L 115.245278 166.829295 
L 116.768343 168.497125 
" clip-path="url(#pd599fb9246)"/>
    <path d="M 262.380981 191.358018 
L 255.237816 197.874993 
L 257.594369 198.782402 
L 246.968207 203.890973 
L 253.027532 193.776756 
L 253.715537 196.206444 
L 260.858702 189.689469 
L 262.380981 191.358018 
" clip-path="url(#pd599fb9246)"/>
    <path d="M 162.75492 269.663108 
L 155.612462 276.186709 
L 157.969519 277.09281 
L 147.346196 282.207282 
L 153.399903 272.089701 
L 154.089257 274.519006 
L 161.231714 267.995405 
L 162.75492 269.663108 
" clip-path="url(#pd599fb9246)"/>
    <path d="M 200.414437 200.38169 
L 193.268191 206.903016 
L 195.624851 207.810148 
L 184.999291 212.91997 
L 191.057425 202.805039 
L 191.745716 205.234647 
L 198.891962 198.71332 
L 200.414437 200.38169 
" clip-path="url(#pd599fb9246)"/>
    <path d="M 335.94284 118.1999 
L 328.793588 124.716961 
L 331.149762 125.625354 
L 320.521468 130.729489 
L 326.585015 120.617802 
L 327.272006 123.047777 
L 334.421258 116.530716 
L 335.94284 118.1999 
" clip-path="url(#pd599fb9246)"/>
    <path d="M 210.489 286.122094 
L 203.345353 292.643208 
L 205.702163 293.549952 
L 195.077445 298.661526 
L 201.133912 288.545596 
L 201.822603 290.97509 
L 208.96625 284.453976 
L 210.489 286.122094 
" clip-path="url(#pd599fb9246)"/>
    <path d="M 346.400289 205.346289 
L 339.255733 211.862858 
L 341.612171 212.770569 
L 330.985356 217.877782 
L 337.045974 207.764339 
L 337.733668 210.194115 
L 344.878224 203.677545 
L 346.400289 205.346289 
" clip-path="url(#pd599fb9246)"/>
    <path d="M 190.824069 260.08991 
L 183.683179 266.610052 
L 186.040096 267.516517 
L 175.415981 272.629345 
L 181.471254 262.512701 
L 182.160232 264.942114 
L 189.301122 258.421971 
L 190.824069 260.08991 
" clip-path="url(#pd599fb9246)"/>
    <path d="M 285.237341 144.984328 
L 278.09089 151.501266 
L 280.447233 152.409221 
L 269.819887 157.515329 
L 275.881557 147.402516 
L 276.568998 149.832364 
L 283.715449 143.315427 
L 285.237341 144.984328 
" clip-path="url(#pd599fb9246)"/>
    <path d="M 133.044442 227.210697 
L 125.897715 233.739103 
L 128.254834 234.64504 
L 117.631865 239.760246 
L 123.684873 229.642247 
L 124.374395 232.071505 
L 131.521121 225.543099 
L 133.044442 227.210697 
" clip-path="url(#pd599fb9246)"/>
    <path d="M 172.059429 105.988877 
L 164.903522 112.517637 
L 167.260087 113.425017 
L 156.633988 118.533719 
L 162.693189 108.419427 
L 163.381223 110.849107 
L 170.537129 104.320347 
L 172.059429 105.988877 
" clip-path="url(#pd599fb9246)"/>
    <path d="M 164.563648 240.629534 
L 157.419644 247.153739 
L 159.776645 248.059985 
L 149.153006 253.173801 
L 155.207338 243.056594 
L 155.896541 245.485942 
L 163.040546 238.961737 
L 164.563648 240.629534 
" clip-path="url(#pd599fb9246)"/>
    <path d="M 195.767073 228.93162 
L 188.622905 235.452192 
L 190.979644 236.359118 
L 180.354529 241.469866 
L 186.411782 231.354408 
L 187.100284 233.783955 
L 194.244452 227.263384 
L 195.767073 228.93162 
" clip-path="url(#pd599fb9246)"/>
    <path d="M 286.987882 193.275812 
L 279.844592 199.792804 
L 282.201138 200.700231 
L 271.574939 205.808724 
L 277.634339 195.694551 
L 278.322325 198.124244 
L 285.465616 191.607252 
L 286.987882 193.275812 
" clip-path="url(#pd599fb9246)"/>
    <path d="M 348.188415 150.343588 
L 341.041359 156.859935 
L 343.397622 157.768096 
L 332.769831 162.873276 
L 338.832383 152.760993 
L 339.519612 155.1909 
L 346.666668 148.674554 
L 348.188415 150.343588 
" clip-path="url(#pd599fb9246)"/>
    <path d="M 148.862905 166.674157 
L 141.712076 173.202476 
L 144.068931 174.109103 
L 133.444466 179.221203 
L 139.500432 169.104974 
L 140.189243 171.534433 
L 147.340072 165.006114 
L 148.862905 166.674157 
" clip-path="url(#pd599fb9246)"/>
    <path d="M 265.611046 213.294478 
L 258.468045 219.811623 
L 260.824621 220.718975 
L 250.198584 225.827807 
L 256.257661 215.713441 
L 256.945725 218.143112 
L 264.088726 211.625967 
L 265.611046 213.294478 
" clip-path="url(#pd599fb9246)"/>
    <path d="M 125.564133 144.131494 
L 118.410433 150.662693 
L 120.767306 151.569273 
L 110.142942 156.681583 
L 116.198708 146.565234 
L 116.887568 148.99468 
L 124.041267 142.463481 
L 125.564133 144.131494 
" clip-path="url(#pd599fb9246)"/>
    <path d="M 122.888928 193.125764 
L 115.739191 199.65565 
L 118.096222 200.561816 
L 107.472757 205.675992 
L 113.526746 195.55858 
L 114.216032 197.987904 
L 121.365769 191.458019 
L 122.888928 193.125764 
" clip-path="url(#pd599fb9246)"/>
    <path d="M 212.558219 147.810404 
L 205.409048 154.332722 
L 207.765592 155.240156 
L 197.139377 160.348617 
L 203.198807 150.234463 
L 203.886786 152.664158 
L 211.035958 146.141839 
L 212.558219 147.810404 
" clip-path="url(#pd599fb9246)"/>
    <path d="M 286.449908 72.432333 
L 279.29628 78.952757 
L 281.652411 79.861263 
L 271.023873 84.96489 
L 277.087904 74.853493 
L 277.774778 77.283501 
L 284.928406 70.763077 
L 286.449908 72.432333 
" clip-path="url(#pd599fb9246)"/>
    <path d="M 255.675076 61.755546 
L 248.519599 68.278663 
L 250.875799 69.186987 
L 240.247654 74.291431 
L 246.310907 64.179568 
L 246.997968 66.609523 
L 254.153445 60.086407 
L 255.675076 61.755546 
" clip-path="url(#pd599fb9246)"/>
    <path d="M 171.485955 210.711883 
L 164.339 217.236209 
L 166.695823 218.142918 
L 156.07118 223.254647 
L 162.127498 213.138629 
L 162.816225 215.568113 
L 169.963181 209.043786 
L 171.485955 210.711883 
" clip-path="url(#pd599fb9246)"/>
   </g>
   <g id="matplotlib.axis_1">
    <g id="xtick_1">
     <g id="line2d_1">
      <defs>
       <path id="m5d29b8a7b2" d="M 0 0 
L 0 3.5 
" style="stroke: #000000; stroke-width: 0.8"/>
      </defs>
      <g>
       <use xlink:href="#m5d29b8a7b2" x="83.122459" y="307.584" style="stroke: #000000; stroke-width: 0.8"/>
      </g>
     </g>
     <g id="text_1">
      <!-- −86.5 -->
      <g transform="translate(64.735271 323.702125) scale(0.12 -0.12)">
       <defs>
        <path id="DejaVuSans-2212" d="M 678 2272 
L 4684 2272 
L 4684 1741 
L 678 1741 
L 678 2272 
z
" transform="scale(0.015625)"/>
        <path id="DejaVuSans-38" d="M 2034 2216 
Q 1584 2216 1326 1975 
Q 1069 1734 1069 1313 
Q 1069 891 1326 650 
Q 1584 409 2034 409 
Q 2484 409 2743 651 
Q 3003 894 3003 1313 
Q 3003 1734 2745 1975 
Q 2488 2216 2034 2216 
z
M 1403 2484 
Q 997 2584 770 2862 
Q 544 3141 544 3541 
Q 544 4100 942 4425 
Q 1341 4750 2034 4750 
Q 2731 4750 3128 4425 
Q 3525 4100 3525 3541 
Q 3525 3141 3298 2862 
Q 3072 2584 2669 2484 
Q 3125 2378 3379 2068 
Q 3634 1759 3634 1313 
Q 3634 634 3220 271 
Q 2806 -91 2034 -91 
Q 1263 -91 848 271 
Q 434 634 434 1313 
Q 434 1759 690 2068 
Q 947 2378 1403 2484 
z
M 1172 3481 
Q 1172 3119 1398 2916 
Q 1625 2713 2034 2713 
Q 2441 2713 2670 2916 
Q 2900 3119 2900 3481 
Q 2900 3844 2670 4047 
Q 2441 4250 2034 4250 
Q 1625 4250 1398 4047 
Q 1172 3844 1172 3481 
z
" transform="scale(0.015625)"/>
        <path id="DejaVuSans-36" d="M 2113 2584 
Q 1688 2584 1439 2293 
Q 1191 2003 1191 1497 
Q 1191 994 1439 701 
Q 1688 409 2113 409 
Q 2538 409 2786 701 
Q 3034 994 3034 1497 
Q 3034 2003 2786 2293 
Q 2538 2584 2113 2584 
z
M 3366 4563 
L 3366 3988 
Q 3128 4100 2886 4159 
Q 2644 4219 2406 4219 
Q 1781 4219 1451 3797 
Q 1122 3375 1075 2522 
Q 1259 2794 1537 2939 
Q 1816 3084 2150 3084 
Q 2853 3084 3261 2657 
Q 3669 2231 3669 1497 
Q 3669 778 3244 343 
Q 2819 -91 2113 -91 
Q 1303 -91 875 529 
Q 447 1150 447 2328 
Q 447 3434 972 4092 
Q 1497 4750 2381 4750 
Q 2619 4750 2861 4703 
Q 3103 4656 3366 4563 
z
" transform="scale(0.015625)"/>
        <path id="DejaVuSans-2e" d="M 684 794 
L 1344 794 
L 1344 0 
L 684 0 
L 684 794 
z
" transform="scale(0.015625)"/>
        <path id="DejaVuSans-35" d="M 691 4666 
L 3169 4666 
L 3169 4134 
L 1269 4134 
L 1269 2991 
Q 1406 3038 1543 3061 
Q 1681 3084 1819 3084 
Q 2600 3084 3056 2656 
Q 3513 2228 3513 1497 
Q 3513 744 3044 326 
Q 2575 -91 1722 -91 
Q 1428 -91 1123 -41 
Q 819 9 494 109 
L 494 744 
Q 775 591 1075 516 
Q 1375 441 1709 441 
Q 2250 441 2565 725 
Q 2881 1009 2881 1497 
Q 2881 1984 2565 2268 
Q 2250 2553 1709 2553 
Q 1456 2553 1204 2497 
Q 953 2441 691 2322 
L 691 4666 
z
" transform="scale(0.015625)"/>
       </defs>
       <use xlink:href="#DejaVuSans-2212"/>
       <use xlink:href="#DejaVuSans-38" x="83.789062"/>
       <use xlink:href="#DejaVuSans-36" x="147.412109"/>
       <use xlink:href="#DejaVuSans-2e" x="211.035156"/>
       <use xlink:href="#DejaVuSans-35" x="242.822266"/>
      </g>
     </g>
    </g>
    <g id="xtick_2">
     <g id="line2d_2">
      <g>
       <use xlink:href="#m5d29b8a7b2" x="144.933196" y="307.584" style="stroke: #000000; stroke-width: 0.8"/>
      </g>
     </g>
     <g id="text_2">
      <!-- −86.0 -->
      <g transform="translate(126.546008 323.702125) scale(0.12 -0.12)">
       <defs>
        <path id="DejaVuSans-30" d="M 2034 4250 
Q 1547 4250 1301 3770 
Q 1056 3291 1056 2328 
Q 1056 1369 1301 889 
Q 1547 409 2034 409 
Q 2525 409 2770 889 
Q 3016 1369 3016 2328 
Q 3016 3291 2770 3770 
Q 2525 4250 2034 4250 
z
M 2034 4750 
Q 2819 4750 3233 4129 
Q 3647 3509 3647 2328 
Q 3647 1150 3233 529 
Q 2819 -91 2034 -91 
Q 1250 -91 836 529 
Q 422 1150 422 2328 
Q 422 3509 836 4129 
Q 1250 4750 2034 4750 
z
" transform="scale(0.015625)"/>
       </defs>
       <use xlink:href="#DejaVuSans-2212"/>
       <use xlink:href="#DejaVuSans-38" x="83.789062"/>
       <use xlink:href="#DejaVuSans-36" x="147.412109"/>
       <use xlink:href="#DejaVuSans-2e" x="211.035156"/>
       <use xlink:href="#DejaVuSans-30" x="242.822266"/>
      </g>
     </g>
    </g>
    <g id="xtick_3">
     <g id="line2d_3">
      <g>
       <use xlink:href="#m5d29b8a7b2" x="206.743933" y="307.584" style="stroke: #000000; stroke-width: 0.8"/>
      </g>
     </g>
     <g id="text_3">
      <!-- −85.5 -->
      <g transform="translate(188.356745 323.702125) scale(0.12 -0.12)">
       <use xlink:href="#DejaVuSans-2212"/>
       <use xlink:href="#DejaVuSans-38" x="83.789062"/>
       <use xlink:href="#DejaVuSans-35" x="147.412109"/>
       <use xlink:href="#DejaVuSans-2e" x="211.035156"/>
       <use xlink:href="#DejaVuSans-35" x="242.822266"/>
      </g>
     </g>
    </g>
    <g id="xtick_4">
     <g id="line2d_4">
      <g>
       <use xlink:href="#m5d29b8a7b2" x="268.55467" y="307.584" style="stroke: #000000; stroke-width: 0.8"/>
      </g>
     </g>
     <g id="text_4">
      <!-- −85.0 -->
      <g transform="translate(250.167482 323.702125) scale(0.12 -0.12)">
       <use xlink:href="#DejaVuSans-2212"/>
       <use xlink:href="#DejaVuSans-38" x="83.789062"/>
       <use xlink:href="#DejaVuSans-35" x="147.412109"/>
       <use xlink:href="#DejaVuSans-2e" x="211.035156"/>
       <use xlink:href="#DejaVuSans-30" x="242.822266"/>
      </g>
     </g>
    </g>
    <g id="xtick_5">
     <g id="line2d_5">
      <g>
       <use xlink:href="#m5d29b8a7b2" x="330.365407" y="307.584" style="stroke: #000000; stroke-width: 0.8"/>
      </g>
     </g>
     <g id="text_5">
      <!-- −84.5 -->
      <g transform="translate(311.978219 323.702125) scale(0.12 -0.12)">
       <defs>
        <path id="DejaVuSans-34" d="M 2419 4116 
L 825 1625 
L 2419 1625 
L 2419 4116 
z
M 2253 4666 
L 3047 4666 
L 3047 1625 
L 3713 1625 
L 3713 1100 
L 3047 1100 
L 3047 0 
L 2419 0 
L 2419 1100 
L 313 1100 
L 313 1709 
L 2253 4666 
z
" transform="scale(0.015625)"/>
       </defs>
       <use xlink:href="#DejaVuSans-2212"/>
       <use xlink:href="#DejaVuSans-38" x="83.789062"/>
       <use xlink:href="#DejaVuSans-34" x="147.412109"/>
       <use xlink:href="#DejaVuSans-2e" x="211.035156"/>
       <use xlink:href="#DejaVuSans-35" x="242.822266"/>
      </g>
     </g>
    </g>
    <g id="xtick_6">
     <g id="line2d_6">
      <g>
       <use xlink:href="#m5d29b8a7b2" x="392.176144" y="307.584" style="stroke: #000000; stroke-width: 0.8"/>
      </g>
     </g>
     <g id="text_6">
      <!-- −84.0 -->
      <g transform="translate(373.788957 323.702125) scale(0.12 -0.12)">
       <use xlink:href="#DejaVuSans-2212"/>
       <use xlink:href="#DejaVuSans-38" x="83.789062"/>
       <use xlink:href="#DejaVuSans-34" x="147.412109"/>
       <use xlink:href="#DejaVuSans-2e" x="211.035156"/>
       <use xlink:href="#DejaVuSans-30" x="242.822266"/>
      </g>
     </g>
    </g>
    <g id="text_7">
     <!-- x -->
     <g transform="translate(232.016875 340.835562) scale(0.14 -0.14)">
      <defs>
       <path id="DejaVuSans-78" d="M 3513 3500 
L 2247 1797 
L 3578 0 
L 2900 0 
L 1881 1375 
L 863 0 
L 184 0 
L 1544 1831 
L 300 3500 
L 978 3500 
L 1906 2253 
L 2834 3500 
L 3513 3500 
z
" transform="scale(0.015625)"/>
      </defs>
      <use xlink:href="#DejaVuSans-78"/>
     </g>
    </g>
   </g>
   <g id="matplotlib.axis_2">
    <g id="ytick_1">
     <g id="line2d_7">
      <defs>
       <path id="m4e4d10f02b" d="M 0 0 
L -3.5 0 
" style="stroke: #000000; stroke-width: 0.8"/>
      </defs>
      <g>
       <use xlink:href="#m4e4d10f02b" x="57.6" y="295.577759" style="stroke: #000000; stroke-width: 0.8"/>
      </g>
     </g>
     <g id="text_8">
      <!-- −53.00 -->
      <g transform="translate(6.190625 300.136822) scale(0.12 -0.12)">
       <defs>
        <path id="DejaVuSans-33" d="M 2597 2516 
Q 3050 2419 3304 2112 
Q 3559 1806 3559 1356 
Q 3559 666 3084 287 
Q 2609 -91 1734 -91 
Q 1441 -91 1130 -33 
Q 819 25 488 141 
L 488 750 
Q 750 597 1062 519 
Q 1375 441 1716 441 
Q 2309 441 2620 675 
Q 2931 909 2931 1356 
Q 2931 1769 2642 2001 
Q 2353 2234 1838 2234 
L 1294 2234 
L 1294 2753 
L 1863 2753 
Q 2328 2753 2575 2939 
Q 2822 3125 2822 3475 
Q 2822 3834 2567 4026 
Q 2313 4219 1838 4219 
Q 1578 4219 1281 4162 
Q 984 4106 628 3988 
L 628 4550 
Q 988 4650 1302 4700 
Q 1616 4750 1894 4750 
Q 2613 4750 3031 4423 
Q 3450 4097 3450 3541 
Q 3450 3153 3228 2886 
Q 3006 2619 2597 2516 
z
" transform="scale(0.015625)"/>
       </defs>
       <use xlink:href="#DejaVuSans-2212"/>
       <use xlink:href="#DejaVuSans-35" x="83.789062"/>
       <use xlink:href="#DejaVuSans-33" x="147.412109"/>
       <use xlink:href="#DejaVuSans-2e" x="211.035156"/>
       <use xlink:href="#DejaVuSans-30" x="242.822266"/>
       <use xlink:href="#DejaVuSans-30" x="306.445312"/>
      </g>
     </g>
    </g>
    <g id="ytick_2">
     <g id="line2d_8">
      <g>
       <use xlink:href="#m4e4d10f02b" x="57.6" y="264.672391" style="stroke: #000000; stroke-width: 0.8"/>
      </g>
     </g>
     <g id="text_9">
      <!-- −52.75 -->
      <g transform="translate(6.190625 269.231453) scale(0.12 -0.12)">
       <defs>
        <path id="DejaVuSans-32" d="M 1228 531 
L 3431 531 
L 3431 0 
L 469 0 
L 469 531 
Q 828 903 1448 1529 
Q 2069 2156 2228 2338 
Q 2531 2678 2651 2914 
Q 2772 3150 2772 3378 
Q 2772 3750 2511 3984 
Q 2250 4219 1831 4219 
Q 1534 4219 1204 4116 
Q 875 4013 500 3803 
L 500 4441 
Q 881 4594 1212 4672 
Q 1544 4750 1819 4750 
Q 2544 4750 2975 4387 
Q 3406 4025 3406 3419 
Q 3406 3131 3298 2873 
Q 3191 2616 2906 2266 
Q 2828 2175 2409 1742 
Q 1991 1309 1228 531 
z
" transform="scale(0.015625)"/>
        <path id="DejaVuSans-37" d="M 525 4666 
L 3525 4666 
L 3525 4397 
L 1831 0 
L 1172 0 
L 2766 4134 
L 525 4134 
L 525 4666 
z
" transform="scale(0.015625)"/>
       </defs>
       <use xlink:href="#DejaVuSans-2212"/>
       <use xlink:href="#DejaVuSans-35" x="83.789062"/>
       <use xlink:href="#DejaVuSans-32" x="147.412109"/>
       <use xlink:href="#DejaVuSans-2e" x="211.035156"/>
       <use xlink:href="#DejaVuSans-37" x="242.822266"/>
       <use xlink:href="#DejaVuSans-35" x="306.445312"/>
      </g>
     </g>
    </g>
    <g id="ytick_3">
     <g id="line2d_9">
      <g>
       <use xlink:href="#m4e4d10f02b" x="57.6" y="233.767022" style="stroke: #000000; stroke-width: 0.8"/>
      </g>
     </g>
     <g id="text_10">
      <!-- −52.50 -->
      <g transform="translate(6.190625 238.326084) scale(0.12 -0.12)">
       <use xlink:href="#DejaVuSans-2212"/>
       <use xlink:href="#DejaVuSans-35" x="83.789062"/>
       <use xlink:href="#DejaVuSans-32" x="147.412109"/>
       <use xlink:href="#DejaVuSans-2e" x="211.035156"/>
       <use xlink:href="#DejaVuSans-35" x="242.822266"/>
       <use xlink:href="#DejaVuSans-30" x="306.445312"/>
      </g>
     </g>
    </g>
    <g id="ytick_4">
     <g id="line2d_10">
      <g>
       <use xlink:href="#m4e4d10f02b" x="57.6" y="202.861653" style="stroke: #000000; stroke-width: 0.8"/>
      </g>
     </g>
     <g id="text_11">
      <!-- −52.25 -->
      <g transform="translate(6.190625 207.420716) scale(0.12 -0.12)">
       <use xlink:href="#DejaVuSans-2212"/>
       <use xlink:href="#DejaVuSans-35" x="83.789062"/>
       <use xlink:href="#DejaVuSans-32" x="147.412109"/>
       <use xlink:href="#DejaVuSans-2e" x="211.035156"/>
       <use xlink:href="#DejaVuSans-32" x="242.822266"/>
       <use xlink:href="#DejaVuSans-35" x="306.445312"/>
      </g>
     </g>
    </g>
    <g id="ytick_5">
     <g id="line2d_11">
      <g>
       <use xlink:href="#m4e4d10f02b" x="57.6" y="171.956285" style="stroke: #000000; stroke-width: 0.8"/>
      </g>
     </g>
     <g id="text_12">
      <!-- −52.00 -->
      <g transform="translate(6.190625 176.515347) scale(0.12 -0.12)">
       <use xlink:href="#DejaVuSans-2212"/>
       <use xlink:href="#DejaVuSans-35" x="83.789062"/>
       <use xlink:href="#DejaVuSans-32" x="147.412109"/>
       <use xlink:href="#DejaVuSans-2e" x="211.035156"/>
       <use xlink:href="#DejaVuSans-30" x="242.822266"/>
       <use xlink:href="#DejaVuSans-30" x="306.445312"/>
      </g>
     </g>
    </g>
    <g id="ytick_6">
     <g id="line2d_12">
      <g>
       <use xlink:href="#m4e4d10f02b" x="57.6" y="141.050916" style="stroke: #000000; stroke-width: 0.8"/>
      </g>
     </g>
     <g id="text_13">
      <!-- −51.75 -->
      <g transform="translate(6.190625 145.609979) scale(0.12 -0.12)">
       <defs>
        <path id="DejaVuSans-31" d="M 794 531 
L 1825 531 
L 1825 4091 
L 703 3866 
L 703 4441 
L 1819 4666 
L 2450 4666 
L 2450 531 
L 3481 531 
L 3481 0 
L 794 0 
L 794 531 
z
" transform="scale(0.015625)"/>
       </defs>
       <use xlink:href="#DejaVuSans-2212"/>
       <use xlink:href="#DejaVuSans-35" x="83.789062"/>
       <use xlink:href="#DejaVuSans-31" x="147.412109"/>
       <use xlink:href="#DejaVuSans-2e" x="211.035156"/>
       <use xlink:href="#DejaVuSans-37" x="242.822266"/>
       <use xlink:href="#DejaVuSans-35" x="306.445312"/>
      </g>
     </g>
    </g>
    <g id="ytick_7">
     <g id="line2d_13">
      <g>
       <use xlink:href="#m4e4d10f02b" x="57.6" y="110.145548" style="stroke: #000000; stroke-width: 0.8"/>
      </g>
     </g>
     <g id="text_14">
      <!-- −51.50 -->
      <g transform="translate(6.190625 114.70461) scale(0.12 -0.12)">
       <use xlink:href="#DejaVuSans-2212"/>
       <use xlink:href="#DejaVuSans-35" x="83.789062"/>
       <use xlink:href="#DejaVuSans-31" x="147.412109"/>
       <use xlink:href="#DejaVuSans-2e" x="211.035156"/>
       <use xlink:href="#DejaVuSans-35" x="242.822266"/>
       <use xlink:href="#DejaVuSans-30" x="306.445312"/>
      </g>
     </g>
    </g>
    <g id="ytick_8">
     <g id="line2d_14">
      <g>
       <use xlink:href="#m4e4d10f02b" x="57.6" y="79.240179" style="stroke: #000000; stroke-width: 0.8"/>
      </g>
     </g>
     <g id="text_15">
      <!-- −51.25 -->
      <g transform="translate(6.190625 83.799242) scale(0.12 -0.12)">
       <use xlink:href="#DejaVuSans-2212"/>
       <use xlink:href="#DejaVuSans-35" x="83.789062"/>
       <use xlink:href="#DejaVuSans-31" x="147.412109"/>
       <use xlink:href="#DejaVuSans-2e" x="211.035156"/>
       <use xlink:href="#DejaVuSans-32" x="242.822266"/>
       <use xlink:href="#DejaVuSans-35" x="306.445312"/>
      </g>
     </g>
    </g>
    <g id="ytick_9">
     <g id="line2d_15">
      <g>
       <use xlink:href="#m4e4d10f02b" x="57.6" y="48.334811" style="stroke: #000000; stroke-width: 0.8"/>
      </g>
     </g>
     <g id="text_16">
      <!-- −51.00 -->
      <g transform="translate(6.190625 52.893873) scale(0.12 -0.12)">
       <use xlink:href="#DejaVuSans-2212"/>
       <use xlink:href="#DejaVuSans-35" x="83.789062"/>
       <use xlink:href="#DejaVuSans-31" x="147.412109"/>
       <use xlink:href="#DejaVuSans-2e" x="211.035156"/>
       <use xlink:href="#DejaVuSans-30" x="242.822266"/>
       <use xlink:href="#DejaVuSans-30" x="306.445312"/>
      </g>
     </g>
    </g>
    <g id="text_17">
     <!-- y -->
     <g transform="translate(-0.720937 178.671125) rotate(-90) scale(0.14 -0.14)">
      <defs>
       <path id="DejaVuSans-79" d="M 2059 -325 
Q 1816 -950 1584 -1140 
Q 1353 -1331 966 -1331 
L 506 -1331 
L 506 -850 
L 844 -850 
Q 1081 -850 1212 -737 
Q 1344 -625 1503 -206 
L 1606 56 
L 191 3500 
L 800 3500 
L 1894 763 
L 2988 3500 
L 3597 3500 
L 2059 -325 
z
" transform="scale(0.015625)"/>
      </defs>
      <use xlink:href="#DejaVuSans-79"/>
     </g>
    </g>
   </g>
   <g id="line2d_16">
    <defs>
     <path id="m49de5a2829" d="M 0 3 
C 0.795609 3 1.55874 2.683901 2.12132 2.12132 
C 2.683901 1.55874 3 0.795609 3 0 
C 3 -0.795609 2.683901 -1.55874 2.12132 -2.12132 
C 1.55874 -2.683901 0.795609 -3 0 -3 
C -0.795609 -3 -1.55874 -2.683901 -2.12132 -2.12132 
C -2.683901 -1.55874 -3 -0.795609 -3 0 
C -3 0.795609 -2.683901 1.55874 -2.12132 2.12132 
C -1.55874 2.683901 -0.795609 3 0 3 
z
" style="stroke: #0000ff"/>
    </defs>
    <g clip-path="url(#pd599fb9246)">
     <use xlink:href="#m49de5a2829" x="181.934783" y="155.643279" style="fill: #0000ff; stroke: #0000ff"/>
     <use xlink:href="#m49de5a2829" x="295.84861" y="244.020506" style="fill: #0000ff; stroke: #0000ff"/>
     <use xlink:href="#m49de5a2829" x="191.104007" y="128.383717" style="fill: #0000ff; stroke: #0000ff"/>
     <use xlink:href="#m49de5a2829" x="237.057633" y="137.012852" style="fill: #0000ff; stroke: #0000ff"/>
     <use xlink:href="#m49de5a2829" x="239.226951" y="193.4641" style="fill: #0000ff; stroke: #0000ff"/>
     <use xlink:href="#m49de5a2829" x="238.973614" y="269.754015" style="fill: #0000ff; stroke: #0000ff"/>
     <use xlink:href="#m49de5a2829" x="247.377358" y="238.070241" style="fill: #0000ff; stroke: #0000ff"/>
     <use xlink:href="#m49de5a2829" x="204.713164" y="101.846367" style="fill: #0000ff; stroke: #0000ff"/>
     <use xlink:href="#m49de5a2829" x="159.816524" y="136.795504" style="fill: #0000ff; stroke: #0000ff"/>
     <use xlink:href="#m49de5a2829" x="205.024637" y="173.122953" style="fill: #0000ff; stroke: #0000ff"/>
     <use xlink:href="#m49de5a2829" x="175.376806" y="181.694037" style="fill: #0000ff; stroke: #0000ff"/>
     <use xlink:href="#m49de5a2829" x="263.890065" y="123.403607" style="fill: #0000ff; stroke: #0000ff"/>
     <use xlink:href="#m49de5a2829" x="269.555795" y="261.724268" style="fill: #0000ff; stroke: #0000ff"/>
     <use xlink:href="#m49de5a2829" x="252.511295" y="93.109342" style="fill: #0000ff; stroke: #0000ff"/>
     <use xlink:href="#m49de5a2829" x="314.322584" y="89.656513" style="fill: #0000ff; stroke: #0000ff"/>
     <use xlink:href="#m49de5a2829" x="218.857313" y="246.930713" style="fill: #0000ff; stroke: #0000ff"/>
     <use xlink:href="#m49de5a2829" x="137.990964" y="112.385894" style="fill: #0000ff; stroke: #0000ff"/>
     <use xlink:href="#m49de5a2829" x="222.153805" y="216.906688" style="fill: #0000ff; stroke: #0000ff"/>
     <use xlink:href="#m49de5a2829" x="257.92622" y="153.611542" style="fill: #0000ff; stroke: #0000ff"/>
     <use xlink:href="#m49de5a2829" x="231.995215" y="166.353695" style="fill: #0000ff; stroke: #0000ff"/>
    </g>
   </g>
   <g id="line2d_17">
    <defs>
     <path id="mef70e9f7c9" d="M 0 3 
C 0.795609 3 1.55874 2.683901 2.12132 2.12132 
C 2.683901 1.55874 3 0.795609 3 0 
C 3 -0.795609 2.683901 -1.55874 2.12132 -2.12132 
C 1.55874 -2.683901 0.795609 -3 0 -3 
C -0.795609 -3 -1.55874 -2.683901 -2.12132 -2.12132 
C -2.683901 -1.55874 -3 -0.795609 -3 0 
C -3 0.795609 -2.683901 1.55874 -2.12132 2.12132 
C -1.55874 2.683901 -0.795609 3 0 3 
z
" style="stroke: #ff0000"/>
    </defs>
    <g clip-path="url(#pd599fb9246)">
     <use xlink:href="#mef70e9f7c9" x="290.575559" y="101.60234" style="fill: #ff0000; stroke: #ff0000"/>
     <use xlink:href="#mef70e9f7c9" x="274.840765" y="98.377229" style="fill: #ff0000; stroke: #ff0000"/>
     <use xlink:href="#mef70e9f7c9" x="227.550675" y="53.568" style="fill: #ff0000; stroke: #ff0000"/>
     <use xlink:href="#mef70e9f7c9" x="219.657712" y="189.748184" style="fill: #ff0000; stroke: #ff0000"/>
     <use xlink:href="#mef70e9f7c9" x="229.08856" y="72.889849" style="fill: #ff0000; stroke: #ff0000"/>
     <use xlink:href="#mef70e9f7c9" x="208.275687" y="76.040056" style="fill: #ff0000; stroke: #ff0000"/>
     <use xlink:href="#mef70e9f7c9" x="278.912518" y="286.688876" style="fill: #ff0000; stroke: #ff0000"/>
     <use xlink:href="#mef70e9f7c9" x="308.92892" y="179.065709" style="fill: #ff0000; stroke: #ff0000"/>
     <use xlink:href="#mef70e9f7c9" x="146.738274" y="206.399967" style="fill: #ff0000; stroke: #ff0000"/>
     <use xlink:href="#mef70e9f7c9" x="150.238144" y="189.184357" style="fill: #ff0000; stroke: #ff0000"/>
     <use xlink:href="#mef70e9f7c9" x="306.942383" y="154.456997" style="fill: #ff0000; stroke: #ff0000"/>
     <use xlink:href="#mef70e9f7c9" x="259.065965" y="291.21714" style="fill: #ff0000; stroke: #ff0000"/>
     <use xlink:href="#mef70e9f7c9" x="312.064426" y="266.203417" style="fill: #ff0000; stroke: #ff0000"/>
     <use xlink:href="#mef70e9f7c9" x="286.235932" y="219.167807" style="fill: #ff0000; stroke: #ff0000"/>
     <use xlink:href="#mef70e9f7c9" x="151.175973" y="87.115579" style="fill: #ff0000; stroke: #ff0000"/>
     <use xlink:href="#mef70e9f7c9" x="307.089381" y="116.059705" style="fill: #ff0000; stroke: #ff0000"/>
     <use xlink:href="#mef70e9f7c9" x="268.381705" y="175.822954" style="fill: #ff0000; stroke: #ff0000"/>
     <use xlink:href="#mef70e9f7c9" x="179.661712" y="282.472187" style="fill: #ff0000; stroke: #ff0000"/>
     <use xlink:href="#mef70e9f7c9" x="227.51928" y="110.239739" style="fill: #ff0000; stroke: #ff0000"/>
     <use xlink:href="#mef70e9f7c9" x="307.902477" y="200.617239" style="fill: #ff0000; stroke: #ff0000"/>
     <use xlink:href="#mef70e9f7c9" x="237.349263" y="295.488" style="fill: #ff0000; stroke: #ff0000"/>
     <use xlink:href="#mef70e9f7c9" x="321.679902" y="215.258799" style="fill: #ff0000; stroke: #ff0000"/>
     <use xlink:href="#mef70e9f7c9" x="295.857424" y="275.969915" style="fill: #ff0000; stroke: #ff0000"/>
     <use xlink:href="#mef70e9f7c9" x="186.518506" y="82.429966" style="fill: #ff0000; stroke: #ff0000"/>
     <use xlink:href="#mef70e9f7c9" x="167.543522" y="74.845922" style="fill: #ff0000; stroke: #ff0000"/>
     <use xlink:href="#mef70e9f7c9" x="186.880067" y="63.525533" style="fill: #ff0000; stroke: #ff0000"/>
     <use xlink:href="#mef70e9f7c9" x="207.126024" y="57.215382" style="fill: #ff0000; stroke: #ff0000"/>
     <use xlink:href="#mef70e9f7c9" x="340.856652" y="233.052337" style="fill: #ff0000; stroke: #ff0000"/>
     <use xlink:href="#mef70e9f7c9" x="320.66373" y="234.088304" style="fill: #ff0000; stroke: #ff0000"/>
     <use xlink:href="#mef70e9f7c9" x="252.083687" y="175.140863" style="fill: #ff0000; stroke: #ff0000"/>
     <use xlink:href="#mef70e9f7c9" x="296.167119" y="168.736519" style="fill: #ff0000; stroke: #ff0000"/>
     <use xlink:href="#mef70e9f7c9" x="271.951821" y="235.164328" style="fill: #ff0000; stroke: #ff0000"/>
     <use xlink:href="#mef70e9f7c9" x="302.540712" y="218.005732" style="fill: #ff0000; stroke: #ff0000"/>
     <use xlink:href="#mef70e9f7c9" x="287.548828" y="119.43877" style="fill: #ff0000; stroke: #ff0000"/>
     <use xlink:href="#mef70e9f7c9" x="242.169773" y="114.920465" style="fill: #ff0000; stroke: #ff0000"/>
     <use xlink:href="#mef70e9f7c9" x="216.830424" y="124.03215" style="fill: #ff0000; stroke: #ff0000"/>
     <use xlink:href="#mef70e9f7c9" x="322.143156" y="164.243795" style="fill: #ff0000; stroke: #ff0000"/>
     <use xlink:href="#mef70e9f7c9" x="356.31319" y="177.343799" style="fill: #ff0000; stroke: #ff0000"/>
     <use xlink:href="#mef70e9f7c9" x="337.051541" y="176.066967" style="fill: #ff0000; stroke: #ff0000"/>
     <use xlink:href="#mef70e9f7c9" x="280.151063" y="166.857656" style="fill: #ff0000; stroke: #ff0000"/>
     <use xlink:href="#mef70e9f7c9" x="243.275216" y="215.703474" style="fill: #ff0000; stroke: #ff0000"/>
     <use xlink:href="#mef70e9f7c9" x="306.16106" y="133.076191" style="fill: #ff0000; stroke: #ff0000"/>
     <use xlink:href="#mef70e9f7c9" x="227.505412" y="90.663355" style="fill: #ff0000; stroke: #ff0000"/>
     <use xlink:href="#mef70e9f7c9" x="322.915861" y="189.88328" style="fill: #ff0000; stroke: #ff0000"/>
     <use xlink:href="#mef70e9f7c9" x="143.934961" y="254.835035" style="fill: #ff0000; stroke: #ff0000"/>
     <use xlink:href="#mef70e9f7c9" x="321.752005" y="142.066426" style="fill: #ff0000; stroke: #ff0000"/>
     <use xlink:href="#mef70e9f7c9" x="327.121435" y="252.277473" style="fill: #ff0000; stroke: #ff0000"/>
     <use xlink:href="#mef70e9f7c9" x="116.00681" y="167.66321" style="fill: #ff0000; stroke: #ff0000"/>
     <use xlink:href="#mef70e9f7c9" x="261.619842" y="190.523744" style="fill: #ff0000; stroke: #ff0000"/>
     <use xlink:href="#mef70e9f7c9" x="161.993317" y="268.829257" style="fill: #ff0000; stroke: #ff0000"/>
    </g>
   </g>
   <g id="line2d_18">
    <defs>
     <path id="m10671d7649" d="M 0 3 
C 0.795609 3 1.55874 2.683901 2.12132 2.12132 
C 2.683901 1.55874 3 0.795609 3 0 
C 3 -0.795609 2.683901 -1.55874 2.12132 -2.12132 
C 1.55874 -2.683901 0.795609 -3 0 -3 
C -0.795609 -3 -1.55874 -2.683901 -2.12132 -2.12132 
C -2.683901 -1.55874 -3 -0.795609 -3 0 
C -3 0.795609 -2.683901 1.55874 -2.12132 2.12132 
C -1.55874 2.683901 -0.795609 3 0 3 
z
" style="stroke: #000000"/>
    </defs>
    <g clip-path="url(#pd599fb9246)">
     <use xlink:href="#m10671d7649" x="199.653199" y="199.547505" style="stroke: #000000"/>
     <use xlink:href="#m10671d7649" x="335.182049" y="117.365308" style="stroke: #000000"/>
     <use xlink:href="#m10671d7649" x="209.727625" y="285.288035" style="stroke: #000000"/>
     <use xlink:href="#m10671d7649" x="345.639256" y="204.511917" style="stroke: #000000"/>
     <use xlink:href="#m10671d7649" x="190.062596" y="259.255941" style="stroke: #000000"/>
     <use xlink:href="#m10671d7649" x="284.476395" y="144.149877" style="stroke: #000000"/>
     <use xlink:href="#m10671d7649" x="132.282781" y="226.376898" style="stroke: #000000"/>
     <use xlink:href="#m10671d7649" x="171.298279" y="105.154612" style="stroke: #000000"/>
     <use xlink:href="#m10671d7649" x="163.802097" y="239.795636" style="stroke: #000000"/>
     <use xlink:href="#m10671d7649" x="195.005762" y="228.097502" style="stroke: #000000"/>
     <use xlink:href="#m10671d7649" x="286.226749" y="192.441532" style="stroke: #000000"/>
     <use xlink:href="#m10671d7649" x="347.427542" y="149.509071" style="stroke: #000000"/>
     <use xlink:href="#m10671d7649" x="148.101488" y="165.840136" style="stroke: #000000"/>
     <use xlink:href="#m10671d7649" x="264.849886" y="212.460222" style="stroke: #000000"/>
     <use xlink:href="#m10671d7649" x="124.8027" y="143.297487" style="stroke: #000000"/>
     <use xlink:href="#m10671d7649" x="122.127349" y="192.291892" style="stroke: #000000"/>
     <use xlink:href="#m10671d7649" x="211.797089" y="146.976121" style="stroke: #000000"/>
     <use xlink:href="#m10671d7649" x="285.689157" y="71.597705" style="stroke: #000000"/>
     <use xlink:href="#m10671d7649" x="254.91426" y="60.920977" style="stroke: #000000"/>
     <use xlink:href="#m10671d7649" x="170.724568" y="209.877834" style="stroke: #000000"/>
    </g>
   </g>
   <g id="patch_3">
    <path d="M 57.6 307.584 
L 57.6 41.472 
" style="fill: none; stroke: #000000; stroke-width: 0.8; stroke-linejoin: miter; stroke-linecap: square"/>
   </g>
   <g id="patch_4">
    <path d="M 414.72 307.584 
L 414.72 41.472 
" style="fill: none; stroke: #000000; stroke-width: 0.8; stroke-linejoin: miter; stroke-linecap: square"/>
   </g>
   <g id="patch_5">
    <path d="M 57.6 307.584 
L 414.72 307.584 
" style="fill: none; stroke: #000000; stroke-width: 0.8; stroke-linejoin: miter; stroke-linecap: square"/>
   </g>
   <g id="patch_6">
    <path d="M 57.6 41.472 
L 414.72 41.472 
" style="fill: none; stroke: #000000; stroke-width: 0.8; stroke-linejoin: miter; stroke-linecap: square"/>
   </g>
   <g id="text_18">
    <!-- Velocities at the final time -->
    <g transform="translate(116.81 35.472) scale(0.16 -0.16)">
     <defs>
      <path id="DejaVuSans-Bold-56" d="M 31 4666 
L 1241 4666 
L 2478 1222 
L 3713 4666 
L 4922 4666 
L 3194 0 
L 1759 0 
L 31 4666 
z
" transform="scale(0.015625)"/>
      <path id="DejaVuSans-Bold-65" d="M 4031 1759 
L 4031 1441 
L 1416 1441 
Q 1456 1047 1700 850 
Q 1944 653 2381 653 
Q 2734 653 3104 758 
Q 3475 863 3866 1075 
L 3866 213 
Q 3469 63 3072 -14 
Q 2675 -91 2278 -91 
Q 1328 -91 801 392 
Q 275 875 275 1747 
Q 275 2603 792 3093 
Q 1309 3584 2216 3584 
Q 3041 3584 3536 3087 
Q 4031 2591 4031 1759 
z
M 2881 2131 
Q 2881 2450 2695 2645 
Q 2509 2841 2209 2841 
Q 1884 2841 1681 2658 
Q 1478 2475 1428 2131 
L 2881 2131 
z
" transform="scale(0.015625)"/>
      <path id="DejaVuSans-Bold-6c" d="M 538 4863 
L 1656 4863 
L 1656 0 
L 538 0 
L 538 4863 
z
" transform="scale(0.015625)"/>
      <path id="DejaVuSans-Bold-6f" d="M 2203 2784 
Q 1831 2784 1636 2517 
Q 1441 2250 1441 1747 
Q 1441 1244 1636 976 
Q 1831 709 2203 709 
Q 2569 709 2762 976 
Q 2956 1244 2956 1747 
Q 2956 2250 2762 2517 
Q 2569 2784 2203 2784 
z
M 2203 3584 
Q 3106 3584 3614 3096 
Q 4122 2609 4122 1747 
Q 4122 884 3614 396 
Q 3106 -91 2203 -91 
Q 1297 -91 786 396 
Q 275 884 275 1747 
Q 275 2609 786 3096 
Q 1297 3584 2203 3584 
z
" transform="scale(0.015625)"/>
      <path id="DejaVuSans-Bold-63" d="M 3366 3391 
L 3366 2478 
Q 3138 2634 2908 2709 
Q 2678 2784 2431 2784 
Q 1963 2784 1702 2511 
Q 1441 2238 1441 1747 
Q 1441 1256 1702 982 
Q 1963 709 2431 709 
Q 2694 709 2930 787 
Q 3166 866 3366 1019 
L 3366 103 
Q 3103 6 2833 -42 
Q 2563 -91 2291 -91 
Q 1344 -91 809 395 
Q 275 881 275 1747 
Q 275 2613 809 3098 
Q 1344 3584 2291 3584 
Q 2566 3584 2833 3536 
Q 3100 3488 3366 3391 
z
" transform="scale(0.015625)"/>
      <path id="DejaVuSans-Bold-69" d="M 538 3500 
L 1656 3500 
L 1656 0 
L 538 0 
L 538 3500 
z
M 538 4863 
L 1656 4863 
L 1656 3950 
L 538 3950 
L 538 4863 
z
" transform="scale(0.015625)"/>
      <path id="DejaVuSans-Bold-74" d="M 1759 4494 
L 1759 3500 
L 2913 3500 
L 2913 2700 
L 1759 2700 
L 1759 1216 
Q 1759 972 1856 886 
Q 1953 800 2241 800 
L 2816 800 
L 2816 0 
L 1856 0 
Q 1194 0 917 276 
Q 641 553 641 1216 
L 641 2700 
L 84 2700 
L 84 3500 
L 641 3500 
L 641 4494 
L 1759 4494 
z
" transform="scale(0.015625)"/>
      <path id="DejaVuSans-Bold-73" d="M 3272 3391 
L 3272 2541 
Q 2913 2691 2578 2766 
Q 2244 2841 1947 2841 
Q 1628 2841 1473 2761 
Q 1319 2681 1319 2516 
Q 1319 2381 1436 2309 
Q 1553 2238 1856 2203 
L 2053 2175 
Q 2913 2066 3209 1816 
Q 3506 1566 3506 1031 
Q 3506 472 3093 190 
Q 2681 -91 1863 -91 
Q 1516 -91 1145 -36 
Q 775 19 384 128 
L 384 978 
Q 719 816 1070 734 
Q 1422 653 1784 653 
Q 2113 653 2278 743 
Q 2444 834 2444 1013 
Q 2444 1163 2330 1236 
Q 2216 1309 1875 1350 
L 1678 1375 
Q 931 1469 631 1722 
Q 331 1975 331 2491 
Q 331 3047 712 3315 
Q 1094 3584 1881 3584 
Q 2191 3584 2531 3537 
Q 2872 3491 3272 3391 
z
" transform="scale(0.015625)"/>
      <path id="DejaVuSans-Bold-20" transform="scale(0.015625)"/>
      <path id="DejaVuSans-Bold-61" d="M 2106 1575 
Q 1756 1575 1579 1456 
Q 1403 1338 1403 1106 
Q 1403 894 1545 773 
Q 1688 653 1941 653 
Q 2256 653 2472 879 
Q 2688 1106 2688 1447 
L 2688 1575 
L 2106 1575 
z
M 3816 1997 
L 3816 0 
L 2688 0 
L 2688 519 
Q 2463 200 2181 54 
Q 1900 -91 1497 -91 
Q 953 -91 614 226 
Q 275 544 275 1050 
Q 275 1666 698 1953 
Q 1122 2241 2028 2241 
L 2688 2241 
L 2688 2328 
Q 2688 2594 2478 2717 
Q 2269 2841 1825 2841 
Q 1466 2841 1156 2769 
Q 847 2697 581 2553 
L 581 3406 
Q 941 3494 1303 3539 
Q 1666 3584 2028 3584 
Q 2975 3584 3395 3211 
Q 3816 2838 3816 1997 
z
" transform="scale(0.015625)"/>
      <path id="DejaVuSans-Bold-68" d="M 4056 2131 
L 4056 0 
L 2931 0 
L 2931 347 
L 2931 1625 
Q 2931 2084 2911 2256 
Q 2891 2428 2841 2509 
Q 2775 2619 2662 2680 
Q 2550 2741 2406 2741 
Q 2056 2741 1856 2470 
Q 1656 2200 1656 1722 
L 1656 0 
L 538 0 
L 538 4863 
L 1656 4863 
L 1656 2988 
Q 1909 3294 2193 3439 
Q 2478 3584 2822 3584 
Q 3428 3584 3742 3212 
Q 4056 2841 4056 2131 
z
" transform="scale(0.015625)"/>
      <path id="DejaVuSans-Bold-66" d="M 2841 4863 
L 2841 4128 
L 2222 4128 
Q 1984 4128 1890 4042 
Q 1797 3956 1797 3744 
L 1797 3500 
L 2753 3500 
L 2753 2700 
L 1797 2700 
L 1797 0 
L 678 0 
L 678 2700 
L 122 2700 
L 122 3500 
L 678 3500 
L 678 3744 
Q 678 4316 997 4589 
Q 1316 4863 1984 4863 
L 2841 4863 
z
" transform="scale(0.015625)"/>
      <path id="DejaVuSans-Bold-6e" d="M 4056 2131 
L 4056 0 
L 2931 0 
L 2931 347 
L 2931 1631 
Q 2931 2084 2911 2256 
Q 2891 2428 2841 2509 
Q 2775 2619 2662 2680 
Q 2550 2741 2406 2741 
Q 2056 2741 1856 2470 
Q 1656 2200 1656 1722 
L 1656 0 
L 538 0 
L 538 3500 
L 1656 3500 
L 1656 2988 
Q 1909 3294 2193 3439 
Q 2478 3584 2822 3584 
Q 3428 3584 3742 3212 
Q 4056 2841 4056 2131 
z
" transform="scale(0.015625)"/>
      <path id="DejaVuSans-Bold-6d" d="M 3781 2919 
Q 3994 3244 4286 3414 
Q 4578 3584 4928 3584 
Q 5531 3584 5847 3212 
Q 6163 2841 6163 2131 
L 6163 0 
L 5038 0 
L 5038 1825 
Q 5041 1866 5042 1909 
Q 5044 1953 5044 2034 
Q 5044 2406 4934 2573 
Q 4825 2741 4581 2741 
Q 4263 2741 4089 2478 
Q 3916 2216 3909 1719 
L 3909 0 
L 2784 0 
L 2784 1825 
Q 2784 2406 2684 2573 
Q 2584 2741 2328 2741 
Q 2006 2741 1831 2477 
Q 1656 2213 1656 1722 
L 1656 0 
L 531 0 
L 531 3500 
L 1656 3500 
L 1656 2988 
Q 1863 3284 2130 3434 
Q 2397 3584 2719 3584 
Q 3081 3584 3359 3409 
Q 3638 3234 3781 2919 
z
" transform="scale(0.015625)"/>
     </defs>
     <use xlink:href="#DejaVuSans-Bold-56"/>
     <use xlink:href="#DejaVuSans-Bold-65" x="71.892578"/>
     <use xlink:href="#DejaVuSans-Bold-6c" x="139.714844"/>
     <use xlink:href="#DejaVuSans-Bold-6f" x="173.992188"/>
     <use xlink:href="#DejaVuSans-Bold-63" x="242.693359"/>
     <use xlink:href="#DejaVuSans-Bold-69" x="301.970703"/>
     <use xlink:href="#DejaVuSans-Bold-74" x="336.248047"/>
     <use xlink:href="#DejaVuSans-Bold-69" x="384.050781"/>
     <use xlink:href="#DejaVuSans-Bold-65" x="418.328125"/>
     <use xlink:href="#DejaVuSans-Bold-73" x="486.150391"/>
     <use xlink:href="#DejaVuSans-Bold-20" x="545.671875"/>
     <use xlink:href="#DejaVuSans-Bold-61" x="580.486328"/>
     <use xlink:href="#DejaVuSans-Bold-74" x="647.966797"/>
     <use xlink:href="#DejaVuSans-Bold-20" x="695.769531"/>
     <use xlink:href="#DejaVuSans-Bold-74" x="730.583984"/>
     <use xlink:href="#DejaVuSans-Bold-68" x="778.386719"/>
     <use xlink:href="#DejaVuSans-Bold-65" x="849.578125"/>
     <use xlink:href="#DejaVuSans-Bold-20" x="917.400391"/>
     <use xlink:href="#DejaVuSans-Bold-66" x="952.214844"/>
     <use xlink:href="#DejaVuSans-Bold-69" x="995.720703"/>
     <use xlink:href="#DejaVuSans-Bold-6e" x="1029.998047"/>
     <use xlink:href="#DejaVuSans-Bold-61" x="1101.189453"/>
     <use xlink:href="#DejaVuSans-Bold-6c" x="1168.669922"/>
     <use xlink:href="#DejaVuSans-Bold-20" x="1202.947266"/>
     <use xlink:href="#DejaVuSans-Bold-74" x="1237.761719"/>
     <use xlink:href="#DejaVuSans-Bold-69" x="1285.564453"/>
     <use xlink:href="#DejaVuSans-Bold-6d" x="1319.841797"/>
     <use xlink:href="#DejaVuSans-Bold-65" x="1424.041016"/>
    </g>
   </g>
  </g>
 </g>
 <defs>
  <clipPath id="pd599fb9246">
   <rect x="57.6" y="41.472" width="357.12" height="266.112"/>
  </clipPath>
 </defs>
</svg>
