<?xml version="1.0" encoding="utf-8" standalone="no"?>
<!DOCTYPE svg PUBLIC "-//W3C//DTD SVG 1.1//EN"
  "http://www.w3.org/Graphics/SVG/1.1/DTD/svg11.dtd">
<svg xmlns:xlink="http://www.w3.org/1999/xlink" width="460.8pt" height="345.6pt" viewBox="0 0 460.8 345.6" xmlns="http://www.w3.org/2000/svg" version="1.1">
 <metadata>
  <rdf:RDF xmlns:dc="http://purl.org/dc/elements/1.1/" xmlns:cc="http://creativecommons.org/ns#" xmlns:rdf="http://www.w3.org/1999/02/22-rdf-syntax-ns#">
   <cc:Work>
    <dc:type rdf:resource="http://purl.org/dc/dcmitype/StillImage"/>
    <dc:date>2025-03-06T17:12:56.850834</dc:date>
    <dc:format>image/svg+xml</dc:format>
    <dc:creator>
     <cc:Agent>
      <dc:title>Matplotlib v3.6.3, https://matplotlib.org/</dc:title>
     </cc:Agent>
    </dc:creator>
   </cc:Work>
  </rdf:RDF>
 </metadata>
 <defs>
  <style type="text/css">*{stroke-linejoin: round; stroke-linecap: butt}</style>
 </defs>
 <g id="figure_1">
  <g id="patch_1">
   <path d="M 0 345.6 
L 460.8 345.6 
L 460.8 0 
L 0 0 
z
" style="fill: #ffffff"/>
  </g>
  <g id="axes_1">
   <g id="patch_2">
    <path d="M 57.6 307.584 
L 414.72 307.584 
L 414.72 41.472 
L 57.6 41.472 
z
" style="fill: #ffffff"/>
   </g>
   <g id="Quiver_1">
    <path d="M 331.46358 190.574547 
L 327.860309 204.55041 
L 330.329354 204.020739 
L 324.229291 214.110439 
L 323.768041 202.329095 
L 325.673205 203.986528 
L 329.276475 190.010665 
L 331.46358 190.574547 
" clip-path="url(#p9c521511da)"/>
    <path d="M 193.23968 113.639622 
L 200.233194 107.56912 
L 197.899796 106.603723 
L 208.649017 101.759441 
L 202.341474 111.720752 
L 201.713753 109.274796 
L 194.720239 115.345298 
L 193.23968 113.639622 
" clip-path="url(#p9c521511da)"/>
    <path d="M 183.006668 228.542777 
L 175.159809 219.50068 
L 174.19414 221.833964 
L 169.351114 211.084177 
L 179.311688 217.392884 
L 176.865659 218.02032 
L 184.712517 227.062417 
L 183.006668 228.542777 
" clip-path="url(#p9c521511da)"/>
    <path d="M 274.973847 127.002017 
L 281.108515 133.530084 
L 281.981065 131.160403 
L 287.245824 141.710053 
L 277.043328 135.800579 
L 279.462603 135.07681 
L 273.327934 128.548743 
L 274.973847 127.002017 
" clip-path="url(#p9c521511da)"/>
    <path d="M 213.696184 161.420087 
L 214.163923 160.665578 
L 212.187165 160.48461 
L 219.128078 154.34273 
L 216.714223 163.291041 
L 215.672942 161.601054 
L 215.205203 162.355564 
L 213.696184 161.420087 
" clip-path="url(#p9c521511da)"/>
    <path d="M 219.846638 101.699539 
L 229.133721 100.282282 
L 227.6766 98.219873 
L 239.35158 99.865372 
L 228.698799 104.918201 
L 229.474454 102.515058 
L 220.187371 103.932315 
L 219.846638 101.699539 
" clip-path="url(#p9c521511da)"/>
    <path d="M 318.171866 90.561968 
L 325.466385 97.661325 
L 326.232377 95.255085 
L 331.962416 105.559427 
L 321.506507 100.110869 
L 323.891095 99.279919 
L 316.596576 92.180563 
L 318.171866 90.561968 
" clip-path="url(#p9c521511da)"/>
    <path d="M 191.040784 71.063592 
L 200.873137 68.152491 
L 199.149082 66.307397 
L 210.939375 66.349913 
L 201.0727 72.804487 
L 201.514343 70.318188 
L 191.681989 73.229289 
L 191.040784 71.063592 
" clip-path="url(#p9c521511da)"/>
    <path d="M 233.585821 232.79849 
L 222.693212 232.303737 
L 223.718879 234.611278 
L 212.591109 230.714413 
L 224.026329 227.842381 
L 222.795696 230.047438 
L 233.688305 230.542191 
L 233.585821 232.79849 
" clip-path="url(#p9c521511da)"/>
    <path d="M 157.288922 94.3574 
L 165.640334 86.038265 
L 163.24625 85.235084 
L 173.638134 79.665381 
L 168.028232 90.035619 
L 167.234328 87.638443 
L 158.882916 95.957578 
L 157.288922 94.3574 
" clip-path="url(#p9c521511da)"/>
    <path d="M 204.282396 237.734226 
L 197.534832 233.211361 
L 197.215333 235.716287 
L 189.720981 226.614226 
L 200.988042 230.087863 
L 198.792402 231.33522 
L 205.539966 235.858084 
L 204.282396 237.734226 
" clip-path="url(#p9c521511da)"/>
    <path d="M 119.274342 153.849693 
L 119.555296 144.733758 
L 117.262954 145.792956 
L 120.997174 134.609557 
L 124.035614 146.001691 
L 121.812849 144.803336 
L 121.531895 153.919271 
L 119.274342 153.849693 
" clip-path="url(#p9c521511da)"/>
    <path d="M 243.563437 194.92496 
L 235.376927 194.47447 
L 236.380433 196.791733 
L 225.290518 192.78841 
L 236.752735 190.026094 
L 235.501028 192.219256 
L 243.687538 192.669747 
L 243.563437 194.92496 
" clip-path="url(#p9c521511da)"/>
    <path d="M 297.924809 216.377767 
L 291.201905 225.09012 
L 293.679965 225.575873 
L 284.098613 232.446864 
L 288.315526 221.436394 
L 289.413759 223.710293 
L 296.136663 214.997941 
L 297.924809 216.377767 
" clip-path="url(#p9c521511da)"/>
    <path d="M 212.186805 270.487045 
L 202.468087 267.679441 
L 202.926181 270.162762 
L 193.016987 263.773656 
L 204.80674 263.653078 
L 203.094939 265.509546 
L 212.813657 268.31715 
L 212.186805 270.487045 
" clip-path="url(#p9c521511da)"/>
    <path d="M 290.588933 102.423817 
L 298.977224 108.286438 
L 299.345456 105.788211 
L 306.661089 115.034525 
L 295.463828 111.342079 
L 297.683348 110.137728 
L 289.295057 104.275106 
L 290.588933 102.423817 
" clip-path="url(#p9c521511da)"/>
    <path d="M 126.217943 222.697717 
L 121.398617 212.431788 
L 119.833978 214.413867 
L 118.101753 202.75144 
L 125.967607 211.534443 
L 123.44316 211.47198 
L 128.262486 221.737909 
L 126.217943 222.697717 
" clip-path="url(#p9c521511da)"/>
    <path d="M 178.28168 140.329871 
L 182.367099 130.463518 
L 179.848253 130.642824 
L 187.298918 121.504968 
L 186.10865 133.235104 
L 184.453898 131.327611 
L 180.368479 141.193964 
L 178.28168 140.329871 
" clip-path="url(#p9c521511da)"/>
    <path d="M 115.116911 190.082659 
L 113.353208 178.49132 
L 111.29016 179.947538 
L 112.940773 168.27328 
L 117.988936 178.928272 
L 115.586133 178.151565 
L 117.349836 189.742904 
L 115.116911 190.082659 
" clip-path="url(#p9c521511da)"/>
    <path d="M 337.612828 228.303827 
L 330.949933 240.66982 
L 333.473973 240.746984 
L 325.134684 249.081796 
L 327.508873 237.532941 
L 328.961566 239.598472 
L 335.624462 227.232479 
L 337.612828 228.303827 
" clip-path="url(#p9c521511da)"/>
    <path d="M 191.676867 282.886016 
L 180.935341 278.951395 
L 181.218895 281.460644 
L 171.780075 274.395129 
L 183.549465 275.098181 
L 181.712197 276.830574 
L 192.453724 280.765195 
L 191.676867 282.886016 
" clip-path="url(#p9c521511da)"/>
    <path d="M 253.117177 226.649134 
L 246.317318 227.402093 
L 247.688352 229.522707 
L 236.090958 227.39826 
L 246.942606 222.787994 
L 246.068736 225.157189 
L 252.868595 224.40423 
L 253.117177 226.649134 
" clip-path="url(#p9c521511da)"/>
    <path d="M 282.997585 116.401435 
L 291.39346 122.279519 
L 291.763721 119.781592 
L 299.071838 129.033848 
L 287.877581 125.332303 
L 290.09808 124.129756 
L 281.702205 118.251672 
L 282.997585 116.401435 
" clip-path="url(#p9c521511da)"/>
    <path d="M 135.890358 199.459747 
L 131.204741 188.885868 
L 129.597303 190.833399 
L 128.119498 179.13601 
L 135.792191 188.08825 
L 133.269703 187.970818 
L 137.955321 198.544697 
L 135.890358 199.459747 
" clip-path="url(#p9c521511da)"/>
    <path d="M 355.12055 143.713564 
L 356.780549 154.889275 
L 358.848739 153.440371 
L 357.156804 165.108711 
L 352.146397 154.435912 
L 354.546435 155.221122 
L 352.886436 144.045411 
L 355.12055 143.713564 
" clip-path="url(#p9c521511da)"/>
    <path d="M 120.66109 128.604056 
L 125.308481 115.47637 
L 122.802463 115.787194 
L 129.764917 106.272098 
L 129.189894 118.048437 
L 127.437624 116.230118 
L 122.790233 129.357804 
L 120.66109 128.604056 
" clip-path="url(#p9c521511da)"/>
    <path d="M 140.424536 253.666409 
L 130.945452 244.943204 
L 130.246992 247.369907 
L 124.231273 237.229693 
L 134.83534 242.383972 
L 132.474901 243.281226 
L 141.953985 252.00443 
L 140.424536 253.666409 
" clip-path="url(#p9c521511da)"/>
    <path d="M 238.187764 190.919845 
L 237.94233 191.566193 
L 239.48046 191.410712 
L 235.087081 197.137891 
L 235.602372 189.938112 
L 236.649634 191.075326 
L 236.895068 190.428979 
L 238.187764 190.919845 
" clip-path="url(#p9c521511da)"/>
    <path d="M 307.214672 106.850788 
L 315.669806 115.667213 
L 316.518278 113.288804 
L 321.88976 123.784517 
L 311.627855 117.97882 
L 314.039665 117.230552 
L 305.584531 108.414127 
L 307.214672 106.850788 
" clip-path="url(#p9c521511da)"/>
    <path d="M 271.5706 68.230324 
L 282.312807 71.325428 
L 281.852969 68.842429 
L 291.766648 75.224575 
L 279.976982 75.353433 
L 281.687478 73.495762 
L 270.945271 70.400658 
L 271.5706 68.230324 
" clip-path="url(#p9c521511da)"/>
    <path d="M 203.697807 149.123477 
L 209.898858 137.190639 
L 207.373945 137.151232 
L 215.587649 128.692633 
L 213.386446 140.275704 
L 211.903024 138.23213 
L 205.701974 150.164968 
L 203.697807 149.123477 
" clip-path="url(#p9c521511da)"/>
    <path d="M 150.621089 77.378745 
L 159.186643 67.65105 
L 156.745201 67.005997 
L 166.750998 60.769264 
L 161.830598 71.483856 
L 160.881776 69.14367 
L 152.316221 78.871365 
L 150.621089 77.378745 
" clip-path="url(#p9c521511da)"/>
    <path d="M 235.889009 206.32 
L 234.279671 207.007692 
L 236.205653 208.640887 
L 224.489646 209.963003 
L 233.54313 202.41004 
L 233.392163 204.930743 
L 235.001501 204.243051 
L 235.889009 206.32 
" clip-path="url(#p9c521511da)"/>
    <path d="M 297.621344 139.362039 
L 302.580032 152.520281 
L 304.295318 150.667033 
L 305.107445 162.429399 
L 297.954734 153.056484 
L 300.466504 153.316764 
L 295.507816 140.158523 
L 297.621344 139.362039 
" clip-path="url(#p9c521511da)"/>
    <path d="M 141.445092 113.283057 
L 143.846884 106.58558 
L 141.339619 106.88618 
L 148.340827 97.399563 
L 147.717773 109.173458 
L 145.972935 107.348007 
L 143.571144 114.045484 
L 141.445092 113.283057 
" clip-path="url(#p9c521511da)"/>
    <path d="M 157.55967 199.620594 
L 154.890195 185.838973 
L 152.887539 187.377187 
L 154.066112 175.645871 
L 159.539771 186.088662 
L 157.107606 185.409465 
L 159.777081 199.191085 
L 157.55967 199.620594 
" clip-path="url(#p9c521511da)"/>
    <path d="M 214.9388 212.500897 
L 213.31915 212.505751 
L 214.455226 214.760982 
L 203.151997 211.406905 
L 214.434919 207.985137 
L 213.312381 210.247136 
L 214.932031 210.242282 
L 214.9388 212.500897 
" clip-path="url(#p9c521511da)"/>
    <path d="M 250.402495 166.049097 
L 249.818637 166.649122 
L 251.602546 167.216813 
L 243.963889 171.465493 
L 248.002393 163.713665 
L 248.618586 165.481406 
L 249.202444 164.881381 
L 250.402495 166.049097 
" clip-path="url(#p9c521511da)"/>
    <path d="M 248.453466 291.561054 
L 238.346227 293.037979 
L 239.790247 295.109583 
L 228.125931 293.390119 
L 238.810523 288.40491 
L 238.019653 290.803088 
L 248.126892 289.326163 
L 248.453466 291.561054 
" clip-path="url(#p9c521511da)"/>
    <path d="M 285.159639 63.320161 
L 293.644007 69.064563 
L 293.975152 66.56115 
L 301.427092 75.697966 
L 290.176308 72.171968 
L 292.377725 70.934836 
L 283.893357 65.190433 
L 285.159639 63.320161 
" clip-path="url(#p9c521511da)"/>
    <path d="M 178.052306 99.981503 
L 182.906802 93.132991 
L 180.411076 92.748172 
L 189.705784 85.494123 
L 185.939036 96.666609 
L 184.749455 94.439136 
L 179.894959 101.287648 
L 178.052306 99.981503 
" clip-path="url(#p9c521511da)"/>
    <path d="M 340.806673 140.54569 
L 343.095325 148.73994 
L 344.966905 147.044675 
L 344.741751 158.832894 
L 338.440795 148.867415 
L 340.919955 149.34752 
L 338.631304 141.15327 
L 340.806673 140.54569 
" clip-path="url(#p9c521511da)"/>
    <path d="M 264.559524 186.17789 
L 264.292772 186.817725 
L 265.839194 186.711394 
L 261.252168 192.309489 
L 262.000184 185.110881 
L 263.013102 186.284221 
L 263.279854 185.644385 
L 264.559524 186.17789 
" clip-path="url(#p9c521511da)"/>
    <path d="M 248.030822 125.300449 
L 254.794 127.831731 
L 254.52805 125.320555 
L 263.91709 132.452086 
L 252.15292 131.666519 
L 254.00229 129.947052 
L 247.239112 127.41577 
L 248.030822 125.300449 
" clip-path="url(#p9c521511da)"/>
    <path d="M 250.172189 219.214033 
L 242.66085 219.554889 
L 243.89139 221.759998 
L 232.456291 218.887487 
L 243.584224 214.991088 
L 242.558461 217.298586 
L 250.069801 216.957729 
L 250.172189 219.214033 
" clip-path="url(#p9c521511da)"/>
    <path d="M 238.162076 149.252979 
L 239.885479 149.548926 
L 239.154719 147.131753 
L 249.711537 152.382126 
L 238.007934 153.80988 
L 239.503217 151.774968 
L 237.779814 151.479021 
L 238.162076 149.252979 
" clip-path="url(#p9c521511da)"/>
    <path d="M 209.118628 80.523695 
L 217.751497 77.142902 
L 215.87633 75.451605 
L 227.627273 74.488187 
L 218.347175 81.760917 
L 218.575112 79.246006 
L 209.942243 82.626799 
L 209.118628 80.523695 
" clip-path="url(#p9c521511da)"/>
    <path d="M 265.078133 282.396646 
L 256.135656 284.974745 
L 257.846448 286.832143 
L 246.056762 286.705164 
L 255.969424 280.321438 
L 255.509981 282.80451 
L 264.452458 280.226411 
L 265.078133 282.396646 
" clip-path="url(#p9c521511da)"/>
    <path d="M 259.018758 86.517103 
L 270.928063 87.421655 
L 269.973051 85.083988 
L 280.977156 89.317484 
L 269.459878 91.840403 
L 270.757005 89.673794 
L 258.8477 88.769241 
L 259.018758 86.517103 
" clip-path="url(#p9c521511da)"/>
    <path d="M 339.337706 114.351511 
L 344.189306 124.549334 
L 345.743717 122.559224 
L 347.535978 134.212576 
L 339.624998 125.470196 
L 342.149733 125.519658 
L 337.298133 115.321835 
L 339.337706 114.351511 
" clip-path="url(#p9c521511da)"/>
    <path d="M 147.758477 176.590768 
L 147.445308 162.53333 
L 145.212395 163.712668 
L 148.347969 152.346886 
L 151.98659 163.561753 
L 149.703373 162.483026 
L 150.016542 176.540463 
L 147.758477 176.590768 
" clip-path="url(#p9c521511da)"/>
    <path d="M 280.768886 256.736319 
L 271.841829 260.869981 
L 273.815655 262.445019 
L 262.144282 264.115909 
L 270.968516 256.296337 
L 270.892782 258.82042 
L 279.81984 254.686759 
L 280.768886 256.736319 
" clip-path="url(#p9c521511da)"/>
    <path d="M 268.020758 85.007766 
L 277.29153 87.970924 
L 276.903468 85.4757 
L 286.629029 92.141004 
L 274.840549 91.929912 
L 276.60389 90.122328 
L 267.333118 87.15917 
L 268.020758 85.007766 
" clip-path="url(#p9c521511da)"/>
    <path d="M 323.379223 139.866519 
L 324.109046 150.658642 
L 326.286328 149.37951 
L 323.668075 160.87549 
L 319.525894 149.836688 
L 321.855568 150.811035 
L 321.125745 140.018912 
L 323.379223 139.866519 
" clip-path="url(#p9c521511da)"/>
    <path d="M 145.824786 269.775083 
L 135.916433 262.051543 
L 135.418546 264.527192 
L 128.594577 254.912294 
L 139.584256 259.183098 
L 137.305004 260.270178 
L 147.213356 267.993718 
L 145.824786 269.775083 
" clip-path="url(#p9c521511da)"/>
    <path d="M 204.175128 129.648509 
L 212.393525 124.621679 
L 210.251612 123.284164 
L 221.653282 120.281709 
L 213.787185 129.064495 
L 213.572049 126.548456 
L 205.353653 131.575285 
L 204.175128 129.648509 
" clip-path="url(#p9c521511da)"/>
    <path d="M 240.856036 180.279674 
L 241.59626 181.126349 
L 242.549387 178.799225 
L 247.411602 189.486654 
L 237.469333 183.240571 
L 239.902909 182.606798 
L 239.162685 181.760122 
L 240.856036 180.279674 
" clip-path="url(#p9c521511da)"/>
    <path d="M 193.347453 292.952106 
L 184.158542 290.599353 
L 184.692331 293.067511 
L 174.592469 286.984288 
L 186.373027 286.503385 
L 184.718774 288.411311 
L 193.907685 290.764064 
L 193.347453 292.952106 
" clip-path="url(#p9c521511da)"/>
    <path d="M 221.057461 122.398547 
L 229.935689 123.154813 
L 229.002152 120.808488 
L 239.966978 125.142702 
L 228.427051 127.559914 
L 229.743989 125.405289 
L 220.86576 124.649022 
L 221.057461 122.398547 
" clip-path="url(#p9c521511da)"/>
    <path d="M 231.391005 296.597677 
L 219.625866 294.374612 
L 220.316188 296.803643 
L 209.848453 291.37784 
L 221.574252 290.145583 
L 220.045221 292.155259 
L 231.81036 294.378323 
L 231.391005 296.597677 
" clip-path="url(#p9c521511da)"/>
    <path d="M 283.356673 251.077067 
L 275.802142 258.165146 
L 278.171136 259.039562 
L 267.617342 264.296011 
L 273.53485 254.098172 
L 274.256713 256.518016 
L 281.811244 249.429936 
L 283.356673 251.077067 
" clip-path="url(#p9c521511da)"/>
    <path d="M 306.639517 200.808902 
L 303.182564 210.045879 
L 305.693734 209.779879 
L 298.562388 219.16906 
L 299.347724 207.404874 
L 301.067227 209.254211 
L 304.524181 200.017234 
L 306.639517 200.808902 
" clip-path="url(#p9c521511da)"/>
    <path d="M 280.14783 274.415576 
L 270.883505 279.847519 
L 273.000117 281.224723 
L 261.544467 284.014152 
L 269.572893 275.379501 
L 269.741097 277.899112 
L 279.005421 272.467169 
L 280.14783 274.415576 
" clip-path="url(#p9c521511da)"/>
    <path d="M 233.305993 120.701756 
L 242.05995 122.091135 
L 241.298643 119.683409 
L 251.921096 124.799688 
L 240.236509 126.375521 
L 241.705906 124.321839 
L 232.951948 122.93246 
L 233.305993 120.701756 
" clip-path="url(#p9c521511da)"/>
    <path d="M 144.675889 225.590293 
L 139.202861 216.350285 
L 137.835081 218.472999 
L 134.994753 207.029863 
L 143.66501 215.019823 
L 141.146171 215.199227 
L 146.619199 224.439235 
L 144.675889 225.590293 
" clip-path="url(#p9c521511da)"/>
    <path d="M 186.985898 253.849635 
L 176.600771 249.485085 
L 176.766787 252.004842 
L 167.668362 244.506076 
L 179.392056 245.758206 
L 177.47586 247.402873 
L 187.860988 251.767423 
L 186.985898 253.849635 
" clip-path="url(#p9c521511da)"/>
    <path d="M 304.415983 270.727716 
L 298.188404 277.158005 
L 300.596518 277.918087 
L 290.306276 283.673411 
L 295.729144 273.204155 
L 296.565946 275.586694 
L 302.793525 269.156405 
L 304.415983 270.727716 
" clip-path="url(#p9c521511da)"/>
    <path d="M 182.231738 191.665167 
L 176.768142 183.473877 
L 175.515789 185.666671 
L 172.067817 174.391729 
L 181.152789 181.906788 
L 178.647142 182.220582 
L 184.110738 190.411873 
L 182.231738 191.665167 
" clip-path="url(#p9c521511da)"/>
    <path d="M 319.96256 125.163009 
L 324.689501 135.335785 
L 326.26191 133.359865 
L 327.948331 145.029003 
L 320.117022 136.215183 
L 322.641205 136.287558 
L 317.914264 126.114781 
L 319.96256 125.163009 
" clip-path="url(#p9c521511da)"/>
    <path d="M 221.211082 246.952753 
L 206.962272 244.117144 
L 207.629028 246.552749 
L 197.214352 241.025784 
L 208.951539 239.90719 
L 207.403109 241.901957 
L 221.651919 244.737567 
L 221.211082 246.952753 
" clip-path="url(#p9c521511da)"/>
    <path d="M 238.649129 269.831579 
L 228.374909 269.998786 
L 229.540825 272.238735 
L 218.194065 269.035011 
L 229.430566 265.463757 
L 228.338156 267.740459 
L 238.612376 267.573253 
L 238.649129 269.831579 
" clip-path="url(#p9c521511da)"/>
    <path d="M 357.176988 199.950147 
L 353.980759 211.802424 
L 356.455522 211.300143 
L 350.244038 221.321634 
L 349.913355 209.535903 
L 351.800037 211.214344 
L 354.996266 199.362067 
L 357.176988 199.950147 
" clip-path="url(#p9c521511da)"/>
    <path d="M 285.293387 231.261161 
L 275.896848 237.94725 
L 278.126459 239.132819 
L 266.960774 242.919676 
L 274.198076 233.611922 
L 274.587387 236.106952 
L 283.983926 229.420862 
L 285.293387 231.261161 
" clip-path="url(#p9c521511da)"/>
    <path d="M 191.352468 163.356716 
L 193.273183 153.978276 
L 190.833904 154.631461 
L 196.418765 144.247717 
L 197.471997 155.99095 
L 195.485881 154.431439 
L 193.565166 163.809879 
L 191.352468 163.356716 
" clip-path="url(#p9c521511da)"/>
    <path d="M 199.245318 203.307749 
L 188.641615 194.582648 
L 188.07856 197.044295 
L 181.510739 187.252638 
L 192.383869 191.81201 
L 190.076718 192.838553 
L 200.680421 201.563654 
L 199.245318 203.307749 
" clip-path="url(#p9c521511da)"/>
    <path d="M 166.768166 266.118939 
L 157.201022 259.913871 
L 156.919467 262.423346 
L 149.288229 253.435742 
L 160.606568 256.738473 
L 158.430055 258.018914 
L 167.997199 264.223981 
L 166.768166 266.118939 
" clip-path="url(#p9c521511da)"/>
    <path d="M 334.208363 161.813396 
L 335.465078 171.391267 
L 337.55759 169.977715 
L 335.667627 181.615621 
L 330.839299 170.859224 
L 333.225648 171.685103 
L 331.968932 162.107232 
L 334.208363 161.813396 
" clip-path="url(#p9c521511da)"/>
    <path d="M 259.797645 255.530371 
L 251.243345 257.61218 
L 252.874711 259.539712 
L 241.10073 258.918254 
L 251.272471 252.955996 
L 250.709265 255.417608 
L 259.263565 253.335799 
L 259.797645 255.530371 
" clip-path="url(#p9c521511da)"/>
    <path d="M 281.847133 192.34097 
L 278.533861 204.014629 
L 281.015012 203.544923 
L 274.672331 213.483897 
L 274.496601 201.694837 
L 276.361057 203.397934 
L 279.674329 191.724275 
L 281.847133 192.34097 
" clip-path="url(#p9c521511da)"/>
    <path d="M 240.392632 75.850629 
L 249.693912 76.552114 
L 248.737657 74.214955 
L 259.744014 78.442593 
L 248.22808 80.971642 
L 249.524053 78.804343 
L 240.222773 78.102858 
L 240.392632 75.850629 
" clip-path="url(#p9c521511da)"/>
    <path d="M 163.842936 180.49834 
L 163.371322 169.721926 
L 161.164232 170.94891 
L 164.055176 159.518457 
L 167.933628 170.652657 
L 165.627787 169.623175 
L 166.099401 180.399589 
L 163.842936 180.49834 
" clip-path="url(#p9c521511da)"/>
    <path d="M 160.381064 123.913576 
L 167.216126 115.94735 
L 164.766608 115.333677 
L 174.691554 108.969068 
L 169.909045 119.745914 
L 168.930272 117.418096 
L 162.09521 125.384322 
L 160.381064 123.913576 
" clip-path="url(#p9c521511da)"/>
    <path d="M 246.327447 111.334893 
L 255.635504 116.237948 
L 255.688967 113.713294 
L 264.101708 121.97396 
L 252.531071 119.708307 
L 254.582872 118.236285 
L 245.274815 113.333231 
L 246.327447 111.334893 
" clip-path="url(#p9c521511da)"/>
    <path d="M 310.073966 179.789343 
L 308.956782 190.926112 
L 311.316849 190.027881 
L 306.81862 200.926448 
L 304.574812 189.351555 
L 306.709436 190.70067 
L 307.82662 179.563901 
L 310.073966 179.789343 
" clip-path="url(#p9c521511da)"/>
    <path d="M 230.343208 52.438691 
L 240.411092 52.462595 
L 239.287146 50.201295 
L 250.572196 53.616037 
L 239.271057 56.977152 
L 240.405729 54.721214 
L 230.337845 54.697309 
L 230.343208 52.438691 
" clip-path="url(#p9c521511da)"/>
    <path d="M 144.046642 153.036511 
L 146.11414 145.191446 
L 143.642293 145.707884 
L 149.796312 135.651002 
L 150.194452 147.434648 
L 148.298193 145.767034 
L 146.230695 153.612098 
L 144.046642 153.036511 
" clip-path="url(#p9c521511da)"/>
    <path d="M 160.497189 221.742983 
L 153.461793 211.948841 
L 152.286239 214.183747 
L 148.449332 203.035161 
L 157.789457 210.230637 
L 155.2962 210.631137 
L 162.331595 220.42528 
L 160.497189 221.742983 
" clip-path="url(#p9c521511da)"/>
    <path d="M 264.418799 138.525126 
L 269.163576 141.182087 
L 269.281769 138.659634 
L 277.479887 147.13334 
L 265.971162 144.571687 
L 268.06004 143.152771 
L 263.315263 140.49581 
L 264.418799 138.525126 
" clip-path="url(#p9c521511da)"/>
    <path d="M 318.370107 249.483638 
L 310.354989 259.303024 
L 312.818833 259.856385 
L 303.053108 266.462702 
L 307.56964 255.571707 
L 308.605258 257.874799 
L 316.620376 248.055412 
L 318.370107 249.483638 
" clip-path="url(#p9c521511da)"/>
    <path d="M 296.77822 157.512605 
L 299.448575 169.100096 
L 301.395908 167.492418 
L 300.630549 179.25792 
L 294.793095 169.014046 
L 297.247638 169.607305 
L 294.577282 158.019814 
L 296.77822 157.512605 
" clip-path="url(#p9c521511da)"/>
   </g>
   <g id="matplotlib.axis_1">
    <g id="xtick_1">
     <g id="line2d_1">
      <defs>
       <path id="m798d36a5af" d="M 0 0 
L 0 3.5 
" style="stroke: #000000; stroke-width: 0.8"/>
      </defs>
      <g>
       <use xlink:href="#m798d36a5af" x="99.573273" y="307.584" style="stroke: #000000; stroke-width: 0.8"/>
      </g>
     </g>
     <g id="text_1">
      <!-- −16.5 -->
      <g transform="translate(81.186085 323.702125) scale(0.12 -0.12)">
       <defs>
        <path id="DejaVuSans-2212" d="M 678 2272 
L 4684 2272 
L 4684 1741 
L 678 1741 
L 678 2272 
z
" transform="scale(0.015625)"/>
        <path id="DejaVuSans-31" d="M 794 531 
L 1825 531 
L 1825 4091 
L 703 3866 
L 703 4441 
L 1819 4666 
L 2450 4666 
L 2450 531 
L 3481 531 
L 3481 0 
L 794 0 
L 794 531 
z
" transform="scale(0.015625)"/>
        <path id="DejaVuSans-36" d="M 2113 2584 
Q 1688 2584 1439 2293 
Q 1191 2003 1191 1497 
Q 1191 994 1439 701 
Q 1688 409 2113 409 
Q 2538 409 2786 701 
Q 3034 994 3034 1497 
Q 3034 2003 2786 2293 
Q 2538 2584 2113 2584 
z
M 3366 4563 
L 3366 3988 
Q 3128 4100 2886 4159 
Q 2644 4219 2406 4219 
Q 1781 4219 1451 3797 
Q 1122 3375 1075 2522 
Q 1259 2794 1537 2939 
Q 1816 3084 2150 3084 
Q 2853 3084 3261 2657 
Q 3669 2231 3669 1497 
Q 3669 778 3244 343 
Q 2819 -91 2113 -91 
Q 1303 -91 875 529 
Q 447 1150 447 2328 
Q 447 3434 972 4092 
Q 1497 4750 2381 4750 
Q 2619 4750 2861 4703 
Q 3103 4656 3366 4563 
z
" transform="scale(0.015625)"/>
        <path id="DejaVuSans-2e" d="M 684 794 
L 1344 794 
L 1344 0 
L 684 0 
L 684 794 
z
" transform="scale(0.015625)"/>
        <path id="DejaVuSans-35" d="M 691 4666 
L 3169 4666 
L 3169 4134 
L 1269 4134 
L 1269 2991 
Q 1406 3038 1543 3061 
Q 1681 3084 1819 3084 
Q 2600 3084 3056 2656 
Q 3513 2228 3513 1497 
Q 3513 744 3044 326 
Q 2575 -91 1722 -91 
Q 1428 -91 1123 -41 
Q 819 9 494 109 
L 494 744 
Q 775 591 1075 516 
Q 1375 441 1709 441 
Q 2250 441 2565 725 
Q 2881 1009 2881 1497 
Q 2881 1984 2565 2268 
Q 2250 2553 1709 2553 
Q 1456 2553 1204 2497 
Q 953 2441 691 2322 
L 691 4666 
z
" transform="scale(0.015625)"/>
       </defs>
       <use xlink:href="#DejaVuSans-2212"/>
       <use xlink:href="#DejaVuSans-31" x="83.789062"/>
       <use xlink:href="#DejaVuSans-36" x="147.412109"/>
       <use xlink:href="#DejaVuSans-2e" x="211.035156"/>
       <use xlink:href="#DejaVuSans-35" x="242.822266"/>
      </g>
     </g>
    </g>
    <g id="xtick_2">
     <g id="line2d_2">
      <g>
       <use xlink:href="#m798d36a5af" x="155.526075" y="307.584" style="stroke: #000000; stroke-width: 0.8"/>
      </g>
     </g>
     <g id="text_2">
      <!-- −16.0 -->
      <g transform="translate(137.138888 323.702125) scale(0.12 -0.12)">
       <defs>
        <path id="DejaVuSans-30" d="M 2034 4250 
Q 1547 4250 1301 3770 
Q 1056 3291 1056 2328 
Q 1056 1369 1301 889 
Q 1547 409 2034 409 
Q 2525 409 2770 889 
Q 3016 1369 3016 2328 
Q 3016 3291 2770 3770 
Q 2525 4250 2034 4250 
z
M 2034 4750 
Q 2819 4750 3233 4129 
Q 3647 3509 3647 2328 
Q 3647 1150 3233 529 
Q 2819 -91 2034 -91 
Q 1250 -91 836 529 
Q 422 1150 422 2328 
Q 422 3509 836 4129 
Q 1250 4750 2034 4750 
z
" transform="scale(0.015625)"/>
       </defs>
       <use xlink:href="#DejaVuSans-2212"/>
       <use xlink:href="#DejaVuSans-31" x="83.789062"/>
       <use xlink:href="#DejaVuSans-36" x="147.412109"/>
       <use xlink:href="#DejaVuSans-2e" x="211.035156"/>
       <use xlink:href="#DejaVuSans-30" x="242.822266"/>
      </g>
     </g>
    </g>
    <g id="xtick_3">
     <g id="line2d_3">
      <g>
       <use xlink:href="#m798d36a5af" x="211.478878" y="307.584" style="stroke: #000000; stroke-width: 0.8"/>
      </g>
     </g>
     <g id="text_3">
      <!-- −15.5 -->
      <g transform="translate(193.09169 323.702125) scale(0.12 -0.12)">
       <use xlink:href="#DejaVuSans-2212"/>
       <use xlink:href="#DejaVuSans-31" x="83.789062"/>
       <use xlink:href="#DejaVuSans-35" x="147.412109"/>
       <use xlink:href="#DejaVuSans-2e" x="211.035156"/>
       <use xlink:href="#DejaVuSans-35" x="242.822266"/>
      </g>
     </g>
    </g>
    <g id="xtick_4">
     <g id="line2d_4">
      <g>
       <use xlink:href="#m798d36a5af" x="267.43168" y="307.584" style="stroke: #000000; stroke-width: 0.8"/>
      </g>
     </g>
     <g id="text_4">
      <!-- −15.0 -->
      <g transform="translate(249.044493 323.702125) scale(0.12 -0.12)">
       <use xlink:href="#DejaVuSans-2212"/>
       <use xlink:href="#DejaVuSans-31" x="83.789062"/>
       <use xlink:href="#DejaVuSans-35" x="147.412109"/>
       <use xlink:href="#DejaVuSans-2e" x="211.035156"/>
       <use xlink:href="#DejaVuSans-30" x="242.822266"/>
      </g>
     </g>
    </g>
    <g id="xtick_5">
     <g id="line2d_5">
      <g>
       <use xlink:href="#m798d36a5af" x="323.384483" y="307.584" style="stroke: #000000; stroke-width: 0.8"/>
      </g>
     </g>
     <g id="text_5">
      <!-- −14.5 -->
      <g transform="translate(304.997295 323.702125) scale(0.12 -0.12)">
       <defs>
        <path id="DejaVuSans-34" d="M 2419 4116 
L 825 1625 
L 2419 1625 
L 2419 4116 
z
M 2253 4666 
L 3047 4666 
L 3047 1625 
L 3713 1625 
L 3713 1100 
L 3047 1100 
L 3047 0 
L 2419 0 
L 2419 1100 
L 313 1100 
L 313 1709 
L 2253 4666 
z
" transform="scale(0.015625)"/>
       </defs>
       <use xlink:href="#DejaVuSans-2212"/>
       <use xlink:href="#DejaVuSans-31" x="83.789062"/>
       <use xlink:href="#DejaVuSans-34" x="147.412109"/>
       <use xlink:href="#DejaVuSans-2e" x="211.035156"/>
       <use xlink:href="#DejaVuSans-35" x="242.822266"/>
      </g>
     </g>
    </g>
    <g id="xtick_6">
     <g id="line2d_6">
      <g>
       <use xlink:href="#m798d36a5af" x="379.337285" y="307.584" style="stroke: #000000; stroke-width: 0.8"/>
      </g>
     </g>
     <g id="text_6">
      <!-- −14.0 -->
      <g transform="translate(360.950098 323.702125) scale(0.12 -0.12)">
       <use xlink:href="#DejaVuSans-2212"/>
       <use xlink:href="#DejaVuSans-31" x="83.789062"/>
       <use xlink:href="#DejaVuSans-34" x="147.412109"/>
       <use xlink:href="#DejaVuSans-2e" x="211.035156"/>
       <use xlink:href="#DejaVuSans-30" x="242.822266"/>
      </g>
     </g>
    </g>
    <g id="text_7">
     <!-- x -->
     <g transform="translate(232.016875 340.835562) scale(0.14 -0.14)">
      <defs>
       <path id="DejaVuSans-78" d="M 3513 3500 
L 2247 1797 
L 3578 0 
L 2900 0 
L 1881 1375 
L 863 0 
L 184 0 
L 1544 1831 
L 300 3500 
L 978 3500 
L 1906 2253 
L 2834 3500 
L 3513 3500 
z
" transform="scale(0.015625)"/>
      </defs>
      <use xlink:href="#DejaVuSans-78"/>
     </g>
    </g>
   </g>
   <g id="matplotlib.axis_2">
    <g id="ytick_1">
     <g id="line2d_7">
      <defs>
       <path id="mfadf10cb8c" d="M 0 0 
L -3.5 0 
" style="stroke: #000000; stroke-width: 0.8"/>
      </defs>
      <g>
       <use xlink:href="#mfadf10cb8c" x="57.6" y="299.069456" style="stroke: #000000; stroke-width: 0.8"/>
      </g>
     </g>
     <g id="text_8">
      <!-- −5.0 -->
      <g transform="translate(21.460625 303.628519) scale(0.12 -0.12)">
       <use xlink:href="#DejaVuSans-2212"/>
       <use xlink:href="#DejaVuSans-35" x="83.789062"/>
       <use xlink:href="#DejaVuSans-2e" x="147.412109"/>
       <use xlink:href="#DejaVuSans-30" x="179.199219"/>
      </g>
     </g>
    </g>
    <g id="ytick_2">
     <g id="line2d_8">
      <g>
       <use xlink:href="#mfadf10cb8c" x="57.6" y="243.116654" style="stroke: #000000; stroke-width: 0.8"/>
      </g>
     </g>
     <g id="text_9">
      <!-- −4.5 -->
      <g transform="translate(21.460625 247.675716) scale(0.12 -0.12)">
       <use xlink:href="#DejaVuSans-2212"/>
       <use xlink:href="#DejaVuSans-34" x="83.789062"/>
       <use xlink:href="#DejaVuSans-2e" x="147.412109"/>
       <use xlink:href="#DejaVuSans-35" x="179.199219"/>
      </g>
     </g>
    </g>
    <g id="ytick_3">
     <g id="line2d_9">
      <g>
       <use xlink:href="#mfadf10cb8c" x="57.6" y="187.163851" style="stroke: #000000; stroke-width: 0.8"/>
      </g>
     </g>
     <g id="text_10">
      <!-- −4.0 -->
      <g transform="translate(21.460625 191.722914) scale(0.12 -0.12)">
       <use xlink:href="#DejaVuSans-2212"/>
       <use xlink:href="#DejaVuSans-34" x="83.789062"/>
       <use xlink:href="#DejaVuSans-2e" x="147.412109"/>
       <use xlink:href="#DejaVuSans-30" x="179.199219"/>
      </g>
     </g>
    </g>
    <g id="ytick_4">
     <g id="line2d_10">
      <g>
       <use xlink:href="#mfadf10cb8c" x="57.6" y="131.211049" style="stroke: #000000; stroke-width: 0.8"/>
      </g>
     </g>
     <g id="text_11">
      <!-- −3.5 -->
      <g transform="translate(21.460625 135.770111) scale(0.12 -0.12)">
       <defs>
        <path id="DejaVuSans-33" d="M 2597 2516 
Q 3050 2419 3304 2112 
Q 3559 1806 3559 1356 
Q 3559 666 3084 287 
Q 2609 -91 1734 -91 
Q 1441 -91 1130 -33 
Q 819 25 488 141 
L 488 750 
Q 750 597 1062 519 
Q 1375 441 1716 441 
Q 2309 441 2620 675 
Q 2931 909 2931 1356 
Q 2931 1769 2642 2001 
Q 2353 2234 1838 2234 
L 1294 2234 
L 1294 2753 
L 1863 2753 
Q 2328 2753 2575 2939 
Q 2822 3125 2822 3475 
Q 2822 3834 2567 4026 
Q 2313 4219 1838 4219 
Q 1578 4219 1281 4162 
Q 984 4106 628 3988 
L 628 4550 
Q 988 4650 1302 4700 
Q 1616 4750 1894 4750 
Q 2613 4750 3031 4423 
Q 3450 4097 3450 3541 
Q 3450 3153 3228 2886 
Q 3006 2619 2597 2516 
z
" transform="scale(0.015625)"/>
       </defs>
       <use xlink:href="#DejaVuSans-2212"/>
       <use xlink:href="#DejaVuSans-33" x="83.789062"/>
       <use xlink:href="#DejaVuSans-2e" x="147.412109"/>
       <use xlink:href="#DejaVuSans-35" x="179.199219"/>
      </g>
     </g>
    </g>
    <g id="ytick_5">
     <g id="line2d_11">
      <g>
       <use xlink:href="#mfadf10cb8c" x="57.6" y="75.258246" style="stroke: #000000; stroke-width: 0.8"/>
      </g>
     </g>
     <g id="text_12">
      <!-- −3.0 -->
      <g transform="translate(21.460625 79.817309) scale(0.12 -0.12)">
       <use xlink:href="#DejaVuSans-2212"/>
       <use xlink:href="#DejaVuSans-33" x="83.789062"/>
       <use xlink:href="#DejaVuSans-2e" x="147.412109"/>
       <use xlink:href="#DejaVuSans-30" x="179.199219"/>
      </g>
     </g>
    </g>
    <g id="text_13">
     <!-- y -->
     <g transform="translate(14.549063 178.671125) rotate(-90) scale(0.14 -0.14)">
      <defs>
       <path id="DejaVuSans-79" d="M 2059 -325 
Q 1816 -950 1584 -1140 
Q 1353 -1331 966 -1331 
L 506 -1331 
L 506 -850 
L 844 -850 
Q 1081 -850 1212 -737 
Q 1344 -625 1503 -206 
L 1606 56 
L 191 3500 
L 800 3500 
L 1894 763 
L 2988 3500 
L 3597 3500 
L 2059 -325 
z
" transform="scale(0.015625)"/>
      </defs>
      <use xlink:href="#DejaVuSans-79"/>
     </g>
    </g>
   </g>
   <g id="line2d_12">
    <defs>
     <path id="med7ba32f37" d="M 0 3 
C 0.795609 3 1.55874 2.683901 2.12132 2.12132 
C 2.683901 1.55874 3 0.795609 3 0 
C 3 -0.795609 2.683901 -1.55874 2.12132 -2.12132 
C 1.55874 -2.683901 0.795609 -3 0 -3 
C -0.795609 -3 -1.55874 -2.683901 -2.12132 -2.12132 
C -2.683901 -1.55874 -3 -0.795609 -3 0 
C -3 0.795609 -2.683901 1.55874 -2.12132 2.12132 
C -1.55874 2.683901 -0.795609 3 0 3 
z
" style="stroke: #0000ff"/>
    </defs>
    <g clip-path="url(#p9c521511da)">
     <use xlink:href="#med7ba32f37" x="330.370028" y="190.292606" style="fill: #0000ff; stroke: #0000ff"/>
     <use xlink:href="#med7ba32f37" x="193.97996" y="114.49246" style="fill: #0000ff; stroke: #0000ff"/>
     <use xlink:href="#med7ba32f37" x="183.859592" y="227.802597" style="fill: #0000ff; stroke: #0000ff"/>
     <use xlink:href="#med7ba32f37" x="274.15089" y="127.77538" style="fill: #0000ff; stroke: #0000ff"/>
     <use xlink:href="#med7ba32f37" x="214.450694" y="161.887826" style="fill: #0000ff; stroke: #0000ff"/>
     <use xlink:href="#med7ba32f37" x="220.017005" y="102.815927" style="fill: #0000ff; stroke: #0000ff"/>
     <use xlink:href="#med7ba32f37" x="317.384221" y="91.371265" style="fill: #0000ff; stroke: #0000ff"/>
     <use xlink:href="#med7ba32f37" x="191.361387" y="72.14644" style="fill: #0000ff; stroke: #0000ff"/>
     <use xlink:href="#med7ba32f37" x="233.637063" y="231.670341" style="fill: #0000ff; stroke: #0000ff"/>
     <use xlink:href="#med7ba32f37" x="158.085919" y="95.157489" style="fill: #0000ff; stroke: #0000ff"/>
     <use xlink:href="#med7ba32f37" x="204.911181" y="236.796155" style="fill: #0000ff; stroke: #0000ff"/>
     <use xlink:href="#med7ba32f37" x="120.403118" y="153.884482" style="fill: #0000ff; stroke: #0000ff"/>
     <use xlink:href="#med7ba32f37" x="243.625488" y="193.797353" style="fill: #0000ff; stroke: #0000ff"/>
     <use xlink:href="#med7ba32f37" x="297.030736" y="215.687854" style="fill: #0000ff; stroke: #0000ff"/>
     <use xlink:href="#med7ba32f37" x="212.500231" y="269.402098" style="fill: #0000ff; stroke: #0000ff"/>
     <use xlink:href="#med7ba32f37" x="289.941995" y="103.349462" style="fill: #0000ff; stroke: #0000ff"/>
     <use xlink:href="#med7ba32f37" x="127.240214" y="222.217813" style="fill: #0000ff; stroke: #0000ff"/>
     <use xlink:href="#med7ba32f37" x="179.325079" y="140.761917" style="fill: #0000ff; stroke: #0000ff"/>
     <use xlink:href="#med7ba32f37" x="116.233373" y="189.912781" style="fill: #0000ff; stroke: #0000ff"/>
     <use xlink:href="#med7ba32f37" x="336.618645" y="227.768153" style="fill: #0000ff; stroke: #0000ff"/>
    </g>
   </g>
   <g id="line2d_13">
    <defs>
     <path id="mecfb8a6f38" d="M 0 3 
C 0.795609 3 1.55874 2.683901 2.12132 2.12132 
C 2.683901 1.55874 3 0.795609 3 0 
C 3 -0.795609 2.683901 -1.55874 2.12132 -2.12132 
C 1.55874 -2.683901 0.795609 -3 0 -3 
C -0.795609 -3 -1.55874 -2.683901 -2.12132 -2.12132 
C -2.683901 -1.55874 -3 -0.795609 -3 0 
C -3 0.795609 -2.683901 1.55874 -2.12132 2.12132 
C -1.55874 2.683901 -0.795609 3 0 3 
z
" style="stroke: #ff0000"/>
    </defs>
    <g clip-path="url(#p9c521511da)">
     <use xlink:href="#mecfb8a6f38" x="192.065295" y="281.825605" style="fill: #ff0000; stroke: #ff0000"/>
     <use xlink:href="#mecfb8a6f38" x="252.992886" y="225.526682" style="fill: #ff0000; stroke: #ff0000"/>
     <use xlink:href="#mecfb8a6f38" x="282.349895" y="117.326554" style="fill: #ff0000; stroke: #ff0000"/>
     <use xlink:href="#mecfb8a6f38" x="136.922839" y="199.002222" style="fill: #ff0000; stroke: #ff0000"/>
     <use xlink:href="#mecfb8a6f38" x="354.003493" y="143.879487" style="fill: #ff0000; stroke: #ff0000"/>
     <use xlink:href="#mecfb8a6f38" x="121.725661" y="128.98093" style="fill: #ff0000; stroke: #ff0000"/>
     <use xlink:href="#mecfb8a6f38" x="141.18926" y="252.835419" style="fill: #ff0000; stroke: #ff0000"/>
     <use xlink:href="#mecfb8a6f38" x="237.541416" y="190.674412" style="fill: #ff0000; stroke: #ff0000"/>
     <use xlink:href="#mecfb8a6f38" x="306.399602" y="107.632457" style="fill: #ff0000; stroke: #ff0000"/>
     <use xlink:href="#mecfb8a6f38" x="271.257935" y="69.315491" style="fill: #ff0000; stroke: #ff0000"/>
     <use xlink:href="#mecfb8a6f38" x="204.699891" y="149.644223" style="fill: #ff0000; stroke: #ff0000"/>
     <use xlink:href="#mecfb8a6f38" x="151.468655" y="78.125055" style="fill: #ff0000; stroke: #ff0000"/>
     <use xlink:href="#mecfb8a6f38" x="235.445255" y="205.281526" style="fill: #ff0000; stroke: #ff0000"/>
     <use xlink:href="#mecfb8a6f38" x="296.56458" y="139.760281" style="fill: #ff0000; stroke: #ff0000"/>
     <use xlink:href="#mecfb8a6f38" x="142.508118" y="113.664271" style="fill: #ff0000; stroke: #ff0000"/>
     <use xlink:href="#mecfb8a6f38" x="158.668376" y="199.40584" style="fill: #ff0000; stroke: #ff0000"/>
     <use xlink:href="#mecfb8a6f38" x="214.935416" y="211.37159" style="fill: #ff0000; stroke: #ff0000"/>
     <use xlink:href="#mecfb8a6f38" x="249.802469" y="165.465239" style="fill: #ff0000; stroke: #ff0000"/>
     <use xlink:href="#mecfb8a6f38" x="248.290179" y="290.443608" style="fill: #ff0000; stroke: #ff0000"/>
     <use xlink:href="#mecfb8a6f38" x="284.526498" y="64.255297" style="fill: #ff0000; stroke: #ff0000"/>
     <use xlink:href="#mecfb8a6f38" x="178.973633" y="100.634576" style="fill: #ff0000; stroke: #ff0000"/>
     <use xlink:href="#mecfb8a6f38" x="339.718988" y="140.84948" style="fill: #ff0000; stroke: #ff0000"/>
     <use xlink:href="#mecfb8a6f38" x="263.919689" y="185.911138" style="fill: #ff0000; stroke: #ff0000"/>
     <use xlink:href="#mecfb8a6f38" x="247.634967" y="126.358109" style="fill: #ff0000; stroke: #ff0000"/>
     <use xlink:href="#mecfb8a6f38" x="250.120995" y="218.085881" style="fill: #ff0000; stroke: #ff0000"/>
     <use xlink:href="#mecfb8a6f38" x="237.970945" y="150.366" style="fill: #ff0000; stroke: #ff0000"/>
     <use xlink:href="#mecfb8a6f38" x="209.530436" y="81.575247" style="fill: #ff0000; stroke: #ff0000"/>
     <use xlink:href="#mecfb8a6f38" x="264.765295" y="281.311528" style="fill: #ff0000; stroke: #ff0000"/>
     <use xlink:href="#mecfb8a6f38" x="258.933229" y="87.643172" style="fill: #ff0000; stroke: #ff0000"/>
     <use xlink:href="#mecfb8a6f38" x="338.317919" y="114.836673" style="fill: #ff0000; stroke: #ff0000"/>
     <use xlink:href="#mecfb8a6f38" x="148.887509" y="176.565615" style="fill: #ff0000; stroke: #ff0000"/>
     <use xlink:href="#mecfb8a6f38" x="280.294363" y="255.711539" style="fill: #ff0000; stroke: #ff0000"/>
     <use xlink:href="#mecfb8a6f38" x="267.676938" y="86.083468" style="fill: #ff0000; stroke: #ff0000"/>
     <use xlink:href="#mecfb8a6f38" x="322.252484" y="139.942715" style="fill: #ff0000; stroke: #ff0000"/>
     <use xlink:href="#mecfb8a6f38" x="146.519071" y="268.884401" style="fill: #ff0000; stroke: #ff0000"/>
     <use xlink:href="#mecfb8a6f38" x="204.76439" y="130.611897" style="fill: #ff0000; stroke: #ff0000"/>
     <use xlink:href="#mecfb8a6f38" x="240.00936" y="181.019898" style="fill: #ff0000; stroke: #ff0000"/>
     <use xlink:href="#mecfb8a6f38" x="193.627569" y="291.858085" style="fill: #ff0000; stroke: #ff0000"/>
     <use xlink:href="#mecfb8a6f38" x="220.96161" y="123.523785" style="fill: #ff0000; stroke: #ff0000"/>
     <use xlink:href="#mecfb8a6f38" x="231.600682" y="295.488" style="fill: #ff0000; stroke: #ff0000"/>
     <use xlink:href="#mecfb8a6f38" x="282.583959" y="250.253502" style="fill: #ff0000; stroke: #ff0000"/>
     <use xlink:href="#mecfb8a6f38" x="305.581849" y="200.413068" style="fill: #ff0000; stroke: #ff0000"/>
     <use xlink:href="#mecfb8a6f38" x="279.576626" y="273.441372" style="fill: #ff0000; stroke: #ff0000"/>
     <use xlink:href="#mecfb8a6f38" x="233.12897" y="121.817108" style="fill: #ff0000; stroke: #ff0000"/>
     <use xlink:href="#mecfb8a6f38" x="145.647544" y="225.014764" style="fill: #ff0000; stroke: #ff0000"/>
     <use xlink:href="#mecfb8a6f38" x="187.423443" y="252.808529" style="fill: #ff0000; stroke: #ff0000"/>
     <use xlink:href="#mecfb8a6f38" x="303.604754" y="269.94206" style="fill: #ff0000; stroke: #ff0000"/>
     <use xlink:href="#mecfb8a6f38" x="183.171238" y="191.03852" style="fill: #ff0000; stroke: #ff0000"/>
     <use xlink:href="#mecfb8a6f38" x="318.938412" y="125.638895" style="fill: #ff0000; stroke: #ff0000"/>
     <use xlink:href="#mecfb8a6f38" x="221.431501" y="245.84516" style="fill: #ff0000; stroke: #ff0000"/>
    </g>
   </g>
   <g id="line2d_14">
    <defs>
     <path id="m91814ec7d0" d="M 0 3 
C 0.795609 3 1.55874 2.683901 2.12132 2.12132 
C 2.683901 1.55874 3 0.795609 3 0 
C 3 -0.795609 2.683901 -1.55874 2.12132 -2.12132 
C 1.55874 -2.683901 0.795609 -3 0 -3 
C -0.795609 -3 -1.55874 -2.683901 -2.12132 -2.12132 
C -2.683901 -1.55874 -3 -0.795609 -3 0 
C -3 0.795609 -2.683901 1.55874 -2.12132 2.12132 
C -1.55874 2.683901 -0.795609 3 0 3 
z
" style="stroke: #000000"/>
    </defs>
    <g clip-path="url(#p9c521511da)">
     <use xlink:href="#m91814ec7d0" x="238.630753" y="268.702416" style="stroke: #000000"/>
     <use xlink:href="#m91814ec7d0" x="356.086627" y="199.656107" style="stroke: #000000"/>
     <use xlink:href="#m91814ec7d0" x="284.638657" y="230.341012" style="stroke: #000000"/>
     <use xlink:href="#m91814ec7d0" x="192.458817" y="163.583298" style="stroke: #000000"/>
     <use xlink:href="#m91814ec7d0" x="199.96287" y="202.435701" style="stroke: #000000"/>
     <use xlink:href="#m91814ec7d0" x="167.382683" y="265.17146" style="stroke: #000000"/>
     <use xlink:href="#m91814ec7d0" x="333.088647" y="161.960314" style="stroke: #000000"/>
     <use xlink:href="#m91814ec7d0" x="259.530605" y="254.433085" style="stroke: #000000"/>
     <use xlink:href="#m91814ec7d0" x="280.760731" y="192.032623" style="stroke: #000000"/>
     <use xlink:href="#m91814ec7d0" x="240.307703" y="76.976743" style="stroke: #000000"/>
     <use xlink:href="#m91814ec7d0" x="164.971168" y="180.448964" style="stroke: #000000"/>
     <use xlink:href="#m91814ec7d0" x="161.238137" y="124.648949" style="stroke: #000000"/>
     <use xlink:href="#m91814ec7d0" x="245.801131" y="112.334062" style="stroke: #000000"/>
     <use xlink:href="#m91814ec7d0" x="308.950293" y="179.676622" style="stroke: #000000"/>
     <use xlink:href="#m91814ec7d0" x="230.340526" y="53.568" style="stroke: #000000"/>
     <use xlink:href="#m91814ec7d0" x="145.138669" y="153.324305" style="stroke: #000000"/>
     <use xlink:href="#m91814ec7d0" x="161.414392" y="221.084131" style="stroke: #000000"/>
     <use xlink:href="#m91814ec7d0" x="263.867031" y="139.510468" style="stroke: #000000"/>
     <use xlink:href="#m91814ec7d0" x="317.495241" y="248.769525" style="stroke: #000000"/>
     <use xlink:href="#m91814ec7d0" x="295.677751" y="157.766209" style="stroke: #000000"/>
    </g>
   </g>
   <g id="patch_3">
    <path d="M 57.6 307.584 
L 57.6 41.472 
" style="fill: none; stroke: #000000; stroke-width: 0.8; stroke-linejoin: miter; stroke-linecap: square"/>
   </g>
   <g id="patch_4">
    <path d="M 414.72 307.584 
L 414.72 41.472 
" style="fill: none; stroke: #000000; stroke-width: 0.8; stroke-linejoin: miter; stroke-linecap: square"/>
   </g>
   <g id="patch_5">
    <path d="M 57.6 307.584 
L 414.72 307.584 
" style="fill: none; stroke: #000000; stroke-width: 0.8; stroke-linejoin: miter; stroke-linecap: square"/>
   </g>
   <g id="patch_6">
    <path d="M 57.6 41.472 
L 414.72 41.472 
" style="fill: none; stroke: #000000; stroke-width: 0.8; stroke-linejoin: miter; stroke-linecap: square"/>
   </g>
   <g id="text_14">
    <!-- Velocities at the final time -->
    <g transform="translate(116.81 35.472) scale(0.16 -0.16)">
     <defs>
      <path id="DejaVuSans-Bold-56" d="M 31 4666 
L 1241 4666 
L 2478 1222 
L 3713 4666 
L 4922 4666 
L 3194 0 
L 1759 0 
L 31 4666 
z
" transform="scale(0.015625)"/>
      <path id="DejaVuSans-Bold-65" d="M 4031 1759 
L 4031 1441 
L 1416 1441 
Q 1456 1047 1700 850 
Q 1944 653 2381 653 
Q 2734 653 3104 758 
Q 3475 863 3866 1075 
L 3866 213 
Q 3469 63 3072 -14 
Q 2675 -91 2278 -91 
Q 1328 -91 801 392 
Q 275 875 275 1747 
Q 275 2603 792 3093 
Q 1309 3584 2216 3584 
Q 3041 3584 3536 3087 
Q 4031 2591 4031 1759 
z
M 2881 2131 
Q 2881 2450 2695 2645 
Q 2509 2841 2209 2841 
Q 1884 2841 1681 2658 
Q 1478 2475 1428 2131 
L 2881 2131 
z
" transform="scale(0.015625)"/>
      <path id="DejaVuSans-Bold-6c" d="M 538 4863 
L 1656 4863 
L 1656 0 
L 538 0 
L 538 4863 
z
" transform="scale(0.015625)"/>
      <path id="DejaVuSans-Bold-6f" d="M 2203 2784 
Q 1831 2784 1636 2517 
Q 1441 2250 1441 1747 
Q 1441 1244 1636 976 
Q 1831 709 2203 709 
Q 2569 709 2762 976 
Q 2956 1244 2956 1747 
Q 2956 2250 2762 2517 
Q 2569 2784 2203 2784 
z
M 2203 3584 
Q 3106 3584 3614 3096 
Q 4122 2609 4122 1747 
Q 4122 884 3614 396 
Q 3106 -91 2203 -91 
Q 1297 -91 786 396 
Q 275 884 275 1747 
Q 275 2609 786 3096 
Q 1297 3584 2203 3584 
z
" transform="scale(0.015625)"/>
      <path id="DejaVuSans-Bold-63" d="M 3366 3391 
L 3366 2478 
Q 3138 2634 2908 2709 
Q 2678 2784 2431 2784 
Q 1963 2784 1702 2511 
Q 1441 2238 1441 1747 
Q 1441 1256 1702 982 
Q 1963 709 2431 709 
Q 2694 709 2930 787 
Q 3166 866 3366 1019 
L 3366 103 
Q 3103 6 2833 -42 
Q 2563 -91 2291 -91 
Q 1344 -91 809 395 
Q 275 881 275 1747 
Q 275 2613 809 3098 
Q 1344 3584 2291 3584 
Q 2566 3584 2833 3536 
Q 3100 3488 3366 3391 
z
" transform="scale(0.015625)"/>
      <path id="DejaVuSans-Bold-69" d="M 538 3500 
L 1656 3500 
L 1656 0 
L 538 0 
L 538 3500 
z
M 538 4863 
L 1656 4863 
L 1656 3950 
L 538 3950 
L 538 4863 
z
" transform="scale(0.015625)"/>
      <path id="DejaVuSans-Bold-74" d="M 1759 4494 
L 1759 3500 
L 2913 3500 
L 2913 2700 
L 1759 2700 
L 1759 1216 
Q 1759 972 1856 886 
Q 1953 800 2241 800 
L 2816 800 
L 2816 0 
L 1856 0 
Q 1194 0 917 276 
Q 641 553 641 1216 
L 641 2700 
L 84 2700 
L 84 3500 
L 641 3500 
L 641 4494 
L 1759 4494 
z
" transform="scale(0.015625)"/>
      <path id="DejaVuSans-Bold-73" d="M 3272 3391 
L 3272 2541 
Q 2913 2691 2578 2766 
Q 2244 2841 1947 2841 
Q 1628 2841 1473 2761 
Q 1319 2681 1319 2516 
Q 1319 2381 1436 2309 
Q 1553 2238 1856 2203 
L 2053 2175 
Q 2913 2066 3209 1816 
Q 3506 1566 3506 1031 
Q 3506 472 3093 190 
Q 2681 -91 1863 -91 
Q 1516 -91 1145 -36 
Q 775 19 384 128 
L 384 978 
Q 719 816 1070 734 
Q 1422 653 1784 653 
Q 2113 653 2278 743 
Q 2444 834 2444 1013 
Q 2444 1163 2330 1236 
Q 2216 1309 1875 1350 
L 1678 1375 
Q 931 1469 631 1722 
Q 331 1975 331 2491 
Q 331 3047 712 3315 
Q 1094 3584 1881 3584 
Q 2191 3584 2531 3537 
Q 2872 3491 3272 3391 
z
" transform="scale(0.015625)"/>
      <path id="DejaVuSans-Bold-20" transform="scale(0.015625)"/>
      <path id="DejaVuSans-Bold-61" d="M 2106 1575 
Q 1756 1575 1579 1456 
Q 1403 1338 1403 1106 
Q 1403 894 1545 773 
Q 1688 653 1941 653 
Q 2256 653 2472 879 
Q 2688 1106 2688 1447 
L 2688 1575 
L 2106 1575 
z
M 3816 1997 
L 3816 0 
L 2688 0 
L 2688 519 
Q 2463 200 2181 54 
Q 1900 -91 1497 -91 
Q 953 -91 614 226 
Q 275 544 275 1050 
Q 275 1666 698 1953 
Q 1122 2241 2028 2241 
L 2688 2241 
L 2688 2328 
Q 2688 2594 2478 2717 
Q 2269 2841 1825 2841 
Q 1466 2841 1156 2769 
Q 847 2697 581 2553 
L 581 3406 
Q 941 3494 1303 3539 
Q 1666 3584 2028 3584 
Q 2975 3584 3395 3211 
Q 3816 2838 3816 1997 
z
" transform="scale(0.015625)"/>
      <path id="DejaVuSans-Bold-68" d="M 4056 2131 
L 4056 0 
L 2931 0 
L 2931 347 
L 2931 1625 
Q 2931 2084 2911 2256 
Q 2891 2428 2841 2509 
Q 2775 2619 2662 2680 
Q 2550 2741 2406 2741 
Q 2056 2741 1856 2470 
Q 1656 2200 1656 1722 
L 1656 0 
L 538 0 
L 538 4863 
L 1656 4863 
L 1656 2988 
Q 1909 3294 2193 3439 
Q 2478 3584 2822 3584 
Q 3428 3584 3742 3212 
Q 4056 2841 4056 2131 
z
" transform="scale(0.015625)"/>
      <path id="DejaVuSans-Bold-66" d="M 2841 4863 
L 2841 4128 
L 2222 4128 
Q 1984 4128 1890 4042 
Q 1797 3956 1797 3744 
L 1797 3500 
L 2753 3500 
L 2753 2700 
L 1797 2700 
L 1797 0 
L 678 0 
L 678 2700 
L 122 2700 
L 122 3500 
L 678 3500 
L 678 3744 
Q 678 4316 997 4589 
Q 1316 4863 1984 4863 
L 2841 4863 
z
" transform="scale(0.015625)"/>
      <path id="DejaVuSans-Bold-6e" d="M 4056 2131 
L 4056 0 
L 2931 0 
L 2931 347 
L 2931 1631 
Q 2931 2084 2911 2256 
Q 2891 2428 2841 2509 
Q 2775 2619 2662 2680 
Q 2550 2741 2406 2741 
Q 2056 2741 1856 2470 
Q 1656 2200 1656 1722 
L 1656 0 
L 538 0 
L 538 3500 
L 1656 3500 
L 1656 2988 
Q 1909 3294 2193 3439 
Q 2478 3584 2822 3584 
Q 3428 3584 3742 3212 
Q 4056 2841 4056 2131 
z
" transform="scale(0.015625)"/>
      <path id="DejaVuSans-Bold-6d" d="M 3781 2919 
Q 3994 3244 4286 3414 
Q 4578 3584 4928 3584 
Q 5531 3584 5847 3212 
Q 6163 2841 6163 2131 
L 6163 0 
L 5038 0 
L 5038 1825 
Q 5041 1866 5042 1909 
Q 5044 1953 5044 2034 
Q 5044 2406 4934 2573 
Q 4825 2741 4581 2741 
Q 4263 2741 4089 2478 
Q 3916 2216 3909 1719 
L 3909 0 
L 2784 0 
L 2784 1825 
Q 2784 2406 2684 2573 
Q 2584 2741 2328 2741 
Q 2006 2741 1831 2477 
Q 1656 2213 1656 1722 
L 1656 0 
L 531 0 
L 531 3500 
L 1656 3500 
L 1656 2988 
Q 1863 3284 2130 3434 
Q 2397 3584 2719 3584 
Q 3081 3584 3359 3409 
Q 3638 3234 3781 2919 
z
" transform="scale(0.015625)"/>
     </defs>
     <use xlink:href="#DejaVuSans-Bold-56"/>
     <use xlink:href="#DejaVuSans-Bold-65" x="71.892578"/>
     <use xlink:href="#DejaVuSans-Bold-6c" x="139.714844"/>
     <use xlink:href="#DejaVuSans-Bold-6f" x="173.992188"/>
     <use xlink:href="#DejaVuSans-Bold-63" x="242.693359"/>
     <use xlink:href="#DejaVuSans-Bold-69" x="301.970703"/>
     <use xlink:href="#DejaVuSans-Bold-74" x="336.248047"/>
     <use xlink:href="#DejaVuSans-Bold-69" x="384.050781"/>
     <use xlink:href="#DejaVuSans-Bold-65" x="418.328125"/>
     <use xlink:href="#DejaVuSans-Bold-73" x="486.150391"/>
     <use xlink:href="#DejaVuSans-Bold-20" x="545.671875"/>
     <use xlink:href="#DejaVuSans-Bold-61" x="580.486328"/>
     <use xlink:href="#DejaVuSans-Bold-74" x="647.966797"/>
     <use xlink:href="#DejaVuSans-Bold-20" x="695.769531"/>
     <use xlink:href="#DejaVuSans-Bold-74" x="730.583984"/>
     <use xlink:href="#DejaVuSans-Bold-68" x="778.386719"/>
     <use xlink:href="#DejaVuSans-Bold-65" x="849.578125"/>
     <use xlink:href="#DejaVuSans-Bold-20" x="917.400391"/>
     <use xlink:href="#DejaVuSans-Bold-66" x="952.214844"/>
     <use xlink:href="#DejaVuSans-Bold-69" x="995.720703"/>
     <use xlink:href="#DejaVuSans-Bold-6e" x="1029.998047"/>
     <use xlink:href="#DejaVuSans-Bold-61" x="1101.189453"/>
     <use xlink:href="#DejaVuSans-Bold-6c" x="1168.669922"/>
     <use xlink:href="#DejaVuSans-Bold-20" x="1202.947266"/>
     <use xlink:href="#DejaVuSans-Bold-74" x="1237.761719"/>
     <use xlink:href="#DejaVuSans-Bold-69" x="1285.564453"/>
     <use xlink:href="#DejaVuSans-Bold-6d" x="1319.841797"/>
     <use xlink:href="#DejaVuSans-Bold-65" x="1424.041016"/>
    </g>
   </g>
  </g>
 </g>
 <defs>
  <clipPath id="p9c521511da">
   <rect x="57.6" y="41.472" width="357.12" height="266.112"/>
  </clipPath>
 </defs>
</svg>
