<?xml version="1.0" encoding="utf-8" standalone="no"?>
<!DOCTYPE svg PUBLIC "-//W3C//DTD SVG 1.1//EN"
  "http://www.w3.org/Graphics/SVG/1.1/DTD/svg11.dtd">
<svg xmlns:xlink="http://www.w3.org/1999/xlink" width="460.8pt" height="345.6pt" viewBox="0 0 460.8 345.6" xmlns="http://www.w3.org/2000/svg" version="1.1">
 <metadata>
  <rdf:RDF xmlns:dc="http://purl.org/dc/elements/1.1/" xmlns:cc="http://creativecommons.org/ns#" xmlns:rdf="http://www.w3.org/1999/02/22-rdf-syntax-ns#">
   <cc:Work>
    <dc:type rdf:resource="http://purl.org/dc/dcmitype/StillImage"/>
    <dc:date>2025-03-06T17:10:53.750091</dc:date>
    <dc:format>image/svg+xml</dc:format>
    <dc:creator>
     <cc:Agent>
      <dc:title>Matplotlib v3.6.3, https://matplotlib.org/</dc:title>
     </cc:Agent>
    </dc:creator>
   </cc:Work>
  </rdf:RDF>
 </metadata>
 <defs>
  <style type="text/css">*{stroke-linejoin: round; stroke-linecap: butt}</style>
 </defs>
 <g id="figure_1">
  <g id="patch_1">
   <path d="M 0 345.6 
L 460.8 345.6 
L 460.8 0 
L 0 0 
z
" style="fill: #ffffff"/>
  </g>
  <g id="axes_1">
   <g id="patch_2">
    <path d="M 57.6 307.584 
L 414.72 307.584 
L 414.72 41.472 
L 57.6 41.472 
z
" style="fill: #ffffff"/>
   </g>
   <g id="Quiver_1">
    <path d="M 243.104974 140.02357 
L 249.833328 133.064247 
L 247.424563 132.306235 
L 257.709855 126.542071 
L 252.295985 137.015983 
L 251.457136 134.634163 
L 244.728782 141.593486 
L 243.104974 140.02357 
" clip-path="url(#p0f13928bd6)"/>
    <path d="M 353.252077 165.16662 
L 359.972962 158.220963 
L 357.56452 157.461922 
L 367.852274 151.702153 
L 362.433931 162.173751 
L 361.596099 159.791573 
L 354.875214 166.737229 
L 353.252077 165.16662 
" clip-path="url(#p0f13928bd6)"/>
    <path d="M 174.010001 269.066702 
L 180.726526 262.104818 
L 178.316955 261.349367 
L 188.596113 255.574272 
L 183.193383 266.053934 
L 182.352001 263.673007 
L 175.635476 270.63489 
L 174.010001 269.066702 
" clip-path="url(#p0f13928bd6)"/>
    <path d="M 201.112937 246.259751 
L 207.836827 239.295092 
L 205.42752 238.538801 
L 215.70869 232.767289 
L 210.302308 243.245067 
L 209.461756 240.863847 
L 202.737866 247.828506 
L 201.112937 246.259751 
" clip-path="url(#p0f13928bd6)"/>
    <path d="M 271.447831 216.755365 
L 278.170334 209.800626 
L 275.761489 209.042868 
L 286.046173 203.277619 
L 280.633408 213.752102 
L 279.794308 211.370371 
L 273.071804 218.32511 
L 271.447831 216.755365 
" clip-path="url(#p0f13928bd6)"/>
    <path d="M 259.05352 286.207244 
L 265.762393 279.257003 
L 263.353025 278.500909 
L 273.633723 272.728556 
L 268.228197 283.206776 
L 267.387451 280.825625 
L 260.678577 287.775866 
L 259.05352 286.207244 
" clip-path="url(#p0f13928bd6)"/>
    <path d="M 248.745617 113.879355 
L 255.478514 106.920837 
L 253.070048 106.161873 
L 263.357616 100.401772 
L 257.93961 110.873545 
L 257.101702 108.491394 
L 250.368805 115.449913 
L 248.745617 113.879355 
" clip-path="url(#p0f13928bd6)"/>
    <path d="M 311.80229 123.686707 
L 318.534182 116.726811 
L 316.125584 115.968265 
L 326.412153 110.20638 
L 320.995964 120.679093 
L 320.157642 118.297087 
L 313.425749 125.256983 
L 311.80229 123.686707 
" clip-path="url(#p0f13928bd6)"/>
    <path d="M 176.712977 77.249812 
L 183.438973 70.292664 
L 181.030193 69.534698 
L 191.315375 63.770338 
L 185.901705 74.244353 
L 185.06281 71.862549 
L 178.336814 78.819697 
L 176.712977 77.249812 
" clip-path="url(#p0f13928bd6)"/>
    <path d="M 291.842012 148.444679 
L 298.573279 141.485132 
L 296.164665 140.726638 
L 306.451111 134.964533 
L 301.035145 145.437361 
L 300.196772 143.055374 
L 293.465505 150.01492 
L 291.842012 148.444679 
" clip-path="url(#p0f13928bd6)"/>
    <path d="M 320.981907 154.274536 
L 327.708434 147.321025 
L 325.299883 146.562334 
L 335.586798 140.801069 
L 330.169978 151.273455 
L 329.3318 148.891399 
L 322.605272 155.84491 
L 320.981907 154.274536 
" clip-path="url(#p0f13928bd6)"/>
    <path d="M 254.629373 81.747098 
L 261.348929 74.794263 
L 258.940021 74.036703 
L 269.22423 68.270607 
L 263.812328 78.745536 
L 262.973031 76.363874 
L 256.253475 83.316709 
L 254.629373 81.747098 
" clip-path="url(#p0f13928bd6)"/>
    <path d="M 123.936061 184.285456 
L 130.666441 177.311562 
L 128.256998 176.555706 
L 138.537128 170.782341 
L 133.132633 181.261093 
L 132.291652 178.880025 
L 125.561272 185.853919 
L 123.936061 184.285456 
" clip-path="url(#p0f13928bd6)"/>
    <path d="M 244.112006 173.393552 
L 250.846441 166.424013 
L 248.437462 165.666679 
L 258.721131 159.899619 
L 253.310211 170.375055 
L 252.470691 167.993472 
L 245.736256 174.963011 
L 244.112006 173.393552 
" clip-path="url(#p0f13928bd6)"/>
    <path d="M 316.920633 214.78847 
L 323.640502 207.838363 
L 321.23176 207.080275 
L 331.517234 201.316436 
L 326.103034 211.790177 
L 325.26426 209.408331 
L 318.544391 216.358437 
L 316.920633 214.78847 
" clip-path="url(#p0f13928bd6)"/>
    <path d="M 227.50739 228.265493 
L 234.232739 221.302769 
L 231.82362 220.545882 
L 242.106216 214.776912 
L 236.697243 225.253353 
L 235.85728 222.871926 
L 229.131931 229.83465 
L 227.50739 228.265493 
" clip-path="url(#p0f13928bd6)"/>
    <path d="M 321.331935 184.095464 
L 328.052188 177.144487 
L 325.64342 176.386481 
L 335.928698 170.622292 
L 330.514854 181.096218 
L 329.675999 178.7144 
L 322.955746 185.665376 
L 321.331935 184.095464 
" clip-path="url(#p0f13928bd6)"/>
    <path d="M 215.881423 174.284778 
L 222.613842 167.324065 
L 220.205229 166.565566 
L 230.491685 160.803479 
L 225.075701 171.276298 
L 224.237332 168.894309 
L 217.504913 175.855022 
L 215.881423 174.284778 
" clip-path="url(#p0f13928bd6)"/>
    <path d="M 211.175354 85.186669 
L 217.904649 78.224291 
L 215.495771 77.466639 
L 225.780201 71.700938 
L 220.367897 82.175659 
L 219.528692 79.793965 
L 212.799396 86.756343 
L 211.175354 85.186669 
" clip-path="url(#p0f13928bd6)"/>
    <path d="M 219.773949 118.019892 
L 226.503196 111.05989 
L 224.094444 110.301835 
L 234.379837 104.537852 
L 228.965784 115.011669 
L 228.126976 112.629835 
L 221.397729 119.589837 
L 219.773949 118.019892 
" clip-path="url(#p0f13928bd6)"/>
    <path d="M 195.563114 130.799246 
L 202.271324 123.856908 
L 199.862349 123.099564 
L 210.146042 117.332549 
L 204.735077 127.807961 
L 203.895567 125.426374 
L 197.187357 132.368712 
L 195.563114 130.799246 
" clip-path="url(#p0f13928bd6)"/>
    <path d="M 336.432551 105.269629 
L 343.15761 98.318681 
L 340.749115 97.559809 
L 351.036464 91.799317 
L 345.618856 102.271296 
L 344.780857 99.889177 
L 338.055798 106.840125 
L 336.432551 105.269629 
" clip-path="url(#p0f13928bd6)"/>
    <path d="M 278.057198 262.486703 
L 284.768179 255.538114 
L 282.359019 254.781356 
L 292.641308 249.011837 
L 287.232893 259.488567 
L 286.392804 257.107184 
L 279.681823 264.055773 
L 278.057198 262.486703 
" clip-path="url(#p0f13928bd6)"/>
    <path d="M 203.139746 223.633269 
L 209.868882 216.66715 
L 207.459791 215.910172 
L 217.742605 210.141589 
L 212.333237 220.617827 
L 211.493364 218.236368 
L 204.764228 225.202487 
L 203.139746 223.633269 
" clip-path="url(#p0f13928bd6)"/>
    <path d="M 152.496158 88.276481 
L 159.225202 81.31448 
L 156.81633 80.556808 
L 167.100809 74.791193 
L 161.688417 85.265869 
L 160.849231 82.884167 
L 154.120187 89.846169 
L 152.496158 88.276481 
" clip-path="url(#p0f13928bd6)"/>
    <path d="M 299.099955 171.757091 
L 305.823051 164.803181 
L 303.414284 164.045173 
L 313.699565 158.28099 
L 308.285716 168.754913 
L 307.446862 166.373094 
L 300.723766 173.327004 
L 299.099955 171.757091 
" clip-path="url(#p0f13928bd6)"/>
    <path d="M 205.567501 270.735085 
L 212.279174 263.775857 
L 209.869475 263.020817 
L 220.147649 257.24397 
L 214.746704 267.724552 
L 213.904917 265.343769 
L 207.193244 272.302997 
L 205.567501 270.735085 
" clip-path="url(#p0f13928bd6)"/>
    <path d="M 170.240807 171.064182 
L 176.93554 164.131469 
L 174.526328 163.374875 
L 184.808223 157.604654 
L 179.400524 168.081753 
L 178.560272 165.700428 
L 171.865539 172.633141 
L 170.240807 171.064182 
" clip-path="url(#p0f13928bd6)"/>
    <path d="M 217.430787 54.68543 
L 224.153791 47.727363 
L 221.744792 46.970092 
L 232.028312 41.202767 
L 226.617662 51.678342 
L 225.778081 49.29678 
L 219.055077 56.254847 
L 217.430787 54.68543 
" clip-path="url(#p0f13928bd6)"/>
    <path d="M 213.682059 292.270925 
L 220.3944 285.313742 
L 217.984849 284.558228 
L 228.264159 278.783402 
L 222.861154 289.262922 
L 222.019835 286.881974 
L 215.307493 293.839156 
L 213.682059 292.270925 
" clip-path="url(#p0f13928bd6)"/>
    <path d="M 285.324046 285.457344 
L 292.032094 278.510118 
L 289.622843 277.75365 
L 299.904437 271.982893 
L 294.497284 282.460274 
L 293.656908 280.078992 
L 286.94886 287.026219 
L 285.324046 285.457344 
" clip-path="url(#p0f13928bd6)"/>
    <path d="M 193.661569 287.024619 
L 200.375274 280.065915 
L 197.965717 279.31042 
L 208.244982 273.535514 
L 202.842058 284.015076 
L 202.00072 281.634134 
L 195.287015 288.592838 
L 193.661569 287.024619 
" clip-path="url(#p0f13928bd6)"/>
    <path d="M 232.695269 95.564284 
L 239.417604 88.613333 
L 237.008956 87.85495 
L 247.295136 82.092372 
L 241.879652 92.565449 
L 241.04117 90.1835 
L 234.318835 97.134451 
L 232.695269 95.564284 
" clip-path="url(#p0f13928bd6)"/>
    <path d="M 156.229025 160.345786 
L 162.940874 153.385495 
L 160.531127 152.630607 
L 170.808936 146.85311 
L 165.408654 157.334034 
L 164.566716 154.953304 
L 157.854867 161.913595 
L 156.229025 160.345786 
" clip-path="url(#p0f13928bd6)"/>
    <path d="M 251.583685 230.070631 
L 258.305752 223.114841 
L 255.896824 222.357343 
L 266.180886 216.590983 
L 260.769252 227.066051 
L 259.929894 224.68441 
L 253.207828 231.6402 
L 251.583685 230.070631 
" clip-path="url(#p0f13928bd6)"/>
    <path d="M 165.009445 228.000217 
L 171.744546 221.033345 
L 169.335749 220.275431 
L 179.620805 214.510846 
L 174.207365 224.98498 
L 173.368418 222.603195 
L 166.633317 229.570067 
L 165.009445 228.000217 
" clip-path="url(#p0f13928bd6)"/>
    <path d="M 129.403858 118.88663 
L 136.136725 111.916143 
L 133.727607 111.159253 
L 144.010212 105.390297 
L 138.601224 115.866731 
L 137.761264 113.485302 
L 131.028397 120.45579 
L 129.403858 118.88663 
" clip-path="url(#p0f13928bd6)"/>
    <path d="M 283.841739 242.929826 
L 290.558064 235.979845 
L 288.14913 235.22237 
L 298.433136 229.455913 
L 293.021603 239.931032 
L 292.182222 237.549399 
L 285.465897 244.49938 
L 283.841739 242.929826 
" clip-path="url(#p0f13928bd6)"/>
    <path d="M 162.927344 106.030478 
L 169.668492 99.0655 
L 167.260138 98.306179 
L 177.548561 92.547605 
L 172.129001 103.018574 
L 171.291446 100.636299 
L 164.550298 107.601276 
L 162.927344 106.030478 
" clip-path="url(#p0f13928bd6)"/>
    <path d="M 282.440343 171.399973 
L 289.165391 164.443254 
L 286.756581 163.685383 
L 297.041535 157.920616 
L 291.62828 168.394846 
L 290.78929 166.013075 
L 284.064243 172.969794 
L 282.440343 171.399973 
" clip-path="url(#p0f13928bd6)"/>
    <path d="M 150.338977 178.639147 
L 157.059444 171.685654 
L 154.650552 170.928045 
L 164.934878 165.162159 
L 159.522763 175.636977 
L 158.683515 173.255298 
L 151.963048 180.208792 
L 150.338977 178.639147 
" clip-path="url(#p0f13928bd6)"/>
    <path d="M 262.323908 55.387917 
L 269.045955 48.431944 
L 266.637016 47.674481 
L 276.920993 41.907971 
L 271.509513 52.383118 
L 270.67012 50.00149 
L 263.948074 56.957462 
L 262.323908 55.387917 
" clip-path="url(#p0f13928bd6)"/>
    <path d="M 178.152317 240.345771 
L 184.875136 233.385731 
L 182.46602 232.628833 
L 192.748643 226.85991 
L 187.339622 237.336327 
L 186.49967 234.954895 
L 179.776851 241.914936 
L 178.152317 240.345771 
" clip-path="url(#p0f13928bd6)"/>
    <path d="M 137.490941 158.683744 
L 144.219363 151.706335 
L 141.80962 150.951435 
L 152.087457 145.173989 
L 146.687123 155.654886 
L 145.845198 153.274152 
L 139.116775 160.251561 
L 137.490941 158.683744 
" clip-path="url(#p0f13928bd6)"/>
    <path d="M 233.855056 294.7039 
L 240.564586 287.749365 
L 238.155022 286.993897 
L 248.434221 281.218875 
L 243.031415 291.698498 
L 242.190051 289.317566 
L 235.48052 296.2721 
L 233.855056 294.7039 
" clip-path="url(#p0f13928bd6)"/>
    <path d="M 260.165029 257.584572 
L 266.87789 250.632709 
L 264.468657 249.876181 
L 274.750396 244.105682 
L 269.342981 254.582927 
L 268.502664 252.201625 
L 261.789803 259.153488 
L 260.165029 257.584572 
" clip-path="url(#p0f13928bd6)"/>
    <path d="M 244.16028 246.300746 
L 250.878046 239.345486 
L 248.468905 238.588667 
L 258.751342 232.819411 
L 253.342659 243.296002 
L 252.502631 240.914598 
L 245.784865 247.869858 
L 244.16028 246.300746 
" clip-path="url(#p0f13928bd6)"/>
    <path d="M 122.194587 211.232804 
L 128.919016 204.259149 
L 126.509252 203.504316 
L 136.786928 197.726583 
L 131.386886 208.207631 
L 130.544894 205.826921 
L 123.820465 212.800576 
L 122.194587 211.232804 
" clip-path="url(#p0f13928bd6)"/>
    <path d="M 166.795456 189.55329 
L 173.519771 182.609326 
L 171.111615 181.849378 
L 181.401538 176.093484 
L 175.97925 186.563041 
L 175.142316 184.180547 
L 168.418001 191.124511 
L 166.795456 189.55329 
" clip-path="url(#p0f13928bd6)"/>
    <path d="M 173.744167 124.486639 
L 180.487121 117.533844 
L 178.079535 116.772094 
L 188.373762 111.023902 
L 182.943641 121.489398 
L 182.10849 119.106279 
L 175.365536 126.059074 
L 173.744167 124.486639 
" clip-path="url(#p0f13928bd6)"/>
    <path d="M 241.387934 265.244182 
L 248.099513 258.292645 
L 245.690227 257.53629 
L 255.97155 251.765052 
L 250.564889 262.242686 
L 249.724401 259.861444 
L 243.012821 266.81298 
L 241.387934 265.244182 
" clip-path="url(#p0f13928bd6)"/>
    <path d="M 266.515505 240.755642 
L 273.234167 233.802665 
L 270.825201 233.04529 
L 281.108967 227.278406 
L 275.697869 237.75375 
L 274.85839 235.372152 
L 268.139728 242.325129 
L 266.515505 240.755642 
" clip-path="url(#p0f13928bd6)"/>
    <path d="M 346.941945 224.495074 
L 353.65661 217.551879 
L 351.247951 216.793525 
L 361.534059 211.030818 
L 356.118707 221.503964 
L 355.280195 219.122025 
L 348.56553 226.06522 
L 346.941945 224.495074 
" clip-path="url(#p0f13928bd6)"/>
    <path d="M 301.24015 239.173158 
L 307.956019 232.224041 
L 305.547106 231.466498 
L 315.831276 225.700331 
L 310.419446 236.175298 
L 309.580133 233.793641 
L 302.864263 240.742758 
L 301.24015 239.173158 
" clip-path="url(#p0f13928bd6)"/>
    <path d="M 123.279254 138.840017 
L 130.016247 131.864326 
L 127.607078 131.107597 
L 137.889298 125.337955 
L 132.481009 135.81475 
L 131.640891 133.433377 
L 124.903897 140.409068 
L 123.279254 138.840017 
" clip-path="url(#p0f13928bd6)"/>
    <path d="M 241.451151 52.783214 
L 248.176764 45.823779 
L 245.767838 45.066277 
L 256.05191 39.299936 
L 250.640258 49.774994 
L 249.800904 47.393352 
L 243.07529 54.352786 
L 241.451151 52.783214 
" clip-path="url(#p0f13928bd6)"/>
    <path d="M 141.926066 104.22362 
L 148.662084 97.254502 
L 146.253217 96.496812 
L 156.537737 90.731271 
L 151.125271 101.205908 
L 150.286102 98.8242 
L 143.550083 105.793319 
L 141.926066 104.22362 
" clip-path="url(#p0f13928bd6)"/>
    <path d="M 230.924791 156.73517 
L 237.646831 149.773371 
L 235.237576 149.016917 
L 245.519137 143.2461 
L 240.112045 153.723513 
L 239.271654 151.342236 
L 232.549614 158.304036 
L 230.924791 156.73517 
" clip-path="url(#p0f13928bd6)"/>
    <path d="M 313.201651 79.36668 
L 319.925108 72.406882 
L 317.516041 71.649828 
L 327.799039 65.881572 
L 322.389338 76.357638 
L 321.549541 73.976152 
L 314.826083 80.93595 
L 313.201651 79.36668 
" clip-path="url(#p0f13928bd6)"/>
    <path d="M 196.992881 162.496757 
L 203.737157 155.52379 
L 201.328544 154.76529 
L 211.615002 149.003207 
L 206.199014 159.476024 
L 205.360647 157.094034 
L 198.616371 164.067002 
L 196.992881 162.496757 
" clip-path="url(#p0f13928bd6)"/>
    <path d="M 225.029609 253.91956 
L 231.749422 246.959125 
L 229.340115 246.202834 
L 239.621286 240.431322 
L 234.214903 250.9091 
L 233.374351 248.52788 
L 226.654538 255.488316 
L 225.029609 253.91956 
" clip-path="url(#p0f13928bd6)"/>
    <path d="M 323.244325 94.209596 
L 329.980995 87.24309 
L 327.572306 86.484833 
L 337.858184 80.721714 
L 332.44325 91.195076 
L 331.604643 88.813171 
L 324.867973 95.779677 
L 323.244325 94.209596 
" clip-path="url(#p0f13928bd6)"/>
    <path d="M 269.87958 101.227794 
L 276.61454 94.260753 
L 274.205727 93.502894 
L 284.490653 87.738078 
L 279.077448 98.212333 
L 278.238448 95.830566 
L 271.503487 102.797607 
L 269.87958 101.227794 
" clip-path="url(#p0f13928bd6)"/>
    <path d="M 231.417908 68.837335 
L 238.145482 61.875617 
L 235.736542 61.118159 
L 246.020508 55.35163 
L 240.609047 65.826787 
L 239.76965 63.44516 
L 233.042077 70.406878 
L 231.417908 68.837335 
" clip-path="url(#p0f13928bd6)"/>
    <path d="M 117.443718 157.583743 
L 124.172858 150.610584 
L 121.763386 149.854822 
L 132.043289 144.081053 
L 126.639206 154.560018 
L 125.798132 152.178983 
L 119.068991 159.152142 
L 117.443718 157.583743 
" clip-path="url(#p0f13928bd6)"/>
    <path d="M 197.850698 59.938133 
L 204.572694 52.98078 
L 202.163677 52.223565 
L 212.447061 46.455997 
L 207.036659 56.931701 
L 206.197021 54.550159 
L 199.475025 61.507512 
L 197.850698 59.938133 
" clip-path="url(#p0f13928bd6)"/>
    <path d="M 293.05675 223.029014 
L 299.777109 216.077281 
L 297.368306 215.319387 
L 307.653317 209.55472 
L 302.239959 220.028897 
L 301.400993 217.647118 
L 294.680634 224.598851 
L 293.05675 223.029014 
" clip-path="url(#p0f13928bd6)"/>
    <path d="M 231.251121 191.128793 
L 237.987181 184.162886 
L 235.578491 183.404634 
L 245.864357 177.641494 
L 240.449445 188.114867 
L 239.610833 185.732964 
L 232.874772 192.69887 
L 231.251121 191.128793 
" clip-path="url(#p0f13928bd6)"/>
    <path d="M 130.733207 228.321236 
L 137.450404 221.357749 
L 135.040784 220.602455 
L 145.319567 214.826691 
L 139.917518 225.306705 
L 139.075981 222.925833 
L 132.358784 229.889319 
L 130.733207 228.321236 
" clip-path="url(#p0f13928bd6)"/>
    <path d="M 225.30407 274.684968 
L 232.013865 267.72802 
L 229.604184 266.972922 
L 239.882495 261.19632 
L 234.481301 271.676774 
L 233.639571 269.29597 
L 226.929776 276.252918 
L 225.30407 274.684968 
" clip-path="url(#p0f13928bd6)"/>
    <path d="M 213.051433 203.030729 
L 219.78036 196.064858 
L 217.37127 195.307876 
L 227.654098 189.539316 
L 222.244706 200.015541 
L 221.404838 197.63408 
L 214.675911 204.599951 
L 213.051433 203.030729 
" clip-path="url(#p0f13928bd6)"/>
    <path d="M 350.20898 198.866596 
L 356.92618 191.921892 
L 354.517583 191.163346 
L 364.804153 185.401463 
L 359.387961 195.874174 
L 358.54964 193.492169 
L 351.832439 200.436872 
L 350.20898 198.866596 
" clip-path="url(#p0f13928bd6)"/>
    <path d="M 148.60806 247.725234 
L 155.330013 240.758105 
L 152.920463 240.002588 
L 163.199779 234.227773 
L 157.796762 244.707288 
L 156.955445 242.326338 
L 150.233492 249.293467 
L 148.60806 247.725234 
" clip-path="url(#p0f13928bd6)"/>
    <path d="M 189.63167 184.39652 
L 196.362585 177.42534 
L 193.95332 176.668919 
L 204.234802 170.897964 
L 198.827852 181.375449 
L 197.987429 178.994184 
L 191.256514 185.965363 
L 189.63167 184.39652 
" clip-path="url(#p0f13928bd6)"/>
    <path d="M 183.529593 212.43361 
L 190.261031 205.465907 
L 187.851983 204.708792 
L 198.135128 198.940798 
L 192.72516 209.416726 
L 191.885423 207.035219 
L 185.153985 214.002922 
L 183.529593 212.43361 
" clip-path="url(#p0f13928bd6)"/>
    <path d="M 293.246628 101.715883 
L 299.98283 94.750735 
L 297.574189 93.992327 
L 307.860429 88.229855 
L 302.444837 98.702876 
L 301.606379 96.320918 
L 294.870177 103.286066 
L 293.246628 101.715883 
" clip-path="url(#p0f13928bd6)"/>
    <path d="M 245.097059 206.073054 
L 251.823658 199.112994 
L 249.414754 198.355423 
L 259.698989 192.589373 
L 254.28704 203.064278 
L 253.447754 200.682612 
L 246.721155 207.642673 
L 245.097059 206.073054 
" clip-path="url(#p0f13928bd6)"/>
    <path d="M 329.291324 244.667683 
L 336.003177 237.72385 
L 333.594325 236.966112 
L 343.878963 231.20078 
L 338.466283 241.675307 
L 337.627163 239.293582 
L 330.91531 246.237415 
L 329.291324 244.667683 
" clip-path="url(#p0f13928bd6)"/>
    <path d="M 180.544449 149.179472 
L 187.251721 142.248415 
L 184.843309 141.489282 
L 195.131283 135.729907 
L 189.712539 146.201297 
L 188.874798 143.819087 
L 182.167525 150.750144 
L 180.544449 149.179472 
" clip-path="url(#p0f13928bd6)"/>
    <path d="M 212.832983 144.78848 
L 219.559054 137.822627 
L 217.149805 137.066152 
L 227.431416 131.295425 
L 222.024233 141.77279 
L 221.183863 139.391506 
L 214.457792 146.357359 
L 212.832983 144.78848 
" clip-path="url(#p0f13928bd6)"/>
    <path d="M 286.660155 69.883821 
L 293.380765 62.925614 
L 290.971625 62.168795 
L 301.254061 56.399538 
L 295.84538 66.87613 
L 295.00535 64.494726 
L 288.28474 71.452933 
L 286.660155 69.883821 
" clip-path="url(#p0f13928bd6)"/>
    <path d="M 274.137497 127.403616 
L 280.873556 120.437654 
L 278.464863 119.679412 
L 288.750705 113.91623 
L 283.335836 124.389625 
L 282.497214 122.007725 
L 275.761155 128.973687 
L 274.137497 127.403616 
" clip-path="url(#p0f13928bd6)"/>
    <path d="M 151.566256 134.075783 
L 158.309088 127.09535 
L 155.899989 126.338396 
L 166.182747 120.569713 
L 160.773481 131.046003 
L 159.933585 128.664552 
L 153.190754 135.644985 
L 151.566256 134.075783 
" clip-path="url(#p0f13928bd6)"/>
    <path d="M 304.513597 267.101268 
L 311.22338 260.155706 
L 308.814318 259.398638 
L 319.097349 253.630442 
L 313.687587 264.106476 
L 312.847803 261.724985 
L 306.13802 268.670547 
L 304.513597 267.101268 
" clip-path="url(#p0f13928bd6)"/>
    <path d="M 190.355177 108.039117 
L 197.089675 101.078807 
L 194.681201 100.319867 
L 204.968713 94.559665 
L 199.55081 105.031491 
L 198.712878 102.649348 
L 191.97838 109.609659 
L 190.355177 108.039117 
" clip-path="url(#p0f13928bd6)"/>
    <path d="M 150.516402 207.164735 
L 157.233843 200.211753 
L 154.824808 199.454597 
L 165.108049 193.686775 
L 159.697906 204.162613 
L 158.858209 201.781091 
L 152.140768 208.734073 
L 150.516402 207.164735 
" clip-path="url(#p0f13928bd6)"/>
    <path d="M 345.234607 131.095221 
L 351.961289 124.144929 
L 349.552921 123.385653 
L 359.841237 117.626887 
L 354.421872 128.097957 
L 353.584273 125.715697 
L 346.85759 132.665989 
L 345.234607 131.095221 
" clip-path="url(#p0f13928bd6)"/>
    <path d="M 292.350173 195.487513 
L 299.072055 188.534483 
L 296.663267 187.77654 
L 306.948393 182.012079 
L 301.534826 192.486147 
L 300.695908 190.104352 
L 293.974026 197.057382 
L 292.350173 195.487513 
" clip-path="url(#p0f13928bd6)"/>
    <path d="M 266.204004 187.0809 
L 272.929125 180.122408 
L 270.520223 179.36483 
L 280.804475 173.59881 
L 275.392496 184.0737 
L 274.553216 181.692031 
L 267.828094 188.650523 
L 266.204004 187.0809 
" clip-path="url(#p0f13928bd6)"/>
    <path d="M 264.746227 155.956332 
L 271.480315 148.990035 
L 269.071493 148.232203 
L 279.356353 142.467269 
L 273.943268 152.941587 
L 273.10424 150.559829 
L 266.370152 157.526127 
L 264.746227 155.956332 
" clip-path="url(#p0f13928bd6)"/>
   </g>
   <g id="matplotlib.axis_1">
    <g id="xtick_1">
     <g id="line2d_1">
      <defs>
       <path id="m86aa81bf0e" d="M 0 0 
L 0 3.5 
" style="stroke: #000000; stroke-width: 0.8"/>
      </defs>
      <g>
       <use xlink:href="#m86aa81bf0e" x="99.651444" y="307.584" style="stroke: #000000; stroke-width: 0.8"/>
      </g>
     </g>
     <g id="text_1">
      <!-- 72.5 -->
      <g transform="translate(86.292069 323.702125) scale(0.12 -0.12)">
       <defs>
        <path id="DejaVuSans-37" d="M 525 4666 
L 3525 4666 
L 3525 4397 
L 1831 0 
L 1172 0 
L 2766 4134 
L 525 4134 
L 525 4666 
z
" transform="scale(0.015625)"/>
        <path id="DejaVuSans-32" d="M 1228 531 
L 3431 531 
L 3431 0 
L 469 0 
L 469 531 
Q 828 903 1448 1529 
Q 2069 2156 2228 2338 
Q 2531 2678 2651 2914 
Q 2772 3150 2772 3378 
Q 2772 3750 2511 3984 
Q 2250 4219 1831 4219 
Q 1534 4219 1204 4116 
Q 875 4013 500 3803 
L 500 4441 
Q 881 4594 1212 4672 
Q 1544 4750 1819 4750 
Q 2544 4750 2975 4387 
Q 3406 4025 3406 3419 
Q 3406 3131 3298 2873 
Q 3191 2616 2906 2266 
Q 2828 2175 2409 1742 
Q 1991 1309 1228 531 
z
" transform="scale(0.015625)"/>
        <path id="DejaVuSans-2e" d="M 684 794 
L 1344 794 
L 1344 0 
L 684 0 
L 684 794 
z
" transform="scale(0.015625)"/>
        <path id="DejaVuSans-35" d="M 691 4666 
L 3169 4666 
L 3169 4134 
L 1269 4134 
L 1269 2991 
Q 1406 3038 1543 3061 
Q 1681 3084 1819 3084 
Q 2600 3084 3056 2656 
Q 3513 2228 3513 1497 
Q 3513 744 3044 326 
Q 2575 -91 1722 -91 
Q 1428 -91 1123 -41 
Q 819 9 494 109 
L 494 744 
Q 775 591 1075 516 
Q 1375 441 1709 441 
Q 2250 441 2565 725 
Q 2881 1009 2881 1497 
Q 2881 1984 2565 2268 
Q 2250 2553 1709 2553 
Q 1456 2553 1204 2497 
Q 953 2441 691 2322 
L 691 4666 
z
" transform="scale(0.015625)"/>
       </defs>
       <use xlink:href="#DejaVuSans-37"/>
       <use xlink:href="#DejaVuSans-32" x="63.623047"/>
       <use xlink:href="#DejaVuSans-2e" x="127.246094"/>
       <use xlink:href="#DejaVuSans-35" x="159.033203"/>
      </g>
     </g>
    </g>
    <g id="xtick_2">
     <g id="line2d_2">
      <g>
       <use xlink:href="#m86aa81bf0e" x="161.834744" y="307.584" style="stroke: #000000; stroke-width: 0.8"/>
      </g>
     </g>
     <g id="text_2">
      <!-- 73.0 -->
      <g transform="translate(148.475369 323.702125) scale(0.12 -0.12)">
       <defs>
        <path id="DejaVuSans-33" d="M 2597 2516 
Q 3050 2419 3304 2112 
Q 3559 1806 3559 1356 
Q 3559 666 3084 287 
Q 2609 -91 1734 -91 
Q 1441 -91 1130 -33 
Q 819 25 488 141 
L 488 750 
Q 750 597 1062 519 
Q 1375 441 1716 441 
Q 2309 441 2620 675 
Q 2931 909 2931 1356 
Q 2931 1769 2642 2001 
Q 2353 2234 1838 2234 
L 1294 2234 
L 1294 2753 
L 1863 2753 
Q 2328 2753 2575 2939 
Q 2822 3125 2822 3475 
Q 2822 3834 2567 4026 
Q 2313 4219 1838 4219 
Q 1578 4219 1281 4162 
Q 984 4106 628 3988 
L 628 4550 
Q 988 4650 1302 4700 
Q 1616 4750 1894 4750 
Q 2613 4750 3031 4423 
Q 3450 4097 3450 3541 
Q 3450 3153 3228 2886 
Q 3006 2619 2597 2516 
z
" transform="scale(0.015625)"/>
        <path id="DejaVuSans-30" d="M 2034 4250 
Q 1547 4250 1301 3770 
Q 1056 3291 1056 2328 
Q 1056 1369 1301 889 
Q 1547 409 2034 409 
Q 2525 409 2770 889 
Q 3016 1369 3016 2328 
Q 3016 3291 2770 3770 
Q 2525 4250 2034 4250 
z
M 2034 4750 
Q 2819 4750 3233 4129 
Q 3647 3509 3647 2328 
Q 3647 1150 3233 529 
Q 2819 -91 2034 -91 
Q 1250 -91 836 529 
Q 422 1150 422 2328 
Q 422 3509 836 4129 
Q 1250 4750 2034 4750 
z
" transform="scale(0.015625)"/>
       </defs>
       <use xlink:href="#DejaVuSans-37"/>
       <use xlink:href="#DejaVuSans-33" x="63.623047"/>
       <use xlink:href="#DejaVuSans-2e" x="127.246094"/>
       <use xlink:href="#DejaVuSans-30" x="159.033203"/>
      </g>
     </g>
    </g>
    <g id="xtick_3">
     <g id="line2d_3">
      <g>
       <use xlink:href="#m86aa81bf0e" x="224.018045" y="307.584" style="stroke: #000000; stroke-width: 0.8"/>
      </g>
     </g>
     <g id="text_3">
      <!-- 73.5 -->
      <g transform="translate(210.65867 323.702125) scale(0.12 -0.12)">
       <use xlink:href="#DejaVuSans-37"/>
       <use xlink:href="#DejaVuSans-33" x="63.623047"/>
       <use xlink:href="#DejaVuSans-2e" x="127.246094"/>
       <use xlink:href="#DejaVuSans-35" x="159.033203"/>
      </g>
     </g>
    </g>
    <g id="xtick_4">
     <g id="line2d_4">
      <g>
       <use xlink:href="#m86aa81bf0e" x="286.201345" y="307.584" style="stroke: #000000; stroke-width: 0.8"/>
      </g>
     </g>
     <g id="text_4">
      <!-- 74.0 -->
      <g transform="translate(272.84197 323.702125) scale(0.12 -0.12)">
       <defs>
        <path id="DejaVuSans-34" d="M 2419 4116 
L 825 1625 
L 2419 1625 
L 2419 4116 
z
M 2253 4666 
L 3047 4666 
L 3047 1625 
L 3713 1625 
L 3713 1100 
L 3047 1100 
L 3047 0 
L 2419 0 
L 2419 1100 
L 313 1100 
L 313 1709 
L 2253 4666 
z
" transform="scale(0.015625)"/>
       </defs>
       <use xlink:href="#DejaVuSans-37"/>
       <use xlink:href="#DejaVuSans-34" x="63.623047"/>
       <use xlink:href="#DejaVuSans-2e" x="127.246094"/>
       <use xlink:href="#DejaVuSans-30" x="159.033203"/>
      </g>
     </g>
    </g>
    <g id="xtick_5">
     <g id="line2d_5">
      <g>
       <use xlink:href="#m86aa81bf0e" x="348.384646" y="307.584" style="stroke: #000000; stroke-width: 0.8"/>
      </g>
     </g>
     <g id="text_5">
      <!-- 74.5 -->
      <g transform="translate(335.025271 323.702125) scale(0.12 -0.12)">
       <use xlink:href="#DejaVuSans-37"/>
       <use xlink:href="#DejaVuSans-34" x="63.623047"/>
       <use xlink:href="#DejaVuSans-2e" x="127.246094"/>
       <use xlink:href="#DejaVuSans-35" x="159.033203"/>
      </g>
     </g>
    </g>
    <g id="xtick_6">
     <g id="line2d_6">
      <g>
       <use xlink:href="#m86aa81bf0e" x="410.567947" y="307.584" style="stroke: #000000; stroke-width: 0.8"/>
      </g>
     </g>
     <g id="text_6">
      <!-- 75.0 -->
      <g transform="translate(397.208572 323.702125) scale(0.12 -0.12)">
       <use xlink:href="#DejaVuSans-37"/>
       <use xlink:href="#DejaVuSans-35" x="63.623047"/>
       <use xlink:href="#DejaVuSans-2e" x="127.246094"/>
       <use xlink:href="#DejaVuSans-30" x="159.033203"/>
      </g>
     </g>
    </g>
    <g id="text_7">
     <!-- x -->
     <g transform="translate(232.016875 340.835562) scale(0.14 -0.14)">
      <defs>
       <path id="DejaVuSans-78" d="M 3513 3500 
L 2247 1797 
L 3578 0 
L 2900 0 
L 1881 1375 
L 863 0 
L 184 0 
L 1544 1831 
L 300 3500 
L 978 3500 
L 1906 2253 
L 2834 3500 
L 3513 3500 
z
" transform="scale(0.015625)"/>
      </defs>
      <use xlink:href="#DejaVuSans-78"/>
     </g>
    </g>
   </g>
   <g id="matplotlib.axis_2">
    <g id="ytick_1">
     <g id="line2d_7">
      <defs>
       <path id="mef97a43955" d="M 0 0 
L -3.5 0 
" style="stroke: #000000; stroke-width: 0.8"/>
      </defs>
      <g>
       <use xlink:href="#mef97a43955" x="57.6" y="287.493916" style="stroke: #000000; stroke-width: 0.8"/>
      </g>
     </g>
     <g id="text_8">
      <!-- 84.25 -->
      <g transform="translate(16.24625 292.052979) scale(0.12 -0.12)">
       <defs>
        <path id="DejaVuSans-38" d="M 2034 2216 
Q 1584 2216 1326 1975 
Q 1069 1734 1069 1313 
Q 1069 891 1326 650 
Q 1584 409 2034 409 
Q 2484 409 2743 651 
Q 3003 894 3003 1313 
Q 3003 1734 2745 1975 
Q 2488 2216 2034 2216 
z
M 1403 2484 
Q 997 2584 770 2862 
Q 544 3141 544 3541 
Q 544 4100 942 4425 
Q 1341 4750 2034 4750 
Q 2731 4750 3128 4425 
Q 3525 4100 3525 3541 
Q 3525 3141 3298 2862 
Q 3072 2584 2669 2484 
Q 3125 2378 3379 2068 
Q 3634 1759 3634 1313 
Q 3634 634 3220 271 
Q 2806 -91 2034 -91 
Q 1263 -91 848 271 
Q 434 634 434 1313 
Q 434 1759 690 2068 
Q 947 2378 1403 2484 
z
M 1172 3481 
Q 1172 3119 1398 2916 
Q 1625 2713 2034 2713 
Q 2441 2713 2670 2916 
Q 2900 3119 2900 3481 
Q 2900 3844 2670 4047 
Q 2441 4250 2034 4250 
Q 1625 4250 1398 4047 
Q 1172 3844 1172 3481 
z
" transform="scale(0.015625)"/>
       </defs>
       <use xlink:href="#DejaVuSans-38"/>
       <use xlink:href="#DejaVuSans-34" x="63.623047"/>
       <use xlink:href="#DejaVuSans-2e" x="127.246094"/>
       <use xlink:href="#DejaVuSans-32" x="159.033203"/>
       <use xlink:href="#DejaVuSans-35" x="222.65625"/>
      </g>
     </g>
    </g>
    <g id="ytick_2">
     <g id="line2d_8">
      <g>
       <use xlink:href="#mef97a43955" x="57.6" y="256.402266" style="stroke: #000000; stroke-width: 0.8"/>
      </g>
     </g>
     <g id="text_9">
      <!-- 84.50 -->
      <g transform="translate(16.24625 260.961328) scale(0.12 -0.12)">
       <use xlink:href="#DejaVuSans-38"/>
       <use xlink:href="#DejaVuSans-34" x="63.623047"/>
       <use xlink:href="#DejaVuSans-2e" x="127.246094"/>
       <use xlink:href="#DejaVuSans-35" x="159.033203"/>
       <use xlink:href="#DejaVuSans-30" x="222.65625"/>
      </g>
     </g>
    </g>
    <g id="ytick_3">
     <g id="line2d_9">
      <g>
       <use xlink:href="#mef97a43955" x="57.6" y="225.310616" style="stroke: #000000; stroke-width: 0.8"/>
      </g>
     </g>
     <g id="text_10">
      <!-- 84.75 -->
      <g transform="translate(16.24625 229.869678) scale(0.12 -0.12)">
       <use xlink:href="#DejaVuSans-38"/>
       <use xlink:href="#DejaVuSans-34" x="63.623047"/>
       <use xlink:href="#DejaVuSans-2e" x="127.246094"/>
       <use xlink:href="#DejaVuSans-37" x="159.033203"/>
       <use xlink:href="#DejaVuSans-35" x="222.65625"/>
      </g>
     </g>
    </g>
    <g id="ytick_4">
     <g id="line2d_10">
      <g>
       <use xlink:href="#mef97a43955" x="57.6" y="194.218965" style="stroke: #000000; stroke-width: 0.8"/>
      </g>
     </g>
     <g id="text_11">
      <!-- 85.00 -->
      <g transform="translate(16.24625 198.778028) scale(0.12 -0.12)">
       <use xlink:href="#DejaVuSans-38"/>
       <use xlink:href="#DejaVuSans-35" x="63.623047"/>
       <use xlink:href="#DejaVuSans-2e" x="127.246094"/>
       <use xlink:href="#DejaVuSans-30" x="159.033203"/>
       <use xlink:href="#DejaVuSans-30" x="222.65625"/>
      </g>
     </g>
    </g>
    <g id="ytick_5">
     <g id="line2d_11">
      <g>
       <use xlink:href="#mef97a43955" x="57.6" y="163.127315" style="stroke: #000000; stroke-width: 0.8"/>
      </g>
     </g>
     <g id="text_12">
      <!-- 85.25 -->
      <g transform="translate(16.24625 167.686378) scale(0.12 -0.12)">
       <use xlink:href="#DejaVuSans-38"/>
       <use xlink:href="#DejaVuSans-35" x="63.623047"/>
       <use xlink:href="#DejaVuSans-2e" x="127.246094"/>
       <use xlink:href="#DejaVuSans-32" x="159.033203"/>
       <use xlink:href="#DejaVuSans-35" x="222.65625"/>
      </g>
     </g>
    </g>
    <g id="ytick_6">
     <g id="line2d_12">
      <g>
       <use xlink:href="#mef97a43955" x="57.6" y="132.035665" style="stroke: #000000; stroke-width: 0.8"/>
      </g>
     </g>
     <g id="text_13">
      <!-- 85.50 -->
      <g transform="translate(16.24625 136.594727) scale(0.12 -0.12)">
       <use xlink:href="#DejaVuSans-38"/>
       <use xlink:href="#DejaVuSans-35" x="63.623047"/>
       <use xlink:href="#DejaVuSans-2e" x="127.246094"/>
       <use xlink:href="#DejaVuSans-35" x="159.033203"/>
       <use xlink:href="#DejaVuSans-30" x="222.65625"/>
      </g>
     </g>
    </g>
    <g id="ytick_7">
     <g id="line2d_13">
      <g>
       <use xlink:href="#mef97a43955" x="57.6" y="100.944014" style="stroke: #000000; stroke-width: 0.8"/>
      </g>
     </g>
     <g id="text_14">
      <!-- 85.75 -->
      <g transform="translate(16.24625 105.503077) scale(0.12 -0.12)">
       <use xlink:href="#DejaVuSans-38"/>
       <use xlink:href="#DejaVuSans-35" x="63.623047"/>
       <use xlink:href="#DejaVuSans-2e" x="127.246094"/>
       <use xlink:href="#DejaVuSans-37" x="159.033203"/>
       <use xlink:href="#DejaVuSans-35" x="222.65625"/>
      </g>
     </g>
    </g>
    <g id="ytick_8">
     <g id="line2d_14">
      <g>
       <use xlink:href="#mef97a43955" x="57.6" y="69.852364" style="stroke: #000000; stroke-width: 0.8"/>
      </g>
     </g>
     <g id="text_15">
      <!-- 86.00 -->
      <g transform="translate(16.24625 74.411427) scale(0.12 -0.12)">
       <defs>
        <path id="DejaVuSans-36" d="M 2113 2584 
Q 1688 2584 1439 2293 
Q 1191 2003 1191 1497 
Q 1191 994 1439 701 
Q 1688 409 2113 409 
Q 2538 409 2786 701 
Q 3034 994 3034 1497 
Q 3034 2003 2786 2293 
Q 2538 2584 2113 2584 
z
M 3366 4563 
L 3366 3988 
Q 3128 4100 2886 4159 
Q 2644 4219 2406 4219 
Q 1781 4219 1451 3797 
Q 1122 3375 1075 2522 
Q 1259 2794 1537 2939 
Q 1816 3084 2150 3084 
Q 2853 3084 3261 2657 
Q 3669 2231 3669 1497 
Q 3669 778 3244 343 
Q 2819 -91 2113 -91 
Q 1303 -91 875 529 
Q 447 1150 447 2328 
Q 447 3434 972 4092 
Q 1497 4750 2381 4750 
Q 2619 4750 2861 4703 
Q 3103 4656 3366 4563 
z
" transform="scale(0.015625)"/>
       </defs>
       <use xlink:href="#DejaVuSans-38"/>
       <use xlink:href="#DejaVuSans-36" x="63.623047"/>
       <use xlink:href="#DejaVuSans-2e" x="127.246094"/>
       <use xlink:href="#DejaVuSans-30" x="159.033203"/>
       <use xlink:href="#DejaVuSans-30" x="222.65625"/>
      </g>
     </g>
    </g>
    <g id="text_16">
     <!-- y -->
     <g transform="translate(9.334688 178.671125) rotate(-90) scale(0.14 -0.14)">
      <defs>
       <path id="DejaVuSans-79" d="M 2059 -325 
Q 1816 -950 1584 -1140 
Q 1353 -1331 966 -1331 
L 506 -1331 
L 506 -850 
L 844 -850 
Q 1081 -850 1212 -737 
Q 1344 -625 1503 -206 
L 1606 56 
L 191 3500 
L 800 3500 
L 1894 763 
L 2988 3500 
L 3597 3500 
L 2059 -325 
z
" transform="scale(0.015625)"/>
      </defs>
      <use xlink:href="#DejaVuSans-79"/>
     </g>
    </g>
   </g>
   <g id="line2d_15">
    <defs>
     <path id="m45de6f0f42" d="M 0 3 
C 0.795609 3 1.55874 2.683901 2.12132 2.12132 
C 2.683901 1.55874 3 0.795609 3 0 
C 3 -0.795609 2.683901 -1.55874 2.12132 -2.12132 
C 1.55874 -2.683901 0.795609 -3 0 -3 
C -0.795609 -3 -1.55874 -2.683901 -2.12132 -2.12132 
C -2.683901 -1.55874 -3 -0.795609 -3 0 
C -3 0.795609 -2.683901 1.55874 -2.12132 2.12132 
C -1.55874 2.683901 -0.795609 3 0 3 
z
" style="stroke: #0000ff"/>
    </defs>
    <g clip-path="url(#p0f13928bd6)">
     <use xlink:href="#m45de6f0f42" x="243.916878" y="140.808528" style="fill: #0000ff; stroke: #0000ff"/>
     <use xlink:href="#m45de6f0f42" x="354.063646" y="165.951925" style="fill: #0000ff; stroke: #0000ff"/>
     <use xlink:href="#m45de6f0f42" x="174.822738" y="269.850796" style="fill: #0000ff; stroke: #0000ff"/>
     <use xlink:href="#m45de6f0f42" x="201.925401" y="247.044128" style="fill: #0000ff; stroke: #0000ff"/>
     <use xlink:href="#m45de6f0f42" x="272.259817" y="217.540238" style="fill: #0000ff; stroke: #0000ff"/>
     <use xlink:href="#m45de6f0f42" x="259.866049" y="286.991555" style="fill: #0000ff; stroke: #0000ff"/>
     <use xlink:href="#m45de6f0f42" x="249.557211" y="114.664634" style="fill: #0000ff; stroke: #0000ff"/>
     <use xlink:href="#m45de6f0f42" x="312.614019" y="124.471845" style="fill: #0000ff; stroke: #0000ff"/>
     <use xlink:href="#m45de6f0f42" x="177.524896" y="78.034755" style="fill: #0000ff; stroke: #0000ff"/>
     <use xlink:href="#m45de6f0f42" x="292.653758" y="149.2298" style="fill: #0000ff; stroke: #0000ff"/>
     <use xlink:href="#m45de6f0f42" x="321.79359" y="155.059723" style="fill: #0000ff; stroke: #0000ff"/>
     <use xlink:href="#m45de6f0f42" x="255.441424" y="82.531903" style="fill: #0000ff; stroke: #0000ff"/>
     <use xlink:href="#m45de6f0f42" x="124.748667" y="185.069688" style="fill: #0000ff; stroke: #0000ff"/>
     <use xlink:href="#m45de6f0f42" x="244.924131" y="174.178281" style="fill: #0000ff; stroke: #0000ff"/>
     <use xlink:href="#m45de6f0f42" x="317.732512" y="215.573454" style="fill: #0000ff; stroke: #0000ff"/>
     <use xlink:href="#m45de6f0f42" x="228.31966" y="229.050071" style="fill: #0000ff; stroke: #0000ff"/>
     <use xlink:href="#m45de6f0f42" x="322.143841" y="184.88042" style="fill: #0000ff; stroke: #0000ff"/>
     <use xlink:href="#m45de6f0f42" x="216.693168" y="175.0699" style="fill: #0000ff; stroke: #0000ff"/>
     <use xlink:href="#m45de6f0f42" x="211.987375" y="85.971506" style="fill: #0000ff; stroke: #0000ff"/>
     <use xlink:href="#m45de6f0f42" x="220.585839" y="118.804864" style="fill: #0000ff; stroke: #0000ff"/>
    </g>
   </g>
   <g id="line2d_16">
    <defs>
     <path id="ma14d57c88b" d="M 0 3 
C 0.795609 3 1.55874 2.683901 2.12132 2.12132 
C 2.683901 1.55874 3 0.795609 3 0 
C 3 -0.795609 2.683901 -1.55874 2.12132 -2.12132 
C 1.55874 -2.683901 0.795609 -3 0 -3 
C -0.795609 -3 -1.55874 -2.683901 -2.12132 -2.12132 
C -2.683901 -1.55874 -3 -0.795609 -3 0 
C -3 0.795609 -2.683901 1.55874 -2.12132 2.12132 
C -1.55874 2.683901 -0.795609 3 0 3 
z
" style="stroke: #ff0000"/>
    </defs>
    <g clip-path="url(#p0f13928bd6)">
     <use xlink:href="#ma14d57c88b" x="196.375235" y="131.583979" style="fill: #ff0000; stroke: #ff0000"/>
     <use xlink:href="#ma14d57c88b" x="337.244174" y="106.054877" style="fill: #ff0000; stroke: #ff0000"/>
     <use xlink:href="#ma14d57c88b" x="278.86951" y="263.271238" style="fill: #ff0000; stroke: #ff0000"/>
     <use xlink:href="#ma14d57c88b" x="203.951987" y="224.417878" style="fill: #ff0000; stroke: #ff0000"/>
     <use xlink:href="#ma14d57c88b" x="153.308172" y="89.061325" style="fill: #ff0000; stroke: #ff0000"/>
     <use xlink:href="#ma14d57c88b" x="299.91186" y="172.542048" style="fill: #ff0000; stroke: #ff0000"/>
     <use xlink:href="#ma14d57c88b" x="206.380373" y="271.519041" style="fill: #ff0000; stroke: #ff0000"/>
     <use xlink:href="#ma14d57c88b" x="171.053173" y="171.848662" style="fill: #ff0000; stroke: #ff0000"/>
     <use xlink:href="#ma14d57c88b" x="218.242932" y="55.470139" style="fill: #ff0000; stroke: #ff0000"/>
     <use xlink:href="#ma14d57c88b" x="214.494776" y="293.05504" style="fill: #ff0000; stroke: #ff0000"/>
     <use xlink:href="#ma14d57c88b" x="286.136453" y="286.241782" style="fill: #ff0000; stroke: #ff0000"/>
     <use xlink:href="#ma14d57c88b" x="194.474292" y="287.808728" style="fill: #ff0000; stroke: #ff0000"/>
     <use xlink:href="#ma14d57c88b" x="233.507052" y="96.349368" style="fill: #ff0000; stroke: #ff0000"/>
     <use xlink:href="#ma14d57c88b" x="157.041946" y="161.129691" style="fill: #ff0000; stroke: #ff0000"/>
     <use xlink:href="#ma14d57c88b" x="252.395756" y="230.855416" style="fill: #ff0000; stroke: #ff0000"/>
     <use xlink:href="#ma14d57c88b" x="165.821381" y="228.785142" style="fill: #ff0000; stroke: #ff0000"/>
     <use xlink:href="#ma14d57c88b" x="130.216127" y="119.67121" style="fill: #ff0000; stroke: #ff0000"/>
     <use xlink:href="#ma14d57c88b" x="284.653818" y="243.714603" style="fill: #ff0000; stroke: #ff0000"/>
     <use xlink:href="#ma14d57c88b" x="163.738821" y="106.815877" style="fill: #ff0000; stroke: #ff0000"/>
     <use xlink:href="#ma14d57c88b" x="283.252293" y="172.184883" style="fill: #ff0000; stroke: #ff0000"/>
     <use xlink:href="#ma14d57c88b" x="151.151012" y="179.42397" style="fill: #ff0000; stroke: #ff0000"/>
     <use xlink:href="#ma14d57c88b" x="263.135991" y="56.17269" style="fill: #ff0000; stroke: #ff0000"/>
     <use xlink:href="#ma14d57c88b" x="178.964584" y="241.130353" style="fill: #ff0000; stroke: #ff0000"/>
     <use xlink:href="#ma14d57c88b" x="138.303858" y="159.467653" style="fill: #ff0000; stroke: #ff0000"/>
     <use xlink:href="#ma14d57c88b" x="234.667788" y="295.488" style="fill: #ff0000; stroke: #ff0000"/>
     <use xlink:href="#ma14d57c88b" x="260.977416" y="258.36903" style="fill: #ff0000; stroke: #ff0000"/>
     <use xlink:href="#ma14d57c88b" x="244.972572" y="247.085302" style="fill: #ff0000; stroke: #ff0000"/>
     <use xlink:href="#ma14d57c88b" x="123.007526" y="212.01669" style="fill: #ff0000; stroke: #ff0000"/>
     <use xlink:href="#ma14d57c88b" x="167.606729" y="190.338901" style="fill: #ff0000; stroke: #ff0000"/>
     <use xlink:href="#ma14d57c88b" x="174.554851" y="125.272856" style="fill: #ff0000; stroke: #ff0000"/>
     <use xlink:href="#ma14d57c88b" x="242.200377" y="266.028581" style="fill: #ff0000; stroke: #ff0000"/>
     <use xlink:href="#ma14d57c88b" x="267.327617" y="241.540385" style="fill: #ff0000; stroke: #ff0000"/>
     <use xlink:href="#ma14d57c88b" x="347.753738" y="225.280147" style="fill: #ff0000; stroke: #ff0000"/>
     <use xlink:href="#ma14d57c88b" x="302.052206" y="239.957958" style="fill: #ff0000; stroke: #ff0000"/>
     <use xlink:href="#ma14d57c88b" x="124.091575" y="139.624542" style="fill: #ff0000; stroke: #ff0000"/>
     <use xlink:href="#ma14d57c88b" x="242.26322" y="53.568" style="fill: #ff0000; stroke: #ff0000"/>
     <use xlink:href="#ma14d57c88b" x="142.738074" y="105.008469" style="fill: #ff0000; stroke: #ff0000"/>
     <use xlink:href="#ma14d57c88b" x="231.737202" y="157.519603" style="fill: #ff0000; stroke: #ff0000"/>
     <use xlink:href="#ma14d57c88b" x="314.013867" y="80.151315" style="fill: #ff0000; stroke: #ff0000"/>
     <use xlink:href="#ma14d57c88b" x="197.804626" y="163.281879" style="fill: #ff0000; stroke: #ff0000"/>
     <use xlink:href="#ma14d57c88b" x="225.842073" y="254.703938" style="fill: #ff0000; stroke: #ff0000"/>
     <use xlink:href="#ma14d57c88b" x="324.056149" y="94.994637" style="fill: #ff0000; stroke: #ff0000"/>
     <use xlink:href="#ma14d57c88b" x="270.691533" y="102.0127" style="fill: #ff0000; stroke: #ff0000"/>
     <use xlink:href="#ma14d57c88b" x="232.229993" y="69.622106" style="fill: #ff0000; stroke: #ff0000"/>
     <use xlink:href="#ma14d57c88b" x="118.256354" y="158.367943" style="fill: #ff0000; stroke: #ff0000"/>
     <use xlink:href="#ma14d57c88b" x="198.662861" y="60.722822" style="fill: #ff0000; stroke: #ff0000"/>
     <use xlink:href="#ma14d57c88b" x="293.868692" y="223.813932" style="fill: #ff0000; stroke: #ff0000"/>
     <use xlink:href="#ma14d57c88b" x="232.062947" y="191.913831" style="fill: #ff0000; stroke: #ff0000"/>
     <use xlink:href="#ma14d57c88b" x="131.545996" y="229.105278" style="fill: #ff0000; stroke: #ff0000"/>
     <use xlink:href="#ma14d57c88b" x="226.116923" y="275.468943" style="fill: #ff0000; stroke: #ff0000"/>
    </g>
   </g>
   <g id="line2d_17">
    <defs>
     <path id="m9a5c536a45" d="M 0 3 
C 0.795609 3 1.55874 2.683901 2.12132 2.12132 
C 2.683901 1.55874 3 0.795609 3 0 
C 3 -0.795609 2.683901 -1.55874 2.12132 -2.12132 
C 1.55874 -2.683901 0.795609 -3 0 -3 
C -0.795609 -3 -1.55874 -2.683901 -2.12132 -2.12132 
C -2.683901 -1.55874 -3 -0.795609 -3 0 
C -3 0.795609 -2.683901 1.55874 -2.12132 2.12132 
C -1.55874 2.683901 -0.795609 3 0 3 
z
" style="stroke: #000000"/>
    </defs>
    <g clip-path="url(#p0f13928bd6)">
     <use xlink:href="#m9a5c536a45" x="213.863672" y="203.81534" style="stroke: #000000"/>
     <use xlink:href="#m9a5c536a45" x="351.020709" y="199.651734" style="stroke: #000000"/>
     <use xlink:href="#m9a5c536a45" x="149.420776" y="248.509351" style="stroke: #000000"/>
     <use xlink:href="#m9a5c536a45" x="190.444092" y="185.180941" style="stroke: #000000"/>
     <use xlink:href="#m9a5c536a45" x="184.341789" y="213.218266" style="stroke: #000000"/>
     <use xlink:href="#m9a5c536a45" x="294.058402" y="102.500974" style="stroke: #000000"/>
     <use xlink:href="#m9a5c536a45" x="245.909107" y="206.857863" style="stroke: #000000"/>
     <use xlink:href="#m9a5c536a45" x="330.103317" y="245.452549" style="stroke: #000000"/>
     <use xlink:href="#m9a5c536a45" x="181.355987" y="149.964808" style="stroke: #000000"/>
     <use xlink:href="#m9a5c536a45" x="213.645388" y="145.57292" style="stroke: #000000"/>
     <use xlink:href="#m9a5c536a45" x="287.472447" y="70.668377" style="stroke: #000000"/>
     <use xlink:href="#m9a5c536a45" x="274.949326" y="128.188652" style="stroke: #000000"/>
     <use xlink:href="#m9a5c536a45" x="152.378505" y="134.860384" style="stroke: #000000"/>
     <use xlink:href="#m9a5c536a45" x="305.325808" y="267.885908" style="stroke: #000000"/>
     <use xlink:href="#m9a5c536a45" x="191.166778" y="108.824388" style="stroke: #000000"/>
     <use xlink:href="#m9a5c536a45" x="151.328585" y="207.949404" style="stroke: #000000"/>
     <use xlink:href="#m9a5c536a45" x="346.046099" y="131.880605" style="stroke: #000000"/>
     <use xlink:href="#m9a5c536a45" x="293.162099" y="196.272448" style="stroke: #000000"/>
     <use xlink:href="#m9a5c536a45" x="267.016049" y="187.865711" style="stroke: #000000"/>
     <use xlink:href="#m9a5c536a45" x="265.55819" y="156.741229" style="stroke: #000000"/>
    </g>
   </g>
   <g id="patch_3">
    <path d="M 57.6 307.584 
L 57.6 41.472 
" style="fill: none; stroke: #000000; stroke-width: 0.8; stroke-linejoin: miter; stroke-linecap: square"/>
   </g>
   <g id="patch_4">
    <path d="M 414.72 307.584 
L 414.72 41.472 
" style="fill: none; stroke: #000000; stroke-width: 0.8; stroke-linejoin: miter; stroke-linecap: square"/>
   </g>
   <g id="patch_5">
    <path d="M 57.6 307.584 
L 414.72 307.584 
" style="fill: none; stroke: #000000; stroke-width: 0.8; stroke-linejoin: miter; stroke-linecap: square"/>
   </g>
   <g id="patch_6">
    <path d="M 57.6 41.472 
L 414.72 41.472 
" style="fill: none; stroke: #000000; stroke-width: 0.8; stroke-linejoin: miter; stroke-linecap: square"/>
   </g>
   <g id="text_17">
    <!-- Velocities at the final time -->
    <g transform="translate(116.81 35.472) scale(0.16 -0.16)">
     <defs>
      <path id="DejaVuSans-Bold-56" d="M 31 4666 
L 1241 4666 
L 2478 1222 
L 3713 4666 
L 4922 4666 
L 3194 0 
L 1759 0 
L 31 4666 
z
" transform="scale(0.015625)"/>
      <path id="DejaVuSans-Bold-65" d="M 4031 1759 
L 4031 1441 
L 1416 1441 
Q 1456 1047 1700 850 
Q 1944 653 2381 653 
Q 2734 653 3104 758 
Q 3475 863 3866 1075 
L 3866 213 
Q 3469 63 3072 -14 
Q 2675 -91 2278 -91 
Q 1328 -91 801 392 
Q 275 875 275 1747 
Q 275 2603 792 3093 
Q 1309 3584 2216 3584 
Q 3041 3584 3536 3087 
Q 4031 2591 4031 1759 
z
M 2881 2131 
Q 2881 2450 2695 2645 
Q 2509 2841 2209 2841 
Q 1884 2841 1681 2658 
Q 1478 2475 1428 2131 
L 2881 2131 
z
" transform="scale(0.015625)"/>
      <path id="DejaVuSans-Bold-6c" d="M 538 4863 
L 1656 4863 
L 1656 0 
L 538 0 
L 538 4863 
z
" transform="scale(0.015625)"/>
      <path id="DejaVuSans-Bold-6f" d="M 2203 2784 
Q 1831 2784 1636 2517 
Q 1441 2250 1441 1747 
Q 1441 1244 1636 976 
Q 1831 709 2203 709 
Q 2569 709 2762 976 
Q 2956 1244 2956 1747 
Q 2956 2250 2762 2517 
Q 2569 2784 2203 2784 
z
M 2203 3584 
Q 3106 3584 3614 3096 
Q 4122 2609 4122 1747 
Q 4122 884 3614 396 
Q 3106 -91 2203 -91 
Q 1297 -91 786 396 
Q 275 884 275 1747 
Q 275 2609 786 3096 
Q 1297 3584 2203 3584 
z
" transform="scale(0.015625)"/>
      <path id="DejaVuSans-Bold-63" d="M 3366 3391 
L 3366 2478 
Q 3138 2634 2908 2709 
Q 2678 2784 2431 2784 
Q 1963 2784 1702 2511 
Q 1441 2238 1441 1747 
Q 1441 1256 1702 982 
Q 1963 709 2431 709 
Q 2694 709 2930 787 
Q 3166 866 3366 1019 
L 3366 103 
Q 3103 6 2833 -42 
Q 2563 -91 2291 -91 
Q 1344 -91 809 395 
Q 275 881 275 1747 
Q 275 2613 809 3098 
Q 1344 3584 2291 3584 
Q 2566 3584 2833 3536 
Q 3100 3488 3366 3391 
z
" transform="scale(0.015625)"/>
      <path id="DejaVuSans-Bold-69" d="M 538 3500 
L 1656 3500 
L 1656 0 
L 538 0 
L 538 3500 
z
M 538 4863 
L 1656 4863 
L 1656 3950 
L 538 3950 
L 538 4863 
z
" transform="scale(0.015625)"/>
      <path id="DejaVuSans-Bold-74" d="M 1759 4494 
L 1759 3500 
L 2913 3500 
L 2913 2700 
L 1759 2700 
L 1759 1216 
Q 1759 972 1856 886 
Q 1953 800 2241 800 
L 2816 800 
L 2816 0 
L 1856 0 
Q 1194 0 917 276 
Q 641 553 641 1216 
L 641 2700 
L 84 2700 
L 84 3500 
L 641 3500 
L 641 4494 
L 1759 4494 
z
" transform="scale(0.015625)"/>
      <path id="DejaVuSans-Bold-73" d="M 3272 3391 
L 3272 2541 
Q 2913 2691 2578 2766 
Q 2244 2841 1947 2841 
Q 1628 2841 1473 2761 
Q 1319 2681 1319 2516 
Q 1319 2381 1436 2309 
Q 1553 2238 1856 2203 
L 2053 2175 
Q 2913 2066 3209 1816 
Q 3506 1566 3506 1031 
Q 3506 472 3093 190 
Q 2681 -91 1863 -91 
Q 1516 -91 1145 -36 
Q 775 19 384 128 
L 384 978 
Q 719 816 1070 734 
Q 1422 653 1784 653 
Q 2113 653 2278 743 
Q 2444 834 2444 1013 
Q 2444 1163 2330 1236 
Q 2216 1309 1875 1350 
L 1678 1375 
Q 931 1469 631 1722 
Q 331 1975 331 2491 
Q 331 3047 712 3315 
Q 1094 3584 1881 3584 
Q 2191 3584 2531 3537 
Q 2872 3491 3272 3391 
z
" transform="scale(0.015625)"/>
      <path id="DejaVuSans-Bold-20" transform="scale(0.015625)"/>
      <path id="DejaVuSans-Bold-61" d="M 2106 1575 
Q 1756 1575 1579 1456 
Q 1403 1338 1403 1106 
Q 1403 894 1545 773 
Q 1688 653 1941 653 
Q 2256 653 2472 879 
Q 2688 1106 2688 1447 
L 2688 1575 
L 2106 1575 
z
M 3816 1997 
L 3816 0 
L 2688 0 
L 2688 519 
Q 2463 200 2181 54 
Q 1900 -91 1497 -91 
Q 953 -91 614 226 
Q 275 544 275 1050 
Q 275 1666 698 1953 
Q 1122 2241 2028 2241 
L 2688 2241 
L 2688 2328 
Q 2688 2594 2478 2717 
Q 2269 2841 1825 2841 
Q 1466 2841 1156 2769 
Q 847 2697 581 2553 
L 581 3406 
Q 941 3494 1303 3539 
Q 1666 3584 2028 3584 
Q 2975 3584 3395 3211 
Q 3816 2838 3816 1997 
z
" transform="scale(0.015625)"/>
      <path id="DejaVuSans-Bold-68" d="M 4056 2131 
L 4056 0 
L 2931 0 
L 2931 347 
L 2931 1625 
Q 2931 2084 2911 2256 
Q 2891 2428 2841 2509 
Q 2775 2619 2662 2680 
Q 2550 2741 2406 2741 
Q 2056 2741 1856 2470 
Q 1656 2200 1656 1722 
L 1656 0 
L 538 0 
L 538 4863 
L 1656 4863 
L 1656 2988 
Q 1909 3294 2193 3439 
Q 2478 3584 2822 3584 
Q 3428 3584 3742 3212 
Q 4056 2841 4056 2131 
z
" transform="scale(0.015625)"/>
      <path id="DejaVuSans-Bold-66" d="M 2841 4863 
L 2841 4128 
L 2222 4128 
Q 1984 4128 1890 4042 
Q 1797 3956 1797 3744 
L 1797 3500 
L 2753 3500 
L 2753 2700 
L 1797 2700 
L 1797 0 
L 678 0 
L 678 2700 
L 122 2700 
L 122 3500 
L 678 3500 
L 678 3744 
Q 678 4316 997 4589 
Q 1316 4863 1984 4863 
L 2841 4863 
z
" transform="scale(0.015625)"/>
      <path id="DejaVuSans-Bold-6e" d="M 4056 2131 
L 4056 0 
L 2931 0 
L 2931 347 
L 2931 1631 
Q 2931 2084 2911 2256 
Q 2891 2428 2841 2509 
Q 2775 2619 2662 2680 
Q 2550 2741 2406 2741 
Q 2056 2741 1856 2470 
Q 1656 2200 1656 1722 
L 1656 0 
L 538 0 
L 538 3500 
L 1656 3500 
L 1656 2988 
Q 1909 3294 2193 3439 
Q 2478 3584 2822 3584 
Q 3428 3584 3742 3212 
Q 4056 2841 4056 2131 
z
" transform="scale(0.015625)"/>
      <path id="DejaVuSans-Bold-6d" d="M 3781 2919 
Q 3994 3244 4286 3414 
Q 4578 3584 4928 3584 
Q 5531 3584 5847 3212 
Q 6163 2841 6163 2131 
L 6163 0 
L 5038 0 
L 5038 1825 
Q 5041 1866 5042 1909 
Q 5044 1953 5044 2034 
Q 5044 2406 4934 2573 
Q 4825 2741 4581 2741 
Q 4263 2741 4089 2478 
Q 3916 2216 3909 1719 
L 3909 0 
L 2784 0 
L 2784 1825 
Q 2784 2406 2684 2573 
Q 2584 2741 2328 2741 
Q 2006 2741 1831 2477 
Q 1656 2213 1656 1722 
L 1656 0 
L 531 0 
L 531 3500 
L 1656 3500 
L 1656 2988 
Q 1863 3284 2130 3434 
Q 2397 3584 2719 3584 
Q 3081 3584 3359 3409 
Q 3638 3234 3781 2919 
z
" transform="scale(0.015625)"/>
     </defs>
     <use xlink:href="#DejaVuSans-Bold-56"/>
     <use xlink:href="#DejaVuSans-Bold-65" x="71.892578"/>
     <use xlink:href="#DejaVuSans-Bold-6c" x="139.714844"/>
     <use xlink:href="#DejaVuSans-Bold-6f" x="173.992188"/>
     <use xlink:href="#DejaVuSans-Bold-63" x="242.693359"/>
     <use xlink:href="#DejaVuSans-Bold-69" x="301.970703"/>
     <use xlink:href="#DejaVuSans-Bold-74" x="336.248047"/>
     <use xlink:href="#DejaVuSans-Bold-69" x="384.050781"/>
     <use xlink:href="#DejaVuSans-Bold-65" x="418.328125"/>
     <use xlink:href="#DejaVuSans-Bold-73" x="486.150391"/>
     <use xlink:href="#DejaVuSans-Bold-20" x="545.671875"/>
     <use xlink:href="#DejaVuSans-Bold-61" x="580.486328"/>
     <use xlink:href="#DejaVuSans-Bold-74" x="647.966797"/>
     <use xlink:href="#DejaVuSans-Bold-20" x="695.769531"/>
     <use xlink:href="#DejaVuSans-Bold-74" x="730.583984"/>
     <use xlink:href="#DejaVuSans-Bold-68" x="778.386719"/>
     <use xlink:href="#DejaVuSans-Bold-65" x="849.578125"/>
     <use xlink:href="#DejaVuSans-Bold-20" x="917.400391"/>
     <use xlink:href="#DejaVuSans-Bold-66" x="952.214844"/>
     <use xlink:href="#DejaVuSans-Bold-69" x="995.720703"/>
     <use xlink:href="#DejaVuSans-Bold-6e" x="1029.998047"/>
     <use xlink:href="#DejaVuSans-Bold-61" x="1101.189453"/>
     <use xlink:href="#DejaVuSans-Bold-6c" x="1168.669922"/>
     <use xlink:href="#DejaVuSans-Bold-20" x="1202.947266"/>
     <use xlink:href="#DejaVuSans-Bold-74" x="1237.761719"/>
     <use xlink:href="#DejaVuSans-Bold-69" x="1285.564453"/>
     <use xlink:href="#DejaVuSans-Bold-6d" x="1319.841797"/>
     <use xlink:href="#DejaVuSans-Bold-65" x="1424.041016"/>
    </g>
   </g>
  </g>
 </g>
 <defs>
  <clipPath id="p0f13928bd6">
   <rect x="57.6" y="41.472" width="357.12" height="266.112"/>
  </clipPath>
 </defs>
</svg>
