<?xml version="1.0" encoding="utf-8" standalone="no"?>
<!DOCTYPE svg PUBLIC "-//W3C//DTD SVG 1.1//EN"
  "http://www.w3.org/Graphics/SVG/1.1/DTD/svg11.dtd">
<svg xmlns:xlink="http://www.w3.org/1999/xlink" width="360pt" height="288pt" viewBox="0 0 360 288" xmlns="http://www.w3.org/2000/svg" version="1.1">
 <metadata>
  <rdf:RDF xmlns:dc="http://purl.org/dc/elements/1.1/" xmlns:cc="http://creativecommons.org/ns#" xmlns:rdf="http://www.w3.org/1999/02/22-rdf-syntax-ns#">
   <cc:Work>
    <dc:type rdf:resource="http://purl.org/dc/dcmitype/StillImage"/>
    <dc:date>2025-05-06T01:13:00.708829</dc:date>
    <dc:format>image/svg+xml</dc:format>
    <dc:creator>
     <cc:Agent>
      <dc:title>Matplotlib v3.10.1, https://matplotlib.org/</dc:title>
     </cc:Agent>
    </dc:creator>
   </cc:Work>
  </rdf:RDF>
 </metadata>
 <defs>
  <style type="text/css">*{stroke-linejoin: round; stroke-linecap: butt}</style>
 </defs>
 <g id="figure_1">
  <g id="patch_1">
   <path d="M 0 288 
L 360 288 
L 360 0 
L 0 0 
z
" style="fill: #ffffff"/>
  </g>
  <g id="axes_1">
   <g id="patch_2">
    <path d="M 45 256.32 
L 324 256.32 
L 324 34.56 
L 45 34.56 
z
" style="fill: #ffffff"/>
   </g>
   <g id="matplotlib.axis_1">
    <g id="xtick_1">
     <g id="line2d_1">
      <defs>
       <path id="mdc1a273201" d="M 0 0 
L 0 3.5 
" style="stroke: #000000; stroke-width: 0.8"/>
      </defs>
      <g>
       <use xlink:href="#mdc1a273201" x="100.777678" y="256.32" style="stroke: #000000; stroke-width: 0.8"/>
      </g>
     </g>
     <g id="text_1">
      <!-- 2000 -->
      <g transform="translate(88.052678 270.918437) scale(0.1 -0.1)">
       <defs>
        <path id="DejaVuSans-32" d="M 1228 531 
L 3431 531 
L 3431 0 
L 469 0 
L 469 531 
Q 828 903 1448 1529 
Q 2069 2156 2228 2338 
Q 2531 2678 2651 2914 
Q 2772 3150 2772 3378 
Q 2772 3750 2511 3984 
Q 2250 4219 1831 4219 
Q 1534 4219 1204 4116 
Q 875 4013 500 3803 
L 500 4441 
Q 881 4594 1212 4672 
Q 1544 4750 1819 4750 
Q 2544 4750 2975 4387 
Q 3406 4025 3406 3419 
Q 3406 3131 3298 2873 
Q 3191 2616 2906 2266 
Q 2828 2175 2409 1742 
Q 1991 1309 1228 531 
z
" transform="scale(0.015625)"/>
        <path id="DejaVuSans-30" d="M 2034 4250 
Q 1547 4250 1301 3770 
Q 1056 3291 1056 2328 
Q 1056 1369 1301 889 
Q 1547 409 2034 409 
Q 2525 409 2770 889 
Q 3016 1369 3016 2328 
Q 3016 3291 2770 3770 
Q 2525 4250 2034 4250 
z
M 2034 4750 
Q 2819 4750 3233 4129 
Q 3647 3509 3647 2328 
Q 3647 1150 3233 529 
Q 2819 -91 2034 -91 
Q 1250 -91 836 529 
Q 422 1150 422 2328 
Q 422 3509 836 4129 
Q 1250 4750 2034 4750 
z
" transform="scale(0.015625)"/>
       </defs>
       <use xlink:href="#DejaVuSans-32"/>
       <use xlink:href="#DejaVuSans-30" transform="translate(63.623047 0)"/>
       <use xlink:href="#DejaVuSans-30" transform="translate(127.246094 0)"/>
       <use xlink:href="#DejaVuSans-30" transform="translate(190.869141 0)"/>
      </g>
     </g>
    </g>
    <g id="xtick_2">
     <g id="line2d_2">
      <g>
       <use xlink:href="#mdc1a273201" x="156.583258" y="256.32" style="stroke: #000000; stroke-width: 0.8"/>
      </g>
     </g>
     <g id="text_2">
      <!-- 4000 -->
      <g transform="translate(143.858258 270.918437) scale(0.1 -0.1)">
       <defs>
        <path id="DejaVuSans-34" d="M 2419 4116 
L 825 1625 
L 2419 1625 
L 2419 4116 
z
M 2253 4666 
L 3047 4666 
L 3047 1625 
L 3713 1625 
L 3713 1100 
L 3047 1100 
L 3047 0 
L 2419 0 
L 2419 1100 
L 313 1100 
L 313 1709 
L 2253 4666 
z
" transform="scale(0.015625)"/>
       </defs>
       <use xlink:href="#DejaVuSans-34"/>
       <use xlink:href="#DejaVuSans-30" transform="translate(63.623047 0)"/>
       <use xlink:href="#DejaVuSans-30" transform="translate(127.246094 0)"/>
       <use xlink:href="#DejaVuSans-30" transform="translate(190.869141 0)"/>
      </g>
     </g>
    </g>
    <g id="xtick_3">
     <g id="line2d_3">
      <g>
       <use xlink:href="#mdc1a273201" x="212.388839" y="256.32" style="stroke: #000000; stroke-width: 0.8"/>
      </g>
     </g>
     <g id="text_3">
      <!-- 6000 -->
      <g transform="translate(199.663839 270.918437) scale(0.1 -0.1)">
       <defs>
        <path id="DejaVuSans-36" d="M 2113 2584 
Q 1688 2584 1439 2293 
Q 1191 2003 1191 1497 
Q 1191 994 1439 701 
Q 1688 409 2113 409 
Q 2538 409 2786 701 
Q 3034 994 3034 1497 
Q 3034 2003 2786 2293 
Q 2538 2584 2113 2584 
z
M 3366 4563 
L 3366 3988 
Q 3128 4100 2886 4159 
Q 2644 4219 2406 4219 
Q 1781 4219 1451 3797 
Q 1122 3375 1075 2522 
Q 1259 2794 1537 2939 
Q 1816 3084 2150 3084 
Q 2853 3084 3261 2657 
Q 3669 2231 3669 1497 
Q 3669 778 3244 343 
Q 2819 -91 2113 -91 
Q 1303 -91 875 529 
Q 447 1150 447 2328 
Q 447 3434 972 4092 
Q 1497 4750 2381 4750 
Q 2619 4750 2861 4703 
Q 3103 4656 3366 4563 
z
" transform="scale(0.015625)"/>
       </defs>
       <use xlink:href="#DejaVuSans-36"/>
       <use xlink:href="#DejaVuSans-30" transform="translate(63.623047 0)"/>
       <use xlink:href="#DejaVuSans-30" transform="translate(127.246094 0)"/>
       <use xlink:href="#DejaVuSans-30" transform="translate(190.869141 0)"/>
      </g>
     </g>
    </g>
    <g id="xtick_4">
     <g id="line2d_4">
      <g>
       <use xlink:href="#mdc1a273201" x="268.194419" y="256.32" style="stroke: #000000; stroke-width: 0.8"/>
      </g>
     </g>
     <g id="text_4">
      <!-- 8000 -->
      <g transform="translate(255.469419 270.918437) scale(0.1 -0.1)">
       <defs>
        <path id="DejaVuSans-38" d="M 2034 2216 
Q 1584 2216 1326 1975 
Q 1069 1734 1069 1313 
Q 1069 891 1326 650 
Q 1584 409 2034 409 
Q 2484 409 2743 651 
Q 3003 894 3003 1313 
Q 3003 1734 2745 1975 
Q 2488 2216 2034 2216 
z
M 1403 2484 
Q 997 2584 770 2862 
Q 544 3141 544 3541 
Q 544 4100 942 4425 
Q 1341 4750 2034 4750 
Q 2731 4750 3128 4425 
Q 3525 4100 3525 3541 
Q 3525 3141 3298 2862 
Q 3072 2584 2669 2484 
Q 3125 2378 3379 2068 
Q 3634 1759 3634 1313 
Q 3634 634 3220 271 
Q 2806 -91 2034 -91 
Q 1263 -91 848 271 
Q 434 634 434 1313 
Q 434 1759 690 2068 
Q 947 2378 1403 2484 
z
M 1172 3481 
Q 1172 3119 1398 2916 
Q 1625 2713 2034 2713 
Q 2441 2713 2670 2916 
Q 2900 3119 2900 3481 
Q 2900 3844 2670 4047 
Q 2441 4250 2034 4250 
Q 1625 4250 1398 4047 
Q 1172 3844 1172 3481 
z
" transform="scale(0.015625)"/>
       </defs>
       <use xlink:href="#DejaVuSans-38"/>
       <use xlink:href="#DejaVuSans-30" transform="translate(63.623047 0)"/>
       <use xlink:href="#DejaVuSans-30" transform="translate(127.246094 0)"/>
       <use xlink:href="#DejaVuSans-30" transform="translate(190.869141 0)"/>
      </g>
     </g>
    </g>
    <g id="xtick_5">
     <g id="line2d_5">
      <g>
       <use xlink:href="#mdc1a273201" x="324" y="256.32" style="stroke: #000000; stroke-width: 0.8"/>
      </g>
     </g>
     <g id="text_5">
      <!-- 10000 -->
      <g transform="translate(308.09375 270.918437) scale(0.1 -0.1)">
       <defs>
        <path id="DejaVuSans-31" d="M 794 531 
L 1825 531 
L 1825 4091 
L 703 3866 
L 703 4441 
L 1819 4666 
L 2450 4666 
L 2450 531 
L 3481 531 
L 3481 0 
L 794 0 
L 794 531 
z
" transform="scale(0.015625)"/>
       </defs>
       <use xlink:href="#DejaVuSans-31"/>
       <use xlink:href="#DejaVuSans-30" transform="translate(63.623047 0)"/>
       <use xlink:href="#DejaVuSans-30" transform="translate(127.246094 0)"/>
       <use xlink:href="#DejaVuSans-30" transform="translate(190.869141 0)"/>
       <use xlink:href="#DejaVuSans-30" transform="translate(254.492188 0)"/>
      </g>
     </g>
    </g>
    <g id="text_6">
     <!-- timestep -->
     <g transform="translate(153.543594 287.635938) scale(0.14 -0.14)">
      <defs>
       <path id="DejaVuSans-74" d="M 1172 4494 
L 1172 3500 
L 2356 3500 
L 2356 3053 
L 1172 3053 
L 1172 1153 
Q 1172 725 1289 603 
Q 1406 481 1766 481 
L 2356 481 
L 2356 0 
L 1766 0 
Q 1100 0 847 248 
Q 594 497 594 1153 
L 594 3053 
L 172 3053 
L 172 3500 
L 594 3500 
L 594 4494 
L 1172 4494 
z
" transform="scale(0.015625)"/>
       <path id="DejaVuSans-69" d="M 603 3500 
L 1178 3500 
L 1178 0 
L 603 0 
L 603 3500 
z
M 603 4863 
L 1178 4863 
L 1178 4134 
L 603 4134 
L 603 4863 
z
" transform="scale(0.015625)"/>
       <path id="DejaVuSans-6d" d="M 3328 2828 
Q 3544 3216 3844 3400 
Q 4144 3584 4550 3584 
Q 5097 3584 5394 3201 
Q 5691 2819 5691 2113 
L 5691 0 
L 5113 0 
L 5113 2094 
Q 5113 2597 4934 2840 
Q 4756 3084 4391 3084 
Q 3944 3084 3684 2787 
Q 3425 2491 3425 1978 
L 3425 0 
L 2847 0 
L 2847 2094 
Q 2847 2600 2669 2842 
Q 2491 3084 2119 3084 
Q 1678 3084 1418 2786 
Q 1159 2488 1159 1978 
L 1159 0 
L 581 0 
L 581 3500 
L 1159 3500 
L 1159 2956 
Q 1356 3278 1631 3431 
Q 1906 3584 2284 3584 
Q 2666 3584 2933 3390 
Q 3200 3197 3328 2828 
z
" transform="scale(0.015625)"/>
       <path id="DejaVuSans-65" d="M 3597 1894 
L 3597 1613 
L 953 1613 
Q 991 1019 1311 708 
Q 1631 397 2203 397 
Q 2534 397 2845 478 
Q 3156 559 3463 722 
L 3463 178 
Q 3153 47 2828 -22 
Q 2503 -91 2169 -91 
Q 1331 -91 842 396 
Q 353 884 353 1716 
Q 353 2575 817 3079 
Q 1281 3584 2069 3584 
Q 2775 3584 3186 3129 
Q 3597 2675 3597 1894 
z
M 3022 2063 
Q 3016 2534 2758 2815 
Q 2500 3097 2075 3097 
Q 1594 3097 1305 2825 
Q 1016 2553 972 2059 
L 3022 2063 
z
" transform="scale(0.015625)"/>
       <path id="DejaVuSans-73" d="M 2834 3397 
L 2834 2853 
Q 2591 2978 2328 3040 
Q 2066 3103 1784 3103 
Q 1356 3103 1142 2972 
Q 928 2841 928 2578 
Q 928 2378 1081 2264 
Q 1234 2150 1697 2047 
L 1894 2003 
Q 2506 1872 2764 1633 
Q 3022 1394 3022 966 
Q 3022 478 2636 193 
Q 2250 -91 1575 -91 
Q 1294 -91 989 -36 
Q 684 19 347 128 
L 347 722 
Q 666 556 975 473 
Q 1284 391 1588 391 
Q 1994 391 2212 530 
Q 2431 669 2431 922 
Q 2431 1156 2273 1281 
Q 2116 1406 1581 1522 
L 1381 1569 
Q 847 1681 609 1914 
Q 372 2147 372 2553 
Q 372 3047 722 3315 
Q 1072 3584 1716 3584 
Q 2034 3584 2315 3537 
Q 2597 3491 2834 3397 
z
" transform="scale(0.015625)"/>
       <path id="DejaVuSans-70" d="M 1159 525 
L 1159 -1331 
L 581 -1331 
L 581 3500 
L 1159 3500 
L 1159 2969 
Q 1341 3281 1617 3432 
Q 1894 3584 2278 3584 
Q 2916 3584 3314 3078 
Q 3713 2572 3713 1747 
Q 3713 922 3314 415 
Q 2916 -91 2278 -91 
Q 1894 -91 1617 61 
Q 1341 213 1159 525 
z
M 3116 1747 
Q 3116 2381 2855 2742 
Q 2594 3103 2138 3103 
Q 1681 3103 1420 2742 
Q 1159 2381 1159 1747 
Q 1159 1113 1420 752 
Q 1681 391 2138 391 
Q 2594 391 2855 752 
Q 3116 1113 3116 1747 
z
" transform="scale(0.015625)"/>
      </defs>
      <use xlink:href="#DejaVuSans-74"/>
      <use xlink:href="#DejaVuSans-69" transform="translate(39.208984 0)"/>
      <use xlink:href="#DejaVuSans-6d" transform="translate(66.992188 0)"/>
      <use xlink:href="#DejaVuSans-65" transform="translate(164.404297 0)"/>
      <use xlink:href="#DejaVuSans-73" transform="translate(225.927734 0)"/>
      <use xlink:href="#DejaVuSans-74" transform="translate(278.027344 0)"/>
      <use xlink:href="#DejaVuSans-65" transform="translate(317.236328 0)"/>
      <use xlink:href="#DejaVuSans-70" transform="translate(378.759766 0)"/>
     </g>
    </g>
   </g>
   <g id="matplotlib.axis_2">
    <g id="ytick_1">
     <g id="line2d_6">
      <defs>
       <path id="m898e16c65d" d="M 0 0 
L -3.5 0 
" style="stroke: #000000; stroke-width: 0.8"/>
      </defs>
      <g>
       <use xlink:href="#m898e16c65d" x="45" y="256.32" style="stroke: #000000; stroke-width: 0.8"/>
      </g>
     </g>
     <g id="text_7">
      <!-- 0.0 -->
      <g transform="translate(22.096875 260.119219) scale(0.1 -0.1)">
       <defs>
        <path id="DejaVuSans-2e" d="M 684 794 
L 1344 794 
L 1344 0 
L 684 0 
L 684 794 
z
" transform="scale(0.015625)"/>
       </defs>
       <use xlink:href="#DejaVuSans-30"/>
       <use xlink:href="#DejaVuSans-2e" transform="translate(63.623047 0)"/>
       <use xlink:href="#DejaVuSans-30" transform="translate(95.410156 0)"/>
      </g>
     </g>
    </g>
    <g id="ytick_2">
     <g id="line2d_7">
      <g>
       <use xlink:href="#m898e16c65d" x="45" y="214.08" style="stroke: #000000; stroke-width: 0.8"/>
      </g>
     </g>
     <g id="text_8">
      <!-- 0.2 -->
      <g transform="translate(22.096875 217.879219) scale(0.1 -0.1)">
       <use xlink:href="#DejaVuSans-30"/>
       <use xlink:href="#DejaVuSans-2e" transform="translate(63.623047 0)"/>
       <use xlink:href="#DejaVuSans-32" transform="translate(95.410156 0)"/>
      </g>
     </g>
    </g>
    <g id="ytick_3">
     <g id="line2d_8">
      <g>
       <use xlink:href="#m898e16c65d" x="45" y="171.84" style="stroke: #000000; stroke-width: 0.8"/>
      </g>
     </g>
     <g id="text_9">
      <!-- 0.4 -->
      <g transform="translate(22.096875 175.639219) scale(0.1 -0.1)">
       <use xlink:href="#DejaVuSans-30"/>
       <use xlink:href="#DejaVuSans-2e" transform="translate(63.623047 0)"/>
       <use xlink:href="#DejaVuSans-34" transform="translate(95.410156 0)"/>
      </g>
     </g>
    </g>
    <g id="ytick_4">
     <g id="line2d_9">
      <g>
       <use xlink:href="#m898e16c65d" x="45" y="129.6" style="stroke: #000000; stroke-width: 0.8"/>
      </g>
     </g>
     <g id="text_10">
      <!-- 0.6 -->
      <g transform="translate(22.096875 133.399219) scale(0.1 -0.1)">
       <use xlink:href="#DejaVuSans-30"/>
       <use xlink:href="#DejaVuSans-2e" transform="translate(63.623047 0)"/>
       <use xlink:href="#DejaVuSans-36" transform="translate(95.410156 0)"/>
      </g>
     </g>
    </g>
    <g id="ytick_5">
     <g id="line2d_10">
      <g>
       <use xlink:href="#m898e16c65d" x="45" y="87.36" style="stroke: #000000; stroke-width: 0.8"/>
      </g>
     </g>
     <g id="text_11">
      <!-- 0.8 -->
      <g transform="translate(22.096875 91.159219) scale(0.1 -0.1)">
       <use xlink:href="#DejaVuSans-30"/>
       <use xlink:href="#DejaVuSans-2e" transform="translate(63.623047 0)"/>
       <use xlink:href="#DejaVuSans-38" transform="translate(95.410156 0)"/>
      </g>
     </g>
    </g>
    <g id="ytick_6">
     <g id="line2d_11">
      <g>
       <use xlink:href="#m898e16c65d" x="45" y="45.12" style="stroke: #000000; stroke-width: 0.8"/>
      </g>
     </g>
     <g id="text_12">
      <!-- 1.0 -->
      <g transform="translate(22.096875 48.919219) scale(0.1 -0.1)">
       <use xlink:href="#DejaVuSans-31"/>
       <use xlink:href="#DejaVuSans-2e" transform="translate(63.623047 0)"/>
       <use xlink:href="#DejaVuSans-30" transform="translate(95.410156 0)"/>
      </g>
     </g>
    </g>
    <g id="text_13">
     <!-- amount -->
     <g transform="translate(15.185312 172.447969) rotate(-90) scale(0.14 -0.14)">
      <defs>
       <path id="DejaVuSans-61" d="M 2194 1759 
Q 1497 1759 1228 1600 
Q 959 1441 959 1056 
Q 959 750 1161 570 
Q 1363 391 1709 391 
Q 2188 391 2477 730 
Q 2766 1069 2766 1631 
L 2766 1759 
L 2194 1759 
z
M 3341 1997 
L 3341 0 
L 2766 0 
L 2766 531 
Q 2569 213 2275 61 
Q 1981 -91 1556 -91 
Q 1019 -91 701 211 
Q 384 513 384 1019 
Q 384 1609 779 1909 
Q 1175 2209 1959 2209 
L 2766 2209 
L 2766 2266 
Q 2766 2663 2505 2880 
Q 2244 3097 1772 3097 
Q 1472 3097 1187 3025 
Q 903 2953 641 2809 
L 641 3341 
Q 956 3463 1253 3523 
Q 1550 3584 1831 3584 
Q 2591 3584 2966 3190 
Q 3341 2797 3341 1997 
z
" transform="scale(0.015625)"/>
       <path id="DejaVuSans-6f" d="M 1959 3097 
Q 1497 3097 1228 2736 
Q 959 2375 959 1747 
Q 959 1119 1226 758 
Q 1494 397 1959 397 
Q 2419 397 2687 759 
Q 2956 1122 2956 1747 
Q 2956 2369 2687 2733 
Q 2419 3097 1959 3097 
z
M 1959 3584 
Q 2709 3584 3137 3096 
Q 3566 2609 3566 1747 
Q 3566 888 3137 398 
Q 2709 -91 1959 -91 
Q 1206 -91 779 398 
Q 353 888 353 1747 
Q 353 2609 779 3096 
Q 1206 3584 1959 3584 
z
" transform="scale(0.015625)"/>
       <path id="DejaVuSans-75" d="M 544 1381 
L 544 3500 
L 1119 3500 
L 1119 1403 
Q 1119 906 1312 657 
Q 1506 409 1894 409 
Q 2359 409 2629 706 
Q 2900 1003 2900 1516 
L 2900 3500 
L 3475 3500 
L 3475 0 
L 2900 0 
L 2900 538 
Q 2691 219 2414 64 
Q 2138 -91 1772 -91 
Q 1169 -91 856 284 
Q 544 659 544 1381 
z
M 1991 3584 
L 1991 3584 
z
" transform="scale(0.015625)"/>
       <path id="DejaVuSans-6e" d="M 3513 2113 
L 3513 0 
L 2938 0 
L 2938 2094 
Q 2938 2591 2744 2837 
Q 2550 3084 2163 3084 
Q 1697 3084 1428 2787 
Q 1159 2491 1159 1978 
L 1159 0 
L 581 0 
L 581 3500 
L 1159 3500 
L 1159 2956 
Q 1366 3272 1645 3428 
Q 1925 3584 2291 3584 
Q 2894 3584 3203 3211 
Q 3513 2838 3513 2113 
z
" transform="scale(0.015625)"/>
      </defs>
      <use xlink:href="#DejaVuSans-61"/>
      <use xlink:href="#DejaVuSans-6d" transform="translate(61.279297 0)"/>
      <use xlink:href="#DejaVuSans-6f" transform="translate(158.691406 0)"/>
      <use xlink:href="#DejaVuSans-75" transform="translate(219.873047 0)"/>
      <use xlink:href="#DejaVuSans-6e" transform="translate(283.251953 0)"/>
      <use xlink:href="#DejaVuSans-74" transform="translate(346.630859 0)"/>
     </g>
    </g>
   </g>
   <g id="line2d_12">
    <path d="M 45 235.434975 
L 45.083708 235.703804 
L 45.669667 239.150988 
L 45.69757 239.139181 
L 46.367237 238.760771 
L 46.674167 238.617287 
L 47.120612 237.963947 
L 47.288029 237.561411 
L 47.511251 236.36577 
L 48.348335 231.042856 
L 48.683168 230.791691 
L 48.906391 230.862091 
L 49.073807 230.848386 
L 49.352835 230.420129 
L 49.631863 229.50086 
L 50.441044 225.109923 
L 50.915392 221.846809 
L 51.529253 217.294108 
L 53.845185 201.059832 
L 55.10081 189.087554 
L 55.29613 188.663394 
L 55.491449 188.517924 
L 55.714671 188.100768 
L 56.579658 185.760124 
L 56.858686 184.614741 
L 57.165617 182.468405 
L 58.225923 173.84501 
L 58.421242 173.573288 
L 58.560756 173.751154 
L 58.811881 174.035481 
L 59.035104 174.145596 
L 59.565257 175.008242 
L 59.816382 174.814213 
L 60.123312 174.208667 
L 60.458146 172.439757 
L 61.09991 167.112773 
L 61.378938 165.548488 
L 61.518452 165.440375 
L 61.546355 165.454804 
L 62.076508 165.963876 
L 62.327633 166.222997 
L 62.634563 166.083709 
L 63.443744 164.852606 
L 63.834383 162.956814 
L 64.783078 158.390945 
L 65.173717 158.029884 
L 65.536454 158.143858 
L 66.094509 158.751406 
L 66.150315 158.689223 
L 66.289829 158.332703 
L 66.931593 155.627688 
L 67.405941 153.041088 
L 67.79658 150.993863 
L 68.10351 150.353153 
L 68.29883 150.294919 
L 68.466247 150.427692 
L 68.912691 151.23108 
L 69.135914 151.425674 
L 69.30333 151.319889 
L 69.470747 150.992713 
L 70.028803 149.0991 
L 70.893789 145.567535 
L 71.535554 144.437321 
L 71.563456 144.455709 
L 71.870387 144.862079 
L 72.428443 145.69052 
L 72.930693 145.643901 
L 73.516652 144.955596 
L 73.851485 143.764284 
L 74.10261 143.212687 
L 74.883888 141.860871 
L 75.609361 141.24593 
L 75.776778 141.088077 
L 75.972097 140.532774 
L 77.506751 135.378642 
L 77.729973 135.338891 
L 77.953195 135.25867 
L 78.20432 134.93167 
L 78.678668 134.509289 
L 79.069307 134.581068 
L 79.292529 133.938232 
L 80.771377 128.466029 
L 81.050405 128.201478 
L 81.30153 128.165737 
L 81.720072 128.431641 
L 82.222322 128.712416 
L 82.557156 128.328394 
L 82.836184 127.532863 
L 83.254725 125.373128 
L 83.70117 123.340488 
L 84.008101 122.879446 
L 85.626463 121.891254 
L 86.045005 121.207266 
L 86.324032 120.360477 
L 87.49595 116.71409 
L 87.747075 116.527921 
L 87.914491 116.608762 
L 88.333033 116.750733 
L 88.50045 116.614302 
L 89.253825 115.518257 
L 90.453645 113.197955 
L 90.983798 112.77759 
L 91.374437 113.094099 
L 91.681368 113.537954 
L 91.988299 113.485803 
L 92.183618 113.351914 
L 92.964896 112.176086 
L 93.885689 109.442093 
L 94.220522 109.14661 
L 94.555356 109.23277 
L 94.834383 108.936302 
L 95.559856 107.405777 
L 96.89919 104.074581 
L 97.792079 102.946486 
L 98.09901 102.951093 
L 98.489649 103.236392 
L 98.657066 103.233255 
L 98.908191 102.826154 
L 99.243024 102.395729 
L 99.522052 102.063117 
L 99.912691 101.518246 
L 100.247525 101.087641 
L 100.666067 100.610341 
L 101.084608 100.355753 
L 101.475248 100.287376 
L 102.256526 99.818873 
L 102.842484 99.185848 
L 103.205221 98.813456 
L 104.237624 97.808637 
L 105.270027 96.624769 
L 105.939694 96.852253 
L 106.218722 96.874724 
L 106.49775 97.030647 
L 106.80468 96.947429 
L 107.19532 96.958066 
L 107.530153 97.268385 
L 107.892889 97.542679 
L 108.562556 97.555648 
L 109.092709 96.688415 
L 109.511251 96.062559 
L 109.873987 95.882961 
L 110.655266 95.183591 
L 111.827183 94.74823 
L 112.078308 94.564243 
L 113.278128 93.141533 
L 113.557156 93.193358 
L 113.891989 93.432381 
L 114.171017 93.566783 
L 114.505851 93.557046 
L 114.980198 93.490444 
L 115.426643 92.881716 
L 115.90099 92.339753 
L 116.180018 92.228614 
L 116.849685 92.563608 
L 117.463546 92.876611 
L 118.663366 92.765059 
L 119.528353 91.716386 
L 119.974797 91.773386 
L 120.309631 91.917833 
L 120.532853 91.78859 
L 120.979298 91.516982 
L 121.537354 91.236107 
L 121.927993 91.285958 
L 122.262826 90.987152 
L 122.932493 90.234198 
L 123.378938 89.60704 
L 123.909091 89.490194 
L 125.555356 89.308032 
L 126.0018 89.117019 
L 126.643564 89.461339 
L 127.341134 90.28991 
L 127.592259 90.23835 
L 129.936094 88.633017 
L 130.326733 88.607012 
L 130.80108 88.315966 
L 131.080108 88.306259 
L 132.726373 87.401652 
L 133.423942 87.028171 
L 134.205221 86.851761 
L 134.567957 86.681686 
L 135.014401 86.66535 
L 135.432943 86.430245 
L 135.684068 86.347811 
L 136.632763 86.664036 
L 137.023402 86.762474 
L 138 87.714566 
L 138.753375 87.744279 
L 139.311431 87.591269 
L 140.092709 87.071827 
L 140.706571 86.413057 
L 142.018002 85.228589 
L 142.687669 85.128288 
L 144.445545 84.741383 
L 145.143114 84.820783 
L 145.756976 84.783055 
L 146.984698 84.749974 
L 147.40324 85.002774 
L 148.184518 85.271514 
L 148.60306 85.215108 
L 149.747075 84.994331 
L 151.058506 85.145749 
L 152.230423 85.149799 
L 152.872187 85.096051 
L 153.513951 85.119611 
L 154.239424 84.982931 
L 154.769577 84.782286 
L 155.439244 84.921767 
L 155.969397 85.150369 
L 156.555356 84.956401 
L 157.029703 84.687223 
L 158.229523 84.17535 
L 158.648065 84.192014 
L 159.317732 84.27193 
L 160.043204 84.161723 
L 161.745275 83.970868 
L 163.391539 84.328919 
L 164.005401 84.587838 
L 165.205221 85.230829 
L 165.958596 85.265445 
L 167.437444 84.924352 
L 168.581458 84.148099 
L 169.167417 83.981164 
L 170.255626 84.006876 
L 171.957696 84.361358 
L 173.241224 85.029979 
L 174.217822 84.887384 
L 175.278128 85.171226 
L 175.780378 85.58136 
L 176.171017 85.784006 
L 177.482448 85.94264 
L 178.431143 85.341382 
L 179.937894 84.455227 
L 180.440144 84.418424 
L 181.584158 84.623012 
L 182.532853 84.898812 
L 183.286229 84.783727 
L 184.09541 84.725276 
L 184.681368 84.439347 
L 185.29523 84.19161 
L 185.936994 84.219527 
L 188.0018 84.657456 
L 188.783078 85.055583 
L 190.066607 85.368956 
L 190.624662 85.159863 
L 192.047705 84.309541 
L 193.024302 83.924146 
L 193.805581 83.650969 
L 194.447345 83.704012 
L 196.90279 84.53532 
L 198.576958 85.120134 
L 199.860486 85.468986 
L 200.613861 85.67818 
L 201.227723 85.691728 
L 203.376238 84.661401 
L 204.436544 84.053336 
L 205.134113 83.942914 
L 205.720072 84.113074 
L 206.836184 84.495261 
L 207.366337 84.420211 
L 208.287129 84.25045 
L 208.984698 84.272415 
L 209.682268 84.29191 
L 210.184518 84.331539 
L 211.133213 84.758359 
L 211.970297 85.36619 
L 212.416742 85.570939 
L 213.170117 85.511771 
L 214.481548 85.308936 
L 217.216022 84.292645 
L 218.583258 84.009972 
L 219.169217 84.195524 
L 221.40144 85.233532 
L 222.60126 84.97071 
L 223.522052 84.832948 
L 225.335734 85.00934 
L 226.033303 85.180806 
L 227.344734 85.179908 
L 228.460846 84.667778 
L 229.381638 84.380012 
L 230.637264 84.311811 
L 231.976598 84.214139 
L 232.562556 84.225247 
L 233.846085 84.283968 
L 235.018002 84.222416 
L 236.608461 84.775724 
L 237.780378 84.892748 
L 238.477948 84.649195 
L 239.231323 84.406902 
L 241.658866 84.231925 
L 242.412241 84.440101 
L 243.165617 84.708853 
L 244.309631 85.212138 
L 244.70027 85.175887 
L 245.676868 84.612149 
L 246.346535 84.320355 
L 246.848785 84.321756 
L 247.769577 84.571164 
L 248.829883 84.917602 
L 250.280828 85.127336 
L 251.145815 84.983288 
L 252.959496 84.37034 
L 254.047705 84.10612 
L 255.108011 84.086953 
L 256.112511 84.1953 
L 256.893789 84.653461 
L 258.512151 85.54861 
L 259.209721 85.526496 
L 260.939694 84.890687 
L 261.469847 84.687963 
L 261.944194 84.748547 
L 264.009001 85.258842 
L 265.041404 85.139162 
L 268.417642 84.447724 
L 269.366337 84.620808 
L 270.649865 84.880851 
L 272.324032 85.62414 
L 273.049505 85.647663 
L 274.584158 85.306634 
L 276.286229 85.272742 
L 276.760576 85.202726 
L 277.513951 85.027697 
L 278.518452 84.893644 
L 280.666967 84.281162 
L 282.006301 84.456209 
L 284.378038 84.918279 
L 285.80108 85.167837 
L 286.693969 85.133914 
L 287.893789 85.15158 
L 289.177318 84.785764 
L 290.684068 84.887453 
L 291.158416 84.854469 
L 292.051305 84.815227 
L 292.888389 84.940495 
L 294.423042 85.233134 
L 296.09721 84.949291 
L 297.10171 84.537527 
L 298.134113 84.500696 
L 300.310531 84.983566 
L 301.315032 84.649237 
L 301.873087 84.547644 
L 303.547255 84.619113 
L 304.663366 84.811924 
L 306.114311 84.545258 
L 306.923492 84.376966 
L 307.983798 84.595115 
L 308.541854 84.924889 
L 309.378938 85.424245 
L 309.881188 85.403173 
L 310.578758 85.169811 
L 311.332133 84.645719 
L 312.894689 83.476826 
L 313.39694 83.287886 
L 313.927093 83.355597 
L 315.433843 84.063505 
L 316.410441 84.752359 
L 316.968497 84.838821 
L 319.284428 84.705583 
L 319.842484 84.984425 
L 320.484248 85.342105 
L 321.544554 85.47046 
L 322.576958 85.381708 
L 324 84.773825 
L 324 84.773825 
" clip-path="url(#p3e2aea15cd)" style="fill: none; stroke: #000000; stroke-width: 1.5; stroke-linecap: square"/>
   </g>
   <g id="line2d_13">
    <path d="M 45 241.411452 
L 45.139514 241.952953 
L 45.585959 243.900574 
L 45.725473 243.72283 
L 46.283528 242.994382 
L 46.423042 243.057651 
L 46.506751 243.094153 
L 46.534653 243.056939 
L 46.729973 242.979217 
L 47.064806 242.98962 
L 47.260126 242.883531 
L 47.567057 242.13046 
L 47.846085 241.553433 
L 48.013501 241.641269 
L 48.627363 242.234654 
L 49.157516 242.497464 
L 49.380738 242.011398 
L 49.827183 240.62594 
L 50.022502 240.438096 
L 50.217822 240.367219 
L 50.971197 238.76891 
L 51.278128 238.39321 
L 51.585059 238.577136 
L 51.780378 238.619227 
L 52.310531 238.408837 
L 52.729073 238.839562 
L 53.175518 239.642208 
L 53.454545 239.735665 
L 53.649865 239.799187 
L 53.984698 239.497287 
L 54.291629 239.225701 
L 54.459046 239.296489 
L 54.933393 240.147918 
L 55.407741 240.81854 
L 56.356436 239.658803 
L 56.691269 239.599869 
L 57.054005 239.671721 
L 57.305131 239.075494 
L 57.835284 238.07417 
L 58.086409 237.892051 
L 58.50495 237.740132 
L 58.839784 237.70116 
L 59.676868 236.567562 
L 60.09541 236.715119 
L 60.569757 237.394445 
L 60.792979 237.261611 
L 61.685869 236.204113 
L 61.936994 236.334405 
L 62.522952 236.682807 
L 62.969397 236.795055 
L 63.164716 236.810779 
L 63.332133 236.827064 
L 63.834383 237.104962 
L 64.643564 236.70636 
L 65.592259 236.421669 
L 65.871287 236.299447 
L 66.317732 236.308399 
L 66.513051 236.221926 
L 66.847885 235.974628 
L 67.043204 236.216839 
L 67.350135 236.454269 
L 67.517552 236.450266 
L 67.79658 236.231275 
L 68.047705 236.106308 
L 68.494149 236.600422 
L 68.80108 236.850684 
L 68.968497 236.81967 
L 69.331233 236.336689 
L 69.554455 236.144082 
L 69.889289 236.404492 
L 70.084608 236.483077 
L 70.614761 236.310137 
L 70.949595 236.690044 
L 71.228623 237.063556 
L 71.70297 236.983736 
L 72.065707 236.953313 
L 72.40054 237.393331 
L 72.90279 238.454665 
L 73.126013 238.707226 
L 73.684068 238.237493 
L 74.158416 237.774352 
L 74.493249 237.370199 
L 74.967597 236.976342 
L 75.162916 236.939867 
L 75.441944 236.579976 
L 75.972097 235.640752 
L 76.167417 235.597132 
L 76.334833 235.770908 
L 76.558056 235.980117 
L 76.725473 235.925409 
L 77.423042 235.353156 
L 77.925293 235.473052 
L 78.232223 235.544146 
L 78.706571 235.406614 
L 79.320432 235.702534 
L 79.990099 235.261872 
L 80.548155 235.496935 
L 81.887489 233.416325 
L 81.971197 233.490388 
L 82.445545 234.256837 
L 82.724572 234.656962 
L 83.087309 235.038069 
L 83.282628 235.111318 
L 83.450045 235.014135 
L 83.952295 234.581194 
L 84.20342 234.321347 
L 84.566157 234.069178 
L 84.761476 234.084362 
L 85.710171 234.205344 
L 86.491449 233.371788 
L 86.770477 233.408367 
L 87.328533 233.520842 
L 87.523852 233.522674 
L 88.109811 233.834106 
L 88.779478 233.550222 
L 89.449145 234.260602 
L 89.811881 234.376672 
L 90.481548 234.099531 
L 90.788479 234.082128 
L 91.179118 233.837182 
L 91.374437 233.803267 
L 92.127813 234.243872 
L 92.769577 234.311394 
L 93.29973 234.069212 
L 95.057606 233.460472 
L 95.50405 232.985857 
L 96.117912 232.531558 
L 96.452745 232.299495 
L 96.620162 232.349259 
L 97.289829 233.003095 
L 97.652565 233.245382 
L 98.126913 233.06617 
L 98.489649 233.118802 
L 98.936094 232.933048 
L 99.326733 232.92382 
L 99.605761 232.397937 
L 99.940594 231.924276 
L 100.331233 231.769916 
L 100.693969 231.531707 
L 100.917192 231.368838 
L 101.279928 231.417998 
L 102.284428 231.967617 
L 102.479748 231.971991 
L 103.735374 231.264584 
L 104.432943 230.391767 
L 105.158416 229.924842 
L 105.437444 229.545021 
L 105.744374 228.965637 
L 106.246625 228.006382 
L 106.49775 228.070978 
L 106.944194 227.704223 
L 107.306931 227.382912 
L 107.864986 227.035344 
L 108.450945 226.461748 
L 108.646265 226.554432 
L 109.092709 226.834872 
L 109.288029 226.559839 
L 109.567057 226.180858 
L 109.873987 226.06958 
L 110.376238 225.573942 
L 110.543654 225.659718 
L 111.10171 226.159825 
L 111.687669 225.868547 
L 112.30153 225.156614 
L 112.608461 224.816618 
L 113.473447 224.25113 
L 113.69667 224.108981 
L 114.589559 223.44979 
L 114.729073 223.453442 
L 115.426643 223.978885 
L 115.789379 223.864158 
L 116.207921 223.611846 
L 116.347435 223.502705 
L 117.017102 222.665727 
L 117.463546 222.838209 
L 117.742574 222.706121 
L 118.384338 222.16993 
L 118.635464 222.264978 
L 118.858686 222.219093 
L 119.137714 222.191815 
L 119.444644 221.983077 
L 119.639964 222.003788 
L 120.058506 222.044626 
L 120.281728 221.868369 
L 120.783978 221.441757 
L 121.39784 221.356978 
L 121.760576 221.471329 
L 122.123312 221.249404 
L 122.458146 220.918623 
L 123.044104 220.380872 
L 123.29523 220.485117 
L 123.657966 221.039788 
L 124.048605 221.627399 
L 124.606661 221.533514 
L 124.80198 221.348063 
L 125.471647 220.704579 
L 125.778578 220.686905 
L 126.113411 220.72412 
L 126.364536 220.582156 
L 126.755176 220.383505 
L 127.062106 220.303148 
L 127.424842 220.152275 
L 127.731773 220.001711 
L 128.094509 219.838894 
L 128.457246 219.62555 
L 128.987399 219.217699 
L 129.433843 219.203694 
L 129.963996 218.864329 
L 131.414941 219.150541 
L 132.19622 218.816421 
L 133.39604 218.797956 
L 133.89829 218.54965 
L 134.233123 218.518718 
L 134.540054 218.444061 
L 135.209721 218.185018 
L 136.325833 217.631277 
L 137.525653 217.199252 
L 138.055806 217.045699 
L 138.390639 216.886662 
L 139.785779 216.901489 
L 140.092709 217.012823 
L 140.818182 217.014747 
L 141.571557 217.268388 
L 142.352835 217.366337 
L 144.780378 217.680484 
L 145.70117 217.306183 
L 146.119712 217.084507 
L 146.90099 217.188835 
L 147.180018 217.133854 
L 147.514851 217.09091 
L 147.877588 216.977224 
L 148.240324 216.871245 
L 148.882088 216.89935 
L 149.189019 216.888429 
L 150.444644 216.453138 
L 151.281728 216.385631 
L 151.672367 216.499262 
L 153.09541 216.546902 
L 155.243924 215.977521 
L 155.885689 215.876782 
L 159.261926 215.919881 
L 161.10351 215.828216 
L 163.391539 215.932304 
L 166.656166 215.350141 
L 168.218722 215.367281 
L 168.916292 215.384099 
L 169.306931 215.336141 
L 170.255626 215.180625 
L 171.288029 215.306335 
L 172.766877 215.223671 
L 173.464446 215.280055 
L 173.882988 215.246872 
L 174.80378 215.218449 
L 175.557156 215.086359 
L 176.19892 215.122365 
L 176.868587 215.058671 
L 177.510351 215.031744 
L 178.012601 215.038887 
L 179.072907 215.12196 
L 180.049505 215.081775 
L 180.830783 214.996243 
L 184.765077 214.888176 
L 185.964896 214.870775 
L 203.822682 214.706147 
L 205.49685 214.756385 
L 207.143114 214.767583 
L 209.012601 214.682933 
L 209.431143 214.71288 
L 210.072907 214.730031 
L 211.189019 214.630141 
L 212.109811 214.691426 
L 212.807381 214.684214 
L 214.872187 214.683613 
L 215.458146 214.68084 
L 215.932493 214.688109 
L 216.406841 214.744966 
L 221.457246 214.712553 
L 222.489649 214.80797 
L 224.610261 214.778114 
L 225.558956 214.723063 
L 229.549055 214.760006 
L 231.223222 214.801892 
L 233.846085 214.787288 
L 234.738974 214.795653 
L 235.60396 214.778295 
L 254.884788 214.757639 
L 255.721872 214.715648 
L 260.521152 214.704564 
L 272.407741 214.711193 
L 273.412241 214.714799 
L 275.560756 214.718214 
L 276.146715 214.725908 
L 277.653465 214.794078 
L 278.434743 214.823726 
L 281.029703 214.882128 
L 284.963996 214.808975 
L 285.856886 214.807176 
L 286.749775 214.767042 
L 288.172817 214.764148 
L 289.233123 214.812776 
L 294.39514 214.818518 
L 295.371737 214.860642 
L 296.208821 214.905303 
L 298.580558 214.820689 
L 301.789379 214.859723 
L 303.128713 214.876056 
L 304.412241 214.855157 
L 305.751575 214.845603 
L 306.532853 214.855012 
L 307.39784 214.900392 
L 308.151215 214.928721 
L 309.630063 214.790657 
L 310.243924 214.855312 
L 312.783078 214.963431 
L 313.759676 214.977921 
L 314.40144 215.045567 
L 315.210621 215.004512 
L 315.991899 214.895731 
L 316.605761 214.935982 
L 318.977498 214.924589 
L 319.479748 214.899941 
L 320.623762 214.783571 
L 322.018902 214.821496 
L 322.9955 214.820253 
L 324 214.883319 
L 324 214.883319 
" clip-path="url(#p3e2aea15cd)" style="fill: none; stroke: #ff0000; stroke-width: 1.5; stroke-linecap: square"/>
   </g>
   <g id="patch_3">
    <path d="M 45 256.32 
L 45 34.56 
" style="fill: none; stroke: #000000; stroke-width: 0.8; stroke-linejoin: miter; stroke-linecap: square"/>
   </g>
   <g id="patch_4">
    <path d="M 324 256.32 
L 324 34.56 
" style="fill: none; stroke: #000000; stroke-width: 0.8; stroke-linejoin: miter; stroke-linecap: square"/>
   </g>
   <g id="patch_5">
    <path d="M 45 256.32 
L 324 256.32 
" style="fill: none; stroke: #000000; stroke-width: 0.8; stroke-linejoin: miter; stroke-linecap: square"/>
   </g>
   <g id="patch_6">
    <path d="M 45 34.56 
L 324 34.56 
" style="fill: none; stroke: #000000; stroke-width: 0.8; stroke-linejoin: miter; stroke-linecap: square"/>
   </g>
   <g id="text_14">
    <!-- Mean quantities over time -->
    <g transform="translate(65.4175 28.56) scale(0.16 -0.16)">
     <defs>
      <path id="DejaVuSans-Bold-4d" d="M 588 4666 
L 2119 4666 
L 3181 2169 
L 4250 4666 
L 5778 4666 
L 5778 0 
L 4641 0 
L 4641 3413 
L 3566 897 
L 2803 897 
L 1728 3413 
L 1728 0 
L 588 0 
L 588 4666 
z
" transform="scale(0.015625)"/>
      <path id="DejaVuSans-Bold-65" d="M 4031 1759 
L 4031 1441 
L 1416 1441 
Q 1456 1047 1700 850 
Q 1944 653 2381 653 
Q 2734 653 3104 758 
Q 3475 863 3866 1075 
L 3866 213 
Q 3469 63 3072 -14 
Q 2675 -91 2278 -91 
Q 1328 -91 801 392 
Q 275 875 275 1747 
Q 275 2603 792 3093 
Q 1309 3584 2216 3584 
Q 3041 3584 3536 3087 
Q 4031 2591 4031 1759 
z
M 2881 2131 
Q 2881 2450 2695 2645 
Q 2509 2841 2209 2841 
Q 1884 2841 1681 2658 
Q 1478 2475 1428 2131 
L 2881 2131 
z
" transform="scale(0.015625)"/>
      <path id="DejaVuSans-Bold-61" d="M 2106 1575 
Q 1756 1575 1579 1456 
Q 1403 1338 1403 1106 
Q 1403 894 1545 773 
Q 1688 653 1941 653 
Q 2256 653 2472 879 
Q 2688 1106 2688 1447 
L 2688 1575 
L 2106 1575 
z
M 3816 1997 
L 3816 0 
L 2688 0 
L 2688 519 
Q 2463 200 2181 54 
Q 1900 -91 1497 -91 
Q 953 -91 614 226 
Q 275 544 275 1050 
Q 275 1666 698 1953 
Q 1122 2241 2028 2241 
L 2688 2241 
L 2688 2328 
Q 2688 2594 2478 2717 
Q 2269 2841 1825 2841 
Q 1466 2841 1156 2769 
Q 847 2697 581 2553 
L 581 3406 
Q 941 3494 1303 3539 
Q 1666 3584 2028 3584 
Q 2975 3584 3395 3211 
Q 3816 2838 3816 1997 
z
" transform="scale(0.015625)"/>
      <path id="DejaVuSans-Bold-6e" d="M 4056 2131 
L 4056 0 
L 2931 0 
L 2931 347 
L 2931 1631 
Q 2931 2084 2911 2256 
Q 2891 2428 2841 2509 
Q 2775 2619 2662 2680 
Q 2550 2741 2406 2741 
Q 2056 2741 1856 2470 
Q 1656 2200 1656 1722 
L 1656 0 
L 538 0 
L 538 3500 
L 1656 3500 
L 1656 2988 
Q 1909 3294 2193 3439 
Q 2478 3584 2822 3584 
Q 3428 3584 3742 3212 
Q 4056 2841 4056 2131 
z
" transform="scale(0.015625)"/>
      <path id="DejaVuSans-Bold-20" transform="scale(0.015625)"/>
      <path id="DejaVuSans-Bold-71" d="M 2181 2772 
Q 1825 2772 1636 2509 
Q 1447 2247 1447 1747 
Q 1447 1247 1636 984 
Q 1825 722 2181 722 
Q 2541 722 2730 984 
Q 2919 1247 2919 1747 
Q 2919 2247 2730 2509 
Q 2541 2772 2181 2772 
z
M 2919 506 
Q 2688 197 2409 53 
Q 2131 -91 1766 -91 
Q 1119 -91 703 423 
Q 288 938 288 1747 
Q 288 2556 703 3067 
Q 1119 3578 1766 3578 
Q 2131 3578 2409 3434 
Q 2688 3291 2919 2981 
L 2919 3500 
L 4044 3500 
L 4044 -1331 
L 2919 -1331 
L 2919 506 
z
" transform="scale(0.015625)"/>
      <path id="DejaVuSans-Bold-75" d="M 500 1363 
L 500 3500 
L 1625 3500 
L 1625 3150 
Q 1625 2866 1622 2436 
Q 1619 2006 1619 1863 
Q 1619 1441 1641 1255 
Q 1663 1069 1716 984 
Q 1784 875 1895 815 
Q 2006 756 2150 756 
Q 2500 756 2700 1025 
Q 2900 1294 2900 1772 
L 2900 3500 
L 4019 3500 
L 4019 0 
L 2900 0 
L 2900 506 
Q 2647 200 2364 54 
Q 2081 -91 1741 -91 
Q 1134 -91 817 281 
Q 500 653 500 1363 
z
" transform="scale(0.015625)"/>
      <path id="DejaVuSans-Bold-74" d="M 1759 4494 
L 1759 3500 
L 2913 3500 
L 2913 2700 
L 1759 2700 
L 1759 1216 
Q 1759 972 1856 886 
Q 1953 800 2241 800 
L 2816 800 
L 2816 0 
L 1856 0 
Q 1194 0 917 276 
Q 641 553 641 1216 
L 641 2700 
L 84 2700 
L 84 3500 
L 641 3500 
L 641 4494 
L 1759 4494 
z
" transform="scale(0.015625)"/>
      <path id="DejaVuSans-Bold-69" d="M 538 3500 
L 1656 3500 
L 1656 0 
L 538 0 
L 538 3500 
z
M 538 4863 
L 1656 4863 
L 1656 3950 
L 538 3950 
L 538 4863 
z
" transform="scale(0.015625)"/>
      <path id="DejaVuSans-Bold-73" d="M 3272 3391 
L 3272 2541 
Q 2913 2691 2578 2766 
Q 2244 2841 1947 2841 
Q 1628 2841 1473 2761 
Q 1319 2681 1319 2516 
Q 1319 2381 1436 2309 
Q 1553 2238 1856 2203 
L 2053 2175 
Q 2913 2066 3209 1816 
Q 3506 1566 3506 1031 
Q 3506 472 3093 190 
Q 2681 -91 1863 -91 
Q 1516 -91 1145 -36 
Q 775 19 384 128 
L 384 978 
Q 719 816 1070 734 
Q 1422 653 1784 653 
Q 2113 653 2278 743 
Q 2444 834 2444 1013 
Q 2444 1163 2330 1236 
Q 2216 1309 1875 1350 
L 1678 1375 
Q 931 1469 631 1722 
Q 331 1975 331 2491 
Q 331 3047 712 3315 
Q 1094 3584 1881 3584 
Q 2191 3584 2531 3537 
Q 2872 3491 3272 3391 
z
" transform="scale(0.015625)"/>
      <path id="DejaVuSans-Bold-6f" d="M 2203 2784 
Q 1831 2784 1636 2517 
Q 1441 2250 1441 1747 
Q 1441 1244 1636 976 
Q 1831 709 2203 709 
Q 2569 709 2762 976 
Q 2956 1244 2956 1747 
Q 2956 2250 2762 2517 
Q 2569 2784 2203 2784 
z
M 2203 3584 
Q 3106 3584 3614 3096 
Q 4122 2609 4122 1747 
Q 4122 884 3614 396 
Q 3106 -91 2203 -91 
Q 1297 -91 786 396 
Q 275 884 275 1747 
Q 275 2609 786 3096 
Q 1297 3584 2203 3584 
z
" transform="scale(0.015625)"/>
      <path id="DejaVuSans-Bold-76" d="M 97 3500 
L 1216 3500 
L 2088 1081 
L 2956 3500 
L 4078 3500 
L 2700 0 
L 1472 0 
L 97 3500 
z
" transform="scale(0.015625)"/>
      <path id="DejaVuSans-Bold-72" d="M 3138 2547 
Q 2991 2616 2845 2648 
Q 2700 2681 2553 2681 
Q 2122 2681 1889 2404 
Q 1656 2128 1656 1613 
L 1656 0 
L 538 0 
L 538 3500 
L 1656 3500 
L 1656 2925 
Q 1872 3269 2151 3426 
Q 2431 3584 2822 3584 
Q 2878 3584 2943 3579 
Q 3009 3575 3134 3559 
L 3138 2547 
z
" transform="scale(0.015625)"/>
      <path id="DejaVuSans-Bold-6d" d="M 3781 2919 
Q 3994 3244 4286 3414 
Q 4578 3584 4928 3584 
Q 5531 3584 5847 3212 
Q 6163 2841 6163 2131 
L 6163 0 
L 5038 0 
L 5038 1825 
Q 5041 1866 5042 1909 
Q 5044 1953 5044 2034 
Q 5044 2406 4934 2573 
Q 4825 2741 4581 2741 
Q 4263 2741 4089 2478 
Q 3916 2216 3909 1719 
L 3909 0 
L 2784 0 
L 2784 1825 
Q 2784 2406 2684 2573 
Q 2584 2741 2328 2741 
Q 2006 2741 1831 2477 
Q 1656 2213 1656 1722 
L 1656 0 
L 531 0 
L 531 3500 
L 1656 3500 
L 1656 2988 
Q 1863 3284 2130 3434 
Q 2397 3584 2719 3584 
Q 3081 3584 3359 3409 
Q 3638 3234 3781 2919 
z
" transform="scale(0.015625)"/>
     </defs>
     <use xlink:href="#DejaVuSans-Bold-4d"/>
     <use xlink:href="#DejaVuSans-Bold-65" transform="translate(99.511719 0)"/>
     <use xlink:href="#DejaVuSans-Bold-61" transform="translate(167.333984 0)"/>
     <use xlink:href="#DejaVuSans-Bold-6e" transform="translate(234.814453 0)"/>
     <use xlink:href="#DejaVuSans-Bold-20" transform="translate(306.005859 0)"/>
     <use xlink:href="#DejaVuSans-Bold-71" transform="translate(340.820312 0)"/>
     <use xlink:href="#DejaVuSans-Bold-75" transform="translate(412.402344 0)"/>
     <use xlink:href="#DejaVuSans-Bold-61" transform="translate(483.59375 0)"/>
     <use xlink:href="#DejaVuSans-Bold-6e" transform="translate(551.074219 0)"/>
     <use xlink:href="#DejaVuSans-Bold-74" transform="translate(622.265625 0)"/>
     <use xlink:href="#DejaVuSans-Bold-69" transform="translate(670.068359 0)"/>
     <use xlink:href="#DejaVuSans-Bold-74" transform="translate(704.345703 0)"/>
     <use xlink:href="#DejaVuSans-Bold-69" transform="translate(752.148438 0)"/>
     <use xlink:href="#DejaVuSans-Bold-65" transform="translate(786.425781 0)"/>
     <use xlink:href="#DejaVuSans-Bold-73" transform="translate(854.248047 0)"/>
     <use xlink:href="#DejaVuSans-Bold-20" transform="translate(913.769531 0)"/>
     <use xlink:href="#DejaVuSans-Bold-6f" transform="translate(948.583984 0)"/>
     <use xlink:href="#DejaVuSans-Bold-76" transform="translate(1017.285156 0)"/>
     <use xlink:href="#DejaVuSans-Bold-65" transform="translate(1082.470703 0)"/>
     <use xlink:href="#DejaVuSans-Bold-72" transform="translate(1150.292969 0)"/>
     <use xlink:href="#DejaVuSans-Bold-20" transform="translate(1199.609375 0)"/>
     <use xlink:href="#DejaVuSans-Bold-74" transform="translate(1234.423828 0)"/>
     <use xlink:href="#DejaVuSans-Bold-69" transform="translate(1282.226562 0)"/>
     <use xlink:href="#DejaVuSans-Bold-6d" transform="translate(1316.503906 0)"/>
     <use xlink:href="#DejaVuSans-Bold-65" transform="translate(1420.703125 0)"/>
    </g>
   </g>
   <g id="legend_1">
    <g id="patch_7">
     <path d="M 226.926562 71.91625 
L 317 71.91625 
Q 319 71.91625 319 69.91625 
L 319 41.56 
Q 319 39.56 317 39.56 
L 226.926562 39.56 
Q 224.926562 39.56 224.926562 41.56 
L 224.926562 69.91625 
Q 224.926562 71.91625 226.926562 71.91625 
z
" style="fill: #ffffff; opacity: 0.8; stroke: #cccccc; stroke-linejoin: miter"/>
    </g>
    <g id="line2d_14">
     <path d="M 228.926562 47.658437 
L 238.926562 47.658437 
L 248.926562 47.658437 
" style="fill: none; stroke: #000000; stroke-width: 1.5; stroke-linecap: square"/>
    </g>
    <g id="text_15">
     <!-- Polarisation -->
     <g transform="translate(256.926562 51.158437) scale(0.1 -0.1)">
      <defs>
       <path id="DejaVuSans-50" d="M 1259 4147 
L 1259 2394 
L 2053 2394 
Q 2494 2394 2734 2622 
Q 2975 2850 2975 3272 
Q 2975 3691 2734 3919 
Q 2494 4147 2053 4147 
L 1259 4147 
z
M 628 4666 
L 2053 4666 
Q 2838 4666 3239 4311 
Q 3641 3956 3641 3272 
Q 3641 2581 3239 2228 
Q 2838 1875 2053 1875 
L 1259 1875 
L 1259 0 
L 628 0 
L 628 4666 
z
" transform="scale(0.015625)"/>
       <path id="DejaVuSans-6c" d="M 603 4863 
L 1178 4863 
L 1178 0 
L 603 0 
L 603 4863 
z
" transform="scale(0.015625)"/>
       <path id="DejaVuSans-72" d="M 2631 2963 
Q 2534 3019 2420 3045 
Q 2306 3072 2169 3072 
Q 1681 3072 1420 2755 
Q 1159 2438 1159 1844 
L 1159 0 
L 581 0 
L 581 3500 
L 1159 3500 
L 1159 2956 
Q 1341 3275 1631 3429 
Q 1922 3584 2338 3584 
Q 2397 3584 2469 3576 
Q 2541 3569 2628 3553 
L 2631 2963 
z
" transform="scale(0.015625)"/>
      </defs>
      <use xlink:href="#DejaVuSans-50"/>
      <use xlink:href="#DejaVuSans-6f" transform="translate(56.677734 0)"/>
      <use xlink:href="#DejaVuSans-6c" transform="translate(117.859375 0)"/>
      <use xlink:href="#DejaVuSans-61" transform="translate(145.642578 0)"/>
      <use xlink:href="#DejaVuSans-72" transform="translate(206.921875 0)"/>
      <use xlink:href="#DejaVuSans-69" transform="translate(248.035156 0)"/>
      <use xlink:href="#DejaVuSans-73" transform="translate(275.818359 0)"/>
      <use xlink:href="#DejaVuSans-61" transform="translate(327.917969 0)"/>
      <use xlink:href="#DejaVuSans-74" transform="translate(389.197266 0)"/>
      <use xlink:href="#DejaVuSans-69" transform="translate(428.40625 0)"/>
      <use xlink:href="#DejaVuSans-6f" transform="translate(456.189453 0)"/>
      <use xlink:href="#DejaVuSans-6e" transform="translate(517.371094 0)"/>
     </g>
    </g>
    <g id="line2d_15">
     <path d="M 228.926562 62.336562 
L 238.926562 62.336562 
L 248.926562 62.336562 
" style="fill: none; stroke: #ff0000; stroke-width: 1.5; stroke-linecap: square"/>
    </g>
    <g id="text_16">
     <!-- Momentum -->
     <g transform="translate(256.926562 65.836562) scale(0.1 -0.1)">
      <defs>
       <path id="DejaVuSans-4d" d="M 628 4666 
L 1569 4666 
L 2759 1491 
L 3956 4666 
L 4897 4666 
L 4897 0 
L 4281 0 
L 4281 4097 
L 3078 897 
L 2444 897 
L 1241 4097 
L 1241 0 
L 628 0 
L 628 4666 
z
" transform="scale(0.015625)"/>
      </defs>
      <use xlink:href="#DejaVuSans-4d"/>
      <use xlink:href="#DejaVuSans-6f" transform="translate(86.279297 0)"/>
      <use xlink:href="#DejaVuSans-6d" transform="translate(147.460938 0)"/>
      <use xlink:href="#DejaVuSans-65" transform="translate(244.873047 0)"/>
      <use xlink:href="#DejaVuSans-6e" transform="translate(306.396484 0)"/>
      <use xlink:href="#DejaVuSans-74" transform="translate(369.775391 0)"/>
      <use xlink:href="#DejaVuSans-75" transform="translate(408.984375 0)"/>
      <use xlink:href="#DejaVuSans-6d" transform="translate(472.363281 0)"/>
     </g>
    </g>
   </g>
  </g>
 </g>
 <defs>
  <clipPath id="p3e2aea15cd">
   <rect x="45" y="34.56" width="279" height="221.76"/>
  </clipPath>
 </defs>
</svg>
