<?xml version="1.0" encoding="utf-8" standalone="no"?>
<!DOCTYPE svg PUBLIC "-//W3C//DTD SVG 1.1//EN"
  "http://www.w3.org/Graphics/SVG/1.1/DTD/svg11.dtd">
<svg xmlns:xlink="http://www.w3.org/1999/xlink" width="460.8pt" height="345.6pt" viewBox="0 0 460.8 345.6" xmlns="http://www.w3.org/2000/svg" version="1.1">
 <metadata>
  <rdf:RDF xmlns:dc="http://purl.org/dc/elements/1.1/" xmlns:cc="http://creativecommons.org/ns#" xmlns:rdf="http://www.w3.org/1999/02/22-rdf-syntax-ns#">
   <cc:Work>
    <dc:type rdf:resource="http://purl.org/dc/dcmitype/StillImage"/>
    <dc:date>2025-02-27T11:41:46.425539</dc:date>
    <dc:format>image/svg+xml</dc:format>
    <dc:creator>
     <cc:Agent>
      <dc:title>Matplotlib v3.6.3, https://matplotlib.org/</dc:title>
     </cc:Agent>
    </dc:creator>
   </cc:Work>
  </rdf:RDF>
 </metadata>
 <defs>
  <style type="text/css">*{stroke-linejoin: round; stroke-linecap: butt}</style>
 </defs>
 <g id="figure_1">
  <g id="patch_1">
   <path d="M 0 345.6 
L 460.8 345.6 
L 460.8 0 
L 0 0 
z
" style="fill: #ffffff"/>
  </g>
  <g id="axes_1">
   <g id="patch_2">
    <path d="M 57.6 307.584 
L 414.72 307.584 
L 414.72 41.472 
L 57.6 41.472 
z
" style="fill: #ffffff"/>
   </g>
   <g id="matplotlib.axis_1">
    <g id="xtick_1">
     <g id="line2d_1">
      <defs>
       <path id="m4ff6294a92" d="M 0 0 
L 0 3.5 
" style="stroke: #000000; stroke-width: 0.8"/>
      </defs>
      <g>
       <use xlink:href="#m4ff6294a92" x="73.832727" y="307.584" style="stroke: #000000; stroke-width: 0.8"/>
      </g>
     </g>
     <g id="text_1">
      <!-- 0 -->
      <g transform="translate(70.015227 323.702125) scale(0.12 -0.12)">
       <defs>
        <path id="DejaVuSans-30" d="M 2034 4250 
Q 1547 4250 1301 3770 
Q 1056 3291 1056 2328 
Q 1056 1369 1301 889 
Q 1547 409 2034 409 
Q 2525 409 2770 889 
Q 3016 1369 3016 2328 
Q 3016 3291 2770 3770 
Q 2525 4250 2034 4250 
z
M 2034 4750 
Q 2819 4750 3233 4129 
Q 3647 3509 3647 2328 
Q 3647 1150 3233 529 
Q 2819 -91 2034 -91 
Q 1250 -91 836 529 
Q 422 1150 422 2328 
Q 422 3509 836 4129 
Q 1250 4750 2034 4750 
z
" transform="scale(0.015625)"/>
       </defs>
       <use xlink:href="#DejaVuSans-30"/>
      </g>
     </g>
    </g>
    <g id="xtick_2">
     <g id="line2d_2">
      <g>
       <use xlink:href="#m4ff6294a92" x="138.77013" y="307.584" style="stroke: #000000; stroke-width: 0.8"/>
      </g>
     </g>
     <g id="text_2">
      <!-- 2000 -->
      <g transform="translate(123.50013 323.702125) scale(0.12 -0.12)">
       <defs>
        <path id="DejaVuSans-32" d="M 1228 531 
L 3431 531 
L 3431 0 
L 469 0 
L 469 531 
Q 828 903 1448 1529 
Q 2069 2156 2228 2338 
Q 2531 2678 2651 2914 
Q 2772 3150 2772 3378 
Q 2772 3750 2511 3984 
Q 2250 4219 1831 4219 
Q 1534 4219 1204 4116 
Q 875 4013 500 3803 
L 500 4441 
Q 881 4594 1212 4672 
Q 1544 4750 1819 4750 
Q 2544 4750 2975 4387 
Q 3406 4025 3406 3419 
Q 3406 3131 3298 2873 
Q 3191 2616 2906 2266 
Q 2828 2175 2409 1742 
Q 1991 1309 1228 531 
z
" transform="scale(0.015625)"/>
       </defs>
       <use xlink:href="#DejaVuSans-32"/>
       <use xlink:href="#DejaVuSans-30" x="63.623047"/>
       <use xlink:href="#DejaVuSans-30" x="127.246094"/>
       <use xlink:href="#DejaVuSans-30" x="190.869141"/>
      </g>
     </g>
    </g>
    <g id="xtick_3">
     <g id="line2d_3">
      <g>
       <use xlink:href="#m4ff6294a92" x="203.707533" y="307.584" style="stroke: #000000; stroke-width: 0.8"/>
      </g>
     </g>
     <g id="text_3">
      <!-- 4000 -->
      <g transform="translate(188.437533 323.702125) scale(0.12 -0.12)">
       <defs>
        <path id="DejaVuSans-34" d="M 2419 4116 
L 825 1625 
L 2419 1625 
L 2419 4116 
z
M 2253 4666 
L 3047 4666 
L 3047 1625 
L 3713 1625 
L 3713 1100 
L 3047 1100 
L 3047 0 
L 2419 0 
L 2419 1100 
L 313 1100 
L 313 1709 
L 2253 4666 
z
" transform="scale(0.015625)"/>
       </defs>
       <use xlink:href="#DejaVuSans-34"/>
       <use xlink:href="#DejaVuSans-30" x="63.623047"/>
       <use xlink:href="#DejaVuSans-30" x="127.246094"/>
       <use xlink:href="#DejaVuSans-30" x="190.869141"/>
      </g>
     </g>
    </g>
    <g id="xtick_4">
     <g id="line2d_4">
      <g>
       <use xlink:href="#m4ff6294a92" x="268.644936" y="307.584" style="stroke: #000000; stroke-width: 0.8"/>
      </g>
     </g>
     <g id="text_4">
      <!-- 6000 -->
      <g transform="translate(253.374936 323.702125) scale(0.12 -0.12)">
       <defs>
        <path id="DejaVuSans-36" d="M 2113 2584 
Q 1688 2584 1439 2293 
Q 1191 2003 1191 1497 
Q 1191 994 1439 701 
Q 1688 409 2113 409 
Q 2538 409 2786 701 
Q 3034 994 3034 1497 
Q 3034 2003 2786 2293 
Q 2538 2584 2113 2584 
z
M 3366 4563 
L 3366 3988 
Q 3128 4100 2886 4159 
Q 2644 4219 2406 4219 
Q 1781 4219 1451 3797 
Q 1122 3375 1075 2522 
Q 1259 2794 1537 2939 
Q 1816 3084 2150 3084 
Q 2853 3084 3261 2657 
Q 3669 2231 3669 1497 
Q 3669 778 3244 343 
Q 2819 -91 2113 -91 
Q 1303 -91 875 529 
Q 447 1150 447 2328 
Q 447 3434 972 4092 
Q 1497 4750 2381 4750 
Q 2619 4750 2861 4703 
Q 3103 4656 3366 4563 
z
" transform="scale(0.015625)"/>
       </defs>
       <use xlink:href="#DejaVuSans-36"/>
       <use xlink:href="#DejaVuSans-30" x="63.623047"/>
       <use xlink:href="#DejaVuSans-30" x="127.246094"/>
       <use xlink:href="#DejaVuSans-30" x="190.869141"/>
      </g>
     </g>
    </g>
    <g id="xtick_5">
     <g id="line2d_5">
      <g>
       <use xlink:href="#m4ff6294a92" x="333.582339" y="307.584" style="stroke: #000000; stroke-width: 0.8"/>
      </g>
     </g>
     <g id="text_5">
      <!-- 8000 -->
      <g transform="translate(318.312339 323.702125) scale(0.12 -0.12)">
       <defs>
        <path id="DejaVuSans-38" d="M 2034 2216 
Q 1584 2216 1326 1975 
Q 1069 1734 1069 1313 
Q 1069 891 1326 650 
Q 1584 409 2034 409 
Q 2484 409 2743 651 
Q 3003 894 3003 1313 
Q 3003 1734 2745 1975 
Q 2488 2216 2034 2216 
z
M 1403 2484 
Q 997 2584 770 2862 
Q 544 3141 544 3541 
Q 544 4100 942 4425 
Q 1341 4750 2034 4750 
Q 2731 4750 3128 4425 
Q 3525 4100 3525 3541 
Q 3525 3141 3298 2862 
Q 3072 2584 2669 2484 
Q 3125 2378 3379 2068 
Q 3634 1759 3634 1313 
Q 3634 634 3220 271 
Q 2806 -91 2034 -91 
Q 1263 -91 848 271 
Q 434 634 434 1313 
Q 434 1759 690 2068 
Q 947 2378 1403 2484 
z
M 1172 3481 
Q 1172 3119 1398 2916 
Q 1625 2713 2034 2713 
Q 2441 2713 2670 2916 
Q 2900 3119 2900 3481 
Q 2900 3844 2670 4047 
Q 2441 4250 2034 4250 
Q 1625 4250 1398 4047 
Q 1172 3844 1172 3481 
z
" transform="scale(0.015625)"/>
       </defs>
       <use xlink:href="#DejaVuSans-38"/>
       <use xlink:href="#DejaVuSans-30" x="63.623047"/>
       <use xlink:href="#DejaVuSans-30" x="127.246094"/>
       <use xlink:href="#DejaVuSans-30" x="190.869141"/>
      </g>
     </g>
    </g>
    <g id="xtick_6">
     <g id="line2d_6">
      <g>
       <use xlink:href="#m4ff6294a92" x="398.519741" y="307.584" style="stroke: #000000; stroke-width: 0.8"/>
      </g>
     </g>
     <g id="text_6">
      <!-- 10000 -->
      <g transform="translate(379.432241 323.702125) scale(0.12 -0.12)">
       <defs>
        <path id="DejaVuSans-31" d="M 794 531 
L 1825 531 
L 1825 4091 
L 703 3866 
L 703 4441 
L 1819 4666 
L 2450 4666 
L 2450 531 
L 3481 531 
L 3481 0 
L 794 0 
L 794 531 
z
" transform="scale(0.015625)"/>
       </defs>
       <use xlink:href="#DejaVuSans-31"/>
       <use xlink:href="#DejaVuSans-30" x="63.623047"/>
       <use xlink:href="#DejaVuSans-30" x="127.246094"/>
       <use xlink:href="#DejaVuSans-30" x="190.869141"/>
       <use xlink:href="#DejaVuSans-30" x="254.492188"/>
      </g>
     </g>
    </g>
    <g id="text_7">
     <!-- Step -->
     <g transform="translate(220.220781 340.835562) scale(0.14 -0.14)">
      <defs>
       <path id="DejaVuSans-53" d="M 3425 4513 
L 3425 3897 
Q 3066 4069 2747 4153 
Q 2428 4238 2131 4238 
Q 1616 4238 1336 4038 
Q 1056 3838 1056 3469 
Q 1056 3159 1242 3001 
Q 1428 2844 1947 2747 
L 2328 2669 
Q 3034 2534 3370 2195 
Q 3706 1856 3706 1288 
Q 3706 609 3251 259 
Q 2797 -91 1919 -91 
Q 1588 -91 1214 -16 
Q 841 59 441 206 
L 441 856 
Q 825 641 1194 531 
Q 1563 422 1919 422 
Q 2459 422 2753 634 
Q 3047 847 3047 1241 
Q 3047 1584 2836 1778 
Q 2625 1972 2144 2069 
L 1759 2144 
Q 1053 2284 737 2584 
Q 422 2884 422 3419 
Q 422 4038 858 4394 
Q 1294 4750 2059 4750 
Q 2388 4750 2728 4690 
Q 3069 4631 3425 4513 
z
" transform="scale(0.015625)"/>
       <path id="DejaVuSans-74" d="M 1172 4494 
L 1172 3500 
L 2356 3500 
L 2356 3053 
L 1172 3053 
L 1172 1153 
Q 1172 725 1289 603 
Q 1406 481 1766 481 
L 2356 481 
L 2356 0 
L 1766 0 
Q 1100 0 847 248 
Q 594 497 594 1153 
L 594 3053 
L 172 3053 
L 172 3500 
L 594 3500 
L 594 4494 
L 1172 4494 
z
" transform="scale(0.015625)"/>
       <path id="DejaVuSans-65" d="M 3597 1894 
L 3597 1613 
L 953 1613 
Q 991 1019 1311 708 
Q 1631 397 2203 397 
Q 2534 397 2845 478 
Q 3156 559 3463 722 
L 3463 178 
Q 3153 47 2828 -22 
Q 2503 -91 2169 -91 
Q 1331 -91 842 396 
Q 353 884 353 1716 
Q 353 2575 817 3079 
Q 1281 3584 2069 3584 
Q 2775 3584 3186 3129 
Q 3597 2675 3597 1894 
z
M 3022 2063 
Q 3016 2534 2758 2815 
Q 2500 3097 2075 3097 
Q 1594 3097 1305 2825 
Q 1016 2553 972 2059 
L 3022 2063 
z
" transform="scale(0.015625)"/>
       <path id="DejaVuSans-70" d="M 1159 525 
L 1159 -1331 
L 581 -1331 
L 581 3500 
L 1159 3500 
L 1159 2969 
Q 1341 3281 1617 3432 
Q 1894 3584 2278 3584 
Q 2916 3584 3314 3078 
Q 3713 2572 3713 1747 
Q 3713 922 3314 415 
Q 2916 -91 2278 -91 
Q 1894 -91 1617 61 
Q 1341 213 1159 525 
z
M 3116 1747 
Q 3116 2381 2855 2742 
Q 2594 3103 2138 3103 
Q 1681 3103 1420 2742 
Q 1159 2381 1159 1747 
Q 1159 1113 1420 752 
Q 1681 391 2138 391 
Q 2594 391 2855 752 
Q 3116 1113 3116 1747 
z
" transform="scale(0.015625)"/>
      </defs>
      <use xlink:href="#DejaVuSans-53"/>
      <use xlink:href="#DejaVuSans-74" x="63.476562"/>
      <use xlink:href="#DejaVuSans-65" x="102.685547"/>
      <use xlink:href="#DejaVuSans-70" x="164.208984"/>
     </g>
    </g>
   </g>
   <g id="matplotlib.axis_2">
    <g id="ytick_1">
     <g id="line2d_7">
      <defs>
       <path id="m02f6d7ecaa" d="M 0 0 
L -3.5 0 
" style="stroke: #000000; stroke-width: 0.8"/>
      </defs>
      <g>
       <use xlink:href="#m02f6d7ecaa" x="57.6" y="296.721269" style="stroke: #000000; stroke-width: 0.8"/>
      </g>
     </g>
     <g id="text_8">
      <!-- −1.00 -->
      <g transform="translate(13.825625 301.280332) scale(0.12 -0.12)">
       <defs>
        <path id="DejaVuSans-2212" d="M 678 2272 
L 4684 2272 
L 4684 1741 
L 678 1741 
L 678 2272 
z
" transform="scale(0.015625)"/>
        <path id="DejaVuSans-2e" d="M 684 794 
L 1344 794 
L 1344 0 
L 684 0 
L 684 794 
z
" transform="scale(0.015625)"/>
       </defs>
       <use xlink:href="#DejaVuSans-2212"/>
       <use xlink:href="#DejaVuSans-31" x="83.789062"/>
       <use xlink:href="#DejaVuSans-2e" x="147.412109"/>
       <use xlink:href="#DejaVuSans-30" x="179.199219"/>
       <use xlink:href="#DejaVuSans-30" x="242.822266"/>
      </g>
     </g>
    </g>
    <g id="ytick_2">
     <g id="line2d_8">
      <g>
       <use xlink:href="#m02f6d7ecaa" x="57.6" y="266.161861" style="stroke: #000000; stroke-width: 0.8"/>
      </g>
     </g>
     <g id="text_9">
      <!-- −0.75 -->
      <g transform="translate(13.825625 270.720923) scale(0.12 -0.12)">
       <defs>
        <path id="DejaVuSans-37" d="M 525 4666 
L 3525 4666 
L 3525 4397 
L 1831 0 
L 1172 0 
L 2766 4134 
L 525 4134 
L 525 4666 
z
" transform="scale(0.015625)"/>
        <path id="DejaVuSans-35" d="M 691 4666 
L 3169 4666 
L 3169 4134 
L 1269 4134 
L 1269 2991 
Q 1406 3038 1543 3061 
Q 1681 3084 1819 3084 
Q 2600 3084 3056 2656 
Q 3513 2228 3513 1497 
Q 3513 744 3044 326 
Q 2575 -91 1722 -91 
Q 1428 -91 1123 -41 
Q 819 9 494 109 
L 494 744 
Q 775 591 1075 516 
Q 1375 441 1709 441 
Q 2250 441 2565 725 
Q 2881 1009 2881 1497 
Q 2881 1984 2565 2268 
Q 2250 2553 1709 2553 
Q 1456 2553 1204 2497 
Q 953 2441 691 2322 
L 691 4666 
z
" transform="scale(0.015625)"/>
       </defs>
       <use xlink:href="#DejaVuSans-2212"/>
       <use xlink:href="#DejaVuSans-30" x="83.789062"/>
       <use xlink:href="#DejaVuSans-2e" x="147.412109"/>
       <use xlink:href="#DejaVuSans-37" x="179.199219"/>
       <use xlink:href="#DejaVuSans-35" x="242.822266"/>
      </g>
     </g>
    </g>
    <g id="ytick_3">
     <g id="line2d_9">
      <g>
       <use xlink:href="#m02f6d7ecaa" x="57.6" y="235.602452" style="stroke: #000000; stroke-width: 0.8"/>
      </g>
     </g>
     <g id="text_10">
      <!-- −0.50 -->
      <g transform="translate(13.825625 240.161514) scale(0.12 -0.12)">
       <use xlink:href="#DejaVuSans-2212"/>
       <use xlink:href="#DejaVuSans-30" x="83.789062"/>
       <use xlink:href="#DejaVuSans-2e" x="147.412109"/>
       <use xlink:href="#DejaVuSans-35" x="179.199219"/>
       <use xlink:href="#DejaVuSans-30" x="242.822266"/>
      </g>
     </g>
    </g>
    <g id="ytick_4">
     <g id="line2d_10">
      <g>
       <use xlink:href="#m02f6d7ecaa" x="57.6" y="205.043043" style="stroke: #000000; stroke-width: 0.8"/>
      </g>
     </g>
     <g id="text_11">
      <!-- −0.25 -->
      <g transform="translate(13.825625 209.602106) scale(0.12 -0.12)">
       <use xlink:href="#DejaVuSans-2212"/>
       <use xlink:href="#DejaVuSans-30" x="83.789062"/>
       <use xlink:href="#DejaVuSans-2e" x="147.412109"/>
       <use xlink:href="#DejaVuSans-32" x="179.199219"/>
       <use xlink:href="#DejaVuSans-35" x="242.822266"/>
      </g>
     </g>
    </g>
    <g id="ytick_5">
     <g id="line2d_11">
      <g>
       <use xlink:href="#m02f6d7ecaa" x="57.6" y="174.483635" style="stroke: #000000; stroke-width: 0.8"/>
      </g>
     </g>
     <g id="text_12">
      <!-- 0.00 -->
      <g transform="translate(23.88125 179.042697) scale(0.12 -0.12)">
       <use xlink:href="#DejaVuSans-30"/>
       <use xlink:href="#DejaVuSans-2e" x="63.623047"/>
       <use xlink:href="#DejaVuSans-30" x="95.410156"/>
       <use xlink:href="#DejaVuSans-30" x="159.033203"/>
      </g>
     </g>
    </g>
    <g id="ytick_6">
     <g id="line2d_12">
      <g>
       <use xlink:href="#m02f6d7ecaa" x="57.6" y="143.924226" style="stroke: #000000; stroke-width: 0.8"/>
      </g>
     </g>
     <g id="text_13">
      <!-- 0.25 -->
      <g transform="translate(23.88125 148.483289) scale(0.12 -0.12)">
       <use xlink:href="#DejaVuSans-30"/>
       <use xlink:href="#DejaVuSans-2e" x="63.623047"/>
       <use xlink:href="#DejaVuSans-32" x="95.410156"/>
       <use xlink:href="#DejaVuSans-35" x="159.033203"/>
      </g>
     </g>
    </g>
    <g id="ytick_7">
     <g id="line2d_13">
      <g>
       <use xlink:href="#m02f6d7ecaa" x="57.6" y="113.364817" style="stroke: #000000; stroke-width: 0.8"/>
      </g>
     </g>
     <g id="text_14">
      <!-- 0.50 -->
      <g transform="translate(23.88125 117.92388) scale(0.12 -0.12)">
       <use xlink:href="#DejaVuSans-30"/>
       <use xlink:href="#DejaVuSans-2e" x="63.623047"/>
       <use xlink:href="#DejaVuSans-35" x="95.410156"/>
       <use xlink:href="#DejaVuSans-30" x="159.033203"/>
      </g>
     </g>
    </g>
    <g id="ytick_8">
     <g id="line2d_14">
      <g>
       <use xlink:href="#m02f6d7ecaa" x="57.6" y="82.805409" style="stroke: #000000; stroke-width: 0.8"/>
      </g>
     </g>
     <g id="text_15">
      <!-- 0.75 -->
      <g transform="translate(23.88125 87.364471) scale(0.12 -0.12)">
       <use xlink:href="#DejaVuSans-30"/>
       <use xlink:href="#DejaVuSans-2e" x="63.623047"/>
       <use xlink:href="#DejaVuSans-37" x="95.410156"/>
       <use xlink:href="#DejaVuSans-35" x="159.033203"/>
      </g>
     </g>
    </g>
    <g id="ytick_9">
     <g id="line2d_15">
      <g>
       <use xlink:href="#m02f6d7ecaa" x="57.6" y="52.246" style="stroke: #000000; stroke-width: 0.8"/>
      </g>
     </g>
     <g id="text_16">
      <!-- 1.00 -->
      <g transform="translate(23.88125 56.805063) scale(0.12 -0.12)">
       <use xlink:href="#DejaVuSans-31"/>
       <use xlink:href="#DejaVuSans-2e" x="63.623047"/>
       <use xlink:href="#DejaVuSans-30" x="95.410156"/>
       <use xlink:href="#DejaVuSans-30" x="159.033203"/>
      </g>
     </g>
    </g>
    <g id="text_17">
     <!-- Opinion -->
     <g transform="translate(6.914062 201.527219) rotate(-90) scale(0.14 -0.14)">
      <defs>
       <path id="DejaVuSans-4f" d="M 2522 4238 
Q 1834 4238 1429 3725 
Q 1025 3213 1025 2328 
Q 1025 1447 1429 934 
Q 1834 422 2522 422 
Q 3209 422 3611 934 
Q 4013 1447 4013 2328 
Q 4013 3213 3611 3725 
Q 3209 4238 2522 4238 
z
M 2522 4750 
Q 3503 4750 4090 4092 
Q 4678 3434 4678 2328 
Q 4678 1225 4090 567 
Q 3503 -91 2522 -91 
Q 1538 -91 948 565 
Q 359 1222 359 2328 
Q 359 3434 948 4092 
Q 1538 4750 2522 4750 
z
" transform="scale(0.015625)"/>
       <path id="DejaVuSans-69" d="M 603 3500 
L 1178 3500 
L 1178 0 
L 603 0 
L 603 3500 
z
M 603 4863 
L 1178 4863 
L 1178 4134 
L 603 4134 
L 603 4863 
z
" transform="scale(0.015625)"/>
       <path id="DejaVuSans-6e" d="M 3513 2113 
L 3513 0 
L 2938 0 
L 2938 2094 
Q 2938 2591 2744 2837 
Q 2550 3084 2163 3084 
Q 1697 3084 1428 2787 
Q 1159 2491 1159 1978 
L 1159 0 
L 581 0 
L 581 3500 
L 1159 3500 
L 1159 2956 
Q 1366 3272 1645 3428 
Q 1925 3584 2291 3584 
Q 2894 3584 3203 3211 
Q 3513 2838 3513 2113 
z
" transform="scale(0.015625)"/>
       <path id="DejaVuSans-6f" d="M 1959 3097 
Q 1497 3097 1228 2736 
Q 959 2375 959 1747 
Q 959 1119 1226 758 
Q 1494 397 1959 397 
Q 2419 397 2687 759 
Q 2956 1122 2956 1747 
Q 2956 2369 2687 2733 
Q 2419 3097 1959 3097 
z
M 1959 3584 
Q 2709 3584 3137 3096 
Q 3566 2609 3566 1747 
Q 3566 888 3137 398 
Q 2709 -91 1959 -91 
Q 1206 -91 779 398 
Q 353 888 353 1747 
Q 353 2609 779 3096 
Q 1206 3584 1959 3584 
z
" transform="scale(0.015625)"/>
      </defs>
      <use xlink:href="#DejaVuSans-4f"/>
      <use xlink:href="#DejaVuSans-70" x="78.710938"/>
      <use xlink:href="#DejaVuSans-69" x="142.1875"/>
      <use xlink:href="#DejaVuSans-6e" x="169.970703"/>
      <use xlink:href="#DejaVuSans-69" x="233.349609"/>
      <use xlink:href="#DejaVuSans-6f" x="261.132812"/>
      <use xlink:href="#DejaVuSans-6e" x="322.314453"/>
     </g>
    </g>
   </g>
   <g id="line2d_16">
    <path d="M 73.832727 143.097453 
L 74.77432 145.408124 
L 75.26135 147.233889 
L 76.138005 150.105309 
L 76.819848 151.215683 
L 77.079597 151.323636 
L 77.664034 151.682695 
L 78.605626 152.719309 
L 81.365466 156.302336 
L 81.820028 156.834886 
L 82.436933 157.831887 
L 83.183713 159.191772 
L 83.540869 160.334903 
L 84.060368 162.64155 
L 85.034429 168.139439 
L 86.365646 177.280417 
L 88.411174 195.523895 
L 89.677454 201.929795 
L 90.326828 204.343848 
L 91.300889 206.964583 
L 94.093197 213.19251 
L 95.002321 214.506268 
L 95.911444 215.456682 
L 96.593287 215.878655 
L 97.697223 216.158501 
L 99.385595 216.363531 
L 102.892215 216.716024 
L 105.165024 216.887983 
L 109.937923 217.084986 
L 126.626836 217.095902 
L 398.487273 217.098423 
L 398.487273 217.098423 
" clip-path="url(#p2b9bf815ad)" style="fill: none; stroke: #0000ff; stroke-width: 1.5; stroke-linecap: square"/>
   </g>
   <g id="line2d_17">
    <path d="M 73.832727 145.548842 
L 74.352226 145.338044 
L 75.293819 144.913359 
L 76.105536 145.256138 
L 77.956252 146.444123 
L 78.540689 147.310685 
L 79.482281 149.474389 
L 82.079777 155.391649 
L 82.469402 156.474387 
L 83.540869 160.607437 
L 84.77468 167.258201 
L 85.424054 170.468408 
L 86.430583 175.434557 
L 88.800799 190.140764 
L 90.716452 198.658173 
L 91.690513 202.200186 
L 92.76198 205.539606 
L 93.703573 208.369316 
L 94.839977 210.783222 
L 95.684163 211.846789 
L 97.340067 213.468881 
L 98.379066 214.215098 
L 99.51547 214.880145 
L 100.651875 215.301111 
L 102.437653 215.603975 
L 107.827458 216.559911 
L 110.944453 216.832215 
L 116.236851 217.061602 
L 128.217802 217.098735 
L 398.487273 217.098423 
L 398.487273 217.098423 
" clip-path="url(#p2b9bf815ad)" style="fill: none; stroke: #0000ff; stroke-width: 1.5; stroke-linecap: square"/>
   </g>
   <g id="line2d_18">
    <path d="M 73.832727 293.513867 
L 75.326288 291.005618 
L 75.650975 290.111873 
L 77.436753 283.031673 
L 78.378345 278.01743 
L 81.26806 266.295691 
L 81.75509 265.226921 
L 82.696683 263.92085 
L 82.988901 263.42745 
L 83.735681 261.70406 
L 84.060368 260.351858 
L 84.677274 256.797256 
L 85.164304 253.40868 
L 86.430583 245.557181 
L 87.144895 241.98587 
L 88.541049 236.093097 
L 90.294359 230.363659 
L 91.26842 228.040502 
L 92.567168 225.39046 
L 94.25554 222.927637 
L 96.00885 220.730319 
L 97.567348 219.293366 
L 98.638815 218.541049 
L 99.353127 218.240458 
L 100.522 218.022987 
L 109.321018 217.258791 
L 114.710822 217.141875 
L 130.880236 217.100343 
L 398.487273 217.098423 
L 398.487273 217.098423 
" clip-path="url(#p2b9bf815ad)" style="fill: none; stroke: #0000ff; stroke-width: 1.5; stroke-linecap: square"/>
   </g>
   <g id="line2d_19">
    <path d="M 73.832727 177.809959 
L 74.417164 178.832657 
L 74.709382 179.405322 
L 75.26135 180.670168 
L 75.715912 181.639947 
L 76.332817 183.079804 
L 76.787379 183.724754 
L 77.599097 185.027377 
L 78.216002 186.572742 
L 78.605626 187.283222 
L 79.709562 189.309788 
L 80.358936 191.070228 
L 81.917434 196.764778 
L 82.501871 199.649424 
L 83.573338 204.999427 
L 84.417524 207.678961 
L 84.872086 208.422729 
L 85.748741 208.95119 
L 86.235771 209.152754 
L 86.463052 209.377979 
L 88.50858 212.270728 
L 90.586577 215.304736 
L 91.820388 216.10611 
L 93.865916 216.839944 
L 95.52182 217.248756 
L 96.203663 217.381103 
L 97.697223 217.381906 
L 100.651875 217.254765 
L 106.398835 217.272476 
L 112.080858 217.088656 
L 122.146155 217.088489 
L 180.362537 217.098423 
L 398.487273 217.098423 
L 398.487273 217.098423 
" clip-path="url(#p2b9bf815ad)" style="fill: none; stroke: #0000ff; stroke-width: 1.5; stroke-linecap: square"/>
   </g>
   <g id="line2d_20">
    <path d="M 73.832727 59.629679 
L 74.644445 60.436249 
L 75.001601 60.992114 
L 75.975662 62.568466 
L 76.852317 63.568119 
L 79.125126 66.113192 
L 79.579687 66.580707 
L 80.683623 67.583762 
L 81.657684 68.960042 
L 83.475932 71.445276 
L 84.060368 72.193682 
L 84.612336 72.528936 
L 85.781209 73.518866 
L 87.27477 75.105338 
L 88.183893 76.269308 
L 89.580047 77.469908 
L 90.781389 78.111069 
L 93.086667 79.119222 
L 94.25554 79.929976 
L 95.586757 80.738404 
L 100.522 82.951156 
L 102.535059 83.673298 
L 104.807868 84.248882 
L 106.658584 84.46286 
L 109.093737 84.743698 
L 113.996511 85.216502 
L 120.879876 85.575992 
L 131.075048 85.788493 
L 150.328988 85.931623 
L 198.382666 86.016907 
L 398.487273 86.03815 
L 398.487273 86.03815 
" clip-path="url(#p2b9bf815ad)" style="fill: none; stroke: #0000ff; stroke-width: 1.5; stroke-linecap: square"/>
   </g>
   <g id="line2d_21">
    <path d="M 73.832727 273.926465 
L 75.034069 268.607111 
L 75.748381 266.735763 
L 76.689973 264.790415 
L 77.112066 264.355259 
L 77.404284 264.28162 
L 77.664034 264.306202 
L 78.443283 264.248184 
L 78.897845 264.066923 
L 79.547219 263.530636 
L 80.358936 262.288361 
L 81.657684 259.453967 
L 82.307058 257.71147 
L 83.281119 253.875595 
L 83.962962 250.32407 
L 84.51493 246.778924 
L 86.073428 237.287266 
L 86.787739 233.399931 
L 87.502051 230.222012 
L 88.735861 225.985958 
L 89.547579 224.456415 
L 90.651515 223.140306 
L 94.417884 219.510869 
L 95.781569 218.75716 
L 97.210192 218.066846 
L 98.054379 217.89294 
L 99.580407 217.828283 
L 101.171374 217.702389 
L 106.561178 217.181371 
L 113.249731 217.077118 
L 144.939183 217.098481 
L 398.487273 217.098423 
L 398.487273 217.098423 
" clip-path="url(#p2b9bf815ad)" style="fill: none; stroke: #0000ff; stroke-width: 1.5; stroke-linecap: square"/>
   </g>
   <g id="line2d_22">
    <path d="M 73.832727 213.839439 
L 74.871726 214.172967 
L 75.034069 214.080696 
L 75.488631 213.964407 
L 75.910724 214.062017 
L 76.300349 213.918503 
L 76.592567 213.911534 
L 77.923784 213.868299 
L 78.151065 213.951564 
L 78.573158 214.168532 
L 78.995251 214.89936 
L 79.482281 216.706479 
L 80.910904 223.739976 
L 81.657684 226.296246 
L 82.631745 228.011952 
L 83.865556 228.679503 
L 84.125306 228.48525 
L 84.709742 227.552264 
L 85.099367 226.342026 
L 86.592927 221.921667 
L 87.599457 220.101029 
L 88.865736 219.038472 
L 89.969672 218.146589 
L 90.846327 217.796663 
L 92.697043 217.34955 
L 93.151605 217.24009 
L 94.904914 216.894325 
L 99.418064 216.802508 
L 102.924684 216.770629 
L 108.801519 217.042936 
L 112.795169 217.089886 
L 157.666914 217.098304 
L 398.487273 217.098423 
L 398.487273 217.098423 
" clip-path="url(#p2b9bf815ad)" style="fill: none; stroke: #0000ff; stroke-width: 1.5; stroke-linecap: square"/>
   </g>
   <g id="line2d_23">
    <path d="M 73.832727 53.568 
L 75.975662 56.18212 
L 77.631565 57.39188 
L 78.345877 58.377788 
L 79.7745 60.297888 
L 80.488811 61.228689 
L 82.242121 63.797114 
L 83.02137 64.944132 
L 85.196773 67.820713 
L 86.885145 69.546496 
L 88.670924 71.623383 
L 89.742391 73.358698 
L 91.365826 75.37742 
L 92.859386 76.901087 
L 96.138725 79.764986 
L 97.794629 80.942891 
L 99.450533 81.87133 
L 102.76234 83.272347 
L 104.385775 83.731194 
L 111.399015 84.740349 
L 115.78229 85.166373 
L 122.01628 85.541003 
L 130.458143 85.810357 
L 143.28328 85.986629 
L 167.212713 86.055312 
L 372.317499 86.038514 
L 398.487273 86.038389 
L 398.487273 86.038389 
" clip-path="url(#p2b9bf815ad)" style="fill: none; stroke: #0000ff; stroke-width: 1.5; stroke-linecap: square"/>
   </g>
   <g id="line2d_24">
    <path d="M 73.832727 201.117575 
L 74.287289 201.186587 
L 74.741851 200.949597 
L 75.001601 201.021845 
L 75.5211 201.224285 
L 76.852317 201.789419 
L 77.144535 202.102313 
L 78.086127 203.182975 
L 78.313408 203.351778 
L 78.800439 203.540814 
L 79.157594 203.514882 
L 79.936843 203.079789 
L 81.430403 202.751787 
L 81.949903 202.625769 
L 82.339527 202.683771 
L 82.631745 202.969003 
L 83.183713 203.698226 
L 83.540869 204.188833 
L 84.872086 207.603698 
L 86.820208 214.411547 
L 87.404644 215.5163 
L 87.7618 215.942386 
L 88.248831 216.176064 
L 88.638455 216.056033 
L 89.385235 215.889375 
L 89.709922 215.864657 
L 90.196953 215.87621 
L 90.943733 216.096158 
L 92.989261 216.867995 
L 98.119316 216.585253 
L 101.463592 216.883373 
L 106.301429 217.133688 
L 111.918514 217.14958 
L 136.075228 217.099976 
L 398.487273 217.098423 
L 398.487273 217.098423 
" clip-path="url(#p2b9bf815ad)" style="fill: none; stroke: #0000ff; stroke-width: 1.5; stroke-linecap: square"/>
   </g>
   <g id="line2d_25">
    <path d="M 73.832727 219.211833 
L 74.157414 219.087929 
L 74.25482 219.171956 
L 75.099007 220.164196 
L 75.553568 220.39853 
L 76.040599 220.679488 
L 76.787379 221.26926 
L 77.436753 222.237743 
L 78.605626 223.948548 
L 79.027719 224.162699 
L 79.547219 224.250564 
L 79.904374 224.07228 
L 81.00831 223.379684 
L 81.495341 223.168907 
L 81.884965 223.15416 
L 82.177184 222.979673 
L 83.281119 222.47517 
L 83.76815 222.294934 
L 84.25518 221.638419 
L 85.196773 220.165344 
L 85.716272 219.471568 
L 86.917614 218.544528 
L 87.339707 218.660059 
L 88.248831 219.111304 
L 88.865736 219.49445 
L 89.450173 219.605172 
L 90.976202 218.89149 
L 91.950263 218.563843 
L 93.898385 218.014158 
L 94.904914 217.653002 
L 95.651695 217.518619 
L 97.827098 217.368024 
L 99.580407 217.188063 
L 100.944093 217.197218 
L 107.989801 217.265286 
L 118.120036 217.124643 
L 149.095177 217.09876 
L 398.487273 217.098423 
L 398.487273 217.098423 
" clip-path="url(#p2b9bf815ad)" style="fill: none; stroke: #0000ff; stroke-width: 1.5; stroke-linecap: square"/>
   </g>
   <g id="line2d_26">
    <path d="M 73.832727 61.020838 
L 78.670564 67.563555 
L 79.969312 68.457226 
L 80.910904 69.471329 
L 84.287649 74.224957 
L 84.937023 74.755267 
L 86.170834 75.57618 
L 88.02155 76.338128 
L 88.605986 76.575998 
L 89.937203 77.647146 
L 90.716452 78.159753 
L 91.917794 78.699289 
L 95.294539 79.953651 
L 97.892035 81.347214 
L 103.50912 82.390253 
L 107.502771 83.351796 
L 114.158854 84.374629 
L 119.77594 84.880596 
L 128.639895 85.413952 
L 137.861006 85.685948 
L 152.894015 85.878703 
L 181.206723 85.986972 
L 270.203433 86.033256 
L 398.487273 86.038062 
L 398.487273 86.038062 
" clip-path="url(#p2b9bf815ad)" style="fill: none; stroke: #0000ff; stroke-width: 1.5; stroke-linecap: square"/>
   </g>
   <g id="line2d_27">
    <path d="M 73.832727 233.924948 
L 74.157414 234.494253 
L 74.579507 235.069326 
L 74.936663 235.36544 
L 75.293819 235.375926 
L 75.748381 235.215774 
L 76.26788 235.170463 
L 76.722442 234.828563 
L 76.982191 234.408667 
L 77.891315 232.563211 
L 78.670564 231.214566 
L 78.962782 231.185785 
L 79.287469 231.299785 
L 79.644625 231.46527 
L 80.099187 231.586743 
L 80.683623 232.008982 
L 81.397935 232.620756 
L 81.722622 232.640232 
L 81.949903 232.431386 
L 82.469402 231.597161 
L 82.826558 230.428747 
L 83.76815 227.149167 
L 86.203303 219.724829 
L 87.079957 218.269576 
L 87.989081 217.22554 
L 88.411174 217.007035 
L 89.060548 217.224902 
L 89.807328 217.574327 
L 91.106076 218.08255 
L 92.0152 218.128417 
L 92.729511 217.846997 
L 93.313948 217.796672 
L 97.307598 217.870059 
L 99.807688 217.358764 
L 101.463592 217.185706 
L 103.314308 217.257985 
L 105.392305 217.250627 
L 110.457422 217.121916 
L 398.487273 217.098423 
L 398.487273 217.098423 
" clip-path="url(#p2b9bf815ad)" style="fill: none; stroke: #0000ff; stroke-width: 1.5; stroke-linecap: square"/>
   </g>
   <g id="line2d_28">
    <path d="M 73.832727 216.228806 
L 74.222352 216.32526 
L 74.676914 215.940058 
L 75.001601 215.763548 
L 75.326288 216.226404 
L 76.365286 218.718365 
L 78.086127 222.817532 
L 79.157594 223.381914 
L 79.579687 223.061051 
L 79.839437 222.643049 
L 81.75509 217.670182 
L 82.469402 216.203876 
L 82.859026 215.506722 
L 83.573338 214.463623 
L 83.898025 214.386759 
L 84.709742 215.322861 
L 85.716272 217.116046 
L 86.722802 218.311948 
L 87.339707 218.764525 
L 88.216362 218.948733 
L 89.287829 218.364522 
L 90.002141 217.961446 
L 90.748921 217.750618 
L 91.950263 217.477328 
L 95.067258 217.068249 
L 98.833627 216.96873 
L 100.327188 217.118476 
L 103.151965 217.242752 
L 107.535239 217.160954 
L 112.632825 217.12802 
L 135.231042 217.098386 
L 398.487273 217.098423 
L 398.487273 217.098423 
" clip-path="url(#p2b9bf815ad)" style="fill: none; stroke: #0000ff; stroke-width: 1.5; stroke-linecap: square"/>
   </g>
   <g id="line2d_29">
    <path d="M 73.832727 196.303143 
L 74.51457 196.332919 
L 74.936663 195.991812 
L 75.780849 195.478921 
L 76.073068 195.342163 
L 76.625036 195.183116 
L 76.917254 195.417695 
L 79.222532 198.634507 
L 80.001781 199.589647 
L 81.00831 201.08908 
L 81.235591 201.279119 
L 81.495341 201.659411 
L 81.787559 201.998317 
L 82.144715 202.382032 
L 82.631745 202.997989 
L 82.859026 203.493064 
L 83.151245 204.421539 
L 85.001961 211.908338 
L 85.781209 214.251733 
L 86.722802 216.413576 
L 88.346237 218.260829 
L 89.287829 218.511979 
L 89.77486 218.33333 
L 90.489171 217.924802 
L 91.138545 217.783707 
L 92.047669 217.776496 
L 93.216542 217.824347 
L 94.352947 217.787364 
L 102.210372 217.319606 
L 104.807868 217.292192 
L 113.119856 217.160017 
L 131.432204 217.10301 
L 351.018031 217.098423 
L 398.487273 217.098423 
L 398.487273 217.098423 
" clip-path="url(#p2b9bf815ad)" style="fill: none; stroke: #0000ff; stroke-width: 1.5; stroke-linecap: square"/>
   </g>
   <g id="line2d_30">
    <path d="M 73.832727 280.729754 
L 74.352226 279.875204 
L 75.099007 277.646564 
L 75.748381 275.080225 
L 76.625036 272.043017 
L 78.897845 265.779884 
L 80.001781 262.515278 
L 80.358936 261.239631 
L 80.845967 259.341234 
L 81.852497 256.631204 
L 83.638275 251.538921 
L 84.157774 249.052055 
L 85.781209 239.646731 
L 86.722802 234.730584 
L 87.859206 229.659302 
L 88.476112 227.68549 
L 89.580047 225.237768 
L 90.651515 223.384004 
L 91.495701 222.289031 
L 92.27495 221.643219 
L 96.853037 218.570516 
L 97.892035 218.118885 
L 98.931033 217.865228 
L 100.132375 217.771074 
L 104.937743 217.385607 
L 107.697583 217.20062 
L 113.606887 217.08846 
L 148.121116 217.097483 
L 398.487273 217.098423 
L 398.487273 217.098423 
" clip-path="url(#p2b9bf815ad)" style="fill: none; stroke: #0000ff; stroke-width: 1.5; stroke-linecap: square"/>
   </g>
   <g id="line2d_31">
    <path d="M 73.832727 94.89164 
L 74.189883 94.853237 
L 74.611976 95.158355 
L 76.105536 96.313668 
L 76.722442 97.299219 
L 77.371816 97.621201 
L 77.793909 97.447768 
L 78.443283 96.87282 
L 79.319938 95.219524 
L 80.488811 93.227079 
L 81.657684 91.738681 
L 84.51493 89.261343 
L 85.26171 88.743393 
L 85.878615 88.276476 
L 87.469582 87.723593 
L 88.638455 87.514818 
L 91.138545 87.048157 
L 93.086667 86.43087 
L 96.041319 86.075064 
L 97.567348 86.029219 
L 99.51547 86.026184 
L 103.50912 86.233341 
L 106.00921 85.981465 
L 108.5093 85.864442 
L 112.925044 85.833032 
L 120.230502 85.783532 
L 140.52344 85.859351 
L 186.628996 86.003637 
L 304.522851 86.037419 
L 398.487273 86.038199 
L 398.487273 86.038199 
" clip-path="url(#p2b9bf815ad)" style="fill: none; stroke: #0000ff; stroke-width: 1.5; stroke-linecap: square"/>
   </g>
   <g id="line2d_32">
    <path d="M 73.832727 199.324222 
L 74.417164 199.041521 
L 74.904194 198.952334 
L 75.228881 198.537525 
L 75.715912 197.841715 
L 76.040599 197.674113 
L 76.332817 197.651104 
L 76.917254 197.641121 
L 77.27441 197.721561 
L 77.566628 197.98992 
L 78.345877 199.509071 
L 79.027719 200.209439 
L 79.287469 200.423825 
L 80.229061 201.714611 
L 80.910904 202.670443 
L 81.592747 203.014717 
L 82.859026 203.134944 
L 83.216182 203.306982 
L 83.573338 203.430556 
L 83.76815 203.797062 
L 84.385055 205.497583 
L 86.073428 210.843285 
L 86.657864 211.633475 
L 87.01502 211.78455 
L 87.599457 211.902545 
L 88.118956 211.969946 
L 89.060548 212.313828 
L 89.677454 212.729518 
L 93.216542 215.523615 
L 94.190603 216.038507 
L 96.366006 216.614838 
L 99.385595 216.764268 
L 103.444183 216.795541 
L 107.145615 216.954229 
L 115.132915 217.082852 
L 135.945353 217.099881 
L 398.487273 217.098423 
L 398.487273 217.098423 
" clip-path="url(#p2b9bf815ad)" style="fill: none; stroke: #0000ff; stroke-width: 1.5; stroke-linecap: square"/>
   </g>
   <g id="line2d_33">
    <path d="M 73.832727 261.789184 
L 74.904194 261.646637 
L 75.099007 261.631944 
L 75.618506 261.602862 
L 76.430223 261.589382 
L 77.631565 261.416489 
L 77.891315 261.539755 
L 79.092657 261.118751 
L 80.52128 257.728604 
L 81.52781 254.617641 
L 83.540869 246.122059 
L 85.034429 240.504517 
L 85.911084 238.368809 
L 86.592927 236.710325 
L 87.924144 232.915544 
L 88.118956 232.470658 
L 89.677454 228.538531 
L 90.554109 226.422838 
L 91.690513 224.188711 
L 92.729511 222.337289 
L 93.411354 221.513687 
L 94.093197 220.997485 
L 95.164664 220.532156 
L 97.534879 219.537386 
L 99.385595 218.501642 
L 100.651875 218.118889 
L 103.996151 217.521784 
L 105.944273 217.43079 
L 117.27585 217.119692 
L 141.822188 217.098465 
L 398.487273 217.098423 
L 398.487273 217.098423 
" clip-path="url(#p2b9bf815ad)" style="fill: none; stroke: #0000ff; stroke-width: 1.5; stroke-linecap: square"/>
   </g>
   <g id="line2d_34">
    <path d="M 73.832727 152.623864 
L 74.417164 152.103665 
L 75.163944 152.009635 
L 75.878255 152.546665 
L 76.365286 153.239708 
L 76.689973 153.865062 
L 77.306878 155.386136 
L 79.806968 160.664154 
L 80.586217 163.102037 
L 81.300529 165.843108 
L 82.177184 168.89733 
L 82.923964 171.447742 
L 84.579867 177.728589 
L 85.878615 185.580213 
L 86.398115 188.609299 
L 88.346237 195.410656 
L 89.937203 203.195911 
L 90.456702 205.249201 
L 91.365826 208.013353 
L 92.404824 210.599187 
L 93.086667 211.588227 
L 94.060728 212.769843 
L 94.839977 213.695456 
L 95.814038 214.38832 
L 97.080317 214.807295 
L 98.314128 215.405723 
L 99.710282 216.00662 
L 100.976562 216.289059 
L 102.567528 216.48282 
L 111.301609 217.020213 
L 119.288909 217.099015 
L 189.421304 217.098425 
L 398.487273 217.098423 
L 398.487273 217.098423 
" clip-path="url(#p2b9bf815ad)" style="fill: none; stroke: #0000ff; stroke-width: 1.5; stroke-linecap: square"/>
   </g>
   <g id="line2d_35">
    <path d="M 73.832727 237.223319 
L 74.384695 238.105767 
L 75.293819 239.190213 
L 75.650975 239.243814 
L 76.462692 238.672692 
L 76.722442 238.357282 
L 77.144535 237.716004 
L 77.534159 237.4862 
L 78.280939 237.278439 
L 78.703032 237.262414 
L 79.384875 237.74875 
L 79.871906 237.740191 
L 81.300529 237.691538 
L 81.690153 237.494955 
L 82.079777 237.068866 
L 83.281119 235.68506 
L 83.540869 235.155949 
L 83.995431 234.227 
L 84.839617 232.895162 
L 85.553928 232.012575 
L 86.105896 229.972521 
L 86.52799 228.958537 
L 87.144895 227.928925 
L 87.696863 227.005289 
L 88.216362 226.318723 
L 88.930673 225.641687 
L 89.839797 224.696234 
L 91.690513 223.031978 
L 94.51529 220.111782 
L 96.430943 218.693252 
L 97.697223 218.118878 
L 99.02844 217.777032 
L 101.853217 217.42979 
L 108.346957 217.071967 
L 123.217622 217.098455 
L 398.487273 217.098423 
L 398.487273 217.098423 
" clip-path="url(#p2b9bf815ad)" style="fill: none; stroke: #0000ff; stroke-width: 1.5; stroke-linecap: square"/>
   </g>
   <g id="line2d_36">
    <path d="M 73.832727 261.348326 
L 75.650975 257.175774 
L 76.462692 256.150573 
L 76.884785 256.048701 
L 77.566628 255.636302 
L 78.475752 254.887331 
L 78.897845 254.25617 
L 79.806968 252.085519 
L 80.229061 250.566669 
L 80.845967 247.936621 
L 81.625216 245.489167 
L 82.242121 244.111805 
L 82.794089 242.877405 
L 83.248651 242.010696 
L 84.742211 239.010946 
L 85.26171 238.152052 
L 85.683803 237.689171 
L 86.430583 236.601601 
L 86.657864 236.060326 
L 87.372176 234.058467 
L 88.02155 231.734818 
L 89.644985 226.602666 
L 90.813858 224.18154 
L 92.0152 222.385767 
L 92.859386 221.429812 
L 93.703573 220.718799 
L 94.51529 220.271956 
L 96.950443 219.166222 
L 98.638815 218.193809 
L 99.840157 217.706827 
L 100.749281 217.556158 
L 103.02209 217.480784 
L 106.52871 217.358308 
L 116.658944 217.088576 
L 398.487273 217.098423 
L 398.487273 217.098423 
" clip-path="url(#p2b9bf815ad)" style="fill: none; stroke: #ff0000; stroke-width: 1.5; stroke-linecap: square"/>
   </g>
   <g id="line2d_37">
    <path d="M 73.832727 280.510848 
L 74.936663 276.53734 
L 76.332817 270.869494 
L 77.144535 268.230838 
L 79.482281 262.299217 
L 79.936843 261.582598 
L 80.326468 261.087066 
L 80.651155 260.274756 
L 83.183713 253.29866 
L 84.0279 250.046547 
L 86.885145 237.108576 
L 89.157954 227.920777 
L 90.748921 223.226794 
L 91.52817 221.946059 
L 93.054199 219.990864 
L 94.872446 218.436746 
L 96.398475 217.793259 
L 97.729692 217.459615 
L 98.76869 217.411061 
L 103.931213 217.356305 
L 109.970392 217.067041 
L 118.444723 217.07986 
L 202.051629 217.098422 
L 398.487273 217.098423 
L 398.487273 217.098423 
" clip-path="url(#p2b9bf815ad)" style="fill: none; stroke: #ff0000; stroke-width: 1.5; stroke-linecap: square"/>
   </g>
   <g id="line2d_38">
    <path d="M 73.832727 73.40296 
L 74.384695 74.037539 
L 74.871726 74.287005 
L 76.722442 75.122225 
L 77.631565 75.24146 
L 78.638095 75.268178 
L 80.326468 75.306824 
L 82.826558 75.876028 
L 83.735681 76.439212 
L 87.047489 79.063083 
L 87.664394 79.385886 
L 89.25536 80.052718 
L 90.781389 80.682752 
L 93.76851 81.970176 
L 95.814038 82.376057 
L 97.567348 82.500019 
L 104.580588 83.895221 
L 113.704293 85.091863 
L 118.899285 85.474519 
L 125.100807 85.71233 
L 139.387035 85.962922 
L 159.874786 86.024415 
L 272.086618 86.038968 
L 398.487273 86.038295 
L 398.487273 86.038295 
" clip-path="url(#p2b9bf815ad)" style="fill: none; stroke: #ff0000; stroke-width: 1.5; stroke-linecap: square"/>
   </g>
   <g id="line2d_39">
    <path d="M 73.832727 237.979149 
L 74.222352 237.797765 
L 74.676914 237.756647 
L 75.780849 236.930463 
L 76.202942 236.359301 
L 76.689973 235.366427 
L 77.241941 234.239411 
L 77.599097 234.001255 
L 77.858846 234.024631 
L 78.118596 234.154487 
L 78.573158 234.669158 
L 78.897845 234.777751 
L 79.449813 234.975378 
L 79.709562 235.009065 
L 80.293999 234.910558 
L 80.52128 234.72525 
L 81.00831 234.019263 
L 81.397935 233.05188 
L 82.242121 231.033571 
L 83.865556 227.032051 
L 84.677274 225.278925 
L 85.131835 224.378715 
L 85.683803 223.685406 
L 86.00849 223.116536 
L 86.495521 221.727606 
L 87.112426 220.176553 
L 88.054018 218.508274 
L 88.735861 217.678929 
L 89.547579 217.150051 
L 90.391765 216.962063 
L 91.690513 217.000939 
L 92.794449 217.333882 
L 93.216542 217.268317 
L 96.236131 216.754246 
L 97.437473 216.66252 
L 99.483001 216.883556 
L 101.463592 217.073883 
L 105.944273 217.101392 
L 112.600357 217.09674 
L 124.321558 217.083143 
L 230.916305 217.098423 
L 398.487273 217.098423 
L 398.487273 217.098423 
" clip-path="url(#p2b9bf815ad)" style="fill: none; stroke: #ff0000; stroke-width: 1.5; stroke-linecap: square"/>
   </g>
   <g id="line2d_40">
    <path d="M 73.832727 172.139574 
L 75.683443 176.476844 
L 76.040599 177.248605 
L 77.144535 177.994452 
L 77.534159 178.00265 
L 77.988721 177.751465 
L 78.443283 177.57692 
L 79.51475 177.693652 
L 80.001781 178.55542 
L 80.618686 179.447436 
L 80.975842 179.920392 
L 81.560278 181.212047 
L 82.501871 183.343227 
L 83.540869 184.915713 
L 83.735681 185.316806 
L 84.092837 186.316956 
L 84.644805 188.528056 
L 85.976022 194.963986 
L 88.443643 208.675296 
L 89.157954 211.096247 
L 89.77486 212.634725 
L 90.651515 214.178185 
L 91.593107 215.300179 
L 92.664574 216.202347 
L 92.989261 216.264044 
L 93.833447 216.509713 
L 96.041319 217.190241 
L 97.177724 217.287784 
L 98.606346 217.203783 
L 101.041499 216.928504 
L 103.444183 216.899445 
L 109.645705 217.101722 
L 120.814938 217.110487 
L 279.03492 217.098423 
L 398.487273 217.098423 
L 398.487273 217.098423 
" clip-path="url(#p2b9bf815ad)" style="fill: none; stroke: #ff0000; stroke-width: 1.5; stroke-linecap: square"/>
   </g>
   <g id="line2d_41">
    <path d="M 73.832727 247.557826 
L 75.488631 245.07612 
L 76.00813 243.961338 
L 76.527629 243.05581 
L 76.819848 242.997892 
L 77.241941 243.141737 
L 77.76144 243.491274 
L 79.092657 245.434184 
L 79.806968 246.225342 
L 80.131655 246.406842 
L 80.553748 246.18989 
L 81.300529 245.717435 
L 83.638275 242.696796 
L 84.25518 241.182318 
L 84.709742 239.718574 
L 85.683803 236.892824 
L 86.690333 234.088831 
L 88.216362 228.618518 
L 89.547579 225.134491 
L 90.391765 223.541463 
L 91.787919 221.415582 
L 92.794449 220.054949 
L 94.417884 218.468265 
L 96.106256 217.773453 
L 97.112786 217.590535 
L 100.294719 217.114779 
L 103.833807 216.921467 
L 124.224152 217.104666 
L 253.54699 217.098423 
L 398.487273 217.098423 
L 398.487273 217.098423 
" clip-path="url(#p2b9bf815ad)" style="fill: none; stroke: #ff0000; stroke-width: 1.5; stroke-linecap: square"/>
   </g>
   <g id="line2d_42">
    <path d="M 73.832727 173.953799 
L 74.611976 175.413064 
L 76.073068 177.015025 
L 76.365286 176.905534 
L 76.819848 176.890372 
L 77.241941 177.091934 
L 78.345877 176.851664 
L 78.832907 177.136689 
L 79.125126 177.461464 
L 79.806968 178.769188 
L 80.910904 181.346779 
L 81.397935 182.623997 
L 83.053838 188.114082 
L 84.190243 190.216892 
L 84.677274 192.071111 
L 86.690333 198.958742 
L 87.534519 200.80222 
L 89.872266 205.425107 
L 90.781389 207.994699 
L 91.950263 211.059194 
L 92.567168 212.149453 
L 93.573698 213.396988 
L 94.352947 214.001058 
L 95.716632 214.610187 
L 98.50894 215.676977 
L 103.087027 216.576194 
L 110.684703 217.041009 
L 124.02934 217.088628 
L 222.506911 217.098423 
L 398.487273 217.098423 
L 398.487273 217.098423 
" clip-path="url(#p2b9bf815ad)" style="fill: none; stroke: #ff0000; stroke-width: 1.5; stroke-linecap: square"/>
   </g>
   <g id="line2d_43">
    <path d="M 73.832727 115.540481 
L 74.384695 116.009044 
L 75.163944 117.28061 
L 77.177004 120.181529 
L 77.566628 120.48421 
L 77.956252 120.648097 
L 78.475752 120.616201 
L 79.222532 120.39633 
L 80.52128 121.450905 
L 80.910904 121.758931 
L 81.332997 121.635813 
L 81.592747 121.458979 
L 83.346057 118.383872 
L 84.385055 116.401499 
L 84.547399 116.230793 
L 84.77468 116.03151 
L 85.26171 115.892757 
L 86.495521 115.554773 
L 87.307238 114.689409 
L 88.281299 113.562744 
L 91.00867 108.797914 
L 92.697043 106.023159 
L 95.132195 101.015335 
L 95.619226 100.432011 
L 96.690693 99.247553 
L 97.534879 98.487273 
L 98.736221 97.273102 
L 101.171374 94.760216 
L 103.801339 92.467635 
L 105.944273 91.213286 
L 109.353487 89.945729 
L 111.788639 89.000731 
L 113.899105 88.352304 
L 120.977282 87.245108 
L 125.717712 86.802495 
L 132.341327 86.446663 
L 140.685783 86.220956 
L 153.381046 86.105082 
L 192.830518 86.052172 
L 398.487273 86.038334 
L 398.487273 86.038334 
" clip-path="url(#p2b9bf815ad)" style="fill: none; stroke: #ff0000; stroke-width: 1.5; stroke-linecap: square"/>
   </g>
   <g id="line2d_44">
    <path d="M 73.832727 138.712878 
L 75.034069 143.774625 
L 75.878255 146.959696 
L 77.177004 149.888855 
L 77.599097 150.551682 
L 78.638095 151.853708 
L 79.579687 152.484671 
L 80.488811 152.962368 
L 81.949903 154.076257 
L 82.891495 155.073994 
L 83.053838 155.378372 
L 84.352587 158.375818 
L 85.878615 163.946347 
L 87.242301 173.269029 
L 90.326828 199.753558 
L 91.073608 203.57487 
L 91.950263 206.9993 
L 92.729511 209.294142 
L 93.606166 211.249039 
L 94.288009 212.254212 
L 95.554289 213.488183 
L 96.463412 214.121585 
L 98.995971 215.49814 
L 101.041499 216.157353 
L 103.379246 216.50243 
L 108.217082 216.927782 
L 110.847047 217.025888 
L 122.665654 217.089194 
L 195.330608 217.098421 
L 398.487273 217.098423 
L 398.487273 217.098423 
" clip-path="url(#p2b9bf815ad)" style="fill: none; stroke: #ff0000; stroke-width: 1.5; stroke-linecap: square"/>
   </g>
   <g id="line2d_45">
    <path d="M 73.832727 270.119774 
L 74.547039 269.797376 
L 74.969132 269.594872 
L 75.293819 269.315562 
L 76.073068 268.332887 
L 77.144535 266.708603 
L 79.449813 260.191046 
L 80.131655 257.554134 
L 80.781029 255.31816 
L 81.170654 254.397269 
L 81.75509 252.895582 
L 82.631745 251.717025 
L 83.5084 251.06329 
L 84.644805 249.622018 
L 85.359116 248.02503 
L 89.060548 237.628146 
L 89.872266 235.559681 
L 92.404824 229.913014 
L 92.924324 228.295924 
L 94.677634 223.260941 
L 95.424414 221.969869 
L 96.041319 221.280628 
L 96.885505 220.454714 
L 97.859566 219.789801 
L 99.158314 219.143442 
L 100.522 218.751811 
L 105.197493 217.743478 
L 110.002861 217.377599 
L 113.477012 217.186483 
L 120.490251 217.111596 
L 167.439993 217.098388 
L 398.487273 217.098423 
L 398.487273 217.098423 
" clip-path="url(#p2b9bf815ad)" style="fill: none; stroke: #ff0000; stroke-width: 1.5; stroke-linecap: square"/>
   </g>
   <g id="line2d_46">
    <path d="M 73.832727 276.115764 
L 74.77432 274.861252 
L 76.527629 272.631303 
L 78.02119 269.99731 
L 78.475752 268.404329 
L 79.579687 264.706269 
L 80.229061 263.088383 
L 80.553748 262.159882 
L 82.01484 258.021939 
L 82.599277 256.994796 
L 83.5084 255.159644 
L 83.898025 253.440775 
L 85.52146 245.288072 
L 86.787739 242.104467 
L 87.566988 240.787432 
L 88.118956 239.848158 
L 89.02808 237.494325 
L 90.132015 234.568472 
L 94.02826 224.48464 
L 95.034789 222.777296 
L 96.00885 221.520537 
L 97.112786 220.545593 
L 98.216722 219.88534 
L 100.651875 218.949645 
L 104.02862 217.804909 
L 105.424774 217.703608 
L 108.411894 217.480723 
L 111.853577 217.248253 
L 116.594007 217.173285 
L 132.081578 217.105669 
L 229.130526 217.098423 
L 398.487273 217.098423 
L 398.487273 217.098423 
" clip-path="url(#p2b9bf815ad)" style="fill: none; stroke: #ff0000; stroke-width: 1.5; stroke-linecap: square"/>
   </g>
   <g id="line2d_47">
    <path d="M 73.832727 133.675245 
L 74.709382 135.864952 
L 75.845787 140.57762 
L 76.657504 144.276584 
L 77.728971 147.035363 
L 78.475752 148.425347 
L 78.76797 148.720627 
L 80.586217 150.196182 
L 81.495341 151.453393 
L 82.01484 152.259545 
L 82.242121 152.723436 
L 83.735681 156.749751 
L 84.644805 158.529747 
L 85.424054 160.241628 
L 85.846147 161.300147 
L 86.138365 162.40503 
L 88.670924 174.534842 
L 89.287829 178.853819 
L 90.424234 187.015806 
L 91.982731 196.44618 
L 93.151605 202.369627 
L 94.125666 205.536489 
L 95.132195 207.248351 
L 96.00885 208.226737 
L 96.820568 209.129926 
L 98.086847 210.881468 
L 99.580407 213.073894 
L 100.651875 214.229051 
L 101.560998 214.949498 
L 102.502591 215.436385 
L 103.703933 215.796302 
L 109.872986 216.836611 
L 112.567888 216.998247 
L 117.243381 217.094224 
L 135.912884 217.099393 
L 398.487273 217.098423 
L 398.487273 217.098423 
" clip-path="url(#p2b9bf815ad)" style="fill: none; stroke: #ff0000; stroke-width: 1.5; stroke-linecap: square"/>
   </g>
   <g id="line2d_48">
    <path d="M 73.832727 236.465227 
L 74.51457 235.558045 
L 75.131475 234.572399 
L 76.105536 234.182647 
L 76.592567 234.526227 
L 77.047129 234.93543 
L 77.27441 235.368473 
L 80.358936 241.416 
L 81.430403 242.619381 
L 81.852497 242.880536 
L 82.826558 243.283063 
L 83.151245 243.15368 
L 84.222712 240.961709 
L 85.001961 238.388819 
L 85.748741 236.490464 
L 86.073428 235.761798 
L 87.047489 232.792115 
L 87.566988 231.600609 
L 88.248831 230.068272 
L 89.677454 226.711803 
L 90.196953 225.893546 
L 91.171014 224.882407 
L 98.801159 218.449659 
L 99.77522 218.012073 
L 100.976562 217.697807 
L 102.502591 217.519366 
L 105.846867 217.378009 
L 114.288729 217.148779 
L 128.445083 217.103281 
L 378.908646 217.098423 
L 398.487273 217.098423 
L 398.487273 217.098423 
" clip-path="url(#p2b9bf815ad)" style="fill: none; stroke: #ff0000; stroke-width: 1.5; stroke-linecap: square"/>
   </g>
   <g id="line2d_49">
    <path d="M 73.832727 108.512327 
L 74.417164 108.441198 
L 75.456162 108.128591 
L 76.397755 107.868078 
L 77.079597 108.280328 
L 78.378345 107.963814 
L 78.832907 107.455874 
L 79.417344 106.82554 
L 80.131655 106.14424 
L 80.878435 104.805799 
L 81.495341 103.156791 
L 82.501871 100.492253 
L 83.443463 98.889149 
L 84.0279 98.233993 
L 84.449993 98.046951 
L 84.677274 97.911559 
L 85.26171 97.193643 
L 88.054018 93.868238 
L 88.995611 93.079298 
L 90.326828 92.21841 
L 91.171014 91.849863 
L 92.307418 91.490264 
L 93.573698 90.937944 
L 95.554289 90.265112 
L 97.599817 89.383431 
L 98.931033 89.139126 
L 99.937563 88.9085 
L 103.898745 88.0347 
L 109.710642 87.320191 
L 114.126386 86.804982 
L 122.243561 86.410372 
L 129.094457 86.141623 
L 139.224692 85.986641 
L 158.77085 85.951599 
L 354.135027 86.037744 
L 398.487273 86.038099 
L 398.487273 86.038099 
" clip-path="url(#p2b9bf815ad)" style="fill: none; stroke: #ff0000; stroke-width: 1.5; stroke-linecap: square"/>
   </g>
   <g id="line2d_50">
    <path d="M 73.832727 234.984323 
L 74.287289 234.640032 
L 74.77432 234.317301 
L 75.878255 233.47454 
L 76.170474 233.024231 
L 76.657504 232.240173 
L 77.27441 231.227771 
L 77.534159 231.081734 
L 78.151065 231.122116 
L 78.410814 231.117675 
L 78.962782 230.676023 
L 79.319938 230.081777 
L 80.26153 227.745162 
L 81.722622 224.034256 
L 82.144715 223.506892 
L 82.76162 223.051196 
L 83.346057 222.901409 
L 83.995431 222.938492 
L 84.417524 222.574427 
L 84.969492 222.460408 
L 85.748741 222.05252 
L 86.170834 221.467269 
L 88.086487 218.013458 
L 88.800799 217.223174 
L 89.904734 216.656309 
L 90.781389 216.42509 
L 91.560638 216.404689 
L 93.378886 216.585145 
L 93.800979 216.534043 
L 95.619226 216.411627 
L 96.690693 216.362184 
L 102.210372 216.892249 
L 107.113146 216.921347 
L 115.067978 217.012943 
L 130.490611 217.082733 
L 197.993041 217.098418 
L 398.487273 217.098423 
L 398.487273 217.098423 
" clip-path="url(#p2b9bf815ad)" style="fill: none; stroke: #ff0000; stroke-width: 1.5; stroke-linecap: square"/>
   </g>
   <g id="line2d_51">
    <path d="M 73.832727 179.681704 
L 73.962602 179.835935 
L 74.51457 180.994632 
L 74.904194 181.854508 
L 75.715912 182.969715 
L 76.657504 184.346162 
L 77.241941 185.381751 
L 78.443283 186.73232 
L 79.644625 188.127361 
L 80.066718 188.372838 
L 80.553748 188.819621 
L 80.781029 189.28625 
L 82.794089 194.959856 
L 83.898025 200.855508 
L 85.26171 209.349508 
L 86.040959 212.504798 
L 86.690333 214.255253 
L 87.047489 214.763685 
L 87.989081 215.615768 
L 89.02808 216.25735 
L 89.77486 216.433458 
L 91.75545 217.237101 
L 92.924324 217.448754 
L 93.736041 217.467938 
L 94.904914 217.473923 
L 96.430943 217.467303 
L 99.320658 217.277169 
L 102.535059 217.384568 
L 104.677994 217.247142 
L 107.794989 217.119359 
L 116.594007 217.097937 
L 175.26495 217.098411 
L 398.487273 217.098423 
L 398.487273 217.098423 
" clip-path="url(#p2b9bf815ad)" style="fill: none; stroke: #ff0000; stroke-width: 1.5; stroke-linecap: square"/>
   </g>
   <g id="line2d_52">
    <path d="M 73.832727 166.465183 
L 74.417164 166.270564 
L 75.034069 166.482245 
L 76.105536 166.953898 
L 76.689973 167.614846 
L 77.566628 167.855208 
L 78.443283 168.31536 
L 79.579687 170.240469 
L 80.553748 174.293246 
L 82.242121 181.365302 
L 83.118776 185.049012 
L 83.735681 187.67086 
L 84.222712 190.061413 
L 86.138365 201.127942 
L 86.885145 204.081355 
L 88.216362 208.16033 
L 90.326828 213.71252 
L 91.106076 214.810394 
L 91.917794 215.472167 
L 92.567168 215.696065 
L 93.02173 215.678732 
L 96.171194 216.483255 
L 97.534879 216.432834 
L 102.599997 216.958525 
L 105.846867 217.089536 
L 109.385955 217.154501 
L 130.52308 217.102537 
L 240.884196 217.098423 
L 398.487273 217.098423 
L 398.487273 217.098423 
" clip-path="url(#p2b9bf815ad)" style="fill: none; stroke: #ff0000; stroke-width: 1.5; stroke-linecap: square"/>
   </g>
   <g id="line2d_53">
    <path d="M 73.832727 253.584378 
L 77.988721 244.698873 
L 80.781029 238.62493 
L 81.592747 236.914282 
L 82.339527 234.848543 
L 82.956432 232.634825 
L 83.540869 230.234961 
L 84.287649 228.113216 
L 85.359116 225.626457 
L 87.729331 220.224705 
L 88.183893 219.957144 
L 90.229421 219.687576 
L 91.106076 219.336608 
L 91.950263 219.124836 
L 93.930853 218.223462 
L 95.391945 217.611848 
L 96.430943 217.414289 
L 98.02191 217.237777 
L 103.476652 216.940874 
L 107.340427 217.116914 
L 115.425134 217.124867 
L 152.829078 217.098646 
L 398.487273 217.098423 
L 398.487273 217.098423 
" clip-path="url(#p2b9bf815ad)" style="fill: none; stroke: #ff0000; stroke-width: 1.5; stroke-linecap: square"/>
   </g>
   <g id="line2d_54">
    <path d="M 73.832727 173.206558 
L 74.352226 173.742907 
L 75.553568 175.183951 
L 75.910724 175.955305 
L 76.625036 177.769515 
L 77.469222 179.610829 
L 77.988721 180.688721 
L 78.76797 182.574728 
L 80.716092 187.089155 
L 81.397935 187.979098 
L 81.852497 188.767712 
L 82.404464 190.280789 
L 83.735681 195.216254 
L 85.326648 205.051772 
L 86.333177 208.296177 
L 87.209832 210.169507 
L 88.898205 212.104617 
L 89.839797 212.989995 
L 90.424234 213.430703 
L 91.300889 214.068399 
L 92.307418 214.635969 
L 92.729511 214.698544 
L 94.937383 215.230185 
L 96.950443 216.031754 
L 101.625936 216.687098 
L 103.184433 216.801625 
L 106.171554 216.872937 
L 136.627196 217.096518 
L 398.487273 217.098423 
L 398.487273 217.098423 
" clip-path="url(#p2b9bf815ad)" style="fill: none; stroke: #ff0000; stroke-width: 1.5; stroke-linecap: square"/>
   </g>
   <g id="line2d_55">
    <path d="M 73.832727 295.488 
L 74.189883 294.354077 
L 76.073068 287.741123 
L 77.566628 283.596207 
L 77.923784 282.312857 
L 79.417344 275.878361 
L 80.099187 273.139505 
L 81.949903 264.717936 
L 82.729151 262.843889 
L 83.053838 262.088991 
L 84.060368 259.148281 
L 85.359116 254.858704 
L 87.047489 248.176236 
L 88.605986 242.862677 
L 92.437293 231.514363 
L 92.989261 229.732226 
L 94.060728 226.541048 
L 94.904914 224.414599 
L 95.684163 222.905813 
L 96.430943 221.9345 
L 97.599817 220.93378 
L 99.125846 219.869385 
L 101.366186 218.653136 
L 103.379246 218.039319 
L 105.554649 217.619545 
L 108.087207 217.407449 
L 113.347137 217.221473 
L 120.035689 217.139465 
L 140.945533 217.100399 
L 398.487273 217.098423 
L 398.487273 217.098423 
" clip-path="url(#p2b9bf815ad)" style="fill: none; stroke: #ff0000; stroke-width: 1.5; stroke-linecap: square"/>
   </g>
   <g id="line2d_56">
    <path d="M 73.832727 223.943941 
L 74.871726 223.740425 
L 75.034069 223.649171 
L 75.650975 223.373764 
L 76.495161 223.227445 
L 77.177004 222.930493 
L 77.793909 222.395377 
L 78.378345 221.720872 
L 79.806968 219.817032 
L 80.066718 219.773313 
L 80.391405 219.992794 
L 81.00831 220.73792 
L 82.047309 222.433144 
L 82.404464 222.65894 
L 82.696683 222.236851 
L 83.378525 221.247139 
L 83.605806 220.695615 
L 84.482461 218.47642 
L 85.131835 217.335037 
L 85.846147 216.468117 
L 86.138365 216.322816 
L 87.891675 215.43642 
L 89.385235 214.504203 
L 90.391765 214.918449 
L 91.820388 216.278297 
L 92.826918 216.73041 
L 93.76851 216.8699 
L 98.476472 217.058845 
L 99.807688 217.175991 
L 103.703933 217.33328 
L 120.198033 217.110119 
L 318.419455 217.098423 
L 398.487273 217.098423 
L 398.487273 217.098423 
" clip-path="url(#p2b9bf815ad)" style="fill: none; stroke: #ff0000; stroke-width: 1.5; stroke-linecap: square"/>
   </g>
   <g id="line2d_57">
    <path d="M 73.832727 73.847604 
L 75.845787 75.045076 
L 76.397755 75.457862 
L 77.01466 75.643168 
L 78.50822 75.993092 
L 79.449813 76.374312 
L 83.475932 77.058726 
L 84.449993 77.470297 
L 85.878615 78.698908 
L 87.01502 79.418848 
L 88.50858 80.359244 
L 90.359296 81.520695 
L 91.26842 81.858243 
L 94.093197 82.844282 
L 95.943913 82.954508 
L 97.76216 83.127324 
L 99.158314 83.520608 
L 101.301249 83.964893 
L 104.288369 84.243933 
L 119.808408 85.441735 
L 130.52308 85.775393 
L 144.289809 85.969967 
L 166.563339 86.060243 
L 226.435624 86.031991 
L 398.487273 86.03793 
L 398.487273 86.03793 
" clip-path="url(#p2b9bf815ad)" style="fill: none; stroke: #ff0000; stroke-width: 1.5; stroke-linecap: square"/>
   </g>
   <g id="line2d_58">
    <path d="M 73.832727 285.242973 
L 75.715912 282.055696 
L 76.819848 280.018206 
L 77.858846 277.250345 
L 79.936843 269.240004 
L 81.105716 264.156809 
L 81.657684 262.448671 
L 84.060368 255.206034 
L 84.709742 252.725698 
L 85.651335 248.857889 
L 86.463052 246.282256 
L 87.209832 244.819702 
L 87.826738 244.07386 
L 88.735861 242.15069 
L 89.644985 239.325917 
L 91.203483 232.877499 
L 92.794449 226.015723 
L 93.443823 224.414739 
L 94.125666 223.307828 
L 94.742571 222.58756 
L 95.943913 221.709145 
L 96.690693 221.388386 
L 98.541409 220.677961 
L 101.398655 219.530613 
L 108.346957 217.553738 
L 110.165204 217.352806 
L 114.483541 217.219845 
L 123.50984 217.117965 
L 157.212353 217.098437 
L 398.487273 217.098423 
L 398.487273 217.098423 
" clip-path="url(#p2b9bf815ad)" style="fill: none; stroke: #ff0000; stroke-width: 1.5; stroke-linecap: square"/>
   </g>
   <g id="line2d_59">
    <path d="M 73.832727 267.550731 
L 76.787379 258.551384 
L 77.76144 256.210952 
L 77.988721 256.007124 
L 78.995251 255.371427 
L 79.677094 255.148191 
L 80.651155 254.86762 
L 81.203122 254.377042 
L 83.053838 251.159222 
L 83.800619 249.306281 
L 84.157774 247.972097 
L 85.099367 244.494285 
L 85.748741 242.777854 
L 87.7618 238.069297 
L 88.313768 236.434587 
L 89.709922 231.169484 
L 91.430763 224.772492 
L 92.112606 223.193971 
L 92.76198 222.321326 
L 93.671104 221.519207 
L 94.645165 220.937402 
L 95.814038 220.511844 
L 98.054379 219.964796 
L 98.801159 219.558573 
L 100.749281 218.235221 
L 101.723342 217.924375 
L 104.223432 217.458271 
L 106.463772 217.284388 
L 111.723702 217.176401 
L 152.27711 217.098492 
L 398.487273 217.098423 
L 398.487273 217.098423 
" clip-path="url(#p2b9bf815ad)" style="fill: none; stroke: #ff0000; stroke-width: 1.5; stroke-linecap: square"/>
   </g>
   <g id="line2d_60">
    <path d="M 73.832727 64.123902 
L 74.676914 65.676721 
L 76.235411 68.379979 
L 76.689973 68.888442 
L 77.956252 69.927465 
L 78.573158 70.354367 
L 80.26153 71.711489 
L 82.209652 72.967051 
L 83.962962 74.527407 
L 85.651335 76.080061 
L 87.729331 77.819306 
L 89.125486 78.750668 
L 90.196953 79.144576 
L 91.982731 79.359224 
L 92.437293 79.484857 
L 93.638635 80.066371 
L 95.456882 81.204798 
L 97.567348 82.268326 
L 98.411534 82.536333 
L 104.742931 83.976255 
L 108.379426 84.39615 
L 115.165384 84.98168 
L 119.613596 85.251166 
L 137.925944 85.781916 
L 154.614856 85.928047 
L 196.629356 86.011421 
L 367.966693 86.03809 
L 398.487273 86.038185 
L 398.487273 86.038185 
" clip-path="url(#p2b9bf815ad)" style="fill: none; stroke: #ff0000; stroke-width: 1.5; stroke-linecap: square"/>
   </g>
   <g id="line2d_61">
    <path d="M 73.832727 120.096973 
L 75.066538 121.314639 
L 75.553568 121.492496 
L 76.26788 121.31439 
L 77.079597 120.131043 
L 78.086127 118.27663 
L 78.735501 116.942103 
L 79.547219 116.003211 
L 81.073248 116.162145 
L 82.664214 117.793415 
L 83.086307 118.075255 
L 84.222712 118.262474 
L 84.77468 118.602846 
L 85.001961 118.554344 
L 85.488991 117.997543 
L 86.52799 116.781723 
L 88.054018 113.853357 
L 88.638455 112.428003 
L 89.742391 108.998916 
L 91.00867 105.791223 
L 91.658044 104.568773 
L 92.956792 102.698112 
L 96.495881 97.373307 
L 97.469942 96.423168 
L 99.02844 95.29875 
L 104.840337 91.817484 
L 106.820928 90.984906 
L 112.665294 88.348927 
L 115.165384 87.663192 
L 118.087567 87.100045 
L 121.659124 86.64704 
L 126.237211 86.303927 
L 132.178984 86.080253 
L 141.367626 85.967942 
L 168.414054 85.981432 
L 273.677584 86.035173 
L 398.487273 86.038151 
L 398.487273 86.038151 
" clip-path="url(#p2b9bf815ad)" style="fill: none; stroke: #ff0000; stroke-width: 1.5; stroke-linecap: square"/>
   </g>
   <g id="line2d_62">
    <path d="M 73.832727 178.364903 
L 74.222352 178.97941 
L 74.936663 180.249101 
L 75.423694 180.847238 
L 75.910724 181.230428 
L 76.073068 181.388594 
L 76.430223 181.872146 
L 76.884785 182.780349 
L 77.306878 183.512122 
L 77.76144 184.278919 
L 79.060188 187.171369 
L 79.709562 188.710917 
L 80.748561 191.878207 
L 81.852497 195.581059 
L 82.404464 197.83783 
L 84.0279 204.726257 
L 85.131835 209.283676 
L 85.878615 211.407769 
L 86.52799 212.980728 
L 87.079957 213.807076 
L 88.833267 216.179125 
L 89.709922 217.435682 
L 90.359296 217.95046 
L 90.846327 218.174283 
L 91.885325 218.116427 
L 93.216542 217.822501 
L 93.930853 217.485924 
L 94.710102 217.278834 
L 96.430943 217.075191 
L 100.327188 216.990957 
L 106.918334 217.019961 
L 122.048749 217.104677 
L 322.120887 217.098423 
L 398.487273 217.098423 
L 398.487273 217.098423 
" clip-path="url(#p2b9bf815ad)" style="fill: none; stroke: #ff0000; stroke-width: 1.5; stroke-linecap: square"/>
   </g>
   <g id="line2d_63">
    <path d="M 73.832727 295.386154 
L 74.189883 294.001286 
L 77.241941 280.905268 
L 78.50822 273.796076 
L 79.222532 270.748016 
L 80.748561 265.167746 
L 81.690153 261.648335 
L 82.76162 257.65211 
L 85.131835 246.194913 
L 86.138365 241.427493 
L 88.086487 233.095102 
L 89.02808 229.747512 
L 90.489171 224.804593 
L 91.333357 222.803593 
L 92.047669 221.533483 
L 92.697043 220.760165 
L 93.671104 219.924482 
L 96.00885 218.342518 
L 97.112786 217.898299 
L 97.794629 217.813265 
L 99.450533 217.604121 
L 102.502591 217.256475 
L 106.463772 217.10438 
L 126.52943 217.100204 
L 398.487273 217.098423 
L 398.487273 217.098423 
" clip-path="url(#p2b9bf815ad)" style="fill: none; stroke: #ff0000; stroke-width: 1.5; stroke-linecap: square"/>
   </g>
   <g id="line2d_64">
    <path d="M 73.832727 193.618743 
L 74.25482 193.848877 
L 75.196413 194.338166 
L 75.650975 194.170106 
L 76.300349 193.721183 
L 76.819848 193.530348 
L 77.404284 193.345545 
L 78.151065 193.322661 
L 78.475752 193.354165 
L 78.735501 193.545358 
L 79.839437 195.099265 
L 80.683623 196.521871 
L 83.703213 199.030265 
L 83.962962 199.050706 
L 84.872086 199.142278 
L 85.359116 199.577228 
L 86.073428 200.324259 
L 86.885145 201.174594 
L 87.437113 201.686781 
L 88.865736 203.178759 
L 89.287829 203.62806 
L 89.904734 204.525634 
L 91.430763 207.993817 
L 92.794449 210.945921 
L 93.963322 212.540415 
L 94.807508 213.37293 
L 96.041319 214.324623 
L 97.340067 215.007138 
L 100.327188 216.105521 
L 102.989621 216.570006 
L 106.26896 216.822842 
L 111.950983 217.051573 
L 122.957873 217.093113 
L 250.397526 217.098423 
L 398.487273 217.098423 
L 398.487273 217.098423 
" clip-path="url(#p2b9bf815ad)" style="fill: none; stroke: #ff0000; stroke-width: 1.5; stroke-linecap: square"/>
   </g>
   <g id="line2d_65">
    <path d="M 73.832727 54.606528 
L 75.099007 56.417489 
L 76.00813 57.710363 
L 77.923784 59.92183 
L 79.482281 61.879166 
L 81.040779 63.919848 
L 82.404464 66.606172 
L 83.995431 69.27886 
L 84.904554 70.518579 
L 85.294179 70.984202 
L 87.177364 73.156699 
L 89.02808 74.9708 
L 90.196953 75.872632 
L 91.690513 76.651141 
L 92.372356 76.943302 
L 93.184073 77.391785 
L 96.982911 80.036873 
L 101.106436 82.247818 
L 102.470122 82.788775 
L 104.450713 83.322045 
L 106.171554 83.594031 
L 112.665294 84.577467 
L 116.171914 84.96783 
L 121.52925 85.336472 
L 129.581488 85.631596 
L 142.991061 85.866295 
L 167.439993 85.975041 
L 245.397346 86.032195 
L 398.487273 86.038164 
L 398.487273 86.038164 
" clip-path="url(#p2b9bf815ad)" style="fill: none; stroke: #ff0000; stroke-width: 1.5; stroke-linecap: square"/>
   </g>
   <g id="line2d_66">
    <path d="M 73.832727 115.338412 
L 74.189883 115.496774 
L 74.77432 116.053288 
L 76.00813 118.077845 
L 76.527629 118.729174 
L 77.404284 119.638451 
L 78.248471 120.862798 
L 78.930313 122.323375 
L 79.449813 123.532408 
L 79.839437 124.232156 
L 80.326468 124.633707 
L 81.203122 124.447965 
L 81.787559 124.064333 
L 82.144715 123.536549 
L 82.794089 122.925585 
L 83.151245 122.44164 
L 83.670744 121.272276 
L 84.157774 120.265599 
L 84.417524 120.135407 
L 86.300709 119.5699 
L 87.502051 118.389767 
L 88.995611 116.438297 
L 90.099547 115.456598 
L 92.27495 114.03562 
L 93.50876 113.312425 
L 93.898385 112.6694 
L 95.294539 110.042002 
L 96.236131 107.817658 
L 97.859566 104.451311 
L 99.093377 102.351547 
L 101.625936 98.452353 
L 102.599997 97.353934 
L 104.02862 96.042315 
L 105.976742 94.702612 
L 108.5093 93.790296 
L 110.360016 92.891196 
L 111.723702 92.328607 
L 116.52907 90.811064 
L 122.633186 89.875209 
L 129.581488 89.040359 
L 137.568788 88.311508 
L 146.952243 87.685825 
L 158.28382 87.16156 
L 172.407705 86.740085 
L 189.421304 86.456499 
L 220.136696 86.222125 
L 270.495652 86.086735 
L 394.071529 86.040162 
L 398.487273 86.039955 
L 398.487273 86.039955 
" clip-path="url(#p2b9bf815ad)" style="fill: none; stroke: #ff0000; stroke-width: 1.5; stroke-linecap: square"/>
   </g>
   <g id="line2d_67">
    <path d="M 73.832727 234.032701 
L 75.196413 232.687449 
L 75.813318 232.8074 
L 77.047129 233.278257 
L 77.371816 233.137139 
L 78.670564 232.448332 
L 79.125126 231.975269 
L 79.806968 230.8071 
L 80.683623 228.537021 
L 84.872086 217.284162 
L 85.488991 216.838711 
L 86.138365 216.525361 
L 87.339707 216.70164 
L 88.573518 217.228752 
L 89.093017 217.755177 
L 89.807328 218.471229 
L 90.391765 218.788878 
L 91.26842 218.970318 
L 92.047669 218.861297 
L 93.573698 218.279135 
L 94.02826 218.16645 
L 96.398475 217.836143 
L 97.437473 217.669041 
L 99.872626 217.289432 
L 108.152145 216.984722 
L 117.340787 217.022053 
L 142.27675 217.093727 
L 338.8098 217.098423 
L 398.487273 217.098423 
L 398.487273 217.098423 
" clip-path="url(#p2b9bf815ad)" style="fill: none; stroke: #ff0000; stroke-width: 1.5; stroke-linecap: square"/>
   </g>
   <g id="line2d_68">
    <path d="M 73.832727 281.335069 
L 74.449633 278.971886 
L 75.5211 274.143676 
L 76.202942 270.94032 
L 77.436753 266.388488 
L 78.800439 262.374644 
L 79.742031 259.789336 
L 80.813498 256.909642 
L 81.690153 254.842187 
L 82.339527 253.169149 
L 82.826558 252.337457 
L 83.183713 251.579952 
L 84.190243 248.882852 
L 85.359116 245.212279 
L 86.560458 242.163475 
L 87.729331 239.456853 
L 88.573518 236.612815 
L 90.099547 230.429852 
L 91.171014 227.172288 
L 91.722982 226.03837 
L 92.567168 224.85407 
L 93.281479 224.304702 
L 94.060728 223.925883 
L 95.229602 223.381612 
L 95.814038 222.841727 
L 97.469942 220.969515 
L 98.573878 219.963637 
L 99.937563 219.199803 
L 101.041499 218.911303 
L 105.327368 217.989054 
L 107.243021 217.51173 
L 109.061268 217.308279 
L 113.119856 217.166234 
L 123.607247 217.108579 
L 221.110757 217.098423 
L 398.487273 217.098423 
L 398.487273 217.098423 
" clip-path="url(#p2b9bf815ad)" style="fill: none; stroke: #ff0000; stroke-width: 1.5; stroke-linecap: square"/>
   </g>
   <g id="line2d_69">
    <path d="M 73.832727 245.159261 
L 74.482101 245.721337 
L 74.611976 245.69743 
L 75.131475 245.508311 
L 77.112066 245.272479 
L 77.599097 244.663316 
L 78.280939 244.187482 
L 79.190063 244.063278 
L 79.449813 243.973424 
L 79.936843 243.679667 
L 81.26806 242.5488 
L 81.949903 242.049432 
L 83.313588 240.711573 
L 84.385055 239.203808 
L 85.52146 237.094617 
L 85.943553 236.25391 
L 86.398115 234.944602 
L 87.631925 230.683043 
L 89.807328 223.473876 
L 90.229421 222.861375 
L 90.878796 222.238601 
L 91.917794 221.519514 
L 93.249011 220.807157 
L 95.067258 219.945359 
L 96.658224 219.25953 
L 98.736221 218.702281 
L 102.827278 217.838504 
L 105.457242 217.492226 
L 111.983451 217.233676 
L 120.587657 217.134646 
L 144.419684 217.099641 
L 398.487273 217.098423 
L 398.487273 217.098423 
" clip-path="url(#p2b9bf815ad)" style="fill: none; stroke: #ff0000; stroke-width: 1.5; stroke-linecap: square"/>
   </g>
   <g id="line2d_70">
    <path d="M 73.832727 67.282397 
L 74.482101 68.151187 
L 76.202942 70.118924 
L 78.638095 71.449799 
L 79.871906 71.999059 
L 80.683623 72.348233 
L 82.112246 73.223318 
L 83.573338 74.193272 
L 84.385055 74.706537 
L 86.365646 76.647203 
L 87.891675 78.021652 
L 92.437293 81.245101 
L 94.190603 81.862986 
L 95.943913 82.121885 
L 97.827098 82.359086 
L 99.158314 82.715188 
L 101.301249 83.390052 
L 102.632465 83.596952 
L 107.27549 84.056768 
L 118.736941 85.218266 
L 126.399555 85.554651 
L 136.497321 85.76157 
L 155.686324 85.914646 
L 199.421664 86.005141 
L 363.583419 86.037858 
L 398.487273 86.038099 
L 398.487273 86.038099 
" clip-path="url(#p2b9bf815ad)" style="fill: none; stroke: #ff0000; stroke-width: 1.5; stroke-linecap: square"/>
   </g>
   <g id="line2d_71">
    <path d="M 73.832727 281.041286 
L 77.306878 275.237606 
L 78.053658 274.16704 
L 78.540689 273.055321 
L 79.319938 270.76939 
L 81.430403 263.242015 
L 82.112246 261.542683 
L 83.02137 259.967853 
L 83.670744 258.476247 
L 84.547399 254.741723 
L 85.651335 247.655892 
L 86.592927 241.9401 
L 89.093017 230.016022 
L 89.709922 227.838489 
L 90.878796 223.987656 
L 91.560638 222.377492 
L 92.112606 221.620837 
L 92.76198 221.171537 
L 93.606166 220.872531 
L 95.781569 220.140761 
L 96.788099 219.489138 
L 98.476472 218.52845 
L 99.580407 218.311301 
L 102.697403 217.931335 
L 105.652055 217.369824 
L 108.346957 217.217858 
L 112.730232 217.10513 
L 127.243741 217.092712 
L 264.975973 217.098423 
L 398.487273 217.098423 
L 398.487273 217.098423 
" clip-path="url(#p2b9bf815ad)" style="fill: none; stroke: #ff0000; stroke-width: 1.5; stroke-linecap: square"/>
   </g>
   <g id="line2d_72">
    <path d="M 73.832727 254.913489 
L 74.319758 253.509926 
L 76.722442 246.814966 
L 76.982191 246.525096 
L 77.501691 246.179422 
L 77.923784 246.091706 
L 78.313408 246.455513 
L 79.319938 246.988264 
L 79.839437 247.07998 
L 81.105716 246.750254 
L 81.657684 246.590472 
L 82.079777 246.497514 
L 82.469402 246.593253 
L 83.216182 246.335546 
L 84.190243 245.855807 
L 85.488991 243.63247 
L 86.463052 240.754527 
L 87.307238 237.70942 
L 90.586577 225.114362 
L 91.235951 223.832241 
L 91.722982 223.283397 
L 92.826918 222.647425 
L 93.703573 222.398213 
L 94.25554 222.251207 
L 95.26207 221.746112 
L 95.976382 221.251076 
L 98.476472 219.128994 
L 99.353127 218.63131 
L 100.716812 218.241929 
L 105.197493 217.416728 
L 108.444363 217.267134 
L 117.308318 217.149242 
L 137.471382 217.100412 
L 398.487273 217.098423 
L 398.487273 217.098423 
" clip-path="url(#p2b9bf815ad)" style="fill: none; stroke: #ff0000; stroke-width: 1.5; stroke-linecap: square"/>
   </g>
   <g id="line2d_73">
    <path d="M 73.832727 62.677167 
L 75.034069 63.611656 
L 75.683443 64.655989 
L 76.527629 66.281893 
L 77.01466 67.066596 
L 77.956252 68.3151 
L 78.670564 68.81366 
L 79.709562 69.513979 
L 81.040779 70.44952 
L 83.183713 71.472914 
L 84.612336 72.722232 
L 85.52146 73.761497 
L 87.599457 76.062667 
L 91.138545 79.384506 
L 92.210012 79.912681 
L 99.580407 83.365589 
L 101.658404 84.000388 
L 104.613056 84.508409 
L 108.184613 84.68105 
L 115.197853 85.027529 
L 121.301969 85.411442 
L 129.386675 85.682619 
L 142.211812 85.865296 
L 168.478992 85.975122 
L 251.501461 86.032936 
L 398.487273 86.038171 
L 398.487273 86.038171 
" clip-path="url(#p2b9bf815ad)" style="fill: none; stroke: #ff0000; stroke-width: 1.5; stroke-linecap: square"/>
   </g>
   <g id="line2d_74">
    <path d="M 73.832727 120.469199 
L 74.51457 121.157583 
L 75.488631 122.447203 
L 76.00813 122.673745 
L 76.235411 122.783198 
L 77.241941 123.211904 
L 77.469222 123.030312 
L 78.280939 122.739105 
L 78.638095 122.8889 
L 79.027719 122.946555 
L 79.547219 122.854451 
L 80.423874 123.483173 
L 81.52781 124.352666 
L 82.404464 125.369464 
L 82.729151 125.682488 
L 83.151245 125.617702 
L 83.5084 125.546494 
L 84.060368 124.951148 
L 84.742211 123.517556 
L 86.560458 119.906905 
L 88.443643 116.46659 
L 90.359296 110.674212 
L 92.339887 108.382859 
L 93.119136 106.757754 
L 93.963322 105.185695 
L 95.067258 103.674598 
L 96.723162 101.603237 
L 98.573878 98.877013 
L 100.26225 96.876986 
L 101.560998 95.634708 
L 103.379246 94.140908 
L 104.483181 93.646105 
L 106.041679 93.398844 
L 106.755991 93.215028 
L 116.204383 90.66872 
L 118.866816 89.832799 
L 123.217622 88.788029 
L 127.795709 88.006229 
L 132.406265 87.394552 
L 137.925944 86.895327 
L 144.77684 86.508518 
L 153.868076 86.231195 
L 167.27765 86.064572 
L 192.992861 86.007799 
L 398.487273 86.038021 
L 398.487273 86.038021 
" clip-path="url(#p2b9bf815ad)" style="fill: none; stroke: #ff0000; stroke-width: 1.5; stroke-linecap: square"/>
   </g>
   <g id="line2d_75">
    <path d="M 73.832727 293.84476 
L 74.871726 290.750074 
L 75.293819 289.576912 
L 76.495161 286.665265 
L 77.306878 285.162319 
L 78.735501 282.5209 
L 79.092657 281.456037 
L 80.001781 277.880729 
L 81.722622 268.993096 
L 82.729151 265.205432 
L 83.573338 262.423473 
L 85.034429 254.321109 
L 86.787739 243.257126 
L 87.566988 238.605619 
L 88.281299 234.990937 
L 88.995611 232.417563 
L 90.034609 229.693302 
L 91.820388 225.018317 
L 92.76198 223.290963 
L 93.800979 221.856594 
L 94.77504 220.657456 
L 96.00885 219.554359 
L 96.885505 219.111857 
L 97.599817 218.781492 
L 100.197313 217.690622 
L 101.658404 217.523198 
L 108.5093 217.098649 
L 115.944633 217.128553 
L 198.512541 217.098424 
L 398.487273 217.098423 
L 398.487273 217.098423 
" clip-path="url(#p2b9bf815ad)" style="fill: none; stroke: #ff0000; stroke-width: 1.5; stroke-linecap: square"/>
   </g>
   <g id="line2d_76">
    <path d="M 73.832727 234.398086 
L 75.26135 236.581094 
L 75.5211 236.627351 
L 75.943193 236.62375 
L 76.625036 237.375266 
L 77.728971 238.844241 
L 78.573158 239.250836 
L 79.125126 239.387462 
L 79.677094 239.479044 
L 80.196593 239.311338 
L 80.651155 239.350085 
L 81.040779 239.431007 
L 81.722622 239.374994 
L 82.079777 239.240361 
L 82.696683 238.961013 
L 83.378525 238.433656 
L 84.222712 237.198669 
L 85.456522 234.835478 
L 86.398115 233.883648 
L 87.079957 233.646696 
L 87.7618 232.989427 
L 88.573518 231.851466 
L 89.222892 230.604665 
L 90.52164 228.021329 
L 91.560638 225.72401 
L 94.417884 220.731905 
L 95.034789 220.112473 
L 96.366006 219.201578 
L 98.086847 218.556472 
L 101.041499 217.573448 
L 104.223432 217.250214 
L 107.600177 217.257741 
L 173.479172 217.098441 
L 398.487273 217.098423 
L 398.487273 217.098423 
" clip-path="url(#p2b9bf815ad)" style="fill: none; stroke: #ff0000; stroke-width: 1.5; stroke-linecap: square"/>
   </g>
   <g id="line2d_77">
    <path d="M 73.832727 263.931495 
L 74.969132 263.379453 
L 75.553568 262.47898 
L 77.306878 259.446862 
L 77.696503 258.685257 
L 78.703032 255.94728 
L 80.391405 250.919497 
L 80.975842 249.780216 
L 82.047309 248.60065 
L 82.27459 248.498381 
L 83.475932 247.915632 
L 83.800619 247.315021 
L 84.969492 244.080343 
L 86.463052 239.545876 
L 86.885145 238.718295 
L 87.859206 236.664306 
L 89.937203 231.817605 
L 90.813858 230.22475 
L 91.560638 228.909749 
L 92.210012 227.327365 
L 93.378886 224.636224 
L 94.547759 222.368898 
L 95.456882 221.215891 
L 96.75563 220.118044 
L 98.963502 218.860378 
L 100.586937 218.139051 
L 102.307778 217.654888 
L 104.158494 217.377265 
L 107.567708 217.153461 
L 111.756171 217.166558 
L 172.147955 217.098454 
L 398.487273 217.098423 
L 398.487273 217.098423 
" clip-path="url(#p2b9bf815ad)" style="fill: none; stroke: #ff0000; stroke-width: 1.5; stroke-linecap: square"/>
   </g>
   <g id="line2d_78">
    <path d="M 73.832727 153.351344 
L 77.112066 163.92414 
L 80.586217 174.606602 
L 82.534339 181.201979 
L 83.248651 184.589664 
L 83.800619 187.742654 
L 84.222712 191.230066 
L 85.229241 199.834489 
L 85.911084 203.928901 
L 86.365646 205.286474 
L 86.917614 206.190883 
L 88.833267 207.694763 
L 89.190423 207.969564 
L 90.002141 208.910947 
L 91.333357 210.817807 
L 92.924324 212.960927 
L 93.833447 213.580086 
L 94.482821 213.799692 
L 95.391945 213.85709 
L 96.333537 213.952891 
L 97.307598 214.357554 
L 98.086847 214.943704 
L 99.125846 215.60088 
L 99.840157 215.859119 
L 100.976562 216.041575 
L 110.911984 216.938676 
L 118.931754 217.07414 
L 143.413154 217.099307 
L 398.487273 217.098423 
L 398.487273 217.098423 
" clip-path="url(#p2b9bf815ad)" style="fill: none; stroke: #ff0000; stroke-width: 1.5; stroke-linecap: square"/>
   </g>
   <g id="line2d_79">
    <path d="M 73.832727 146.368176 
L 73.962602 146.285091 
L 75.586037 145.230033 
L 76.332817 144.994042 
L 76.884785 145.321617 
L 77.956252 146.196002 
L 78.345877 146.975489 
L 79.644625 150.567848 
L 81.040779 152.473914 
L 81.397935 152.735799 
L 81.820028 153.030982 
L 82.76162 154.252732 
L 83.573338 155.140215 
L 84.222712 156.303395 
L 84.742211 157.873005 
L 85.553928 161.436087 
L 86.26824 166.555063 
L 87.079957 173.595246 
L 88.638455 188.601092 
L 89.450173 193.302723 
L 90.846327 198.991007 
L 92.859386 204.350374 
L 95.034789 210.368665 
L 95.684163 211.831929 
L 96.430943 213.060334 
L 97.145255 213.764237 
L 98.638815 214.854375 
L 99.905095 215.468852 
L 101.106436 215.799283 
L 103.996151 216.305596 
L 107.567708 216.518406 
L 119.938283 217.042439 
L 140.750721 217.096065 
L 398.487273 217.098423 
L 398.487273 217.098423 
" clip-path="url(#p2b9bf815ad)" style="fill: none; stroke: #ff0000; stroke-width: 1.5; stroke-linecap: square"/>
   </g>
   <g id="line2d_80">
    <path d="M 73.832727 120.151655 
L 74.579507 121.389761 
L 77.27441 125.657576 
L 79.125126 128.969443 
L 80.456342 130.703723 
L 82.307058 136.023727 
L 83.313588 137.550263 
L 84.287649 139.35357 
L 86.105896 142.439181 
L 87.177364 143.863786 
L 89.125486 146.938442 
L 90.586577 148.616777 
L 91.52817 151.230829 
L 92.404824 153.967896 
L 92.891855 156.270887 
L 95.943913 180.626709 
L 97.827098 198.195069 
L 98.573878 202.829901 
L 99.25572 205.520764 
L 100.034969 207.504946 
L 100.879156 208.845901 
L 101.52853 209.427222 
L 102.567528 210.353686 
L 103.411714 211.435187 
L 104.807868 213.314361 
L 105.879336 214.29387 
L 107.080678 215.087834 
L 108.249551 215.608156 
L 109.645705 215.969371 
L 112.243201 216.339247 
L 114.938103 216.583135 
L 121.301969 216.939056 
L 129.451613 217.071875 
L 152.049829 217.097998 
L 398.487273 217.098423 
L 398.487273 217.098423 
" clip-path="url(#p2b9bf815ad)" style="fill: none; stroke: #ff0000; stroke-width: 1.5; stroke-linecap: square"/>
   </g>
   <g id="line2d_81">
    <path d="M 73.832727 193.571571 
L 74.222352 193.86227 
L 74.839257 194.224265 
L 75.228881 194.238703 
L 76.300349 194.20191 
L 76.75491 194.201583 
L 77.826378 193.920304 
L 78.280939 194.067315 
L 78.897845 194.842855 
L 79.742031 196.593959 
L 80.26153 197.456886 
L 81.52781 201.486051 
L 82.404464 202.882314 
L 82.923964 203.307834 
L 83.800619 203.125008 
L 84.51493 203.741454 
L 85.586397 204.742204 
L 86.690333 205.467725 
L 87.079957 206.096957 
L 90.034609 213.551895 
L 90.878796 214.855695 
L 91.463232 215.286369 
L 92.307418 215.644137 
L 92.697043 215.667762 
L 93.606166 215.57469 
L 95.456882 215.655134 
L 96.853037 215.984997 
L 98.476472 216.410802 
L 100.067438 216.625532 
L 104.093557 216.884208 
L 106.626116 217.077181 
L 112.145795 217.137445 
L 170.329708 217.098442 
L 398.487273 217.098423 
L 398.487273 217.098423 
" clip-path="url(#p2b9bf815ad)" style="fill: none; stroke: #ff0000; stroke-width: 1.5; stroke-linecap: square"/>
   </g>
   <g id="line2d_82">
    <path d="M 73.832727 157.197896 
L 75.5211 160.177891 
L 76.332817 160.394966 
L 76.495161 160.373548 
L 77.01466 160.316118 
L 77.469222 160.362853 
L 78.02119 160.583139 
L 78.76797 161.471709 
L 79.157594 162.132005 
L 79.51475 162.967545 
L 79.871906 164.320716 
L 80.975842 168.600316 
L 82.112246 170.6193 
L 82.307058 171.0279 
L 83.118776 173.768663 
L 84.190243 178.898053 
L 84.547399 181.261306 
L 85.326648 188.37622 
L 86.398115 197.609802 
L 86.885145 199.776484 
L 87.859206 202.066557 
L 88.605986 203.403589 
L 89.385235 204.526038 
L 90.651515 206.12118 
L 91.593107 207.192559 
L 91.982731 207.844492 
L 92.632105 209.256835 
L 94.51529 213.124243 
L 95.132195 213.753383 
L 96.00885 214.224457 
L 98.606346 215.19676 
L 100.002501 215.823565 
L 102.242841 216.538189 
L 103.574058 216.744339 
L 106.301429 216.986689 
L 112.113326 217.136296 
L 131.26986 217.09984 
L 398.487273 217.098423 
L 398.487273 217.098423 
" clip-path="url(#p2b9bf815ad)" style="fill: none; stroke: #ff0000; stroke-width: 1.5; stroke-linecap: square"/>
   </g>
   <g id="line2d_83">
    <path d="M 73.832727 219.851627 
L 74.222352 220.299108 
L 74.51457 220.667015 
L 74.741851 220.932439 
L 76.138005 223.065825 
L 76.884785 224.221304 
L 77.339347 224.455055 
L 78.118596 224.483256 
L 78.670564 224.203819 
L 79.871906 223.046305 
L 80.26153 222.183327 
L 80.716092 221.236694 
L 81.235591 220.539635 
L 82.079777 220.152408 
L 82.696683 220.604049 
L 83.443463 221.772723 
L 83.865556 222.307709 
L 84.449993 222.923882 
L 86.073428 224.937511 
L 86.495521 225.66696 
L 87.469582 226.926068 
L 87.891675 227.137766 
L 88.281299 227.101348 
L 88.898205 226.730639 
L 89.417704 226.03947 
L 90.911264 223.688267 
L 91.625576 222.994446 
L 92.210012 222.637267 
L 93.541229 221.869821 
L 94.807508 220.747259 
L 95.684163 220.037274 
L 96.52835 219.517437 
L 97.599817 219.078798 
L 99.418064 218.431839 
L 101.073968 217.831333 
L 102.470122 217.585981 
L 104.742931 217.284823 
L 107.243021 217.181929 
L 138.477912 217.097406 
L 398.487273 217.098423 
L 398.487273 217.098423 
" clip-path="url(#p2b9bf815ad)" style="fill: none; stroke: #ff0000; stroke-width: 1.5; stroke-linecap: square"/>
   </g>
   <g id="line2d_84">
    <path d="M 73.832727 263.645725 
L 74.417164 262.388224 
L 74.806788 261.143845 
L 75.715912 258.32877 
L 76.397755 256.643652 
L 77.664034 253.95627 
L 78.540689 251.340009 
L 79.449813 248.714926 
L 80.099187 246.840397 
L 80.878435 244.970369 
L 81.625216 243.136969 
L 82.27459 240.384001 
L 83.216182 235.962232 
L 84.51493 231.755475 
L 85.099367 230.598015 
L 85.976022 228.878257 
L 89.190423 221.025312 
L 89.77486 220.258879 
L 93.638635 218.51333 
L 94.807508 217.786718 
L 96.00885 217.354992 
L 97.372536 217.079484 
L 98.216722 217.085513 
L 100.489531 217.2121 
L 109.223612 217.13599 
L 117.535599 217.102588 
L 173.576578 217.098402 
L 398.487273 217.098423 
L 398.487273 217.098423 
" clip-path="url(#p2b9bf815ad)" style="fill: none; stroke: #ff0000; stroke-width: 1.5; stroke-linecap: square"/>
   </g>
   <g id="line2d_85">
    <path d="M 73.832727 174.483635 
L 74.222352 174.595735 
L 75.5211 176.216189 
L 75.780849 176.313029 
L 76.073068 176.567427 
L 77.728971 178.378112 
L 78.703032 179.36543 
L 79.287469 180.650461 
L 79.612156 181.543707 
L 81.00831 186.096735 
L 81.397935 187.23113 
L 82.112246 188.785239 
L 82.923964 189.628214 
L 83.248651 189.950302 
L 83.605806 190.612666 
L 84.742211 195.550597 
L 85.456522 198.854635 
L 85.846147 200.036647 
L 86.52799 201.35052 
L 87.079957 202.314774 
L 88.281299 204.779029 
L 89.51511 208.708658 
L 90.229421 210.667399 
L 90.911264 211.958512 
L 91.625576 213.025613 
L 92.567168 214.025592 
L 94.190603 215.46358 
L 95.294539 216.230803 
L 95.976382 216.490348 
L 97.437473 216.699775 
L 98.866096 216.73929 
L 100.327188 216.785104 
L 104.613056 217.164015 
L 107.957332 217.168051 
L 113.866636 217.085058 
L 288.515781 217.098423 
L 398.487273 217.098423 
L 398.487273 217.098423 
" clip-path="url(#p2b9bf815ad)" style="fill: none; stroke: #ff0000; stroke-width: 1.5; stroke-linecap: square"/>
   </g>
   <g id="patch_3">
    <path d="M 57.6 307.584 
L 57.6 41.472 
" style="fill: none; stroke: #000000; stroke-width: 0.8; stroke-linejoin: miter; stroke-linecap: square"/>
   </g>
   <g id="patch_4">
    <path d="M 414.72 307.584 
L 414.72 41.472 
" style="fill: none; stroke: #000000; stroke-width: 0.8; stroke-linejoin: miter; stroke-linecap: square"/>
   </g>
   <g id="patch_5">
    <path d="M 57.6 307.584 
L 414.72 307.584 
" style="fill: none; stroke: #000000; stroke-width: 0.8; stroke-linejoin: miter; stroke-linecap: square"/>
   </g>
   <g id="patch_6">
    <path d="M 57.6 41.472 
L 414.72 41.472 
" style="fill: none; stroke: #000000; stroke-width: 0.8; stroke-linejoin: miter; stroke-linecap: square"/>
   </g>
   <g id="text_18">
    <!-- Opinion Over Time -->
    <g transform="translate(180.090937 35.472) scale(0.12 -0.12)">
     <defs>
      <path id="DejaVuSans-20" transform="scale(0.015625)"/>
      <path id="DejaVuSans-76" d="M 191 3500 
L 800 3500 
L 1894 563 
L 2988 3500 
L 3597 3500 
L 2284 0 
L 1503 0 
L 191 3500 
z
" transform="scale(0.015625)"/>
      <path id="DejaVuSans-72" d="M 2631 2963 
Q 2534 3019 2420 3045 
Q 2306 3072 2169 3072 
Q 1681 3072 1420 2755 
Q 1159 2438 1159 1844 
L 1159 0 
L 581 0 
L 581 3500 
L 1159 3500 
L 1159 2956 
Q 1341 3275 1631 3429 
Q 1922 3584 2338 3584 
Q 2397 3584 2469 3576 
Q 2541 3569 2628 3553 
L 2631 2963 
z
" transform="scale(0.015625)"/>
      <path id="DejaVuSans-54" d="M -19 4666 
L 3928 4666 
L 3928 4134 
L 2272 4134 
L 2272 0 
L 1638 0 
L 1638 4134 
L -19 4134 
L -19 4666 
z
" transform="scale(0.015625)"/>
      <path id="DejaVuSans-6d" d="M 3328 2828 
Q 3544 3216 3844 3400 
Q 4144 3584 4550 3584 
Q 5097 3584 5394 3201 
Q 5691 2819 5691 2113 
L 5691 0 
L 5113 0 
L 5113 2094 
Q 5113 2597 4934 2840 
Q 4756 3084 4391 3084 
Q 3944 3084 3684 2787 
Q 3425 2491 3425 1978 
L 3425 0 
L 2847 0 
L 2847 2094 
Q 2847 2600 2669 2842 
Q 2491 3084 2119 3084 
Q 1678 3084 1418 2786 
Q 1159 2488 1159 1978 
L 1159 0 
L 581 0 
L 581 3500 
L 1159 3500 
L 1159 2956 
Q 1356 3278 1631 3431 
Q 1906 3584 2284 3584 
Q 2666 3584 2933 3390 
Q 3200 3197 3328 2828 
z
" transform="scale(0.015625)"/>
     </defs>
     <use xlink:href="#DejaVuSans-4f"/>
     <use xlink:href="#DejaVuSans-70" x="78.710938"/>
     <use xlink:href="#DejaVuSans-69" x="142.1875"/>
     <use xlink:href="#DejaVuSans-6e" x="169.970703"/>
     <use xlink:href="#DejaVuSans-69" x="233.349609"/>
     <use xlink:href="#DejaVuSans-6f" x="261.132812"/>
     <use xlink:href="#DejaVuSans-6e" x="322.314453"/>
     <use xlink:href="#DejaVuSans-20" x="385.693359"/>
     <use xlink:href="#DejaVuSans-4f" x="417.480469"/>
     <use xlink:href="#DejaVuSans-76" x="496.191406"/>
     <use xlink:href="#DejaVuSans-65" x="555.371094"/>
     <use xlink:href="#DejaVuSans-72" x="616.894531"/>
     <use xlink:href="#DejaVuSans-20" x="658.007812"/>
     <use xlink:href="#DejaVuSans-54" x="689.794922"/>
     <use xlink:href="#DejaVuSans-69" x="747.753906"/>
     <use xlink:href="#DejaVuSans-6d" x="775.537109"/>
     <use xlink:href="#DejaVuSans-65" x="872.949219"/>
    </g>
   </g>
  </g>
 </g>
 <defs>
  <clipPath id="p2b9bf815ad">
   <rect x="57.6" y="41.472" width="357.12" height="266.112"/>
  </clipPath>
 </defs>
</svg>
