<?xml version="1.0" encoding="utf-8" standalone="no"?>
<!DOCTYPE svg PUBLIC "-//W3C//DTD SVG 1.1//EN"
  "http://www.w3.org/Graphics/SVG/1.1/DTD/svg11.dtd">
<svg xmlns:xlink="http://www.w3.org/1999/xlink" width="460.8pt" height="345.6pt" viewBox="0 0 460.8 345.6" xmlns="http://www.w3.org/2000/svg" version="1.1">
 <metadata>
  <rdf:RDF xmlns:dc="http://purl.org/dc/elements/1.1/" xmlns:cc="http://creativecommons.org/ns#" xmlns:rdf="http://www.w3.org/1999/02/22-rdf-syntax-ns#">
   <cc:Work>
    <dc:type rdf:resource="http://purl.org/dc/dcmitype/StillImage"/>
    <dc:date>2025-02-27T11:41:46.274892</dc:date>
    <dc:format>image/svg+xml</dc:format>
    <dc:creator>
     <cc:Agent>
      <dc:title>Matplotlib v3.6.3, https://matplotlib.org/</dc:title>
     </cc:Agent>
    </dc:creator>
   </cc:Work>
  </rdf:RDF>
 </metadata>
 <defs>
  <style type="text/css">*{stroke-linejoin: round; stroke-linecap: butt}</style>
 </defs>
 <g id="figure_1">
  <g id="patch_1">
   <path d="M 0 345.6 
L 460.8 345.6 
L 460.8 0 
L 0 0 
z
" style="fill: #ffffff"/>
  </g>
  <g id="axes_1">
   <g id="patch_2">
    <path d="M 57.6 307.584 
L 414.72 307.584 
L 414.72 41.472 
L 57.6 41.472 
z
" style="fill: #ffffff"/>
   </g>
   <g id="Quiver_1">
    <path d="M 220.648686 242.319 
L 226.528579 236.439403 
L 223.812208 235.53387 
L 235.583406 229.195915 
L 229.244858 240.966794 
L 228.339462 238.250378 
L 222.459569 244.129975 
L 220.648686 242.319 
" clip-path="url(#p14cd36f19b)"/>
    <path d="M 230.415861 154.956596 
L 236.294513 149.077456 
L 233.578082 148.172104 
L 245.348856 141.833363 
L 239.011094 153.604665 
L 238.105517 150.888309 
L 232.226866 156.76745 
L 230.415861 154.956596 
" clip-path="url(#p14cd36f19b)"/>
    <path d="M 192.167532 160.372765 
L 198.04694 154.492812 
L 195.330505 153.587473 
L 207.101249 147.248677 
L 200.763543 159.020008 
L 199.857953 156.303657 
L 193.978545 162.18361 
L 192.167532 160.372765 
" clip-path="url(#p14cd36f19b)"/>
    <path d="M 263.406774 161.752065 
L 269.285487 155.87285 
L 266.569055 154.967502 
L 278.339822 148.628748 
L 272.002074 160.400057 
L 271.096493 157.683702 
L 265.217781 163.562917 
L 263.406774 161.752065 
" clip-path="url(#p14cd36f19b)"/>
    <path d="M 298.792014 141.200472 
L 304.671388 135.321101 
L 301.954994 134.415636 
L 313.726034 128.077387 
L 307.38778 139.848424 
L 306.482316 137.13203 
L 300.602942 143.011401 
L 298.792014 141.200472 
" clip-path="url(#p14cd36f19b)"/>
    <path d="M 265.186527 128.280046 
L 271.06606 122.400676 
L 268.349679 121.495174 
L 280.120805 115.157086 
L 273.782391 126.928036 
L 272.876964 124.21163 
L 266.997431 130.091 
L 265.186527 128.280046 
" clip-path="url(#p14cd36f19b)"/>
    <path d="M 297.798639 203.447645 
L 303.678194 197.56777 
L 300.961776 196.66238 
L 312.732642 190.323809 
L 306.39471 202.095019 
L 305.489172 199.37865 
L 299.609617 205.258524 
L 297.798639 203.447645 
" clip-path="url(#p14cd36f19b)"/>
    <path d="M 296.970779 77.96464 
L 302.850791 72.084965 
L 300.134423 71.179423 
L 311.905643 64.841509 
L 305.567054 76.612365 
L 304.661668 73.895946 
L 298.781656 79.775621 
L 296.970779 77.96464 
" clip-path="url(#p14cd36f19b)"/>
    <path d="M 153.052644 249.976856 
L 158.93235 244.097428 
L 156.215978 243.1919 
L 167.987167 236.853927 
L 161.648636 248.624815 
L 160.743236 245.9084 
L 154.86353 251.787827 
L 153.052644 249.976856 
" clip-path="url(#p14cd36f19b)"/>
    <path d="M 158.475142 142.672293 
L 164.354534 136.792485 
L 161.638109 135.887117 
L 173.408923 129.54845 
L 167.071087 141.319711 
L 166.165527 138.60335 
L 160.286135 144.483158 
L 158.475142 142.672293 
" clip-path="url(#p14cd36f19b)"/>
    <path d="M 237.83204 211.090863 
L 243.711325 205.211278 
L 240.994908 204.305883 
L 252.765784 197.96733 
L 246.427834 209.73853 
L 245.5223 207.02216 
L 239.643015 212.901746 
L 237.83204 211.090863 
" clip-path="url(#p14cd36f19b)"/>
    <path d="M 259.112403 241.417945 
L 264.992608 235.537602 
L 262.276204 234.632169 
L 274.047167 228.29378 
L 267.709054 240.064893 
L 266.803558 237.34851 
L 260.923353 243.228852 
L 259.112403 241.417945 
" clip-path="url(#p14cd36f19b)"/>
    <path d="M 215.925573 185.025307 
L 221.804062 179.146401 
L 219.087636 178.241033 
L 230.858449 171.902364 
L 224.520616 183.673627 
L 223.615055 180.957265 
L 217.736566 186.836172 
L 215.925573 185.025307 
" clip-path="url(#p14cd36f19b)"/>
    <path d="M 148.281895 102.361679 
L 154.16215 96.48139 
L 151.445754 95.575934 
L 163.216774 89.237649 
L 156.878556 101.008705 
L 155.973084 98.292314 
L 150.092829 104.172603 
L 148.281895 102.361679 
" clip-path="url(#p14cd36f19b)"/>
    <path d="M 292.342237 268.691424 
L 298.222808 262.810953 
L 295.506423 261.905466 
L 307.277515 255.567315 
L 300.939163 267.338299 
L 300.033722 264.621898 
L 294.153151 270.502368 
L 292.342237 268.691424 
" clip-path="url(#p14cd36f19b)"/>
    <path d="M 325.487923 106.872343 
L 331.367709 100.992826 
L 328.651337 100.0873 
L 340.42252 93.749318 
L 334.083999 105.520211 
L 333.178597 102.803797 
L 327.298811 108.683313 
L 325.487923 106.872343 
" clip-path="url(#p14cd36f19b)"/>
    <path d="M 220.582096 85.243498 
L 226.462522 79.363551 
L 223.746165 78.457976 
L 235.517461 72.120204 
L 229.178731 83.890984 
L 228.273377 81.174554 
L 222.392951 87.054501 
L 220.582096 85.243498 
" clip-path="url(#p14cd36f19b)"/>
    <path d="M 197.99741 214.182936 
L 203.876317 208.304177 
L 201.159935 207.398678 
L 212.931053 201.060575 
L 206.592654 212.831533 
L 205.687224 210.115129 
L 199.808317 215.993888 
L 197.99741 214.182936 
" clip-path="url(#p14cd36f19b)"/>
    <path d="M 231.313079 121.444283 
L 237.192767 115.564831 
L 234.476392 114.659312 
L 246.247557 108.321297 
L 239.909069 120.092208 
L 239.003659 117.375796 
L 233.123971 123.255248 
L 231.313079 121.444283 
" clip-path="url(#p14cd36f19b)"/>
    <path d="M 259.038235 91.682741 
L 264.918278 85.803173 
L 262.201921 84.897599 
L 273.973215 78.559824 
L 267.634488 90.330605 
L 266.729133 87.614176 
L 260.84909 93.493743 
L 259.038235 91.682741 
" clip-path="url(#p14cd36f19b)"/>
    <path d="M 260.191329 195.795692 
L 266.07049 189.915853 
L 263.354044 189.010545 
L 275.124717 182.671616 
L 268.787144 194.443019 
L 267.881523 191.726678 
L 262.002362 197.606517 
L 260.191329 195.795692 
" clip-path="url(#p14cd36f19b)"/>
    <path d="M 253.407015 270.311161 
L 259.288095 264.430662 
L 256.571746 263.525063 
L 268.343098 257.187393 
L 262.004265 268.958118 
L 261.098935 266.24168 
L 255.217855 272.122179 
L 253.407015 270.311161 
" clip-path="url(#p14cd36f19b)"/>
    <path d="M 290.362281 110.543612 
L 296.242066 104.664098 
L 293.525694 103.758571 
L 305.296878 97.420591 
L 298.958355 109.191483 
L 298.052953 106.475069 
L 292.173168 112.354583 
L 290.362281 110.543612 
" clip-path="url(#p14cd36f19b)"/>
    <path d="M 269.550329 291.408418 
L 275.430922 285.528198 
L 272.714557 284.622648 
L 284.485796 278.284769 
L 278.147172 290.055607 
L 277.241793 287.339184 
L 271.361201 293.219404 
L 269.550329 291.408418 
" clip-path="url(#p14cd36f19b)"/>
    <path d="M 167.754061 72.846672 
L 173.63437 66.966376 
L 170.917978 66.060908 
L 182.689023 59.722671 
L 176.350759 71.493702 
L 175.445297 68.777307 
L 169.564988 74.657603 
L 167.754061 72.846672 
" clip-path="url(#p14cd36f19b)"/>
    <path d="M 179.228999 109.157965 
L 185.109675 103.276909 
L 182.393252 102.371532 
L 194.164086 96.032902 
L 187.826214 107.804144 
L 186.920662 105.08778 
L 181.039986 110.968835 
L 179.228999 109.157965 
" clip-path="url(#p14cd36f19b)"/>
    <path d="M 243.421076 294.582506 
L 249.301519 288.702444 
L 246.585154 287.796892 
L 258.356398 281.459022 
L 252.017765 293.229855 
L 251.112389 290.513432 
L 245.231946 296.393494 
L 243.421076 294.582506 
" clip-path="url(#p14cd36f19b)"/>
    <path d="M 206.770133 136.237253 
L 212.649455 130.357134 
L 209.933001 129.451854 
L 221.703609 123.112805 
L 215.366156 134.884272 
L 214.460507 132.16794 
L 208.581185 138.048059 
L 206.770133 136.237253 
" clip-path="url(#p14cd36f19b)"/>
    <path d="M 217.717068 292.731279 
L 223.597599 286.851091 
L 220.881232 285.945547 
L 232.652455 279.607639 
L 226.313861 291.378492 
L 225.408475 288.662073 
L 219.527944 294.542261 
L 217.717068 292.731279 
" clip-path="url(#p14cd36f19b)"/>
    <path d="M 228.191135 270.743972 
L 234.072278 264.863659 
L 231.355949 263.958003 
L 243.127434 257.620582 
L 236.788352 269.391173 
L 235.883079 266.674716 
L 230.001936 272.555029 
L 228.191135 270.743972 
" clip-path="url(#p14cd36f19b)"/>
    <path d="M 126.03821 227.824 
L 131.91793 221.944412 
L 129.201546 221.038917 
L 140.972656 214.700798 
L 134.634272 226.471765 
L 133.728838 223.755361 
L 127.849118 229.634949 
L 126.03821 227.824 
" clip-path="url(#p14cd36f19b)"/>
    <path d="M 163.893386 174.467872 
L 169.772969 168.588146 
L 167.056565 167.682715 
L 178.827526 161.34432 
L 172.489418 173.115435 
L 171.58392 170.399053 
L 165.704337 176.278779 
L 163.893386 174.467872 
" clip-path="url(#p14cd36f19b)"/>
    <path d="M 245.252711 56.707065 
L 251.133076 50.827156 
L 248.416718 49.921586 
L 260.188002 43.583792 
L 253.849294 55.354584 
L 252.943935 52.638155 
L 247.06357 58.518064 
L 245.252711 56.707065 
" clip-path="url(#p14cd36f19b)"/>
    <path d="M 351.696714 210.11789 
L 357.57668 204.237672 
L 354.860268 203.332265 
L 366.63117 196.993762 
L 360.293171 208.764936 
L 359.387648 206.048562 
L 353.507681 211.92878 
L 351.696714 210.11789 
" clip-path="url(#p14cd36f19b)"/>
    <path d="M 339.978077 236.917954 
L 345.858412 231.037378 
L 343.142 230.131969 
L 354.912908 223.793476 
L 348.574898 235.564644 
L 347.669378 232.848269 
L 341.789043 238.728845 
L 339.978077 236.917954 
" clip-path="url(#p14cd36f19b)"/>
    <path d="M 194.35501 287.09065 
L 200.235074 281.211172 
L 197.518726 280.305572 
L 209.29008 273.967908 
L 202.951242 285.73863 
L 202.045913 283.022191 
L 196.165848 288.901669 
L 194.35501 287.09065 
" clip-path="url(#p14cd36f19b)"/>
    <path d="M 186.077869 243.626444 
L 191.95731 237.747623 
L 189.240965 236.842015 
L 201.012337 230.504385 
L 194.673465 242.275088 
L 193.768144 239.558647 
L 187.888702 245.437468 
L 186.077869 243.626444 
" clip-path="url(#p14cd36f19b)"/>
    <path d="M 201.984707 111.538757 
L 207.864812 105.658663 
L 205.148419 104.753196 
L 216.919464 98.414956 
L 210.581201 110.185988 
L 209.675739 107.469594 
L 203.795634 113.349688 
L 201.984707 111.538757 
" clip-path="url(#p14cd36f19b)"/>
    <path d="M 311.704312 173.306389 
L 317.583387 167.426893 
L 314.866961 166.521526 
L 326.637773 160.182853 
L 320.299942 171.954118 
L 319.394381 169.237757 
L 313.515305 175.117253 
L 311.704312 173.306389 
" clip-path="url(#p14cd36f19b)"/>
    <path d="M 125.106468 126.932943 
L 130.986402 121.052682 
L 128.269983 120.147293 
L 140.040845 113.808715 
L 133.702921 125.579929 
L 132.797381 122.863561 
L 126.917448 128.743821 
L 125.106468 126.932943 
" clip-path="url(#p14cd36f19b)"/>
    <path d="M 146.286285 213.21126 
L 152.165738 207.331724 
L 149.449338 206.426279 
L 161.220331 200.087944 
L 154.882163 211.859027 
L 153.97668 209.14264 
L 148.097227 215.022176 
L 146.286285 213.21126 
" clip-path="url(#p14cd36f19b)"/>
    <path d="M 184.1786 187.790973 
L 190.057991 181.911408 
L 187.341584 181.005984 
L 199.112528 174.667558 
L 192.774451 186.43869 
L 191.868947 183.72231 
L 185.989556 189.601875 
L 184.1786 187.790973 
" clip-path="url(#p14cd36f19b)"/>
    <path d="M 172.058479 276.283615 
L 177.938712 270.403796 
L 175.222351 269.498236 
L 186.993612 263.160399 
L 180.654946 274.931214 
L 179.749577 272.214789 
L 173.869344 278.094607 
L 172.058479 276.283615 
" clip-path="url(#p14cd36f19b)"/>
    <path d="M 170.018096 221.945381 
L 175.897285 216.066108 
L 173.180885 215.160663 
L 184.951878 208.822328 
L 178.61371 220.593411 
L 177.708226 217.877024 
L 171.829038 223.756297 
L 170.018096 221.945381 
" clip-path="url(#p14cd36f19b)"/>
    <path d="M 349.967589 130.530933 
L 355.847353 124.651465 
L 353.130982 123.745932 
L 364.902179 117.407977 
L 358.563632 129.178855 
L 357.658236 126.462439 
L 351.778472 132.341908 
L 349.967589 130.530933 
" clip-path="url(#p14cd36f19b)"/>
    <path d="M 332.676969 166.618835 
L 338.556199 160.739165 
L 335.839771 159.833803 
L 347.610572 153.495111 
L 341.272761 165.266386 
L 340.367195 162.550026 
L 334.487966 168.429696 
L 332.676969 166.618835 
" clip-path="url(#p14cd36f19b)"/>
    <path d="M 186.187783 129.899659 
L 192.066979 124.019575 
L 189.350517 123.114316 
L 201.121077 116.775176 
L 194.783714 128.546692 
L 193.878045 125.830367 
L 187.998849 131.710451 
L 186.187783 129.899659 
" clip-path="url(#p14cd36f19b)"/>
    <path d="M 166.360896 198.428588 
L 172.240483 192.548999 
L 169.524089 191.643535 
L 181.295126 185.305282 
L 174.956877 197.076321 
L 174.051412 194.359928 
L 168.171825 200.239517 
L 166.360896 198.428588 
" clip-path="url(#p14cd36f19b)"/>
    <path d="M 276.435141 185.784329 
L 282.314389 179.904785 
L 279.597972 178.999389 
L 291.368851 172.660841 
L 285.030896 184.432039 
L 284.125363 181.715668 
L 278.246115 187.595212 
L 276.435141 185.784329 
" clip-path="url(#p14cd36f19b)"/>
    <path d="M 328.566031 143.167435 
L 334.445612 137.287704 
L 331.729207 136.382274 
L 343.500164 130.043872 
L 337.162063 141.814991 
L 336.256564 139.098609 
L 330.376983 144.978341 
L 328.566031 143.167435 
" clip-path="url(#p14cd36f19b)"/>
    <path d="M 193.395643 60.748961 
L 199.276429 54.868404 
L 196.560054 53.962886 
L 208.331215 47.624864 
L 201.992735 59.395779 
L 201.087323 56.679368 
L 195.206537 62.559925 
L 193.395643 60.748961 
" clip-path="url(#p14cd36f19b)"/>
    <path d="M 355.840618 184.178731 
L 361.720335 178.298791 
L 359.003925 177.393378 
L 370.774843 171.054904 
L 364.436814 182.826062 
L 363.531298 180.109686 
L 357.651581 185.989626 
L 355.840618 184.178731 
" clip-path="url(#p14cd36f19b)"/>
    <path d="M 187.456446 86.809564 
L 193.337309 80.928602 
L 190.620908 80.02316 
L 202.391893 73.68481 
L 196.053741 85.455901 
L 195.148253 82.739516 
L 189.26739 88.620478 
L 187.456446 86.809564 
" clip-path="url(#p14cd36f19b)"/>
    <path d="M 268.658825 57.154567 
L 274.539006 51.274794 
L 271.822644 50.369235 
L 283.593902 44.031392 
L 277.255242 55.80221 
L 276.349872 53.085785 
L 270.469692 58.965559 
L 268.658825 57.154567 
" clip-path="url(#p14cd36f19b)"/>
    <path d="M 326.503771 216.551754 
L 332.383646 210.671462 
L 329.667221 209.766094 
L 341.438033 203.427425 
L 335.1002 215.198688 
L 334.194639 212.482327 
L 328.314765 218.362619 
L 326.503771 216.551754 
" clip-path="url(#p14cd36f19b)"/>
    <path d="M 291.83852 169.749425 
L 297.717375 163.869931 
L 295.000933 162.964614 
L 306.771626 156.625723 
L 300.434015 168.397106 
L 299.528403 165.680761 
L 293.649548 171.560255 
L 291.83852 169.749425 
" clip-path="url(#p14cd36f19b)"/>
    <path d="M 137.829475 165.793528 
L 143.709021 159.913986 
L 140.992628 159.008521 
L 152.763669 152.670274 
L 146.425413 164.441309 
L 145.51995 161.724916 
L 139.640403 167.604458 
L 137.829475 165.793528 
" clip-path="url(#p14cd36f19b)"/>
    <path d="M 355.91419 157.286395 
L 361.793683 151.406919 
L 359.077291 150.501451 
L 370.848338 144.163217 
L 364.51007 155.934246 
L 363.604609 153.217851 
L 357.725117 159.097327 
L 355.91419 157.286395 
" clip-path="url(#p14cd36f19b)"/>
    <path d="M 323.92239 258.834736 
L 329.802977 252.954118 
L 327.086581 252.048661 
L 338.857603 245.710379 
L 332.519382 257.481433 
L 331.61391 254.765042 
L 325.733324 260.64566 
L 323.92239 258.834736 
" clip-path="url(#p14cd36f19b)"/>
    <path d="M 114.594871 176.693564 
L 120.474592 170.813699 
L 117.758187 169.908268 
L 129.529148 163.569873 
L 123.19104 175.340989 
L 122.285543 172.624606 
L 116.405822 178.504471 
L 114.594871 176.693564 
" clip-path="url(#p14cd36f19b)"/>
    <path d="M 119.096692 202.10691 
L 124.976334 196.227198 
L 122.259935 195.32175 
L 134.030935 188.983429 
L 127.692754 200.754505 
L 126.787273 198.038117 
L 120.907632 203.917828 
L 119.096692 202.10691 
" clip-path="url(#p14cd36f19b)"/>
    <path d="M 118.096197 149.560033 
L 123.97608 143.680004 
L 121.259675 142.774573 
L 133.030634 136.436175 
L 126.69253 148.207292 
L 125.787031 145.49091 
L 119.907149 151.370939 
L 118.096197 149.560033 
" clip-path="url(#p14cd36f19b)"/>
    <path d="M 220.443806 52.6625 
L 226.324386 46.782377 
L 223.608028 45.876807 
L 235.379312 39.539013 
L 229.040604 51.309805 
L 228.135245 48.593377 
L 222.254665 54.4735 
L 220.443806 52.6625 
" clip-path="url(#p14cd36f19b)"/>
    <path d="M 310.41236 236.635228 
L 316.29252 230.754902 
L 313.576114 229.849476 
L 325.347064 223.51106 
L 319.008977 235.282187 
L 318.103475 232.565806 
L 312.223314 238.446131 
L 310.41236 236.635228 
" clip-path="url(#p14cd36f19b)"/>
    <path d="M 329.713331 191.571222 
L 335.593009 185.691154 
L 332.876585 184.78578 
L 344.647413 178.447138 
L 338.309552 190.218386 
L 337.403998 187.502023 
L 331.52432 193.382091 
L 329.713331 191.571222 
" clip-path="url(#p14cd36f19b)"/>
    <path d="M 142.791233 188.87028 
L 148.670871 182.990656 
L 145.954479 182.085188 
L 157.725525 175.746951 
L 151.387259 187.517982 
L 150.481798 184.801587 
L 144.60216 190.681212 
L 142.791233 188.87028 
" clip-path="url(#p14cd36f19b)"/>
    <path d="M 197.464215 263.460109 
L 203.344646 257.58064 
L 200.628326 256.674954 
L 212.399883 250.337666 
L 206.060669 262.108185 
L 205.155426 259.391717 
L 199.274995 265.271186 
L 197.464215 263.460109 
" clip-path="url(#p14cd36f19b)"/>
    <path d="M 270.287943 214.639403 
L 276.167572 208.759221 
L 273.451136 207.853884 
L 285.221876 201.515079 
L 278.884178 213.286415 
L 277.978586 210.570065 
L 272.098957 216.450247 
L 270.287943 214.639403 
" clip-path="url(#p14cd36f19b)"/>
    <path d="M 288.040011 233.781888 
L 293.919995 227.901764 
L 291.203591 226.996332 
L 302.974554 220.657941 
L 296.636442 232.429054 
L 295.730946 229.712671 
L 289.850961 235.592796 
L 288.040011 233.781888 
" clip-path="url(#p14cd36f19b)"/>
    <path d="M 244.255636 181.816011 
L 250.134268 175.936705 
L 247.417823 175.031396 
L 259.188498 168.692471 
L 252.850921 180.463872 
L 251.945301 177.74753 
L 246.066669 183.626836 
L 244.255636 181.816011 
" clip-path="url(#p14cd36f19b)"/>
   </g>
   <g id="matplotlib.axis_1">
    <g id="xtick_1">
     <g id="line2d_1">
      <defs>
       <path id="mbc71e4c949" d="M 0 0 
L 0 3.5 
" style="stroke: #000000; stroke-width: 0.8"/>
      </defs>
      <g>
       <use xlink:href="#mbc71e4c949" x="72.009335" y="307.584" style="stroke: #000000; stroke-width: 0.8"/>
      </g>
     </g>
     <g id="text_1">
      <!-- 88.0 -->
      <g transform="translate(58.64996 323.702125) scale(0.12 -0.12)">
       <defs>
        <path id="DejaVuSans-38" d="M 2034 2216 
Q 1584 2216 1326 1975 
Q 1069 1734 1069 1313 
Q 1069 891 1326 650 
Q 1584 409 2034 409 
Q 2484 409 2743 651 
Q 3003 894 3003 1313 
Q 3003 1734 2745 1975 
Q 2488 2216 2034 2216 
z
M 1403 2484 
Q 997 2584 770 2862 
Q 544 3141 544 3541 
Q 544 4100 942 4425 
Q 1341 4750 2034 4750 
Q 2731 4750 3128 4425 
Q 3525 4100 3525 3541 
Q 3525 3141 3298 2862 
Q 3072 2584 2669 2484 
Q 3125 2378 3379 2068 
Q 3634 1759 3634 1313 
Q 3634 634 3220 271 
Q 2806 -91 2034 -91 
Q 1263 -91 848 271 
Q 434 634 434 1313 
Q 434 1759 690 2068 
Q 947 2378 1403 2484 
z
M 1172 3481 
Q 1172 3119 1398 2916 
Q 1625 2713 2034 2713 
Q 2441 2713 2670 2916 
Q 2900 3119 2900 3481 
Q 2900 3844 2670 4047 
Q 2441 4250 2034 4250 
Q 1625 4250 1398 4047 
Q 1172 3844 1172 3481 
z
" transform="scale(0.015625)"/>
        <path id="DejaVuSans-2e" d="M 684 794 
L 1344 794 
L 1344 0 
L 684 0 
L 684 794 
z
" transform="scale(0.015625)"/>
        <path id="DejaVuSans-30" d="M 2034 4250 
Q 1547 4250 1301 3770 
Q 1056 3291 1056 2328 
Q 1056 1369 1301 889 
Q 1547 409 2034 409 
Q 2525 409 2770 889 
Q 3016 1369 3016 2328 
Q 3016 3291 2770 3770 
Q 2525 4250 2034 4250 
z
M 2034 4750 
Q 2819 4750 3233 4129 
Q 3647 3509 3647 2328 
Q 3647 1150 3233 529 
Q 2819 -91 2034 -91 
Q 1250 -91 836 529 
Q 422 1150 422 2328 
Q 422 3509 836 4129 
Q 1250 4750 2034 4750 
z
" transform="scale(0.015625)"/>
       </defs>
       <use xlink:href="#DejaVuSans-38"/>
       <use xlink:href="#DejaVuSans-38" x="63.623047"/>
       <use xlink:href="#DejaVuSans-2e" x="127.246094"/>
       <use xlink:href="#DejaVuSans-30" x="159.033203"/>
      </g>
     </g>
    </g>
    <g id="xtick_2">
     <g id="line2d_2">
      <g>
       <use xlink:href="#mbc71e4c949" x="135.289195" y="307.584" style="stroke: #000000; stroke-width: 0.8"/>
      </g>
     </g>
     <g id="text_2">
      <!-- 88.5 -->
      <g transform="translate(121.92982 323.702125) scale(0.12 -0.12)">
       <defs>
        <path id="DejaVuSans-35" d="M 691 4666 
L 3169 4666 
L 3169 4134 
L 1269 4134 
L 1269 2991 
Q 1406 3038 1543 3061 
Q 1681 3084 1819 3084 
Q 2600 3084 3056 2656 
Q 3513 2228 3513 1497 
Q 3513 744 3044 326 
Q 2575 -91 1722 -91 
Q 1428 -91 1123 -41 
Q 819 9 494 109 
L 494 744 
Q 775 591 1075 516 
Q 1375 441 1709 441 
Q 2250 441 2565 725 
Q 2881 1009 2881 1497 
Q 2881 1984 2565 2268 
Q 2250 2553 1709 2553 
Q 1456 2553 1204 2497 
Q 953 2441 691 2322 
L 691 4666 
z
" transform="scale(0.015625)"/>
       </defs>
       <use xlink:href="#DejaVuSans-38"/>
       <use xlink:href="#DejaVuSans-38" x="63.623047"/>
       <use xlink:href="#DejaVuSans-2e" x="127.246094"/>
       <use xlink:href="#DejaVuSans-35" x="159.033203"/>
      </g>
     </g>
    </g>
    <g id="xtick_3">
     <g id="line2d_3">
      <g>
       <use xlink:href="#mbc71e4c949" x="198.569054" y="307.584" style="stroke: #000000; stroke-width: 0.8"/>
      </g>
     </g>
     <g id="text_3">
      <!-- 89.0 -->
      <g transform="translate(185.209679 323.702125) scale(0.12 -0.12)">
       <defs>
        <path id="DejaVuSans-39" d="M 703 97 
L 703 672 
Q 941 559 1184 500 
Q 1428 441 1663 441 
Q 2288 441 2617 861 
Q 2947 1281 2994 2138 
Q 2813 1869 2534 1725 
Q 2256 1581 1919 1581 
Q 1219 1581 811 2004 
Q 403 2428 403 3163 
Q 403 3881 828 4315 
Q 1253 4750 1959 4750 
Q 2769 4750 3195 4129 
Q 3622 3509 3622 2328 
Q 3622 1225 3098 567 
Q 2575 -91 1691 -91 
Q 1453 -91 1209 -44 
Q 966 3 703 97 
z
M 1959 2075 
Q 2384 2075 2632 2365 
Q 2881 2656 2881 3163 
Q 2881 3666 2632 3958 
Q 2384 4250 1959 4250 
Q 1534 4250 1286 3958 
Q 1038 3666 1038 3163 
Q 1038 2656 1286 2365 
Q 1534 2075 1959 2075 
z
" transform="scale(0.015625)"/>
       </defs>
       <use xlink:href="#DejaVuSans-38"/>
       <use xlink:href="#DejaVuSans-39" x="63.623047"/>
       <use xlink:href="#DejaVuSans-2e" x="127.246094"/>
       <use xlink:href="#DejaVuSans-30" x="159.033203"/>
      </g>
     </g>
    </g>
    <g id="xtick_4">
     <g id="line2d_4">
      <g>
       <use xlink:href="#mbc71e4c949" x="261.848913" y="307.584" style="stroke: #000000; stroke-width: 0.8"/>
      </g>
     </g>
     <g id="text_4">
      <!-- 89.5 -->
      <g transform="translate(248.489538 323.702125) scale(0.12 -0.12)">
       <use xlink:href="#DejaVuSans-38"/>
       <use xlink:href="#DejaVuSans-39" x="63.623047"/>
       <use xlink:href="#DejaVuSans-2e" x="127.246094"/>
       <use xlink:href="#DejaVuSans-35" x="159.033203"/>
      </g>
     </g>
    </g>
    <g id="xtick_5">
     <g id="line2d_5">
      <g>
       <use xlink:href="#mbc71e4c949" x="325.128772" y="307.584" style="stroke: #000000; stroke-width: 0.8"/>
      </g>
     </g>
     <g id="text_5">
      <!-- 90.0 -->
      <g transform="translate(311.769397 323.702125) scale(0.12 -0.12)">
       <use xlink:href="#DejaVuSans-39"/>
       <use xlink:href="#DejaVuSans-30" x="63.623047"/>
       <use xlink:href="#DejaVuSans-2e" x="127.246094"/>
       <use xlink:href="#DejaVuSans-30" x="159.033203"/>
      </g>
     </g>
    </g>
    <g id="xtick_6">
     <g id="line2d_6">
      <g>
       <use xlink:href="#mbc71e4c949" x="388.408631" y="307.584" style="stroke: #000000; stroke-width: 0.8"/>
      </g>
     </g>
     <g id="text_6">
      <!-- 90.5 -->
      <g transform="translate(375.049256 323.702125) scale(0.12 -0.12)">
       <use xlink:href="#DejaVuSans-39"/>
       <use xlink:href="#DejaVuSans-30" x="63.623047"/>
       <use xlink:href="#DejaVuSans-2e" x="127.246094"/>
       <use xlink:href="#DejaVuSans-35" x="159.033203"/>
      </g>
     </g>
    </g>
    <g id="text_7">
     <!-- x -->
     <g transform="translate(232.016875 340.835562) scale(0.14 -0.14)">
      <defs>
       <path id="DejaVuSans-78" d="M 3513 3500 
L 2247 1797 
L 3578 0 
L 2900 0 
L 1881 1375 
L 863 0 
L 184 0 
L 1544 1831 
L 300 3500 
L 978 3500 
L 1906 2253 
L 2834 3500 
L 3513 3500 
z
" transform="scale(0.015625)"/>
      </defs>
      <use xlink:href="#DejaVuSans-78"/>
     </g>
    </g>
   </g>
   <g id="matplotlib.axis_2">
    <g id="ytick_1">
     <g id="line2d_7">
      <defs>
       <path id="m759c05797c" d="M 0 0 
L -3.5 0 
" style="stroke: #000000; stroke-width: 0.8"/>
      </defs>
      <g>
       <use xlink:href="#m759c05797c" x="57.6" y="282.611338" style="stroke: #000000; stroke-width: 0.8"/>
      </g>
     </g>
     <g id="text_8">
      <!-- 90.00 -->
      <g transform="translate(16.24625 287.170401) scale(0.12 -0.12)">
       <use xlink:href="#DejaVuSans-39"/>
       <use xlink:href="#DejaVuSans-30" x="63.623047"/>
       <use xlink:href="#DejaVuSans-2e" x="127.246094"/>
       <use xlink:href="#DejaVuSans-30" x="159.033203"/>
       <use xlink:href="#DejaVuSans-30" x="222.65625"/>
      </g>
     </g>
    </g>
    <g id="ytick_2">
     <g id="line2d_8">
      <g>
       <use xlink:href="#m759c05797c" x="57.6" y="250.971409" style="stroke: #000000; stroke-width: 0.8"/>
      </g>
     </g>
     <g id="text_9">
      <!-- 90.25 -->
      <g transform="translate(16.24625 255.530471) scale(0.12 -0.12)">
       <defs>
        <path id="DejaVuSans-32" d="M 1228 531 
L 3431 531 
L 3431 0 
L 469 0 
L 469 531 
Q 828 903 1448 1529 
Q 2069 2156 2228 2338 
Q 2531 2678 2651 2914 
Q 2772 3150 2772 3378 
Q 2772 3750 2511 3984 
Q 2250 4219 1831 4219 
Q 1534 4219 1204 4116 
Q 875 4013 500 3803 
L 500 4441 
Q 881 4594 1212 4672 
Q 1544 4750 1819 4750 
Q 2544 4750 2975 4387 
Q 3406 4025 3406 3419 
Q 3406 3131 3298 2873 
Q 3191 2616 2906 2266 
Q 2828 2175 2409 1742 
Q 1991 1309 1228 531 
z
" transform="scale(0.015625)"/>
       </defs>
       <use xlink:href="#DejaVuSans-39"/>
       <use xlink:href="#DejaVuSans-30" x="63.623047"/>
       <use xlink:href="#DejaVuSans-2e" x="127.246094"/>
       <use xlink:href="#DejaVuSans-32" x="159.033203"/>
       <use xlink:href="#DejaVuSans-35" x="222.65625"/>
      </g>
     </g>
    </g>
    <g id="ytick_3">
     <g id="line2d_9">
      <g>
       <use xlink:href="#m759c05797c" x="57.6" y="219.331479" style="stroke: #000000; stroke-width: 0.8"/>
      </g>
     </g>
     <g id="text_10">
      <!-- 90.50 -->
      <g transform="translate(16.24625 223.890541) scale(0.12 -0.12)">
       <use xlink:href="#DejaVuSans-39"/>
       <use xlink:href="#DejaVuSans-30" x="63.623047"/>
       <use xlink:href="#DejaVuSans-2e" x="127.246094"/>
       <use xlink:href="#DejaVuSans-35" x="159.033203"/>
       <use xlink:href="#DejaVuSans-30" x="222.65625"/>
      </g>
     </g>
    </g>
    <g id="ytick_4">
     <g id="line2d_10">
      <g>
       <use xlink:href="#m759c05797c" x="57.6" y="187.691549" style="stroke: #000000; stroke-width: 0.8"/>
      </g>
     </g>
     <g id="text_11">
      <!-- 90.75 -->
      <g transform="translate(16.24625 192.250612) scale(0.12 -0.12)">
       <defs>
        <path id="DejaVuSans-37" d="M 525 4666 
L 3525 4666 
L 3525 4397 
L 1831 0 
L 1172 0 
L 2766 4134 
L 525 4134 
L 525 4666 
z
" transform="scale(0.015625)"/>
       </defs>
       <use xlink:href="#DejaVuSans-39"/>
       <use xlink:href="#DejaVuSans-30" x="63.623047"/>
       <use xlink:href="#DejaVuSans-2e" x="127.246094"/>
       <use xlink:href="#DejaVuSans-37" x="159.033203"/>
       <use xlink:href="#DejaVuSans-35" x="222.65625"/>
      </g>
     </g>
    </g>
    <g id="ytick_5">
     <g id="line2d_11">
      <g>
       <use xlink:href="#m759c05797c" x="57.6" y="156.05162" style="stroke: #000000; stroke-width: 0.8"/>
      </g>
     </g>
     <g id="text_12">
      <!-- 91.00 -->
      <g transform="translate(16.24625 160.610682) scale(0.12 -0.12)">
       <defs>
        <path id="DejaVuSans-31" d="M 794 531 
L 1825 531 
L 1825 4091 
L 703 3866 
L 703 4441 
L 1819 4666 
L 2450 4666 
L 2450 531 
L 3481 531 
L 3481 0 
L 794 0 
L 794 531 
z
" transform="scale(0.015625)"/>
       </defs>
       <use xlink:href="#DejaVuSans-39"/>
       <use xlink:href="#DejaVuSans-31" x="63.623047"/>
       <use xlink:href="#DejaVuSans-2e" x="127.246094"/>
       <use xlink:href="#DejaVuSans-30" x="159.033203"/>
       <use xlink:href="#DejaVuSans-30" x="222.65625"/>
      </g>
     </g>
    </g>
    <g id="ytick_6">
     <g id="line2d_12">
      <g>
       <use xlink:href="#m759c05797c" x="57.6" y="124.41169" style="stroke: #000000; stroke-width: 0.8"/>
      </g>
     </g>
     <g id="text_13">
      <!-- 91.25 -->
      <g transform="translate(16.24625 128.970753) scale(0.12 -0.12)">
       <use xlink:href="#DejaVuSans-39"/>
       <use xlink:href="#DejaVuSans-31" x="63.623047"/>
       <use xlink:href="#DejaVuSans-2e" x="127.246094"/>
       <use xlink:href="#DejaVuSans-32" x="159.033203"/>
       <use xlink:href="#DejaVuSans-35" x="222.65625"/>
      </g>
     </g>
    </g>
    <g id="ytick_7">
     <g id="line2d_13">
      <g>
       <use xlink:href="#m759c05797c" x="57.6" y="92.771761" style="stroke: #000000; stroke-width: 0.8"/>
      </g>
     </g>
     <g id="text_14">
      <!-- 91.50 -->
      <g transform="translate(16.24625 97.330823) scale(0.12 -0.12)">
       <use xlink:href="#DejaVuSans-39"/>
       <use xlink:href="#DejaVuSans-31" x="63.623047"/>
       <use xlink:href="#DejaVuSans-2e" x="127.246094"/>
       <use xlink:href="#DejaVuSans-35" x="159.033203"/>
       <use xlink:href="#DejaVuSans-30" x="222.65625"/>
      </g>
     </g>
    </g>
    <g id="ytick_8">
     <g id="line2d_14">
      <g>
       <use xlink:href="#m759c05797c" x="57.6" y="61.131831" style="stroke: #000000; stroke-width: 0.8"/>
      </g>
     </g>
     <g id="text_15">
      <!-- 91.75 -->
      <g transform="translate(16.24625 65.690893) scale(0.12 -0.12)">
       <use xlink:href="#DejaVuSans-39"/>
       <use xlink:href="#DejaVuSans-31" x="63.623047"/>
       <use xlink:href="#DejaVuSans-2e" x="127.246094"/>
       <use xlink:href="#DejaVuSans-37" x="159.033203"/>
       <use xlink:href="#DejaVuSans-35" x="222.65625"/>
      </g>
     </g>
    </g>
    <g id="text_16">
     <!-- y -->
     <g transform="translate(9.334688 178.671125) rotate(-90) scale(0.14 -0.14)">
      <defs>
       <path id="DejaVuSans-79" d="M 2059 -325 
Q 1816 -950 1584 -1140 
Q 1353 -1331 966 -1331 
L 506 -1331 
L 506 -850 
L 844 -850 
Q 1081 -850 1212 -737 
Q 1344 -625 1503 -206 
L 1606 56 
L 191 3500 
L 800 3500 
L 1894 763 
L 2988 3500 
L 3597 3500 
L 2059 -325 
z
" transform="scale(0.015625)"/>
      </defs>
      <use xlink:href="#DejaVuSans-79"/>
     </g>
    </g>
   </g>
   <g id="line2d_15">
    <defs>
     <path id="m38a4e13a3d" d="M 0 3 
C 0.795609 3 1.55874 2.683901 2.12132 2.12132 
C 2.683901 1.55874 3 0.795609 3 0 
C 3 -0.795609 2.683901 -1.55874 2.12132 -2.12132 
C 1.55874 -2.683901 0.795609 -3 0 -3 
C -0.795609 -3 -1.55874 -2.683901 -2.12132 -2.12132 
C -2.683901 -1.55874 -3 -0.795609 -3 0 
C -3 0.795609 -2.683901 1.55874 -2.12132 2.12132 
C -1.55874 2.683901 -0.795609 3 0 3 
z
" style="stroke: #0000ff"/>
    </defs>
    <g clip-path="url(#p14cd36f19b)">
     <use xlink:href="#m38a4e13a3d" x="221.554127" y="243.224487" style="fill: #0000ff; stroke: #0000ff"/>
     <use xlink:href="#m38a4e13a3d" x="231.321364" y="155.862023" style="fill: #0000ff; stroke: #0000ff"/>
     <use xlink:href="#m38a4e13a3d" x="193.073038" y="161.278187" style="fill: #0000ff; stroke: #0000ff"/>
     <use xlink:href="#m38a4e13a3d" x="264.312278" y="162.657491" style="fill: #0000ff; stroke: #0000ff"/>
     <use xlink:href="#m38a4e13a3d" x="299.697478" y="142.105937" style="fill: #0000ff; stroke: #0000ff"/>
     <use xlink:href="#m38a4e13a3d" x="266.091979" y="129.185523" style="fill: #0000ff; stroke: #0000ff"/>
     <use xlink:href="#m38a4e13a3d" x="298.704128" y="204.353085" style="fill: #0000ff; stroke: #0000ff"/>
     <use xlink:href="#m38a4e13a3d" x="297.876218" y="78.87013" style="fill: #0000ff; stroke: #0000ff"/>
     <use xlink:href="#m38a4e13a3d" x="153.958087" y="250.882342" style="fill: #0000ff; stroke: #0000ff"/>
     <use xlink:href="#m38a4e13a3d" x="159.380638" y="143.577725" style="fill: #0000ff; stroke: #0000ff"/>
     <use xlink:href="#m38a4e13a3d" x="238.737528" y="211.996305" style="fill: #0000ff; stroke: #0000ff"/>
     <use xlink:href="#m38a4e13a3d" x="260.017878" y="242.323399" style="fill: #0000ff; stroke: #0000ff"/>
     <use xlink:href="#m38a4e13a3d" x="216.831069" y="185.930739" style="fill: #0000ff; stroke: #0000ff"/>
     <use xlink:href="#m38a4e13a3d" x="149.187362" y="103.267141" style="fill: #0000ff; stroke: #0000ff"/>
     <use xlink:href="#m38a4e13a3d" x="293.247694" y="269.596896" style="fill: #0000ff; stroke: #0000ff"/>
     <use xlink:href="#m38a4e13a3d" x="326.393367" y="107.777828" style="fill: #0000ff; stroke: #0000ff"/>
     <use xlink:href="#m38a4e13a3d" x="221.487524" y="86.149" style="fill: #0000ff; stroke: #0000ff"/>
     <use xlink:href="#m38a4e13a3d" x="198.902864" y="215.088412" style="fill: #0000ff; stroke: #0000ff"/>
     <use xlink:href="#m38a4e13a3d" x="232.218525" y="122.349765" style="fill: #0000ff; stroke: #0000ff"/>
     <use xlink:href="#m38a4e13a3d" x="259.943663" y="92.588242" style="fill: #0000ff; stroke: #0000ff"/>
    </g>
   </g>
   <g id="line2d_16">
    <defs>
     <path id="m5ccd49f6e1" d="M 0 3 
C 0.795609 3 1.55874 2.683901 2.12132 2.12132 
C 2.683901 1.55874 3 0.795609 3 0 
C 3 -0.795609 2.683901 -1.55874 2.12132 -2.12132 
C 1.55874 -2.683901 0.795609 -3 0 -3 
C -0.795609 -3 -1.55874 -2.683901 -2.12132 -2.12132 
C -2.683901 -1.55874 -3 -0.795609 -3 0 
C -3 0.795609 -2.683901 1.55874 -2.12132 2.12132 
C -1.55874 2.683901 -0.795609 3 0 3 
z
" style="stroke: #ff0000"/>
    </defs>
    <g clip-path="url(#p14cd36f19b)">
     <use xlink:href="#m5ccd49f6e1" x="261.096845" y="196.701104" style="fill: #ff0000; stroke: #ff0000"/>
     <use xlink:href="#m5ccd49f6e1" x="254.312435" y="271.21667" style="fill: #ff0000; stroke: #ff0000"/>
     <use xlink:href="#m5ccd49f6e1" x="291.267724" y="111.449097" style="fill: #ff0000; stroke: #ff0000"/>
     <use xlink:href="#m5ccd49f6e1" x="270.455765" y="292.313911" style="fill: #ff0000; stroke: #ff0000"/>
     <use xlink:href="#m5ccd49f6e1" x="168.659524" y="73.752137" style="fill: #ff0000; stroke: #ff0000"/>
     <use xlink:href="#m5ccd49f6e1" x="180.134492" y="110.0634" style="fill: #ff0000; stroke: #ff0000"/>
     <use xlink:href="#m5ccd49f6e1" x="244.326511" y="295.488" style="fill: #ff0000; stroke: #ff0000"/>
     <use xlink:href="#m5ccd49f6e1" x="207.675659" y="137.142656" style="fill: #ff0000; stroke: #ff0000"/>
     <use xlink:href="#m5ccd49f6e1" x="218.622506" y="293.63677" style="fill: #ff0000; stroke: #ff0000"/>
     <use xlink:href="#m5ccd49f6e1" x="229.096535" y="271.649501" style="fill: #ff0000; stroke: #ff0000"/>
     <use xlink:href="#m5ccd49f6e1" x="126.943664" y="228.729475" style="fill: #ff0000; stroke: #ff0000"/>
     <use xlink:href="#m5ccd49f6e1" x="164.798862" y="175.373325" style="fill: #ff0000; stroke: #ff0000"/>
     <use xlink:href="#m5ccd49f6e1" x="246.158141" y="57.612564" style="fill: #ff0000; stroke: #ff0000"/>
     <use xlink:href="#m5ccd49f6e1" x="352.602198" y="211.023335" style="fill: #ff0000; stroke: #ff0000"/>
     <use xlink:href="#m5ccd49f6e1" x="340.88356" y="237.8234" style="fill: #ff0000; stroke: #ff0000"/>
     <use xlink:href="#m5ccd49f6e1" x="195.260429" y="287.996159" style="fill: #ff0000; stroke: #ff0000"/>
     <use xlink:href="#m5ccd49f6e1" x="186.983285" y="244.531956" style="fill: #ff0000; stroke: #ff0000"/>
     <use xlink:href="#m5ccd49f6e1" x="202.89017" y="112.444222" style="fill: #ff0000; stroke: #ff0000"/>
     <use xlink:href="#m5ccd49f6e1" x="312.609809" y="174.211821" style="fill: #ff0000; stroke: #ff0000"/>
     <use xlink:href="#m5ccd49f6e1" x="126.011958" y="127.838382" style="fill: #ff0000; stroke: #ff0000"/>
     <use xlink:href="#m5ccd49f6e1" x="147.191756" y="214.116718" style="fill: #ff0000; stroke: #ff0000"/>
     <use xlink:href="#m5ccd49f6e1" x="185.084078" y="188.696424" style="fill: #ff0000; stroke: #ff0000"/>
     <use xlink:href="#m5ccd49f6e1" x="172.963912" y="277.189111" style="fill: #ff0000; stroke: #ff0000"/>
     <use xlink:href="#m5ccd49f6e1" x="170.923567" y="222.850839" style="fill: #ff0000; stroke: #ff0000"/>
     <use xlink:href="#m5ccd49f6e1" x="350.87303" y="131.43642" style="fill: #ff0000; stroke: #ff0000"/>
     <use xlink:href="#m5ccd49f6e1" x="333.582468" y="167.524265" style="fill: #ff0000; stroke: #ff0000"/>
     <use xlink:href="#m5ccd49f6e1" x="187.093316" y="130.805055" style="fill: #ff0000; stroke: #ff0000"/>
     <use xlink:href="#m5ccd49f6e1" x="167.266361" y="199.334052" style="fill: #ff0000; stroke: #ff0000"/>
     <use xlink:href="#m5ccd49f6e1" x="277.340628" y="186.68977" style="fill: #ff0000; stroke: #ff0000"/>
     <use xlink:href="#m5ccd49f6e1" x="329.471507" y="144.072888" style="fill: #ff0000; stroke: #ff0000"/>
     <use xlink:href="#m5ccd49f6e1" x="194.30109" y="61.654443" style="fill: #ff0000; stroke: #ff0000"/>
     <use xlink:href="#m5ccd49f6e1" x="356.746099" y="185.084178" style="fill: #ff0000; stroke: #ff0000"/>
     <use xlink:href="#m5ccd49f6e1" x="188.361918" y="87.715021" style="fill: #ff0000; stroke: #ff0000"/>
     <use xlink:href="#m5ccd49f6e1" x="269.564259" y="58.060063" style="fill: #ff0000; stroke: #ff0000"/>
     <use xlink:href="#m5ccd49f6e1" x="327.409268" y="217.457187" style="fill: #ff0000; stroke: #ff0000"/>
     <use xlink:href="#m5ccd49f6e1" x="292.744034" y="170.65484" style="fill: #ff0000; stroke: #ff0000"/>
     <use xlink:href="#m5ccd49f6e1" x="138.734939" y="166.698993" style="fill: #ff0000; stroke: #ff0000"/>
     <use xlink:href="#m5ccd49f6e1" x="356.819654" y="158.191861" style="fill: #ff0000; stroke: #ff0000"/>
     <use xlink:href="#m5ccd49f6e1" x="324.827857" y="259.740198" style="fill: #ff0000; stroke: #ff0000"/>
     <use xlink:href="#m5ccd49f6e1" x="115.500346" y="177.599017" style="fill: #ff0000; stroke: #ff0000"/>
     <use xlink:href="#m5ccd49f6e1" x="120.002162" y="203.012369" style="fill: #ff0000; stroke: #ff0000"/>
     <use xlink:href="#m5ccd49f6e1" x="119.001673" y="150.465486" style="fill: #ff0000; stroke: #ff0000"/>
     <use xlink:href="#m5ccd49f6e1" x="221.349236" y="53.568" style="fill: #ff0000; stroke: #ff0000"/>
     <use xlink:href="#m5ccd49f6e1" x="311.317837" y="237.540679" style="fill: #ff0000; stroke: #ff0000"/>
     <use xlink:href="#m5ccd49f6e1" x="330.618825" y="192.476657" style="fill: #ff0000; stroke: #ff0000"/>
     <use xlink:href="#m5ccd49f6e1" x="143.696696" y="189.775746" style="fill: #ff0000; stroke: #ff0000"/>
     <use xlink:href="#m5ccd49f6e1" x="198.369605" y="264.365648" style="fill: #ff0000; stroke: #ff0000"/>
     <use xlink:href="#m5ccd49f6e1" x="271.19345" y="215.544825" style="fill: #ff0000; stroke: #ff0000"/>
     <use xlink:href="#m5ccd49f6e1" x="288.945486" y="234.687342" style="fill: #ff0000; stroke: #ff0000"/>
     <use xlink:href="#m5ccd49f6e1" x="245.161153" y="182.721423" style="fill: #ff0000; stroke: #ff0000"/>
    </g>
   </g>
   <g id="line2d_17"/>
   <g id="patch_3">
    <path d="M 57.6 307.584 
L 57.6 41.472 
" style="fill: none; stroke: #000000; stroke-width: 0.8; stroke-linejoin: miter; stroke-linecap: square"/>
   </g>
   <g id="patch_4">
    <path d="M 414.72 307.584 
L 414.72 41.472 
" style="fill: none; stroke: #000000; stroke-width: 0.8; stroke-linejoin: miter; stroke-linecap: square"/>
   </g>
   <g id="patch_5">
    <path d="M 57.6 307.584 
L 414.72 307.584 
" style="fill: none; stroke: #000000; stroke-width: 0.8; stroke-linejoin: miter; stroke-linecap: square"/>
   </g>
   <g id="patch_6">
    <path d="M 57.6 41.472 
L 414.72 41.472 
" style="fill: none; stroke: #000000; stroke-width: 0.8; stroke-linejoin: miter; stroke-linecap: square"/>
   </g>
   <g id="text_17">
    <!-- Velocities at the final time -->
    <g transform="translate(116.81 35.472) scale(0.16 -0.16)">
     <defs>
      <path id="DejaVuSans-Bold-56" d="M 31 4666 
L 1241 4666 
L 2478 1222 
L 3713 4666 
L 4922 4666 
L 3194 0 
L 1759 0 
L 31 4666 
z
" transform="scale(0.015625)"/>
      <path id="DejaVuSans-Bold-65" d="M 4031 1759 
L 4031 1441 
L 1416 1441 
Q 1456 1047 1700 850 
Q 1944 653 2381 653 
Q 2734 653 3104 758 
Q 3475 863 3866 1075 
L 3866 213 
Q 3469 63 3072 -14 
Q 2675 -91 2278 -91 
Q 1328 -91 801 392 
Q 275 875 275 1747 
Q 275 2603 792 3093 
Q 1309 3584 2216 3584 
Q 3041 3584 3536 3087 
Q 4031 2591 4031 1759 
z
M 2881 2131 
Q 2881 2450 2695 2645 
Q 2509 2841 2209 2841 
Q 1884 2841 1681 2658 
Q 1478 2475 1428 2131 
L 2881 2131 
z
" transform="scale(0.015625)"/>
      <path id="DejaVuSans-Bold-6c" d="M 538 4863 
L 1656 4863 
L 1656 0 
L 538 0 
L 538 4863 
z
" transform="scale(0.015625)"/>
      <path id="DejaVuSans-Bold-6f" d="M 2203 2784 
Q 1831 2784 1636 2517 
Q 1441 2250 1441 1747 
Q 1441 1244 1636 976 
Q 1831 709 2203 709 
Q 2569 709 2762 976 
Q 2956 1244 2956 1747 
Q 2956 2250 2762 2517 
Q 2569 2784 2203 2784 
z
M 2203 3584 
Q 3106 3584 3614 3096 
Q 4122 2609 4122 1747 
Q 4122 884 3614 396 
Q 3106 -91 2203 -91 
Q 1297 -91 786 396 
Q 275 884 275 1747 
Q 275 2609 786 3096 
Q 1297 3584 2203 3584 
z
" transform="scale(0.015625)"/>
      <path id="DejaVuSans-Bold-63" d="M 3366 3391 
L 3366 2478 
Q 3138 2634 2908 2709 
Q 2678 2784 2431 2784 
Q 1963 2784 1702 2511 
Q 1441 2238 1441 1747 
Q 1441 1256 1702 982 
Q 1963 709 2431 709 
Q 2694 709 2930 787 
Q 3166 866 3366 1019 
L 3366 103 
Q 3103 6 2833 -42 
Q 2563 -91 2291 -91 
Q 1344 -91 809 395 
Q 275 881 275 1747 
Q 275 2613 809 3098 
Q 1344 3584 2291 3584 
Q 2566 3584 2833 3536 
Q 3100 3488 3366 3391 
z
" transform="scale(0.015625)"/>
      <path id="DejaVuSans-Bold-69" d="M 538 3500 
L 1656 3500 
L 1656 0 
L 538 0 
L 538 3500 
z
M 538 4863 
L 1656 4863 
L 1656 3950 
L 538 3950 
L 538 4863 
z
" transform="scale(0.015625)"/>
      <path id="DejaVuSans-Bold-74" d="M 1759 4494 
L 1759 3500 
L 2913 3500 
L 2913 2700 
L 1759 2700 
L 1759 1216 
Q 1759 972 1856 886 
Q 1953 800 2241 800 
L 2816 800 
L 2816 0 
L 1856 0 
Q 1194 0 917 276 
Q 641 553 641 1216 
L 641 2700 
L 84 2700 
L 84 3500 
L 641 3500 
L 641 4494 
L 1759 4494 
z
" transform="scale(0.015625)"/>
      <path id="DejaVuSans-Bold-73" d="M 3272 3391 
L 3272 2541 
Q 2913 2691 2578 2766 
Q 2244 2841 1947 2841 
Q 1628 2841 1473 2761 
Q 1319 2681 1319 2516 
Q 1319 2381 1436 2309 
Q 1553 2238 1856 2203 
L 2053 2175 
Q 2913 2066 3209 1816 
Q 3506 1566 3506 1031 
Q 3506 472 3093 190 
Q 2681 -91 1863 -91 
Q 1516 -91 1145 -36 
Q 775 19 384 128 
L 384 978 
Q 719 816 1070 734 
Q 1422 653 1784 653 
Q 2113 653 2278 743 
Q 2444 834 2444 1013 
Q 2444 1163 2330 1236 
Q 2216 1309 1875 1350 
L 1678 1375 
Q 931 1469 631 1722 
Q 331 1975 331 2491 
Q 331 3047 712 3315 
Q 1094 3584 1881 3584 
Q 2191 3584 2531 3537 
Q 2872 3491 3272 3391 
z
" transform="scale(0.015625)"/>
      <path id="DejaVuSans-Bold-20" transform="scale(0.015625)"/>
      <path id="DejaVuSans-Bold-61" d="M 2106 1575 
Q 1756 1575 1579 1456 
Q 1403 1338 1403 1106 
Q 1403 894 1545 773 
Q 1688 653 1941 653 
Q 2256 653 2472 879 
Q 2688 1106 2688 1447 
L 2688 1575 
L 2106 1575 
z
M 3816 1997 
L 3816 0 
L 2688 0 
L 2688 519 
Q 2463 200 2181 54 
Q 1900 -91 1497 -91 
Q 953 -91 614 226 
Q 275 544 275 1050 
Q 275 1666 698 1953 
Q 1122 2241 2028 2241 
L 2688 2241 
L 2688 2328 
Q 2688 2594 2478 2717 
Q 2269 2841 1825 2841 
Q 1466 2841 1156 2769 
Q 847 2697 581 2553 
L 581 3406 
Q 941 3494 1303 3539 
Q 1666 3584 2028 3584 
Q 2975 3584 3395 3211 
Q 3816 2838 3816 1997 
z
" transform="scale(0.015625)"/>
      <path id="DejaVuSans-Bold-68" d="M 4056 2131 
L 4056 0 
L 2931 0 
L 2931 347 
L 2931 1625 
Q 2931 2084 2911 2256 
Q 2891 2428 2841 2509 
Q 2775 2619 2662 2680 
Q 2550 2741 2406 2741 
Q 2056 2741 1856 2470 
Q 1656 2200 1656 1722 
L 1656 0 
L 538 0 
L 538 4863 
L 1656 4863 
L 1656 2988 
Q 1909 3294 2193 3439 
Q 2478 3584 2822 3584 
Q 3428 3584 3742 3212 
Q 4056 2841 4056 2131 
z
" transform="scale(0.015625)"/>
      <path id="DejaVuSans-Bold-66" d="M 2841 4863 
L 2841 4128 
L 2222 4128 
Q 1984 4128 1890 4042 
Q 1797 3956 1797 3744 
L 1797 3500 
L 2753 3500 
L 2753 2700 
L 1797 2700 
L 1797 0 
L 678 0 
L 678 2700 
L 122 2700 
L 122 3500 
L 678 3500 
L 678 3744 
Q 678 4316 997 4589 
Q 1316 4863 1984 4863 
L 2841 4863 
z
" transform="scale(0.015625)"/>
      <path id="DejaVuSans-Bold-6e" d="M 4056 2131 
L 4056 0 
L 2931 0 
L 2931 347 
L 2931 1631 
Q 2931 2084 2911 2256 
Q 2891 2428 2841 2509 
Q 2775 2619 2662 2680 
Q 2550 2741 2406 2741 
Q 2056 2741 1856 2470 
Q 1656 2200 1656 1722 
L 1656 0 
L 538 0 
L 538 3500 
L 1656 3500 
L 1656 2988 
Q 1909 3294 2193 3439 
Q 2478 3584 2822 3584 
Q 3428 3584 3742 3212 
Q 4056 2841 4056 2131 
z
" transform="scale(0.015625)"/>
      <path id="DejaVuSans-Bold-6d" d="M 3781 2919 
Q 3994 3244 4286 3414 
Q 4578 3584 4928 3584 
Q 5531 3584 5847 3212 
Q 6163 2841 6163 2131 
L 6163 0 
L 5038 0 
L 5038 1825 
Q 5041 1866 5042 1909 
Q 5044 1953 5044 2034 
Q 5044 2406 4934 2573 
Q 4825 2741 4581 2741 
Q 4263 2741 4089 2478 
Q 3916 2216 3909 1719 
L 3909 0 
L 2784 0 
L 2784 1825 
Q 2784 2406 2684 2573 
Q 2584 2741 2328 2741 
Q 2006 2741 1831 2477 
Q 1656 2213 1656 1722 
L 1656 0 
L 531 0 
L 531 3500 
L 1656 3500 
L 1656 2988 
Q 1863 3284 2130 3434 
Q 2397 3584 2719 3584 
Q 3081 3584 3359 3409 
Q 3638 3234 3781 2919 
z
" transform="scale(0.015625)"/>
     </defs>
     <use xlink:href="#DejaVuSans-Bold-56"/>
     <use xlink:href="#DejaVuSans-Bold-65" x="71.892578"/>
     <use xlink:href="#DejaVuSans-Bold-6c" x="139.714844"/>
     <use xlink:href="#DejaVuSans-Bold-6f" x="173.992188"/>
     <use xlink:href="#DejaVuSans-Bold-63" x="242.693359"/>
     <use xlink:href="#DejaVuSans-Bold-69" x="301.970703"/>
     <use xlink:href="#DejaVuSans-Bold-74" x="336.248047"/>
     <use xlink:href="#DejaVuSans-Bold-69" x="384.050781"/>
     <use xlink:href="#DejaVuSans-Bold-65" x="418.328125"/>
     <use xlink:href="#DejaVuSans-Bold-73" x="486.150391"/>
     <use xlink:href="#DejaVuSans-Bold-20" x="545.671875"/>
     <use xlink:href="#DejaVuSans-Bold-61" x="580.486328"/>
     <use xlink:href="#DejaVuSans-Bold-74" x="647.966797"/>
     <use xlink:href="#DejaVuSans-Bold-20" x="695.769531"/>
     <use xlink:href="#DejaVuSans-Bold-74" x="730.583984"/>
     <use xlink:href="#DejaVuSans-Bold-68" x="778.386719"/>
     <use xlink:href="#DejaVuSans-Bold-65" x="849.578125"/>
     <use xlink:href="#DejaVuSans-Bold-20" x="917.400391"/>
     <use xlink:href="#DejaVuSans-Bold-66" x="952.214844"/>
     <use xlink:href="#DejaVuSans-Bold-69" x="995.720703"/>
     <use xlink:href="#DejaVuSans-Bold-6e" x="1029.998047"/>
     <use xlink:href="#DejaVuSans-Bold-61" x="1101.189453"/>
     <use xlink:href="#DejaVuSans-Bold-6c" x="1168.669922"/>
     <use xlink:href="#DejaVuSans-Bold-20" x="1202.947266"/>
     <use xlink:href="#DejaVuSans-Bold-74" x="1237.761719"/>
     <use xlink:href="#DejaVuSans-Bold-69" x="1285.564453"/>
     <use xlink:href="#DejaVuSans-Bold-6d" x="1319.841797"/>
     <use xlink:href="#DejaVuSans-Bold-65" x="1424.041016"/>
    </g>
   </g>
  </g>
 </g>
 <defs>
  <clipPath id="p14cd36f19b">
   <rect x="57.6" y="41.472" width="357.12" height="266.112"/>
  </clipPath>
 </defs>
</svg>
