<?xml version="1.0" encoding="utf-8" standalone="no"?>
<!DOCTYPE svg PUBLIC "-//W3C//DTD SVG 1.1//EN"
  "http://www.w3.org/Graphics/SVG/1.1/DTD/svg11.dtd">
<svg xmlns:xlink="http://www.w3.org/1999/xlink" width="460.8pt" height="345.6pt" viewBox="0 0 460.8 345.6" xmlns="http://www.w3.org/2000/svg" version="1.1">
 <metadata>
  <rdf:RDF xmlns:dc="http://purl.org/dc/elements/1.1/" xmlns:cc="http://creativecommons.org/ns#" xmlns:rdf="http://www.w3.org/1999/02/22-rdf-syntax-ns#">
   <cc:Work>
    <dc:type rdf:resource="http://purl.org/dc/dcmitype/StillImage"/>
    <dc:date>2025-02-27T11:40:11.177152</dc:date>
    <dc:format>image/svg+xml</dc:format>
    <dc:creator>
     <cc:Agent>
      <dc:title>Matplotlib v3.6.3, https://matplotlib.org/</dc:title>
     </cc:Agent>
    </dc:creator>
   </cc:Work>
  </rdf:RDF>
 </metadata>
 <defs>
  <style type="text/css">*{stroke-linejoin: round; stroke-linecap: butt}</style>
 </defs>
 <g id="figure_1">
  <g id="patch_1">
   <path d="M 0 345.6 
L 460.8 345.6 
L 460.8 0 
L 0 0 
z
" style="fill: #ffffff"/>
  </g>
  <g id="axes_1">
   <g id="patch_2">
    <path d="M 57.6 307.584 
L 414.72 307.584 
L 414.72 41.472 
L 57.6 41.472 
z
" style="fill: #ffffff"/>
   </g>
   <g id="matplotlib.axis_1">
    <g id="xtick_1">
     <g id="line2d_1">
      <defs>
       <path id="m1ef5ee080f" d="M 0 0 
L 0 3.5 
" style="stroke: #000000; stroke-width: 0.8"/>
      </defs>
      <g>
       <use xlink:href="#m1ef5ee080f" x="73.832727" y="307.584" style="stroke: #000000; stroke-width: 0.8"/>
      </g>
     </g>
     <g id="text_1">
      <!-- 0 -->
      <g transform="translate(70.015227 323.702125) scale(0.12 -0.12)">
       <defs>
        <path id="DejaVuSans-30" d="M 2034 4250 
Q 1547 4250 1301 3770 
Q 1056 3291 1056 2328 
Q 1056 1369 1301 889 
Q 1547 409 2034 409 
Q 2525 409 2770 889 
Q 3016 1369 3016 2328 
Q 3016 3291 2770 3770 
Q 2525 4250 2034 4250 
z
M 2034 4750 
Q 2819 4750 3233 4129 
Q 3647 3509 3647 2328 
Q 3647 1150 3233 529 
Q 2819 -91 2034 -91 
Q 1250 -91 836 529 
Q 422 1150 422 2328 
Q 422 3509 836 4129 
Q 1250 4750 2034 4750 
z
" transform="scale(0.015625)"/>
       </defs>
       <use xlink:href="#DejaVuSans-30"/>
      </g>
     </g>
    </g>
    <g id="xtick_2">
     <g id="line2d_2">
      <g>
       <use xlink:href="#m1ef5ee080f" x="138.77013" y="307.584" style="stroke: #000000; stroke-width: 0.8"/>
      </g>
     </g>
     <g id="text_2">
      <!-- 2000 -->
      <g transform="translate(123.50013 323.702125) scale(0.12 -0.12)">
       <defs>
        <path id="DejaVuSans-32" d="M 1228 531 
L 3431 531 
L 3431 0 
L 469 0 
L 469 531 
Q 828 903 1448 1529 
Q 2069 2156 2228 2338 
Q 2531 2678 2651 2914 
Q 2772 3150 2772 3378 
Q 2772 3750 2511 3984 
Q 2250 4219 1831 4219 
Q 1534 4219 1204 4116 
Q 875 4013 500 3803 
L 500 4441 
Q 881 4594 1212 4672 
Q 1544 4750 1819 4750 
Q 2544 4750 2975 4387 
Q 3406 4025 3406 3419 
Q 3406 3131 3298 2873 
Q 3191 2616 2906 2266 
Q 2828 2175 2409 1742 
Q 1991 1309 1228 531 
z
" transform="scale(0.015625)"/>
       </defs>
       <use xlink:href="#DejaVuSans-32"/>
       <use xlink:href="#DejaVuSans-30" x="63.623047"/>
       <use xlink:href="#DejaVuSans-30" x="127.246094"/>
       <use xlink:href="#DejaVuSans-30" x="190.869141"/>
      </g>
     </g>
    </g>
    <g id="xtick_3">
     <g id="line2d_3">
      <g>
       <use xlink:href="#m1ef5ee080f" x="203.707533" y="307.584" style="stroke: #000000; stroke-width: 0.8"/>
      </g>
     </g>
     <g id="text_3">
      <!-- 4000 -->
      <g transform="translate(188.437533 323.702125) scale(0.12 -0.12)">
       <defs>
        <path id="DejaVuSans-34" d="M 2419 4116 
L 825 1625 
L 2419 1625 
L 2419 4116 
z
M 2253 4666 
L 3047 4666 
L 3047 1625 
L 3713 1625 
L 3713 1100 
L 3047 1100 
L 3047 0 
L 2419 0 
L 2419 1100 
L 313 1100 
L 313 1709 
L 2253 4666 
z
" transform="scale(0.015625)"/>
       </defs>
       <use xlink:href="#DejaVuSans-34"/>
       <use xlink:href="#DejaVuSans-30" x="63.623047"/>
       <use xlink:href="#DejaVuSans-30" x="127.246094"/>
       <use xlink:href="#DejaVuSans-30" x="190.869141"/>
      </g>
     </g>
    </g>
    <g id="xtick_4">
     <g id="line2d_4">
      <g>
       <use xlink:href="#m1ef5ee080f" x="268.644936" y="307.584" style="stroke: #000000; stroke-width: 0.8"/>
      </g>
     </g>
     <g id="text_4">
      <!-- 6000 -->
      <g transform="translate(253.374936 323.702125) scale(0.12 -0.12)">
       <defs>
        <path id="DejaVuSans-36" d="M 2113 2584 
Q 1688 2584 1439 2293 
Q 1191 2003 1191 1497 
Q 1191 994 1439 701 
Q 1688 409 2113 409 
Q 2538 409 2786 701 
Q 3034 994 3034 1497 
Q 3034 2003 2786 2293 
Q 2538 2584 2113 2584 
z
M 3366 4563 
L 3366 3988 
Q 3128 4100 2886 4159 
Q 2644 4219 2406 4219 
Q 1781 4219 1451 3797 
Q 1122 3375 1075 2522 
Q 1259 2794 1537 2939 
Q 1816 3084 2150 3084 
Q 2853 3084 3261 2657 
Q 3669 2231 3669 1497 
Q 3669 778 3244 343 
Q 2819 -91 2113 -91 
Q 1303 -91 875 529 
Q 447 1150 447 2328 
Q 447 3434 972 4092 
Q 1497 4750 2381 4750 
Q 2619 4750 2861 4703 
Q 3103 4656 3366 4563 
z
" transform="scale(0.015625)"/>
       </defs>
       <use xlink:href="#DejaVuSans-36"/>
       <use xlink:href="#DejaVuSans-30" x="63.623047"/>
       <use xlink:href="#DejaVuSans-30" x="127.246094"/>
       <use xlink:href="#DejaVuSans-30" x="190.869141"/>
      </g>
     </g>
    </g>
    <g id="xtick_5">
     <g id="line2d_5">
      <g>
       <use xlink:href="#m1ef5ee080f" x="333.582339" y="307.584" style="stroke: #000000; stroke-width: 0.8"/>
      </g>
     </g>
     <g id="text_5">
      <!-- 8000 -->
      <g transform="translate(318.312339 323.702125) scale(0.12 -0.12)">
       <defs>
        <path id="DejaVuSans-38" d="M 2034 2216 
Q 1584 2216 1326 1975 
Q 1069 1734 1069 1313 
Q 1069 891 1326 650 
Q 1584 409 2034 409 
Q 2484 409 2743 651 
Q 3003 894 3003 1313 
Q 3003 1734 2745 1975 
Q 2488 2216 2034 2216 
z
M 1403 2484 
Q 997 2584 770 2862 
Q 544 3141 544 3541 
Q 544 4100 942 4425 
Q 1341 4750 2034 4750 
Q 2731 4750 3128 4425 
Q 3525 4100 3525 3541 
Q 3525 3141 3298 2862 
Q 3072 2584 2669 2484 
Q 3125 2378 3379 2068 
Q 3634 1759 3634 1313 
Q 3634 634 3220 271 
Q 2806 -91 2034 -91 
Q 1263 -91 848 271 
Q 434 634 434 1313 
Q 434 1759 690 2068 
Q 947 2378 1403 2484 
z
M 1172 3481 
Q 1172 3119 1398 2916 
Q 1625 2713 2034 2713 
Q 2441 2713 2670 2916 
Q 2900 3119 2900 3481 
Q 2900 3844 2670 4047 
Q 2441 4250 2034 4250 
Q 1625 4250 1398 4047 
Q 1172 3844 1172 3481 
z
" transform="scale(0.015625)"/>
       </defs>
       <use xlink:href="#DejaVuSans-38"/>
       <use xlink:href="#DejaVuSans-30" x="63.623047"/>
       <use xlink:href="#DejaVuSans-30" x="127.246094"/>
       <use xlink:href="#DejaVuSans-30" x="190.869141"/>
      </g>
     </g>
    </g>
    <g id="xtick_6">
     <g id="line2d_6">
      <g>
       <use xlink:href="#m1ef5ee080f" x="398.519741" y="307.584" style="stroke: #000000; stroke-width: 0.8"/>
      </g>
     </g>
     <g id="text_6">
      <!-- 10000 -->
      <g transform="translate(379.432241 323.702125) scale(0.12 -0.12)">
       <defs>
        <path id="DejaVuSans-31" d="M 794 531 
L 1825 531 
L 1825 4091 
L 703 3866 
L 703 4441 
L 1819 4666 
L 2450 4666 
L 2450 531 
L 3481 531 
L 3481 0 
L 794 0 
L 794 531 
z
" transform="scale(0.015625)"/>
       </defs>
       <use xlink:href="#DejaVuSans-31"/>
       <use xlink:href="#DejaVuSans-30" x="63.623047"/>
       <use xlink:href="#DejaVuSans-30" x="127.246094"/>
       <use xlink:href="#DejaVuSans-30" x="190.869141"/>
       <use xlink:href="#DejaVuSans-30" x="254.492188"/>
      </g>
     </g>
    </g>
    <g id="text_7">
     <!-- Step -->
     <g transform="translate(220.220781 340.835562) scale(0.14 -0.14)">
      <defs>
       <path id="DejaVuSans-53" d="M 3425 4513 
L 3425 3897 
Q 3066 4069 2747 4153 
Q 2428 4238 2131 4238 
Q 1616 4238 1336 4038 
Q 1056 3838 1056 3469 
Q 1056 3159 1242 3001 
Q 1428 2844 1947 2747 
L 2328 2669 
Q 3034 2534 3370 2195 
Q 3706 1856 3706 1288 
Q 3706 609 3251 259 
Q 2797 -91 1919 -91 
Q 1588 -91 1214 -16 
Q 841 59 441 206 
L 441 856 
Q 825 641 1194 531 
Q 1563 422 1919 422 
Q 2459 422 2753 634 
Q 3047 847 3047 1241 
Q 3047 1584 2836 1778 
Q 2625 1972 2144 2069 
L 1759 2144 
Q 1053 2284 737 2584 
Q 422 2884 422 3419 
Q 422 4038 858 4394 
Q 1294 4750 2059 4750 
Q 2388 4750 2728 4690 
Q 3069 4631 3425 4513 
z
" transform="scale(0.015625)"/>
       <path id="DejaVuSans-74" d="M 1172 4494 
L 1172 3500 
L 2356 3500 
L 2356 3053 
L 1172 3053 
L 1172 1153 
Q 1172 725 1289 603 
Q 1406 481 1766 481 
L 2356 481 
L 2356 0 
L 1766 0 
Q 1100 0 847 248 
Q 594 497 594 1153 
L 594 3053 
L 172 3053 
L 172 3500 
L 594 3500 
L 594 4494 
L 1172 4494 
z
" transform="scale(0.015625)"/>
       <path id="DejaVuSans-65" d="M 3597 1894 
L 3597 1613 
L 953 1613 
Q 991 1019 1311 708 
Q 1631 397 2203 397 
Q 2534 397 2845 478 
Q 3156 559 3463 722 
L 3463 178 
Q 3153 47 2828 -22 
Q 2503 -91 2169 -91 
Q 1331 -91 842 396 
Q 353 884 353 1716 
Q 353 2575 817 3079 
Q 1281 3584 2069 3584 
Q 2775 3584 3186 3129 
Q 3597 2675 3597 1894 
z
M 3022 2063 
Q 3016 2534 2758 2815 
Q 2500 3097 2075 3097 
Q 1594 3097 1305 2825 
Q 1016 2553 972 2059 
L 3022 2063 
z
" transform="scale(0.015625)"/>
       <path id="DejaVuSans-70" d="M 1159 525 
L 1159 -1331 
L 581 -1331 
L 581 3500 
L 1159 3500 
L 1159 2969 
Q 1341 3281 1617 3432 
Q 1894 3584 2278 3584 
Q 2916 3584 3314 3078 
Q 3713 2572 3713 1747 
Q 3713 922 3314 415 
Q 2916 -91 2278 -91 
Q 1894 -91 1617 61 
Q 1341 213 1159 525 
z
M 3116 1747 
Q 3116 2381 2855 2742 
Q 2594 3103 2138 3103 
Q 1681 3103 1420 2742 
Q 1159 2381 1159 1747 
Q 1159 1113 1420 752 
Q 1681 391 2138 391 
Q 2594 391 2855 752 
Q 3116 1113 3116 1747 
z
" transform="scale(0.015625)"/>
      </defs>
      <use xlink:href="#DejaVuSans-53"/>
      <use xlink:href="#DejaVuSans-74" x="63.476562"/>
      <use xlink:href="#DejaVuSans-65" x="102.685547"/>
      <use xlink:href="#DejaVuSans-70" x="164.208984"/>
     </g>
    </g>
   </g>
   <g id="matplotlib.axis_2">
    <g id="ytick_1">
     <g id="line2d_7">
      <defs>
       <path id="mf6b739bc85" d="M 0 0 
L -3.5 0 
" style="stroke: #000000; stroke-width: 0.8"/>
      </defs>
      <g>
       <use xlink:href="#mf6b739bc85" x="57.6" y="303.438689" style="stroke: #000000; stroke-width: 0.8"/>
      </g>
     </g>
     <g id="text_8">
      <!-- −1.00 -->
      <g transform="translate(13.825625 307.997751) scale(0.12 -0.12)">
       <defs>
        <path id="DejaVuSans-2212" d="M 678 2272 
L 4684 2272 
L 4684 1741 
L 678 1741 
L 678 2272 
z
" transform="scale(0.015625)"/>
        <path id="DejaVuSans-2e" d="M 684 794 
L 1344 794 
L 1344 0 
L 684 0 
L 684 794 
z
" transform="scale(0.015625)"/>
       </defs>
       <use xlink:href="#DejaVuSans-2212"/>
       <use xlink:href="#DejaVuSans-31" x="83.789062"/>
       <use xlink:href="#DejaVuSans-2e" x="147.412109"/>
       <use xlink:href="#DejaVuSans-30" x="179.199219"/>
       <use xlink:href="#DejaVuSans-30" x="242.822266"/>
      </g>
     </g>
    </g>
    <g id="ytick_2">
     <g id="line2d_8">
      <g>
       <use xlink:href="#mf6b739bc85" x="57.6" y="272.193904" style="stroke: #000000; stroke-width: 0.8"/>
      </g>
     </g>
     <g id="text_9">
      <!-- −0.75 -->
      <g transform="translate(13.825625 276.752967) scale(0.12 -0.12)">
       <defs>
        <path id="DejaVuSans-37" d="M 525 4666 
L 3525 4666 
L 3525 4397 
L 1831 0 
L 1172 0 
L 2766 4134 
L 525 4134 
L 525 4666 
z
" transform="scale(0.015625)"/>
        <path id="DejaVuSans-35" d="M 691 4666 
L 3169 4666 
L 3169 4134 
L 1269 4134 
L 1269 2991 
Q 1406 3038 1543 3061 
Q 1681 3084 1819 3084 
Q 2600 3084 3056 2656 
Q 3513 2228 3513 1497 
Q 3513 744 3044 326 
Q 2575 -91 1722 -91 
Q 1428 -91 1123 -41 
Q 819 9 494 109 
L 494 744 
Q 775 591 1075 516 
Q 1375 441 1709 441 
Q 2250 441 2565 725 
Q 2881 1009 2881 1497 
Q 2881 1984 2565 2268 
Q 2250 2553 1709 2553 
Q 1456 2553 1204 2497 
Q 953 2441 691 2322 
L 691 4666 
z
" transform="scale(0.015625)"/>
       </defs>
       <use xlink:href="#DejaVuSans-2212"/>
       <use xlink:href="#DejaVuSans-30" x="83.789062"/>
       <use xlink:href="#DejaVuSans-2e" x="147.412109"/>
       <use xlink:href="#DejaVuSans-37" x="179.199219"/>
       <use xlink:href="#DejaVuSans-35" x="242.822266"/>
      </g>
     </g>
    </g>
    <g id="ytick_3">
     <g id="line2d_9">
      <g>
       <use xlink:href="#mf6b739bc85" x="57.6" y="240.94912" style="stroke: #000000; stroke-width: 0.8"/>
      </g>
     </g>
     <g id="text_10">
      <!-- −0.50 -->
      <g transform="translate(13.825625 245.508182) scale(0.12 -0.12)">
       <use xlink:href="#DejaVuSans-2212"/>
       <use xlink:href="#DejaVuSans-30" x="83.789062"/>
       <use xlink:href="#DejaVuSans-2e" x="147.412109"/>
       <use xlink:href="#DejaVuSans-35" x="179.199219"/>
       <use xlink:href="#DejaVuSans-30" x="242.822266"/>
      </g>
     </g>
    </g>
    <g id="ytick_4">
     <g id="line2d_10">
      <g>
       <use xlink:href="#mf6b739bc85" x="57.6" y="209.704335" style="stroke: #000000; stroke-width: 0.8"/>
      </g>
     </g>
     <g id="text_11">
      <!-- −0.25 -->
      <g transform="translate(13.825625 214.263398) scale(0.12 -0.12)">
       <use xlink:href="#DejaVuSans-2212"/>
       <use xlink:href="#DejaVuSans-30" x="83.789062"/>
       <use xlink:href="#DejaVuSans-2e" x="147.412109"/>
       <use xlink:href="#DejaVuSans-32" x="179.199219"/>
       <use xlink:href="#DejaVuSans-35" x="242.822266"/>
      </g>
     </g>
    </g>
    <g id="ytick_5">
     <g id="line2d_11">
      <g>
       <use xlink:href="#mf6b739bc85" x="57.6" y="178.459551" style="stroke: #000000; stroke-width: 0.8"/>
      </g>
     </g>
     <g id="text_12">
      <!-- 0.00 -->
      <g transform="translate(23.88125 183.018613) scale(0.12 -0.12)">
       <use xlink:href="#DejaVuSans-30"/>
       <use xlink:href="#DejaVuSans-2e" x="63.623047"/>
       <use xlink:href="#DejaVuSans-30" x="95.410156"/>
       <use xlink:href="#DejaVuSans-30" x="159.033203"/>
      </g>
     </g>
    </g>
    <g id="ytick_6">
     <g id="line2d_12">
      <g>
       <use xlink:href="#mf6b739bc85" x="57.6" y="147.214766" style="stroke: #000000; stroke-width: 0.8"/>
      </g>
     </g>
     <g id="text_13">
      <!-- 0.25 -->
      <g transform="translate(23.88125 151.773829) scale(0.12 -0.12)">
       <use xlink:href="#DejaVuSans-30"/>
       <use xlink:href="#DejaVuSans-2e" x="63.623047"/>
       <use xlink:href="#DejaVuSans-32" x="95.410156"/>
       <use xlink:href="#DejaVuSans-35" x="159.033203"/>
      </g>
     </g>
    </g>
    <g id="ytick_7">
     <g id="line2d_13">
      <g>
       <use xlink:href="#mf6b739bc85" x="57.6" y="115.969982" style="stroke: #000000; stroke-width: 0.8"/>
      </g>
     </g>
     <g id="text_14">
      <!-- 0.50 -->
      <g transform="translate(23.88125 120.529044) scale(0.12 -0.12)">
       <use xlink:href="#DejaVuSans-30"/>
       <use xlink:href="#DejaVuSans-2e" x="63.623047"/>
       <use xlink:href="#DejaVuSans-35" x="95.410156"/>
       <use xlink:href="#DejaVuSans-30" x="159.033203"/>
      </g>
     </g>
    </g>
    <g id="ytick_8">
     <g id="line2d_14">
      <g>
       <use xlink:href="#mf6b739bc85" x="57.6" y="84.725198" style="stroke: #000000; stroke-width: 0.8"/>
      </g>
     </g>
     <g id="text_15">
      <!-- 0.75 -->
      <g transform="translate(23.88125 89.28426) scale(0.12 -0.12)">
       <use xlink:href="#DejaVuSans-30"/>
       <use xlink:href="#DejaVuSans-2e" x="63.623047"/>
       <use xlink:href="#DejaVuSans-37" x="95.410156"/>
       <use xlink:href="#DejaVuSans-35" x="159.033203"/>
      </g>
     </g>
    </g>
    <g id="ytick_9">
     <g id="line2d_15">
      <g>
       <use xlink:href="#mf6b739bc85" x="57.6" y="53.480413" style="stroke: #000000; stroke-width: 0.8"/>
      </g>
     </g>
     <g id="text_16">
      <!-- 1.00 -->
      <g transform="translate(23.88125 58.039476) scale(0.12 -0.12)">
       <use xlink:href="#DejaVuSans-31"/>
       <use xlink:href="#DejaVuSans-2e" x="63.623047"/>
       <use xlink:href="#DejaVuSans-30" x="95.410156"/>
       <use xlink:href="#DejaVuSans-30" x="159.033203"/>
      </g>
     </g>
    </g>
    <g id="text_17">
     <!-- Opinion -->
     <g transform="translate(6.914062 201.527219) rotate(-90) scale(0.14 -0.14)">
      <defs>
       <path id="DejaVuSans-4f" d="M 2522 4238 
Q 1834 4238 1429 3725 
Q 1025 3213 1025 2328 
Q 1025 1447 1429 934 
Q 1834 422 2522 422 
Q 3209 422 3611 934 
Q 4013 1447 4013 2328 
Q 4013 3213 3611 3725 
Q 3209 4238 2522 4238 
z
M 2522 4750 
Q 3503 4750 4090 4092 
Q 4678 3434 4678 2328 
Q 4678 1225 4090 567 
Q 3503 -91 2522 -91 
Q 1538 -91 948 565 
Q 359 1222 359 2328 
Q 359 3434 948 4092 
Q 1538 4750 2522 4750 
z
" transform="scale(0.015625)"/>
       <path id="DejaVuSans-69" d="M 603 3500 
L 1178 3500 
L 1178 0 
L 603 0 
L 603 3500 
z
M 603 4863 
L 1178 4863 
L 1178 4134 
L 603 4134 
L 603 4863 
z
" transform="scale(0.015625)"/>
       <path id="DejaVuSans-6e" d="M 3513 2113 
L 3513 0 
L 2938 0 
L 2938 2094 
Q 2938 2591 2744 2837 
Q 2550 3084 2163 3084 
Q 1697 3084 1428 2787 
Q 1159 2491 1159 1978 
L 1159 0 
L 581 0 
L 581 3500 
L 1159 3500 
L 1159 2956 
Q 1366 3272 1645 3428 
Q 1925 3584 2291 3584 
Q 2894 3584 3203 3211 
Q 3513 2838 3513 2113 
z
" transform="scale(0.015625)"/>
       <path id="DejaVuSans-6f" d="M 1959 3097 
Q 1497 3097 1228 2736 
Q 959 2375 959 1747 
Q 959 1119 1226 758 
Q 1494 397 1959 397 
Q 2419 397 2687 759 
Q 2956 1122 2956 1747 
Q 2956 2369 2687 2733 
Q 2419 3097 1959 3097 
z
M 1959 3584 
Q 2709 3584 3137 3096 
Q 3566 2609 3566 1747 
Q 3566 888 3137 398 
Q 2709 -91 1959 -91 
Q 1206 -91 779 398 
Q 353 888 353 1747 
Q 353 2609 779 3096 
Q 1206 3584 1959 3584 
z
" transform="scale(0.015625)"/>
      </defs>
      <use xlink:href="#DejaVuSans-4f"/>
      <use xlink:href="#DejaVuSans-70" x="78.710938"/>
      <use xlink:href="#DejaVuSans-69" x="142.1875"/>
      <use xlink:href="#DejaVuSans-6e" x="169.970703"/>
      <use xlink:href="#DejaVuSans-69" x="233.349609"/>
      <use xlink:href="#DejaVuSans-6f" x="261.132812"/>
      <use xlink:href="#DejaVuSans-6e" x="322.314453"/>
     </g>
    </g>
   </g>
   <g id="line2d_16">
    <path d="M 73.832727 292.965087 
L 74.77432 290.270058 
L 80.391405 278.583723 
L 81.592747 275.005872 
L 82.988901 271.229017 
L 83.313588 270.199883 
L 85.131835 264.851706 
L 86.235771 262.53207 
L 89.222892 258.479321 
L 90.586577 257.21241 
L 91.75545 256.138727 
L 92.76198 255.319325 
L 94.969852 253.778295 
L 96.690693 252.896425 
L 98.606346 252.181698 
L 100.554469 251.662787 
L 103.444183 251.124088 
L 107.210552 250.691891 
L 115.652415 250.046035 
L 122.957873 249.932512 
L 143.153405 249.927834 
L 359.979393 249.896312 
L 398.487273 249.896188 
L 398.487273 249.896188 
" clip-path="url(#p4ea68a34e1)" style="fill: none; stroke: #0000ff; stroke-width: 1.5; stroke-linecap: square"/>
   </g>
   <g id="line2d_17">
    <path d="M 73.832727 259.899249 
L 74.352226 260.271854 
L 75.131475 259.498328 
L 77.209472 256.346517 
L 78.02119 255.611445 
L 78.216002 255.620111 
L 79.482281 256.189242 
L 80.034249 256.247693 
L 81.040779 256.26617 
L 82.112246 256.382775 
L 82.307058 256.277239 
L 86.138365 253.630578 
L 86.950083 253.319223 
L 88.476112 253.479173 
L 90.002141 253.461685 
L 96.398475 252.897874 
L 102.405185 251.932018 
L 105.749461 251.386287 
L 109.905455 250.924931 
L 115.360196 250.55 
L 123.055279 250.25595 
L 134.679074 250.055631 
L 155.166824 249.944985 
L 219.389916 249.901153 
L 398.487273 249.896171 
L 398.487273 249.896171 
" clip-path="url(#p4ea68a34e1)" style="fill: none; stroke: #0000ff; stroke-width: 1.5; stroke-linecap: square"/>
   </g>
   <g id="line2d_18">
    <path d="M 73.832727 162.111778 
L 74.092477 162.381685 
L 74.51457 162.652211 
L 75.423694 162.811342 
L 75.748381 162.735715 
L 76.00813 162.535826 
L 76.625036 162.233488 
L 78.378345 162.373077 
L 79.060188 162.387119 
L 79.612156 162.444786 
L 79.969312 161.733487 
L 81.105716 159.183898 
L 81.690153 156.855411 
L 82.177184 154.469119 
L 84.807148 138.178306 
L 85.748741 133.882801 
L 86.365646 131.984206 
L 86.917614 130.882771 
L 87.664394 129.889694 
L 89.709922 127.866875 
L 90.554109 127.39824 
L 93.606166 126.05238 
L 94.547759 125.592204 
L 96.106256 125.180618 
L 103.02209 124.617352 
L 108.346957 124.474198 
L 119.451253 124.421619 
L 222.604317 124.409696 
L 398.487273 124.409695 
L 398.487273 124.409695 
" clip-path="url(#p4ea68a34e1)" style="fill: none; stroke: #0000ff; stroke-width: 1.5; stroke-linecap: square"/>
   </g>
   <g id="line2d_19">
    <path d="M 73.832727 260.22311 
L 74.449633 260.936286 
L 75.163944 261.407095 
L 75.845787 261.630683 
L 77.371816 261.801724 
L 78.183533 261.608843 
L 78.995251 261.584808 
L 79.742031 261.289104 
L 80.26153 261.10454 
L 81.982371 260.585114 
L 82.501871 260.201275 
L 84.320118 257.65613 
L 86.852677 254.940036 
L 87.437113 254.603118 
L 92.697043 252.394316 
L 94.710102 252.450297 
L 99.970032 252.458647 
L 103.087027 252.201773 
L 109.678174 251.379555 
L 116.236851 250.820954 
L 123.477372 250.434932 
L 132.958233 250.166289 
L 147.601617 249.998539 
L 178.122196 249.917542 
L 327.218473 249.896497 
L 398.487273 249.896174 
L 398.487273 249.896174 
" clip-path="url(#p4ea68a34e1)" style="fill: none; stroke: #0000ff; stroke-width: 1.5; stroke-linecap: square"/>
   </g>
   <g id="line2d_20">
    <path d="M 73.832727 161.809711 
L 74.547039 162.525801 
L 75.748381 162.784414 
L 76.300349 162.389899 
L 76.982191 161.719788 
L 77.469222 161.412015 
L 77.664034 161.433655 
L 78.475752 161.447086 
L 78.962782 161.286081 
L 79.709562 161.095701 
L 80.099187 161.41718 
L 80.423874 161.52066 
L 81.203122 161.154424 
L 81.495341 160.452517 
L 82.144715 158.439732 
L 82.696683 155.746931 
L 84.449993 145.979282 
L 84.872086 144.883764 
L 85.586397 143.948119 
L 86.917614 142.754955 
L 87.404644 142.289891 
L 87.891675 141.616587 
L 88.346237 140.78602 
L 89.969672 137.773883 
L 90.489171 136.565297 
L 92.242481 132.218198 
L 93.184073 130.616089 
L 93.963322 129.573992 
L 94.807508 128.754255 
L 95.749101 128.016519 
L 97.469942 126.981071 
L 99.25572 126.126351 
L 100.684343 125.713367 
L 103.02209 125.309558 
L 105.554649 125.04654 
L 112.697763 124.662395 
L 121.172094 124.496835 
L 138.2831 124.420275 
L 235.429454 124.409696 
L 398.487273 124.409695 
L 398.487273 124.409695 
" clip-path="url(#p4ea68a34e1)" style="fill: none; stroke: #0000ff; stroke-width: 1.5; stroke-linecap: square"/>
   </g>
   <g id="line2d_21">
    <path d="M 73.832727 174.959072 
L 74.287289 174.137979 
L 75.456162 172.728375 
L 76.300349 171.855075 
L 76.625036 171.768686 
L 77.209472 171.460164 
L 78.443283 170.559265 
L 79.871906 167.895838 
L 80.326468 166.454881 
L 81.203122 163.007568 
L 82.859026 154.816664 
L 84.092837 149.620677 
L 84.677274 147.638707 
L 85.359116 145.869127 
L 86.820208 142.466875 
L 88.248831 137.048594 
L 89.450173 132.74666 
L 90.229421 130.791436 
L 91.073608 129.224639 
L 91.722982 128.441893 
L 92.697043 127.762612 
L 93.76851 127.11127 
L 95.424414 126.161031 
L 97.047849 125.57606 
L 99.25572 124.929581 
L 101.366186 124.632671 
L 104.7754 124.414744 
L 110.327548 124.336038 
L 143.218342 124.406601 
L 398.487273 124.409695 
L 398.487273 124.409695 
" clip-path="url(#p4ea68a34e1)" style="fill: none; stroke: #0000ff; stroke-width: 1.5; stroke-linecap: square"/>
   </g>
   <g id="line2d_22">
    <path d="M 73.832727 86.25722 
L 74.449633 87.021346 
L 75.780849 89.652519 
L 77.339347 93.736667 
L 78.183533 95.989457 
L 79.287469 99.040599 
L 79.936843 100.702932 
L 80.845967 103.19201 
L 81.495341 104.701697 
L 83.151245 107.73182 
L 84.872086 112.278391 
L 86.430583 115.059834 
L 87.437113 116.540994 
L 88.411174 117.884148 
L 89.547579 119.421825 
L 90.586577 120.564969 
L 91.787919 121.449922 
L 93.313948 122.400567 
L 94.450353 123.057982 
L 95.391945 123.397339 
L 97.405005 123.628605 
L 99.158314 123.86927 
L 101.950623 124.159529 
L 105.749461 124.317873 
L 113.379606 124.372329 
L 146.302869 124.408946 
L 398.487273 124.409695 
L 398.487273 124.409695 
" clip-path="url(#p4ea68a34e1)" style="fill: none; stroke: #0000ff; stroke-width: 1.5; stroke-linecap: square"/>
   </g>
   <g id="line2d_23">
    <path d="M 73.832727 123.381933 
L 74.124946 123.831268 
L 75.131475 125.18994 
L 75.358756 125.094872 
L 75.845787 124.800985 
L 76.495161 123.081837 
L 77.436753 120.460105 
L 78.930313 116.098951 
L 79.936843 113.036184 
L 80.26153 112.546639 
L 80.456342 112.487736 
L 81.495341 112.822702 
L 81.820028 113.291211 
L 84.25518 118.066082 
L 86.138365 120.645367 
L 87.144895 121.461784 
L 88.346237 122.924483 
L 89.385235 124.042617 
L 90.002141 124.432256 
L 91.106076 124.804078 
L 92.145075 124.906947 
L 93.151605 124.865011 
L 94.904914 124.643391 
L 96.2686 124.506808 
L 105.489711 124.326033 
L 138.997411 124.4091 
L 398.487273 124.409695 
L 398.487273 124.409695 
" clip-path="url(#p4ea68a34e1)" style="fill: none; stroke: #0000ff; stroke-width: 1.5; stroke-linecap: square"/>
   </g>
   <g id="line2d_24">
    <path d="M 73.832727 77.578554 
L 74.384695 77.963275 
L 75.326288 80.672047 
L 76.397755 83.66472 
L 76.722442 83.997912 
L 76.949723 84.078292 
L 77.436753 84.267442 
L 77.858846 84.858869 
L 78.638095 86.38623 
L 79.904374 89.342691 
L 82.664214 94.128863 
L 83.216182 96.538864 
L 84.222712 101.058957 
L 85.034429 103.652841 
L 89.839797 116.080257 
L 91.75545 119.14145 
L 93.281479 121.012197 
L 93.995791 121.672469 
L 94.904914 122.274642 
L 95.911444 122.666138 
L 99.060908 123.408135 
L 102.145435 123.909327 
L 106.593647 124.24247 
L 112.178264 124.34368 
L 132.27639 124.404873 
L 312.28287 124.409695 
L 398.487273 124.409695 
L 398.487273 124.409695 
" clip-path="url(#p4ea68a34e1)" style="fill: none; stroke: #0000ff; stroke-width: 1.5; stroke-linecap: square"/>
   </g>
   <g id="line2d_25">
    <path d="M 73.832727 234.046522 
L 74.51457 234.698282 
L 75.099007 235.132243 
L 75.878255 235.400501 
L 76.982191 235.644565 
L 77.436753 235.930867 
L 77.76144 236.28939 
L 78.313408 236.875814 
L 79.287469 237.680143 
L 79.871906 238.705707 
L 80.358936 239.721948 
L 81.26806 241.209034 
L 81.982371 241.994664 
L 86.592927 245.997244 
L 87.566988 246.768979 
L 89.222892 247.91536 
L 90.489171 248.361102 
L 91.560638 248.401203 
L 93.865916 248.549253 
L 96.203663 248.830629 
L 97.567348 248.953771 
L 102.892215 249.26494 
L 119.191503 249.72599 
L 135.620666 249.878826 
L 168.998491 249.916132 
L 398.487273 249.896185 
L 398.487273 249.896185 
" clip-path="url(#p4ea68a34e1)" style="fill: none; stroke: #0000ff; stroke-width: 1.5; stroke-linecap: square"/>
   </g>
   <g id="line2d_26">
    <path d="M 73.832727 239.28304 
L 76.495161 247.202165 
L 77.891315 249.8159 
L 78.378345 250.177351 
L 78.735501 250.256479 
L 79.190063 250.230862 
L 79.709562 250.170362 
L 80.099187 250.112271 
L 81.073248 250.078042 
L 81.397935 249.988068 
L 82.079777 249.914097 
L 84.092837 249.896239 
L 85.424054 249.75589 
L 86.657864 249.437789 
L 88.183893 249.433188 
L 90.456702 249.804575 
L 91.106076 249.74739 
L 92.242481 249.678931 
L 92.76198 249.814236 
L 95.586757 250.587198 
L 96.885505 250.737387 
L 97.76216 250.665682 
L 101.106436 250.33239 
L 106.431303 250.094413 
L 113.931574 250.03326 
L 118.607067 250.019136 
L 127.665834 249.927612 
L 144.127466 249.808852 
L 170.134896 249.813128 
L 312.834838 249.892654 
L 398.487273 249.895817 
L 398.487273 249.895817 
" clip-path="url(#p4ea68a34e1)" style="fill: none; stroke: #0000ff; stroke-width: 1.5; stroke-linecap: square"/>
   </g>
   <g id="line2d_27">
    <path d="M 73.832727 128.542068 
L 74.384695 128.979615 
L 74.579507 128.852857 
L 75.423694 129.060407 
L 76.073068 129.480508 
L 76.202942 129.414916 
L 76.949723 128.400167 
L 77.696503 126.139372 
L 78.410814 123.343753 
L 78.865376 122.699817 
L 79.222532 122.698197 
L 79.644625 122.827176 
L 80.229061 123.457433 
L 81.300529 125.506589 
L 82.631745 127.631631 
L 82.956432 127.827307 
L 83.281119 127.74177 
L 83.76815 127.300525 
L 85.001961 125.929259 
L 85.52146 125.645953 
L 87.144895 125.147005 
L 88.281299 125.414129 
L 90.651515 126.336684 
L 91.235951 126.326591 
L 92.632105 126.137368 
L 99.51547 124.824243 
L 102.535059 124.554915 
L 107.048209 124.465418 
L 128.834707 124.408522 
L 398.487273 124.409695 
L 398.487273 124.409695 
" clip-path="url(#p4ea68a34e1)" style="fill: none; stroke: #0000ff; stroke-width: 1.5; stroke-linecap: square"/>
   </g>
   <g id="line2d_28">
    <path d="M 73.832727 78.084082 
L 75.391225 78.706286 
L 76.75491 80.101068 
L 77.436753 81.626202 
L 77.858846 82.882198 
L 81.365466 96.879594 
L 83.183713 105.270322 
L 83.898025 108.479883 
L 84.709742 111.291978 
L 85.196773 112.337327 
L 85.813678 113.332267 
L 86.138365 113.568309 
L 86.625396 113.867738 
L 90.781389 118.759848 
L 92.047669 120.61652 
L 92.794449 121.393107 
L 94.02826 122.307677 
L 95.456882 123.003973 
L 97.502411 123.712742 
L 99.125846 124.044137 
L 101.723342 124.341873 
L 104.905275 124.472608 
L 112.210732 124.488456 
L 158.933194 124.410243 
L 398.487273 124.409695 
L 398.487273 124.409695 
" clip-path="url(#p4ea68a34e1)" style="fill: none; stroke: #0000ff; stroke-width: 1.5; stroke-linecap: square"/>
   </g>
   <g id="line2d_29">
    <path d="M 73.832727 57.556651 
L 75.845787 62.532703 
L 77.01466 67.102999 
L 78.670564 74.130382 
L 79.384875 77.721044 
L 80.586217 84.019851 
L 83.02137 97.783728 
L 84.060368 105.09181 
L 84.872086 109.342243 
L 85.813678 113.015523 
L 86.592927 115.006884 
L 88.086487 117.93365 
L 88.963142 119.226381 
L 89.612516 119.90432 
L 90.748921 120.647199 
L 92.502231 121.426066 
L 95.976382 122.952899 
L 98.703753 123.658083 
L 100.586937 123.958471 
L 104.126026 124.284851 
L 108.704113 124.427657 
L 118.379786 124.444389 
L 171.53105 124.409818 
L 398.487273 124.409695 
L 398.487273 124.409695 
" clip-path="url(#p4ea68a34e1)" style="fill: none; stroke: #0000ff; stroke-width: 1.5; stroke-linecap: square"/>
   </g>
   <g id="line2d_30">
    <path d="M 73.832727 143.237227 
L 74.482101 141.65611 
L 75.26135 140.234586 
L 75.813318 139.178906 
L 76.884785 136.959495 
L 77.209472 136.052411 
L 78.053658 133.077768 
L 79.319938 128.691462 
L 79.904374 127.128805 
L 80.196593 126.816136 
L 80.813498 126.474385 
L 81.300529 126.569606 
L 81.75509 127.000039 
L 82.729151 127.721135 
L 83.151245 127.926878 
L 83.930493 128.299491 
L 84.872086 128.546234 
L 85.164304 128.386807 
L 85.391585 128.130866 
L 87.502051 125.309179 
L 88.02155 125.133166 
L 88.638455 125.062521 
L 91.950263 125.330024 
L 92.794449 125.138413 
L 95.067258 124.662844 
L 97.437473 124.726073 
L 100.164844 124.69617 
L 108.866456 124.441418 
L 128.250271 124.411466 
L 398.487273 124.409695 
L 398.487273 124.409695 
" clip-path="url(#p4ea68a34e1)" style="fill: none; stroke: #0000ff; stroke-width: 1.5; stroke-linecap: square"/>
   </g>
   <g id="line2d_31">
    <path d="M 73.832727 220.950611 
L 74.25482 219.806893 
L 74.806788 218.5024 
L 76.138005 215.945848 
L 77.079597 214.494702 
L 77.436753 214.315126 
L 77.956252 214.286603 
L 78.216002 214.155902 
L 79.060188 213.213451 
L 79.709562 212.225929 
L 80.26153 211.138067 
L 81.170654 209.443606 
L 81.397935 208.976448 
L 81.820028 208.280872 
L 82.242121 207.815231 
L 82.469402 207.883307 
L 83.086307 209.035333 
L 83.735681 211.806545 
L 84.449993 216.884925 
L 85.326648 222.84306 
L 86.138365 227.197059 
L 86.690333 229.296022 
L 87.079957 230.246308 
L 87.404644 230.690553 
L 87.989081 231.201266 
L 88.833267 231.827396 
L 89.839797 233.023911 
L 90.716452 234.400829 
L 91.852857 236.680349 
L 92.697043 238.244711 
L 93.833447 239.7285 
L 95.327008 241.249305 
L 98.216722 243.643739 
L 100.846687 245.195803 
L 104.937743 246.6447 
L 107.827458 247.408298 
L 111.853577 248.211835 
L 115.847227 248.748324 
L 120.814938 249.182752 
L 127.341147 249.518144 
L 136.52979 249.751089 
L 151.465392 249.881165 
L 187.830338 249.910306 
L 398.487273 249.896194 
L 398.487273 249.896194 
" clip-path="url(#p4ea68a34e1)" style="fill: none; stroke: #0000ff; stroke-width: 1.5; stroke-linecap: square"/>
   </g>
   <g id="line2d_32">
    <path d="M 73.832727 151.795198 
L 74.384695 152.281608 
L 74.806788 152.417716 
L 75.975662 151.455732 
L 76.300349 150.646351 
L 76.982191 148.188692 
L 77.793909 144.391744 
L 78.703032 139.781585 
L 79.51475 136.264617 
L 81.170654 128.97903 
L 81.430403 128.793057 
L 81.75509 128.788168 
L 82.01484 128.946206 
L 82.534339 129.241995 
L 84.612336 129.683598 
L 87.177364 131.098254 
L 87.859206 131.049668 
L 88.281299 130.719394 
L 89.125486 130.074429 
L 90.294359 128.867839 
L 91.820388 127.049298 
L 92.599637 126.377339 
L 93.833447 125.77262 
L 95.132195 125.346886 
L 97.047849 124.854993 
L 99.060908 124.561987 
L 103.02209 124.342129 
L 107.924864 124.324121 
L 139.971472 124.406959 
L 398.487273 124.409695 
L 398.487273 124.409695 
" clip-path="url(#p4ea68a34e1)" style="fill: none; stroke: #0000ff; stroke-width: 1.5; stroke-linecap: square"/>
   </g>
   <g id="line2d_33">
    <path d="M 73.832727 97.933046 
L 74.644445 97.64056 
L 74.839257 97.687731 
L 75.26135 98.073491 
L 75.715912 98.577313 
L 76.365286 99.329019 
L 76.917254 100.157488 
L 77.793909 101.200987 
L 78.475752 101.412415 
L 79.709562 101.323572 
L 80.618686 102.073593 
L 80.910904 102.52776 
L 81.560278 104.116919 
L 81.982371 105.229382 
L 82.469402 107.19212 
L 83.443463 111.043098 
L 84.157774 113.180359 
L 84.579867 114.129113 
L 85.651335 115.495824 
L 86.592927 116.088543 
L 87.177364 116.218815 
L 88.118956 116.472008 
L 88.995611 117.398672 
L 92.145075 121.779782 
L 93.086667 122.421686 
L 94.093197 122.843265 
L 95.554289 123.208172 
L 97.924504 123.483656 
L 101.463592 123.77337 
L 106.983271 124.124867 
L 113.606887 124.302691 
L 126.821648 124.390377 
L 179.485882 124.409645 
L 398.487273 124.409695 
L 398.487273 124.409695 
" clip-path="url(#p4ea68a34e1)" style="fill: none; stroke: #0000ff; stroke-width: 1.5; stroke-linecap: square"/>
   </g>
   <g id="line2d_34">
    <path d="M 73.832727 146.473624 
L 74.222352 146.322732 
L 74.611976 146.184328 
L 75.618506 145.854329 
L 76.040599 145.333502 
L 76.592567 144.255274 
L 78.02119 140.938804 
L 79.352407 139.042251 
L 79.644625 138.95744 
L 80.651155 138.894875 
L 81.300529 138.444824 
L 81.592747 138.30355 
L 81.722622 138.19555 
L 82.047309 137.651988 
L 82.599277 136.727627 
L 83.118776 136.120266 
L 83.638275 135.717971 
L 84.352587 134.766991 
L 85.034429 133.178156 
L 85.716272 131.170357 
L 86.722802 128.580786 
L 87.404644 127.176391 
L 87.924144 126.520338 
L 88.313768 126.293878 
L 88.898205 126.191074 
L 89.904734 126.324939 
L 90.424234 126.382917 
L 91.495701 126.323726 
L 92.469762 126.166992 
L 94.352947 125.627263 
L 95.716632 125.156138 
L 97.340067 124.811577 
L 99.77522 124.512705 
L 102.989621 124.47946 
L 150.231582 124.410315 
L 398.487273 124.409695 
L 398.487273 124.409695 
" clip-path="url(#p4ea68a34e1)" style="fill: none; stroke: #0000ff; stroke-width: 1.5; stroke-linecap: square"/>
   </g>
   <g id="line2d_35">
    <path d="M 73.832727 273.962844 
L 76.073068 271.358645 
L 76.625036 270.879948 
L 78.443283 269.139973 
L 79.125126 268.737761 
L 81.00831 266.957956 
L 81.397935 266.667205 
L 82.956432 265.409779 
L 83.475932 264.346544 
L 84.320118 262.761698 
L 87.047489 258.587844 
L 88.865736 256.93049 
L 90.619046 255.21722 
L 91.950263 254.091266 
L 93.119136 253.362336 
L 96.430943 251.963248 
L 97.989441 251.396886 
L 99.77522 250.792373 
L 101.171374 250.517357 
L 103.833807 250.205711 
L 109.937923 249.980523 
L 118.152505 249.939889 
L 189.551179 249.902768 
L 398.487273 249.896147 
L 398.487273 249.896147 
" clip-path="url(#p4ea68a34e1)" style="fill: none; stroke: #0000ff; stroke-width: 1.5; stroke-linecap: square"/>
   </g>
   <g id="line2d_36">
    <path d="M 73.832727 231.981198 
L 74.482101 232.407149 
L 74.806788 232.760346 
L 75.26135 233.552164 
L 76.040599 235.248243 
L 77.469222 239.683635 
L 77.956252 240.480872 
L 78.280939 240.709048 
L 78.865376 240.702784 
L 79.806968 240.488004 
L 80.456342 240.175991 
L 81.495341 240.121149 
L 82.047309 240.234584 
L 84.060368 242.106958 
L 85.359116 244.110222 
L 85.976022 244.907867 
L 89.25536 248.622901 
L 90.424234 249.503904 
L 91.885325 250.23412 
L 93.963322 250.978531 
L 95.846507 251.336035 
L 98.736221 251.657002 
L 102.535059 251.613452 
L 105.781929 251.44732 
L 114.840697 250.797 
L 124.386495 250.333634 
L 136.107697 250.051457 
L 152.958953 249.931378 
L 201.142506 249.902284 
L 398.487273 249.896165 
L 398.487273 249.896165 
" clip-path="url(#p4ea68a34e1)" style="fill: none; stroke: #ff0000; stroke-width: 1.5; stroke-linecap: square"/>
   </g>
   <g id="line2d_37">
    <path d="M 73.832727 56.793056 
L 75.423694 57.982834 
L 75.975662 58.820734 
L 76.819848 61.060926 
L 79.7745 72.705842 
L 80.423874 76.125141 
L 81.203122 79.356097 
L 82.079777 82.151272 
L 83.378525 86.780702 
L 83.800619 89.560694 
L 85.229241 100.430859 
L 86.300709 105.400637 
L 87.112426 107.980813 
L 87.696863 109.133851 
L 89.352767 111.787598 
L 90.164484 112.97434 
L 94.839977 118.713284 
L 96.00885 119.809312 
L 98.476472 121.552949 
L 99.970032 122.283038 
L 101.918154 122.994527 
L 103.50912 123.344387 
L 106.333897 123.639713 
L 115.78229 124.306308 
L 125.360556 124.389028 
L 171.985612 124.409586 
L 398.487273 124.409695 
L 398.487273 124.409695 
" clip-path="url(#p4ea68a34e1)" style="fill: none; stroke: #ff0000; stroke-width: 1.5; stroke-linecap: square"/>
   </g>
   <g id="line2d_38">
    <path d="M 73.832727 195.506493 
L 74.189883 195.194061 
L 74.969132 194.407076 
L 75.5211 193.324297 
L 75.780849 192.936244 
L 76.00813 192.827348 
L 76.430223 192.690259 
L 76.917254 192.6033 
L 77.534159 192.386159 
L 78.216002 191.848475 
L 78.345877 191.919544 
L 78.897845 192.072036 
L 79.157594 191.999903 
L 79.936843 190.756683 
L 81.235591 188.945161 
L 82.01484 186.332341 
L 82.76162 184.000367 
L 83.540869 182.337082 
L 83.930493 181.899817 
L 84.157774 181.631255 
L 85.066898 180.09136 
L 86.235771 178.273285 
L 87.047489 176.799904 
L 87.729331 173.280167 
L 88.313768 168.836141 
L 89.157954 159.989088 
L 90.002141 151.354473 
L 90.716452 146.080148 
L 91.658044 141.447308 
L 92.567168 138.166697 
L 93.671104 134.93906 
L 95.099727 131.57812 
L 95.943913 130.296229 
L 97.145255 128.789029 
L 99.060908 126.821201 
L 100.099907 126.101521 
L 101.366186 125.495732 
L 102.76234 125.079356 
L 105.067618 124.713537 
L 107.794989 124.538337 
L 113.671824 124.430342 
L 130.360736 124.411636 
L 398.487273 124.409695 
L 398.487273 124.409695 
" clip-path="url(#p4ea68a34e1)" style="fill: none; stroke: #ff0000; stroke-width: 1.5; stroke-linecap: square"/>
   </g>
   <g id="line2d_39">
    <path d="M 73.832727 159.904045 
L 74.644445 158.841241 
L 75.293819 158.406608 
L 76.527629 157.942448 
L 77.047129 157.567016 
L 78.183533 156.533006 
L 78.962782 155.312477 
L 79.742031 154.234551 
L 80.034249 153.350005 
L 81.462872 148.270451 
L 82.079777 146.78919 
L 82.404464 146.373988 
L 84.25518 144.548836 
L 85.099367 143.339303 
L 86.820208 138.959959 
L 87.696863 137.040736 
L 88.476112 135.515081 
L 88.898205 134.995005 
L 90.683983 133.369352 
L 92.27495 132.274228 
L 93.184073 131.298616 
L 94.645165 128.88285 
L 95.359476 128.001938 
L 96.138725 127.431457 
L 97.469942 126.761101 
L 99.51547 126.018501 
L 101.496061 125.637666 
L 106.788459 124.975801 
L 111.106796 124.73379 
L 118.152505 124.533308 
L 131.659484 124.432343 
L 183.447063 124.40976 
L 398.487273 124.409695 
L 398.487273 124.409695 
" clip-path="url(#p4ea68a34e1)" style="fill: none; stroke: #ff0000; stroke-width: 1.5; stroke-linecap: square"/>
   </g>
   <g id="line2d_40">
    <path d="M 73.832727 171.650168 
L 74.384695 170.422811 
L 75.358756 168.410325 
L 75.683443 168.17187 
L 76.040599 168.075951 
L 76.527629 168.02326 
L 77.826378 167.910523 
L 78.605626 167.492463 
L 79.125126 166.537272 
L 79.579687 165.919467 
L 80.066718 165.007781 
L 81.560278 160.395324 
L 82.209652 157.803009 
L 82.76162 154.903983 
L 84.612336 144.766053 
L 85.294179 142.238446 
L 85.813678 140.943813 
L 86.333177 140.166528 
L 87.177364 139.469854 
L 88.865736 138.383317 
L 89.742391 137.515175 
L 90.52164 136.497973 
L 92.534699 133.461617 
L 94.125666 130.619543 
L 94.742571 129.892662 
L 95.846507 129.066645 
L 98.671284 127.359346 
L 100.099907 126.694199 
L 101.820748 126.131423 
L 105.554649 125.220457 
L 108.152145 124.831428 
L 111.496421 124.577633 
L 116.00957 124.465589 
L 130.036049 124.419243 
L 233.578738 124.409695 
L 398.487273 124.409695 
L 398.487273 124.409695 
" clip-path="url(#p4ea68a34e1)" style="fill: none; stroke: #ff0000; stroke-width: 1.5; stroke-linecap: square"/>
   </g>
   <g id="line2d_41">
    <path d="M 73.832727 254.033673 
L 74.449633 254.680338 
L 75.683443 255.547082 
L 76.26788 255.433622 
L 77.501691 255.584568 
L 78.995251 255.905867 
L 79.352407 256.073804 
L 82.079777 256.927858 
L 83.053838 256.080753 
L 84.190243 255.218486 
L 88.313768 252.756014 
L 90.099547 252.103245 
L 93.281479 250.975943 
L 94.223072 250.733248 
L 98.02191 249.548462 
L 101.593467 249.583552 
L 105.165024 250.041829 
L 108.476832 250.213264 
L 118.055099 250.084503 
L 136.659665 249.934254 
L 180.265131 249.894608 
L 398.487273 249.896107 
L 398.487273 249.896107 
" clip-path="url(#p4ea68a34e1)" style="fill: none; stroke: #ff0000; stroke-width: 1.5; stroke-linecap: square"/>
   </g>
   <g id="line2d_42">
    <path d="M 73.832727 262.018495 
L 75.391225 260.618481 
L 75.943193 260.33553 
L 76.722442 260.084118 
L 77.76144 259.811714 
L 78.345877 259.853052 
L 78.995251 259.891053 
L 79.709562 259.596538 
L 80.26153 259.531764 
L 80.748561 259.443123 
L 82.209652 258.795946 
L 82.859026 258.333416 
L 83.475932 257.878548 
L 84.417524 257.32635 
L 84.644805 257.006486 
L 86.26824 254.878838 
L 87.566988 253.452862 
L 88.443643 252.980602 
L 89.093017 252.768877 
L 89.807328 252.798189 
L 90.554109 252.708009 
L 93.119136 251.990718 
L 94.969852 251.612217 
L 97.340067 251.219652 
L 101.431123 250.915243 
L 103.281839 250.801773 
L 109.0288 250.489586 
L 119.386315 250.184011 
L 133.477732 250.015304 
L 163.77103 249.928058 
L 289.879466 249.89715 
L 398.487273 249.896182 
L 398.487273 249.896182 
" clip-path="url(#p4ea68a34e1)" style="fill: none; stroke: #ff0000; stroke-width: 1.5; stroke-linecap: square"/>
   </g>
   <g id="line2d_43">
    <path d="M 73.832727 178.211978 
L 74.352226 177.869758 
L 75.131475 176.639621 
L 76.202942 174.740169 
L 77.241941 173.022313 
L 77.891315 171.500678 
L 78.443283 170.831595 
L 78.76797 170.694787 
L 79.709562 169.767197 
L 81.300529 168.071948 
L 81.852497 167.545477 
L 82.144715 166.790398 
L 82.501871 165.544882 
L 83.281119 161.411259 
L 84.125306 155.3204 
L 85.813678 144.443223 
L 86.52799 142.042861 
L 87.01502 140.922636 
L 87.924144 140.041535 
L 88.50858 139.307696 
L 90.067078 136.133737 
L 92.080137 131.148286 
L 92.826918 129.777964 
L 93.833447 128.571435 
L 95.781569 126.787734 
L 97.177724 126.00434 
L 98.346597 125.542449 
L 100.132375 125.097439 
L 103.087027 124.628479 
L 106.398835 124.454346 
L 111.366546 124.377528 
L 134.192043 124.400847 
L 271.469713 124.409695 
L 398.487273 124.409695 
L 398.487273 124.409695 
" clip-path="url(#p4ea68a34e1)" style="fill: none; stroke: #ff0000; stroke-width: 1.5; stroke-linecap: square"/>
   </g>
   <g id="line2d_44">
    <path d="M 73.832727 55.928989 
L 77.112066 62.747696 
L 77.858846 64.753557 
L 78.962782 68.866281 
L 79.936843 74.21162 
L 81.073248 80.245453 
L 81.949903 83.505372 
L 82.923964 86.814242 
L 83.378525 89.043993 
L 85.326648 100.931988 
L 86.300709 105.09506 
L 87.404644 108.638925 
L 88.118956 110.535206 
L 89.02808 112.434991 
L 90.424234 114.492949 
L 92.339887 116.600538 
L 93.963322 118.474406 
L 95.716632 121.096719 
L 96.560818 121.876426 
L 97.956972 122.825448 
L 99.25572 123.381172 
L 100.716812 123.792545 
L 102.405185 124.047597 
L 105.814398 124.338645 
L 110.457422 124.45932 
L 121.626656 124.451529 
L 167.0179 124.410049 
L 398.487273 124.409695 
L 398.487273 124.409695 
" clip-path="url(#p4ea68a34e1)" style="fill: none; stroke: #ff0000; stroke-width: 1.5; stroke-linecap: square"/>
   </g>
   <g id="line2d_45">
    <path d="M 73.832727 204.957175 
L 74.287289 204.642408 
L 76.787379 204.364195 
L 77.469222 203.824377 
L 77.858846 203.767214 
L 78.345877 204.822467 
L 79.612156 208.05528 
L 80.196593 208.968966 
L 80.618686 209.391974 
L 80.748561 209.556263 
L 81.170654 210.42054 
L 81.820028 212.105608 
L 82.371996 213.887075 
L 82.826558 215.126427 
L 84.157774 219.388379 
L 85.131835 221.739886 
L 85.943553 222.946278 
L 87.144895 224.213964 
L 88.183893 224.935193 
L 88.638455 225.098464 
L 89.352767 225.46455 
L 90.911264 226.528935 
L 91.75545 227.255976 
L 93.443823 229.41418 
L 94.02826 230.551431 
L 97.340067 236.940263 
L 98.801159 239.065312 
L 100.457062 241.068054 
L 103.087027 243.62677 
L 104.710462 244.846285 
L 106.26896 245.756049 
L 108.184613 246.669672 
L 110.360016 247.454846 
L 112.860106 248.115688 
L 115.847227 248.668245 
L 119.548659 249.116442 
L 124.354027 249.46211 
L 131.139985 249.710421 
L 142.017 249.861164 
L 165.394465 249.915903 
L 398.487273 249.896195 
L 398.487273 249.896195 
" clip-path="url(#p4ea68a34e1)" style="fill: none; stroke: #ff0000; stroke-width: 1.5; stroke-linecap: square"/>
   </g>
   <g id="line2d_46">
    <path d="M 73.832727 124.965164 
L 74.287289 125.272056 
L 75.034069 125.594111 
L 75.423694 125.368597 
L 76.430223 124.508497 
L 77.371816 123.18607 
L 78.378345 121.781587 
L 79.612156 119.367383 
L 79.806968 119.329451 
L 80.975842 120.511396 
L 81.365466 121.536098 
L 81.820028 122.577824 
L 82.27459 123.722401 
L 82.923964 124.999421 
L 83.346057 125.33309 
L 85.488991 125.838927 
L 86.52799 125.710424 
L 86.950083 125.332237 
L 87.469582 124.623292 
L 88.054018 123.957437 
L 88.638455 123.588767 
L 89.385235 123.383668 
L 91.885325 123.813783 
L 92.697043 123.91014 
L 95.002321 123.872336 
L 96.52835 124.093157 
L 97.859566 124.239095 
L 102.307778 124.351257 
L 117.0161 124.424741 
L 272.573649 124.409695 
L 398.487273 124.409695 
L 398.487273 124.409695 
" clip-path="url(#p4ea68a34e1)" style="fill: none; stroke: #ff0000; stroke-width: 1.5; stroke-linecap: square"/>
   </g>
   <g id="line2d_47">
    <path d="M 73.832727 259.469961 
L 75.196413 257.543403 
L 75.618506 257.265987 
L 75.943193 257.382535 
L 77.469222 258.303796 
L 78.086127 258.085632 
L 79.060188 257.773859 
L 79.871906 257.617106 
L 81.365466 256.720959 
L 83.151245 255.180407 
L 83.800619 254.553867 
L 84.937023 253.398743 
L 85.618866 252.954736 
L 86.75527 252.57225 
L 88.735861 252.787652 
L 91.138545 252.666133 
L 94.937383 251.345406 
L 96.75563 251.13726 
L 99.807688 250.921909 
L 103.379246 250.689291 
L 108.054739 250.437068 
L 122.081218 250.124088 
L 138.120756 249.949116 
L 168.381586 249.890177 
L 398.487273 249.896085 
L 398.487273 249.896085 
" clip-path="url(#p4ea68a34e1)" style="fill: none; stroke: #ff0000; stroke-width: 1.5; stroke-linecap: square"/>
   </g>
   <g id="line2d_48">
    <path d="M 73.832727 285.767594 
L 74.547039 284.98463 
L 75.196413 283.97968 
L 75.845787 282.778533 
L 77.27441 279.61719 
L 78.378345 276.936422 
L 79.190063 275.015555 
L 80.229061 272.69606 
L 81.852497 269.93082 
L 82.307058 269.062017 
L 83.638275 265.639931 
L 85.456522 260.655087 
L 86.495521 258.392407 
L 87.209832 257.282177 
L 88.118956 256.154216 
L 89.02808 255.645304 
L 91.235951 254.397898 
L 93.963322 252.671464 
L 95.359476 252.110322 
L 97.242661 251.303837 
L 98.379066 250.837255 
L 100.067438 250.396496 
L 100.976562 250.318706 
L 104.840337 250.48153 
L 111.26914 250.379728 
L 123.185153 250.052269 
L 137.958413 249.908991 
L 173.316828 249.870892 
L 398.487273 249.896025 
L 398.487273 249.896025 
" clip-path="url(#p4ea68a34e1)" style="fill: none; stroke: #ff0000; stroke-width: 1.5; stroke-linecap: square"/>
   </g>
   <g id="line2d_49">
    <path d="M 73.832727 264.039494 
L 74.741851 264.171781 
L 75.683443 264.609393 
L 76.105536 264.600396 
L 77.826378 264.251904 
L 78.313408 263.639625 
L 78.897845 262.958404 
L 80.001781 261.947547 
L 81.75509 260.351633 
L 83.833087 257.439018 
L 84.872086 256.334158 
L 85.716272 255.684907 
L 86.203303 255.668981 
L 87.079957 255.380453 
L 88.638455 254.984682 
L 92.145075 254.065085 
L 93.541229 253.463225 
L 96.463412 252.936974 
L 98.346597 252.574975 
L 102.567528 251.866564 
L 107.080678 251.308439 
L 113.152325 250.751921 
L 119.77594 250.3945 
L 128.802239 250.147406 
L 143.478092 249.99496 
L 177.310479 249.918672 
L 346.926975 249.896395 
L 398.487273 249.896188 
L 398.487273 249.896188 
" clip-path="url(#p4ea68a34e1)" style="fill: none; stroke: #ff0000; stroke-width: 1.5; stroke-linecap: square"/>
   </g>
   <g id="line2d_50">
    <path d="M 73.832727 263.055926 
L 75.813318 262.513366 
L 76.625036 261.901567 
L 77.144535 261.766587 
L 78.443283 261.162214 
L 78.832907 260.791551 
L 79.319938 259.937903 
L 80.099187 258.692544 
L 81.560278 256.96059 
L 82.144715 256.415737 
L 84.190243 254.32257 
L 85.456522 253.119021 
L 86.203303 252.736454 
L 87.177364 252.421056 
L 87.924144 252.489934 
L 89.839797 252.7929 
L 93.346417 252.929911 
L 96.853037 252.877818 
L 99.840157 252.703612 
L 104.677994 252.099463 
L 114.093917 250.890386 
L 119.711002 250.505291 
L 127.27621 250.225469 
L 138.867536 250.040839 
L 161.693033 249.938012 
L 240.462103 249.899441 
L 398.487273 249.89618 
L 398.487273 249.89618 
" clip-path="url(#p4ea68a34e1)" style="fill: none; stroke: #ff0000; stroke-width: 1.5; stroke-linecap: square"/>
   </g>
   <g id="line2d_51">
    <path d="M 73.832727 232.541253 
L 74.060008 232.473538 
L 74.77432 232.547356 
L 75.196413 232.830481 
L 75.618506 233.005378 
L 75.845787 233.263262 
L 76.170474 233.915413 
L 76.657504 235.491401 
L 78.183533 240.665366 
L 78.832907 242.050657 
L 79.709562 243.842507 
L 80.716092 245.740905 
L 81.235591 246.299012 
L 82.177184 246.808088 
L 85.651335 247.662237 
L 86.463052 248.102834 
L 88.541049 249.520587 
L 89.872266 250.328338 
L 90.943733 250.655808 
L 93.50876 250.778258 
L 94.288009 250.95511 
L 95.359476 251.050461 
L 96.398475 250.978763 
L 100.002501 250.707958 
L 110.976922 250.349512 
L 124.678714 250.082147 
L 144.582028 249.964588 
L 212.181864 249.904297 
L 398.487273 249.896189 
L 398.487273 249.896189 
" clip-path="url(#p4ea68a34e1)" style="fill: none; stroke: #ff0000; stroke-width: 1.5; stroke-linecap: square"/>
   </g>
   <g id="line2d_52">
    <path d="M 73.832727 169.284576 
L 74.287289 168.718567 
L 75.358756 167.772271 
L 75.878255 166.906397 
L 77.339347 164.610534 
L 78.151065 164.187781 
L 78.443283 164.020746 
L 79.092657 163.045897 
L 79.742031 161.638969 
L 80.099187 160.224933 
L 80.878435 156.460467 
L 82.631745 147.016891 
L 83.216182 143.631384 
L 84.060368 139.229757 
L 84.709742 136.672755 
L 85.553928 134.49466 
L 86.138365 133.601068 
L 86.625396 133.286198 
L 89.352767 131.862059 
L 91.203483 130.22142 
L 92.372356 128.689506 
L 93.216542 127.912439 
L 93.995791 127.439264 
L 98.476472 125.504911 
L 99.937563 125.043347 
L 101.333717 124.837904 
L 104.2559 124.543902 
L 107.892395 124.396097 
L 115.78229 124.367264 
L 179.648225 124.409635 
L 398.487273 124.409695 
L 398.487273 124.409695 
" clip-path="url(#p4ea68a34e1)" style="fill: none; stroke: #ff0000; stroke-width: 1.5; stroke-linecap: square"/>
   </g>
   <g id="line2d_53">
    <path d="M 73.832727 110.161273 
L 74.384695 109.880059 
L 74.936663 109.883994 
L 75.391225 109.925689 
L 75.813318 109.931952 
L 76.073068 110.124901 
L 76.462692 110.468327 
L 77.339347 111.169931 
L 77.956252 111.736765 
L 78.280939 112.195374 
L 78.865376 113.918557 
L 79.547219 115.350901 
L 80.26153 115.577139 
L 80.910904 115.670617 
L 81.462872 116.237739 
L 82.307058 117.294024 
L 84.0279 120.279366 
L 84.77468 121.06203 
L 87.956612 122.085196 
L 88.995611 122.283385 
L 89.450173 122.400308 
L 90.196953 122.303401 
L 90.911264 122.2112 
L 92.0152 122.296423 
L 93.76851 122.773902 
L 95.52182 123.368143 
L 97.469942 123.864971 
L 99.418064 124.087538 
L 102.405185 124.112596 
L 106.723522 124.210548 
L 113.639355 124.357879 
L 129.354207 124.40318 
L 288.645656 124.409695 
L 398.487273 124.409695 
L 398.487273 124.409695 
" clip-path="url(#p4ea68a34e1)" style="fill: none; stroke: #ff0000; stroke-width: 1.5; stroke-linecap: square"/>
   </g>
   <g id="line2d_54">
    <path d="M 73.832727 83.389525 
L 75.131475 86.804149 
L 76.26788 89.422126 
L 77.177004 91.882501 
L 79.482281 97.374945 
L 81.073248 101.419463 
L 81.75509 103.648575 
L 83.410994 108.32007 
L 83.833087 109.054764 
L 84.417524 110.140131 
L 85.326648 112.107582 
L 86.235771 114.039737 
L 87.339707 115.731067 
L 88.216362 116.688504 
L 88.800799 117.059509 
L 89.839797 117.562013 
L 91.917794 118.67242 
L 93.930853 120.168921 
L 95.294539 121.164857 
L 97.534879 122.269562 
L 99.937563 123.221396 
L 101.820748 123.631058 
L 103.996151 123.952157 
L 107.730052 124.178525 
L 113.249731 124.346567 
L 124.938463 124.397628 
L 206.110217 124.409693 
L 398.487273 124.409695 
L 398.487273 124.409695 
" clip-path="url(#p4ea68a34e1)" style="fill: none; stroke: #ff0000; stroke-width: 1.5; stroke-linecap: square"/>
   </g>
   <g id="line2d_55">
    <path d="M 73.832727 144.117422 
L 75.26135 142.977509 
L 75.423694 142.815464 
L 76.235411 141.623344 
L 77.371816 139.300527 
L 78.02119 137.27663 
L 78.832907 133.454282 
L 79.806968 128.496365 
L 80.748561 125.18374 
L 81.235591 124.100999 
L 81.787559 123.539469 
L 82.177184 123.605859 
L 82.599277 123.943702 
L 82.988901 124.59347 
L 83.475932 125.249959 
L 84.872086 126.406237 
L 85.391585 126.487643 
L 87.794269 125.632868 
L 88.865736 125.835336 
L 90.683983 126.371635 
L 91.917794 126.520968 
L 93.736041 126.488605 
L 94.320478 126.310654 
L 96.463412 125.419225 
L 97.632285 125.261186 
L 102.924684 124.904126 
L 106.171554 124.682029 
L 111.334077 124.557355 
L 129.808769 124.41808 
L 217.019701 124.409696 
L 398.487273 124.409695 
L 398.487273 124.409695 
" clip-path="url(#p4ea68a34e1)" style="fill: none; stroke: #ff0000; stroke-width: 1.5; stroke-linecap: square"/>
   </g>
   <g id="line2d_56">
    <path d="M 73.832727 90.323703 
L 74.189883 91.108298 
L 74.839257 92.690878 
L 76.040599 95.115003 
L 76.819848 96.40313 
L 78.216002 97.309416 
L 79.255 97.476308 
L 79.677094 97.505518 
L 80.358936 98.018367 
L 81.300529 99.234976 
L 81.560278 99.900783 
L 83.086307 105.904689 
L 83.833087 108.381391 
L 84.547399 109.540261 
L 85.359116 110.537483 
L 85.716272 110.843092 
L 87.177364 112.258013 
L 88.443643 113.879688 
L 88.930673 114.206518 
L 89.482641 114.861059 
L 93.50876 120.4443 
L 94.320478 121.334439 
L 95.456882 122.098206 
L 98.119316 123.360265 
L 99.547939 123.720424 
L 101.301249 123.93402 
L 105.424774 124.166982 
L 113.931574 124.326432 
L 137.049289 124.401236 
L 313.841368 124.409695 
L 398.487273 124.409695 
L 398.487273 124.409695 
" clip-path="url(#p4ea68a34e1)" style="fill: none; stroke: #ff0000; stroke-width: 1.5; stroke-linecap: square"/>
   </g>
   <g id="line2d_57">
    <path d="M 73.832727 153.974795 
L 74.449633 154.403117 
L 74.611976 154.384823 
L 75.5211 154.045221 
L 76.040599 153.940344 
L 76.332817 154.128832 
L 77.112066 155.040145 
L 78.735501 156.873932 
L 79.352407 156.863816 
L 79.7745 156.549308 
L 80.293999 156.076934 
L 80.553748 156.031357 
L 81.300529 155.120622 
L 81.917434 154.556473 
L 82.404464 153.780287 
L 82.664214 153.086472 
L 83.865556 149.402751 
L 84.644805 146.419782 
L 85.781209 143.152403 
L 87.534519 138.946839 
L 90.26189 130.672008 
L 90.911264 129.502168 
L 91.75545 128.520326 
L 92.469762 127.95848 
L 93.476292 127.367172 
L 94.158134 127.180547 
L 96.073788 126.696726 
L 98.736221 126.05245 
L 102.535059 125.427788 
L 107.113146 124.963243 
L 111.593827 124.71638 
L 119.223972 124.516818 
L 134.386855 124.425263 
L 197.083918 124.409712 
L 398.487273 124.409695 
L 398.487273 124.409695 
" clip-path="url(#p4ea68a34e1)" style="fill: none; stroke: #ff0000; stroke-width: 1.5; stroke-linecap: square"/>
   </g>
   <g id="line2d_58">
    <path d="M 73.832727 130.005974 
L 74.25482 129.868619 
L 74.77432 129.456781 
L 75.878255 129.923483 
L 76.365286 130.375685 
L 78.638095 133.187706 
L 78.930313 133.176852 
L 79.092657 132.95012 
L 79.51475 131.830163 
L 80.391405 128.677679 
L 80.748561 127.850529 
L 81.884965 125.533635 
L 82.729151 124.331536 
L 83.76815 122.629059 
L 84.709742 121.421768 
L 85.683803 120.697671 
L 86.75527 120.100692 
L 87.437113 119.981611 
L 88.541049 120.360448 
L 89.352767 120.930577 
L 90.781389 121.38079 
L 91.560638 121.630242 
L 92.956792 122.254753 
L 94.969852 123.264568 
L 95.976382 123.544765 
L 98.898565 124.013853 
L 101.203843 124.071347 
L 109.158674 124.249305 
L 121.951343 124.363034 
L 151.497861 124.407722 
L 398.487273 124.409695 
L 398.487273 124.409695 
" clip-path="url(#p4ea68a34e1)" style="fill: none; stroke: #ff0000; stroke-width: 1.5; stroke-linecap: square"/>
   </g>
   <g id="line2d_59">
    <path d="M 73.832727 169.166934 
L 74.027539 169.051356 
L 74.482101 168.637592 
L 74.871726 168.173236 
L 75.845787 166.551675 
L 76.852317 165.484871 
L 77.177004 165.518285 
L 77.534159 165.510316 
L 79.51475 165.0751 
L 79.936843 164.895128 
L 80.26153 164.637316 
L 82.112246 162.48597 
L 82.371996 161.68373 
L 82.696683 160.145793 
L 83.183713 157.008436 
L 85.359116 142.424057 
L 86.105896 139.421897 
L 86.657864 137.95622 
L 87.339707 136.673141 
L 88.50858 134.489466 
L 89.093017 133.511982 
L 89.709922 132.814086 
L 91.26842 131.836437 
L 91.982731 131.32713 
L 92.989261 130.3311 
L 94.320478 128.518187 
L 95.229602 127.340086 
L 95.943913 126.73414 
L 96.853037 126.233906 
L 98.444003 125.76274 
L 101.301249 125.265752 
L 112.27567 124.498723 
L 121.918874 124.421915 
L 183.739282 124.409705 
L 398.487273 124.409695 
L 398.487273 124.409695 
" clip-path="url(#p4ea68a34e1)" style="fill: none; stroke: #ff0000; stroke-width: 1.5; stroke-linecap: square"/>
   </g>
   <g id="line2d_60">
    <path d="M 73.832727 81.16827 
L 74.611976 83.147178 
L 75.748381 85.819637 
L 76.560098 87.838792 
L 77.664034 90.954089 
L 78.50822 92.924852 
L 79.449813 95.280926 
L 80.001781 96.334562 
L 80.358936 96.718312 
L 80.781029 97.254969 
L 81.430403 98.364344 
L 82.177184 100.503105 
L 83.248651 104.132764 
L 84.157774 107.065052 
L 84.969492 109.11573 
L 85.456522 109.929813 
L 86.852677 111.636723 
L 87.956612 112.563693 
L 88.735861 113.354976 
L 89.450173 114.184287 
L 90.359296 115.335572 
L 90.878796 115.952675 
L 95.327008 121.05102 
L 96.301069 121.669854 
L 100.002501 123.464376 
L 101.658404 123.894672 
L 103.606526 124.174433 
L 106.463772 124.344492 
L 111.821108 124.430177 
L 185.460123 124.409714 
L 398.487273 124.409695 
L 398.487273 124.409695 
" clip-path="url(#p4ea68a34e1)" style="fill: none; stroke: #ff0000; stroke-width: 1.5; stroke-linecap: square"/>
   </g>
   <g id="line2d_61">
    <path d="M 73.832727 290.374263 
L 74.51457 288.617025 
L 78.313408 280.662775 
L 82.988901 268.556294 
L 84.872086 262.761656 
L 86.203303 259.603485 
L 87.339707 257.650283 
L 88.411174 256.221718 
L 89.51511 255.162575 
L 90.846327 254.198691 
L 91.333357 254.014633 
L 93.476292 253.758665 
L 95.878976 253.410544 
L 96.982911 253.002333 
L 98.76869 252.263267 
L 100.814218 251.688606 
L 109.191143 250.632724 
L 115.847227 250.257154 
L 128.542489 250.051948 
L 151.303049 249.94519 
L 224.747251 249.900906 
L 398.487273 249.896173 
L 398.487273 249.896173 
" clip-path="url(#p4ea68a34e1)" style="fill: none; stroke: #ff0000; stroke-width: 1.5; stroke-linecap: square"/>
   </g>
   <g id="line2d_62">
    <path d="M 73.832727 107.675441 
L 75.163944 108.238296 
L 76.235411 106.70396 
L 76.852317 105.93305 
L 77.112066 105.808219 
L 78.248471 105.321247 
L 79.060188 104.503919 
L 79.352407 104.486208 
L 80.066718 105.451037 
L 80.52128 106.667168 
L 81.300529 108.98783 
L 83.346057 113.687246 
L 84.352587 115.055207 
L 86.495521 117.190936 
L 87.27477 117.889608 
L 88.443643 118.843071 
L 90.002141 120.05146 
L 90.943733 120.236964 
L 92.826918 120.493345 
L 93.476292 120.729533 
L 95.132195 121.670918 
L 97.01538 122.609216 
L 98.963502 123.242207 
L 100.522 123.572861 
L 104.02862 123.992575 
L 108.606706 124.250489 
L 114.093917 124.376733 
L 125.847587 124.417767 
L 307.185284 124.409695 
L 398.487273 124.409695 
L 398.487273 124.409695 
" clip-path="url(#p4ea68a34e1)" style="fill: none; stroke: #ff0000; stroke-width: 1.5; stroke-linecap: square"/>
   </g>
   <g id="line2d_63">
    <path d="M 73.832727 267.151429 
L 75.845787 264.77494 
L 76.560098 264.608923 
L 77.826378 264.433151 
L 80.26153 262.843121 
L 80.781029 262.575916 
L 81.820028 261.077461 
L 85.391585 254.992131 
L 86.170834 254.253955 
L 86.917614 253.795718 
L 87.437113 253.681005 
L 90.683983 253.316275 
L 92.697043 252.374985 
L 94.807508 251.774617 
L 95.554289 251.499098 
L 96.52835 251.084647 
L 98.086847 250.832046 
L 106.139085 250.366139 
L 114.743291 250.08002 
L 130.068518 249.856592 
L 153.673264 249.763779 
L 226.110937 249.863164 
L 398.487273 249.895691 
L 398.487273 249.895691 
" clip-path="url(#p4ea68a34e1)" style="fill: none; stroke: #ff0000; stroke-width: 1.5; stroke-linecap: square"/>
   </g>
   <g id="line2d_64">
    <path d="M 73.832727 288.766531 
L 74.839257 285.61797 
L 77.047129 279.705828 
L 78.897845 276.199206 
L 79.547219 274.839589 
L 80.781029 271.575516 
L 82.339527 269.212813 
L 83.735681 267.120312 
L 84.904554 264.513578 
L 87.27477 259.975584 
L 88.313768 258.539683 
L 90.099547 256.510568 
L 90.748921 256.055272 
L 91.722982 255.682059 
L 92.891855 255.438521 
L 97.956972 254.438684 
L 100.814218 253.318917 
L 102.210372 252.993948 
L 106.431303 252.184944 
L 118.899285 250.754598 
L 126.334617 250.391296 
L 136.692133 250.125869 
L 150.231582 249.981495 
L 182.700283 249.912108 
L 379.006052 249.896203 
L 398.487273 249.896169 
L 398.487273 249.896169 
" clip-path="url(#p4ea68a34e1)" style="fill: none; stroke: #ff0000; stroke-width: 1.5; stroke-linecap: square"/>
   </g>
   <g id="line2d_65">
    <path d="M 73.832727 288.692505 
L 79.417344 274.890557 
L 80.066718 273.80319 
L 82.501871 270.006076 
L 84.709742 264.377446 
L 85.196773 263.705211 
L 89.51511 259.464503 
L 90.781389 258.386787 
L 92.242481 257.435268 
L 93.736041 256.607652 
L 95.034789 256.082859 
L 100.132375 254.552841 
L 105.392305 253.313002 
L 109.321018 252.529214 
L 115.944633 251.560713 
L 121.204563 251.024427 
L 127.698303 250.595608 
L 136.075228 250.277209 
L 148.088647 250.060597 
L 168.77121 249.941399 
L 228.416215 249.900471 
L 398.487273 249.896176 
L 398.487273 249.896176 
" clip-path="url(#p4ea68a34e1)" style="fill: none; stroke: #ff0000; stroke-width: 1.5; stroke-linecap: square"/>
   </g>
   <g id="line2d_66">
    <path d="M 73.832727 290.44805 
L 75.618506 284.208143 
L 76.138005 283.229519 
L 79.644625 275.93429 
L 81.170654 273.947632 
L 81.917434 273.05781 
L 83.118776 271.299711 
L 83.5084 270.502838 
L 85.294179 265.616912 
L 86.820208 261.321101 
L 87.696863 259.584144 
L 88.76833 258.107745 
L 89.839797 256.97766 
L 90.651515 256.515895 
L 92.567168 255.878558 
L 97.047849 254.606455 
L 99.223252 253.63509 
L 100.814218 252.779946 
L 102.599997 252.079652 
L 105.424774 251.26564 
L 107.697583 250.812775 
L 110.749641 250.459126 
L 115.035509 250.202998 
L 121.853937 250.041506 
L 137.049289 249.955659 
L 206.207623 249.904047 
L 398.487273 249.896177 
L 398.487273 249.896177 
" clip-path="url(#p4ea68a34e1)" style="fill: none; stroke: #ff0000; stroke-width: 1.5; stroke-linecap: square"/>
   </g>
   <g id="line2d_67">
    <path d="M 73.832727 174.463696 
L 74.25482 174.4246 
L 74.839257 174.194399 
L 75.943193 173.438713 
L 76.560098 172.855504 
L 76.787379 172.692635 
L 78.086127 172.017642 
L 78.410814 171.654114 
L 79.449813 169.537765 
L 80.164124 167.891204 
L 80.878435 165.68281 
L 81.75509 163.215795 
L 82.307058 160.740438 
L 82.956432 157.113329 
L 84.385055 145.923939 
L 84.937023 142.779378 
L 85.651335 139.99377 
L 86.235771 138.531205 
L 86.75527 137.801332 
L 88.216362 136.465187 
L 88.995611 135.295784 
L 90.229421 133.241173 
L 93.541229 127.899424 
L 94.352947 127.217407 
L 95.327008 126.818926 
L 97.892035 125.947873 
L 99.937563 125.183261 
L 101.723342 124.801906 
L 104.190963 124.527195 
L 107.957332 124.403621 
L 118.574598 124.377874 
L 192.083738 124.409681 
L 398.487273 124.409695 
L 398.487273 124.409695 
" clip-path="url(#p4ea68a34e1)" style="fill: none; stroke: #ff0000; stroke-width: 1.5; stroke-linecap: square"/>
   </g>
   <g id="line2d_68">
    <path d="M 73.832727 202.206532 
L 74.904194 201.792493 
L 75.975662 201.075763 
L 76.75491 200.988393 
L 77.306878 201.317251 
L 78.216002 202.552279 
L 78.50822 202.971501 
L 78.962782 204.179775 
L 79.319938 204.805151 
L 79.969312 205.524235 
L 80.099187 205.669163 
L 80.52128 206.021012 
L 80.813498 206.072508 
L 81.105716 205.919144 
L 83.248651 203.122468 
L 85.001961 199.799178 
L 85.683803 202.172172 
L 86.26824 205.787244 
L 86.592927 208.741351 
L 87.664394 217.398887 
L 88.313768 221.208553 
L 89.839797 228.754431 
L 90.813858 232.687246 
L 91.787919 235.917346 
L 92.242481 236.893209 
L 92.826918 237.614357 
L 93.184073 237.802378 
L 93.995791 238.00531 
L 96.788099 238.429957 
L 97.729692 238.86198 
L 98.573878 239.512523 
L 100.489531 240.977144 
L 101.75581 241.567948 
L 105.035149 242.748253 
L 115.26279 245.543118 
L 121.00975 246.436326 
L 135.101167 248.258438 
L 142.27675 248.773641 
L 151.27058 249.185664 
L 163.219062 249.497443 
L 180.752161 249.713827 
L 210.493492 249.832468 
L 295.821239 249.890262 
L 398.487273 249.89569 
L 398.487273 249.89569 
" clip-path="url(#p4ea68a34e1)" style="fill: none; stroke: #ff0000; stroke-width: 1.5; stroke-linecap: square"/>
   </g>
   <g id="line2d_69">
    <path d="M 73.832727 53.568 
L 74.611976 54.225785 
L 76.26788 55.276061 
L 76.722442 55.77553 
L 77.241941 56.89524 
L 78.248471 59.519929 
L 78.605626 61.055896 
L 79.51475 66.735185 
L 81.073248 76.380786 
L 81.884965 79.608919 
L 82.794089 82.316292 
L 83.5084 84.566853 
L 85.001961 91.01112 
L 86.300709 96.19743 
L 87.144895 99.191685 
L 90.52164 110.639326 
L 92.145075 114.486366 
L 95.002321 119.999437 
L 95.846507 121.123076 
L 96.853037 122.064814 
L 97.859566 122.67051 
L 98.866096 123.054397 
L 100.911624 123.494629 
L 103.638995 123.762426 
L 110.684703 124.156216 
L 119.288909 124.340631 
L 138.2831 124.40436 
L 306.341098 124.409695 
L 398.487273 124.409695 
L 398.487273 124.409695 
" clip-path="url(#p4ea68a34e1)" style="fill: none; stroke: #ff0000; stroke-width: 1.5; stroke-linecap: square"/>
   </g>
   <g id="line2d_70">
    <path d="M 73.832727 276.300716 
L 74.741851 275.786386 
L 75.488631 275.424618 
L 76.235411 274.724438 
L 77.469222 273.011598 
L 78.216002 271.441371 
L 79.839437 268.557795 
L 80.618686 267.514719 
L 82.27459 265.52104 
L 84.839617 260.626758 
L 85.846147 259.366362 
L 89.482641 256.391971 
L 93.119136 253.580657 
L 94.742571 252.758743 
L 96.52835 252.10407 
L 99.223252 251.352391 
L 100.684343 251.08684 
L 106.204023 250.432515 
L 109.51583 250.193072 
L 115.132915 250.024694 
L 130.458143 249.984901 
L 161.985252 249.930027 
L 282.086978 249.897321 
L 398.487273 249.896182 
L 398.487273 249.896182 
" clip-path="url(#p4ea68a34e1)" style="fill: none; stroke: #ff0000; stroke-width: 1.5; stroke-linecap: square"/>
   </g>
   <g id="line2d_71">
    <path d="M 73.832727 221.606273 
L 74.644445 220.356742 
L 75.293819 219.691603 
L 75.748381 219.643428 
L 76.202942 219.771485 
L 76.430223 220.105279 
L 77.534159 223.297023 
L 78.118596 225.000419 
L 78.50822 225.49914 
L 79.190063 226.268236 
L 79.677094 226.922758 
L 80.066718 227.189982 
L 80.456342 226.907372 
L 80.813498 226.680109 
L 81.073248 226.672698 
L 82.079777 227.833087 
L 82.404464 228.507988 
L 84.092837 235.074827 
L 85.164304 238.040931 
L 85.748741 239.13821 
L 86.495521 240.129862 
L 87.339707 240.781124 
L 91.073608 243.17855 
L 93.216542 245.152414 
L 94.417884 246.092818 
L 96.398475 247.084801 
L 98.898565 247.943235 
L 100.684343 248.586822 
L 102.372716 249.129543 
L 104.807868 249.640377 
L 107.405365 249.921135 
L 112.145795 250.143557 
L 118.834347 250.200094 
L 137.27657 250.023193 
L 164.615216 249.905546 
L 228.221403 249.892668 
L 398.487273 249.896084 
L 398.487273 249.896084 
" clip-path="url(#p4ea68a34e1)" style="fill: none; stroke: #ff0000; stroke-width: 1.5; stroke-linecap: square"/>
   </g>
   <g id="line2d_72">
    <path d="M 73.832727 54.02284 
L 75.391225 58.343541 
L 76.365286 61.850232 
L 77.469222 66.876355 
L 78.50822 71.34759 
L 79.092657 73.303288 
L 79.839437 75.634254 
L 81.235591 79.782944 
L 82.144715 81.894048 
L 82.794089 84.11842 
L 83.475932 87.225055 
L 83.865556 89.750592 
L 85.586397 100.786671 
L 86.820208 106.438937 
L 88.183893 111.657498 
L 88.995611 114.378105 
L 89.969672 116.910119 
L 91.041139 119.027849 
L 91.950263 120.375941 
L 93.216542 121.911401 
L 93.963322 122.46871 
L 94.969852 122.923049 
L 96.00885 123.189467 
L 101.853217 124.235243 
L 104.288369 124.387518 
L 110.457422 124.450782 
L 197.700823 124.409699 
L 398.487273 124.409695 
L 398.487273 124.409695 
" clip-path="url(#p4ea68a34e1)" style="fill: none; stroke: #ff0000; stroke-width: 1.5; stroke-linecap: square"/>
   </g>
   <g id="line2d_73">
    <path d="M 73.832727 203.176827 
L 74.449633 202.634467 
L 75.034069 201.694673 
L 76.040599 200.165458 
L 76.884785 199.478387 
L 77.27441 199.499103 
L 77.501691 199.489579 
L 78.573158 199.58675 
L 79.644625 199.668422 
L 79.904374 199.574929 
L 80.326468 199.526744 
L 80.716092 199.256915 
L 81.52781 198.741544 
L 81.722622 198.903719 
L 81.917434 199.34922 
L 83.02137 203.104558 
L 83.735681 206.623269 
L 85.846147 220.340065 
L 86.463052 222.726264 
L 86.982551 223.843896 
L 87.794269 225.009181 
L 88.281299 225.451074 
L 90.132015 227.131487 
L 90.813858 228.172027 
L 91.722982 229.300431 
L 92.339887 229.612834 
L 93.184073 229.755299 
L 94.482821 229.927226 
L 95.456882 230.211507 
L 96.236131 230.694874 
L 96.820568 231.285151 
L 97.697223 232.664743 
L 99.353127 235.01071 
L 100.716812 236.460431 
L 102.145435 237.623008 
L 106.853397 241.096019 
L 112.535419 244.486928 
L 115.587477 245.794319 
L 117.665474 246.471302 
L 120.814938 247.289199 
L 124.418964 247.990557 
L 128.477552 248.551882 
L 133.932294 249.03771 
L 140.78319 249.41462 
L 149.971832 249.68359 
L 163.835968 249.845274 
L 191.888926 249.904917 
L 398.487273 249.896205 
L 398.487273 249.896205 
" clip-path="url(#p4ea68a34e1)" style="fill: none; stroke: #ff0000; stroke-width: 1.5; stroke-linecap: square"/>
   </g>
   <g id="line2d_74">
    <path d="M 73.832727 82.641604 
L 75.034069 86.149652 
L 76.170474 89.056794 
L 76.852317 91.298501 
L 78.248471 94.738891 
L 78.832907 95.667752 
L 79.839437 96.330471 
L 81.722622 99.025931 
L 82.371996 100.349221 
L 83.151245 101.84033 
L 83.670744 103.198789 
L 84.51493 105.376216 
L 85.229241 106.690515 
L 86.300709 108.244114 
L 87.794269 109.923591 
L 88.76833 111.514199 
L 89.190423 112.465274 
L 89.904734 113.849559 
L 94.223072 120.935172 
L 95.067258 121.669584 
L 95.976382 122.12598 
L 97.405005 122.572432 
L 100.034969 123.381822 
L 101.301249 123.589653 
L 110.847047 124.351321 
L 117.957692 124.433636 
L 181.401535 124.40975 
L 398.487273 124.409695 
L 398.487273 124.409695 
" clip-path="url(#p4ea68a34e1)" style="fill: none; stroke: #ff0000; stroke-width: 1.5; stroke-linecap: square"/>
   </g>
   <g id="line2d_75">
    <path d="M 73.832727 161.17779 
L 74.482101 161.995835 
L 75.034069 162.348882 
L 75.293819 162.37925 
L 75.910724 162.360036 
L 76.170474 162.22316 
L 77.436753 161.419532 
L 79.417344 161.11729 
L 80.26153 160.565675 
L 80.716092 160.261134 
L 81.170654 159.811521 
L 81.592747 159.112936 
L 82.696683 156.516371 
L 83.573338 151.96634 
L 84.287649 147.219075 
L 85.196773 142.261445 
L 86.657864 136.435495 
L 87.859206 132.436826 
L 88.605986 130.653891 
L 89.352767 129.365608 
L 89.969672 128.68844 
L 90.489171 128.381297 
L 91.495701 128.050111 
L 92.437293 127.690334 
L 95.716632 125.631347 
L 97.210192 125.154397 
L 98.703753 124.905521 
L 102.794809 124.562511 
L 106.26896 124.547353 
L 121.821468 124.454088 
L 152.342047 124.411162 
L 398.487273 124.409695 
L 398.487273 124.409695 
" clip-path="url(#p4ea68a34e1)" style="fill: none; stroke: #ff0000; stroke-width: 1.5; stroke-linecap: square"/>
   </g>
   <g id="line2d_76">
    <path d="M 73.832727 65.16824 
L 75.423694 69.149521 
L 76.332817 71.084287 
L 77.599097 74.852794 
L 79.709562 82.617637 
L 81.105716 89.298546 
L 82.404464 95.863361 
L 83.703213 105.13042 
L 84.320118 108.379211 
L 85.066898 111.093415 
L 85.748741 112.664486 
L 86.560458 114.004218 
L 87.404644 114.713751 
L 88.476112 115.067376 
L 89.190423 115.395687 
L 90.034609 115.952943 
L 90.813858 116.512762 
L 92.210012 117.545455 
L 92.989261 118.295413 
L 94.190603 119.398665 
L 95.327008 120.341279 
L 97.502411 121.502886 
L 99.418064 122.266282 
L 103.898745 123.582951 
L 106.26896 123.974993 
L 108.76905 124.172225 
L 113.704293 124.291938 
L 134.127106 124.394208 
L 216.337858 124.409693 
L 398.487273 124.409695 
L 398.487273 124.409695 
" clip-path="url(#p4ea68a34e1)" style="fill: none; stroke: #ff0000; stroke-width: 1.5; stroke-linecap: square"/>
   </g>
   <g id="line2d_77">
    <path d="M 73.832727 82.12882 
L 77.664034 88.713756 
L 78.76797 89.686874 
L 79.936843 90.737462 
L 80.326468 91.384588 
L 81.365466 93.639921 
L 82.144715 95.665595 
L 82.371996 96.816527 
L 83.995431 105.677029 
L 84.872086 109.073516 
L 85.716272 111.459599 
L 86.592927 113.406488 
L 87.01502 113.970663 
L 87.729331 114.639264 
L 88.605986 115.359164 
L 90.716452 117.187232 
L 91.300889 117.832921 
L 94.710102 121.962835 
L 95.943913 122.787012 
L 97.01538 123.245103 
L 98.76869 123.676061 
L 102.242841 124.207273 
L 104.7754 124.367046 
L 109.970392 124.435594 
L 132.730952 124.419899 
L 240.689384 124.409695 
L 398.487273 124.409695 
L 398.487273 124.409695 
" clip-path="url(#p4ea68a34e1)" style="fill: none; stroke: #ff0000; stroke-width: 1.5; stroke-linecap: square"/>
   </g>
   <g id="line2d_78">
    <path d="M 73.832727 108.649806 
L 73.930133 108.816732 
L 75.26135 111.955441 
L 76.852317 116.753726 
L 78.053658 119.042788 
L 79.7745 122.246413 
L 80.781029 122.80097 
L 81.982371 122.618099 
L 83.410994 121.44621 
L 83.638275 121.500302 
L 84.060368 121.78497 
L 88.573518 126.558689 
L 89.287829 126.868296 
L 90.781389 127.109358 
L 91.398295 126.881645 
L 92.177544 126.42806 
L 93.216542 125.819148 
L 94.158134 125.448546 
L 95.26207 125.232557 
L 97.599817 125.027783 
L 101.171374 124.904101 
L 124.873526 124.43234 
L 178.02479 124.409789 
L 398.487273 124.409695 
L 398.487273 124.409695 
" clip-path="url(#p4ea68a34e1)" style="fill: none; stroke: #ff0000; stroke-width: 1.5; stroke-linecap: square"/>
   </g>
   <g id="line2d_79">
    <path d="M 73.832727 295.488 
L 75.910724 286.865576 
L 78.086127 279.496821 
L 79.190063 276.802216 
L 80.001781 275.090301 
L 82.339527 271.860739 
L 83.475932 270.214982 
L 87.209832 261.140668 
L 87.7618 260.366704 
L 88.476112 259.748035 
L 90.619046 258.248604 
L 92.339887 257.421882 
L 93.541229 256.730988 
L 95.976382 255.027528 
L 97.145255 254.088711 
L 98.573878 253.22609 
L 100.457062 252.35575 
L 102.340247 251.600571 
L 104.353307 251.050968 
L 106.853397 250.612224 
L 109.840517 250.309845 
L 114.483541 250.086061 
L 122.243561 249.961905 
L 143.607967 249.932972 
L 398.487273 249.896183 
L 398.487273 249.896183 
" clip-path="url(#p4ea68a34e1)" style="fill: none; stroke: #ff0000; stroke-width: 1.5; stroke-linecap: square"/>
   </g>
   <g id="line2d_80">
    <path d="M 73.832727 62.824221 
L 74.741851 63.650439 
L 75.163944 64.344151 
L 77.112066 69.643092 
L 79.51475 77.742068 
L 79.936843 79.032041 
L 80.52128 80.123411 
L 80.975842 80.707437 
L 81.657684 81.885512 
L 82.339527 83.731365 
L 82.923964 85.521153 
L 83.703213 88.928668 
L 85.196773 97.033791 
L 86.365646 101.676152 
L 86.917614 103.345179 
L 88.76833 107.787413 
L 90.489171 111.377905 
L 92.664574 114.807381 
L 95.716632 119.199842 
L 96.723162 120.177005 
L 97.697223 120.93477 
L 99.125846 121.772255 
L 100.814218 122.423691 
L 102.697403 122.862159 
L 107.080678 123.519988 
L 113.639355 124.001947 
L 120.198033 124.226038 
L 133.542669 124.37043 
L 166.27112 124.408666 
L 398.487273 124.409695 
L 398.487273 124.409695 
" clip-path="url(#p4ea68a34e1)" style="fill: none; stroke: #ff0000; stroke-width: 1.5; stroke-linecap: square"/>
   </g>
   <g id="line2d_81">
    <path d="M 73.832727 173.551509 
L 74.77432 171.746115 
L 75.423694 170.242861 
L 76.00813 169.250778 
L 76.332817 169.031012 
L 76.852317 168.990551 
L 77.27441 168.941265 
L 77.923784 168.672726 
L 78.216002 168.395165 
L 79.222532 166.92751 
L 79.612156 166.090458 
L 80.066718 165.076278 
L 80.52128 163.919606 
L 81.884965 157.09538 
L 84.092837 144.867143 
L 85.359116 138.997386 
L 86.040959 137.117268 
L 87.01502 135.567436 
L 87.631925 134.946623 
L 88.216362 134.611545 
L 90.781389 133.449288 
L 91.430763 133.08964 
L 92.697043 132.239168 
L 93.76851 131.066551 
L 97.177724 127.080335 
L 97.827098 126.751144 
L 98.801159 126.567883 
L 100.327188 126.289088 
L 103.671464 125.454498 
L 107.113146 124.941388 
L 110.100267 124.64815 
L 114.938103 124.502442 
L 125.750181 124.419801 
L 198.967103 124.409697 
L 398.487273 124.409695 
L 398.487273 124.409695 
" clip-path="url(#p4ea68a34e1)" style="fill: none; stroke: #ff0000; stroke-width: 1.5; stroke-linecap: square"/>
   </g>
   <g id="line2d_82">
    <path d="M 73.832727 251.499606 
L 74.839257 250.546351 
L 76.365286 249.263543 
L 77.76144 249.575145 
L 78.573158 250.326053 
L 79.644625 251.418061 
L 81.884965 253.533424 
L 82.501871 253.742243 
L 83.475932 253.799487 
L 84.125306 253.577075 
L 84.677274 253.041117 
L 86.463052 251.567791 
L 87.7618 250.750815 
L 91.917794 249.067763 
L 92.794449 249.046151 
L 94.158134 249.340032 
L 95.749101 249.620165 
L 96.690693 249.62239 
L 100.457062 249.579931 
L 103.119496 249.685766 
L 105.814398 249.986481 
L 109.483361 250.155428 
L 115.457602 250.176748 
L 162.082658 249.927626 
L 278.190734 249.897261 
L 398.487273 249.896174 
L 398.487273 249.896174 
" clip-path="url(#p4ea68a34e1)" style="fill: none; stroke: #ff0000; stroke-width: 1.5; stroke-linecap: square"/>
   </g>
   <g id="line2d_83">
    <path d="M 73.832727 84.70075 
L 76.462692 90.833692 
L 77.144535 92.677701 
L 78.897845 96.759894 
L 80.488811 99.871952 
L 80.781029 100.373975 
L 81.560278 102.12267 
L 84.125306 106.083861 
L 84.709742 107.623504 
L 85.911084 110.809588 
L 87.404644 114.358497 
L 89.482641 118.624423 
L 90.229421 119.579692 
L 90.976202 120.196953 
L 92.76198 121.100182 
L 94.482821 121.863259 
L 96.75563 122.865383 
L 100.229782 123.671751 
L 102.27531 123.926036 
L 105.879336 124.109296 
L 116.983631 124.300569 
L 135.133636 124.394219 
L 212.311739 124.409691 
L 398.487273 124.409695 
L 398.487273 124.409695 
" clip-path="url(#p4ea68a34e1)" style="fill: none; stroke: #ff0000; stroke-width: 1.5; stroke-linecap: square"/>
   </g>
   <g id="line2d_84">
    <path d="M 73.832727 247.410171 
L 76.235411 245.013519 
L 77.112066 244.260542 
L 77.664034 244.256091 
L 77.988721 244.42384 
L 78.50822 245.075056 
L 79.222532 246.074407 
L 81.040779 249.185012 
L 82.112246 250.851137 
L 82.696683 251.530568 
L 83.118776 251.775101 
L 84.385055 251.688663 
L 85.196773 251.729228 
L 85.813678 251.658799 
L 86.75527 251.538423 
L 87.307238 251.625473 
L 88.183893 251.677155 
L 91.950263 251.67922 
L 94.125666 251.067571 
L 95.976382 250.767021 
L 104.093557 249.853554 
L 108.249551 249.725465 
L 116.301789 249.723508 
L 165.686684 249.918191 
L 398.487273 249.896194 
L 398.487273 249.896194 
" clip-path="url(#p4ea68a34e1)" style="fill: none; stroke: #ff0000; stroke-width: 1.5; stroke-linecap: square"/>
   </g>
   <g id="line2d_85">
    <path d="M 73.832727 178.459551 
L 74.449633 177.315202 
L 75.099007 176.038587 
L 75.553568 175.63791 
L 75.943193 175.496142 
L 77.209472 175.475397 
L 77.566628 175.297412 
L 77.988721 174.853235 
L 78.378345 174.300488 
L 80.326468 169.319645 
L 80.781029 167.509247 
L 82.01484 163.178383 
L 83.053838 159.132721 
L 85.26171 148.324977 
L 86.26824 142.875134 
L 87.177364 139.250195 
L 89.77486 130.939639 
L 90.326828 130.006732 
L 90.813858 129.529732 
L 95.229602 126.441041 
L 96.366006 126.152368 
L 98.314128 125.852596 
L 101.885685 125.148005 
L 104.158494 124.837158 
L 108.152145 124.567453 
L 114.02898 124.440464 
L 138.964942 124.410734 
L 398.487273 124.409695 
L 398.487273 124.409695 
" clip-path="url(#p4ea68a34e1)" style="fill: none; stroke: #ff0000; stroke-width: 1.5; stroke-linecap: square"/>
   </g>
   <g id="patch_3">
    <path d="M 57.6 307.584 
L 57.6 41.472 
" style="fill: none; stroke: #000000; stroke-width: 0.8; stroke-linejoin: miter; stroke-linecap: square"/>
   </g>
   <g id="patch_4">
    <path d="M 414.72 307.584 
L 414.72 41.472 
" style="fill: none; stroke: #000000; stroke-width: 0.8; stroke-linejoin: miter; stroke-linecap: square"/>
   </g>
   <g id="patch_5">
    <path d="M 57.6 307.584 
L 414.72 307.584 
" style="fill: none; stroke: #000000; stroke-width: 0.8; stroke-linejoin: miter; stroke-linecap: square"/>
   </g>
   <g id="patch_6">
    <path d="M 57.6 41.472 
L 414.72 41.472 
" style="fill: none; stroke: #000000; stroke-width: 0.8; stroke-linejoin: miter; stroke-linecap: square"/>
   </g>
   <g id="text_18">
    <!-- Opinion Over Time -->
    <g transform="translate(180.090937 35.472) scale(0.12 -0.12)">
     <defs>
      <path id="DejaVuSans-20" transform="scale(0.015625)"/>
      <path id="DejaVuSans-76" d="M 191 3500 
L 800 3500 
L 1894 563 
L 2988 3500 
L 3597 3500 
L 2284 0 
L 1503 0 
L 191 3500 
z
" transform="scale(0.015625)"/>
      <path id="DejaVuSans-72" d="M 2631 2963 
Q 2534 3019 2420 3045 
Q 2306 3072 2169 3072 
Q 1681 3072 1420 2755 
Q 1159 2438 1159 1844 
L 1159 0 
L 581 0 
L 581 3500 
L 1159 3500 
L 1159 2956 
Q 1341 3275 1631 3429 
Q 1922 3584 2338 3584 
Q 2397 3584 2469 3576 
Q 2541 3569 2628 3553 
L 2631 2963 
z
" transform="scale(0.015625)"/>
      <path id="DejaVuSans-54" d="M -19 4666 
L 3928 4666 
L 3928 4134 
L 2272 4134 
L 2272 0 
L 1638 0 
L 1638 4134 
L -19 4134 
L -19 4666 
z
" transform="scale(0.015625)"/>
      <path id="DejaVuSans-6d" d="M 3328 2828 
Q 3544 3216 3844 3400 
Q 4144 3584 4550 3584 
Q 5097 3584 5394 3201 
Q 5691 2819 5691 2113 
L 5691 0 
L 5113 0 
L 5113 2094 
Q 5113 2597 4934 2840 
Q 4756 3084 4391 3084 
Q 3944 3084 3684 2787 
Q 3425 2491 3425 1978 
L 3425 0 
L 2847 0 
L 2847 2094 
Q 2847 2600 2669 2842 
Q 2491 3084 2119 3084 
Q 1678 3084 1418 2786 
Q 1159 2488 1159 1978 
L 1159 0 
L 581 0 
L 581 3500 
L 1159 3500 
L 1159 2956 
Q 1356 3278 1631 3431 
Q 1906 3584 2284 3584 
Q 2666 3584 2933 3390 
Q 3200 3197 3328 2828 
z
" transform="scale(0.015625)"/>
     </defs>
     <use xlink:href="#DejaVuSans-4f"/>
     <use xlink:href="#DejaVuSans-70" x="78.710938"/>
     <use xlink:href="#DejaVuSans-69" x="142.1875"/>
     <use xlink:href="#DejaVuSans-6e" x="169.970703"/>
     <use xlink:href="#DejaVuSans-69" x="233.349609"/>
     <use xlink:href="#DejaVuSans-6f" x="261.132812"/>
     <use xlink:href="#DejaVuSans-6e" x="322.314453"/>
     <use xlink:href="#DejaVuSans-20" x="385.693359"/>
     <use xlink:href="#DejaVuSans-4f" x="417.480469"/>
     <use xlink:href="#DejaVuSans-76" x="496.191406"/>
     <use xlink:href="#DejaVuSans-65" x="555.371094"/>
     <use xlink:href="#DejaVuSans-72" x="616.894531"/>
     <use xlink:href="#DejaVuSans-20" x="658.007812"/>
     <use xlink:href="#DejaVuSans-54" x="689.794922"/>
     <use xlink:href="#DejaVuSans-69" x="747.753906"/>
     <use xlink:href="#DejaVuSans-6d" x="775.537109"/>
     <use xlink:href="#DejaVuSans-65" x="872.949219"/>
    </g>
   </g>
  </g>
 </g>
 <defs>
  <clipPath id="p4ea68a34e1">
   <rect x="57.6" y="41.472" width="357.12" height="266.112"/>
  </clipPath>
 </defs>
</svg>
