<?xml version="1.0" encoding="utf-8" standalone="no"?>
<!DOCTYPE svg PUBLIC "-//W3C//DTD SVG 1.1//EN"
  "http://www.w3.org/Graphics/SVG/1.1/DTD/svg11.dtd">
<svg xmlns:xlink="http://www.w3.org/1999/xlink" width="460.8pt" height="345.6pt" viewBox="0 0 460.8 345.6" xmlns="http://www.w3.org/2000/svg" version="1.1">
 <metadata>
  <rdf:RDF xmlns:dc="http://purl.org/dc/elements/1.1/" xmlns:cc="http://creativecommons.org/ns#" xmlns:rdf="http://www.w3.org/1999/02/22-rdf-syntax-ns#">
   <cc:Work>
    <dc:type rdf:resource="http://purl.org/dc/dcmitype/StillImage"/>
    <dc:date>2025-02-27T11:45:12.017948</dc:date>
    <dc:format>image/svg+xml</dc:format>
    <dc:creator>
     <cc:Agent>
      <dc:title>Matplotlib v3.6.3, https://matplotlib.org/</dc:title>
     </cc:Agent>
    </dc:creator>
   </cc:Work>
  </rdf:RDF>
 </metadata>
 <defs>
  <style type="text/css">*{stroke-linejoin: round; stroke-linecap: butt}</style>
 </defs>
 <g id="figure_1">
  <g id="patch_1">
   <path d="M 0 345.6 
L 460.8 345.6 
L 460.8 0 
L 0 0 
z
" style="fill: #ffffff"/>
  </g>
  <g id="axes_1">
   <g id="patch_2">
    <path d="M 57.6 307.584 
L 414.72 307.584 
L 414.72 41.472 
L 57.6 41.472 
z
" style="fill: #ffffff"/>
   </g>
   <g id="Quiver_1">
    <path d="M 236.683457 171.188682 
L 242.563421 165.306006 
L 239.846819 164.401168 
L 251.616395 158.060202 
L 245.280858 169.832701 
L 244.374768 167.116517 
L 238.494804 172.999193 
L 236.683457 171.188682 
" clip-path="url(#pa2db259251)"/>
    <path d="M 310.309476 241.339496 
L 316.182841 235.464618 
L 313.466331 234.559503 
L 325.236553 228.219737 
L 318.899817 239.991591 
L 317.994003 237.275314 
L 312.120638 243.150192 
L 310.309476 241.339496 
" clip-path="url(#pa2db259251)"/>
    <path d="M 312.538496 140.776808 
L 318.414616 134.904971 
L 315.698553 133.998516 
L 327.471901 127.664557 
L 321.129358 139.433284 
L 320.224884 136.71656 
L 314.348764 142.588397 
L 312.538496 140.776808 
" clip-path="url(#pa2db259251)"/>
    <path d="M 296.876925 203.088449 
L 302.750098 197.210317 
L 300.033323 196.305998 
L 311.801685 189.962781 
L 305.468402 201.736492 
L 304.561791 199.020481 
L 298.688618 204.898613 
L 296.876925 203.088449 
" clip-path="url(#pa2db259251)"/>
    <path d="M 216.031407 113.777791 
L 221.907227 107.906002 
L 219.191144 106.999605 
L 230.964356 100.665393 
L 224.622067 112.434256 
L 223.717535 109.717552 
L 217.841714 115.589342 
L 216.031407 113.777791 
" clip-path="url(#pa2db259251)"/>
    <path d="M 269.926888 182.782166 
L 275.816671 176.886154 
L 273.099799 175.982126 
L 284.867486 169.637655 
L 278.535456 181.412041 
L 277.628556 178.696126 
L 271.738773 184.592137 
L 269.926888 182.782166 
" clip-path="url(#pa2db259251)"/>
    <path d="M 351.747424 151.56841 
L 357.624578 145.695103 
L 354.908481 144.78875 
L 366.681594 138.454353 
L 360.339488 150.223315 
L 359.434913 147.506625 
L 353.55776 153.379931 
L 351.747424 151.56841 
" clip-path="url(#pa2db259251)"/>
    <path d="M 261.423796 150.788128 
L 267.296928 144.901584 
L 264.579504 143.999218 
L 276.343306 137.647547 
L 270.018483 149.425806 
L 269.109921 146.710447 
L 263.236789 152.59699 
L 261.423796 150.788128 
" clip-path="url(#pa2db259251)"/>
    <path d="M 282.062269 123.002657 
L 287.947689 117.118517 
L 285.231394 116.212757 
L 297.003121 109.875786 
L 290.663589 121.646135 
L 289.75842 118.929643 
L 283.873001 124.813783 
L 282.062269 123.002657 
" clip-path="url(#pa2db259251)"/>
    <path d="M 248.790186 117.708319 
L 254.676718 111.817224 
L 251.959974 110.912812 
L 263.728555 104.57 
L 257.394865 116.343493 
L 256.488348 113.627451 
L 250.601816 119.518546 
L 248.790186 117.708319 
" clip-path="url(#pa2db259251)"/>
    <path d="M 247.478596 204.884482 
L 253.372362 198.992334 
L 250.656093 198.086496 
L 262.428002 191.749862 
L 256.088134 203.520029 
L 255.183043 200.803512 
L 249.289276 206.695659 
L 247.478596 204.884482 
" clip-path="url(#pa2db259251)"/>
    <path d="M 314.316117 81.070221 
L 320.199345 75.19267 
L 317.483389 74.285894 
L 329.257485 67.953325 
L 322.913553 79.721303 
L 322.0094 77.004472 
L 316.126172 82.882024 
L 314.316117 81.070221 
" clip-path="url(#pa2db259251)"/>
    <path d="M 211.753966 147.461169 
L 217.62153 141.594126 
L 214.905177 140.688541 
L 226.676497 134.350812 
L 220.337723 146.121569 
L 219.432379 143.405135 
L 213.564814 149.272178 
L 211.753966 147.461169 
" clip-path="url(#pa2db259251)"/>
    <path d="M 273.244553 227.07306 
L 279.122092 221.195599 
L 276.405705 220.290116 
L 288.176785 213.951943 
L 281.838456 225.722939 
L 280.933009 223.00654 
L 275.05547 228.884001 
L 273.244553 227.07306 
" clip-path="url(#pa2db259251)"/>
    <path d="M 272.444661 88.114133 
L 278.330483 82.229244 
L 275.614162 81.323564 
L 287.385703 74.986247 
L 281.046518 86.756782 
L 280.141269 84.040317 
L 274.255446 89.925206 
L 272.444661 88.114133 
" clip-path="url(#pa2db259251)"/>
    <path d="M 180.703164 121.853452 
L 186.582975 115.972125 
L 183.866465 115.06701 
L 195.636686 108.727242 
L 189.299952 120.499097 
L 188.394137 117.78282 
L 182.514326 123.664147 
L 180.703164 121.853452 
" clip-path="url(#pa2db259251)"/>
    <path d="M 321.491446 176.665631 
L 327.369411 170.793432 
L 324.653463 169.886635 
L 336.42761 163.554161 
L 330.083583 175.322087 
L 329.179451 172.60525 
L 323.301486 178.477449 
L 321.491446 176.665631 
" clip-path="url(#pa2db259251)"/>
    <path d="M 239.66981 60.703289 
L 245.55205 54.821347 
L 242.83568 53.915814 
L 254.606879 47.577861 
L 248.268329 59.348738 
L 247.362934 56.632322 
L 241.480693 62.514264 
L 239.66981 60.703289 
" clip-path="url(#pa2db259251)"/>
    <path d="M 340.855173 112.028426 
L 346.73528 106.154456 
L 344.019359 105.247574 
L 355.793705 98.915469 
L 349.449309 110.683196 
L 348.545263 107.96633 
L 342.665157 113.8403 
L 340.855173 112.028426 
" clip-path="url(#pa2db259251)"/>
    <path d="M 336.590122 212.763744 
L 342.461524 206.8937 
L 339.745235 205.987921 
L 351.517005 199.65103 
L 345.177394 211.421336 
L 344.272243 208.704838 
L 338.400842 214.574882 
L 336.590122 212.763744 
" clip-path="url(#pa2db259251)"/>
    <path d="M 244.447494 287.281274 
L 250.326439 281.402232 
L 247.610038 280.49679 
L 259.381023 274.158441 
L 253.04287 285.929532 
L 252.137383 283.213146 
L 246.258438 289.092188 
L 244.447494 287.281274 
" clip-path="url(#pa2db259251)"/>
    <path d="M 222.878919 194.365819 
L 228.766979 188.482329 
L 226.050938 187.57581 
L 237.824436 181.24213 
L 231.481615 193.010706 
L 230.577205 190.293961 
L 224.689144 196.177451 
L 222.878919 194.365819 
" clip-path="url(#pa2db259251)"/>
    <path d="M 137.229848 205.476686 
L 143.110612 199.596303 
L 140.394248 198.69075 
L 152.165492 192.352881 
L 145.826859 204.123714 
L 144.921482 201.407291 
L 139.040718 207.287673 
L 137.229848 205.476686 
" clip-path="url(#pa2db259251)"/>
    <path d="M 205.566554 198.928416 
L 211.45283 193.053174 
L 208.737288 192.145162 
L 220.514267 185.817957 
L 214.164975 197.583043 
L 213.262059 194.865802 
L 207.375783 200.741043 
L 205.566554 198.928416 
" clip-path="url(#pa2db259251)"/>
    <path d="M 152.25797 107.734429 
L 158.142541 101.847959 
L 155.426002 100.942932 
L 167.196018 94.602783 
L 160.859665 106.374843 
L 159.953762 103.658595 
L 154.06919 109.545066 
L 152.25797 107.734429 
" clip-path="url(#pa2db259251)"/>
    <path d="M 139.951325 179.529164 
L 145.830805 173.650135 
L 143.114446 172.744566 
L 154.885727 166.406766 
L 148.547025 178.177561 
L 147.641665 175.461133 
L 141.762184 181.340163 
L 139.951325 179.529164 
" clip-path="url(#pa2db259251)"/>
    <path d="M 125.196431 244.505781 
L 131.076164 238.625199 
L 128.359705 237.719931 
L 140.130284 231.380828 
L 133.792884 243.152324 
L 132.887223 240.435996 
L 127.007491 246.316579 
L 125.196431 244.505781 
" clip-path="url(#pa2db259251)"/>
    <path d="M 221.091979 215.159636 
L 226.978168 209.27814 
L 224.262135 208.371593 
L 236.0357 202.038036 
L 229.692755 213.806545 
L 228.788374 211.089791 
L 222.902186 216.971287 
L 221.091979 215.159636 
" clip-path="url(#pa2db259251)"/>
    <path d="M 237.13569 229.226479 
L 243.017415 223.339391 
L 240.300609 222.435165 
L 252.068758 216.091551 
L 245.735871 227.865475 
L 244.829169 225.149495 
L 238.947444 231.036583 
L 237.13569 229.226479 
" clip-path="url(#pa2db259251)"/>
    <path d="M 172.944262 236.222627 
L 178.82386 230.342981 
L 176.107463 229.437527 
L 187.878476 223.099229 
L 181.540272 234.870292 
L 180.634797 232.153903 
L 174.755198 238.033548 
L 172.944262 236.222627 
" clip-path="url(#pa2db259251)"/>
    <path d="M 167.352817 89.137833 
L 173.239211 83.25185 
L 170.522849 82.346291 
L 182.294109 76.008452 
L 175.955445 87.779268 
L 175.050076 85.062843 
L 169.163682 90.948825 
L 167.352817 89.137833 
" clip-path="url(#pa2db259251)"/>
    <path d="M 115.382974 219.577346 
L 121.263177 213.69662 
L 118.546743 212.791277 
L 130.3175 206.452502 
L 123.979772 218.223822 
L 123.074187 215.507469 
L 117.193984 221.388194 
L 115.382974 219.577346 
" clip-path="url(#pa2db259251)"/>
    <path d="M 187.786103 222.450939 
L 193.666137 216.57213 
L 190.949838 215.666382 
L 202.721535 209.329356 
L 196.382059 221.099735 
L 195.476877 218.383247 
L 189.596844 224.262057 
L 187.786103 222.450939 
" clip-path="url(#pa2db259251)"/>
    <path d="M 122.243819 164.87605 
L 128.123728 158.996226 
L 125.407341 158.090742 
L 137.178425 151.752576 
L 130.840089 163.523568 
L 129.934644 160.807168 
L 124.054734 166.686992 
L 122.243819 164.87605 
" clip-path="url(#pa2db259251)"/>
    <path d="M 229.616246 269.724244 
L 235.495789 263.844946 
L 232.779414 262.939425 
L 244.550585 256.601419 
L 238.212088 268.372325 
L 237.30668 265.655913 
L 231.427137 271.53521 
L 229.616246 269.724244 
" clip-path="url(#pa2db259251)"/>
    <path d="M 218.843113 294.582578 
L 224.721728 288.703415 
L 222.005293 287.798077 
L 233.776035 281.459277 
L 227.438332 293.230611 
L 226.532741 290.51426 
L 220.654127 296.393422 
L 218.843113 294.582578 
" clip-path="url(#pa2db259251)"/>
    <path d="M 185.823416 71.541074 
L 191.707691 65.658148 
L 188.991401 64.752372 
L 200.763165 58.415469 
L 194.423565 70.185781 
L 193.518412 67.469284 
L 187.634138 73.352211 
L 185.823416 71.541074 
" clip-path="url(#pa2db259251)"/>
    <path d="M 210.698117 176.811188 
L 216.574241 170.93633 
L 213.857946 170.030572 
L 225.629667 163.69359 
L 219.290147 175.463945 
L 218.384975 172.747454 
L 212.50885 178.622312 
L 210.698117 176.811188 
" clip-path="url(#pa2db259251)"/>
    <path d="M 355.850331 185.351356 
L 361.726195 179.480079 
L 359.010155 178.573554 
L 370.783667 172.2399 
L 364.44082 184.008462 
L 363.536416 181.291715 
L 357.660553 187.162992 
L 355.850331 185.351356 
" clip-path="url(#pa2db259251)"/>
    <path d="M 293.887464 171.003351 
L 299.777329 165.112697 
L 297.060875 164.207414 
L 308.831487 157.868373 
L 302.494026 169.639837 
L 301.588379 166.923504 
L 295.698515 172.814159 
L 293.887464 171.003351 
" clip-path="url(#pa2db259251)"/>
    <path d="M 215.631851 83.622332 
L 221.511387 77.745708 
L 218.795218 76.839571 
L 230.567827 70.504237 
L 224.226659 82.273704 
L 223.321867 79.557086 
L 217.442331 85.433709 
L 215.631851 83.622332 
" clip-path="url(#pa2db259251)"/>
    <path d="M 157.770272 146.476514 
L 163.648276 140.594373 
L 160.931564 139.689864 
L 172.700372 133.347472 
L 166.366262 145.12074 
L 165.459842 142.404665 
L 159.581838 148.286806 
L 157.770272 146.476514 
" clip-path="url(#pa2db259251)"/>
    <path d="M 182.119279 148.729772 
L 187.996613 142.850677 
L 185.280083 141.94562 
L 197.050172 135.605605 
L 190.713684 147.377592 
L 189.807813 144.661335 
L 183.930479 150.54043 
L 182.119279 148.729772 
" clip-path="url(#pa2db259251)"/>
    <path d="M 287.389722 153.800709 
L 293.260082 147.920918 
L 290.542963 147.017634 
L 302.30891 140.669938 
L 295.980108 152.446059 
L 295.072464 149.730393 
L 289.202103 155.610184 
L 287.389722 153.800709 
" clip-path="url(#pa2db259251)"/>
    <path d="M 239.764953 91.013163 
L 245.642205 85.131205 
L 242.92545 84.226828 
L 254.693951 77.883866 
L 248.36041 89.65744 
L 247.453859 86.941409 
L 241.576606 92.823367 
L 239.764953 91.013163 
" clip-path="url(#pa2db259251)"/>
    <path d="M 189.770583 293.959843 
L 195.649554 288.080192 
L 192.933109 287.174885 
L 204.70378 280.835953 
L 198.366209 292.607358 
L 197.460588 289.891017 
L 191.581617 295.770667 
L 189.770583 293.959843 
" clip-path="url(#pa2db259251)"/>
    <path d="M 251.692101 243.781962 
L 257.566606 237.89969 
L 254.849615 236.99602 
L 266.616464 230.649994 
L 260.28599 242.425217 
L 259.378731 239.709422 
L 253.504226 245.591694 
L 251.692101 243.781962 
" clip-path="url(#pa2db259251)"/>
    <path d="M 214.517399 251.849952 
L 220.397981 245.969955 
L 217.681633 245.064356 
L 229.452986 238.72669 
L 223.114149 250.497413 
L 222.20882 247.780974 
L 216.328238 253.660971 
L 214.517399 251.849952 
" clip-path="url(#pa2db259251)"/>
    <path d="M 139.558412 270.081775 
L 145.437578 264.201559 
L 142.721103 263.296337 
L 154.491575 256.957035 
L 148.154375 268.728639 
L 147.248668 266.012326 
L 141.369503 271.892542 
L 139.558412 270.081775 
" clip-path="url(#pa2db259251)"/>
    <path d="M 156.238089 252.219933 
L 162.117577 246.340137 
L 159.401161 245.434744 
L 171.172033 239.096186 
L 164.834089 250.867389 
L 163.928554 248.151019 
L 158.049065 254.030814 
L 156.238089 252.219933 
" clip-path="url(#pa2db259251)"/>
    <path d="M 114.659088 190.257888 
L 120.539023 184.377878 
L 117.822624 183.472431 
L 129.593621 177.134105 
L 123.255445 188.905183 
L 122.349963 186.188796 
L 116.470028 192.068805 
L 114.659088 190.257888 
" clip-path="url(#pa2db259251)"/>
    <path d="M 269.635734 258.293492 
L 275.510468 252.413769 
L 272.793691 251.509457 
L 284.562037 245.16621 
L 278.228783 256.939938 
L 277.322166 254.223929 
L 271.447432 260.103652 
L 269.635734 258.293492 
" clip-path="url(#pa2db259251)"/>
    <path d="M 148.070344 226.715463 
L 153.950332 220.835356 
L 151.233929 219.92992 
L 163.004903 213.591549 
L 156.666771 225.362651 
L 155.761279 222.646267 
L 149.881292 228.526374 
L 148.070344 226.715463 
" clip-path="url(#pa2db259251)"/>
    <path d="M 236.179046 141.628696 
L 242.051673 135.743078 
L 239.334281 134.840615 
L 251.098309 128.489363 
L 244.773067 140.267396 
L 243.864602 137.552005 
L 237.991974 143.437623 
L 236.179046 141.628696 
" clip-path="url(#pa2db259251)"/>
    <path d="M 169.493792 211.241636 
L 175.374133 205.361923 
L 172.657788 204.456314 
L 184.429164 198.118691 
L 178.090284 209.889391 
L 177.184965 207.172949 
L 171.304624 213.052661 
L 169.493792 211.241636 
" clip-path="url(#pa2db259251)"/>
    <path d="M 203.191656 271.804206 
L 209.071219 265.924306 
L 206.3548 265.018919 
L 218.125657 258.680331 
L 211.787742 270.451551 
L 210.8822 267.735183 
L 205.002637 273.615083 
L 203.191656 271.804206 
" clip-path="url(#pa2db259251)"/>
    <path d="M 269.621578 52.662355 
L 275.505044 46.781235 
L 272.788831 45.875229 
L 284.561133 39.539326 
L 278.220534 51.309099 
L 277.315612 48.592525 
L 271.432145 54.473645 
L 269.621578 52.662355 
" clip-path="url(#pa2db259251)"/>
    <path d="M 198.481161 240.37306 
L 204.361142 234.493886 
L 201.644811 233.588235 
L 213.416283 227.250791 
L 207.077225 239.021395 
L 206.171947 236.304939 
L 200.291966 242.184113 
L 198.481161 240.37306 
" clip-path="url(#pa2db259251)"/>
    <path d="M 291.529534 59.148626 
L 297.415795 53.266779 
L 294.699742 52.360296 
L 306.473156 46.02646 
L 300.13049 57.79512 
L 299.226045 55.078387 
L 293.339783 60.960234 
L 291.529534 59.148626 
" clip-path="url(#pa2db259251)"/>
    <path d="M 190.462428 185.171596 
L 196.346604 179.29861 
L 193.631073 178.390561 
L 205.408138 172.063515 
L 199.058687 183.828516 
L 198.155808 181.111262 
L 192.271632 186.984248 
L 190.462428 185.171596 
" clip-path="url(#pa2db259251)"/>
    <path d="M 193.153096 92.722918 
L 199.038088 86.840998 
L 196.321931 85.934824 
L 208.094624 79.599647 
L 201.753299 91.36903 
L 200.848544 88.6524 
L 194.963552 94.53432 
L 193.153096 92.722918 
" clip-path="url(#pa2db259251)"/>
    <path d="M 171.407276 165.434904 
L 177.283426 159.554685 
L 174.566719 158.65016 
L 186.335563 152.307835 
L 180.001386 164.081066 
L 179.094981 161.364987 
L 173.218832 167.245206 
L 171.407276 165.434904 
" clip-path="url(#pa2db259251)"/>
    <path d="M 192.329361 167.246529 
L 198.191366 161.383025 
L 195.474857 160.477908 
L 207.245085 154.138152 
L 200.908338 165.91 
L 200.002527 163.193722 
L 194.140521 169.057227 
L 192.329361 167.246529 
" clip-path="url(#pa2db259251)"/>
    <path d="M 157.749102 195.259028 
L 163.630132 189.378932 
L 160.91381 188.473252 
L 172.685351 182.135934 
L 166.346166 193.906469 
L 165.440917 191.190004 
L 159.559888 197.0701 
L 157.749102 195.259028 
" clip-path="url(#pa2db259251)"/>
    <path d="M 305.796697 109.180635 
L 311.682534 103.303386 
L 308.966803 102.395939 
L 320.742465 96.066283 
L 314.395621 107.83269 
L 313.49214 105.115637 
L 307.606303 110.992886 
L 305.796697 109.180635 
" clip-path="url(#pa2db259251)"/>
    <path d="M 145.748131 129.545482 
L 151.628889 123.661289 
L 148.912231 122.756617 
L 160.681419 116.41493 
L 154.346604 128.187818 
L 153.440347 125.471689 
L 147.559588 131.355882 
L 145.748131 129.545482 
" clip-path="url(#pa2db259251)"/>
    <path d="M 164.918989 284.002592 
L 170.797878 278.123001 
L 168.08143 277.217699 
L 179.852089 270.878743 
L 173.514542 282.650161 
L 172.608915 279.933821 
L 166.730027 285.813413 
L 164.918989 284.002592 
" clip-path="url(#pa2db259251)"/>
    <path d="M 207.208803 59.578713 
L 213.091057 53.698291 
L 210.374805 52.792404 
L 222.146829 46.455985 
L 215.806745 58.226036 
L 214.901704 55.509502 
L 209.01945 61.389924 
L 207.208803 59.578713 
" clip-path="url(#pa2db259251)"/>
    <path d="M 181.84497 261.02909 
L 187.724247 255.14966 
L 185.007842 254.244231 
L 196.778798 247.905826 
L 190.4407 259.676947 
L 189.5352 256.960565 
L 183.655923 262.839995 
L 181.84497 261.02909 
" clip-path="url(#pa2db259251)"/>
    <path d="M 289.118457 263.121404 
L 294.991491 257.246794 
L 292.274976 256.341694 
L 304.045164 250.001864 
L 297.708492 261.773752 
L 296.802663 259.05748 
L 290.929628 264.93209 
L 289.118457 263.121404 
" clip-path="url(#pa2db259251)"/>
   </g>
   <g id="matplotlib.axis_1">
    <g id="xtick_1">
     <g id="line2d_1">
      <defs>
       <path id="mfb3a37ca61" d="M 0 0 
L 0 3.5 
" style="stroke: #000000; stroke-width: 0.8"/>
      </defs>
      <g>
       <use xlink:href="#mfb3a37ca61" x="106.528942" y="307.584" style="stroke: #000000; stroke-width: 0.8"/>
      </g>
     </g>
     <g id="text_1">
      <!-- 84.5 -->
      <g transform="translate(93.169567 323.702125) scale(0.12 -0.12)">
       <defs>
        <path id="DejaVuSans-38" d="M 2034 2216 
Q 1584 2216 1326 1975 
Q 1069 1734 1069 1313 
Q 1069 891 1326 650 
Q 1584 409 2034 409 
Q 2484 409 2743 651 
Q 3003 894 3003 1313 
Q 3003 1734 2745 1975 
Q 2488 2216 2034 2216 
z
M 1403 2484 
Q 997 2584 770 2862 
Q 544 3141 544 3541 
Q 544 4100 942 4425 
Q 1341 4750 2034 4750 
Q 2731 4750 3128 4425 
Q 3525 4100 3525 3541 
Q 3525 3141 3298 2862 
Q 3072 2584 2669 2484 
Q 3125 2378 3379 2068 
Q 3634 1759 3634 1313 
Q 3634 634 3220 271 
Q 2806 -91 2034 -91 
Q 1263 -91 848 271 
Q 434 634 434 1313 
Q 434 1759 690 2068 
Q 947 2378 1403 2484 
z
M 1172 3481 
Q 1172 3119 1398 2916 
Q 1625 2713 2034 2713 
Q 2441 2713 2670 2916 
Q 2900 3119 2900 3481 
Q 2900 3844 2670 4047 
Q 2441 4250 2034 4250 
Q 1625 4250 1398 4047 
Q 1172 3844 1172 3481 
z
" transform="scale(0.015625)"/>
        <path id="DejaVuSans-34" d="M 2419 4116 
L 825 1625 
L 2419 1625 
L 2419 4116 
z
M 2253 4666 
L 3047 4666 
L 3047 1625 
L 3713 1625 
L 3713 1100 
L 3047 1100 
L 3047 0 
L 2419 0 
L 2419 1100 
L 313 1100 
L 313 1709 
L 2253 4666 
z
" transform="scale(0.015625)"/>
        <path id="DejaVuSans-2e" d="M 684 794 
L 1344 794 
L 1344 0 
L 684 0 
L 684 794 
z
" transform="scale(0.015625)"/>
        <path id="DejaVuSans-35" d="M 691 4666 
L 3169 4666 
L 3169 4134 
L 1269 4134 
L 1269 2991 
Q 1406 3038 1543 3061 
Q 1681 3084 1819 3084 
Q 2600 3084 3056 2656 
Q 3513 2228 3513 1497 
Q 3513 744 3044 326 
Q 2575 -91 1722 -91 
Q 1428 -91 1123 -41 
Q 819 9 494 109 
L 494 744 
Q 775 591 1075 516 
Q 1375 441 1709 441 
Q 2250 441 2565 725 
Q 2881 1009 2881 1497 
Q 2881 1984 2565 2268 
Q 2250 2553 1709 2553 
Q 1456 2553 1204 2497 
Q 953 2441 691 2322 
L 691 4666 
z
" transform="scale(0.015625)"/>
       </defs>
       <use xlink:href="#DejaVuSans-38"/>
       <use xlink:href="#DejaVuSans-34" x="63.623047"/>
       <use xlink:href="#DejaVuSans-2e" x="127.246094"/>
       <use xlink:href="#DejaVuSans-35" x="159.033203"/>
      </g>
     </g>
    </g>
    <g id="xtick_2">
     <g id="line2d_2">
      <g>
       <use xlink:href="#mfb3a37ca61" x="165.849946" y="307.584" style="stroke: #000000; stroke-width: 0.8"/>
      </g>
     </g>
     <g id="text_2">
      <!-- 85.0 -->
      <g transform="translate(152.490571 323.702125) scale(0.12 -0.12)">
       <defs>
        <path id="DejaVuSans-30" d="M 2034 4250 
Q 1547 4250 1301 3770 
Q 1056 3291 1056 2328 
Q 1056 1369 1301 889 
Q 1547 409 2034 409 
Q 2525 409 2770 889 
Q 3016 1369 3016 2328 
Q 3016 3291 2770 3770 
Q 2525 4250 2034 4250 
z
M 2034 4750 
Q 2819 4750 3233 4129 
Q 3647 3509 3647 2328 
Q 3647 1150 3233 529 
Q 2819 -91 2034 -91 
Q 1250 -91 836 529 
Q 422 1150 422 2328 
Q 422 3509 836 4129 
Q 1250 4750 2034 4750 
z
" transform="scale(0.015625)"/>
       </defs>
       <use xlink:href="#DejaVuSans-38"/>
       <use xlink:href="#DejaVuSans-35" x="63.623047"/>
       <use xlink:href="#DejaVuSans-2e" x="127.246094"/>
       <use xlink:href="#DejaVuSans-30" x="159.033203"/>
      </g>
     </g>
    </g>
    <g id="xtick_3">
     <g id="line2d_3">
      <g>
       <use xlink:href="#mfb3a37ca61" x="225.17095" y="307.584" style="stroke: #000000; stroke-width: 0.8"/>
      </g>
     </g>
     <g id="text_3">
      <!-- 85.5 -->
      <g transform="translate(211.811575 323.702125) scale(0.12 -0.12)">
       <use xlink:href="#DejaVuSans-38"/>
       <use xlink:href="#DejaVuSans-35" x="63.623047"/>
       <use xlink:href="#DejaVuSans-2e" x="127.246094"/>
       <use xlink:href="#DejaVuSans-35" x="159.033203"/>
      </g>
     </g>
    </g>
    <g id="xtick_4">
     <g id="line2d_4">
      <g>
       <use xlink:href="#mfb3a37ca61" x="284.491955" y="307.584" style="stroke: #000000; stroke-width: 0.8"/>
      </g>
     </g>
     <g id="text_4">
      <!-- 86.0 -->
      <g transform="translate(271.13258 323.702125) scale(0.12 -0.12)">
       <defs>
        <path id="DejaVuSans-36" d="M 2113 2584 
Q 1688 2584 1439 2293 
Q 1191 2003 1191 1497 
Q 1191 994 1439 701 
Q 1688 409 2113 409 
Q 2538 409 2786 701 
Q 3034 994 3034 1497 
Q 3034 2003 2786 2293 
Q 2538 2584 2113 2584 
z
M 3366 4563 
L 3366 3988 
Q 3128 4100 2886 4159 
Q 2644 4219 2406 4219 
Q 1781 4219 1451 3797 
Q 1122 3375 1075 2522 
Q 1259 2794 1537 2939 
Q 1816 3084 2150 3084 
Q 2853 3084 3261 2657 
Q 3669 2231 3669 1497 
Q 3669 778 3244 343 
Q 2819 -91 2113 -91 
Q 1303 -91 875 529 
Q 447 1150 447 2328 
Q 447 3434 972 4092 
Q 1497 4750 2381 4750 
Q 2619 4750 2861 4703 
Q 3103 4656 3366 4563 
z
" transform="scale(0.015625)"/>
       </defs>
       <use xlink:href="#DejaVuSans-38"/>
       <use xlink:href="#DejaVuSans-36" x="63.623047"/>
       <use xlink:href="#DejaVuSans-2e" x="127.246094"/>
       <use xlink:href="#DejaVuSans-30" x="159.033203"/>
      </g>
     </g>
    </g>
    <g id="xtick_5">
     <g id="line2d_5">
      <g>
       <use xlink:href="#mfb3a37ca61" x="343.812959" y="307.584" style="stroke: #000000; stroke-width: 0.8"/>
      </g>
     </g>
     <g id="text_5">
      <!-- 86.5 -->
      <g transform="translate(330.453584 323.702125) scale(0.12 -0.12)">
       <use xlink:href="#DejaVuSans-38"/>
       <use xlink:href="#DejaVuSans-36" x="63.623047"/>
       <use xlink:href="#DejaVuSans-2e" x="127.246094"/>
       <use xlink:href="#DejaVuSans-35" x="159.033203"/>
      </g>
     </g>
    </g>
    <g id="xtick_6">
     <g id="line2d_6">
      <g>
       <use xlink:href="#mfb3a37ca61" x="403.133963" y="307.584" style="stroke: #000000; stroke-width: 0.8"/>
      </g>
     </g>
     <g id="text_6">
      <!-- 87.0 -->
      <g transform="translate(389.774588 323.702125) scale(0.12 -0.12)">
       <defs>
        <path id="DejaVuSans-37" d="M 525 4666 
L 3525 4666 
L 3525 4397 
L 1831 0 
L 1172 0 
L 2766 4134 
L 525 4134 
L 525 4666 
z
" transform="scale(0.015625)"/>
       </defs>
       <use xlink:href="#DejaVuSans-38"/>
       <use xlink:href="#DejaVuSans-37" x="63.623047"/>
       <use xlink:href="#DejaVuSans-2e" x="127.246094"/>
       <use xlink:href="#DejaVuSans-30" x="159.033203"/>
      </g>
     </g>
    </g>
    <g id="text_7">
     <!-- x -->
     <g transform="translate(232.016875 340.835562) scale(0.14 -0.14)">
      <defs>
       <path id="DejaVuSans-78" d="M 3513 3500 
L 2247 1797 
L 3578 0 
L 2900 0 
L 1881 1375 
L 863 0 
L 184 0 
L 1544 1831 
L 300 3500 
L 978 3500 
L 1906 2253 
L 2834 3500 
L 3513 3500 
z
" transform="scale(0.015625)"/>
      </defs>
      <use xlink:href="#DejaVuSans-78"/>
     </g>
    </g>
   </g>
   <g id="matplotlib.axis_2">
    <g id="ytick_1">
     <g id="line2d_7">
      <defs>
       <path id="m21077cf4ab" d="M 0 0 
L -3.5 0 
" style="stroke: #000000; stroke-width: 0.8"/>
      </defs>
      <g>
       <use xlink:href="#m21077cf4ab" x="57.6" y="307.012645" style="stroke: #000000; stroke-width: 0.8"/>
      </g>
     </g>
     <g id="text_8">
      <!-- 85.25 -->
      <g transform="translate(16.24625 311.571707) scale(0.12 -0.12)">
       <defs>
        <path id="DejaVuSans-32" d="M 1228 531 
L 3431 531 
L 3431 0 
L 469 0 
L 469 531 
Q 828 903 1448 1529 
Q 2069 2156 2228 2338 
Q 2531 2678 2651 2914 
Q 2772 3150 2772 3378 
Q 2772 3750 2511 3984 
Q 2250 4219 1831 4219 
Q 1534 4219 1204 4116 
Q 875 4013 500 3803 
L 500 4441 
Q 881 4594 1212 4672 
Q 1544 4750 1819 4750 
Q 2544 4750 2975 4387 
Q 3406 4025 3406 3419 
Q 3406 3131 3298 2873 
Q 3191 2616 2906 2266 
Q 2828 2175 2409 1742 
Q 1991 1309 1228 531 
z
" transform="scale(0.015625)"/>
       </defs>
       <use xlink:href="#DejaVuSans-38"/>
       <use xlink:href="#DejaVuSans-35" x="63.623047"/>
       <use xlink:href="#DejaVuSans-2e" x="127.246094"/>
       <use xlink:href="#DejaVuSans-32" x="159.033203"/>
       <use xlink:href="#DejaVuSans-35" x="222.65625"/>
      </g>
     </g>
    </g>
    <g id="ytick_2">
     <g id="line2d_8">
      <g>
       <use xlink:href="#m21077cf4ab" x="57.6" y="277.352142" style="stroke: #000000; stroke-width: 0.8"/>
      </g>
     </g>
     <g id="text_9">
      <!-- 85.50 -->
      <g transform="translate(16.24625 281.911205) scale(0.12 -0.12)">
       <use xlink:href="#DejaVuSans-38"/>
       <use xlink:href="#DejaVuSans-35" x="63.623047"/>
       <use xlink:href="#DejaVuSans-2e" x="127.246094"/>
       <use xlink:href="#DejaVuSans-35" x="159.033203"/>
       <use xlink:href="#DejaVuSans-30" x="222.65625"/>
      </g>
     </g>
    </g>
    <g id="ytick_3">
     <g id="line2d_9">
      <g>
       <use xlink:href="#m21077cf4ab" x="57.6" y="247.69164" style="stroke: #000000; stroke-width: 0.8"/>
      </g>
     </g>
     <g id="text_10">
      <!-- 85.75 -->
      <g transform="translate(16.24625 252.250703) scale(0.12 -0.12)">
       <use xlink:href="#DejaVuSans-38"/>
       <use xlink:href="#DejaVuSans-35" x="63.623047"/>
       <use xlink:href="#DejaVuSans-2e" x="127.246094"/>
       <use xlink:href="#DejaVuSans-37" x="159.033203"/>
       <use xlink:href="#DejaVuSans-35" x="222.65625"/>
      </g>
     </g>
    </g>
    <g id="ytick_4">
     <g id="line2d_10">
      <g>
       <use xlink:href="#m21077cf4ab" x="57.6" y="218.031138" style="stroke: #000000; stroke-width: 0.8"/>
      </g>
     </g>
     <g id="text_11">
      <!-- 86.00 -->
      <g transform="translate(16.24625 222.590201) scale(0.12 -0.12)">
       <use xlink:href="#DejaVuSans-38"/>
       <use xlink:href="#DejaVuSans-36" x="63.623047"/>
       <use xlink:href="#DejaVuSans-2e" x="127.246094"/>
       <use xlink:href="#DejaVuSans-30" x="159.033203"/>
       <use xlink:href="#DejaVuSans-30" x="222.65625"/>
      </g>
     </g>
    </g>
    <g id="ytick_5">
     <g id="line2d_11">
      <g>
       <use xlink:href="#m21077cf4ab" x="57.6" y="188.370636" style="stroke: #000000; stroke-width: 0.8"/>
      </g>
     </g>
     <g id="text_12">
      <!-- 86.25 -->
      <g transform="translate(16.24625 192.929698) scale(0.12 -0.12)">
       <use xlink:href="#DejaVuSans-38"/>
       <use xlink:href="#DejaVuSans-36" x="63.623047"/>
       <use xlink:href="#DejaVuSans-2e" x="127.246094"/>
       <use xlink:href="#DejaVuSans-32" x="159.033203"/>
       <use xlink:href="#DejaVuSans-35" x="222.65625"/>
      </g>
     </g>
    </g>
    <g id="ytick_6">
     <g id="line2d_12">
      <g>
       <use xlink:href="#m21077cf4ab" x="57.6" y="158.710134" style="stroke: #000000; stroke-width: 0.8"/>
      </g>
     </g>
     <g id="text_13">
      <!-- 86.50 -->
      <g transform="translate(16.24625 163.269196) scale(0.12 -0.12)">
       <use xlink:href="#DejaVuSans-38"/>
       <use xlink:href="#DejaVuSans-36" x="63.623047"/>
       <use xlink:href="#DejaVuSans-2e" x="127.246094"/>
       <use xlink:href="#DejaVuSans-35" x="159.033203"/>
       <use xlink:href="#DejaVuSans-30" x="222.65625"/>
      </g>
     </g>
    </g>
    <g id="ytick_7">
     <g id="line2d_13">
      <g>
       <use xlink:href="#m21077cf4ab" x="57.6" y="129.049632" style="stroke: #000000; stroke-width: 0.8"/>
      </g>
     </g>
     <g id="text_14">
      <!-- 86.75 -->
      <g transform="translate(16.24625 133.608694) scale(0.12 -0.12)">
       <use xlink:href="#DejaVuSans-38"/>
       <use xlink:href="#DejaVuSans-36" x="63.623047"/>
       <use xlink:href="#DejaVuSans-2e" x="127.246094"/>
       <use xlink:href="#DejaVuSans-37" x="159.033203"/>
       <use xlink:href="#DejaVuSans-35" x="222.65625"/>
      </g>
     </g>
    </g>
    <g id="ytick_8">
     <g id="line2d_14">
      <g>
       <use xlink:href="#m21077cf4ab" x="57.6" y="99.389129" style="stroke: #000000; stroke-width: 0.8"/>
      </g>
     </g>
     <g id="text_15">
      <!-- 87.00 -->
      <g transform="translate(16.24625 103.948192) scale(0.12 -0.12)">
       <use xlink:href="#DejaVuSans-38"/>
       <use xlink:href="#DejaVuSans-37" x="63.623047"/>
       <use xlink:href="#DejaVuSans-2e" x="127.246094"/>
       <use xlink:href="#DejaVuSans-30" x="159.033203"/>
       <use xlink:href="#DejaVuSans-30" x="222.65625"/>
      </g>
     </g>
    </g>
    <g id="ytick_9">
     <g id="line2d_15">
      <g>
       <use xlink:href="#m21077cf4ab" x="57.6" y="69.728627" style="stroke: #000000; stroke-width: 0.8"/>
      </g>
     </g>
     <g id="text_16">
      <!-- 87.25 -->
      <g transform="translate(16.24625 74.28769) scale(0.12 -0.12)">
       <use xlink:href="#DejaVuSans-38"/>
       <use xlink:href="#DejaVuSans-37" x="63.623047"/>
       <use xlink:href="#DejaVuSans-2e" x="127.246094"/>
       <use xlink:href="#DejaVuSans-32" x="159.033203"/>
       <use xlink:href="#DejaVuSans-35" x="222.65625"/>
      </g>
     </g>
    </g>
    <g id="text_17">
     <!-- y -->
     <g transform="translate(9.334688 178.671125) rotate(-90) scale(0.14 -0.14)">
      <defs>
       <path id="DejaVuSans-79" d="M 2059 -325 
Q 1816 -950 1584 -1140 
Q 1353 -1331 966 -1331 
L 506 -1331 
L 506 -850 
L 844 -850 
Q 1081 -850 1212 -737 
Q 1344 -625 1503 -206 
L 1606 56 
L 191 3500 
L 800 3500 
L 1894 763 
L 2988 3500 
L 3597 3500 
L 2059 -325 
z
" transform="scale(0.015625)"/>
      </defs>
      <use xlink:href="#DejaVuSans-79"/>
     </g>
    </g>
   </g>
   <g id="line2d_16">
    <defs>
     <path id="mbcb895c9d1" d="M 0 3 
C 0.795609 3 1.55874 2.683901 2.12132 2.12132 
C 2.683901 1.55874 3 0.795609 3 0 
C 3 -0.795609 2.683901 -1.55874 2.12132 -2.12132 
C 1.55874 -2.683901 0.795609 -3 0 -3 
C -0.795609 -3 -1.55874 -2.683901 -2.12132 -2.12132 
C -2.683901 -1.55874 -3 -0.795609 -3 0 
C -3 0.795609 -2.683901 1.55874 -2.12132 2.12132 
C -1.55874 2.683901 -0.795609 3 0 3 
z
" style="stroke: #0000ff"/>
    </defs>
    <g clip-path="url(#pa2db259251)">
     <use xlink:href="#mbcb895c9d1" x="237.589131" y="172.093938" style="fill: #0000ff; stroke: #0000ff"/>
     <use xlink:href="#mbcb895c9d1" x="311.215057" y="242.244844" style="fill: #0000ff; stroke: #0000ff"/>
     <use xlink:href="#mbcb895c9d1" x="313.44363" y="141.682602" style="fill: #0000ff; stroke: #0000ff"/>
     <use xlink:href="#mbcb895c9d1" x="297.782771" y="203.993531" style="fill: #0000ff; stroke: #0000ff"/>
     <use xlink:href="#mbcb895c9d1" x="216.93656" y="114.683566" style="fill: #0000ff; stroke: #0000ff"/>
     <use xlink:href="#mbcb895c9d1" x="270.832831" y="183.687152" style="fill: #0000ff; stroke: #0000ff"/>
     <use xlink:href="#mbcb895c9d1" x="352.652592" y="152.47417" style="fill: #0000ff; stroke: #0000ff"/>
     <use xlink:href="#mbcb895c9d1" x="262.330292" y="151.692559" style="fill: #0000ff; stroke: #0000ff"/>
     <use xlink:href="#mbcb895c9d1" x="282.967635" y="123.90822" style="fill: #0000ff; stroke: #0000ff"/>
     <use xlink:href="#mbcb895c9d1" x="249.696001" y="118.613433" style="fill: #0000ff; stroke: #0000ff"/>
     <use xlink:href="#mbcb895c9d1" x="248.383936" y="205.79007" style="fill: #0000ff; stroke: #0000ff"/>
     <use xlink:href="#mbcb895c9d1" x="315.221145" y="81.976122" style="fill: #0000ff; stroke: #0000ff"/>
     <use xlink:href="#mbcb895c9d1" x="212.65939" y="148.366674" style="fill: #0000ff; stroke: #0000ff"/>
     <use xlink:href="#mbcb895c9d1" x="274.150011" y="227.978531" style="fill: #0000ff; stroke: #0000ff"/>
     <use xlink:href="#mbcb895c9d1" x="273.350053" y="89.019669" style="fill: #0000ff; stroke: #0000ff"/>
     <use xlink:href="#mbcb895c9d1" x="181.608745" y="122.7588" style="fill: #0000ff; stroke: #0000ff"/>
     <use xlink:href="#mbcb895c9d1" x="322.396466" y="177.57154" style="fill: #0000ff; stroke: #0000ff"/>
     <use xlink:href="#mbcb895c9d1" x="240.575252" y="61.608777" style="fill: #0000ff; stroke: #0000ff"/>
     <use xlink:href="#mbcb895c9d1" x="341.760165" y="112.934363" style="fill: #0000ff; stroke: #0000ff"/>
     <use xlink:href="#mbcb895c9d1" x="337.495482" y="213.669313" style="fill: #0000ff; stroke: #0000ff"/>
    </g>
   </g>
   <g id="line2d_17">
    <defs>
     <path id="m77e2fa30f3" d="M 0 3 
C 0.795609 3 1.55874 2.683901 2.12132 2.12132 
C 2.683901 1.55874 3 0.795609 3 0 
C 3 -0.795609 2.683901 -1.55874 2.12132 -2.12132 
C 1.55874 -2.683901 0.795609 -3 0 -3 
C -0.795609 -3 -1.55874 -2.683901 -2.12132 -2.12132 
C -2.683901 -1.55874 -3 -0.795609 -3 0 
C -3 0.795609 -2.683901 1.55874 -2.12132 2.12132 
C -1.55874 2.683901 -0.795609 3 0 3 
z
" style="stroke: #ff0000"/>
    </defs>
    <g clip-path="url(#pa2db259251)">
     <use xlink:href="#m77e2fa30f3" x="245.352966" y="288.186731" style="fill: #ff0000; stroke: #ff0000"/>
     <use xlink:href="#m77e2fa30f3" x="223.784031" y="195.271635" style="fill: #ff0000; stroke: #ff0000"/>
     <use xlink:href="#m77e2fa30f3" x="138.135283" y="206.38218" style="fill: #ff0000; stroke: #ff0000"/>
     <use xlink:href="#m77e2fa30f3" x="206.471168" y="199.834729" style="fill: #ff0000; stroke: #ff0000"/>
     <use xlink:href="#m77e2fa30f3" x="153.16358" y="108.639747" style="fill: #ff0000; stroke: #ff0000"/>
     <use xlink:href="#m77e2fa30f3" x="140.856755" y="180.434663" style="fill: #ff0000; stroke: #ff0000"/>
     <use xlink:href="#m77e2fa30f3" x="126.101961" y="245.41118" style="fill: #ff0000; stroke: #ff0000"/>
     <use xlink:href="#m77e2fa30f3" x="221.997083" y="216.065461" style="fill: #ff0000; stroke: #ff0000"/>
     <use xlink:href="#m77e2fa30f3" x="238.041567" y="230.131531" style="fill: #ff0000; stroke: #ff0000"/>
     <use xlink:href="#m77e2fa30f3" x="173.84973" y="237.128087" style="fill: #ff0000; stroke: #ff0000"/>
     <use xlink:href="#m77e2fa30f3" x="168.258249" y="90.043329" style="fill: #ff0000; stroke: #ff0000"/>
     <use xlink:href="#m77e2fa30f3" x="116.288479" y="220.48277" style="fill: #ff0000; stroke: #ff0000"/>
     <use xlink:href="#m77e2fa30f3" x="188.691473" y="223.356498" style="fill: #ff0000; stroke: #ff0000"/>
     <use xlink:href="#m77e2fa30f3" x="123.149277" y="165.781521" style="fill: #ff0000; stroke: #ff0000"/>
     <use xlink:href="#m77e2fa30f3" x="230.521691" y="270.629727" style="fill: #ff0000; stroke: #ff0000"/>
     <use xlink:href="#m77e2fa30f3" x="219.74862" y="295.488" style="fill: #ff0000; stroke: #ff0000"/>
     <use xlink:href="#m77e2fa30f3" x="186.728777" y="72.446642" style="fill: #ff0000; stroke: #ff0000"/>
     <use xlink:href="#m77e2fa30f3" x="211.603484" y="177.71675" style="fill: #ff0000; stroke: #ff0000"/>
     <use xlink:href="#m77e2fa30f3" x="356.755442" y="186.257174" style="fill: #ff0000; stroke: #ff0000"/>
     <use xlink:href="#m77e2fa30f3" x="294.79299" y="171.908755" style="fill: #ff0000; stroke: #ff0000"/>
     <use xlink:href="#m77e2fa30f3" x="216.537091" y="84.528021" style="fill: #ff0000; stroke: #ff0000"/>
     <use xlink:href="#m77e2fa30f3" x="158.676055" y="147.38166" style="fill: #ff0000; stroke: #ff0000"/>
     <use xlink:href="#m77e2fa30f3" x="183.024879" y="149.635101" style="fill: #ff0000; stroke: #ff0000"/>
     <use xlink:href="#m77e2fa30f3" x="288.295912" y="154.705446" style="fill: #ff0000; stroke: #ff0000"/>
     <use xlink:href="#m77e2fa30f3" x="240.67078" y="91.918265" style="fill: #ff0000; stroke: #ff0000"/>
     <use xlink:href="#m77e2fa30f3" x="190.6761" y="294.865255" style="fill: #ff0000; stroke: #ff0000"/>
     <use xlink:href="#m77e2fa30f3" x="252.598164" y="244.686828" style="fill: #ff0000; stroke: #ff0000"/>
     <use xlink:href="#m77e2fa30f3" x="215.422819" y="252.755462" style="fill: #ff0000; stroke: #ff0000"/>
     <use xlink:href="#m77e2fa30f3" x="140.463958" y="270.987158" style="fill: #ff0000; stroke: #ff0000"/>
     <use xlink:href="#m77e2fa30f3" x="157.143577" y="253.125373" style="fill: #ff0000; stroke: #ff0000"/>
     <use xlink:href="#m77e2fa30f3" x="115.564558" y="191.163346" style="fill: #ff0000; stroke: #ff0000"/>
     <use xlink:href="#m77e2fa30f3" x="270.541583" y="259.198572" style="fill: #ff0000; stroke: #ff0000"/>
     <use xlink:href="#m77e2fa30f3" x="148.975818" y="227.620918" style="fill: #ff0000; stroke: #ff0000"/>
     <use xlink:href="#m77e2fa30f3" x="237.08551" y="142.53316" style="fill: #ff0000; stroke: #ff0000"/>
     <use xlink:href="#m77e2fa30f3" x="170.399208" y="212.147148" style="fill: #ff0000; stroke: #ff0000"/>
     <use xlink:href="#m77e2fa30f3" x="204.097147" y="272.709644" style="fill: #ff0000; stroke: #ff0000"/>
     <use xlink:href="#m77e2fa30f3" x="270.526862" y="53.568" style="fill: #ff0000; stroke: #ff0000"/>
     <use xlink:href="#m77e2fa30f3" x="199.386564" y="241.278587" style="fill: #ff0000; stroke: #ff0000"/>
     <use xlink:href="#m77e2fa30f3" x="292.434659" y="60.05443" style="fill: #ff0000; stroke: #ff0000"/>
     <use xlink:href="#m77e2fa30f3" x="191.36703" y="186.077922" style="fill: #ff0000; stroke: #ff0000"/>
     <use xlink:href="#m77e2fa30f3" x="194.058324" y="93.628619" style="fill: #ff0000; stroke: #ff0000"/>
     <use xlink:href="#m77e2fa30f3" x="172.313054" y="166.340055" style="fill: #ff0000; stroke: #ff0000"/>
     <use xlink:href="#m77e2fa30f3" x="193.234941" y="168.151878" style="fill: #ff0000; stroke: #ff0000"/>
     <use xlink:href="#m77e2fa30f3" x="158.654495" y="196.164564" style="fill: #ff0000; stroke: #ff0000"/>
     <use xlink:href="#m77e2fa30f3" x="306.7015" y="110.086761" style="fill: #ff0000; stroke: #ff0000"/>
     <use xlink:href="#m77e2fa30f3" x="146.65386" y="130.450682" style="fill: #ff0000; stroke: #ff0000"/>
     <use xlink:href="#m77e2fa30f3" x="165.824508" y="284.908003" style="fill: #ff0000; stroke: #ff0000"/>
     <use xlink:href="#m77e2fa30f3" x="208.114127" y="60.484319" style="fill: #ff0000; stroke: #ff0000"/>
     <use xlink:href="#m77e2fa30f3" x="182.750446" y="261.934543" style="fill: #ff0000; stroke: #ff0000"/>
     <use xlink:href="#m77e2fa30f3" x="290.024042" y="264.026747" style="fill: #ff0000; stroke: #ff0000"/>
    </g>
   </g>
   <g id="line2d_18"/>
   <g id="patch_3">
    <path d="M 57.6 307.584 
L 57.6 41.472 
" style="fill: none; stroke: #000000; stroke-width: 0.8; stroke-linejoin: miter; stroke-linecap: square"/>
   </g>
   <g id="patch_4">
    <path d="M 414.72 307.584 
L 414.72 41.472 
" style="fill: none; stroke: #000000; stroke-width: 0.8; stroke-linejoin: miter; stroke-linecap: square"/>
   </g>
   <g id="patch_5">
    <path d="M 57.6 307.584 
L 414.72 307.584 
" style="fill: none; stroke: #000000; stroke-width: 0.8; stroke-linejoin: miter; stroke-linecap: square"/>
   </g>
   <g id="patch_6">
    <path d="M 57.6 41.472 
L 414.72 41.472 
" style="fill: none; stroke: #000000; stroke-width: 0.8; stroke-linejoin: miter; stroke-linecap: square"/>
   </g>
   <g id="text_18">
    <!-- Velocities at the final time -->
    <g transform="translate(116.81 35.472) scale(0.16 -0.16)">
     <defs>
      <path id="DejaVuSans-Bold-56" d="M 31 4666 
L 1241 4666 
L 2478 1222 
L 3713 4666 
L 4922 4666 
L 3194 0 
L 1759 0 
L 31 4666 
z
" transform="scale(0.015625)"/>
      <path id="DejaVuSans-Bold-65" d="M 4031 1759 
L 4031 1441 
L 1416 1441 
Q 1456 1047 1700 850 
Q 1944 653 2381 653 
Q 2734 653 3104 758 
Q 3475 863 3866 1075 
L 3866 213 
Q 3469 63 3072 -14 
Q 2675 -91 2278 -91 
Q 1328 -91 801 392 
Q 275 875 275 1747 
Q 275 2603 792 3093 
Q 1309 3584 2216 3584 
Q 3041 3584 3536 3087 
Q 4031 2591 4031 1759 
z
M 2881 2131 
Q 2881 2450 2695 2645 
Q 2509 2841 2209 2841 
Q 1884 2841 1681 2658 
Q 1478 2475 1428 2131 
L 2881 2131 
z
" transform="scale(0.015625)"/>
      <path id="DejaVuSans-Bold-6c" d="M 538 4863 
L 1656 4863 
L 1656 0 
L 538 0 
L 538 4863 
z
" transform="scale(0.015625)"/>
      <path id="DejaVuSans-Bold-6f" d="M 2203 2784 
Q 1831 2784 1636 2517 
Q 1441 2250 1441 1747 
Q 1441 1244 1636 976 
Q 1831 709 2203 709 
Q 2569 709 2762 976 
Q 2956 1244 2956 1747 
Q 2956 2250 2762 2517 
Q 2569 2784 2203 2784 
z
M 2203 3584 
Q 3106 3584 3614 3096 
Q 4122 2609 4122 1747 
Q 4122 884 3614 396 
Q 3106 -91 2203 -91 
Q 1297 -91 786 396 
Q 275 884 275 1747 
Q 275 2609 786 3096 
Q 1297 3584 2203 3584 
z
" transform="scale(0.015625)"/>
      <path id="DejaVuSans-Bold-63" d="M 3366 3391 
L 3366 2478 
Q 3138 2634 2908 2709 
Q 2678 2784 2431 2784 
Q 1963 2784 1702 2511 
Q 1441 2238 1441 1747 
Q 1441 1256 1702 982 
Q 1963 709 2431 709 
Q 2694 709 2930 787 
Q 3166 866 3366 1019 
L 3366 103 
Q 3103 6 2833 -42 
Q 2563 -91 2291 -91 
Q 1344 -91 809 395 
Q 275 881 275 1747 
Q 275 2613 809 3098 
Q 1344 3584 2291 3584 
Q 2566 3584 2833 3536 
Q 3100 3488 3366 3391 
z
" transform="scale(0.015625)"/>
      <path id="DejaVuSans-Bold-69" d="M 538 3500 
L 1656 3500 
L 1656 0 
L 538 0 
L 538 3500 
z
M 538 4863 
L 1656 4863 
L 1656 3950 
L 538 3950 
L 538 4863 
z
" transform="scale(0.015625)"/>
      <path id="DejaVuSans-Bold-74" d="M 1759 4494 
L 1759 3500 
L 2913 3500 
L 2913 2700 
L 1759 2700 
L 1759 1216 
Q 1759 972 1856 886 
Q 1953 800 2241 800 
L 2816 800 
L 2816 0 
L 1856 0 
Q 1194 0 917 276 
Q 641 553 641 1216 
L 641 2700 
L 84 2700 
L 84 3500 
L 641 3500 
L 641 4494 
L 1759 4494 
z
" transform="scale(0.015625)"/>
      <path id="DejaVuSans-Bold-73" d="M 3272 3391 
L 3272 2541 
Q 2913 2691 2578 2766 
Q 2244 2841 1947 2841 
Q 1628 2841 1473 2761 
Q 1319 2681 1319 2516 
Q 1319 2381 1436 2309 
Q 1553 2238 1856 2203 
L 2053 2175 
Q 2913 2066 3209 1816 
Q 3506 1566 3506 1031 
Q 3506 472 3093 190 
Q 2681 -91 1863 -91 
Q 1516 -91 1145 -36 
Q 775 19 384 128 
L 384 978 
Q 719 816 1070 734 
Q 1422 653 1784 653 
Q 2113 653 2278 743 
Q 2444 834 2444 1013 
Q 2444 1163 2330 1236 
Q 2216 1309 1875 1350 
L 1678 1375 
Q 931 1469 631 1722 
Q 331 1975 331 2491 
Q 331 3047 712 3315 
Q 1094 3584 1881 3584 
Q 2191 3584 2531 3537 
Q 2872 3491 3272 3391 
z
" transform="scale(0.015625)"/>
      <path id="DejaVuSans-Bold-20" transform="scale(0.015625)"/>
      <path id="DejaVuSans-Bold-61" d="M 2106 1575 
Q 1756 1575 1579 1456 
Q 1403 1338 1403 1106 
Q 1403 894 1545 773 
Q 1688 653 1941 653 
Q 2256 653 2472 879 
Q 2688 1106 2688 1447 
L 2688 1575 
L 2106 1575 
z
M 3816 1997 
L 3816 0 
L 2688 0 
L 2688 519 
Q 2463 200 2181 54 
Q 1900 -91 1497 -91 
Q 953 -91 614 226 
Q 275 544 275 1050 
Q 275 1666 698 1953 
Q 1122 2241 2028 2241 
L 2688 2241 
L 2688 2328 
Q 2688 2594 2478 2717 
Q 2269 2841 1825 2841 
Q 1466 2841 1156 2769 
Q 847 2697 581 2553 
L 581 3406 
Q 941 3494 1303 3539 
Q 1666 3584 2028 3584 
Q 2975 3584 3395 3211 
Q 3816 2838 3816 1997 
z
" transform="scale(0.015625)"/>
      <path id="DejaVuSans-Bold-68" d="M 4056 2131 
L 4056 0 
L 2931 0 
L 2931 347 
L 2931 1625 
Q 2931 2084 2911 2256 
Q 2891 2428 2841 2509 
Q 2775 2619 2662 2680 
Q 2550 2741 2406 2741 
Q 2056 2741 1856 2470 
Q 1656 2200 1656 1722 
L 1656 0 
L 538 0 
L 538 4863 
L 1656 4863 
L 1656 2988 
Q 1909 3294 2193 3439 
Q 2478 3584 2822 3584 
Q 3428 3584 3742 3212 
Q 4056 2841 4056 2131 
z
" transform="scale(0.015625)"/>
      <path id="DejaVuSans-Bold-66" d="M 2841 4863 
L 2841 4128 
L 2222 4128 
Q 1984 4128 1890 4042 
Q 1797 3956 1797 3744 
L 1797 3500 
L 2753 3500 
L 2753 2700 
L 1797 2700 
L 1797 0 
L 678 0 
L 678 2700 
L 122 2700 
L 122 3500 
L 678 3500 
L 678 3744 
Q 678 4316 997 4589 
Q 1316 4863 1984 4863 
L 2841 4863 
z
" transform="scale(0.015625)"/>
      <path id="DejaVuSans-Bold-6e" d="M 4056 2131 
L 4056 0 
L 2931 0 
L 2931 347 
L 2931 1631 
Q 2931 2084 2911 2256 
Q 2891 2428 2841 2509 
Q 2775 2619 2662 2680 
Q 2550 2741 2406 2741 
Q 2056 2741 1856 2470 
Q 1656 2200 1656 1722 
L 1656 0 
L 538 0 
L 538 3500 
L 1656 3500 
L 1656 2988 
Q 1909 3294 2193 3439 
Q 2478 3584 2822 3584 
Q 3428 3584 3742 3212 
Q 4056 2841 4056 2131 
z
" transform="scale(0.015625)"/>
      <path id="DejaVuSans-Bold-6d" d="M 3781 2919 
Q 3994 3244 4286 3414 
Q 4578 3584 4928 3584 
Q 5531 3584 5847 3212 
Q 6163 2841 6163 2131 
L 6163 0 
L 5038 0 
L 5038 1825 
Q 5041 1866 5042 1909 
Q 5044 1953 5044 2034 
Q 5044 2406 4934 2573 
Q 4825 2741 4581 2741 
Q 4263 2741 4089 2478 
Q 3916 2216 3909 1719 
L 3909 0 
L 2784 0 
L 2784 1825 
Q 2784 2406 2684 2573 
Q 2584 2741 2328 2741 
Q 2006 2741 1831 2477 
Q 1656 2213 1656 1722 
L 1656 0 
L 531 0 
L 531 3500 
L 1656 3500 
L 1656 2988 
Q 1863 3284 2130 3434 
Q 2397 3584 2719 3584 
Q 3081 3584 3359 3409 
Q 3638 3234 3781 2919 
z
" transform="scale(0.015625)"/>
     </defs>
     <use xlink:href="#DejaVuSans-Bold-56"/>
     <use xlink:href="#DejaVuSans-Bold-65" x="71.892578"/>
     <use xlink:href="#DejaVuSans-Bold-6c" x="139.714844"/>
     <use xlink:href="#DejaVuSans-Bold-6f" x="173.992188"/>
     <use xlink:href="#DejaVuSans-Bold-63" x="242.693359"/>
     <use xlink:href="#DejaVuSans-Bold-69" x="301.970703"/>
     <use xlink:href="#DejaVuSans-Bold-74" x="336.248047"/>
     <use xlink:href="#DejaVuSans-Bold-69" x="384.050781"/>
     <use xlink:href="#DejaVuSans-Bold-65" x="418.328125"/>
     <use xlink:href="#DejaVuSans-Bold-73" x="486.150391"/>
     <use xlink:href="#DejaVuSans-Bold-20" x="545.671875"/>
     <use xlink:href="#DejaVuSans-Bold-61" x="580.486328"/>
     <use xlink:href="#DejaVuSans-Bold-74" x="647.966797"/>
     <use xlink:href="#DejaVuSans-Bold-20" x="695.769531"/>
     <use xlink:href="#DejaVuSans-Bold-74" x="730.583984"/>
     <use xlink:href="#DejaVuSans-Bold-68" x="778.386719"/>
     <use xlink:href="#DejaVuSans-Bold-65" x="849.578125"/>
     <use xlink:href="#DejaVuSans-Bold-20" x="917.400391"/>
     <use xlink:href="#DejaVuSans-Bold-66" x="952.214844"/>
     <use xlink:href="#DejaVuSans-Bold-69" x="995.720703"/>
     <use xlink:href="#DejaVuSans-Bold-6e" x="1029.998047"/>
     <use xlink:href="#DejaVuSans-Bold-61" x="1101.189453"/>
     <use xlink:href="#DejaVuSans-Bold-6c" x="1168.669922"/>
     <use xlink:href="#DejaVuSans-Bold-20" x="1202.947266"/>
     <use xlink:href="#DejaVuSans-Bold-74" x="1237.761719"/>
     <use xlink:href="#DejaVuSans-Bold-69" x="1285.564453"/>
     <use xlink:href="#DejaVuSans-Bold-6d" x="1319.841797"/>
     <use xlink:href="#DejaVuSans-Bold-65" x="1424.041016"/>
    </g>
   </g>
  </g>
 </g>
 <defs>
  <clipPath id="pa2db259251">
   <rect x="57.6" y="41.472" width="357.12" height="266.112"/>
  </clipPath>
 </defs>
</svg>
