<?xml version="1.0" encoding="utf-8" standalone="no"?>
<!DOCTYPE svg PUBLIC "-//W3C//DTD SVG 1.1//EN"
  "http://www.w3.org/Graphics/SVG/1.1/DTD/svg11.dtd">
<svg xmlns:xlink="http://www.w3.org/1999/xlink" width="460.8pt" height="345.6pt" viewBox="0 0 460.8 345.6" xmlns="http://www.w3.org/2000/svg" version="1.1">
 <metadata>
  <rdf:RDF xmlns:dc="http://purl.org/dc/elements/1.1/" xmlns:cc="http://creativecommons.org/ns#" xmlns:rdf="http://www.w3.org/1999/02/22-rdf-syntax-ns#">
   <cc:Work>
    <dc:type rdf:resource="http://purl.org/dc/dcmitype/StillImage"/>
    <dc:date>2025-02-27T11:40:11.010312</dc:date>
    <dc:format>image/svg+xml</dc:format>
    <dc:creator>
     <cc:Agent>
      <dc:title>Matplotlib v3.6.3, https://matplotlib.org/</dc:title>
     </cc:Agent>
    </dc:creator>
   </cc:Work>
  </rdf:RDF>
 </metadata>
 <defs>
  <style type="text/css">*{stroke-linejoin: round; stroke-linecap: butt}</style>
 </defs>
 <g id="figure_1">
  <g id="patch_1">
   <path d="M 0 345.6 
L 460.8 345.6 
L 460.8 0 
L 0 0 
z
" style="fill: #ffffff"/>
  </g>
  <g id="axes_1">
   <g id="patch_2">
    <path d="M 57.6 307.584 
L 414.72 307.584 
L 414.72 41.472 
L 57.6 41.472 
z
" style="fill: #ffffff"/>
   </g>
   <g id="Quiver_1">
    <path d="M 163.865561 263.669141 
L 157.985736 269.548882 
L 160.702123 270.454365 
L 148.93104 276.792533 
L 155.269375 265.02154 
L 156.17482 267.73794 
L 162.054645 261.858199 
L 163.865561 263.669141 
" clip-path="url(#pe4ae8dc4c8)"/>
    <path d="M 152.508219 187.151179 
L 146.628275 193.031208 
L 149.344675 193.936653 
L 137.573683 200.274989 
L 143.911849 188.503905 
L 144.817333 191.220292 
L 150.697277 185.340263 
L 152.508219 187.151179 
" clip-path="url(#pe4ae8dc4c8)"/>
    <path d="M 280.259174 191.660432 
L 274.379506 197.540189 
L 277.095906 198.445633 
L 265.324916 204.783973 
L 271.663078 193.012887 
L 272.568563 195.729273 
L 278.448232 189.849517 
L 280.259174 191.660432 
" clip-path="url(#pe4ae8dc4c8)"/>
    <path d="M 124.903125 157.476838 
L 119.023352 163.356652 
L 121.739748 164.262107 
L 109.968732 170.600399 
L 116.306943 158.829339 
L 117.212416 161.545729 
L 123.09219 155.665915 
L 124.903125 157.476838 
" clip-path="url(#pe4ae8dc4c8)"/>
    <path d="M 306.548967 265.908552 
L 300.668979 271.78855 
L 303.385373 272.694013 
L 291.614341 279.032274 
L 297.952582 267.261231 
L 298.858048 269.977623 
L 304.738036 264.097625 
L 306.548967 265.908552 
" clip-path="url(#pe4ae8dc4c8)"/>
    <path d="M 184.674974 135.509678 
L 178.795075 141.389593 
L 181.51147 142.295054 
L 169.74044 148.63332 
L 176.078676 136.862274 
L 176.984144 139.578666 
L 182.864043 133.698751 
L 184.674974 135.509678 
" clip-path="url(#pe4ae8dc4c8)"/>
    <path d="M 301.987816 85.747985 
L 296.107954 91.627783 
L 298.824343 92.533262 
L 287.053271 98.871451 
L 293.391585 87.100447 
L 294.297035 89.816845 
L 300.176897 83.937046 
L 301.987816 85.747985 
" clip-path="url(#pe4ae8dc4c8)"/>
    <path d="M 287.195802 126.386939 
L 281.315996 132.266735 
L 284.032389 133.172202 
L 272.261345 139.510443 
L 278.599607 127.73941 
L 279.505069 130.455804 
L 285.384874 124.576009 
L 287.195802 126.386939 
" clip-path="url(#pe4ae8dc4c8)"/>
    <path d="M 216.485064 151.693989 
L 210.605215 157.573833 
L 213.321608 158.479299 
L 201.550567 164.817545 
L 207.888823 153.04651 
L 208.794287 155.762903 
L 214.674136 149.883059 
L 216.485064 151.693989 
" clip-path="url(#pe4ae8dc4c8)"/>
    <path d="M 212.823495 261.687151 
L 206.943648 267.566936 
L 209.660036 268.472415 
L 197.888965 274.810603 
L 204.227279 263.039599 
L 205.132729 265.755997 
L 211.012576 259.876213 
L 212.823495 261.687151 
" clip-path="url(#pe4ae8dc4c8)"/>
    <path d="M 320.842721 150.357587 
L 314.962985 156.237296 
L 317.679376 157.142767 
L 305.908323 163.48099 
L 312.246602 151.709967 
L 313.15206 154.426362 
L 319.031796 148.546654 
L 320.842721 150.357587 
" clip-path="url(#pe4ae8dc4c8)"/>
    <path d="M 221.116755 187.122382 
L 215.237141 193.002062 
L 217.953539 193.907511 
L 206.182537 200.245828 
L 212.520722 188.474755 
L 213.426202 191.191143 
L 219.305816 185.311463 
L 221.116755 187.122382 
" clip-path="url(#pe4ae8dc4c8)"/>
    <path d="M 303.240029 223.727344 
L 297.360258 229.607227 
L 300.07666 230.512666 
L 288.305683 236.851028 
L 294.643822 225.07993 
L 295.549312 227.796315 
L 301.429083 221.916433 
L 303.240029 223.727344 
" clip-path="url(#pe4ae8dc4c8)"/>
    <path d="M 247.773859 245.249656 
L 241.894066 251.129484 
L 244.610462 252.03494 
L 232.839442 258.373226 
L 239.177659 246.602169 
L 240.083132 249.31856 
L 245.962925 243.438732 
L 247.773859 245.249656 
" clip-path="url(#pe4ae8dc4c8)"/>
    <path d="M 265.256837 157.189356 
L 259.377138 163.069123 
L 262.093536 163.974572 
L 250.322535 170.312891 
L 256.660718 158.541817 
L 257.566198 161.258205 
L 263.445898 155.378438 
L 265.256837 157.189356 
" clip-path="url(#pe4ae8dc4c8)"/>
    <path d="M 245.614677 288.762747 
L 239.734664 294.642672 
L 242.451051 295.548157 
L 230.679966 301.88632 
L 237.018305 290.115329 
L 237.923749 292.831729 
L 243.803761 286.951805 
L 245.614677 288.762747 
" clip-path="url(#pe4ae8dc4c8)"/>
    <path d="M 261.663426 95.988713 
L 255.78355 101.868571 
L 258.499943 102.774039 
L 246.728895 109.112274 
L 253.067164 97.341245 
L 253.972624 100.05764 
L 259.852499 94.177781 
L 261.663426 95.988713 
" clip-path="url(#pe4ae8dc4c8)"/>
    <path d="M 187.468795 173.031251 
L 181.588958 178.911123 
L 184.305354 179.816579 
L 172.534335 186.154865 
L 178.872551 174.383808 
L 179.778023 177.100199 
L 185.65786 171.220327 
L 187.468795 173.031251 
" clip-path="url(#pe4ae8dc4c8)"/>
    <path d="M 249.153608 208.772821 
L 243.273963 214.65255 
L 245.990363 215.557995 
L 234.21937 221.89633 
L 240.557538 210.125247 
L 241.463021 212.841634 
L 247.342667 206.961905 
L 249.153608 208.772821 
" clip-path="url(#pe4ae8dc4c8)"/>
    <path d="M 216.73955 223.048081 
L 210.859919 228.927799 
L 213.576319 229.833244 
L 201.805328 236.171583 
L 208.143491 224.400498 
L 209.048976 227.116884 
L 214.928607 221.237165 
L 216.73955 223.048081 
" clip-path="url(#pe4ae8dc4c8)"/>
    <path d="M 151.391103 133.586799 
L 145.511272 139.466699 
L 148.227671 140.372148 
L 136.456671 146.710469 
L 142.794852 134.939393 
L 143.700333 137.655781 
L 149.580163 131.775881 
L 151.391103 133.586799 
" clip-path="url(#pe4ae8dc4c8)"/>
    <path d="M 225.42797 100.007316 
L 219.548099 105.887198 
L 222.264493 106.79266 
L 210.493461 113.130922 
L 216.831701 101.359878 
L 217.737168 104.076271 
L 223.617039 98.196389 
L 225.42797 100.007316 
" clip-path="url(#pe4ae8dc4c8)"/>
    <path d="M 251.927163 181.975639 
L 246.047477 187.855374 
L 248.763874 188.760827 
L 236.992862 195.099127 
L 243.331065 183.328063 
L 244.23654 186.044452 
L 250.116227 180.164718 
L 251.927163 181.975639 
" clip-path="url(#pe4ae8dc4c8)"/>
    <path d="M 333.338058 247.119152 
L 327.458123 252.999155 
L 330.174522 253.904604 
L 318.40352 260.242923 
L 324.741703 248.471849 
L 325.647184 251.188237 
L 331.527119 245.308234 
L 333.338058 247.119152 
" clip-path="url(#pe4ae8dc4c8)"/>
    <path d="M 334.671209 180.828019 
L 328.791446 186.707785 
L 331.50784 187.613248 
L 319.736804 193.951503 
L 326.075052 182.180463 
L 326.980517 184.896856 
L 332.860279 179.01709 
L 334.671209 180.828019 
" clip-path="url(#pe4ae8dc4c8)"/>
    <path d="M 239.58305 165.651038 
L 233.703379 171.530703 
L 236.419772 172.436168 
L 224.648731 178.774414 
L 230.986988 167.003379 
L 231.892451 169.719773 
L 237.772122 163.840108 
L 239.58305 165.651038 
" clip-path="url(#pe4ae8dc4c8)"/>
    <path d="M 143.855761 218.768255 
L 137.975903 224.648311 
L 140.692312 225.55373 
L 128.921381 231.89218 
L 135.259433 220.121035 
L 136.164944 222.837413 
L 142.044801 216.957357 
L 143.855761 218.768255 
" clip-path="url(#pe4ae8dc4c8)"/>
    <path d="M 182.69973 95.747963 
L 176.819874 101.627836 
L 179.536269 102.533296 
L 167.76524 108.871565 
L 174.103474 97.100518 
L 175.008942 99.81691 
L 180.888798 93.937036 
L 182.69973 95.747963 
" clip-path="url(#pe4ae8dc4c8)"/>
    <path d="M 347.343759 228.233923 
L 341.46383 234.113908 
L 344.180227 235.01936 
L 332.409219 241.357666 
L 338.747415 229.586598 
L 339.652892 232.302988 
L 345.532822 226.423003 
L 347.343759 228.233923 
" clip-path="url(#pe4ae8dc4c8)"/>
    <path d="M 212.050066 296.393475 
L 206.170068 302.273336 
L 208.886451 303.178832 
L 197.115339 309.516946 
L 203.453728 297.745982 
L 204.35916 300.462386 
L 210.239159 294.582525 
L 212.050066 296.393475 
" clip-path="url(#pe4ae8dc4c8)"/>
    <path d="M 345.769407 123.913641 
L 339.889631 129.793406 
L 342.606024 130.698873 
L 330.83498 137.037113 
L 337.173242 125.266081 
L 338.078704 127.982475 
L 343.95848 122.102711 
L 345.769407 123.913641 
" clip-path="url(#pe4ae8dc4c8)"/>
    <path d="M 241.181701 139.752397 
L 235.301886 145.632242 
L 238.018281 146.537699 
L 226.247259 152.87598 
L 232.585481 141.104926 
L 233.490952 143.821317 
L 239.370768 137.941472 
L 241.181701 139.752397 
" clip-path="url(#pe4ae8dc4c8)"/>
    <path d="M 257.988681 127.389593 
L 252.108848 133.269433 
L 254.825242 134.174896 
L 243.054208 140.513154 
L 249.392452 128.742113 
L 250.297918 131.458505 
L 256.177751 125.578665 
L 257.988681 127.389593 
" clip-path="url(#pe4ae8dc4c8)"/>
    <path d="M 121.149797 216.155061 
L 115.270044 222.034804 
L 117.986437 222.940271 
L 106.215393 229.278512 
L 112.553655 217.507479 
L 113.459117 220.223873 
L 119.33887 214.344131 
L 121.149797 216.155061 
" clip-path="url(#pe4ae8dc4c8)"/>
    <path d="M 116.430611 191.187807 
L 110.55078 197.067612 
L 113.267171 197.973082 
L 101.496119 204.311308 
L 107.834396 192.540284 
L 108.739855 195.256679 
L 114.619686 189.376874 
L 116.430611 191.187807 
" clip-path="url(#pe4ae8dc4c8)"/>
    <path d="M 134.619454 243.439462 
L 128.739618 249.319292 
L 131.456011 250.224758 
L 119.684969 256.563003 
L 126.023227 244.791968 
L 126.92869 247.508362 
L 132.808526 241.628532 
L 134.619454 243.439462 
" clip-path="url(#pe4ae8dc4c8)"/>
    <path d="M 234.213675 78.536101 
L 228.333784 84.415981 
L 231.050177 85.321448 
L 219.279133 91.659689 
L 225.617395 79.888656 
L 226.522857 82.605051 
L 232.402748 76.725171 
L 234.213675 78.536101 
" clip-path="url(#pe4ae8dc4c8)"/>
    <path d="M 238.007506 117.837794 
L 232.127643 123.717672 
L 234.844038 124.623133 
L 223.073008 130.961399 
L 229.411244 119.190353 
L 230.316712 121.906745 
L 236.196575 116.026867 
L 238.007506 117.837794 
" clip-path="url(#pe4ae8dc4c8)"/>
    <path d="M 216.978466 123.436192 
L 211.098611 129.316051 
L 213.815005 130.221515 
L 202.043969 136.55977 
L 208.382216 124.78873 
L 209.287681 127.505123 
L 215.167537 121.625264 
L 216.978466 123.436192 
" clip-path="url(#pe4ae8dc4c8)"/>
    <path d="M 314.34917 194.78161 
L 308.46938 200.661506 
L 311.185782 201.566946 
L 299.414801 207.905303 
L 305.752946 196.134208 
L 306.658435 198.850593 
L 312.538225 192.970698 
L 314.34917 194.78161 
" clip-path="url(#pe4ae8dc4c8)"/>
    <path d="M 164.187763 111.739071 
L 158.307904 117.618948 
L 161.024299 118.524409 
L 149.253271 124.862678 
L 155.591504 113.09163 
L 156.496972 115.808022 
L 162.376832 109.928145 
L 164.187763 111.739071 
" clip-path="url(#pe4ae8dc4c8)"/>
    <path d="M 271.506555 267.416733 
L 265.626599 273.296683 
L 268.342992 274.202149 
L 256.571951 280.540395 
L 262.910208 268.769359 
L 263.815671 271.485753 
L 269.695627 265.605803 
L 271.506555 267.416733 
" clip-path="url(#pe4ae8dc4c8)"/>
    <path d="M 232.082213 54.473466 
L 226.202337 60.353325 
L 228.918729 61.258793 
L 217.147682 67.597028 
L 223.48595 55.825999 
L 224.391411 58.542394 
L 230.271287 52.662534 
L 232.082213 54.473466 
" clip-path="url(#pe4ae8dc4c8)"/>
    <path d="M 291.616621 158.979944 
L 285.736885 164.859772 
L 288.453285 165.765215 
L 276.682297 172.103559 
L 283.020456 160.332471 
L 283.925941 163.048857 
L 289.805678 157.169029 
L 291.616621 158.979944 
" clip-path="url(#pe4ae8dc4c8)"/>
    <path d="M 273.246889 222.783513 
L 267.367161 228.663313 
L 270.08356 229.568761 
L 258.312562 235.907086 
L 264.65074 224.136008 
L 265.556221 226.852396 
L 271.435948 220.972595 
L 273.246889 222.783513 
" clip-path="url(#pe4ae8dc4c8)"/>
    <path d="M 174.407684 205.861105 
L 168.528142 211.740701 
L 171.24454 212.646153 
L 159.473532 218.984459 
L 165.811728 207.213392 
L 166.717205 209.929781 
L 172.596747 204.050185 
L 174.407684 205.861105 
" clip-path="url(#pe4ae8dc4c8)"/>
    <path d="M 354.844876 148.195212 
L 348.965084 154.075031 
L 351.681479 154.980489 
L 339.910456 161.318768 
L 346.24868 149.547715 
L 347.154151 152.264107 
L 353.033943 146.384287 
L 354.844876 148.195212 
" clip-path="url(#pe4ae8dc4c8)"/>
    <path d="M 279.573043 61.988206 
L 273.693149 67.868039 
L 276.409537 68.773518 
L 264.638466 75.111707 
L 270.976779 63.340702 
L 271.882229 66.057101 
L 277.762124 60.177268 
L 279.573043 61.988206 
" clip-path="url(#pe4ae8dc4c8)"/>
    <path d="M 160.75691 155.73081 
L 154.877008 161.610815 
L 157.593409 162.516256 
L 145.822426 168.854609 
L 152.160575 157.083516 
L 153.066063 159.799902 
L 158.945966 153.919897 
L 160.75691 155.73081 
" clip-path="url(#pe4ae8dc4c8)"/>
    <path d="M 127.408052 123.186478 
L 121.528234 129.066321 
L 124.244629 129.971779 
L 112.473605 136.310056 
L 118.811831 124.539004 
L 119.717301 127.255396 
L 125.597119 121.375553 
L 127.408052 123.186478 
" clip-path="url(#pe4ae8dc4c8)"/>
    <path d="M 186.913587 222.485714 
L 181.034046 228.365341 
L 183.750446 229.270786 
L 171.979454 235.609122 
L 178.317619 223.838038 
L 179.223104 226.554425 
L 185.102645 220.674798 
L 186.913587 222.485714 
" clip-path="url(#pe4ae8dc4c8)"/>
    <path d="M 201.017612 109.095989 
L 195.137713 114.975903 
L 197.854107 115.881364 
L 186.083077 122.21963 
L 192.421314 110.448584 
L 193.326782 113.164977 
L 199.206681 107.285063 
L 201.017612 109.095989 
" clip-path="url(#pe4ae8dc4c8)"/>
    <path d="M 256.530096 59.45973 
L 250.650195 65.339604 
L 253.366587 66.245075 
L 241.595534 72.5833 
L 247.933812 60.812276 
L 248.839271 63.528671 
L 254.719171 57.648797 
L 256.530096 59.45973 
" clip-path="url(#pe4ae8dc4c8)"/>
    <path d="M 206.835257 83.993173 
L 200.955379 89.873068 
L 203.671774 90.778528 
L 191.900745 97.116797 
L 198.238979 85.34575 
L 199.144448 88.062142 
L 205.024325 82.182247 
L 206.835257 83.993173 
" clip-path="url(#pe4ae8dc4c8)"/>
    <path d="M 163.209333 229.847242 
L 157.329867 235.726766 
L 160.046265 236.632217 
L 148.275258 242.970526 
L 154.613451 231.199457 
L 155.518929 233.915846 
L 161.398395 228.036322 
L 163.209333 229.847242 
" clip-path="url(#pe4ae8dc4c8)"/>
    <path d="M 159.542413 82.666278 
L 153.662574 88.546134 
L 156.378969 89.451594 
L 144.607941 95.789864 
L 150.946174 84.018816 
L 151.851643 86.735208 
L 157.731481 80.855352 
L 159.542413 82.666278 
" clip-path="url(#pe4ae8dc4c8)"/>
    <path d="M 304.566386 176.704496 
L 298.686784 182.584244 
L 301.403188 183.489675 
L 289.632228 189.828071 
L 295.970335 178.056955 
L 296.875833 180.773337 
L 302.755435 174.89359 
L 304.566386 176.704496 
" clip-path="url(#pe4ae8dc4c8)"/>
    <path d="M 281.142654 291.489406 
L 275.262608 297.369401 
L 277.978998 298.274877 
L 266.207932 304.613077 
L 272.546234 292.842067 
L 273.451687 295.558464 
L 279.331733 289.678469 
L 281.142654 291.489406 
" clip-path="url(#pe4ae8dc4c8)"/>
    <path d="M 357.700319 172.973732 
L 351.820512 178.853574 
L 354.536909 179.75903 
L 342.765889 186.097316 
L 349.104106 174.326259 
L 350.009578 177.04265 
L 355.889385 171.162809 
L 357.700319 172.973732 
" clip-path="url(#pe4ae8dc4c8)"/>
    <path d="M 356.485639 199.741284 
L 350.605836 205.621151 
L 353.322234 206.526601 
L 341.55123 212.864916 
L 347.889418 201.093844 
L 348.794897 203.810232 
L 354.674701 197.930365 
L 356.485639 199.741284 
" clip-path="url(#pe4ae8dc4c8)"/>
    <path d="M 182.01701 68.513952 
L 176.137164 74.393812 
L 178.853559 75.299273 
L 167.082528 81.637538 
L 173.420766 69.866492 
L 174.326233 72.582885 
L 180.206079 66.703025 
L 182.01701 68.513952 
" clip-path="url(#pe4ae8dc4c8)"/>
    <path d="M 278.980684 244.593095 
L 273.100852 250.472959 
L 275.817247 251.378416 
L 264.046226 257.716698 
L 270.384446 245.945644 
L 271.289918 248.662035 
L 277.16975 242.782171 
L 278.980684 244.593095 
" clip-path="url(#pe4ae8dc4c8)"/>
    <path d="M 333.144226 209.878134 
L 327.26453 215.757913 
L 329.98093 216.663358 
L 318.209936 223.001692 
L 324.548105 211.230609 
L 325.453588 213.946996 
L 331.333285 208.067218 
L 333.144226 209.878134 
" clip-path="url(#pe4ae8dc4c8)"/>
    <path d="M 188.845329 243.513453 
L 182.965531 249.39321 
L 185.681921 250.298684 
L 173.910861 256.636894 
L 180.249153 244.865878 
L 181.154608 247.582275 
L 187.034407 241.702517 
L 188.845329 243.513453 
" clip-path="url(#pe4ae8dc4c8)"/>
    <path d="M 141.270973 102.048227 
L 135.391138 107.928085 
L 138.107533 108.833544 
L 126.336508 115.171819 
L 132.674736 103.400769 
L 133.580206 106.11716 
L 139.460041 100.237301 
L 141.270973 102.048227 
" clip-path="url(#pe4ae8dc4c8)"/>
    <path d="M 333.456654 99.677613 
L 327.57683 105.55738 
L 330.293219 106.462858 
L 318.52215 112.801052 
L 324.860458 101.030045 
L 325.76591 103.746443 
L 331.645734 97.866675 
L 333.456654 99.677613 
" clip-path="url(#pe4ae8dc4c8)"/>
    <path d="M 196.007977 200.569908 
L 190.128442 206.449565 
L 192.844845 207.355002 
L 181.073873 213.693375 
L 187.412002 201.922271 
L 188.317494 204.638655 
L 194.197029 198.758998 
L 196.007977 200.569908 
" clip-path="url(#pe4ae8dc4c8)"/>
    <path d="M 206.484465 59.231937 
L 200.604598 65.111811 
L 203.320992 66.017273 
L 191.549958 72.355532 
L 197.888202 60.58449 
L 198.793668 63.300883 
L 204.673535 57.421009 
L 206.484465 59.231937 
" clip-path="url(#pe4ae8dc4c8)"/>
    <path d="M 187.997044 287.129262 
L 182.11712 293.009068 
L 184.833505 293.91456 
L 173.062404 300.252694 
L 179.400772 288.481719 
L 180.30621 291.198121 
L 186.186133 285.318315 
L 187.997044 287.129262 
" clip-path="url(#pe4ae8dc4c8)"/>
    <path d="M 317.461575 117.97992 
L 311.58178 123.859658 
L 314.298169 124.765135 
L 302.5271 131.103329 
L 308.865408 119.332322 
L 309.77086 122.04872 
L 315.650654 116.168982 
L 317.461575 117.97992 
" clip-path="url(#pe4ae8dc4c8)"/>
   </g>
   <g id="matplotlib.axis_1">
    <g id="xtick_1">
     <g id="line2d_1">
      <defs>
       <path id="m6c5cfb0b87" d="M 0 0 
L 0 3.5 
" style="stroke: #000000; stroke-width: 0.8"/>
      </defs>
      <g>
       <use xlink:href="#m6c5cfb0b87" x="64.991956" y="307.584" style="stroke: #000000; stroke-width: 0.8"/>
      </g>
     </g>
     <g id="text_1">
      <!-- −95.5 -->
      <g transform="translate(46.604769 323.702125) scale(0.12 -0.12)">
       <defs>
        <path id="DejaVuSans-2212" d="M 678 2272 
L 4684 2272 
L 4684 1741 
L 678 1741 
L 678 2272 
z
" transform="scale(0.015625)"/>
        <path id="DejaVuSans-39" d="M 703 97 
L 703 672 
Q 941 559 1184 500 
Q 1428 441 1663 441 
Q 2288 441 2617 861 
Q 2947 1281 2994 2138 
Q 2813 1869 2534 1725 
Q 2256 1581 1919 1581 
Q 1219 1581 811 2004 
Q 403 2428 403 3163 
Q 403 3881 828 4315 
Q 1253 4750 1959 4750 
Q 2769 4750 3195 4129 
Q 3622 3509 3622 2328 
Q 3622 1225 3098 567 
Q 2575 -91 1691 -91 
Q 1453 -91 1209 -44 
Q 966 3 703 97 
z
M 1959 2075 
Q 2384 2075 2632 2365 
Q 2881 2656 2881 3163 
Q 2881 3666 2632 3958 
Q 2384 4250 1959 4250 
Q 1534 4250 1286 3958 
Q 1038 3666 1038 3163 
Q 1038 2656 1286 2365 
Q 1534 2075 1959 2075 
z
" transform="scale(0.015625)"/>
        <path id="DejaVuSans-35" d="M 691 4666 
L 3169 4666 
L 3169 4134 
L 1269 4134 
L 1269 2991 
Q 1406 3038 1543 3061 
Q 1681 3084 1819 3084 
Q 2600 3084 3056 2656 
Q 3513 2228 3513 1497 
Q 3513 744 3044 326 
Q 2575 -91 1722 -91 
Q 1428 -91 1123 -41 
Q 819 9 494 109 
L 494 744 
Q 775 591 1075 516 
Q 1375 441 1709 441 
Q 2250 441 2565 725 
Q 2881 1009 2881 1497 
Q 2881 1984 2565 2268 
Q 2250 2553 1709 2553 
Q 1456 2553 1204 2497 
Q 953 2441 691 2322 
L 691 4666 
z
" transform="scale(0.015625)"/>
        <path id="DejaVuSans-2e" d="M 684 794 
L 1344 794 
L 1344 0 
L 684 0 
L 684 794 
z
" transform="scale(0.015625)"/>
       </defs>
       <use xlink:href="#DejaVuSans-2212"/>
       <use xlink:href="#DejaVuSans-39" x="83.789062"/>
       <use xlink:href="#DejaVuSans-35" x="147.412109"/>
       <use xlink:href="#DejaVuSans-2e" x="211.035156"/>
       <use xlink:href="#DejaVuSans-35" x="242.822266"/>
      </g>
     </g>
    </g>
    <g id="xtick_2">
     <g id="line2d_2">
      <g>
       <use xlink:href="#m6c5cfb0b87" x="128.535001" y="307.584" style="stroke: #000000; stroke-width: 0.8"/>
      </g>
     </g>
     <g id="text_2">
      <!-- −95.0 -->
      <g transform="translate(110.147814 323.702125) scale(0.12 -0.12)">
       <defs>
        <path id="DejaVuSans-30" d="M 2034 4250 
Q 1547 4250 1301 3770 
Q 1056 3291 1056 2328 
Q 1056 1369 1301 889 
Q 1547 409 2034 409 
Q 2525 409 2770 889 
Q 3016 1369 3016 2328 
Q 3016 3291 2770 3770 
Q 2525 4250 2034 4250 
z
M 2034 4750 
Q 2819 4750 3233 4129 
Q 3647 3509 3647 2328 
Q 3647 1150 3233 529 
Q 2819 -91 2034 -91 
Q 1250 -91 836 529 
Q 422 1150 422 2328 
Q 422 3509 836 4129 
Q 1250 4750 2034 4750 
z
" transform="scale(0.015625)"/>
       </defs>
       <use xlink:href="#DejaVuSans-2212"/>
       <use xlink:href="#DejaVuSans-39" x="83.789062"/>
       <use xlink:href="#DejaVuSans-35" x="147.412109"/>
       <use xlink:href="#DejaVuSans-2e" x="211.035156"/>
       <use xlink:href="#DejaVuSans-30" x="242.822266"/>
      </g>
     </g>
    </g>
    <g id="xtick_3">
     <g id="line2d_3">
      <g>
       <use xlink:href="#m6c5cfb0b87" x="192.078047" y="307.584" style="stroke: #000000; stroke-width: 0.8"/>
      </g>
     </g>
     <g id="text_3">
      <!-- −94.5 -->
      <g transform="translate(173.690859 323.702125) scale(0.12 -0.12)">
       <defs>
        <path id="DejaVuSans-34" d="M 2419 4116 
L 825 1625 
L 2419 1625 
L 2419 4116 
z
M 2253 4666 
L 3047 4666 
L 3047 1625 
L 3713 1625 
L 3713 1100 
L 3047 1100 
L 3047 0 
L 2419 0 
L 2419 1100 
L 313 1100 
L 313 1709 
L 2253 4666 
z
" transform="scale(0.015625)"/>
       </defs>
       <use xlink:href="#DejaVuSans-2212"/>
       <use xlink:href="#DejaVuSans-39" x="83.789062"/>
       <use xlink:href="#DejaVuSans-34" x="147.412109"/>
       <use xlink:href="#DejaVuSans-2e" x="211.035156"/>
       <use xlink:href="#DejaVuSans-35" x="242.822266"/>
      </g>
     </g>
    </g>
    <g id="xtick_4">
     <g id="line2d_4">
      <g>
       <use xlink:href="#m6c5cfb0b87" x="255.621092" y="307.584" style="stroke: #000000; stroke-width: 0.8"/>
      </g>
     </g>
     <g id="text_4">
      <!-- −94.0 -->
      <g transform="translate(237.233904 323.702125) scale(0.12 -0.12)">
       <use xlink:href="#DejaVuSans-2212"/>
       <use xlink:href="#DejaVuSans-39" x="83.789062"/>
       <use xlink:href="#DejaVuSans-34" x="147.412109"/>
       <use xlink:href="#DejaVuSans-2e" x="211.035156"/>
       <use xlink:href="#DejaVuSans-30" x="242.822266"/>
      </g>
     </g>
    </g>
    <g id="xtick_5">
     <g id="line2d_5">
      <g>
       <use xlink:href="#m6c5cfb0b87" x="319.164137" y="307.584" style="stroke: #000000; stroke-width: 0.8"/>
      </g>
     </g>
     <g id="text_5">
      <!-- −93.5 -->
      <g transform="translate(300.77695 323.702125) scale(0.12 -0.12)">
       <defs>
        <path id="DejaVuSans-33" d="M 2597 2516 
Q 3050 2419 3304 2112 
Q 3559 1806 3559 1356 
Q 3559 666 3084 287 
Q 2609 -91 1734 -91 
Q 1441 -91 1130 -33 
Q 819 25 488 141 
L 488 750 
Q 750 597 1062 519 
Q 1375 441 1716 441 
Q 2309 441 2620 675 
Q 2931 909 2931 1356 
Q 2931 1769 2642 2001 
Q 2353 2234 1838 2234 
L 1294 2234 
L 1294 2753 
L 1863 2753 
Q 2328 2753 2575 2939 
Q 2822 3125 2822 3475 
Q 2822 3834 2567 4026 
Q 2313 4219 1838 4219 
Q 1578 4219 1281 4162 
Q 984 4106 628 3988 
L 628 4550 
Q 988 4650 1302 4700 
Q 1616 4750 1894 4750 
Q 2613 4750 3031 4423 
Q 3450 4097 3450 3541 
Q 3450 3153 3228 2886 
Q 3006 2619 2597 2516 
z
" transform="scale(0.015625)"/>
       </defs>
       <use xlink:href="#DejaVuSans-2212"/>
       <use xlink:href="#DejaVuSans-39" x="83.789062"/>
       <use xlink:href="#DejaVuSans-33" x="147.412109"/>
       <use xlink:href="#DejaVuSans-2e" x="211.035156"/>
       <use xlink:href="#DejaVuSans-35" x="242.822266"/>
      </g>
     </g>
    </g>
    <g id="xtick_6">
     <g id="line2d_6">
      <g>
       <use xlink:href="#m6c5cfb0b87" x="382.707183" y="307.584" style="stroke: #000000; stroke-width: 0.8"/>
      </g>
     </g>
     <g id="text_6">
      <!-- −93.0 -->
      <g transform="translate(364.319995 323.702125) scale(0.12 -0.12)">
       <use xlink:href="#DejaVuSans-2212"/>
       <use xlink:href="#DejaVuSans-39" x="83.789062"/>
       <use xlink:href="#DejaVuSans-33" x="147.412109"/>
       <use xlink:href="#DejaVuSans-2e" x="211.035156"/>
       <use xlink:href="#DejaVuSans-30" x="242.822266"/>
      </g>
     </g>
    </g>
    <g id="text_7">
     <!-- x -->
     <g transform="translate(232.016875 340.835562) scale(0.14 -0.14)">
      <defs>
       <path id="DejaVuSans-78" d="M 3513 3500 
L 2247 1797 
L 3578 0 
L 2900 0 
L 1881 1375 
L 863 0 
L 184 0 
L 1544 1831 
L 300 3500 
L 978 3500 
L 1906 2253 
L 2834 3500 
L 3513 3500 
z
" transform="scale(0.015625)"/>
      </defs>
      <use xlink:href="#DejaVuSans-78"/>
     </g>
    </g>
   </g>
   <g id="matplotlib.axis_2">
    <g id="ytick_1">
     <g id="line2d_7">
      <defs>
       <path id="mac55cf37a4" d="M 0 0 
L -3.5 0 
" style="stroke: #000000; stroke-width: 0.8"/>
      </defs>
      <g>
       <use xlink:href="#mac55cf37a4" x="57.6" y="288.031657" style="stroke: #000000; stroke-width: 0.8"/>
      </g>
     </g>
     <g id="text_8">
      <!-- −94.00 -->
      <g transform="translate(6.190625 292.590719) scale(0.12 -0.12)">
       <use xlink:href="#DejaVuSans-2212"/>
       <use xlink:href="#DejaVuSans-39" x="83.789062"/>
       <use xlink:href="#DejaVuSans-34" x="147.412109"/>
       <use xlink:href="#DejaVuSans-2e" x="211.035156"/>
       <use xlink:href="#DejaVuSans-30" x="242.822266"/>
       <use xlink:href="#DejaVuSans-30" x="306.445312"/>
      </g>
     </g>
    </g>
    <g id="ytick_2">
     <g id="line2d_8">
      <g>
       <use xlink:href="#mac55cf37a4" x="57.6" y="256.260134" style="stroke: #000000; stroke-width: 0.8"/>
      </g>
     </g>
     <g id="text_9">
      <!-- −93.75 -->
      <g transform="translate(6.190625 260.819196) scale(0.12 -0.12)">
       <defs>
        <path id="DejaVuSans-37" d="M 525 4666 
L 3525 4666 
L 3525 4397 
L 1831 0 
L 1172 0 
L 2766 4134 
L 525 4134 
L 525 4666 
z
" transform="scale(0.015625)"/>
       </defs>
       <use xlink:href="#DejaVuSans-2212"/>
       <use xlink:href="#DejaVuSans-39" x="83.789062"/>
       <use xlink:href="#DejaVuSans-33" x="147.412109"/>
       <use xlink:href="#DejaVuSans-2e" x="211.035156"/>
       <use xlink:href="#DejaVuSans-37" x="242.822266"/>
       <use xlink:href="#DejaVuSans-35" x="306.445312"/>
      </g>
     </g>
    </g>
    <g id="ytick_3">
     <g id="line2d_9">
      <g>
       <use xlink:href="#mac55cf37a4" x="57.6" y="224.488611" style="stroke: #000000; stroke-width: 0.8"/>
      </g>
     </g>
     <g id="text_10">
      <!-- −93.50 -->
      <g transform="translate(6.190625 229.047674) scale(0.12 -0.12)">
       <use xlink:href="#DejaVuSans-2212"/>
       <use xlink:href="#DejaVuSans-39" x="83.789062"/>
       <use xlink:href="#DejaVuSans-33" x="147.412109"/>
       <use xlink:href="#DejaVuSans-2e" x="211.035156"/>
       <use xlink:href="#DejaVuSans-35" x="242.822266"/>
       <use xlink:href="#DejaVuSans-30" x="306.445312"/>
      </g>
     </g>
    </g>
    <g id="ytick_4">
     <g id="line2d_10">
      <g>
       <use xlink:href="#mac55cf37a4" x="57.6" y="192.717089" style="stroke: #000000; stroke-width: 0.8"/>
      </g>
     </g>
     <g id="text_11">
      <!-- −93.25 -->
      <g transform="translate(6.190625 197.276151) scale(0.12 -0.12)">
       <defs>
        <path id="DejaVuSans-32" d="M 1228 531 
L 3431 531 
L 3431 0 
L 469 0 
L 469 531 
Q 828 903 1448 1529 
Q 2069 2156 2228 2338 
Q 2531 2678 2651 2914 
Q 2772 3150 2772 3378 
Q 2772 3750 2511 3984 
Q 2250 4219 1831 4219 
Q 1534 4219 1204 4116 
Q 875 4013 500 3803 
L 500 4441 
Q 881 4594 1212 4672 
Q 1544 4750 1819 4750 
Q 2544 4750 2975 4387 
Q 3406 4025 3406 3419 
Q 3406 3131 3298 2873 
Q 3191 2616 2906 2266 
Q 2828 2175 2409 1742 
Q 1991 1309 1228 531 
z
" transform="scale(0.015625)"/>
       </defs>
       <use xlink:href="#DejaVuSans-2212"/>
       <use xlink:href="#DejaVuSans-39" x="83.789062"/>
       <use xlink:href="#DejaVuSans-33" x="147.412109"/>
       <use xlink:href="#DejaVuSans-2e" x="211.035156"/>
       <use xlink:href="#DejaVuSans-32" x="242.822266"/>
       <use xlink:href="#DejaVuSans-35" x="306.445312"/>
      </g>
     </g>
    </g>
    <g id="ytick_5">
     <g id="line2d_11">
      <g>
       <use xlink:href="#mac55cf37a4" x="57.6" y="160.945566" style="stroke: #000000; stroke-width: 0.8"/>
      </g>
     </g>
     <g id="text_12">
      <!-- −93.00 -->
      <g transform="translate(6.190625 165.504628) scale(0.12 -0.12)">
       <use xlink:href="#DejaVuSans-2212"/>
       <use xlink:href="#DejaVuSans-39" x="83.789062"/>
       <use xlink:href="#DejaVuSans-33" x="147.412109"/>
       <use xlink:href="#DejaVuSans-2e" x="211.035156"/>
       <use xlink:href="#DejaVuSans-30" x="242.822266"/>
       <use xlink:href="#DejaVuSans-30" x="306.445312"/>
      </g>
     </g>
    </g>
    <g id="ytick_6">
     <g id="line2d_12">
      <g>
       <use xlink:href="#mac55cf37a4" x="57.6" y="129.174043" style="stroke: #000000; stroke-width: 0.8"/>
      </g>
     </g>
     <g id="text_13">
      <!-- −92.75 -->
      <g transform="translate(6.190625 133.733106) scale(0.12 -0.12)">
       <use xlink:href="#DejaVuSans-2212"/>
       <use xlink:href="#DejaVuSans-39" x="83.789062"/>
       <use xlink:href="#DejaVuSans-32" x="147.412109"/>
       <use xlink:href="#DejaVuSans-2e" x="211.035156"/>
       <use xlink:href="#DejaVuSans-37" x="242.822266"/>
       <use xlink:href="#DejaVuSans-35" x="306.445312"/>
      </g>
     </g>
    </g>
    <g id="ytick_7">
     <g id="line2d_13">
      <g>
       <use xlink:href="#mac55cf37a4" x="57.6" y="97.402521" style="stroke: #000000; stroke-width: 0.8"/>
      </g>
     </g>
     <g id="text_14">
      <!-- −92.50 -->
      <g transform="translate(6.190625 101.961583) scale(0.12 -0.12)">
       <use xlink:href="#DejaVuSans-2212"/>
       <use xlink:href="#DejaVuSans-39" x="83.789062"/>
       <use xlink:href="#DejaVuSans-32" x="147.412109"/>
       <use xlink:href="#DejaVuSans-2e" x="211.035156"/>
       <use xlink:href="#DejaVuSans-35" x="242.822266"/>
       <use xlink:href="#DejaVuSans-30" x="306.445312"/>
      </g>
     </g>
    </g>
    <g id="ytick_8">
     <g id="line2d_14">
      <g>
       <use xlink:href="#mac55cf37a4" x="57.6" y="65.630998" style="stroke: #000000; stroke-width: 0.8"/>
      </g>
     </g>
     <g id="text_15">
      <!-- −92.25 -->
      <g transform="translate(6.190625 70.19006) scale(0.12 -0.12)">
       <use xlink:href="#DejaVuSans-2212"/>
       <use xlink:href="#DejaVuSans-39" x="83.789062"/>
       <use xlink:href="#DejaVuSans-32" x="147.412109"/>
       <use xlink:href="#DejaVuSans-2e" x="211.035156"/>
       <use xlink:href="#DejaVuSans-32" x="242.822266"/>
       <use xlink:href="#DejaVuSans-35" x="306.445312"/>
      </g>
     </g>
    </g>
    <g id="text_16">
     <!-- y -->
     <g transform="translate(-0.720937 178.671125) rotate(-90) scale(0.14 -0.14)">
      <defs>
       <path id="DejaVuSans-79" d="M 2059 -325 
Q 1816 -950 1584 -1140 
Q 1353 -1331 966 -1331 
L 506 -1331 
L 506 -850 
L 844 -850 
Q 1081 -850 1212 -737 
Q 1344 -625 1503 -206 
L 1606 56 
L 191 3500 
L 800 3500 
L 1894 763 
L 2988 3500 
L 3597 3500 
L 2059 -325 
z
" transform="scale(0.015625)"/>
      </defs>
      <use xlink:href="#DejaVuSans-79"/>
     </g>
    </g>
   </g>
   <g id="line2d_15">
    <defs>
     <path id="m675f826897" d="M 0 3 
C 0.795609 3 1.55874 2.683901 2.12132 2.12132 
C 2.683901 1.55874 3 0.795609 3 0 
C 3 -0.795609 2.683901 -1.55874 2.12132 -2.12132 
C 1.55874 -2.683901 0.795609 -3 0 -3 
C -0.795609 -3 -1.55874 -2.683901 -2.12132 -2.12132 
C -2.683901 -1.55874 -3 -0.795609 -3 0 
C -3 0.795609 -2.683901 1.55874 -2.12132 2.12132 
C -1.55874 2.683901 -0.795609 3 0 3 
z
" style="stroke: #0000ff"/>
    </defs>
    <g clip-path="url(#pe4ae8dc4c8)">
     <use xlink:href="#m675f826897" x="162.960103" y="262.76367" style="fill: #0000ff; stroke: #0000ff"/>
     <use xlink:href="#m675f826897" x="151.602748" y="186.245721" style="fill: #0000ff; stroke: #0000ff"/>
     <use xlink:href="#m675f826897" x="279.353703" y="190.754974" style="fill: #0000ff; stroke: #0000ff"/>
     <use xlink:href="#m675f826897" x="123.997658" y="156.571377" style="fill: #0000ff; stroke: #0000ff"/>
     <use xlink:href="#m675f826897" x="305.643501" y="265.003089" style="fill: #0000ff; stroke: #0000ff"/>
     <use xlink:href="#m675f826897" x="183.769509" y="134.604214" style="fill: #0000ff; stroke: #0000ff"/>
     <use xlink:href="#m675f826897" x="301.082356" y="84.842515" style="fill: #0000ff; stroke: #0000ff"/>
     <use xlink:href="#m675f826897" x="286.290338" y="125.481474" style="fill: #0000ff; stroke: #0000ff"/>
     <use xlink:href="#m675f826897" x="215.5796" y="150.788524" style="fill: #0000ff; stroke: #0000ff"/>
     <use xlink:href="#m675f826897" x="211.918035" y="260.781682" style="fill: #0000ff; stroke: #0000ff"/>
     <use xlink:href="#m675f826897" x="319.937258" y="149.452121" style="fill: #0000ff; stroke: #0000ff"/>
     <use xlink:href="#m675f826897" x="220.211286" y="186.216922" style="fill: #0000ff; stroke: #0000ff"/>
     <use xlink:href="#m675f826897" x="302.334556" y="222.821889" style="fill: #0000ff; stroke: #0000ff"/>
     <use xlink:href="#m675f826897" x="246.868392" y="244.344194" style="fill: #0000ff; stroke: #0000ff"/>
     <use xlink:href="#m675f826897" x="264.351367" y="156.283897" style="fill: #0000ff; stroke: #0000ff"/>
     <use xlink:href="#m675f826897" x="244.709219" y="287.857276" style="fill: #0000ff; stroke: #0000ff"/>
     <use xlink:href="#m675f826897" x="260.757962" y="95.083247" style="fill: #0000ff; stroke: #0000ff"/>
     <use xlink:href="#m675f826897" x="186.563327" y="172.125789" style="fill: #0000ff; stroke: #0000ff"/>
     <use xlink:href="#m675f826897" x="248.248138" y="207.867363" style="fill: #0000ff; stroke: #0000ff"/>
     <use xlink:href="#m675f826897" x="215.834078" y="222.142623" style="fill: #0000ff; stroke: #0000ff"/>
    </g>
   </g>
   <g id="line2d_16">
    <defs>
     <path id="me43e369668" d="M 0 3 
C 0.795609 3 1.55874 2.683901 2.12132 2.12132 
C 2.683901 1.55874 3 0.795609 3 0 
C 3 -0.795609 2.683901 -1.55874 2.12132 -2.12132 
C 1.55874 -2.683901 0.795609 -3 0 -3 
C -0.795609 -3 -1.55874 -2.683901 -2.12132 -2.12132 
C -2.683901 -1.55874 -3 -0.795609 -3 0 
C -3 0.795609 -2.683901 1.55874 -2.12132 2.12132 
C -1.55874 2.683901 -0.795609 3 0 3 
z
" style="stroke: #ff0000"/>
    </defs>
    <g clip-path="url(#pe4ae8dc4c8)">
     <use xlink:href="#me43e369668" x="150.485633" y="132.68134" style="fill: #ff0000; stroke: #ff0000"/>
     <use xlink:href="#me43e369668" x="224.522504" y="99.101852" style="fill: #ff0000; stroke: #ff0000"/>
     <use xlink:href="#me43e369668" x="251.021695" y="181.070178" style="fill: #ff0000; stroke: #ff0000"/>
     <use xlink:href="#me43e369668" x="332.432588" y="246.213693" style="fill: #ff0000; stroke: #ff0000"/>
     <use xlink:href="#me43e369668" x="333.765744" y="179.922555" style="fill: #ff0000; stroke: #ff0000"/>
     <use xlink:href="#me43e369668" x="238.677586" y="164.745573" style="fill: #ff0000; stroke: #ff0000"/>
     <use xlink:href="#me43e369668" x="142.950281" y="217.862806" style="fill: #ff0000; stroke: #ff0000"/>
     <use xlink:href="#me43e369668" x="181.794264" y="94.8425" style="fill: #ff0000; stroke: #ff0000"/>
     <use xlink:href="#me43e369668" x="346.438291" y="227.328463" style="fill: #ff0000; stroke: #ff0000"/>
     <use xlink:href="#me43e369668" x="211.144612" y="295.488" style="fill: #ff0000; stroke: #ff0000"/>
     <use xlink:href="#me43e369668" x="344.863944" y="123.008176" style="fill: #ff0000; stroke: #ff0000"/>
     <use xlink:href="#me43e369668" x="240.276234" y="138.846934" style="fill: #ff0000; stroke: #ff0000"/>
     <use xlink:href="#me43e369668" x="257.083216" y="126.484129" style="fill: #ff0000; stroke: #ff0000"/>
     <use xlink:href="#me43e369668" x="120.244334" y="215.249596" style="fill: #ff0000; stroke: #ff0000"/>
     <use xlink:href="#me43e369668" x="115.525148" y="190.28234" style="fill: #ff0000; stroke: #ff0000"/>
     <use xlink:href="#me43e369668" x="133.71399" y="242.533997" style="fill: #ff0000; stroke: #ff0000"/>
     <use xlink:href="#me43e369668" x="233.308211" y="77.630636" style="fill: #ff0000; stroke: #ff0000"/>
     <use xlink:href="#me43e369668" x="237.102041" y="116.932331" style="fill: #ff0000; stroke: #ff0000"/>
     <use xlink:href="#me43e369668" x="216.073002" y="122.530728" style="fill: #ff0000; stroke: #ff0000"/>
     <use xlink:href="#me43e369668" x="313.443697" y="193.876154" style="fill: #ff0000; stroke: #ff0000"/>
     <use xlink:href="#me43e369668" x="163.282297" y="110.833608" style="fill: #ff0000; stroke: #ff0000"/>
     <use xlink:href="#me43e369668" x="270.601091" y="266.511268" style="fill: #ff0000; stroke: #ff0000"/>
     <use xlink:href="#me43e369668" x="231.17675" y="53.568" style="fill: #ff0000; stroke: #ff0000"/>
     <use xlink:href="#me43e369668" x="290.711149" y="158.074487" style="fill: #ff0000; stroke: #ff0000"/>
     <use xlink:href="#me43e369668" x="272.341419" y="221.878054" style="fill: #ff0000; stroke: #ff0000"/>
     <use xlink:href="#me43e369668" x="173.502215" y="204.955645" style="fill: #ff0000; stroke: #ff0000"/>
     <use xlink:href="#me43e369668" x="353.939409" y="147.289749" style="fill: #ff0000; stroke: #ff0000"/>
     <use xlink:href="#me43e369668" x="278.667583" y="61.082737" style="fill: #ff0000; stroke: #ff0000"/>
     <use xlink:href="#me43e369668" x="159.851438" y="154.825353" style="fill: #ff0000; stroke: #ff0000"/>
     <use xlink:href="#me43e369668" x="126.502585" y="122.281016" style="fill: #ff0000; stroke: #ff0000"/>
     <use xlink:href="#me43e369668" x="186.008116" y="221.580256" style="fill: #ff0000; stroke: #ff0000"/>
     <use xlink:href="#me43e369668" x="200.112146" y="108.190526" style="fill: #ff0000; stroke: #ff0000"/>
     <use xlink:href="#me43e369668" x="255.624634" y="58.554263" style="fill: #ff0000; stroke: #ff0000"/>
     <use xlink:href="#me43e369668" x="205.929791" y="83.08771" style="fill: #ff0000; stroke: #ff0000"/>
     <use xlink:href="#me43e369668" x="162.303864" y="228.941782" style="fill: #ff0000; stroke: #ff0000"/>
     <use xlink:href="#me43e369668" x="158.636947" y="81.760815" style="fill: #ff0000; stroke: #ff0000"/>
     <use xlink:href="#me43e369668" x="303.660911" y="175.799043" style="fill: #ff0000; stroke: #ff0000"/>
     <use xlink:href="#me43e369668" x="280.237193" y="290.583938" style="fill: #ff0000; stroke: #ff0000"/>
     <use xlink:href="#me43e369668" x="356.794852" y="172.06827" style="fill: #ff0000; stroke: #ff0000"/>
     <use xlink:href="#me43e369668" x="355.58017" y="198.835824" style="fill: #ff0000; stroke: #ff0000"/>
     <use xlink:href="#me43e369668" x="181.111544" y="67.608489" style="fill: #ff0000; stroke: #ff0000"/>
     <use xlink:href="#me43e369668" x="278.075217" y="243.687633" style="fill: #ff0000; stroke: #ff0000"/>
     <use xlink:href="#me43e369668" x="332.238756" y="208.972676" style="fill: #ff0000; stroke: #ff0000"/>
     <use xlink:href="#me43e369668" x="187.939868" y="242.607985" style="fill: #ff0000; stroke: #ff0000"/>
     <use xlink:href="#me43e369668" x="140.365507" y="101.142764" style="fill: #ff0000; stroke: #ff0000"/>
     <use xlink:href="#me43e369668" x="332.551194" y="98.772144" style="fill: #ff0000; stroke: #ff0000"/>
     <use xlink:href="#me43e369668" x="195.102503" y="199.664453" style="fill: #ff0000; stroke: #ff0000"/>
     <use xlink:href="#me43e369668" x="205.579" y="58.326473" style="fill: #ff0000; stroke: #ff0000"/>
     <use xlink:href="#me43e369668" x="187.091588" y="286.223789" style="fill: #ff0000; stroke: #ff0000"/>
     <use xlink:href="#me43e369668" x="316.556114" y="117.074451" style="fill: #ff0000; stroke: #ff0000"/>
    </g>
   </g>
   <g id="line2d_17"/>
   <g id="patch_3">
    <path d="M 57.6 307.584 
L 57.6 41.472 
" style="fill: none; stroke: #000000; stroke-width: 0.8; stroke-linejoin: miter; stroke-linecap: square"/>
   </g>
   <g id="patch_4">
    <path d="M 414.72 307.584 
L 414.72 41.472 
" style="fill: none; stroke: #000000; stroke-width: 0.8; stroke-linejoin: miter; stroke-linecap: square"/>
   </g>
   <g id="patch_5">
    <path d="M 57.6 307.584 
L 414.72 307.584 
" style="fill: none; stroke: #000000; stroke-width: 0.8; stroke-linejoin: miter; stroke-linecap: square"/>
   </g>
   <g id="patch_6">
    <path d="M 57.6 41.472 
L 414.72 41.472 
" style="fill: none; stroke: #000000; stroke-width: 0.8; stroke-linejoin: miter; stroke-linecap: square"/>
   </g>
   <g id="text_17">
    <!-- Velocities at the final time -->
    <g transform="translate(116.81 35.472) scale(0.16 -0.16)">
     <defs>
      <path id="DejaVuSans-Bold-56" d="M 31 4666 
L 1241 4666 
L 2478 1222 
L 3713 4666 
L 4922 4666 
L 3194 0 
L 1759 0 
L 31 4666 
z
" transform="scale(0.015625)"/>
      <path id="DejaVuSans-Bold-65" d="M 4031 1759 
L 4031 1441 
L 1416 1441 
Q 1456 1047 1700 850 
Q 1944 653 2381 653 
Q 2734 653 3104 758 
Q 3475 863 3866 1075 
L 3866 213 
Q 3469 63 3072 -14 
Q 2675 -91 2278 -91 
Q 1328 -91 801 392 
Q 275 875 275 1747 
Q 275 2603 792 3093 
Q 1309 3584 2216 3584 
Q 3041 3584 3536 3087 
Q 4031 2591 4031 1759 
z
M 2881 2131 
Q 2881 2450 2695 2645 
Q 2509 2841 2209 2841 
Q 1884 2841 1681 2658 
Q 1478 2475 1428 2131 
L 2881 2131 
z
" transform="scale(0.015625)"/>
      <path id="DejaVuSans-Bold-6c" d="M 538 4863 
L 1656 4863 
L 1656 0 
L 538 0 
L 538 4863 
z
" transform="scale(0.015625)"/>
      <path id="DejaVuSans-Bold-6f" d="M 2203 2784 
Q 1831 2784 1636 2517 
Q 1441 2250 1441 1747 
Q 1441 1244 1636 976 
Q 1831 709 2203 709 
Q 2569 709 2762 976 
Q 2956 1244 2956 1747 
Q 2956 2250 2762 2517 
Q 2569 2784 2203 2784 
z
M 2203 3584 
Q 3106 3584 3614 3096 
Q 4122 2609 4122 1747 
Q 4122 884 3614 396 
Q 3106 -91 2203 -91 
Q 1297 -91 786 396 
Q 275 884 275 1747 
Q 275 2609 786 3096 
Q 1297 3584 2203 3584 
z
" transform="scale(0.015625)"/>
      <path id="DejaVuSans-Bold-63" d="M 3366 3391 
L 3366 2478 
Q 3138 2634 2908 2709 
Q 2678 2784 2431 2784 
Q 1963 2784 1702 2511 
Q 1441 2238 1441 1747 
Q 1441 1256 1702 982 
Q 1963 709 2431 709 
Q 2694 709 2930 787 
Q 3166 866 3366 1019 
L 3366 103 
Q 3103 6 2833 -42 
Q 2563 -91 2291 -91 
Q 1344 -91 809 395 
Q 275 881 275 1747 
Q 275 2613 809 3098 
Q 1344 3584 2291 3584 
Q 2566 3584 2833 3536 
Q 3100 3488 3366 3391 
z
" transform="scale(0.015625)"/>
      <path id="DejaVuSans-Bold-69" d="M 538 3500 
L 1656 3500 
L 1656 0 
L 538 0 
L 538 3500 
z
M 538 4863 
L 1656 4863 
L 1656 3950 
L 538 3950 
L 538 4863 
z
" transform="scale(0.015625)"/>
      <path id="DejaVuSans-Bold-74" d="M 1759 4494 
L 1759 3500 
L 2913 3500 
L 2913 2700 
L 1759 2700 
L 1759 1216 
Q 1759 972 1856 886 
Q 1953 800 2241 800 
L 2816 800 
L 2816 0 
L 1856 0 
Q 1194 0 917 276 
Q 641 553 641 1216 
L 641 2700 
L 84 2700 
L 84 3500 
L 641 3500 
L 641 4494 
L 1759 4494 
z
" transform="scale(0.015625)"/>
      <path id="DejaVuSans-Bold-73" d="M 3272 3391 
L 3272 2541 
Q 2913 2691 2578 2766 
Q 2244 2841 1947 2841 
Q 1628 2841 1473 2761 
Q 1319 2681 1319 2516 
Q 1319 2381 1436 2309 
Q 1553 2238 1856 2203 
L 2053 2175 
Q 2913 2066 3209 1816 
Q 3506 1566 3506 1031 
Q 3506 472 3093 190 
Q 2681 -91 1863 -91 
Q 1516 -91 1145 -36 
Q 775 19 384 128 
L 384 978 
Q 719 816 1070 734 
Q 1422 653 1784 653 
Q 2113 653 2278 743 
Q 2444 834 2444 1013 
Q 2444 1163 2330 1236 
Q 2216 1309 1875 1350 
L 1678 1375 
Q 931 1469 631 1722 
Q 331 1975 331 2491 
Q 331 3047 712 3315 
Q 1094 3584 1881 3584 
Q 2191 3584 2531 3537 
Q 2872 3491 3272 3391 
z
" transform="scale(0.015625)"/>
      <path id="DejaVuSans-Bold-20" transform="scale(0.015625)"/>
      <path id="DejaVuSans-Bold-61" d="M 2106 1575 
Q 1756 1575 1579 1456 
Q 1403 1338 1403 1106 
Q 1403 894 1545 773 
Q 1688 653 1941 653 
Q 2256 653 2472 879 
Q 2688 1106 2688 1447 
L 2688 1575 
L 2106 1575 
z
M 3816 1997 
L 3816 0 
L 2688 0 
L 2688 519 
Q 2463 200 2181 54 
Q 1900 -91 1497 -91 
Q 953 -91 614 226 
Q 275 544 275 1050 
Q 275 1666 698 1953 
Q 1122 2241 2028 2241 
L 2688 2241 
L 2688 2328 
Q 2688 2594 2478 2717 
Q 2269 2841 1825 2841 
Q 1466 2841 1156 2769 
Q 847 2697 581 2553 
L 581 3406 
Q 941 3494 1303 3539 
Q 1666 3584 2028 3584 
Q 2975 3584 3395 3211 
Q 3816 2838 3816 1997 
z
" transform="scale(0.015625)"/>
      <path id="DejaVuSans-Bold-68" d="M 4056 2131 
L 4056 0 
L 2931 0 
L 2931 347 
L 2931 1625 
Q 2931 2084 2911 2256 
Q 2891 2428 2841 2509 
Q 2775 2619 2662 2680 
Q 2550 2741 2406 2741 
Q 2056 2741 1856 2470 
Q 1656 2200 1656 1722 
L 1656 0 
L 538 0 
L 538 4863 
L 1656 4863 
L 1656 2988 
Q 1909 3294 2193 3439 
Q 2478 3584 2822 3584 
Q 3428 3584 3742 3212 
Q 4056 2841 4056 2131 
z
" transform="scale(0.015625)"/>
      <path id="DejaVuSans-Bold-66" d="M 2841 4863 
L 2841 4128 
L 2222 4128 
Q 1984 4128 1890 4042 
Q 1797 3956 1797 3744 
L 1797 3500 
L 2753 3500 
L 2753 2700 
L 1797 2700 
L 1797 0 
L 678 0 
L 678 2700 
L 122 2700 
L 122 3500 
L 678 3500 
L 678 3744 
Q 678 4316 997 4589 
Q 1316 4863 1984 4863 
L 2841 4863 
z
" transform="scale(0.015625)"/>
      <path id="DejaVuSans-Bold-6e" d="M 4056 2131 
L 4056 0 
L 2931 0 
L 2931 347 
L 2931 1631 
Q 2931 2084 2911 2256 
Q 2891 2428 2841 2509 
Q 2775 2619 2662 2680 
Q 2550 2741 2406 2741 
Q 2056 2741 1856 2470 
Q 1656 2200 1656 1722 
L 1656 0 
L 538 0 
L 538 3500 
L 1656 3500 
L 1656 2988 
Q 1909 3294 2193 3439 
Q 2478 3584 2822 3584 
Q 3428 3584 3742 3212 
Q 4056 2841 4056 2131 
z
" transform="scale(0.015625)"/>
      <path id="DejaVuSans-Bold-6d" d="M 3781 2919 
Q 3994 3244 4286 3414 
Q 4578 3584 4928 3584 
Q 5531 3584 5847 3212 
Q 6163 2841 6163 2131 
L 6163 0 
L 5038 0 
L 5038 1825 
Q 5041 1866 5042 1909 
Q 5044 1953 5044 2034 
Q 5044 2406 4934 2573 
Q 4825 2741 4581 2741 
Q 4263 2741 4089 2478 
Q 3916 2216 3909 1719 
L 3909 0 
L 2784 0 
L 2784 1825 
Q 2784 2406 2684 2573 
Q 2584 2741 2328 2741 
Q 2006 2741 1831 2477 
Q 1656 2213 1656 1722 
L 1656 0 
L 531 0 
L 531 3500 
L 1656 3500 
L 1656 2988 
Q 1863 3284 2130 3434 
Q 2397 3584 2719 3584 
Q 3081 3584 3359 3409 
Q 3638 3234 3781 2919 
z
" transform="scale(0.015625)"/>
     </defs>
     <use xlink:href="#DejaVuSans-Bold-56"/>
     <use xlink:href="#DejaVuSans-Bold-65" x="71.892578"/>
     <use xlink:href="#DejaVuSans-Bold-6c" x="139.714844"/>
     <use xlink:href="#DejaVuSans-Bold-6f" x="173.992188"/>
     <use xlink:href="#DejaVuSans-Bold-63" x="242.693359"/>
     <use xlink:href="#DejaVuSans-Bold-69" x="301.970703"/>
     <use xlink:href="#DejaVuSans-Bold-74" x="336.248047"/>
     <use xlink:href="#DejaVuSans-Bold-69" x="384.050781"/>
     <use xlink:href="#DejaVuSans-Bold-65" x="418.328125"/>
     <use xlink:href="#DejaVuSans-Bold-73" x="486.150391"/>
     <use xlink:href="#DejaVuSans-Bold-20" x="545.671875"/>
     <use xlink:href="#DejaVuSans-Bold-61" x="580.486328"/>
     <use xlink:href="#DejaVuSans-Bold-74" x="647.966797"/>
     <use xlink:href="#DejaVuSans-Bold-20" x="695.769531"/>
     <use xlink:href="#DejaVuSans-Bold-74" x="730.583984"/>
     <use xlink:href="#DejaVuSans-Bold-68" x="778.386719"/>
     <use xlink:href="#DejaVuSans-Bold-65" x="849.578125"/>
     <use xlink:href="#DejaVuSans-Bold-20" x="917.400391"/>
     <use xlink:href="#DejaVuSans-Bold-66" x="952.214844"/>
     <use xlink:href="#DejaVuSans-Bold-69" x="995.720703"/>
     <use xlink:href="#DejaVuSans-Bold-6e" x="1029.998047"/>
     <use xlink:href="#DejaVuSans-Bold-61" x="1101.189453"/>
     <use xlink:href="#DejaVuSans-Bold-6c" x="1168.669922"/>
     <use xlink:href="#DejaVuSans-Bold-20" x="1202.947266"/>
     <use xlink:href="#DejaVuSans-Bold-74" x="1237.761719"/>
     <use xlink:href="#DejaVuSans-Bold-69" x="1285.564453"/>
     <use xlink:href="#DejaVuSans-Bold-6d" x="1319.841797"/>
     <use xlink:href="#DejaVuSans-Bold-65" x="1424.041016"/>
    </g>
   </g>
  </g>
 </g>
 <defs>
  <clipPath id="pe4ae8dc4c8">
   <rect x="57.6" y="41.472" width="357.12" height="266.112"/>
  </clipPath>
 </defs>
</svg>
