<?xml version="1.0" encoding="utf-8" standalone="no"?>
<!DOCTYPE svg PUBLIC "-//W3C//DTD SVG 1.1//EN"
  "http://www.w3.org/Graphics/SVG/1.1/DTD/svg11.dtd">
<svg xmlns:xlink="http://www.w3.org/1999/xlink" width="460.8pt" height="345.6pt" viewBox="0 0 460.8 345.6" xmlns="http://www.w3.org/2000/svg" version="1.1">
 <metadata>
  <rdf:RDF xmlns:dc="http://purl.org/dc/elements/1.1/" xmlns:cc="http://creativecommons.org/ns#" xmlns:rdf="http://www.w3.org/1999/02/22-rdf-syntax-ns#">
   <cc:Work>
    <dc:type rdf:resource="http://purl.org/dc/dcmitype/StillImage"/>
    <dc:date>2025-03-06T13:42:36.719795</dc:date>
    <dc:format>image/svg+xml</dc:format>
    <dc:creator>
     <cc:Agent>
      <dc:title>Matplotlib v3.6.3, https://matplotlib.org/</dc:title>
     </cc:Agent>
    </dc:creator>
   </cc:Work>
  </rdf:RDF>
 </metadata>
 <defs>
  <style type="text/css">*{stroke-linejoin: round; stroke-linecap: butt}</style>
 </defs>
 <g id="figure_1">
  <g id="patch_1">
   <path d="M 0 345.6 
L 460.8 345.6 
L 460.8 0 
L 0 0 
z
" style="fill: #ffffff"/>
  </g>
  <g id="axes_1">
   <g id="patch_2">
    <path d="M 57.6 307.584 
L 414.72 307.584 
L 414.72 41.472 
L 57.6 41.472 
z
" style="fill: #ffffff"/>
   </g>
   <g id="Quiver_1">
    <path d="M 226.997344 121.389807 
L 233.843214 114.547286 
L 231.447776 113.748155 
L 241.830223 108.160883 
L 236.237871 118.540595 
L 235.439913 116.144766 
L 228.594043 122.987287 
L 226.997344 121.389807 
" clip-path="url(#p71a4a04086)"/>
    <path d="M 293.916701 62.989433 
L 300.770906 56.149653 
L 298.376115 55.348585 
L 308.763077 49.769711 
L 303.162333 60.144897 
L 302.366312 57.748423 
L 295.512107 64.588204 
L 293.916701 62.989433 
" clip-path="url(#p71a4a04086)"/>
    <path d="M 321.383864 81.841286 
L 328.2315 75.006428 
L 325.836613 74.205646 
L 336.222908 68.625531 
L 330.623404 79.001386 
L 329.827097 76.605008 
L 322.979461 83.439866 
L 321.383864 81.841286 
" clip-path="url(#p71a4a04086)"/>
    <path d="M 312.619508 198.670842 
L 319.452334 191.83125 
L 317.056305 191.033891 
L 327.434617 185.438942 
L 321.849944 195.822787 
L 321.050213 193.427548 
L 314.217388 200.267141 
L 312.619508 198.670842 
" clip-path="url(#p71a4a04086)"/>
    <path d="M 279.684869 122.275548 
L 286.527696 115.427821 
L 284.131777 114.630134 
L 294.510855 109.036607 
L 288.924759 119.419686 
L 288.125357 117.024338 
L 281.28253 123.872066 
L 279.684869 122.275548 
" clip-path="url(#p71a4a04086)"/>
    <path d="M 200.263378 84.12916 
L 207.089951 77.298378 
L 204.694071 76.500572 
L 215.073428 70.907561 
L 209.486815 81.290363 
L 208.687532 78.894975 
L 201.86096 85.725757 
L 200.263378 84.12916 
" clip-path="url(#p71a4a04086)"/>
    <path d="M 300.065897 143.037132 
L 306.906765 136.193558 
L 304.510973 135.395487 
L 314.890948 129.803623 
L 309.303188 140.185807 
L 308.50417 137.790332 
L 301.663302 144.633906 
L 300.065897 143.037132 
" clip-path="url(#p71a4a04086)"/>
    <path d="M 210.861705 144.011178 
L 217.725686 137.166387 
L 215.331172 136.36449 
L 225.720066 130.789214 
L 220.115728 141.162459 
L 219.320538 138.76571 
L 212.456557 145.610501 
L 210.861705 144.011178 
" clip-path="url(#p71a4a04086)"/>
    <path d="M 355.592629 140.505096 
L 362.430086 133.673827 
L 360.034814 132.874198 
L 370.418423 127.289086 
L 364.823912 137.667634 
L 364.026452 135.271639 
L 357.188995 142.102908 
L 355.592629 140.505096 
" clip-path="url(#p71a4a04086)"/>
    <path d="M 358.096358 175.618191 
L 364.930432 168.78627 
L 362.534924 167.987348 
L 372.916884 162.399171 
L 367.325436 172.77937 
L 366.527269 170.383611 
L 359.693196 177.215532 
L 358.096358 175.618191 
" clip-path="url(#p71a4a04086)"/>
    <path d="M 283.466034 92.530861 
L 290.300383 85.686602 
L 287.904172 84.889793 
L 298.281199 79.292462 
L 292.698909 89.677589 
L 291.898629 87.282534 
L 285.06428 94.126793 
L 283.466034 92.530861 
" clip-path="url(#p71a4a04086)"/>
    <path d="M 267.878626 147.093464 
L 274.726326 140.245283 
L 272.330664 139.446822 
L 282.711548 133.856645 
L 277.1221 144.237921 
L 276.323471 141.842316 
L 269.475771 148.690497 
L 267.878626 147.093464 
" clip-path="url(#p71a4a04086)"/>
    <path d="M 309.124955 112.667686 
L 315.964138 105.824639 
L 313.568279 105.026771 
L 323.947779 99.434027 
L 318.360899 109.816685 
L 317.561678 107.421277 
L 310.722495 114.264324 
L 309.124955 112.667686 
" clip-path="url(#p71a4a04086)"/>
    <path d="M 262.14259 52.768734 
L 269.001231 45.922479 
L 266.606319 45.12177 
L 276.992447 39.541342 
L 271.393255 49.917365 
L 270.596876 47.521011 
L 263.738235 54.367266 
L 262.14259 52.768734 
" clip-path="url(#p71a4a04086)"/>
    <path d="M 284.704925 185.104023 
L 291.555315 178.250697 
L 289.15951 177.452665 
L 299.539391 171.860629 
L 293.951804 182.242906 
L 293.152746 179.847444 
L 286.302356 186.70077 
L 284.704925 185.104023 
" clip-path="url(#p71a4a04086)"/>
    <path d="M 253.632313 83.049991 
L 260.461046 76.205966 
L 258.064521 75.410101 
L 268.439343 69.808683 
L 262.861144 80.196008 
L 262.059921 77.801268 
L 255.231187 84.645293 
L 253.632313 83.049991 
" clip-path="url(#p71a4a04086)"/>
    <path d="M 253.914623 112.558145 
L 260.757188 105.707191 
L 258.361065 104.910114 
L 268.738718 99.313942 
L 263.155267 109.698445 
L 262.355255 107.303301 
L 255.512691 114.154256 
L 253.914623 112.558145 
" clip-path="url(#p71a4a04086)"/>
    <path d="M 228.485386 53.867767 
L 235.34198 47.014761 
L 232.946555 46.215589 
L 243.329097 40.628494 
L 237.736569 51.008111 
L 236.938651 48.612268 
L 230.082057 55.465274 
L 228.485386 53.867767 
" clip-path="url(#p71a4a04086)"/>
    <path d="M 327.246539 157.026019 
L 334.083693 150.189305 
L 331.688084 149.390683 
L 342.069344 143.801204 
L 336.479198 154.182104 
L 335.680731 151.786445 
L 328.843577 158.623159 
L 327.246539 157.026019 
" clip-path="url(#p71a4a04086)"/>
    <path d="M 343.213264 108.523231 
L 350.053823 101.693032 
L 347.658795 100.892672 
L 358.044108 95.310728 
L 352.44643 105.687569 
L 351.649701 103.291331 
L 344.809143 110.12153 
L 343.213264 108.523231 
" clip-path="url(#p71a4a04086)"/>
    <path d="M 202.633593 54.849571 
L 209.490785 48.002621 
L 207.095749 47.202286 
L 217.481003 41.620234 
L 211.883435 51.997133 
L 211.086681 49.600903 
L 204.229488 56.447854 
L 202.633593 54.849571 
" clip-path="url(#p71a4a04086)"/>
    <path d="M 156.109524 258.297384 
L 162.949173 251.445093 
L 160.552803 250.648761 
L 170.928718 245.049367 
L 165.348493 255.435603 
L 164.547737 253.040707 
L 157.708087 259.892998 
L 156.109524 258.297384 
" clip-path="url(#p71a4a04086)"/>
    <path d="M 264.59792 179.125001 
L 271.356638 172.421407 
L 268.964294 171.613059 
L 279.368175 166.065801 
L 273.735903 176.423905 
L 272.947174 174.025022 
L 266.188456 180.728616 
L 264.59792 179.125001 
" clip-path="url(#p71a4a04086)"/>
    <path d="M 333.032385 183.547443 
L 339.863555 176.711822 
L 337.467661 175.914058 
L 347.84692 170.320865 
L 342.260489 180.703765 
L 341.461164 178.308391 
L 334.629995 185.144012 
L 333.032385 183.547443 
" clip-path="url(#p71a4a04086)"/>
    <path d="M 158.94252 277.941523 
L 165.77678 271.095403 
L 163.380455 270.298935 
L 173.756685 264.700125 
L 168.175875 275.086047 
L 167.375253 272.691107 
L 160.540993 279.537227 
L 158.94252 277.941523 
" clip-path="url(#p71a4a04086)"/>
    <path d="M 274.918239 221.108559 
L 281.67764 214.270772 
L 279.277443 213.486051 
L 289.626126 207.836487 
L 284.096251 218.249618 
L 283.28391 215.858628 
L 276.524509 222.696415 
L 274.918239 221.108559 
" clip-path="url(#p71a4a04086)"/>
    <path d="M 141.688986 221.484194 
L 148.529405 214.647618 
L 146.133995 213.8484 
L 156.516645 208.261505 
L 150.923916 218.641013 
L 150.126045 216.245155 
L 143.285626 223.081732 
L 141.688986 221.484194 
" clip-path="url(#p71a4a04086)"/>
    <path d="M 169.537511 74.852822 
L 176.39183 67.992818 
L 173.995865 67.195267 
L 184.374627 61.601151 
L 178.789119 71.984548 
L 177.989581 69.589245 
L 171.135262 76.449249 
L 169.537511 74.852822 
" clip-path="url(#p71a4a04086)"/>
    <path d="M 249.314337 134.791393 
L 256.165753 127.941499 
L 253.770208 127.142688 
L 264.151909 121.554029 
L 258.560944 131.934488 
L 257.762665 129.538765 
L 250.911249 136.38866 
L 249.314337 134.791393 
" clip-path="url(#p71a4a04086)"/>
    <path d="M 185.705924 139.482121 
L 192.560929 132.643406 
L 190.166247 131.842012 
L 200.553969 126.264553 
L 194.951811 136.638976 
L 194.156117 134.242394 
L 187.301112 141.081109 
L 185.705924 139.482121 
" clip-path="url(#p71a4a04086)"/>
    <path d="M 184.215871 62.405855 
L 191.079657 55.543713 
L 188.684119 54.744881 
L 199.065869 49.156313 
L 193.474813 59.536723 
L 192.676555 57.140994 
L 185.812769 64.003135 
L 184.215871 62.405855 
" clip-path="url(#p71a4a04086)"/>
    <path d="M 127.752311 205.456368 
L 134.589256 198.619333 
L 132.193617 197.820804 
L 142.57466 192.230924 
L 136.984916 202.612041 
L 136.186355 200.216412 
L 129.34941 207.053447 
L 127.752311 205.456368 
" clip-path="url(#p71a4a04086)"/>
    <path d="M 181.852375 263.795735 
L 188.700624 256.960555 
L 186.305754 256.159723 
L 196.692168 250.579828 
L 191.092443 260.955565 
L 190.296187 258.559169 
L 183.447938 265.394349 
L 181.852375 263.795735 
" clip-path="url(#p71a4a04086)"/>
    <path d="M 314.350547 261.802101 
L 321.23794 254.899273 
L 318.841414 254.10341 
L 329.216231 248.501982 
L 323.638041 258.889312 
L 322.836816 256.494573 
L 315.949423 263.397401 
L 314.350547 261.802101 
" clip-path="url(#p71a4a04086)"/>
    <path d="M 214.817896 102.261484 
L 221.65589 95.422455 
L 219.260196 94.624092 
L 229.640852 89.033494 
L 224.051826 99.414997 
L 223.2531 97.019423 
L 216.415106 103.858452 
L 214.817896 102.261484 
" clip-path="url(#p71a4a04086)"/>
    <path d="M 226.127725 79.22926 
L 232.948754 72.386741 
L 230.551867 71.591965 
L 240.924142 65.985832 
L 235.350664 76.375691 
L 234.548353 73.981316 
L 227.727324 80.823835 
L 226.127725 79.22926 
" clip-path="url(#p71a4a04086)"/>
    <path d="M 247.093571 178.314109 
L 253.956042 171.502655 
L 251.563404 170.695178 
L 261.965267 165.144136 
L 256.336762 175.504289 
L 255.547161 173.105692 
L 248.684691 179.917146 
L 247.093571 178.314109 
" clip-path="url(#p71a4a04086)"/>
    <path d="M 298.461993 249.344596 
L 305.286497 242.474599 
L 302.888223 241.684018 
L 313.250676 236.05975 
L 307.695381 246.459342 
L 306.888883 244.066374 
L 300.064379 250.936371 
L 298.461993 249.344596 
" clip-path="url(#p71a4a04086)"/>
    <path d="M 128.231366 239.004657 
L 135.073359 232.159858 
L 132.677561 231.361805 
L 143.057495 225.769865 
L 137.469811 236.15209 
L 136.670775 233.75662 
L 129.828783 240.601419 
L 128.231366 239.004657 
" clip-path="url(#p71a4a04086)"/>
    <path d="M 116.758024 220.445926 
L 123.596848 213.603654 
L 121.201013 212.805713 
L 131.580684 207.213284 
L 125.993488 217.595773 
L 125.19434 215.20034 
L 118.355516 222.042613 
L 116.758024 220.445926 
" clip-path="url(#p71a4a04086)"/>
    <path d="M 157.013445 87.796682 
L 163.868889 80.939542 
L 161.473157 80.141294 
L 171.853545 74.550198 
L 166.265017 84.931969 
L 165.466176 82.536434 
L 158.610732 89.393574 
L 157.013445 87.796682 
" clip-path="url(#p71a4a04086)"/>
    <path d="M 294.605739 226.923233 
L 301.365658 220.1237 
L 298.967702 219.332158 
L 309.332407 213.712042 
L 303.772946 224.109407 
L 302.967407 221.716117 
L 296.207487 228.515649 
L 294.605739 226.923233 
" clip-path="url(#p71a4a04086)"/>
    <path d="M 170.995515 247.381813 
L 177.842265 240.554915 
L 175.447793 239.752893 
L 185.836977 234.178159 
L 180.232099 244.551112 
L 179.437033 242.154321 
L 172.590283 248.981219 
L 170.995515 247.381813 
" clip-path="url(#p71a4a04086)"/>
    <path d="M 198.516814 275.791974 
L 205.374995 268.941809 
L 202.979828 268.141864 
L 213.364175 262.558123 
L 207.768293 272.935932 
L 206.97115 270.539832 
L 200.112969 277.389997 
L 198.516814 275.791974 
" clip-path="url(#p71a4a04086)"/>
    <path d="M 179.58913 181.124892 
L 186.403319 174.257171 
L 184.004579 173.468006 
L 194.363709 167.83762 
L 188.814556 178.240491 
L 188.006644 175.848 
L 181.192455 182.715721 
L 179.58913 181.124892 
" clip-path="url(#p71a4a04086)"/>
    <path d="M 311.526907 175.303932 
L 318.361334 168.459084 
L 315.965092 167.662365 
L 326.34191 162.064645 
L 320.760009 172.44998 
L 319.959639 170.054956 
L 313.125212 176.899804 
L 311.526907 175.303932 
" clip-path="url(#p71a4a04086)"/>
    <path d="M 136.6535 258.004857 
L 143.49188 251.160916 
L 141.095921 250.363345 
L 151.474728 244.769313 
L 145.889136 255.152665 
L 145.089618 252.757356 
L 138.251238 259.601297 
L 136.6535 258.004857 
" clip-path="url(#p71a4a04086)"/>
    <path d="M 178.472949 286.635692 
L 185.307187 279.788422 
L 182.910794 278.992159 
L 193.286545 273.392462 
L 187.706623 283.778861 
L 186.905797 281.383989 
L 180.071558 288.231259 
L 178.472949 286.635692 
" clip-path="url(#p71a4a04086)"/>
    <path d="M 341.456536 234.328533 
L 348.295117 227.492058 
L 345.899607 226.693145 
L 356.281547 221.104932 
L 350.690136 231.48515 
L 349.89196 229.089394 
L 343.053379 235.925869 
L 341.456536 234.328533 
" clip-path="url(#p71a4a04086)"/>
    <path d="M 297.024386 271.098287 
L 303.953737 264.186099 
L 301.559095 263.384584 
L 311.947098 257.807648 
L 306.344418 268.181789 
L 305.548845 265.785167 
L 298.619494 272.697355 
L 297.024386 271.098287 
" clip-path="url(#p71a4a04086)"/>
    <path d="M 153.928382 235.506407 
L 160.780283 228.659327 
L 158.384931 227.859939 
L 168.767977 222.27378 
L 163.174512 232.652893 
L 162.376811 230.256978 
L 155.524909 237.104059 
L 153.928382 235.506407 
" clip-path="url(#p71a4a04086)"/>
    <path d="M 245.88937 154.338245 
L 252.773611 147.509626 
L 250.381236 146.701371 
L 260.784904 141.153712 
L 255.15303 151.512033 
L 254.364209 149.11318 
L 247.479968 155.941799 
L 245.88937 154.338245 
" clip-path="url(#p71a4a04086)"/>
    <path d="M 232.311938 96.366945 
L 239.144425 89.522003 
L 236.748065 88.72564 
L 247.12405 83.126377 
L 241.543693 93.512543 
L 240.742967 91.117637 
L 233.910481 97.962579 
L 232.311938 96.366945 
" clip-path="url(#p71a4a04086)"/>
    <path d="M 292.349932 210.566387 
L 299.189025 203.750612 
L 296.794758 202.947978 
L 307.185368 197.375901 
L 301.577837 207.74742 
L 300.783384 205.350427 
L 293.944292 212.166201 
L 292.349932 210.566387 
" clip-path="url(#p71a4a04086)"/>
    <path d="M 112.626499 193.300676 
L 119.468178 186.455918 
L 117.072365 185.657913 
L 127.452187 180.065766 
L 121.86471 190.448102 
L 121.065626 188.052648 
L 114.223947 194.897406 
L 112.626499 193.300676 
" clip-path="url(#p71a4a04086)"/>
    <path d="M 326.626196 131.439865 
L 333.462088 124.602956 
L 331.066395 123.80459 
L 341.447059 118.214006 
L 335.858019 128.595501 
L 335.059296 126.199927 
L 328.223404 133.036836 
L 326.626196 131.439865 
" clip-path="url(#p71a4a04086)"/>
    <path d="M 274.815561 205.238507 
L 281.697719 198.359779 
L 279.302284 197.560638 
L 289.684757 191.973413 
L 284.092357 202.353099 
L 283.29441 199.957266 
L 276.412252 206.835995 
L 274.815561 205.238507 
" clip-path="url(#p71a4a04086)"/>
    <path d="M 280.992424 162.940278 
L 287.798523 156.125731 
L 285.402395 155.328672 
L 295.780006 149.732422 
L 290.196633 160.116967 
L 289.396603 157.721829 
L 282.590503 164.536377 
L 280.992424 162.940278 
" clip-path="url(#p71a4a04086)"/>
    <path d="M 311.055038 234.214799 
L 317.874774 227.337563 
L 315.47581 226.549082 
L 325.833332 220.91574 
L 320.287148 231.320194 
L 319.478554 228.927933 
L 312.658818 235.805169 
L 311.055038 234.214799 
" clip-path="url(#p71a4a04086)"/>
    <path d="M 200.07446 294.259239 
L 206.895125 287.425376 
L 204.49872 286.629147 
L 214.874392 281.029304 
L 209.294617 291.415781 
L 208.493757 289.020921 
L 201.673092 295.854783 
L 200.07446 294.259239 
" clip-path="url(#p71a4a04086)"/>
    <path d="M 244.313408 281.901195 
L 251.270337 275.108248 
L 248.884396 274.281192 
L 259.331397 268.815573 
L 253.618186 279.129255 
L 252.848267 276.724269 
L 245.891338 283.517216 
L 244.313408 281.901195 
" clip-path="url(#p71a4a04086)"/>
    <path d="M 322.696697 221.246858 
L 329.536835 214.403951 
L 327.14104 213.605891 
L 337.520988 208.013977 
L 331.933277 218.396189 
L 331.134248 216.000716 
L 324.29411 222.843624 
L 322.696697 221.246858 
" clip-path="url(#p71a4a04086)"/>
    <path d="M 234.81944 143.248889 
L 241.69843 136.393609 
L 239.304178 135.59093 
L 249.694892 130.019047 
L 244.087168 140.390461 
L 243.29276 137.993453 
L 236.41377 144.848733 
L 234.81944 143.248889 
" clip-path="url(#p71a4a04086)"/>
    <path d="M 144.056515 100.339537 
L 150.917102 93.477144 
L 148.521363 92.678915 
L 158.901707 87.087737 
L 153.313261 97.469552 
L 152.514401 95.074023 
L 145.653814 101.936416 
L 144.056515 100.339537 
" clip-path="url(#p71a4a04086)"/>
    <path d="M 177.07533 95.984622 
L 183.911269 89.147852 
L 181.515587 88.349453 
L 191.896326 82.759009 
L 186.307146 93.140429 
L 185.508455 90.744844 
L 178.672516 97.581615 
L 177.07533 95.984622 
" clip-path="url(#p71a4a04086)"/>
    <path d="M 208.699111 174.716832 
L 215.595644 167.823618 
L 213.200203 167.024497 
L 223.582628 161.437184 
L 217.990317 171.816918 
L 217.192349 169.421092 
L 210.295816 176.314306 
L 208.699111 174.716832 
" clip-path="url(#p71a4a04086)"/>
    <path d="M 218.743079 294.690253 
L 225.573675 287.84601 
L 223.177246 287.049857 
L 233.552742 281.449688 
L 227.973292 291.836341 
L 227.172358 289.441505 
L 220.341761 296.285747 
L 218.743079 294.690253 
" clip-path="url(#p71a4a04086)"/>
    <path d="M 257.221038 166.257126 
L 264.126669 159.431427 
L 261.735724 158.618951 
L 272.149166 153.089661 
L 266.49902 163.438027 
L 265.714434 161.037786 
L 258.808804 167.863485 
L 257.221038 166.257126 
" clip-path="url(#p71a4a04086)"/>
    <path d="M 298.230564 165.494253 
L 305.062908 158.641351 
L 302.666078 157.846406 
L 313.038749 152.241006 
L 307.464537 162.630471 
L 306.662395 160.23604 
L 299.830051 167.088941 
L 298.230564 165.494253 
" clip-path="url(#p71a4a04086)"/>
    <path d="M 327.905502 247.808941 
L 334.744167 240.940975 
L 332.346832 240.147553 
L 342.715938 234.535562 
L 337.148331 244.928567 
L 336.344667 242.534646 
L 329.506002 249.402612 
L 327.905502 247.808941 
" clip-path="url(#p71a4a04086)"/>
    <path d="M 227.361271 166.640907 
L 234.266296 159.7611 
L 231.872127 158.958174 
L 242.263416 153.387363 
L 236.654622 163.758199 
L 235.860461 161.361108 
L 228.955436 168.240915 
L 227.361271 166.640907 
" clip-path="url(#p71a4a04086)"/>
    <path d="M 273.25452 245.73909 
L 280.047202 238.883371 
L 277.647906 238.0959 
L 288.003058 232.458202 
L 282.461251 242.864987 
L 281.651651 240.473067 
L 274.858968 247.328786 
L 273.25452 245.73909 
" clip-path="url(#p71a4a04086)"/>
    <path d="M 134.570802 128.641758 
L 141.430567 121.770084 
L 139.034241 120.973617 
L 149.410469 115.374804 
L 143.829663 125.760728 
L 143.029041 123.365787 
L 136.169276 130.237461 
L 134.570802 128.641758 
" clip-path="url(#p71a4a04086)"/>
    <path d="M 241.202162 258.695473 
L 247.922132 252.015011 
L 245.528863 251.209407 
L 255.926378 245.650225 
L 250.305984 256.014779 
L 249.514506 253.616802 
L 242.794536 260.297264 
L 241.202162 258.695473 
" clip-path="url(#p71a4a04086)"/>
    <path d="M 190.393818 163.62919 
L 197.255993 156.777313 
L 194.860959 155.97697 
L 205.246233 150.394954 
L 199.648628 160.771834 
L 198.851882 158.375601 
L 191.989708 165.227478 
L 190.393818 163.62919 
" clip-path="url(#p71a4a04086)"/>
    <path d="M 200.086131 195.988033 
L 206.928214 189.099593 
L 204.529898 188.309141 
L 214.892046 182.684312 
L 209.337314 193.084205 
L 208.530686 190.691281 
L 201.688603 197.579721 
L 200.086131 195.988033 
" clip-path="url(#p71a4a04086)"/>
    <path d="M 347.476721 208.713158 
L 354.310334 201.87657 
L 351.914526 201.078547 
L 362.294389 195.486476 
L 356.706836 205.868772 
L 355.907771 203.473312 
L 349.074158 210.309899 
L 347.476721 208.713158 
" clip-path="url(#p71a4a04086)"/>
    <path d="M 222.878983 219.93106 
L 229.681509 213.046015 
L 227.281105 212.261927 
L 237.628297 206.609633 
L 232.10117 217.024223 
L 231.288197 214.633447 
L 224.485671 221.518492 
L 222.878983 219.93106 
" clip-path="url(#p71a4a04086)"/>
    <path d="M 270.637085 277.746167 
L 277.596053 270.817563 
L 275.202171 270.013783 
L 285.595448 264.446682 
L 279.982951 274.815515 
L 279.189646 272.418141 
L 272.230678 279.346745 
L 270.637085 277.746167 
" clip-path="url(#p71a4a04086)"/>
    <path d="M 194.85233 118.466482 
L 201.698919 111.632884 
L 199.304045 110.832065 
L 209.690429 105.252114 
L 204.09076 115.62788 
L 203.294491 113.231489 
L 196.447902 120.065087 
L 194.85233 118.466482 
" clip-path="url(#p71a4a04086)"/>
    <path d="M 215.367618 248.165425 
L 222.207301 241.277068 
L 219.808851 240.487023 
L 230.170047 234.860439 
L 224.617076 245.261273 
L 223.810043 242.868485 
L 216.970359 249.756842 
L 215.367618 248.165425 
" clip-path="url(#p71a4a04086)"/>
    <path d="M 131.729111 160.815492 
L 138.568658 153.947252 
L 136.171358 153.153724 
L 146.540715 147.542195 
L 140.972644 157.934952 
L 140.169087 155.540995 
L 133.32954 162.409235 
L 131.729111 160.815492 
" clip-path="url(#p71a4a04086)"/>
    <path d="M 227.657248 193.730695 
L 234.524447 186.846697 
L 232.127839 186.05108 
L 242.502082 180.448589 
L 236.924956 190.83649 
L 236.123486 188.441834 
L 229.256287 195.325832 
L 227.657248 193.730695 
" clip-path="url(#p71a4a04086)"/>
    <path d="M 253.655255 201.025887 
L 260.441608 194.306057 
L 258.049936 193.495722 
L 268.458422 187.957108 
L 262.817548 198.31053 
L 262.030812 195.910992 
L 255.244458 202.630823 
L 253.655255 201.025887 
" clip-path="url(#p71a4a04086)"/>
    <path d="M 154.581632 182.726384 
L 161.39778 175.87639 
L 159.000176 175.08378 
L 169.36738 169.468276 
L 163.803295 179.863167 
L 162.99882 177.469518 
L 156.182672 184.319512 
L 154.581632 182.726384 
" clip-path="url(#p71a4a04086)"/>
    <path d="M 194.377548 225.933792 
L 201.188374 219.075753 
L 198.789997 218.285488 
L 209.151707 212.659853 
L 203.597785 223.060178 
L 202.79097 220.667317 
L 195.980144 227.525355 
L 194.377548 225.933792 
" clip-path="url(#p71a4a04086)"/>
    <path d="M 249.191902 228.453607 
L 255.885207 221.760999 
L 253.489615 220.96233 
L 263.870986 215.373058 
L 258.280633 225.753847 
L 257.482213 223.358171 
L 250.788908 230.050779 
L 249.191902 228.453607 
" clip-path="url(#p71a4a04086)"/>
    <path d="M 172.882782 205.768606 
L 179.717755 198.902253 
L 177.320299 198.109197 
L 187.688549 192.495624 
L 182.122527 202.889479 
L 181.318498 200.49568 
L 174.483525 207.362033 
L 172.882782 205.768606 
" clip-path="url(#p71a4a04086)"/>
    <path d="M 163.522315 152.246543 
L 170.373017 145.394453 
L 167.977302 144.596151 
L 178.357815 139.005288 
L 172.769055 149.386933 
L 171.970267 146.991381 
L 165.119566 153.84347 
L 163.522315 152.246543 
" clip-path="url(#p71a4a04086)"/>
    <path d="M 164.895705 119.979383 
L 171.750127 113.134442 
L 169.355046 112.33424 
L 179.739992 106.751613 
L 174.142997 117.128822 
L 173.34611 114.732636 
L 166.491688 121.577577 
L 164.895705 119.979383 
" clip-path="url(#p71a4a04086)"/>
   </g>
   <g id="matplotlib.axis_1">
    <g id="xtick_1">
     <g id="line2d_1">
      <defs>
       <path id="m7ff806b546" d="M 0 0 
L 0 3.5 
" style="stroke: #000000; stroke-width: 0.8"/>
      </defs>
      <g>
       <use xlink:href="#m7ff806b546" x="117.742019" y="307.584" style="stroke: #000000; stroke-width: 0.8"/>
      </g>
     </g>
     <g id="text_1">
      <!-- 86.0 -->
      <g transform="translate(104.382644 323.702125) scale(0.12 -0.12)">
       <defs>
        <path id="DejaVuSans-38" d="M 2034 2216 
Q 1584 2216 1326 1975 
Q 1069 1734 1069 1313 
Q 1069 891 1326 650 
Q 1584 409 2034 409 
Q 2484 409 2743 651 
Q 3003 894 3003 1313 
Q 3003 1734 2745 1975 
Q 2488 2216 2034 2216 
z
M 1403 2484 
Q 997 2584 770 2862 
Q 544 3141 544 3541 
Q 544 4100 942 4425 
Q 1341 4750 2034 4750 
Q 2731 4750 3128 4425 
Q 3525 4100 3525 3541 
Q 3525 3141 3298 2862 
Q 3072 2584 2669 2484 
Q 3125 2378 3379 2068 
Q 3634 1759 3634 1313 
Q 3634 634 3220 271 
Q 2806 -91 2034 -91 
Q 1263 -91 848 271 
Q 434 634 434 1313 
Q 434 1759 690 2068 
Q 947 2378 1403 2484 
z
M 1172 3481 
Q 1172 3119 1398 2916 
Q 1625 2713 2034 2713 
Q 2441 2713 2670 2916 
Q 2900 3119 2900 3481 
Q 2900 3844 2670 4047 
Q 2441 4250 2034 4250 
Q 1625 4250 1398 4047 
Q 1172 3844 1172 3481 
z
" transform="scale(0.015625)"/>
        <path id="DejaVuSans-36" d="M 2113 2584 
Q 1688 2584 1439 2293 
Q 1191 2003 1191 1497 
Q 1191 994 1439 701 
Q 1688 409 2113 409 
Q 2538 409 2786 701 
Q 3034 994 3034 1497 
Q 3034 2003 2786 2293 
Q 2538 2584 2113 2584 
z
M 3366 4563 
L 3366 3988 
Q 3128 4100 2886 4159 
Q 2644 4219 2406 4219 
Q 1781 4219 1451 3797 
Q 1122 3375 1075 2522 
Q 1259 2794 1537 2939 
Q 1816 3084 2150 3084 
Q 2853 3084 3261 2657 
Q 3669 2231 3669 1497 
Q 3669 778 3244 343 
Q 2819 -91 2113 -91 
Q 1303 -91 875 529 
Q 447 1150 447 2328 
Q 447 3434 972 4092 
Q 1497 4750 2381 4750 
Q 2619 4750 2861 4703 
Q 3103 4656 3366 4563 
z
" transform="scale(0.015625)"/>
        <path id="DejaVuSans-2e" d="M 684 794 
L 1344 794 
L 1344 0 
L 684 0 
L 684 794 
z
" transform="scale(0.015625)"/>
        <path id="DejaVuSans-30" d="M 2034 4250 
Q 1547 4250 1301 3770 
Q 1056 3291 1056 2328 
Q 1056 1369 1301 889 
Q 1547 409 2034 409 
Q 2525 409 2770 889 
Q 3016 1369 3016 2328 
Q 3016 3291 2770 3770 
Q 2525 4250 2034 4250 
z
M 2034 4750 
Q 2819 4750 3233 4129 
Q 3647 3509 3647 2328 
Q 3647 1150 3233 529 
Q 2819 -91 2034 -91 
Q 1250 -91 836 529 
Q 422 1150 422 2328 
Q 422 3509 836 4129 
Q 1250 4750 2034 4750 
z
" transform="scale(0.015625)"/>
       </defs>
       <use xlink:href="#DejaVuSans-38"/>
       <use xlink:href="#DejaVuSans-36" x="63.623047"/>
       <use xlink:href="#DejaVuSans-2e" x="127.246094"/>
       <use xlink:href="#DejaVuSans-30" x="159.033203"/>
      </g>
     </g>
    </g>
    <g id="xtick_2">
     <g id="line2d_2">
      <g>
       <use xlink:href="#m7ff806b546" x="179.818404" y="307.584" style="stroke: #000000; stroke-width: 0.8"/>
      </g>
     </g>
     <g id="text_2">
      <!-- 86.5 -->
      <g transform="translate(166.459029 323.702125) scale(0.12 -0.12)">
       <defs>
        <path id="DejaVuSans-35" d="M 691 4666 
L 3169 4666 
L 3169 4134 
L 1269 4134 
L 1269 2991 
Q 1406 3038 1543 3061 
Q 1681 3084 1819 3084 
Q 2600 3084 3056 2656 
Q 3513 2228 3513 1497 
Q 3513 744 3044 326 
Q 2575 -91 1722 -91 
Q 1428 -91 1123 -41 
Q 819 9 494 109 
L 494 744 
Q 775 591 1075 516 
Q 1375 441 1709 441 
Q 2250 441 2565 725 
Q 2881 1009 2881 1497 
Q 2881 1984 2565 2268 
Q 2250 2553 1709 2553 
Q 1456 2553 1204 2497 
Q 953 2441 691 2322 
L 691 4666 
z
" transform="scale(0.015625)"/>
       </defs>
       <use xlink:href="#DejaVuSans-38"/>
       <use xlink:href="#DejaVuSans-36" x="63.623047"/>
       <use xlink:href="#DejaVuSans-2e" x="127.246094"/>
       <use xlink:href="#DejaVuSans-35" x="159.033203"/>
      </g>
     </g>
    </g>
    <g id="xtick_3">
     <g id="line2d_3">
      <g>
       <use xlink:href="#m7ff806b546" x="241.894789" y="307.584" style="stroke: #000000; stroke-width: 0.8"/>
      </g>
     </g>
     <g id="text_3">
      <!-- 87.0 -->
      <g transform="translate(228.535414 323.702125) scale(0.12 -0.12)">
       <defs>
        <path id="DejaVuSans-37" d="M 525 4666 
L 3525 4666 
L 3525 4397 
L 1831 0 
L 1172 0 
L 2766 4134 
L 525 4134 
L 525 4666 
z
" transform="scale(0.015625)"/>
       </defs>
       <use xlink:href="#DejaVuSans-38"/>
       <use xlink:href="#DejaVuSans-37" x="63.623047"/>
       <use xlink:href="#DejaVuSans-2e" x="127.246094"/>
       <use xlink:href="#DejaVuSans-30" x="159.033203"/>
      </g>
     </g>
    </g>
    <g id="xtick_4">
     <g id="line2d_4">
      <g>
       <use xlink:href="#m7ff806b546" x="303.971174" y="307.584" style="stroke: #000000; stroke-width: 0.8"/>
      </g>
     </g>
     <g id="text_4">
      <!-- 87.5 -->
      <g transform="translate(290.611799 323.702125) scale(0.12 -0.12)">
       <use xlink:href="#DejaVuSans-38"/>
       <use xlink:href="#DejaVuSans-37" x="63.623047"/>
       <use xlink:href="#DejaVuSans-2e" x="127.246094"/>
       <use xlink:href="#DejaVuSans-35" x="159.033203"/>
      </g>
     </g>
    </g>
    <g id="xtick_5">
     <g id="line2d_5">
      <g>
       <use xlink:href="#m7ff806b546" x="366.047559" y="307.584" style="stroke: #000000; stroke-width: 0.8"/>
      </g>
     </g>
     <g id="text_5">
      <!-- 88.0 -->
      <g transform="translate(352.688184 323.702125) scale(0.12 -0.12)">
       <use xlink:href="#DejaVuSans-38"/>
       <use xlink:href="#DejaVuSans-38" x="63.623047"/>
       <use xlink:href="#DejaVuSans-2e" x="127.246094"/>
       <use xlink:href="#DejaVuSans-30" x="159.033203"/>
      </g>
     </g>
    </g>
    <g id="text_6">
     <!-- x -->
     <g transform="translate(232.016875 340.835562) scale(0.14 -0.14)">
      <defs>
       <path id="DejaVuSans-78" d="M 3513 3500 
L 2247 1797 
L 3578 0 
L 2900 0 
L 1881 1375 
L 863 0 
L 184 0 
L 1544 1831 
L 300 3500 
L 978 3500 
L 1906 2253 
L 2834 3500 
L 3513 3500 
z
" transform="scale(0.015625)"/>
      </defs>
      <use xlink:href="#DejaVuSans-78"/>
     </g>
    </g>
   </g>
   <g id="matplotlib.axis_2">
    <g id="ytick_1">
     <g id="line2d_6">
      <defs>
       <path id="m3b75239687" d="M 0 0 
L -3.5 0 
" style="stroke: #000000; stroke-width: 0.8"/>
      </defs>
      <g>
       <use xlink:href="#m3b75239687" x="57.6" y="279.381023" style="stroke: #000000; stroke-width: 0.8"/>
      </g>
     </g>
     <g id="text_7">
      <!-- 84.50 -->
      <g transform="translate(16.24625 283.940085) scale(0.12 -0.12)">
       <defs>
        <path id="DejaVuSans-34" d="M 2419 4116 
L 825 1625 
L 2419 1625 
L 2419 4116 
z
M 2253 4666 
L 3047 4666 
L 3047 1625 
L 3713 1625 
L 3713 1100 
L 3047 1100 
L 3047 0 
L 2419 0 
L 2419 1100 
L 313 1100 
L 313 1709 
L 2253 4666 
z
" transform="scale(0.015625)"/>
       </defs>
       <use xlink:href="#DejaVuSans-38"/>
       <use xlink:href="#DejaVuSans-34" x="63.623047"/>
       <use xlink:href="#DejaVuSans-2e" x="127.246094"/>
       <use xlink:href="#DejaVuSans-35" x="159.033203"/>
       <use xlink:href="#DejaVuSans-30" x="222.65625"/>
      </g>
     </g>
    </g>
    <g id="ytick_2">
     <g id="line2d_7">
      <g>
       <use xlink:href="#m3b75239687" x="57.6" y="248.342831" style="stroke: #000000; stroke-width: 0.8"/>
      </g>
     </g>
     <g id="text_8">
      <!-- 84.75 -->
      <g transform="translate(16.24625 252.901893) scale(0.12 -0.12)">
       <use xlink:href="#DejaVuSans-38"/>
       <use xlink:href="#DejaVuSans-34" x="63.623047"/>
       <use xlink:href="#DejaVuSans-2e" x="127.246094"/>
       <use xlink:href="#DejaVuSans-37" x="159.033203"/>
       <use xlink:href="#DejaVuSans-35" x="222.65625"/>
      </g>
     </g>
    </g>
    <g id="ytick_3">
     <g id="line2d_8">
      <g>
       <use xlink:href="#m3b75239687" x="57.6" y="217.304638" style="stroke: #000000; stroke-width: 0.8"/>
      </g>
     </g>
     <g id="text_9">
      <!-- 85.00 -->
      <g transform="translate(16.24625 221.863701) scale(0.12 -0.12)">
       <use xlink:href="#DejaVuSans-38"/>
       <use xlink:href="#DejaVuSans-35" x="63.623047"/>
       <use xlink:href="#DejaVuSans-2e" x="127.246094"/>
       <use xlink:href="#DejaVuSans-30" x="159.033203"/>
       <use xlink:href="#DejaVuSans-30" x="222.65625"/>
      </g>
     </g>
    </g>
    <g id="ytick_4">
     <g id="line2d_9">
      <g>
       <use xlink:href="#m3b75239687" x="57.6" y="186.266446" style="stroke: #000000; stroke-width: 0.8"/>
      </g>
     </g>
     <g id="text_10">
      <!-- 85.25 -->
      <g transform="translate(16.24625 190.825508) scale(0.12 -0.12)">
       <defs>
        <path id="DejaVuSans-32" d="M 1228 531 
L 3431 531 
L 3431 0 
L 469 0 
L 469 531 
Q 828 903 1448 1529 
Q 2069 2156 2228 2338 
Q 2531 2678 2651 2914 
Q 2772 3150 2772 3378 
Q 2772 3750 2511 3984 
Q 2250 4219 1831 4219 
Q 1534 4219 1204 4116 
Q 875 4013 500 3803 
L 500 4441 
Q 881 4594 1212 4672 
Q 1544 4750 1819 4750 
Q 2544 4750 2975 4387 
Q 3406 4025 3406 3419 
Q 3406 3131 3298 2873 
Q 3191 2616 2906 2266 
Q 2828 2175 2409 1742 
Q 1991 1309 1228 531 
z
" transform="scale(0.015625)"/>
       </defs>
       <use xlink:href="#DejaVuSans-38"/>
       <use xlink:href="#DejaVuSans-35" x="63.623047"/>
       <use xlink:href="#DejaVuSans-2e" x="127.246094"/>
       <use xlink:href="#DejaVuSans-32" x="159.033203"/>
       <use xlink:href="#DejaVuSans-35" x="222.65625"/>
      </g>
     </g>
    </g>
    <g id="ytick_5">
     <g id="line2d_10">
      <g>
       <use xlink:href="#m3b75239687" x="57.6" y="155.228253" style="stroke: #000000; stroke-width: 0.8"/>
      </g>
     </g>
     <g id="text_11">
      <!-- 85.50 -->
      <g transform="translate(16.24625 159.787316) scale(0.12 -0.12)">
       <use xlink:href="#DejaVuSans-38"/>
       <use xlink:href="#DejaVuSans-35" x="63.623047"/>
       <use xlink:href="#DejaVuSans-2e" x="127.246094"/>
       <use xlink:href="#DejaVuSans-35" x="159.033203"/>
       <use xlink:href="#DejaVuSans-30" x="222.65625"/>
      </g>
     </g>
    </g>
    <g id="ytick_6">
     <g id="line2d_11">
      <g>
       <use xlink:href="#m3b75239687" x="57.6" y="124.190061" style="stroke: #000000; stroke-width: 0.8"/>
      </g>
     </g>
     <g id="text_12">
      <!-- 85.75 -->
      <g transform="translate(16.24625 128.749123) scale(0.12 -0.12)">
       <use xlink:href="#DejaVuSans-38"/>
       <use xlink:href="#DejaVuSans-35" x="63.623047"/>
       <use xlink:href="#DejaVuSans-2e" x="127.246094"/>
       <use xlink:href="#DejaVuSans-37" x="159.033203"/>
       <use xlink:href="#DejaVuSans-35" x="222.65625"/>
      </g>
     </g>
    </g>
    <g id="ytick_7">
     <g id="line2d_12">
      <g>
       <use xlink:href="#m3b75239687" x="57.6" y="93.151868" style="stroke: #000000; stroke-width: 0.8"/>
      </g>
     </g>
     <g id="text_13">
      <!-- 86.00 -->
      <g transform="translate(16.24625 97.710931) scale(0.12 -0.12)">
       <use xlink:href="#DejaVuSans-38"/>
       <use xlink:href="#DejaVuSans-36" x="63.623047"/>
       <use xlink:href="#DejaVuSans-2e" x="127.246094"/>
       <use xlink:href="#DejaVuSans-30" x="159.033203"/>
       <use xlink:href="#DejaVuSans-30" x="222.65625"/>
      </g>
     </g>
    </g>
    <g id="ytick_8">
     <g id="line2d_13">
      <g>
       <use xlink:href="#m3b75239687" x="57.6" y="62.113676" style="stroke: #000000; stroke-width: 0.8"/>
      </g>
     </g>
     <g id="text_14">
      <!-- 86.25 -->
      <g transform="translate(16.24625 66.672738) scale(0.12 -0.12)">
       <use xlink:href="#DejaVuSans-38"/>
       <use xlink:href="#DejaVuSans-36" x="63.623047"/>
       <use xlink:href="#DejaVuSans-2e" x="127.246094"/>
       <use xlink:href="#DejaVuSans-32" x="159.033203"/>
       <use xlink:href="#DejaVuSans-35" x="222.65625"/>
      </g>
     </g>
    </g>
    <g id="text_15">
     <!-- y -->
     <g transform="translate(9.334688 178.671125) rotate(-90) scale(0.14 -0.14)">
      <defs>
       <path id="DejaVuSans-79" d="M 2059 -325 
Q 1816 -950 1584 -1140 
Q 1353 -1331 966 -1331 
L 506 -1331 
L 506 -850 
L 844 -850 
Q 1081 -850 1212 -737 
Q 1344 -625 1503 -206 
L 1606 56 
L 191 3500 
L 800 3500 
L 1894 763 
L 2988 3500 
L 3597 3500 
L 2059 -325 
z
" transform="scale(0.015625)"/>
      </defs>
      <use xlink:href="#DejaVuSans-79"/>
     </g>
    </g>
   </g>
   <g id="line2d_14">
    <defs>
     <path id="m1f5820b405" d="M 0 3 
C 0.795609 3 1.55874 2.683901 2.12132 2.12132 
C 2.683901 1.55874 3 0.795609 3 0 
C 3 -0.795609 2.683901 -1.55874 2.12132 -2.12132 
C 1.55874 -2.683901 0.795609 -3 0 -3 
C -0.795609 -3 -1.55874 -2.683901 -2.12132 -2.12132 
C -2.683901 -1.55874 -3 -0.795609 -3 0 
C -3 0.795609 -2.683901 1.55874 -2.12132 2.12132 
C -1.55874 2.683901 -0.795609 3 0 3 
z
" style="stroke: #0000ff"/>
    </defs>
    <g clip-path="url(#p71a4a04086)">
     <use xlink:href="#m1f5820b405" x="227.795693" y="122.188547" style="fill: #0000ff; stroke: #0000ff"/>
     <use xlink:href="#m1f5820b405" x="294.714404" y="63.788818" style="fill: #0000ff; stroke: #0000ff"/>
     <use xlink:href="#m1f5820b405" x="322.181663" y="82.640576" style="fill: #0000ff; stroke: #0000ff"/>
     <use xlink:href="#m1f5820b405" x="313.418448" y="199.468992" style="fill: #0000ff; stroke: #0000ff"/>
     <use xlink:href="#m1f5820b405" x="280.483699" y="123.073807" style="fill: #0000ff; stroke: #0000ff"/>
     <use xlink:href="#m1f5820b405" x="201.062169" y="84.927458" style="fill: #0000ff; stroke: #0000ff"/>
     <use xlink:href="#m1f5820b405" x="300.864599" y="143.835519" style="fill: #0000ff; stroke: #0000ff"/>
     <use xlink:href="#m1f5820b405" x="211.659131" y="144.810839" style="fill: #0000ff; stroke: #0000ff"/>
     <use xlink:href="#m1f5820b405" x="356.390812" y="141.304002" style="fill: #0000ff; stroke: #0000ff"/>
     <use xlink:href="#m1f5820b405" x="358.894777" y="176.416861" style="fill: #0000ff; stroke: #0000ff"/>
     <use xlink:href="#m1f5820b405" x="284.265157" y="93.328827" style="fill: #0000ff; stroke: #0000ff"/>
     <use xlink:href="#m1f5820b405" x="268.677198" y="147.891981" style="fill: #0000ff; stroke: #0000ff"/>
     <use xlink:href="#m1f5820b405" x="309.923725" y="113.466005" style="fill: #0000ff; stroke: #0000ff"/>
     <use xlink:href="#m1f5820b405" x="262.940412" y="53.568" style="fill: #0000ff; stroke: #0000ff"/>
     <use xlink:href="#m1f5820b405" x="285.503641" y="185.902396" style="fill: #0000ff; stroke: #0000ff"/>
     <use xlink:href="#m1f5820b405" x="254.43175" y="83.847642" style="fill: #0000ff; stroke: #0000ff"/>
     <use xlink:href="#m1f5820b405" x="254.713657" y="113.3562" style="fill: #0000ff; stroke: #0000ff"/>
     <use xlink:href="#m1f5820b405" x="229.283721" y="54.666521" style="fill: #0000ff; stroke: #0000ff"/>
     <use xlink:href="#m1f5820b405" x="328.045058" y="157.824589" style="fill: #0000ff; stroke: #0000ff"/>
     <use xlink:href="#m1f5820b405" x="344.011204" y="109.322381" style="fill: #0000ff; stroke: #0000ff"/>
    </g>
   </g>
   <g id="line2d_15">
    <defs>
     <path id="m67984ff162" d="M 0 3 
C 0.795609 3 1.55874 2.683901 2.12132 2.12132 
C 2.683901 1.55874 3 0.795609 3 0 
C 3 -0.795609 2.683901 -1.55874 2.12132 -2.12132 
C 1.55874 -2.683901 0.795609 -3 0 -3 
C -0.795609 -3 -1.55874 -2.683901 -2.12132 -2.12132 
C -2.683901 -1.55874 -3 -0.795609 -3 0 
C -3 0.795609 -2.683901 1.55874 -2.12132 2.12132 
C -1.55874 2.683901 -0.795609 3 0 3 
z
" style="stroke: #ff0000"/>
    </defs>
    <g clip-path="url(#p71a4a04086)">
     <use xlink:href="#m67984ff162" x="203.431541" y="55.648713" style="fill: #ff0000; stroke: #ff0000"/>
     <use xlink:href="#m67984ff162" x="156.908806" y="259.095191" style="fill: #ff0000; stroke: #ff0000"/>
     <use xlink:href="#m67984ff162" x="265.393188" y="179.926809" style="fill: #ff0000; stroke: #ff0000"/>
     <use xlink:href="#m67984ff162" x="333.83119" y="184.345728" style="fill: #ff0000; stroke: #ff0000"/>
     <use xlink:href="#m67984ff162" x="159.741757" y="278.739375" style="fill: #ff0000; stroke: #ff0000"/>
     <use xlink:href="#m67984ff162" x="275.721374" y="221.902487" style="fill: #ff0000; stroke: #ff0000"/>
     <use xlink:href="#m67984ff162" x="142.487306" y="222.282963" style="fill: #ff0000; stroke: #ff0000"/>
     <use xlink:href="#m67984ff162" x="170.336387" y="75.651036" style="fill: #ff0000; stroke: #ff0000"/>
     <use xlink:href="#m67984ff162" x="250.112793" y="135.590027" style="fill: #ff0000; stroke: #ff0000"/>
     <use xlink:href="#m67984ff162" x="186.503518" y="140.281615" style="fill: #ff0000; stroke: #ff0000"/>
     <use xlink:href="#m67984ff162" x="185.01432" y="63.204495" style="fill: #ff0000; stroke: #ff0000"/>
     <use xlink:href="#m67984ff162" x="128.55086" y="206.254907" style="fill: #ff0000; stroke: #ff0000"/>
     <use xlink:href="#m67984ff162" x="182.650157" y="264.595042" style="fill: #ff0000; stroke: #ff0000"/>
     <use xlink:href="#m67984ff162" x="315.149985" y="262.599751" style="fill: #ff0000; stroke: #ff0000"/>
     <use xlink:href="#m67984ff162" x="215.616501" y="103.059968" style="fill: #ff0000; stroke: #ff0000"/>
     <use xlink:href="#m67984ff162" x="226.927524" y="80.026548" style="fill: #ff0000; stroke: #ff0000"/>
     <use xlink:href="#m67984ff162" x="247.889131" y="179.115627" style="fill: #ff0000; stroke: #ff0000"/>
     <use xlink:href="#m67984ff162" x="299.263186" y="250.140484" style="fill: #ff0000; stroke: #ff0000"/>
     <use xlink:href="#m67984ff162" x="129.030074" y="239.803038" style="fill: #ff0000; stroke: #ff0000"/>
     <use xlink:href="#m67984ff162" x="117.55677" y="221.244269" style="fill: #ff0000; stroke: #ff0000"/>
     <use xlink:href="#m67984ff162" x="157.812089" y="88.595128" style="fill: #ff0000; stroke: #ff0000"/>
     <use xlink:href="#m67984ff162" x="295.406613" y="227.719441" style="fill: #ff0000; stroke: #ff0000"/>
     <use xlink:href="#m67984ff162" x="171.792899" y="248.181516" style="fill: #ff0000; stroke: #ff0000"/>
     <use xlink:href="#m67984ff162" x="199.314891" y="276.590985" style="fill: #ff0000; stroke: #ff0000"/>
     <use xlink:href="#m67984ff162" x="180.390793" y="181.920306" style="fill: #ff0000; stroke: #ff0000"/>
     <use xlink:href="#m67984ff162" x="312.32606" y="176.101868" style="fill: #ff0000; stroke: #ff0000"/>
     <use xlink:href="#m67984ff162" x="137.452369" y="258.803077" style="fill: #ff0000; stroke: #ff0000"/>
     <use xlink:href="#m67984ff162" x="179.272253" y="287.433475" style="fill: #ff0000; stroke: #ff0000"/>
     <use xlink:href="#m67984ff162" x="342.254957" y="235.127201" style="fill: #ff0000; stroke: #ff0000"/>
     <use xlink:href="#m67984ff162" x="297.82194" y="271.897821" style="fill: #ff0000; stroke: #ff0000"/>
     <use xlink:href="#m67984ff162" x="154.726645" y="236.305233" style="fill: #ff0000; stroke: #ff0000"/>
     <use xlink:href="#m67984ff162" x="246.684669" y="155.140022" style="fill: #ff0000; stroke: #ff0000"/>
     <use xlink:href="#m67984ff162" x="233.111209" y="97.164762" style="fill: #ff0000; stroke: #ff0000"/>
     <use xlink:href="#m67984ff162" x="293.147112" y="211.366294" style="fill: #ff0000; stroke: #ff0000"/>
     <use xlink:href="#m67984ff162" x="113.425223" y="194.099041" style="fill: #ff0000; stroke: #ff0000"/>
     <use xlink:href="#m67984ff162" x="327.4248" y="132.23835" style="fill: #ff0000; stroke: #ff0000"/>
     <use xlink:href="#m67984ff162" x="275.613906" y="206.037251" style="fill: #ff0000; stroke: #ff0000"/>
     <use xlink:href="#m67984ff162" x="281.791464" y="163.738327" style="fill: #ff0000; stroke: #ff0000"/>
     <use xlink:href="#m67984ff162" x="311.856928" y="235.009984" style="fill: #ff0000; stroke: #ff0000"/>
     <use xlink:href="#m67984ff162" x="200.873776" y="295.057011" style="fill: #ff0000; stroke: #ff0000"/>
     <use xlink:href="#m67984ff162" x="245.102373" y="282.709205" style="fill: #ff0000; stroke: #ff0000"/>
     <use xlink:href="#m67984ff162" x="323.495404" y="222.045241" style="fill: #ff0000; stroke: #ff0000"/>
     <use xlink:href="#m67984ff162" x="235.616605" y="144.048811" style="fill: #ff0000; stroke: #ff0000"/>
     <use xlink:href="#m67984ff162" x="144.855165" y="101.137977" style="fill: #ff0000; stroke: #ff0000"/>
     <use xlink:href="#m67984ff162" x="177.873923" y="96.783119" style="fill: #ff0000; stroke: #ff0000"/>
     <use xlink:href="#m67984ff162" x="209.497463" y="175.515569" style="fill: #ff0000; stroke: #ff0000"/>
     <use xlink:href="#m67984ff162" x="219.54242" y="295.488" style="fill: #ff0000; stroke: #ff0000"/>
     <use xlink:href="#m67984ff162" x="258.014921" y="167.060306" style="fill: #ff0000; stroke: #ff0000"/>
     <use xlink:href="#m67984ff162" x="299.030307" y="166.291597" style="fill: #ff0000; stroke: #ff0000"/>
     <use xlink:href="#m67984ff162" x="328.705752" y="248.605776" style="fill: #ff0000; stroke: #ff0000"/>
    </g>
   </g>
   <g id="line2d_16">
    <defs>
     <path id="m391339eede" d="M 0 3 
C 0.795609 3 1.55874 2.683901 2.12132 2.12132 
C 2.683901 1.55874 3 0.795609 3 0 
C 3 -0.795609 2.683901 -1.55874 2.12132 -2.12132 
C 1.55874 -2.683901 0.795609 -3 0 -3 
C -0.795609 -3 -1.55874 -2.683901 -2.12132 -2.12132 
C -2.683901 -1.55874 -3 -0.795609 -3 0 
C -3 0.795609 -2.683901 1.55874 -2.12132 2.12132 
C -1.55874 2.683901 -0.795609 3 0 3 
z
" style="stroke: #000000"/>
    </defs>
    <g clip-path="url(#p71a4a04086)">
     <use xlink:href="#m391339eede" x="228.158353" y="167.440911" style="stroke: #000000"/>
     <use xlink:href="#m391339eede" x="274.056744" y="246.533938" style="stroke: #000000"/>
     <use xlink:href="#m391339eede" x="135.370039" y="129.43961" style="stroke: #000000"/>
     <use xlink:href="#m391339eede" x="241.998349" y="259.496368" style="stroke: #000000"/>
     <use xlink:href="#m391339eede" x="191.191763" y="164.428334" style="stroke: #000000"/>
     <use xlink:href="#m391339eede" x="200.887367" y="196.783877" style="stroke: #000000"/>
     <use xlink:href="#m391339eede" x="348.275439" y="209.511529" style="stroke: #000000"/>
     <use xlink:href="#m391339eede" x="223.682327" y="220.724776" style="stroke: #000000"/>
     <use xlink:href="#m391339eede" x="271.433881" y="278.546456" style="stroke: #000000"/>
     <use xlink:href="#m391339eede" x="195.650116" y="119.265784" style="stroke: #000000"/>
     <use xlink:href="#m391339eede" x="216.168989" y="248.961134" style="stroke: #000000"/>
     <use xlink:href="#m391339eede" x="132.529325" y="161.612364" style="stroke: #000000"/>
     <use xlink:href="#m391339eede" x="228.456768" y="194.528263" style="stroke: #000000"/>
     <use xlink:href="#m391339eede" x="254.449856" y="201.828355" style="stroke: #000000"/>
     <use xlink:href="#m391339eede" x="155.382152" y="183.522948" style="stroke: #000000"/>
     <use xlink:href="#m391339eede" x="195.178846" y="226.729574" style="stroke: #000000"/>
     <use xlink:href="#m391339eede" x="249.990405" y="229.252193" style="stroke: #000000"/>
     <use xlink:href="#m391339eede" x="173.683153" y="206.56532" style="stroke: #000000"/>
     <use xlink:href="#m391339eede" x="164.320941" y="153.045006" style="stroke: #000000"/>
     <use xlink:href="#m391339eede" x="165.693697" y="120.77848" style="stroke: #000000"/>
    </g>
   </g>
   <g id="patch_3">
    <path d="M 57.6 307.584 
L 57.6 41.472 
" style="fill: none; stroke: #000000; stroke-width: 0.8; stroke-linejoin: miter; stroke-linecap: square"/>
   </g>
   <g id="patch_4">
    <path d="M 414.72 307.584 
L 414.72 41.472 
" style="fill: none; stroke: #000000; stroke-width: 0.8; stroke-linejoin: miter; stroke-linecap: square"/>
   </g>
   <g id="patch_5">
    <path d="M 57.6 307.584 
L 414.72 307.584 
" style="fill: none; stroke: #000000; stroke-width: 0.8; stroke-linejoin: miter; stroke-linecap: square"/>
   </g>
   <g id="patch_6">
    <path d="M 57.6 41.472 
L 414.72 41.472 
" style="fill: none; stroke: #000000; stroke-width: 0.8; stroke-linejoin: miter; stroke-linecap: square"/>
   </g>
   <g id="text_16">
    <!-- Velocities at the final time -->
    <g transform="translate(116.81 35.472) scale(0.16 -0.16)">
     <defs>
      <path id="DejaVuSans-Bold-56" d="M 31 4666 
L 1241 4666 
L 2478 1222 
L 3713 4666 
L 4922 4666 
L 3194 0 
L 1759 0 
L 31 4666 
z
" transform="scale(0.015625)"/>
      <path id="DejaVuSans-Bold-65" d="M 4031 1759 
L 4031 1441 
L 1416 1441 
Q 1456 1047 1700 850 
Q 1944 653 2381 653 
Q 2734 653 3104 758 
Q 3475 863 3866 1075 
L 3866 213 
Q 3469 63 3072 -14 
Q 2675 -91 2278 -91 
Q 1328 -91 801 392 
Q 275 875 275 1747 
Q 275 2603 792 3093 
Q 1309 3584 2216 3584 
Q 3041 3584 3536 3087 
Q 4031 2591 4031 1759 
z
M 2881 2131 
Q 2881 2450 2695 2645 
Q 2509 2841 2209 2841 
Q 1884 2841 1681 2658 
Q 1478 2475 1428 2131 
L 2881 2131 
z
" transform="scale(0.015625)"/>
      <path id="DejaVuSans-Bold-6c" d="M 538 4863 
L 1656 4863 
L 1656 0 
L 538 0 
L 538 4863 
z
" transform="scale(0.015625)"/>
      <path id="DejaVuSans-Bold-6f" d="M 2203 2784 
Q 1831 2784 1636 2517 
Q 1441 2250 1441 1747 
Q 1441 1244 1636 976 
Q 1831 709 2203 709 
Q 2569 709 2762 976 
Q 2956 1244 2956 1747 
Q 2956 2250 2762 2517 
Q 2569 2784 2203 2784 
z
M 2203 3584 
Q 3106 3584 3614 3096 
Q 4122 2609 4122 1747 
Q 4122 884 3614 396 
Q 3106 -91 2203 -91 
Q 1297 -91 786 396 
Q 275 884 275 1747 
Q 275 2609 786 3096 
Q 1297 3584 2203 3584 
z
" transform="scale(0.015625)"/>
      <path id="DejaVuSans-Bold-63" d="M 3366 3391 
L 3366 2478 
Q 3138 2634 2908 2709 
Q 2678 2784 2431 2784 
Q 1963 2784 1702 2511 
Q 1441 2238 1441 1747 
Q 1441 1256 1702 982 
Q 1963 709 2431 709 
Q 2694 709 2930 787 
Q 3166 866 3366 1019 
L 3366 103 
Q 3103 6 2833 -42 
Q 2563 -91 2291 -91 
Q 1344 -91 809 395 
Q 275 881 275 1747 
Q 275 2613 809 3098 
Q 1344 3584 2291 3584 
Q 2566 3584 2833 3536 
Q 3100 3488 3366 3391 
z
" transform="scale(0.015625)"/>
      <path id="DejaVuSans-Bold-69" d="M 538 3500 
L 1656 3500 
L 1656 0 
L 538 0 
L 538 3500 
z
M 538 4863 
L 1656 4863 
L 1656 3950 
L 538 3950 
L 538 4863 
z
" transform="scale(0.015625)"/>
      <path id="DejaVuSans-Bold-74" d="M 1759 4494 
L 1759 3500 
L 2913 3500 
L 2913 2700 
L 1759 2700 
L 1759 1216 
Q 1759 972 1856 886 
Q 1953 800 2241 800 
L 2816 800 
L 2816 0 
L 1856 0 
Q 1194 0 917 276 
Q 641 553 641 1216 
L 641 2700 
L 84 2700 
L 84 3500 
L 641 3500 
L 641 4494 
L 1759 4494 
z
" transform="scale(0.015625)"/>
      <path id="DejaVuSans-Bold-73" d="M 3272 3391 
L 3272 2541 
Q 2913 2691 2578 2766 
Q 2244 2841 1947 2841 
Q 1628 2841 1473 2761 
Q 1319 2681 1319 2516 
Q 1319 2381 1436 2309 
Q 1553 2238 1856 2203 
L 2053 2175 
Q 2913 2066 3209 1816 
Q 3506 1566 3506 1031 
Q 3506 472 3093 190 
Q 2681 -91 1863 -91 
Q 1516 -91 1145 -36 
Q 775 19 384 128 
L 384 978 
Q 719 816 1070 734 
Q 1422 653 1784 653 
Q 2113 653 2278 743 
Q 2444 834 2444 1013 
Q 2444 1163 2330 1236 
Q 2216 1309 1875 1350 
L 1678 1375 
Q 931 1469 631 1722 
Q 331 1975 331 2491 
Q 331 3047 712 3315 
Q 1094 3584 1881 3584 
Q 2191 3584 2531 3537 
Q 2872 3491 3272 3391 
z
" transform="scale(0.015625)"/>
      <path id="DejaVuSans-Bold-20" transform="scale(0.015625)"/>
      <path id="DejaVuSans-Bold-61" d="M 2106 1575 
Q 1756 1575 1579 1456 
Q 1403 1338 1403 1106 
Q 1403 894 1545 773 
Q 1688 653 1941 653 
Q 2256 653 2472 879 
Q 2688 1106 2688 1447 
L 2688 1575 
L 2106 1575 
z
M 3816 1997 
L 3816 0 
L 2688 0 
L 2688 519 
Q 2463 200 2181 54 
Q 1900 -91 1497 -91 
Q 953 -91 614 226 
Q 275 544 275 1050 
Q 275 1666 698 1953 
Q 1122 2241 2028 2241 
L 2688 2241 
L 2688 2328 
Q 2688 2594 2478 2717 
Q 2269 2841 1825 2841 
Q 1466 2841 1156 2769 
Q 847 2697 581 2553 
L 581 3406 
Q 941 3494 1303 3539 
Q 1666 3584 2028 3584 
Q 2975 3584 3395 3211 
Q 3816 2838 3816 1997 
z
" transform="scale(0.015625)"/>
      <path id="DejaVuSans-Bold-68" d="M 4056 2131 
L 4056 0 
L 2931 0 
L 2931 347 
L 2931 1625 
Q 2931 2084 2911 2256 
Q 2891 2428 2841 2509 
Q 2775 2619 2662 2680 
Q 2550 2741 2406 2741 
Q 2056 2741 1856 2470 
Q 1656 2200 1656 1722 
L 1656 0 
L 538 0 
L 538 4863 
L 1656 4863 
L 1656 2988 
Q 1909 3294 2193 3439 
Q 2478 3584 2822 3584 
Q 3428 3584 3742 3212 
Q 4056 2841 4056 2131 
z
" transform="scale(0.015625)"/>
      <path id="DejaVuSans-Bold-66" d="M 2841 4863 
L 2841 4128 
L 2222 4128 
Q 1984 4128 1890 4042 
Q 1797 3956 1797 3744 
L 1797 3500 
L 2753 3500 
L 2753 2700 
L 1797 2700 
L 1797 0 
L 678 0 
L 678 2700 
L 122 2700 
L 122 3500 
L 678 3500 
L 678 3744 
Q 678 4316 997 4589 
Q 1316 4863 1984 4863 
L 2841 4863 
z
" transform="scale(0.015625)"/>
      <path id="DejaVuSans-Bold-6e" d="M 4056 2131 
L 4056 0 
L 2931 0 
L 2931 347 
L 2931 1631 
Q 2931 2084 2911 2256 
Q 2891 2428 2841 2509 
Q 2775 2619 2662 2680 
Q 2550 2741 2406 2741 
Q 2056 2741 1856 2470 
Q 1656 2200 1656 1722 
L 1656 0 
L 538 0 
L 538 3500 
L 1656 3500 
L 1656 2988 
Q 1909 3294 2193 3439 
Q 2478 3584 2822 3584 
Q 3428 3584 3742 3212 
Q 4056 2841 4056 2131 
z
" transform="scale(0.015625)"/>
      <path id="DejaVuSans-Bold-6d" d="M 3781 2919 
Q 3994 3244 4286 3414 
Q 4578 3584 4928 3584 
Q 5531 3584 5847 3212 
Q 6163 2841 6163 2131 
L 6163 0 
L 5038 0 
L 5038 1825 
Q 5041 1866 5042 1909 
Q 5044 1953 5044 2034 
Q 5044 2406 4934 2573 
Q 4825 2741 4581 2741 
Q 4263 2741 4089 2478 
Q 3916 2216 3909 1719 
L 3909 0 
L 2784 0 
L 2784 1825 
Q 2784 2406 2684 2573 
Q 2584 2741 2328 2741 
Q 2006 2741 1831 2477 
Q 1656 2213 1656 1722 
L 1656 0 
L 531 0 
L 531 3500 
L 1656 3500 
L 1656 2988 
Q 1863 3284 2130 3434 
Q 2397 3584 2719 3584 
Q 3081 3584 3359 3409 
Q 3638 3234 3781 2919 
z
" transform="scale(0.015625)"/>
     </defs>
     <use xlink:href="#DejaVuSans-Bold-56"/>
     <use xlink:href="#DejaVuSans-Bold-65" x="71.892578"/>
     <use xlink:href="#DejaVuSans-Bold-6c" x="139.714844"/>
     <use xlink:href="#DejaVuSans-Bold-6f" x="173.992188"/>
     <use xlink:href="#DejaVuSans-Bold-63" x="242.693359"/>
     <use xlink:href="#DejaVuSans-Bold-69" x="301.970703"/>
     <use xlink:href="#DejaVuSans-Bold-74" x="336.248047"/>
     <use xlink:href="#DejaVuSans-Bold-69" x="384.050781"/>
     <use xlink:href="#DejaVuSans-Bold-65" x="418.328125"/>
     <use xlink:href="#DejaVuSans-Bold-73" x="486.150391"/>
     <use xlink:href="#DejaVuSans-Bold-20" x="545.671875"/>
     <use xlink:href="#DejaVuSans-Bold-61" x="580.486328"/>
     <use xlink:href="#DejaVuSans-Bold-74" x="647.966797"/>
     <use xlink:href="#DejaVuSans-Bold-20" x="695.769531"/>
     <use xlink:href="#DejaVuSans-Bold-74" x="730.583984"/>
     <use xlink:href="#DejaVuSans-Bold-68" x="778.386719"/>
     <use xlink:href="#DejaVuSans-Bold-65" x="849.578125"/>
     <use xlink:href="#DejaVuSans-Bold-20" x="917.400391"/>
     <use xlink:href="#DejaVuSans-Bold-66" x="952.214844"/>
     <use xlink:href="#DejaVuSans-Bold-69" x="995.720703"/>
     <use xlink:href="#DejaVuSans-Bold-6e" x="1029.998047"/>
     <use xlink:href="#DejaVuSans-Bold-61" x="1101.189453"/>
     <use xlink:href="#DejaVuSans-Bold-6c" x="1168.669922"/>
     <use xlink:href="#DejaVuSans-Bold-20" x="1202.947266"/>
     <use xlink:href="#DejaVuSans-Bold-74" x="1237.761719"/>
     <use xlink:href="#DejaVuSans-Bold-69" x="1285.564453"/>
     <use xlink:href="#DejaVuSans-Bold-6d" x="1319.841797"/>
     <use xlink:href="#DejaVuSans-Bold-65" x="1424.041016"/>
    </g>
   </g>
  </g>
 </g>
 <defs>
  <clipPath id="p71a4a04086">
   <rect x="57.6" y="41.472" width="357.12" height="266.112"/>
  </clipPath>
 </defs>
</svg>
