<?xml version="1.0" encoding="utf-8" standalone="no"?>
<!DOCTYPE svg PUBLIC "-//W3C//DTD SVG 1.1//EN"
  "http://www.w3.org/Graphics/SVG/1.1/DTD/svg11.dtd">
<svg xmlns:xlink="http://www.w3.org/1999/xlink" width="432pt" height="360pt" viewBox="0 0 432 360" xmlns="http://www.w3.org/2000/svg" version="1.1">
 <metadata>
  <rdf:RDF xmlns:dc="http://purl.org/dc/elements/1.1/" xmlns:cc="http://creativecommons.org/ns#" xmlns:rdf="http://www.w3.org/1999/02/22-rdf-syntax-ns#">
   <cc:Work>
    <dc:type rdf:resource="http://purl.org/dc/dcmitype/StillImage"/>
    <dc:date>2025-05-06T01:13:00.648026</dc:date>
    <dc:format>image/svg+xml</dc:format>
    <dc:creator>
     <cc:Agent>
      <dc:title>Matplotlib v3.10.1, https://matplotlib.org/</dc:title>
     </cc:Agent>
    </dc:creator>
   </cc:Work>
  </rdf:RDF>
 </metadata>
 <defs>
  <style type="text/css">*{stroke-linejoin: round; stroke-linecap: butt}</style>
 </defs>
 <g id="figure_1">
  <g id="patch_1">
   <path d="M 0 360 
L 432 360 
L 432 0 
L 0 0 
z
" style="fill: #ffffff"/>
  </g>
  <g id="axes_1">
   <g id="patch_2">
    <path d="M 47.961178 153.232572 
L 428.99976 153.232572 
L 428.99976 18.118365 
L 47.961178 18.118365 
z
" style="fill: #ffffff"/>
   </g>
   <g id="matplotlib.axis_1">
    <g id="xtick_1">
     <g id="line2d_1">
      <path d="M 65.24647 153.232572 
L 65.24647 18.118365 
" clip-path="url(#p8b183580b7)" style="fill: none; stroke: #b0b0b0; stroke-width: 0.8; stroke-linecap: square"/>
     </g>
     <g id="line2d_2">
      <defs>
       <path id="m9fab324036" d="M 0 0 
L 0 3.5 
" style="stroke: #000000; stroke-width: 0.8"/>
      </defs>
      <g>
       <use xlink:href="#m9fab324036" x="65.24647" y="153.232572" style="stroke: #000000; stroke-width: 0.8"/>
      </g>
     </g>
    </g>
    <g id="xtick_2">
     <g id="line2d_3">
      <path d="M 134.533141 153.232572 
L 134.533141 18.118365 
" clip-path="url(#p8b183580b7)" style="fill: none; stroke: #b0b0b0; stroke-width: 0.8; stroke-linecap: square"/>
     </g>
     <g id="line2d_4">
      <g>
       <use xlink:href="#m9fab324036" x="134.533141" y="153.232572" style="stroke: #000000; stroke-width: 0.8"/>
      </g>
     </g>
    </g>
    <g id="xtick_3">
     <g id="line2d_5">
      <path d="M 203.819812 153.232572 
L 203.819812 18.118365 
" clip-path="url(#p8b183580b7)" style="fill: none; stroke: #b0b0b0; stroke-width: 0.8; stroke-linecap: square"/>
     </g>
     <g id="line2d_6">
      <g>
       <use xlink:href="#m9fab324036" x="203.819812" y="153.232572" style="stroke: #000000; stroke-width: 0.8"/>
      </g>
     </g>
    </g>
    <g id="xtick_4">
     <g id="line2d_7">
      <path d="M 273.106483 153.232572 
L 273.106483 18.118365 
" clip-path="url(#p8b183580b7)" style="fill: none; stroke: #b0b0b0; stroke-width: 0.8; stroke-linecap: square"/>
     </g>
     <g id="line2d_8">
      <g>
       <use xlink:href="#m9fab324036" x="273.106483" y="153.232572" style="stroke: #000000; stroke-width: 0.8"/>
      </g>
     </g>
    </g>
    <g id="xtick_5">
     <g id="line2d_9">
      <path d="M 342.393153 153.232572 
L 342.393153 18.118365 
" clip-path="url(#p8b183580b7)" style="fill: none; stroke: #b0b0b0; stroke-width: 0.8; stroke-linecap: square"/>
     </g>
     <g id="line2d_10">
      <g>
       <use xlink:href="#m9fab324036" x="342.393153" y="153.232572" style="stroke: #000000; stroke-width: 0.8"/>
      </g>
     </g>
    </g>
    <g id="xtick_6">
     <g id="line2d_11">
      <path d="M 411.679824 153.232572 
L 411.679824 18.118365 
" clip-path="url(#p8b183580b7)" style="fill: none; stroke: #b0b0b0; stroke-width: 0.8; stroke-linecap: square"/>
     </g>
     <g id="line2d_12">
      <g>
       <use xlink:href="#m9fab324036" x="411.679824" y="153.232572" style="stroke: #000000; stroke-width: 0.8"/>
      </g>
     </g>
    </g>
    <g id="text_1">
     <!-- timestep -->
     <g transform="translate(216.36875 168.33101) scale(0.1 -0.1)">
      <defs>
       <path id="DejaVuSans-74" d="M 1172 4494 
L 1172 3500 
L 2356 3500 
L 2356 3053 
L 1172 3053 
L 1172 1153 
Q 1172 725 1289 603 
Q 1406 481 1766 481 
L 2356 481 
L 2356 0 
L 1766 0 
Q 1100 0 847 248 
Q 594 497 594 1153 
L 594 3053 
L 172 3053 
L 172 3500 
L 594 3500 
L 594 4494 
L 1172 4494 
z
" transform="scale(0.015625)"/>
       <path id="DejaVuSans-69" d="M 603 3500 
L 1178 3500 
L 1178 0 
L 603 0 
L 603 3500 
z
M 603 4863 
L 1178 4863 
L 1178 4134 
L 603 4134 
L 603 4863 
z
" transform="scale(0.015625)"/>
       <path id="DejaVuSans-6d" d="M 3328 2828 
Q 3544 3216 3844 3400 
Q 4144 3584 4550 3584 
Q 5097 3584 5394 3201 
Q 5691 2819 5691 2113 
L 5691 0 
L 5113 0 
L 5113 2094 
Q 5113 2597 4934 2840 
Q 4756 3084 4391 3084 
Q 3944 3084 3684 2787 
Q 3425 2491 3425 1978 
L 3425 0 
L 2847 0 
L 2847 2094 
Q 2847 2600 2669 2842 
Q 2491 3084 2119 3084 
Q 1678 3084 1418 2786 
Q 1159 2488 1159 1978 
L 1159 0 
L 581 0 
L 581 3500 
L 1159 3500 
L 1159 2956 
Q 1356 3278 1631 3431 
Q 1906 3584 2284 3584 
Q 2666 3584 2933 3390 
Q 3200 3197 3328 2828 
z
" transform="scale(0.015625)"/>
       <path id="DejaVuSans-65" d="M 3597 1894 
L 3597 1613 
L 953 1613 
Q 991 1019 1311 708 
Q 1631 397 2203 397 
Q 2534 397 2845 478 
Q 3156 559 3463 722 
L 3463 178 
Q 3153 47 2828 -22 
Q 2503 -91 2169 -91 
Q 1331 -91 842 396 
Q 353 884 353 1716 
Q 353 2575 817 3079 
Q 1281 3584 2069 3584 
Q 2775 3584 3186 3129 
Q 3597 2675 3597 1894 
z
M 3022 2063 
Q 3016 2534 2758 2815 
Q 2500 3097 2075 3097 
Q 1594 3097 1305 2825 
Q 1016 2553 972 2059 
L 3022 2063 
z
" transform="scale(0.015625)"/>
       <path id="DejaVuSans-73" d="M 2834 3397 
L 2834 2853 
Q 2591 2978 2328 3040 
Q 2066 3103 1784 3103 
Q 1356 3103 1142 2972 
Q 928 2841 928 2578 
Q 928 2378 1081 2264 
Q 1234 2150 1697 2047 
L 1894 2003 
Q 2506 1872 2764 1633 
Q 3022 1394 3022 966 
Q 3022 478 2636 193 
Q 2250 -91 1575 -91 
Q 1294 -91 989 -36 
Q 684 19 347 128 
L 347 722 
Q 666 556 975 473 
Q 1284 391 1588 391 
Q 1994 391 2212 530 
Q 2431 669 2431 922 
Q 2431 1156 2273 1281 
Q 2116 1406 1581 1522 
L 1381 1569 
Q 847 1681 609 1914 
Q 372 2147 372 2553 
Q 372 3047 722 3315 
Q 1072 3584 1716 3584 
Q 2034 3584 2315 3537 
Q 2597 3491 2834 3397 
z
" transform="scale(0.015625)"/>
       <path id="DejaVuSans-70" d="M 1159 525 
L 1159 -1331 
L 581 -1331 
L 581 3500 
L 1159 3500 
L 1159 2969 
Q 1341 3281 1617 3432 
Q 1894 3584 2278 3584 
Q 2916 3584 3314 3078 
Q 3713 2572 3713 1747 
Q 3713 922 3314 415 
Q 2916 -91 2278 -91 
Q 1894 -91 1617 61 
Q 1341 213 1159 525 
z
M 3116 1747 
Q 3116 2381 2855 2742 
Q 2594 3103 2138 3103 
Q 1681 3103 1420 2742 
Q 1159 2381 1159 1747 
Q 1159 1113 1420 752 
Q 1681 391 2138 391 
Q 2594 391 2855 752 
Q 3116 1113 3116 1747 
z
" transform="scale(0.015625)"/>
      </defs>
      <use xlink:href="#DejaVuSans-74"/>
      <use xlink:href="#DejaVuSans-69" transform="translate(39.208984 0)"/>
      <use xlink:href="#DejaVuSans-6d" transform="translate(66.992188 0)"/>
      <use xlink:href="#DejaVuSans-65" transform="translate(164.404297 0)"/>
      <use xlink:href="#DejaVuSans-73" transform="translate(225.927734 0)"/>
      <use xlink:href="#DejaVuSans-74" transform="translate(278.027344 0)"/>
      <use xlink:href="#DejaVuSans-65" transform="translate(317.236328 0)"/>
      <use xlink:href="#DejaVuSans-70" transform="translate(378.759766 0)"/>
     </g>
    </g>
   </g>
   <g id="matplotlib.axis_2">
    <g id="ytick_1">
     <g id="line2d_13">
      <path d="M 47.961178 146.624196 
L 428.99976 146.624196 
" clip-path="url(#p8b183580b7)" style="fill: none; stroke: #b0b0b0; stroke-width: 0.8; stroke-linecap: square"/>
     </g>
     <g id="line2d_14">
      <defs>
       <path id="m45c3065bc7" d="M 0 0 
L -3.5 0 
" style="stroke: #000000; stroke-width: 0.8"/>
      </defs>
      <g>
       <use xlink:href="#m45c3065bc7" x="47.961178" y="146.624196" style="stroke: #000000; stroke-width: 0.8"/>
      </g>
     </g>
     <g id="text_2">
      <!-- −0.2 -->
      <g transform="translate(16.678365 150.423415) scale(0.1 -0.1)">
       <defs>
        <path id="DejaVuSans-2212" d="M 678 2272 
L 4684 2272 
L 4684 1741 
L 678 1741 
L 678 2272 
z
" transform="scale(0.015625)"/>
        <path id="DejaVuSans-30" d="M 2034 4250 
Q 1547 4250 1301 3770 
Q 1056 3291 1056 2328 
Q 1056 1369 1301 889 
Q 1547 409 2034 409 
Q 2525 409 2770 889 
Q 3016 1369 3016 2328 
Q 3016 3291 2770 3770 
Q 2525 4250 2034 4250 
z
M 2034 4750 
Q 2819 4750 3233 4129 
Q 3647 3509 3647 2328 
Q 3647 1150 3233 529 
Q 2819 -91 2034 -91 
Q 1250 -91 836 529 
Q 422 1150 422 2328 
Q 422 3509 836 4129 
Q 1250 4750 2034 4750 
z
" transform="scale(0.015625)"/>
        <path id="DejaVuSans-2e" d="M 684 794 
L 1344 794 
L 1344 0 
L 684 0 
L 684 794 
z
" transform="scale(0.015625)"/>
        <path id="DejaVuSans-32" d="M 1228 531 
L 3431 531 
L 3431 0 
L 469 0 
L 469 531 
Q 828 903 1448 1529 
Q 2069 2156 2228 2338 
Q 2531 2678 2651 2914 
Q 2772 3150 2772 3378 
Q 2772 3750 2511 3984 
Q 2250 4219 1831 4219 
Q 1534 4219 1204 4116 
Q 875 4013 500 3803 
L 500 4441 
Q 881 4594 1212 4672 
Q 1544 4750 1819 4750 
Q 2544 4750 2975 4387 
Q 3406 4025 3406 3419 
Q 3406 3131 3298 2873 
Q 3191 2616 2906 2266 
Q 2828 2175 2409 1742 
Q 1991 1309 1228 531 
z
" transform="scale(0.015625)"/>
       </defs>
       <use xlink:href="#DejaVuSans-2212"/>
       <use xlink:href="#DejaVuSans-30" transform="translate(83.789062 0)"/>
       <use xlink:href="#DejaVuSans-2e" transform="translate(147.412109 0)"/>
       <use xlink:href="#DejaVuSans-32" transform="translate(179.199219 0)"/>
      </g>
     </g>
    </g>
    <g id="ytick_2">
     <g id="line2d_15">
      <path d="M 47.961178 120.606604 
L 428.99976 120.606604 
" clip-path="url(#p8b183580b7)" style="fill: none; stroke: #b0b0b0; stroke-width: 0.8; stroke-linecap: square"/>
     </g>
     <g id="line2d_16">
      <g>
       <use xlink:href="#m45c3065bc7" x="47.961178" y="120.606604" style="stroke: #000000; stroke-width: 0.8"/>
      </g>
     </g>
     <g id="text_3">
      <!-- −0.1 -->
      <g transform="translate(16.678365 124.405822) scale(0.1 -0.1)">
       <defs>
        <path id="DejaVuSans-31" d="M 794 531 
L 1825 531 
L 1825 4091 
L 703 3866 
L 703 4441 
L 1819 4666 
L 2450 4666 
L 2450 531 
L 3481 531 
L 3481 0 
L 794 0 
L 794 531 
z
" transform="scale(0.015625)"/>
       </defs>
       <use xlink:href="#DejaVuSans-2212"/>
       <use xlink:href="#DejaVuSans-30" transform="translate(83.789062 0)"/>
       <use xlink:href="#DejaVuSans-2e" transform="translate(147.412109 0)"/>
       <use xlink:href="#DejaVuSans-31" transform="translate(179.199219 0)"/>
      </g>
     </g>
    </g>
    <g id="ytick_3">
     <g id="line2d_17">
      <path d="M 47.961178 94.589011 
L 428.99976 94.589011 
" clip-path="url(#p8b183580b7)" style="fill: none; stroke: #b0b0b0; stroke-width: 0.8; stroke-linecap: square"/>
     </g>
     <g id="line2d_18">
      <g>
       <use xlink:href="#m45c3065bc7" x="47.961178" y="94.589011" style="stroke: #000000; stroke-width: 0.8"/>
      </g>
     </g>
     <g id="text_4">
      <!-- 0.0 -->
      <g transform="translate(25.058053 98.38823) scale(0.1 -0.1)">
       <use xlink:href="#DejaVuSans-30"/>
       <use xlink:href="#DejaVuSans-2e" transform="translate(63.623047 0)"/>
       <use xlink:href="#DejaVuSans-30" transform="translate(95.410156 0)"/>
      </g>
     </g>
    </g>
    <g id="ytick_4">
     <g id="line2d_19">
      <path d="M 47.961178 68.571419 
L 428.99976 68.571419 
" clip-path="url(#p8b183580b7)" style="fill: none; stroke: #b0b0b0; stroke-width: 0.8; stroke-linecap: square"/>
     </g>
     <g id="line2d_20">
      <g>
       <use xlink:href="#m45c3065bc7" x="47.961178" y="68.571419" style="stroke: #000000; stroke-width: 0.8"/>
      </g>
     </g>
     <g id="text_5">
      <!-- 0.1 -->
      <g transform="translate(25.058053 72.370638) scale(0.1 -0.1)">
       <use xlink:href="#DejaVuSans-30"/>
       <use xlink:href="#DejaVuSans-2e" transform="translate(63.623047 0)"/>
       <use xlink:href="#DejaVuSans-31" transform="translate(95.410156 0)"/>
      </g>
     </g>
    </g>
    <g id="ytick_5">
     <g id="line2d_21">
      <path d="M 47.961178 42.553827 
L 428.99976 42.553827 
" clip-path="url(#p8b183580b7)" style="fill: none; stroke: #b0b0b0; stroke-width: 0.8; stroke-linecap: square"/>
     </g>
     <g id="line2d_22">
      <g>
       <use xlink:href="#m45c3065bc7" x="47.961178" y="42.553827" style="stroke: #000000; stroke-width: 0.8"/>
      </g>
     </g>
     <g id="text_6">
      <!-- 0.2 -->
      <g transform="translate(25.058053 46.353046) scale(0.1 -0.1)">
       <use xlink:href="#DejaVuSans-30"/>
       <use xlink:href="#DejaVuSans-2e" transform="translate(63.623047 0)"/>
       <use xlink:href="#DejaVuSans-32" transform="translate(95.410156 0)"/>
      </g>
     </g>
    </g>
    <g id="text_7">
     <!-- v_x -->
     <g transform="translate(10.320553 94.094219) rotate(-90) scale(0.1 -0.1)">
      <defs>
       <path id="DejaVuSans-76" d="M 191 3500 
L 800 3500 
L 1894 563 
L 2988 3500 
L 3597 3500 
L 2284 0 
L 1503 0 
L 191 3500 
z
" transform="scale(0.015625)"/>
       <path id="DejaVuSans-5f" d="M 3263 -1063 
L 3263 -1509 
L -63 -1509 
L -63 -1063 
L 3263 -1063 
z
" transform="scale(0.015625)"/>
       <path id="DejaVuSans-78" d="M 3513 3500 
L 2247 1797 
L 3578 0 
L 2900 0 
L 1881 1375 
L 863 0 
L 184 0 
L 1544 1831 
L 300 3500 
L 978 3500 
L 1906 2253 
L 2834 3500 
L 3513 3500 
z
" transform="scale(0.015625)"/>
      </defs>
      <use xlink:href="#DejaVuSans-76"/>
      <use xlink:href="#DejaVuSans-5f" transform="translate(59.179688 0)"/>
      <use xlink:href="#DejaVuSans-78" transform="translate(109.179688 0)"/>
     </g>
    </g>
   </g>
   <g id="line2d_23">
    <path d="M 65.281113 96.278115 
L 65.696833 95.768241 
L 66.49363 94.428074 
L 66.736133 93.971627 
L 67.290427 92.915311 
L 67.879363 92.578465 
L 68.15651 92.159089 
L 68.918663 90.419214 
L 69.5076 89.45665 
L 70.893333 85.556404 
L 72.036563 80.211006 
L 72.72943 75.877006 
L 73.491584 69.858221 
L 74.219094 64.152972 
L 75.11982 58.797281 
L 75.778044 56.10753 
L 76.089834 55.078335 
L 76.505554 53.167549 
L 77.163777 48.960766 
L 78.168434 42.42625 
L 78.999874 38.385067 
L 79.311664 37.814971 
L 81.251691 34.439155 
L 82.117774 31.923574 
L 82.429564 31.780714 
L 82.983857 31.72735 
L 83.746011 31.567472 
L 83.988514 31.139999 
L 84.196374 30.516691 
L 85.582108 25.532676 
L 86.205688 24.262814 
L 86.448191 24.3434 
L 87.002484 24.473564 
L 87.210344 24.624303 
L 88.249644 25.562861 
L 89.046441 25.352984 
L 89.288945 25.278892 
L 89.566091 25.112826 
L 89.773951 25.21802 
L 90.120385 25.418745 
L 90.605391 25.522788 
L 91.021111 26.193403 
L 91.610048 27.299099 
L 91.852551 27.415066 
L 92.095055 27.539881 
L 92.406845 27.956222 
L 92.614705 28.009594 
L 92.995781 27.666696 
L 93.757935 26.835849 
L 94.416158 26.195108 
L 94.727948 26.19122 
L 94.935808 26.499698 
L 95.282242 27.045926 
L 96.598688 28.503543 
L 97.187625 28.414679 
L 97.915135 28.939056 
L 98.781218 29.155744 
L 99.543372 30.016454 
L 100.617315 30.507798 
L 100.963749 30.263917 
L 101.171609 30.199717 
L 101.448755 30.457217 
L 101.829832 30.83495 
L 102.072335 30.743038 
L 102.280195 30.781397 
L 102.522699 31.132381 
L 103.700572 33.490496 
L 104.393439 35.560439 
L 104.809159 36.165902 
L 105.398096 36.611136 
L 105.605956 36.885538 
L 107.026332 39.06334 
L 107.961702 40.14467 
L 108.897072 41.602269 
L 109.278149 41.794163 
L 109.936372 41.9128 
L 110.352093 42.125275 
L 110.941029 42.775154 
L 111.148889 43.22332 
L 112.777126 48.088822 
L 114.024286 50.712371 
L 114.751796 51.608363 
L 115.410019 52.413772 
L 117.557906 55.558623 
L 117.869696 55.793529 
L 118.42399 55.990397 
L 118.770423 55.93048 
L 119.082213 56.141258 
L 119.46329 56.754195 
L 121.43796 60.845974 
L 122.234757 61.899032 
L 123.51656 63.350673 
L 123.82835 63.575469 
L 124.313357 63.510004 
L 124.694433 63.62006 
L 124.936937 63.902857 
L 125.421943 64.565031 
L 125.90695 65.104722 
L 126.461244 66.306193 
L 127.188754 68.195541 
L 130.06415 73.647093 
L 130.68773 75.291649 
L 131.068807 75.626897 
L 131.588457 75.897503 
L 131.900247 76.435817 
L 133.008834 78.444111 
L 133.563127 79.095195 
L 134.359924 80.656768 
L 134.914217 81.230596 
L 135.399224 81.639204 
L 135.884231 81.951659 
L 136.750314 82.919451 
L 137.096747 83.204454 
L 137.443181 83.424348 
L 138.032118 83.549176 
L 138.655698 83.942367 
L 139.833571 85.294051 
L 140.076074 85.082588 
L 140.457151 84.782198 
L 140.665011 84.880567 
L 141.184661 85.218119 
L 141.496451 85.272228 
L 142.016101 85.129825 
L 142.362534 85.457484 
L 142.916828 86.170094 
L 143.332548 86.678739 
L 143.886841 87.216825 
L 144.856855 88.90465 
L 145.168645 89.263074 
L 145.411148 89.216128 
L 145.722938 89.16713 
L 146.000085 89.257587 
L 146.311875 89.345285 
L 146.658308 89.427606 
L 147.039385 89.767914 
L 147.662965 90.437544 
L 148.355832 90.443168 
L 148.736908 90.546773 
L 149.152628 90.949212 
L 149.568348 91.468955 
L 150.607648 92.206305 
L 151.231228 92.128428 
L 152.235885 92.41094 
L 152.686248 92.796825 
L 153.136612 93.137444 
L 153.725549 93.307161 
L 156.219869 92.986101 
L 157.432385 93.165808 
L 157.848105 93.206312 
L 158.159895 93.005063 
L 159.199196 92.163596 
L 160.065279 92.52213 
L 160.758146 92.596177 
L 162.317096 93.566328 
L 162.628886 93.690454 
L 163.287109 93.514599 
L 164.187836 93.006405 
L 164.811416 92.775117 
L 165.227136 93.030649 
L 165.885359 93.42014 
L 166.301079 93.315294 
L 166.716799 92.995279 
L 166.959303 92.897408 
L 167.305736 93.006714 
L 168.102533 93.595985 
L 169.072546 93.667551 
L 169.661483 94.005061 
L 170.66614 94.901801 
L 170.943286 94.944175 
L 171.462936 94.853187 
L 172.22509 94.99393 
L 173.05653 94.903957 
L 174.961913 95.988484 
L 175.308347 96.194072 
L 176.416933 97.061367 
L 176.832653 97.013612 
L 177.144443 97.098348 
L 178.1491 97.600434 
L 178.391603 97.405428 
L 179.015183 96.849135 
L 180.53949 96.281091 
L 181.336287 96.551932 
L 181.648077 96.590383 
L 182.72202 96.629775 
L 184.3849 97.764032 
L 186.013137 98.903872 
L 188.230311 99.378893 
L 189.338897 100.911916 
L 189.962477 101.722659 
L 190.551414 102.016779 
L 192.803231 102.751683 
L 193.426811 102.740041 
L 194.050391 103.036896 
L 195.540054 104.062314 
L 196.821858 104.014032 
L 197.306865 103.829034 
L 198.900458 103.316882 
L 199.870471 103.265197 
L 200.494051 103.373581 
L 201.567995 103.605816 
L 203.577308 105.386927 
L 204.859112 106.695238 
L 206.244845 107.603174 
L 206.972355 107.868119 
L 207.873082 108.339396 
L 208.773809 108.456634 
L 210.505975 108.616621 
L 211.649205 108.286119 
L 214.351386 107.100286 
L 216.048909 107.506061 
L 216.845706 108.088278 
L 218.855019 110.218647 
L 219.478599 110.718825 
L 221.245409 111.455194 
L 221.765059 111.507628 
L 222.804359 111.420207 
L 224.294023 110.934093 
L 225.749043 111.072036 
L 226.822986 110.644848 
L 228.62444 110.446574 
L 229.213377 110.606627 
L 230.252677 111.138796 
L 230.772327 111.60162 
L 231.465193 112.472526 
L 232.331277 113.488634 
L 233.19736 114.236167 
L 235.206674 114.880665 
L 237.35456 114.985338 
L 238.255287 115.093965 
L 239.398517 115.048173 
L 240.126027 114.848734 
L 241.442474 114.444248 
L 242.966781 113.833624 
L 244.040724 113.633402 
L 244.802877 113.881598 
L 245.253241 114.27289 
L 245.911464 115.144821 
L 249.133294 119.897424 
L 249.826161 120.68181 
L 250.449741 121.032423 
L 250.865461 121.037645 
L 251.385111 120.778275 
L 252.008691 120.200789 
L 252.632271 119.280607 
L 253.429068 118.192419 
L 253.983361 117.814688 
L 254.676228 117.658393 
L 255.576955 117.619937 
L 256.443038 117.868775 
L 257.482338 118.262737 
L 258.798785 118.562086 
L 260.011302 119.242795 
L 260.600238 119.839928 
L 261.916685 121.670896 
L 262.886699 122.825013 
L 263.440992 123.11771 
L 264.029929 123.225601 
L 266.316389 123.11434 
L 266.836039 122.993532 
L 268.152486 122.918159 
L 270.508232 122.110365 
L 271.512889 121.651808 
L 272.205756 121.476141 
L 273.799349 121.556913 
L 274.526859 121.871531 
L 275.081153 122.388476 
L 277.436899 125.052319 
L 279.20371 126.232831 
L 279.792646 126.40397 
L 280.416226 126.426495 
L 281.213023 126.211665 
L 282.356253 125.845007 
L 285.058433 125.925841 
L 287.067747 126.069667 
L 287.760613 125.809242 
L 288.834557 125.413931 
L 289.665997 125.363283 
L 290.84387 125.584441 
L 291.502094 125.972064 
L 292.783897 127.064109 
L 293.44212 127.792696 
L 294.169631 128.531677 
L 294.723924 128.757849 
L 295.312861 128.725754 
L 297.460747 128.649257 
L 298.742551 129.105771 
L 299.816494 129.611279 
L 300.544004 129.657372 
L 300.959724 129.470842 
L 301.375444 129.036091 
L 303.003681 126.946524 
L 303.557974 126.569343 
L 303.904408 126.574785 
L 304.320128 126.853901 
L 306.190868 128.707412 
L 308.442685 131.076304 
L 308.996978 131.198111 
L 309.585915 131.106387 
L 310.867718 130.693535 
L 312.253452 130.229789 
L 312.738458 130.308282 
L 313.327395 130.61228 
L 314.089548 131.191939 
L 315.717785 132.734029 
L 316.341365 132.738927 
L 316.791729 132.52348 
L 317.484595 131.902122 
L 318.766399 130.772515 
L 319.320692 130.510148 
L 319.909629 130.453735 
L 320.394635 130.627243 
L 321.122146 131.183302 
L 322.438592 132.564058 
L 324.413262 134.589264 
L 325.313989 135.153049 
L 325.972212 135.340875 
L 326.422576 135.254881 
L 327.184729 134.791063 
L 327.912239 133.984184 
L 328.778323 133.065267 
L 329.297973 132.791462 
L 329.782979 132.782548 
L 331.341929 133.158359 
L 333.247313 134.488752 
L 333.870893 135.034653 
L 334.321256 135.146051 
L 334.910193 135.027007 
L 336.261283 134.661838 
L 337.023436 134.688772 
L 337.68166 134.940221 
L 338.339883 135.40494 
L 339.65633 136.562414 
L 340.660987 137.328682 
L 341.388497 137.650952 
L 342.56637 137.820657 
L 343.259237 137.641538 
L 343.91746 137.252581 
L 345.47641 136.237466 
L 346.09999 136.17008 
L 346.792857 136.261343 
L 347.8668 136.605579 
L 350.187904 137.530312 
L 351.261847 137.470782 
L 352.301147 137.293427 
L 352.751511 137.468319 
L 353.479021 138.074755 
L 354.067958 138.409252 
L 355.072614 138.956449 
L 355.626908 139.144856 
L 356.908711 139.241296 
L 357.532291 139.179101 
L 358.502304 139.027514 
L 358.952668 139.271372 
L 360.234471 140.067614 
L 360.927338 140.200815 
L 361.446988 140.113112 
L 361.966638 139.768185 
L 362.936651 139.019386 
L 363.768091 138.755391 
L 364.460958 138.783566 
L 365.015252 139.010455 
L 365.915978 139.712649 
L 367.024565 140.718544 
L 367.648145 141.169868 
L 368.479585 141.449186 
L 369.172452 141.458614 
L 370.107822 141.571307 
L 371.251052 141.919255 
L 372.221065 142.065552 
L 373.052505 141.891648 
L 374.542169 141.628902 
L 376.239692 142.194308 
L 377.556139 142.766559 
L 378.837942 143.242331 
L 379.461522 143.139375 
L 381.540123 142.503367 
L 383.133716 142.370907 
L 385.835896 143.127787 
L 386.355546 143.333699 
L 389.127013 145.041284 
L 389.81988 145.1575 
L 390.512746 145.04509 
L 391.309543 144.712924 
L 392.21027 144.15542 
L 393.180283 143.545128 
L 394.18494 143.290046 
L 394.739233 143.445194 
L 395.258883 143.828881 
L 395.95175 144.632329 
L 397.19891 146.1478 
L 398.34214 147.02367 
L 398.827147 147.078687 
L 399.520014 146.888659 
L 400.143594 146.442988 
L 400.975034 145.87976 
L 401.737187 145.720981 
L 402.637914 145.752758 
L 403.122921 146.042038 
L 403.711857 146.308515 
L 404.508654 146.383943 
L 405.444024 146.37584 
L 406.310107 145.918445 
L 407.453338 145.38204 
L 408.007631 145.361548 
L 408.492638 145.540382 
L 410.917671 146.792495 
L 411.679824 146.800048 
L 411.679824 146.800048 
" clip-path="url(#p8b183580b7)" style="fill: none; stroke: #0000ff; stroke-width: 2; stroke-linecap: square"/>
   </g>
   <g id="patch_3">
    <path d="M 47.961178 153.232572 
L 47.961178 18.118365 
" style="fill: none; stroke: #000000; stroke-width: 0.8; stroke-linejoin: miter; stroke-linecap: square"/>
   </g>
   <g id="patch_4">
    <path d="M 428.99976 153.232572 
L 428.99976 18.118365 
" style="fill: none; stroke: #000000; stroke-width: 0.8; stroke-linejoin: miter; stroke-linecap: square"/>
   </g>
   <g id="patch_5">
    <path d="M 47.961178 153.232572 
L 428.99976 153.232572 
" style="fill: none; stroke: #000000; stroke-width: 0.8; stroke-linejoin: miter; stroke-linecap: square"/>
   </g>
   <g id="patch_6">
    <path d="M 47.961178 18.118365 
L 428.99976 18.118365 
" style="fill: none; stroke: #000000; stroke-width: 0.8; stroke-linejoin: miter; stroke-linecap: square"/>
   </g>
   <g id="text_8">
    <!-- Mean velocity component v_x over time -->
    <g transform="translate(104.205156 12.118365) scale(0.12 -0.12)">
     <defs>
      <path id="DejaVuSans-Bold-4d" d="M 588 4666 
L 2119 4666 
L 3181 2169 
L 4250 4666 
L 5778 4666 
L 5778 0 
L 4641 0 
L 4641 3413 
L 3566 897 
L 2803 897 
L 1728 3413 
L 1728 0 
L 588 0 
L 588 4666 
z
" transform="scale(0.015625)"/>
      <path id="DejaVuSans-Bold-65" d="M 4031 1759 
L 4031 1441 
L 1416 1441 
Q 1456 1047 1700 850 
Q 1944 653 2381 653 
Q 2734 653 3104 758 
Q 3475 863 3866 1075 
L 3866 213 
Q 3469 63 3072 -14 
Q 2675 -91 2278 -91 
Q 1328 -91 801 392 
Q 275 875 275 1747 
Q 275 2603 792 3093 
Q 1309 3584 2216 3584 
Q 3041 3584 3536 3087 
Q 4031 2591 4031 1759 
z
M 2881 2131 
Q 2881 2450 2695 2645 
Q 2509 2841 2209 2841 
Q 1884 2841 1681 2658 
Q 1478 2475 1428 2131 
L 2881 2131 
z
" transform="scale(0.015625)"/>
      <path id="DejaVuSans-Bold-61" d="M 2106 1575 
Q 1756 1575 1579 1456 
Q 1403 1338 1403 1106 
Q 1403 894 1545 773 
Q 1688 653 1941 653 
Q 2256 653 2472 879 
Q 2688 1106 2688 1447 
L 2688 1575 
L 2106 1575 
z
M 3816 1997 
L 3816 0 
L 2688 0 
L 2688 519 
Q 2463 200 2181 54 
Q 1900 -91 1497 -91 
Q 953 -91 614 226 
Q 275 544 275 1050 
Q 275 1666 698 1953 
Q 1122 2241 2028 2241 
L 2688 2241 
L 2688 2328 
Q 2688 2594 2478 2717 
Q 2269 2841 1825 2841 
Q 1466 2841 1156 2769 
Q 847 2697 581 2553 
L 581 3406 
Q 941 3494 1303 3539 
Q 1666 3584 2028 3584 
Q 2975 3584 3395 3211 
Q 3816 2838 3816 1997 
z
" transform="scale(0.015625)"/>
      <path id="DejaVuSans-Bold-6e" d="M 4056 2131 
L 4056 0 
L 2931 0 
L 2931 347 
L 2931 1631 
Q 2931 2084 2911 2256 
Q 2891 2428 2841 2509 
Q 2775 2619 2662 2680 
Q 2550 2741 2406 2741 
Q 2056 2741 1856 2470 
Q 1656 2200 1656 1722 
L 1656 0 
L 538 0 
L 538 3500 
L 1656 3500 
L 1656 2988 
Q 1909 3294 2193 3439 
Q 2478 3584 2822 3584 
Q 3428 3584 3742 3212 
Q 4056 2841 4056 2131 
z
" transform="scale(0.015625)"/>
      <path id="DejaVuSans-Bold-20" transform="scale(0.015625)"/>
      <path id="DejaVuSans-Bold-76" d="M 97 3500 
L 1216 3500 
L 2088 1081 
L 2956 3500 
L 4078 3500 
L 2700 0 
L 1472 0 
L 97 3500 
z
" transform="scale(0.015625)"/>
      <path id="DejaVuSans-Bold-6c" d="M 538 4863 
L 1656 4863 
L 1656 0 
L 538 0 
L 538 4863 
z
" transform="scale(0.015625)"/>
      <path id="DejaVuSans-Bold-6f" d="M 2203 2784 
Q 1831 2784 1636 2517 
Q 1441 2250 1441 1747 
Q 1441 1244 1636 976 
Q 1831 709 2203 709 
Q 2569 709 2762 976 
Q 2956 1244 2956 1747 
Q 2956 2250 2762 2517 
Q 2569 2784 2203 2784 
z
M 2203 3584 
Q 3106 3584 3614 3096 
Q 4122 2609 4122 1747 
Q 4122 884 3614 396 
Q 3106 -91 2203 -91 
Q 1297 -91 786 396 
Q 275 884 275 1747 
Q 275 2609 786 3096 
Q 1297 3584 2203 3584 
z
" transform="scale(0.015625)"/>
      <path id="DejaVuSans-Bold-63" d="M 3366 3391 
L 3366 2478 
Q 3138 2634 2908 2709 
Q 2678 2784 2431 2784 
Q 1963 2784 1702 2511 
Q 1441 2238 1441 1747 
Q 1441 1256 1702 982 
Q 1963 709 2431 709 
Q 2694 709 2930 787 
Q 3166 866 3366 1019 
L 3366 103 
Q 3103 6 2833 -42 
Q 2563 -91 2291 -91 
Q 1344 -91 809 395 
Q 275 881 275 1747 
Q 275 2613 809 3098 
Q 1344 3584 2291 3584 
Q 2566 3584 2833 3536 
Q 3100 3488 3366 3391 
z
" transform="scale(0.015625)"/>
      <path id="DejaVuSans-Bold-69" d="M 538 3500 
L 1656 3500 
L 1656 0 
L 538 0 
L 538 3500 
z
M 538 4863 
L 1656 4863 
L 1656 3950 
L 538 3950 
L 538 4863 
z
" transform="scale(0.015625)"/>
      <path id="DejaVuSans-Bold-74" d="M 1759 4494 
L 1759 3500 
L 2913 3500 
L 2913 2700 
L 1759 2700 
L 1759 1216 
Q 1759 972 1856 886 
Q 1953 800 2241 800 
L 2816 800 
L 2816 0 
L 1856 0 
Q 1194 0 917 276 
Q 641 553 641 1216 
L 641 2700 
L 84 2700 
L 84 3500 
L 641 3500 
L 641 4494 
L 1759 4494 
z
" transform="scale(0.015625)"/>
      <path id="DejaVuSans-Bold-79" d="M 78 3500 
L 1197 3500 
L 2138 1125 
L 2938 3500 
L 4056 3500 
L 2584 -331 
Q 2363 -916 2067 -1148 
Q 1772 -1381 1288 -1381 
L 641 -1381 
L 641 -647 
L 991 -647 
Q 1275 -647 1404 -556 
Q 1534 -466 1606 -231 
L 1638 -134 
L 78 3500 
z
" transform="scale(0.015625)"/>
      <path id="DejaVuSans-Bold-6d" d="M 3781 2919 
Q 3994 3244 4286 3414 
Q 4578 3584 4928 3584 
Q 5531 3584 5847 3212 
Q 6163 2841 6163 2131 
L 6163 0 
L 5038 0 
L 5038 1825 
Q 5041 1866 5042 1909 
Q 5044 1953 5044 2034 
Q 5044 2406 4934 2573 
Q 4825 2741 4581 2741 
Q 4263 2741 4089 2478 
Q 3916 2216 3909 1719 
L 3909 0 
L 2784 0 
L 2784 1825 
Q 2784 2406 2684 2573 
Q 2584 2741 2328 2741 
Q 2006 2741 1831 2477 
Q 1656 2213 1656 1722 
L 1656 0 
L 531 0 
L 531 3500 
L 1656 3500 
L 1656 2988 
Q 1863 3284 2130 3434 
Q 2397 3584 2719 3584 
Q 3081 3584 3359 3409 
Q 3638 3234 3781 2919 
z
" transform="scale(0.015625)"/>
      <path id="DejaVuSans-Bold-70" d="M 1656 506 
L 1656 -1331 
L 538 -1331 
L 538 3500 
L 1656 3500 
L 1656 2988 
Q 1888 3294 2169 3439 
Q 2450 3584 2816 3584 
Q 3463 3584 3878 3070 
Q 4294 2556 4294 1747 
Q 4294 938 3878 423 
Q 3463 -91 2816 -91 
Q 2450 -91 2169 54 
Q 1888 200 1656 506 
z
M 2400 2772 
Q 2041 2772 1848 2508 
Q 1656 2244 1656 1747 
Q 1656 1250 1848 986 
Q 2041 722 2400 722 
Q 2759 722 2948 984 
Q 3138 1247 3138 1747 
Q 3138 2247 2948 2509 
Q 2759 2772 2400 2772 
z
" transform="scale(0.015625)"/>
      <path id="DejaVuSans-Bold-5f" d="M 3200 -916 
L 3200 -1509 
L 0 -1509 
L 0 -916 
L 3200 -916 
z
" transform="scale(0.015625)"/>
      <path id="DejaVuSans-Bold-78" d="M 1422 1791 
L 159 3500 
L 1344 3500 
L 2059 2463 
L 2784 3500 
L 3969 3500 
L 2706 1797 
L 4031 0 
L 2847 0 
L 2059 1106 
L 1281 0 
L 97 0 
L 1422 1791 
z
" transform="scale(0.015625)"/>
      <path id="DejaVuSans-Bold-72" d="M 3138 2547 
Q 2991 2616 2845 2648 
Q 2700 2681 2553 2681 
Q 2122 2681 1889 2404 
Q 1656 2128 1656 1613 
L 1656 0 
L 538 0 
L 538 3500 
L 1656 3500 
L 1656 2925 
Q 1872 3269 2151 3426 
Q 2431 3584 2822 3584 
Q 2878 3584 2943 3579 
Q 3009 3575 3134 3559 
L 3138 2547 
z
" transform="scale(0.015625)"/>
     </defs>
     <use xlink:href="#DejaVuSans-Bold-4d"/>
     <use xlink:href="#DejaVuSans-Bold-65" transform="translate(99.511719 0)"/>
     <use xlink:href="#DejaVuSans-Bold-61" transform="translate(167.333984 0)"/>
     <use xlink:href="#DejaVuSans-Bold-6e" transform="translate(234.814453 0)"/>
     <use xlink:href="#DejaVuSans-Bold-20" transform="translate(306.005859 0)"/>
     <use xlink:href="#DejaVuSans-Bold-76" transform="translate(340.820312 0)"/>
     <use xlink:href="#DejaVuSans-Bold-65" transform="translate(406.005859 0)"/>
     <use xlink:href="#DejaVuSans-Bold-6c" transform="translate(473.828125 0)"/>
     <use xlink:href="#DejaVuSans-Bold-6f" transform="translate(508.105469 0)"/>
     <use xlink:href="#DejaVuSans-Bold-63" transform="translate(576.806641 0)"/>
     <use xlink:href="#DejaVuSans-Bold-69" transform="translate(636.083984 0)"/>
     <use xlink:href="#DejaVuSans-Bold-74" transform="translate(670.361328 0)"/>
     <use xlink:href="#DejaVuSans-Bold-79" transform="translate(718.164062 0)"/>
     <use xlink:href="#DejaVuSans-Bold-20" transform="translate(783.349609 0)"/>
     <use xlink:href="#DejaVuSans-Bold-63" transform="translate(818.164062 0)"/>
     <use xlink:href="#DejaVuSans-Bold-6f" transform="translate(877.441406 0)"/>
     <use xlink:href="#DejaVuSans-Bold-6d" transform="translate(946.142578 0)"/>
     <use xlink:href="#DejaVuSans-Bold-70" transform="translate(1050.341797 0)"/>
     <use xlink:href="#DejaVuSans-Bold-6f" transform="translate(1121.923828 0)"/>
     <use xlink:href="#DejaVuSans-Bold-6e" transform="translate(1190.625 0)"/>
     <use xlink:href="#DejaVuSans-Bold-65" transform="translate(1261.816406 0)"/>
     <use xlink:href="#DejaVuSans-Bold-6e" transform="translate(1329.638672 0)"/>
     <use xlink:href="#DejaVuSans-Bold-74" transform="translate(1400.830078 0)"/>
     <use xlink:href="#DejaVuSans-Bold-20" transform="translate(1448.632812 0)"/>
     <use xlink:href="#DejaVuSans-Bold-76" transform="translate(1483.447266 0)"/>
     <use xlink:href="#DejaVuSans-Bold-5f" transform="translate(1548.632812 0)"/>
     <use xlink:href="#DejaVuSans-Bold-78" transform="translate(1598.632812 0)"/>
     <use xlink:href="#DejaVuSans-Bold-20" transform="translate(1663.134766 0)"/>
     <use xlink:href="#DejaVuSans-Bold-6f" transform="translate(1697.949219 0)"/>
     <use xlink:href="#DejaVuSans-Bold-76" transform="translate(1766.650391 0)"/>
     <use xlink:href="#DejaVuSans-Bold-65" transform="translate(1831.835938 0)"/>
     <use xlink:href="#DejaVuSans-Bold-72" transform="translate(1899.658203 0)"/>
     <use xlink:href="#DejaVuSans-Bold-20" transform="translate(1948.974609 0)"/>
     <use xlink:href="#DejaVuSans-Bold-74" transform="translate(1983.789062 0)"/>
     <use xlink:href="#DejaVuSans-Bold-69" transform="translate(2031.591797 0)"/>
     <use xlink:href="#DejaVuSans-Bold-6d" transform="translate(2065.869141 0)"/>
     <use xlink:href="#DejaVuSans-Bold-65" transform="translate(2170.068359 0)"/>
    </g>
   </g>
  </g>
  <g id="axes_2">
   <g id="patch_7">
    <path d="M 47.961178 326.64351 
L 428.99976 326.64351 
L 428.99976 191.529302 
L 47.961178 191.529302 
z
" style="fill: #ffffff"/>
   </g>
   <g id="matplotlib.axis_3">
    <g id="xtick_7">
     <g id="line2d_24">
      <path d="M 65.24647 326.64351 
L 65.24647 191.529302 
" clip-path="url(#pa6bb027cb3)" style="fill: none; stroke: #b0b0b0; stroke-width: 0.8; stroke-linecap: square"/>
     </g>
     <g id="line2d_25">
      <g>
       <use xlink:href="#m9fab324036" x="65.24647" y="326.64351" style="stroke: #000000; stroke-width: 0.8"/>
      </g>
     </g>
     <g id="text_9">
      <!-- 0 -->
      <g transform="translate(62.06522 341.241947) scale(0.1 -0.1)">
       <use xlink:href="#DejaVuSans-30"/>
      </g>
     </g>
    </g>
    <g id="xtick_8">
     <g id="line2d_26">
      <path d="M 134.533141 326.64351 
L 134.533141 191.529302 
" clip-path="url(#pa6bb027cb3)" style="fill: none; stroke: #b0b0b0; stroke-width: 0.8; stroke-linecap: square"/>
     </g>
     <g id="line2d_27">
      <g>
       <use xlink:href="#m9fab324036" x="134.533141" y="326.64351" style="stroke: #000000; stroke-width: 0.8"/>
      </g>
     </g>
     <g id="text_10">
      <!-- 2000 -->
      <g transform="translate(121.808141 341.241947) scale(0.1 -0.1)">
       <use xlink:href="#DejaVuSans-32"/>
       <use xlink:href="#DejaVuSans-30" transform="translate(63.623047 0)"/>
       <use xlink:href="#DejaVuSans-30" transform="translate(127.246094 0)"/>
       <use xlink:href="#DejaVuSans-30" transform="translate(190.869141 0)"/>
      </g>
     </g>
    </g>
    <g id="xtick_9">
     <g id="line2d_28">
      <path d="M 203.819812 326.64351 
L 203.819812 191.529302 
" clip-path="url(#pa6bb027cb3)" style="fill: none; stroke: #b0b0b0; stroke-width: 0.8; stroke-linecap: square"/>
     </g>
     <g id="line2d_29">
      <g>
       <use xlink:href="#m9fab324036" x="203.819812" y="326.64351" style="stroke: #000000; stroke-width: 0.8"/>
      </g>
     </g>
     <g id="text_11">
      <!-- 4000 -->
      <g transform="translate(191.094812 341.241947) scale(0.1 -0.1)">
       <defs>
        <path id="DejaVuSans-34" d="M 2419 4116 
L 825 1625 
L 2419 1625 
L 2419 4116 
z
M 2253 4666 
L 3047 4666 
L 3047 1625 
L 3713 1625 
L 3713 1100 
L 3047 1100 
L 3047 0 
L 2419 0 
L 2419 1100 
L 313 1100 
L 313 1709 
L 2253 4666 
z
" transform="scale(0.015625)"/>
       </defs>
       <use xlink:href="#DejaVuSans-34"/>
       <use xlink:href="#DejaVuSans-30" transform="translate(63.623047 0)"/>
       <use xlink:href="#DejaVuSans-30" transform="translate(127.246094 0)"/>
       <use xlink:href="#DejaVuSans-30" transform="translate(190.869141 0)"/>
      </g>
     </g>
    </g>
    <g id="xtick_10">
     <g id="line2d_30">
      <path d="M 273.106483 326.64351 
L 273.106483 191.529302 
" clip-path="url(#pa6bb027cb3)" style="fill: none; stroke: #b0b0b0; stroke-width: 0.8; stroke-linecap: square"/>
     </g>
     <g id="line2d_31">
      <g>
       <use xlink:href="#m9fab324036" x="273.106483" y="326.64351" style="stroke: #000000; stroke-width: 0.8"/>
      </g>
     </g>
     <g id="text_12">
      <!-- 6000 -->
      <g transform="translate(260.381483 341.241947) scale(0.1 -0.1)">
       <defs>
        <path id="DejaVuSans-36" d="M 2113 2584 
Q 1688 2584 1439 2293 
Q 1191 2003 1191 1497 
Q 1191 994 1439 701 
Q 1688 409 2113 409 
Q 2538 409 2786 701 
Q 3034 994 3034 1497 
Q 3034 2003 2786 2293 
Q 2538 2584 2113 2584 
z
M 3366 4563 
L 3366 3988 
Q 3128 4100 2886 4159 
Q 2644 4219 2406 4219 
Q 1781 4219 1451 3797 
Q 1122 3375 1075 2522 
Q 1259 2794 1537 2939 
Q 1816 3084 2150 3084 
Q 2853 3084 3261 2657 
Q 3669 2231 3669 1497 
Q 3669 778 3244 343 
Q 2819 -91 2113 -91 
Q 1303 -91 875 529 
Q 447 1150 447 2328 
Q 447 3434 972 4092 
Q 1497 4750 2381 4750 
Q 2619 4750 2861 4703 
Q 3103 4656 3366 4563 
z
" transform="scale(0.015625)"/>
       </defs>
       <use xlink:href="#DejaVuSans-36"/>
       <use xlink:href="#DejaVuSans-30" transform="translate(63.623047 0)"/>
       <use xlink:href="#DejaVuSans-30" transform="translate(127.246094 0)"/>
       <use xlink:href="#DejaVuSans-30" transform="translate(190.869141 0)"/>
      </g>
     </g>
    </g>
    <g id="xtick_11">
     <g id="line2d_32">
      <path d="M 342.393153 326.64351 
L 342.393153 191.529302 
" clip-path="url(#pa6bb027cb3)" style="fill: none; stroke: #b0b0b0; stroke-width: 0.8; stroke-linecap: square"/>
     </g>
     <g id="line2d_33">
      <g>
       <use xlink:href="#m9fab324036" x="342.393153" y="326.64351" style="stroke: #000000; stroke-width: 0.8"/>
      </g>
     </g>
     <g id="text_13">
      <!-- 8000 -->
      <g transform="translate(329.668153 341.241947) scale(0.1 -0.1)">
       <defs>
        <path id="DejaVuSans-38" d="M 2034 2216 
Q 1584 2216 1326 1975 
Q 1069 1734 1069 1313 
Q 1069 891 1326 650 
Q 1584 409 2034 409 
Q 2484 409 2743 651 
Q 3003 894 3003 1313 
Q 3003 1734 2745 1975 
Q 2488 2216 2034 2216 
z
M 1403 2484 
Q 997 2584 770 2862 
Q 544 3141 544 3541 
Q 544 4100 942 4425 
Q 1341 4750 2034 4750 
Q 2731 4750 3128 4425 
Q 3525 4100 3525 3541 
Q 3525 3141 3298 2862 
Q 3072 2584 2669 2484 
Q 3125 2378 3379 2068 
Q 3634 1759 3634 1313 
Q 3634 634 3220 271 
Q 2806 -91 2034 -91 
Q 1263 -91 848 271 
Q 434 634 434 1313 
Q 434 1759 690 2068 
Q 947 2378 1403 2484 
z
M 1172 3481 
Q 1172 3119 1398 2916 
Q 1625 2713 2034 2713 
Q 2441 2713 2670 2916 
Q 2900 3119 2900 3481 
Q 2900 3844 2670 4047 
Q 2441 4250 2034 4250 
Q 1625 4250 1398 4047 
Q 1172 3844 1172 3481 
z
" transform="scale(0.015625)"/>
       </defs>
       <use xlink:href="#DejaVuSans-38"/>
       <use xlink:href="#DejaVuSans-30" transform="translate(63.623047 0)"/>
       <use xlink:href="#DejaVuSans-30" transform="translate(127.246094 0)"/>
       <use xlink:href="#DejaVuSans-30" transform="translate(190.869141 0)"/>
      </g>
     </g>
    </g>
    <g id="xtick_12">
     <g id="line2d_34">
      <path d="M 411.679824 326.64351 
L 411.679824 191.529302 
" clip-path="url(#pa6bb027cb3)" style="fill: none; stroke: #b0b0b0; stroke-width: 0.8; stroke-linecap: square"/>
     </g>
     <g id="line2d_35">
      <g>
       <use xlink:href="#m9fab324036" x="411.679824" y="326.64351" style="stroke: #000000; stroke-width: 0.8"/>
      </g>
     </g>
     <g id="text_14">
      <!-- 10000 -->
      <g transform="translate(395.773574 341.241947) scale(0.1 -0.1)">
       <use xlink:href="#DejaVuSans-31"/>
       <use xlink:href="#DejaVuSans-30" transform="translate(63.623047 0)"/>
       <use xlink:href="#DejaVuSans-30" transform="translate(127.246094 0)"/>
       <use xlink:href="#DejaVuSans-30" transform="translate(190.869141 0)"/>
       <use xlink:href="#DejaVuSans-30" transform="translate(254.492188 0)"/>
      </g>
     </g>
    </g>
    <g id="text_15">
     <!-- timestep -->
     <g transform="translate(216.36875 354.920073) scale(0.1 -0.1)">
      <use xlink:href="#DejaVuSans-74"/>
      <use xlink:href="#DejaVuSans-69" transform="translate(39.208984 0)"/>
      <use xlink:href="#DejaVuSans-6d" transform="translate(66.992188 0)"/>
      <use xlink:href="#DejaVuSans-65" transform="translate(164.404297 0)"/>
      <use xlink:href="#DejaVuSans-73" transform="translate(225.927734 0)"/>
      <use xlink:href="#DejaVuSans-74" transform="translate(278.027344 0)"/>
      <use xlink:href="#DejaVuSans-65" transform="translate(317.236328 0)"/>
      <use xlink:href="#DejaVuSans-70" transform="translate(378.759766 0)"/>
     </g>
    </g>
   </g>
   <g id="matplotlib.axis_4">
    <g id="ytick_6">
     <g id="line2d_36">
      <path d="M 47.961178 326.157976 
L 428.99976 326.157976 
" clip-path="url(#pa6bb027cb3)" style="fill: none; stroke: #b0b0b0; stroke-width: 0.8; stroke-linecap: square"/>
     </g>
     <g id="line2d_37">
      <g>
       <use xlink:href="#m45c3065bc7" x="47.961178" y="326.157976" style="stroke: #000000; stroke-width: 0.8"/>
      </g>
     </g>
     <g id="text_16">
      <!-- −0.1 -->
      <g transform="translate(16.678365 329.957195) scale(0.1 -0.1)">
       <use xlink:href="#DejaVuSans-2212"/>
       <use xlink:href="#DejaVuSans-30" transform="translate(83.789062 0)"/>
       <use xlink:href="#DejaVuSans-2e" transform="translate(147.412109 0)"/>
       <use xlink:href="#DejaVuSans-31" transform="translate(179.199219 0)"/>
      </g>
     </g>
    </g>
    <g id="ytick_7">
     <g id="line2d_38">
      <path d="M 47.961178 291.813758 
L 428.99976 291.813758 
" clip-path="url(#pa6bb027cb3)" style="fill: none; stroke: #b0b0b0; stroke-width: 0.8; stroke-linecap: square"/>
     </g>
     <g id="line2d_39">
      <g>
       <use xlink:href="#m45c3065bc7" x="47.961178" y="291.813758" style="stroke: #000000; stroke-width: 0.8"/>
      </g>
     </g>
     <g id="text_17">
      <!-- 0.0 -->
      <g transform="translate(25.058053 295.612976) scale(0.1 -0.1)">
       <use xlink:href="#DejaVuSans-30"/>
       <use xlink:href="#DejaVuSans-2e" transform="translate(63.623047 0)"/>
       <use xlink:href="#DejaVuSans-30" transform="translate(95.410156 0)"/>
      </g>
     </g>
    </g>
    <g id="ytick_8">
     <g id="line2d_40">
      <path d="M 47.961178 257.469539 
L 428.99976 257.469539 
" clip-path="url(#pa6bb027cb3)" style="fill: none; stroke: #b0b0b0; stroke-width: 0.8; stroke-linecap: square"/>
     </g>
     <g id="line2d_41">
      <g>
       <use xlink:href="#m45c3065bc7" x="47.961178" y="257.469539" style="stroke: #000000; stroke-width: 0.8"/>
      </g>
     </g>
     <g id="text_18">
      <!-- 0.1 -->
      <g transform="translate(25.058053 261.268758) scale(0.1 -0.1)">
       <use xlink:href="#DejaVuSans-30"/>
       <use xlink:href="#DejaVuSans-2e" transform="translate(63.623047 0)"/>
       <use xlink:href="#DejaVuSans-31" transform="translate(95.410156 0)"/>
      </g>
     </g>
    </g>
    <g id="ytick_9">
     <g id="line2d_42">
      <path d="M 47.961178 223.125321 
L 428.99976 223.125321 
" clip-path="url(#pa6bb027cb3)" style="fill: none; stroke: #b0b0b0; stroke-width: 0.8; stroke-linecap: square"/>
     </g>
     <g id="line2d_43">
      <g>
       <use xlink:href="#m45c3065bc7" x="47.961178" y="223.125321" style="stroke: #000000; stroke-width: 0.8"/>
      </g>
     </g>
     <g id="text_19">
      <!-- 0.2 -->
      <g transform="translate(25.058053 226.924539) scale(0.1 -0.1)">
       <use xlink:href="#DejaVuSans-30"/>
       <use xlink:href="#DejaVuSans-2e" transform="translate(63.623047 0)"/>
       <use xlink:href="#DejaVuSans-32" transform="translate(95.410156 0)"/>
      </g>
     </g>
    </g>
    <g id="text_20">
     <!-- v_y -->
     <g transform="translate(10.320553 267.505156) rotate(-90) scale(0.1 -0.1)">
      <defs>
       <path id="DejaVuSans-79" d="M 2059 -325 
Q 1816 -950 1584 -1140 
Q 1353 -1331 966 -1331 
L 506 -1331 
L 506 -850 
L 844 -850 
Q 1081 -850 1212 -737 
Q 1344 -625 1503 -206 
L 1606 56 
L 191 3500 
L 800 3500 
L 1894 763 
L 2988 3500 
L 3597 3500 
L 2059 -325 
z
" transform="scale(0.015625)"/>
      </defs>
      <use xlink:href="#DejaVuSans-76"/>
      <use xlink:href="#DejaVuSans-5f" transform="translate(59.179688 0)"/>
      <use xlink:href="#DejaVuSans-79" transform="translate(109.179688 0)"/>
     </g>
    </g>
   </g>
   <g id="line2d_44">
    <path d="M 65.281113 289.486336 
L 65.627546 288.247654 
L 66.147196 286.707925 
L 66.355056 286.482282 
L 66.562916 286.690935 
L 66.943993 287.004897 
L 67.11721 287.182428 
L 67.394357 287.399734 
L 67.567573 287.108026 
L 67.983293 285.904936 
L 68.295083 285.21767 
L 69.057237 284.582882 
L 69.438313 284.732877 
L 69.61153 284.453966 
L 69.92332 283.237028 
L 71.655487 274.673928 
L 72.31371 269.70887 
L 73.491584 259.228818 
L 73.941947 255.354627 
L 75.11982 244.632208 
L 76.99056 232.409478 
L 78.341651 222.412451 
L 79.311664 217.597704 
L 80.108461 214.79889 
L 80.524181 212.050694 
L 81.182404 207.346398 
L 82.464207 200.971656 
L 82.706711 200.904833 
L 82.949214 200.817619 
L 83.157074 200.436879 
L 83.399578 200.177108 
L 83.676724 200.280465 
L 83.884584 200.649414 
L 84.369591 201.279593 
L 84.542808 201.115053 
L 84.889241 200.58909 
L 85.893898 197.673359 
L 86.759981 198.196429 
L 87.244988 198.880462 
L 87.556778 199.545582 
L 88.700008 201.791867 
L 89.046441 202.280024 
L 89.358231 202.516792 
L 89.566091 202.381426 
L 90.016455 202.113887 
L 90.362888 201.663765 
L 90.847895 200.909295 
L 91.159685 200.732281 
L 91.436831 200.751907 
L 92.095055 201.373014 
L 92.580061 201.841954 
L 93.030425 202.131976 
L 93.342215 201.886625 
L 93.619361 201.349796 
L 94.139012 200.437342 
L 94.381515 200.474392 
L 94.797235 200.635937 
L 95.351528 200.633033 
L 95.594032 200.840729 
L 95.975108 201.374681 
L 96.529402 202.615351 
L 97.118338 203.896574 
L 97.326198 203.781864 
L 97.741918 203.466974 
L 97.949778 203.579393 
L 98.781218 204.34398 
L 98.989078 204.408446 
L 99.266225 204.786 
L 99.785875 205.554356 
L 100.132309 205.488662 
L 100.478742 205.29075 
L 100.721245 204.860115 
L 101.483399 203.299316 
L 101.829832 203.063862 
L 102.314839 202.130158 
L 102.384125 202.18086 
L 102.626629 202.625409 
L 105.051662 209.109409 
L 105.363452 209.496321 
L 105.709886 209.676362 
L 106.298822 210.182324 
L 106.714542 210.729887 
L 107.026332 211.242483 
L 108.100276 214.032416 
L 108.723856 216.287695 
L 109.243506 217.828836 
L 109.486009 217.97522 
L 109.693869 217.829651 
L 109.901729 217.73681 
L 110.074946 217.891234 
L 110.317449 218.454188 
L 110.837099 219.713628 
L 111.218176 220.757474 
L 112.569266 224.731233 
L 113.158203 226.144399 
L 114.058929 228.70313 
L 114.925013 231.226797 
L 115.72181 233.629584 
L 115.998956 234.03976 
L 116.76111 235.449898 
L 117.246116 236.006212 
L 117.48862 236.111012 
L 118.077556 237.093818 
L 119.012926 239.077074 
L 119.497933 239.699605 
L 120.017583 240.581098 
L 120.883666 242.426438 
L 121.64582 243.071666 
L 122.16547 243.823625 
L 122.407973 243.866615 
L 122.719763 243.77717 
L 123.031553 243.870073 
L 124.105497 245.424523 
L 124.417287 246.028576 
L 124.833007 246.779709 
L 125.214083 247.997597 
L 126.045523 251.068628 
L 126.461244 252.118249 
L 127.327327 253.429847 
L 127.98555 255.008032 
L 128.747704 257.398947 
L 129.163424 258.366875 
L 130.06415 259.78395 
L 130.47987 259.718831 
L 130.618444 259.764003 
L 131.6231 260.838529 
L 131.865604 260.969768 
L 132.593114 261.86472 
L 133.216694 262.476831 
L 133.632414 263.067766 
L 134.394567 264.13182 
L 134.637071 264.054225 
L 134.914217 263.647893 
L 135.329937 263.065155 
L 135.503154 263.087323 
L 135.953517 263.178563 
L 136.299951 263.337396 
L 136.819601 263.788121 
L 137.131391 263.923744 
L 138.066761 264.808558 
L 138.932844 266.214402 
L 139.556424 267.72899 
L 140.041431 268.655336 
L 140.457151 269.121437 
L 140.734298 269.245736 
L 141.704311 268.998701 
L 142.016101 269.056456 
L 142.223961 269.127808 
L 142.812898 269.409562 
L 143.609695 269.415178 
L 144.094701 269.453124 
L 144.337205 269.840171 
L 145.064715 271.024933 
L 145.341861 271.199177 
L 145.826868 271.569031 
L 146.554378 271.314695 
L 146.970098 271.627397 
L 148.910125 274.007749 
L 149.221915 274.394654 
L 149.499062 274.397522 
L 149.880138 274.552742 
L 150.122642 274.628402 
L 150.365145 274.412297 
L 150.815508 273.683052 
L 151.300515 273.048137 
L 151.612305 272.841116 
L 152.131955 272.903684 
L 152.443745 272.991481 
L 153.725549 272.931263 
L 154.418415 273.328804 
L 154.799492 273.608102 
L 155.249855 273.672878 
L 155.492359 273.670193 
L 156.254512 274.055333 
L 156.670232 274.084476 
L 157.501672 274.704123 
L 158.367755 275.057581 
L 158.956692 275.085835 
L 159.441699 275.120093 
L 159.753489 275.299876 
L 160.584929 276.10445 
L 161.416369 276.430088 
L 162.178522 276.606687 
L 163.009962 276.935521 
L 163.876046 277.310148 
L 164.534269 277.013758 
L 165.123206 277.17125 
L 165.538926 276.865789 
L 166.543583 275.430842 
L 166.890016 275.414398 
L 167.513596 275.382739 
L 167.894673 275.800905 
L 168.691469 276.799005 
L 170.319706 279.951616 
L 170.631496 280.160571 
L 171.08186 280.475313 
L 171.532223 280.891704 
L 171.774726 280.882814 
L 172.814026 280.274906 
L 173.36832 279.969268 
L 173.88797 279.845441 
L 174.546193 279.576858 
L 175.065843 279.495979 
L 175.377633 279.227645 
L 176.27836 278.17558 
L 177.664093 277.185361 
L 177.94124 277.084594 
L 178.322317 277.005664 
L 178.911253 277.306024 
L 180.01984 278.31027 
L 180.781994 279.013478 
L 181.16307 279.13434 
L 181.855937 279.201319 
L 182.20237 279.597873 
L 183.76132 281.836649 
L 184.211684 281.965628 
L 184.48883 281.882371 
L 185.354914 281.432518 
L 185.874564 281.594358 
L 186.498144 281.955093 
L 187.087081 282.274805 
L 187.572087 282.792458 
L 188.195667 283.481459 
L 189.338897 284.309332 
L 189.789261 284.286003 
L 190.170337 284.131122 
L 191.001777 283.797522 
L 192.283581 283.813983 
L 194.085034 285.003491 
L 194.847188 285.018353 
L 195.262908 284.826695 
L 196.267564 284.172087 
L 196.787215 284.218056 
L 197.306865 284.178929 
L 197.861158 283.923966 
L 198.311521 283.825863 
L 198.623311 283.926205 
L 199.281535 284.438708 
L 199.801185 285.074554 
L 200.632625 286.2243 
L 200.979058 286.380452 
L 203.958385 286.531174 
L 205.032328 285.715272 
L 205.933055 284.976101 
L 206.487348 284.9474 
L 208.635235 285.46348 
L 209.258815 285.277806 
L 211.441345 284.507793 
L 212.376715 284.367737 
L 214.004952 285.023529 
L 214.593889 285.527313 
L 215.529259 286.125126 
L 216.048909 286.336613 
L 216.984279 286.672204 
L 217.954292 287.217305 
L 218.473943 287.280359 
L 219.132166 286.863414 
L 220.171466 285.934673 
L 222.042206 284.136392 
L 222.561856 284.012865 
L 222.977576 284.247935 
L 224.224736 285.120582 
L 224.813673 285.240249 
L 225.229393 285.167665 
L 226.372623 284.800083 
L 226.926916 284.844726 
L 227.931573 285.435749 
L 228.589796 285.928852 
L 229.45588 286.284711 
L 231.395907 287.444689 
L 232.400563 287.808801 
L 232.850927 287.626353 
L 234.23666 286.557344 
L 235.726324 285.204326 
L 237.735637 284.871433 
L 238.359217 284.951812 
L 239.675664 284.970256 
L 241.581047 285.301428 
L 242.239271 285.097632 
L 242.966781 284.968098 
L 243.590361 285.116217 
L 244.213941 285.569187 
L 245.738248 287.046743 
L 246.881478 288.408368 
L 247.712918 288.79516 
L 248.509714 288.874523 
L 249.064008 288.683613 
L 249.514371 288.231892 
L 250.969391 286.584399 
L 252.320481 285.565515 
L 252.874775 285.442169 
L 253.706215 285.505265 
L 254.191221 285.846813 
L 255.369095 286.806089 
L 256.339108 287.397244 
L 257.205192 288.066636 
L 258.175205 288.412358 
L 258.729498 288.687755 
L 261.050602 290.24201 
L 261.951329 290.988118 
L 262.574909 291.144635 
L 263.302419 291.156748 
L 263.718139 290.922908 
L 264.445649 290.103323 
L 265.173159 289.382213 
L 266.108529 288.951499 
L 267.147829 288.63737 
L 267.667479 288.699997 
L 268.429632 288.855161 
L 269.295716 288.950752 
L 269.746079 288.936271 
L 270.265729 288.572043 
L 271.097169 287.989814 
L 271.547532 287.954653 
L 272.413616 288.145187 
L 272.863979 288.523873 
L 273.383629 289.297442 
L 275.254369 292.23377 
L 275.843306 292.751213 
L 277.194396 293.35508 
L 278.302983 293.280896 
L 278.753346 293.071986 
L 280.000506 292.359665 
L 281.559456 291.56599 
L 282.598756 291.052464 
L 283.395553 290.845378 
L 284.08842 290.909535 
L 285.64737 291.288611 
L 286.201663 291.415247 
L 286.652027 291.331312 
L 287.448823 291.159652 
L 288.003117 291.185644 
L 288.418837 291.387518 
L 288.938487 291.953281 
L 290.289577 293.760499 
L 290.774584 294.400923 
L 292.160317 296.354667 
L 292.991757 297.02397 
L 293.372834 297.1166 
L 293.788554 296.971925 
L 295.243574 296.112399 
L 295.797867 296.02659 
L 296.663951 295.537929 
L 297.322174 294.964865 
L 298.673264 293.198196 
L 300.128284 290.989797 
L 300.613291 290.753302 
L 300.959724 290.78221 
L 301.375444 291.102061 
L 301.825808 291.782622 
L 302.518674 293.25722 
L 304.077624 296.830477 
L 304.839778 297.903587 
L 306.190868 299.354342 
L 306.883735 299.636218 
L 307.334098 299.67479 
L 307.784461 299.461707 
L 308.304111 298.907324 
L 309.066265 297.872252 
L 309.620558 297.253012 
L 310.486642 296.699261 
L 311.595228 296.101656 
L 312.080235 296.27374 
L 312.599885 296.731369 
L 313.535255 297.533773 
L 314.574555 298.17315 
L 314.920988 298.042928 
L 315.475282 297.549885 
L 316.583869 296.536503 
L 317.519239 295.985912 
L 318.246749 295.983846 
L 318.627825 296.187006 
L 319.008902 296.648003 
L 319.493909 297.556394 
L 320.879642 300.472644 
L 321.607152 301.232296 
L 322.057516 301.396731 
L 323.477892 301.508945 
L 324.101472 301.312172 
L 324.794339 300.754022 
L 325.452562 299.874218 
L 326.907583 297.982711 
L 327.531163 297.532594 
L 328.293316 297.39405 
L 328.778323 297.465588 
L 329.194043 297.71196 
L 329.852266 298.451407 
L 330.718349 299.364095 
L 332.831593 301.225369 
L 333.801606 302.151206 
L 334.529116 302.696758 
L 335.048766 302.852332 
L 335.880206 302.831853 
L 337.4738 302.572703 
L 337.88952 302.717184 
L 338.478457 303.189647 
L 339.03275 303.537364 
L 339.483113 303.540627 
L 339.933477 303.295305 
L 341.21528 302.510219 
L 341.700287 302.508035 
L 343.18995 302.632073 
L 343.882817 302.499956 
L 344.506397 302.108439 
L 345.199264 301.721786 
L 345.58034 301.749491 
L 346.342494 302.040846 
L 347.03536 302.607594 
L 348.732884 304.337334 
L 350.984701 306.489068 
L 351.504351 306.747485 
L 352.093287 306.819165 
L 353.028657 306.849804 
L 353.513664 306.77666 
L 354.345104 306.676236 
L 355.280474 306.731919 
L 356.527634 306.516414 
L 357.740151 306.448821 
L 358.398374 305.93799 
L 359.368388 305.319359 
L 359.957325 305.115432 
L 360.615548 305.093915 
L 361.135198 305.328252 
L 362.174498 306.131572 
L 363.317728 307.371032 
L 364.218455 308.249901 
L 365.049895 308.73293 
L 366.920635 309.683121 
L 368.583515 310.011116 
L 369.207095 309.900068 
L 369.796032 309.556064 
L 370.558185 309.074596 
L 371.597485 308.784842 
L 372.636785 308.752666 
L 373.537512 309.240597 
L 374.472882 309.801554 
L 375.754686 310.447963 
L 376.932559 311.366236 
L 377.452209 311.449392 
L 378.041146 311.322877 
L 379.807956 310.829805 
L 380.189032 311.030535 
L 380.847256 311.709203 
L 381.921199 312.833465 
L 382.579423 313.211798 
L 383.099073 313.212734 
L 384.173016 313.153809 
L 385.801253 313.23825 
L 388.98844 312.616474 
L 389.438803 312.876622 
L 390.062383 313.213069 
L 390.685963 313.306201 
L 391.37883 313.205761 
L 391.863837 313.191464 
L 392.41813 313.443068 
L 392.903137 313.912904 
L 393.699933 315.111294 
L 396.021037 318.869107 
L 396.540687 319.270017 
L 396.921764 319.336296 
L 397.372127 319.14021 
L 397.82249 318.715198 
L 398.34214 317.887672 
L 400.247524 314.600577 
L 400.697887 314.293529 
L 401.078964 314.300246 
L 401.494684 314.543818 
L 403.261494 316.100873 
L 404.924374 317.476973 
L 405.617241 317.74042 
L 406.621897 317.938066 
L 407.314764 318.167694 
L 407.799771 318.53872 
L 408.561924 319.497971 
L 409.116218 320.038309 
L 409.774441 320.310133 
L 410.640524 320.495976 
L 411.679824 320.388006 
L 411.679824 320.388006 
" clip-path="url(#pa6bb027cb3)" style="fill: none; stroke: #ff0000; stroke-width: 2; stroke-linecap: square"/>
   </g>
   <g id="patch_8">
    <path d="M 47.961178 326.64351 
L 47.961178 191.529302 
" style="fill: none; stroke: #000000; stroke-width: 0.8; stroke-linejoin: miter; stroke-linecap: square"/>
   </g>
   <g id="patch_9">
    <path d="M 428.99976 326.64351 
L 428.99976 191.529302 
" style="fill: none; stroke: #000000; stroke-width: 0.8; stroke-linejoin: miter; stroke-linecap: square"/>
   </g>
   <g id="patch_10">
    <path d="M 47.961178 326.64351 
L 428.99976 326.64351 
" style="fill: none; stroke: #000000; stroke-width: 0.8; stroke-linejoin: miter; stroke-linecap: square"/>
   </g>
   <g id="patch_11">
    <path d="M 47.961178 191.529302 
L 428.99976 191.529302 
" style="fill: none; stroke: #000000; stroke-width: 0.8; stroke-linejoin: miter; stroke-linecap: square"/>
   </g>
   <g id="text_21">
    <!-- Mean velocity component v_y over time -->
    <g transform="translate(104.163906 185.529302) scale(0.12 -0.12)">
     <use xlink:href="#DejaVuSans-Bold-4d"/>
     <use xlink:href="#DejaVuSans-Bold-65" transform="translate(99.511719 0)"/>
     <use xlink:href="#DejaVuSans-Bold-61" transform="translate(167.333984 0)"/>
     <use xlink:href="#DejaVuSans-Bold-6e" transform="translate(234.814453 0)"/>
     <use xlink:href="#DejaVuSans-Bold-20" transform="translate(306.005859 0)"/>
     <use xlink:href="#DejaVuSans-Bold-76" transform="translate(340.820312 0)"/>
     <use xlink:href="#DejaVuSans-Bold-65" transform="translate(406.005859 0)"/>
     <use xlink:href="#DejaVuSans-Bold-6c" transform="translate(473.828125 0)"/>
     <use xlink:href="#DejaVuSans-Bold-6f" transform="translate(508.105469 0)"/>
     <use xlink:href="#DejaVuSans-Bold-63" transform="translate(576.806641 0)"/>
     <use xlink:href="#DejaVuSans-Bold-69" transform="translate(636.083984 0)"/>
     <use xlink:href="#DejaVuSans-Bold-74" transform="translate(670.361328 0)"/>
     <use xlink:href="#DejaVuSans-Bold-79" transform="translate(718.164062 0)"/>
     <use xlink:href="#DejaVuSans-Bold-20" transform="translate(783.349609 0)"/>
     <use xlink:href="#DejaVuSans-Bold-63" transform="translate(818.164062 0)"/>
     <use xlink:href="#DejaVuSans-Bold-6f" transform="translate(877.441406 0)"/>
     <use xlink:href="#DejaVuSans-Bold-6d" transform="translate(946.142578 0)"/>
     <use xlink:href="#DejaVuSans-Bold-70" transform="translate(1050.341797 0)"/>
     <use xlink:href="#DejaVuSans-Bold-6f" transform="translate(1121.923828 0)"/>
     <use xlink:href="#DejaVuSans-Bold-6e" transform="translate(1190.625 0)"/>
     <use xlink:href="#DejaVuSans-Bold-65" transform="translate(1261.816406 0)"/>
     <use xlink:href="#DejaVuSans-Bold-6e" transform="translate(1329.638672 0)"/>
     <use xlink:href="#DejaVuSans-Bold-74" transform="translate(1400.830078 0)"/>
     <use xlink:href="#DejaVuSans-Bold-20" transform="translate(1448.632812 0)"/>
     <use xlink:href="#DejaVuSans-Bold-76" transform="translate(1483.447266 0)"/>
     <use xlink:href="#DejaVuSans-Bold-5f" transform="translate(1548.632812 0)"/>
     <use xlink:href="#DejaVuSans-Bold-79" transform="translate(1598.632812 0)"/>
     <use xlink:href="#DejaVuSans-Bold-20" transform="translate(1663.818359 0)"/>
     <use xlink:href="#DejaVuSans-Bold-6f" transform="translate(1698.632812 0)"/>
     <use xlink:href="#DejaVuSans-Bold-76" transform="translate(1767.333984 0)"/>
     <use xlink:href="#DejaVuSans-Bold-65" transform="translate(1832.519531 0)"/>
     <use xlink:href="#DejaVuSans-Bold-72" transform="translate(1900.341797 0)"/>
     <use xlink:href="#DejaVuSans-Bold-20" transform="translate(1949.658203 0)"/>
     <use xlink:href="#DejaVuSans-Bold-74" transform="translate(1984.472656 0)"/>
     <use xlink:href="#DejaVuSans-Bold-69" transform="translate(2032.275391 0)"/>
     <use xlink:href="#DejaVuSans-Bold-6d" transform="translate(2066.552734 0)"/>
     <use xlink:href="#DejaVuSans-Bold-65" transform="translate(2170.751953 0)"/>
    </g>
   </g>
  </g>
 </g>
 <defs>
  <clipPath id="p8b183580b7">
   <rect x="47.961178" y="18.118365" width="381.038583" height="135.114207"/>
  </clipPath>
  <clipPath id="pa6bb027cb3">
   <rect x="47.961178" y="191.529302" width="381.038583" height="135.114208"/>
  </clipPath>
 </defs>
</svg>
