<?xml version="1.0" encoding="utf-8" standalone="no"?>
<!DOCTYPE svg PUBLIC "-//W3C//DTD SVG 1.1//EN"
  "http://www.w3.org/Graphics/SVG/1.1/DTD/svg11.dtd">
<svg xmlns:xlink="http://www.w3.org/1999/xlink" width="460.8pt" height="345.6pt" viewBox="0 0 460.8 345.6" xmlns="http://www.w3.org/2000/svg" version="1.1">
 <metadata>
  <rdf:RDF xmlns:dc="http://purl.org/dc/elements/1.1/" xmlns:cc="http://creativecommons.org/ns#" xmlns:rdf="http://www.w3.org/1999/02/22-rdf-syntax-ns#">
   <cc:Work>
    <dc:type rdf:resource="http://purl.org/dc/dcmitype/StillImage"/>
    <dc:date>2025-02-26T17:15:41.228074</dc:date>
    <dc:format>image/svg+xml</dc:format>
    <dc:creator>
     <cc:Agent>
      <dc:title>Matplotlib v3.6.3, https://matplotlib.org/</dc:title>
     </cc:Agent>
    </dc:creator>
   </cc:Work>
  </rdf:RDF>
 </metadata>
 <defs>
  <style type="text/css">*{stroke-linejoin: round; stroke-linecap: butt}</style>
 </defs>
 <g id="figure_1">
  <g id="patch_1">
   <path d="M 0 345.6 
L 460.8 345.6 
L 460.8 0 
L 0 0 
z
" style="fill: #ffffff"/>
  </g>
  <g id="axes_1">
   <g id="patch_2">
    <path d="M 57.6 307.584 
L 414.72 307.584 
L 414.72 41.472 
L 57.6 41.472 
z
" style="fill: #ffffff"/>
   </g>
   <g id="PathCollection_1">
    <defs>
     <path id="m27874c81c3" d="M 0 3 
C 0.795609 3 1.55874 2.683901 2.12132 2.12132 
C 2.683901 1.55874 3 0.795609 3 0 
C 3 -0.795609 2.683901 -1.55874 2.12132 -2.12132 
C 1.55874 -2.683901 0.795609 -3 0 -3 
C -0.795609 -3 -1.55874 -2.683901 -2.12132 -2.12132 
C -2.683901 -1.55874 -3 -0.795609 -3 0 
C -3 0.795609 -2.683901 1.55874 -2.12132 2.12132 
C -1.55874 2.683901 -0.795609 3 0 3 
z
" style="stroke: #0000ff"/>
    </defs>
    <g clip-path="url(#p94b38c51a8)">
     <use xlink:href="#m27874c81c3" x="300.511496" y="144.911278" style="fill: #0000ff; stroke: #0000ff"/>
     <use xlink:href="#m27874c81c3" x="365.959948" y="158.350078" style="fill: #0000ff; stroke: #0000ff"/>
     <use xlink:href="#m27874c81c3" x="140.06629" y="140.821442" style="fill: #0000ff; stroke: #0000ff"/>
     <use xlink:href="#m27874c81c3" x="356.541818" y="196.679332" style="fill: #0000ff; stroke: #0000ff"/>
     <use xlink:href="#m27874c81c3" x="214.298568" y="65.182609" style="fill: #0000ff; stroke: #0000ff"/>
     <use xlink:href="#m27874c81c3" x="132.377663" y="173.003973" style="fill: #0000ff; stroke: #0000ff"/>
     <use xlink:href="#m27874c81c3" x="326.783965" y="99.56746" style="fill: #0000ff; stroke: #0000ff"/>
     <use xlink:href="#m27874c81c3" x="279.788362" y="249.250905" style="fill: #0000ff; stroke: #0000ff"/>
     <use xlink:href="#m27874c81c3" x="232.425196" y="68.328801" style="fill: #0000ff; stroke: #0000ff"/>
     <use xlink:href="#m27874c81c3" x="198.937771" y="248.390504" style="fill: #0000ff; stroke: #0000ff"/>
     <use xlink:href="#m27874c81c3" x="272.853858" y="208.661352" style="fill: #0000ff; stroke: #0000ff"/>
     <use xlink:href="#m27874c81c3" x="249.207824" y="263.773576" style="fill: #0000ff; stroke: #0000ff"/>
     <use xlink:href="#m27874c81c3" x="145.355279" y="164.941056" style="fill: #0000ff; stroke: #0000ff"/>
     <use xlink:href="#m27874c81c3" x="197.974515" y="201.418932" style="fill: #0000ff; stroke: #0000ff"/>
     <use xlink:href="#m27874c81c3" x="190.224415" y="74.171204" style="fill: #0000ff; stroke: #0000ff"/>
     <use xlink:href="#m27874c81c3" x="287.857613" y="143.621136" style="fill: #0000ff; stroke: #0000ff"/>
     <use xlink:href="#m27874c81c3" x="263.225785" y="162.598502" style="fill: #0000ff; stroke: #0000ff"/>
     <use xlink:href="#m27874c81c3" x="167.001009" y="193.183605" style="fill: #0000ff; stroke: #0000ff"/>
     <use xlink:href="#m27874c81c3" x="255.430863" y="180.370243" style="fill: #0000ff; stroke: #0000ff"/>
     <use xlink:href="#m27874c81c3" x="256.900217" y="57.709827" style="fill: #0000ff; stroke: #0000ff"/>
     <use xlink:href="#m27874c81c3" x="311.964203" y="116.331287" style="fill: #0000ff; stroke: #0000ff"/>
     <use xlink:href="#m27874c81c3" x="172.856512" y="265.673023" style="fill: #0000ff; stroke: #0000ff"/>
     <use xlink:href="#m27874c81c3" x="300.808633" y="199.191487" style="fill: #0000ff; stroke: #0000ff"/>
     <use xlink:href="#m27874c81c3" x="128.699384" y="118.587248" style="fill: #0000ff; stroke: #0000ff"/>
     <use xlink:href="#m27874c81c3" x="280.299839" y="67.997794" style="fill: #0000ff; stroke: #0000ff"/>
     <use xlink:href="#m27874c81c3" x="226.804126" y="254.446446" style="fill: #0000ff; stroke: #0000ff"/>
     <use xlink:href="#m27874c81c3" x="251.859135" y="249.813012" style="fill: #0000ff; stroke: #0000ff"/>
     <use xlink:href="#m27874c81c3" x="106.360052" y="148.821068" style="fill: #0000ff; stroke: #0000ff"/>
     <use xlink:href="#m27874c81c3" x="220.102072" y="230.724818" style="fill: #0000ff; stroke: #0000ff"/>
     <use xlink:href="#m27874c81c3" x="296.808115" y="55.209538" style="fill: #0000ff; stroke: #0000ff"/>
     <use xlink:href="#m27874c81c3" x="252.329172" y="67.578013" style="fill: #0000ff; stroke: #0000ff"/>
     <use xlink:href="#m27874c81c3" x="132.661003" y="210.5268" style="fill: #0000ff; stroke: #0000ff"/>
     <use xlink:href="#m27874c81c3" x="243.513395" y="239.76281" style="fill: #0000ff; stroke: #0000ff"/>
     <use xlink:href="#m27874c81c3" x="171.130338" y="158.423986" style="fill: #0000ff; stroke: #0000ff"/>
     <use xlink:href="#m27874c81c3" x="194.792611" y="160.354053" style="fill: #0000ff; stroke: #0000ff"/>
     <use xlink:href="#m27874c81c3" x="144.239076" y="224.043395" style="fill: #0000ff; stroke: #0000ff"/>
     <use xlink:href="#m27874c81c3" x="209.389035" y="87.965351" style="fill: #0000ff; stroke: #0000ff"/>
     <use xlink:href="#m27874c81c3" x="273.517011" y="104.938927" style="fill: #0000ff; stroke: #0000ff"/>
     <use xlink:href="#m27874c81c3" x="212.150353" y="257.585463" style="fill: #0000ff; stroke: #0000ff"/>
     <use xlink:href="#m27874c81c3" x="147.783192" y="100.577964" style="fill: #0000ff; stroke: #0000ff"/>
     <use xlink:href="#m27874c81c3" x="119.460502" y="150.349121" style="fill: #0000ff; stroke: #0000ff"/>
     <use xlink:href="#m27874c81c3" x="331.253508" y="164.063658" style="fill: #0000ff; stroke: #0000ff"/>
     <use xlink:href="#m27874c81c3" x="300.799933" y="178.517532" style="fill: #0000ff; stroke: #0000ff"/>
     <use xlink:href="#m27874c81c3" x="267.417728" y="104.171426" style="fill: #0000ff; stroke: #0000ff"/>
     <use xlink:href="#m27874c81c3" x="241.489915" y="189.123369" style="fill: #0000ff; stroke: #0000ff"/>
     <use xlink:href="#m27874c81c3" x="317.170957" y="257.707487" style="fill: #0000ff; stroke: #0000ff"/>
     <use xlink:href="#m27874c81c3" x="173.119071" y="112.785448" style="fill: #0000ff; stroke: #0000ff"/>
     <use xlink:href="#m27874c81c3" x="325.490204" y="157.377254" style="fill: #0000ff; stroke: #0000ff"/>
     <use xlink:href="#m27874c81c3" x="314.479357" y="210.849364" style="fill: #0000ff; stroke: #0000ff"/>
     <use xlink:href="#m27874c81c3" x="176.515308" y="255.091773" style="fill: #0000ff; stroke: #0000ff"/>
     <use xlink:href="#m27874c81c3" x="251.612217" y="83.428511" style="fill: #0000ff; stroke: #0000ff"/>
     <use xlink:href="#m27874c81c3" x="193.371758" y="280.785567" style="fill: #0000ff; stroke: #0000ff"/>
     <use xlink:href="#m27874c81c3" x="217.970784" y="221.770936" style="fill: #0000ff; stroke: #0000ff"/>
     <use xlink:href="#m27874c81c3" x="186.293023" y="106.802525" style="fill: #0000ff; stroke: #0000ff"/>
     <use xlink:href="#m27874c81c3" x="162.114346" y="249.234044" style="fill: #0000ff; stroke: #0000ff"/>
     <use xlink:href="#m27874c81c3" x="177.14151" y="105.835297" style="fill: #0000ff; stroke: #0000ff"/>
     <use xlink:href="#m27874c81c3" x="195.327123" y="192.622748" style="fill: #0000ff; stroke: #0000ff"/>
     <use xlink:href="#m27874c81c3" x="160.64898" y="154.332944" style="fill: #0000ff; stroke: #0000ff"/>
     <use xlink:href="#m27874c81c3" x="298.848661" y="109.854965" style="fill: #0000ff; stroke: #0000ff"/>
     <use xlink:href="#m27874c81c3" x="236.457161" y="220.512163" style="fill: #0000ff; stroke: #0000ff"/>
     <use xlink:href="#m27874c81c3" x="238.074042" y="227.813148" style="fill: #0000ff; stroke: #0000ff"/>
     <use xlink:href="#m27874c81c3" x="146.442812" y="138.837287" style="fill: #0000ff; stroke: #0000ff"/>
     <use xlink:href="#m27874c81c3" x="299.710269" y="216.158053" style="fill: #0000ff; stroke: #0000ff"/>
     <use xlink:href="#m27874c81c3" x="334.322101" y="185.87996" style="fill: #0000ff; stroke: #0000ff"/>
     <use xlink:href="#m27874c81c3" x="310.656346" y="196.829869" style="fill: #0000ff; stroke: #0000ff"/>
     <use xlink:href="#m27874c81c3" x="234.631929" y="202.869442" style="fill: #0000ff; stroke: #0000ff"/>
     <use xlink:href="#m27874c81c3" x="262.631296" y="102.006247" style="fill: #0000ff; stroke: #0000ff"/>
     <use xlink:href="#m27874c81c3" x="211.844021" y="83.035316" style="fill: #0000ff; stroke: #0000ff"/>
     <use xlink:href="#m27874c81c3" x="316.806798" y="217.781542" style="fill: #0000ff; stroke: #0000ff"/>
     <use xlink:href="#m27874c81c3" x="246.017427" y="84.312055" style="fill: #0000ff; stroke: #0000ff"/>
     <use xlink:href="#m27874c81c3" x="311.206111" y="138.211202" style="fill: #0000ff; stroke: #0000ff"/>
     <use xlink:href="#m27874c81c3" x="181.616203" y="139.023073" style="fill: #0000ff; stroke: #0000ff"/>
     <use xlink:href="#m27874c81c3" x="214.9004" y="107.170097" style="fill: #0000ff; stroke: #0000ff"/>
     <use xlink:href="#m27874c81c3" x="338.261731" y="129.917656" style="fill: #0000ff; stroke: #0000ff"/>
     <use xlink:href="#m27874c81c3" x="159.06042" y="129.791679" style="fill: #0000ff; stroke: #0000ff"/>
     <use xlink:href="#m27874c81c3" x="235.947124" y="103.530443" style="fill: #0000ff; stroke: #0000ff"/>
     <use xlink:href="#m27874c81c3" x="130.960999" y="139.638073" style="fill: #0000ff; stroke: #0000ff"/>
     <use xlink:href="#m27874c81c3" x="184.552291" y="210.878472" style="fill: #0000ff; stroke: #0000ff"/>
     <use xlink:href="#m27874c81c3" x="199.239517" y="94.841942" style="fill: #0000ff; stroke: #0000ff"/>
     <use xlink:href="#m27874c81c3" x="267.502345" y="217.023947" style="fill: #0000ff; stroke: #0000ff"/>
     <use xlink:href="#m27874c81c3" x="269.178553" y="126.53402" style="fill: #0000ff; stroke: #0000ff"/>
     <use xlink:href="#m27874c81c3" x="178.534956" y="238.153427" style="fill: #0000ff; stroke: #0000ff"/>
     <use xlink:href="#m27874c81c3" x="229.903407" y="258.214828" style="fill: #0000ff; stroke: #0000ff"/>
     <use xlink:href="#m27874c81c3" x="267.983457" y="119.188054" style="fill: #0000ff; stroke: #0000ff"/>
     <use xlink:href="#m27874c81c3" x="293.926192" y="234.612094" style="fill: #0000ff; stroke: #0000ff"/>
     <use xlink:href="#m27874c81c3" x="219.084984" y="196.619586" style="fill: #0000ff; stroke: #0000ff"/>
     <use xlink:href="#m27874c81c3" x="239.029997" y="295.488" style="fill: #0000ff; stroke: #0000ff"/>
     <use xlink:href="#m27874c81c3" x="204.575052" y="169.841808" style="fill: #0000ff; stroke: #0000ff"/>
     <use xlink:href="#m27874c81c3" x="253.615103" y="97.495186" style="fill: #0000ff; stroke: #0000ff"/>
     <use xlink:href="#m27874c81c3" x="278.46923" y="228.314612" style="fill: #0000ff; stroke: #0000ff"/>
     <use xlink:href="#m27874c81c3" x="156.9876" y="85.350885" style="fill: #0000ff; stroke: #0000ff"/>
     <use xlink:href="#m27874c81c3" x="337.00853" y="86.265525" style="fill: #0000ff; stroke: #0000ff"/>
     <use xlink:href="#m27874c81c3" x="198.210783" y="186.607193" style="fill: #0000ff; stroke: #0000ff"/>
     <use xlink:href="#m27874c81c3" x="147.523332" y="268.316451" style="fill: #0000ff; stroke: #0000ff"/>
     <use xlink:href="#m27874c81c3" x="292.560967" y="69.889345" style="fill: #0000ff; stroke: #0000ff"/>
     <use xlink:href="#m27874c81c3" x="270.503678" y="223.761735" style="fill: #0000ff; stroke: #0000ff"/>
     <use xlink:href="#m27874c81c3" x="117.487247" y="226.483439" style="fill: #0000ff; stroke: #0000ff"/>
     <use xlink:href="#m27874c81c3" x="210.409498" y="120.598066" style="fill: #0000ff; stroke: #0000ff"/>
     <use xlink:href="#m27874c81c3" x="197.70452" y="184.98397" style="fill: #0000ff; stroke: #0000ff"/>
     <use xlink:href="#m27874c81c3" x="217.398795" y="53.568" style="fill: #0000ff; stroke: #0000ff"/>
    </g>
   </g>
   <g id="Quiver_1">
    <path d="M 299.482451 145.209406 
L 295.681006 132.087994 
L 293.921045 133.713294 
L 294.026901 122.528468 
L 300.095311 131.924528 
L 297.739095 131.491739 
L 301.54054 144.61315 
L 299.482451 145.209406 
" clip-path="url(#p94b38c51a8)" style="fill: #ff0000"/>
    <path d="M 364.993089 158.811594 
L 359.614886 147.544437 
L 358.142684 149.434326 
L 356.428109 138.381192 
L 363.943837 146.665236 
L 361.548604 146.621407 
L 366.926807 157.888563 
L 364.993089 158.811594 
" clip-path="url(#p94b38c51a8)" style="fill: #ff0000"/>
    <path d="M 141.094615 141.12204 
L 138.044206 151.557281 
L 140.401455 151.130151 
L 134.310498 160.511611 
L 134.231503 149.326563 
L 135.987555 150.956085 
L 139.037965 140.520844 
L 141.094615 141.12204 
" clip-path="url(#p94b38c51a8)" style="fill: #ff0000"/>
    <path d="M 355.470488 196.687456 
L 355.403834 187.898124 
L 353.2693 188.985702 
L 356.402043 178.248037 
L 359.697276 188.936955 
L 357.546493 187.881875 
L 357.613147 196.671208 
L 355.470488 196.687456 
" clip-path="url(#p94b38c51a8)" style="fill: #ff0000"/>
    <path d="M 213.967293 64.163753 
L 222.921408 61.252377 
L 221.240001 59.545939 
L 232.422394 59.289759 
L 223.227651 65.659079 
L 223.583958 63.290091 
L 214.629843 66.201466 
L 213.967293 64.163753 
" clip-path="url(#p94b38c51a8)" style="fill: #ff0000"/>
    <path d="M 131.345014 172.718581 
L 134.483733 161.361608 
L 132.133043 161.823472 
L 138.084914 152.353162 
L 138.328936 163.535827 
L 136.549031 161.932393 
L 133.410312 173.289365 
L 131.345014 172.718581 
" clip-path="url(#p94b38c51a8)" style="fill: #ff0000"/>
    <path d="M 327.70458 99.019481 
L 333.114466 108.10819 
L 334.407716 106.091618 
L 337.125661 116.941701 
L 328.884028 109.379491 
L 331.273237 109.204148 
L 325.863351 100.115439 
L 327.70458 99.019481 
" clip-path="url(#p94b38c51a8)" style="fill: #ff0000"/>
    <path d="M 280.331205 250.174557 
L 269.158237 256.741072 
L 271.167576 258.045532 
L 260.302525 260.703012 
L 267.910514 252.50362 
L 268.072549 254.893768 
L 279.245518 248.327253 
L 280.331205 250.174557 
" clip-path="url(#p94b38c51a8)" style="fill: #ff0000"/>
    <path d="M 232.474174 67.258561 
L 240.029905 67.604335 
L 239.05762 65.414877 
L 249.613087 69.115372 
L 238.763755 71.836317 
L 239.93195 69.744814 
L 232.376219 69.399041 
L 232.474174 67.258561 
" clip-path="url(#p94b38c51a8)" style="fill: #ff0000"/>
    <path d="M 198.599601 249.407094 
L 184.80294 244.817618 
L 185.14319 247.188966 
L 175.991807 240.757503 
L 187.172208 241.089431 
L 185.47928 242.78444 
L 199.27594 247.373915 
L 198.599601 249.407094 
" clip-path="url(#p94b38c51a8)" style="fill: #ff0000"/>
    <path d="M 273.911228 208.833927 
L 273.060498 214.046352 
L 275.347812 213.334133 
L 270.449951 223.390101 
L 269.003596 212.298681 
L 270.945759 213.701201 
L 271.796489 208.488777 
L 273.911228 208.833927 
" clip-path="url(#p94b38c51a8)" style="fill: #ff0000"/>
    <path d="M 249.429047 262.725305 
L 260.487189 265.05897 
L 259.881363 262.741205 
L 269.700407 268.098247 
L 258.554026 269.030832 
L 260.044743 267.155513 
L 248.986601 264.821848 
L 249.429047 262.725305 
" clip-path="url(#p94b38c51a8)" style="fill: #ff0000"/>
    <path d="M 144.304237 165.148718 
L 142.962629 158.35841 
L 141.068207 159.824775 
L 142.144716 148.691372 
L 147.374458 158.578805 
L 145.064712 157.943087 
L 146.406321 164.733394 
L 144.304237 165.148718 
" clip-path="url(#p94b38c51a8)" style="fill: #ff0000"/>
    <path d="M 197.399359 202.322817 
L 187.436356 195.983212 
L 187.18993 198.366137 
L 179.876545 189.902927 
L 190.640863 192.942826 
L 188.586667 194.175441 
L 198.54967 200.515047 
L 197.399359 202.322817 
" clip-path="url(#p94b38c51a8)" style="fill: #ff0000"/>
    <path d="M 189.649286 73.267302 
L 198.431797 67.679221 
L 196.377637 66.446546 
L 207.142044 63.406961 
L 199.828412 71.869958 
L 199.582055 69.487025 
L 190.799545 75.075106 
L 189.649286 73.267302 
" clip-path="url(#p94b38c51a8)" style="fill: #ff0000"/>
    <path d="M 288.822303 143.155104 
L 294.481133 154.868899 
L 295.944479 152.972144 
L 297.710739 164.017136 
L 290.156342 155.768341 
L 292.551754 155.800965 
L 286.892924 144.087169 
L 288.822303 143.155104 
" clip-path="url(#p94b38c51a8)" style="fill: #ff0000"/>
    <path d="M 263.796614 161.691879 
L 270.89874 166.163528 
L 271.133775 163.779452 
L 278.487522 172.207616 
L 267.708799 169.219193 
L 269.757081 167.976775 
L 262.654955 163.505126 
L 263.796614 161.691879 
" clip-path="url(#p94b38c51a8)" style="fill: #ff0000"/>
    <path d="M 166.232974 193.930555 
L 157.020642 184.458173 
L 156.231522 186.720108 
L 151.066127 176.798907 
L 160.839733 182.238409 
L 158.556712 182.964273 
L 167.769044 192.436655 
L 166.232974 193.930555 
" clip-path="url(#p94b38c51a8)" style="fill: #ff0000"/>
    <path d="M 256.493046 180.230318 
L 257.412785 187.212112 
L 259.397226 185.870078 
L 257.609932 196.911686 
L 253.024127 186.709631 
L 255.288419 187.491963 
L 254.36868 180.510169 
L 256.493046 180.230318 
" clip-path="url(#p94b38c51a8)" style="fill: #ff0000"/>
    <path d="M 256.980126 56.641451 
L 266.051411 57.319938 
L 265.142854 55.103278 
L 275.586884 59.107497 
L 264.663399 61.513532 
L 265.891593 59.45669 
L 256.820308 58.778202 
L 256.980126 56.641451 
" clip-path="url(#p94b38c51a8)" style="fill: #ff0000"/>
    <path d="M 312.814558 115.67959 
L 319.79971 124.794044 
L 320.848723 122.640296 
L 324.814625 133.098936 
L 315.746593 126.550476 
L 318.099 126.097437 
L 311.113848 116.982984 
L 312.814558 115.67959 
" clip-path="url(#p94b38c51a8)" style="fill: #ff0000"/>
    <path d="M 172.489781 266.679661 
L 163.444533 263.384366 
L 163.71771 265.764374 
L 154.751519 259.077152 
L 165.918095 259.724544 
L 164.177995 261.37109 
L 173.223243 264.666385 
L 172.489781 266.679661 
" clip-path="url(#p94b38c51a8)" style="fill: #ff0000"/>
    <path d="M 301.862462 199.384508 
L 300.269054 208.083942 
L 302.569733 207.416157 
L 297.478031 217.375379 
L 296.246761 206.258027 
L 298.161397 207.697899 
L 299.754805 198.998465 
L 301.862462 199.384508 
" clip-path="url(#p94b38c51a8)" style="fill: #ff0000"/>
    <path d="M 127.730384 118.130245 
L 133.015898 106.92317 
L 130.620896 106.978165 
L 138.097922 98.659173 
L 136.434895 109.72018 
L 134.953898 107.837175 
L 129.668384 119.044251 
L 127.730384 118.130245 
" clip-path="url(#p94b38c51a8)" style="fill: #ff0000"/>
    <path d="M 280.824765 67.063843 
L 290.030619 72.237973 
L 290.146518 69.845144 
L 297.911257 77.896253 
L 286.996965 75.448854 
L 288.980768 74.105876 
L 279.774914 68.931746 
L 280.824765 67.063843 
" clip-path="url(#p94b38c51a8)" style="fill: #ff0000"/>
    <path d="M 226.874339 253.377389 
L 230.127912 253.591073 
L 229.199279 251.382747 
L 239.679211 255.292039 
L 228.778007 257.797088 
L 229.987488 255.729187 
L 226.733914 255.515503 
L 226.874339 253.377389 
" clip-path="url(#p94b38c51a8)" style="fill: #ff0000"/>
    <path d="M 252.217962 250.822495 
L 245.079654 253.359851 
L 246.806791 255.019989 
L 235.635482 255.579811 
L 244.653829 248.963093 
L 244.362 251.340885 
L 251.500308 248.803529 
L 252.217962 250.822495 
" clip-path="url(#p94b38c51a8)" style="fill: #ff0000"/>
    <path d="M 107.423566 148.691646 
L 108.845123 160.373192 
L 110.84273 159.050835 
L 108.946405 170.074241 
L 104.461645 159.827365 
L 106.718095 160.632036 
L 105.296538 148.950489 
L 107.423566 148.691646 
" clip-path="url(#p94b38c51a8)" style="fill: #ff0000"/>
    <path d="M 220.930027 230.044889 
L 224.82646 234.78961 
L 225.802441 232.601797 
L 230.117862 242.921133 
L 220.834712 236.681369 
L 223.17055 236.149467 
L 219.274118 231.404746 
L 220.930027 230.044889 
" clip-path="url(#p94b38c51a8)" style="fill: #ff0000"/>
    <path d="M 297.479781 54.374866 
L 305.912836 61.161 
L 306.421495 58.819991 
L 312.753217 68.040665 
L 302.3915 63.828022 
L 304.569504 62.830344 
L 296.136449 56.04421 
L 297.479781 54.374866 
" clip-path="url(#p94b38c51a8)" style="fill: #ff0000"/>
    <path d="M 252.521965 66.524142 
L 262.883091 68.419589 
L 262.214807 66.119054 
L 272.175132 71.208598 
L 261.058048 72.442277 
L 262.497505 70.52733 
L 252.136378 68.631883 
L 252.521965 66.524142 
" clip-path="url(#p94b38c51a8)" style="fill: #ff0000"/>
    <path d="M 131.623856 210.795382 
L 128.697584 199.495412 
L 126.891871 201.069725 
L 127.317487 189.892499 
L 133.114757 199.458229 
L 130.771879 198.958246 
L 133.698151 210.258217 
L 131.623856 210.795382 
" clip-path="url(#p94b38c51a8)" style="fill: #ff0000"/>
    <path d="M 243.82754 238.738542 
L 247.642094 239.908472 
L 247.246115 237.545791 
L 256.546363 243.760043 
L 245.361247 243.6914 
L 247.013805 241.957009 
L 243.19925 240.787079 
L 243.82754 238.738542 
" clip-path="url(#p94b38c51a8)" style="fill: #ff0000"/>
    <path d="M 170.081463 158.642332 
L 169.020668 153.546574 
L 167.141266 155.032142 
L 168.104423 143.88836 
L 173.434511 153.722062 
L 171.118416 153.109881 
L 172.179212 158.205639 
L 170.081463 158.642332 
" clip-path="url(#p94b38c51a8)" style="fill: #ff0000"/>
    <path d="M 193.732962 160.512025 
L 191.326722 144.371398 
L 189.365395 145.746992 
L 190.964622 134.67658 
L 195.723292 144.799158 
L 193.446021 144.055453 
L 195.852261 160.19608 
L 193.732962 160.512025 
" clip-path="url(#p94b38c51a8)" style="fill: #ff0000"/>
    <path d="M 143.39045 224.697342 
L 136.510741 215.76955 
L 135.467436 217.92607 
L 131.473847 207.47797 
L 140.559191 214.002389 
L 138.207993 214.461657 
L 145.087702 223.389448 
L 143.39045 224.697342 
" clip-path="url(#p94b38c51a8)" style="fill: #ff0000"/>
    <path d="M 209.737928 88.97831 
L 198.751166 92.762486 
L 200.461912 94.439509 
L 189.285644 94.889572 
L 198.368549 88.361757 
L 198.053378 90.736568 
L 209.040141 86.952392 
L 209.737928 88.97831 
" clip-path="url(#p94b38c51a8)" style="fill: #ff0000"/>
    <path d="M 274.122001 104.054732 
L 283.534371 110.494937 
L 283.860157 108.121559 
L 290.887128 116.824042 
L 280.230216 113.426723 
L 282.324391 112.263325 
L 272.912021 105.823121 
L 274.122001 104.054732 
" clip-path="url(#p94b38c51a8)" style="fill: #ff0000"/>
    <path d="M 212.069564 258.653772 
L 200.365766 257.768692 
L 201.272497 259.9861 
L 190.831768 255.97328 
L 201.757232 253.576243 
L 200.527344 255.632073 
L 212.231142 256.517153 
L 212.069564 258.653772 
" clip-path="url(#p94b38c51a8)" style="fill: #ff0000"/>
    <path d="M 146.999311 99.847661 
L 156.172019 90.002004 
L 153.873954 89.325279 
L 163.528628 83.677376 
L 158.577241 93.707097 
L 157.739782 91.46261 
L 148.567074 101.308267 
L 146.999311 99.847661 
" clip-path="url(#p94b38c51a8)" style="fill: #ff0000"/>
    <path d="M 118.50017 149.874174 
L 123.27216 140.22533 
L 120.876548 140.235767 
L 128.507018 132.057291 
L 126.638539 143.085452 
L 125.192823 141.175225 
L 120.420834 150.824069 
L 118.50017 149.874174 
" clip-path="url(#p94b38c51a8)" style="fill: #ff0000"/>
    <path d="M 332.287877 164.342751 
L 328.881594 176.967048 
L 331.229425 176.490865 
L 325.335388 185.997277 
L 325.023211 174.816307 
L 326.812856 176.408862 
L 330.219139 163.784565 
L 332.287877 164.342751 
" clip-path="url(#p94b38c51a8)" style="fill: #ff0000"/>
    <path d="M 301.870373 178.473128 
L 302.138368 184.933603 
L 304.234843 183.774355 
L 301.467568 194.611962 
L 297.812206 184.040781 
L 299.997489 185.022412 
L 299.729494 178.561936 
L 301.870373 178.473128 
" clip-path="url(#p94b38c51a8)" style="fill: #ff0000"/>
    <path d="M 266.868487 105.091288 
L 259.92298 100.944194 
L 259.74436 103.33316 
L 252.193459 95.081165 
L 263.039805 97.813986 
L 261.021461 99.104469 
L 267.966968 103.251564 
L 266.868487 105.091288 
" clip-path="url(#p94b38c51a8)" style="fill: #ff0000"/>
    <path d="M 242.353557 189.757352 
L 235.629466 198.91724 
L 237.990733 199.321563 
L 229.059979 206.056038 
L 232.808879 195.517666 
L 233.902181 197.649274 
L 240.626273 188.489387 
L 242.353557 189.757352 
" clip-path="url(#p94b38c51a8)" style="fill: #ff0000"/>
    <path d="M 316.621325 256.787858 
L 324.526895 252.062961 
L 322.508002 250.773335 
L 333.353186 248.035904 
L 325.805793 256.291108 
L 325.626158 253.902218 
L 317.720589 258.627116 
L 316.621325 256.787858 
" clip-path="url(#p94b38c51a8)" style="fill: #ff0000"/>
    <path d="M 172.241361 112.171089 
L 176.44526 106.165154 
L 174.07548 105.814145 
L 182.852205 98.880125 
L 179.341739 109.500303 
L 178.200679 107.393874 
L 173.996781 113.399808 
L 172.241361 112.171089 
" clip-path="url(#p94b38c51a8)" style="fill: #ff0000"/>
    <path d="M 326.551681 157.52244 
L 325.032904 168.626476 
L 327.301043 167.85537 
L 322.664755 178.034583 
L 320.932181 166.984256 
L 322.90995 168.336104 
L 324.428727 157.232068 
L 326.551681 157.52244 
" clip-path="url(#p94b38c51a8)" style="fill: #ff0000"/>
    <path d="M 315.441434 211.320765 
L 310.350759 221.710282 
L 312.746315 221.691005 
L 305.146074 229.897581 
L 306.973848 218.862601 
L 308.426603 220.76748 
L 313.517279 210.377964 
L 315.441434 211.320765 
" clip-path="url(#p94b38c51a8)" style="fill: #ff0000"/>
    <path d="M 176.860638 254.077594 
L 186.720071 257.43475 
L 186.396552 255.061062 
L 195.502354 261.5569 
L 184.324572 261.146137 
L 186.029411 259.463109 
L 176.169978 256.105952 
L 176.860638 254.077594 
" clip-path="url(#p94b38c51a8)" style="fill: #ff0000"/>
    <path d="M 251.518761 84.495787 
L 239.218094 83.418682 
L 240.098459 85.64669 
L 229.706065 81.510303 
L 240.659194 79.243033 
L 239.405006 81.284129 
L 251.705673 82.361235 
L 251.518761 84.495787 
" clip-path="url(#p94b38c51a8)" style="fill: #ff0000"/>
    <path d="M 193.326265 281.855961 
L 182.38373 281.390891 
L 183.363137 283.577171 
L 172.795679 279.91106 
L 183.636095 277.154809 
L 182.474715 279.250103 
L 193.41725 279.715173 
L 193.326265 281.855961 
" clip-path="url(#p94b38c51a8)" style="fill: #ff0000"/>
    <path d="M 217.495154 222.73093 
L 204.053452 216.071233 
L 204.062187 218.466851 
L 195.889134 210.830573 
L 206.915964 212.706886 
L 205.004711 214.151245 
L 218.446413 220.810942 
L 217.495154 222.73093 
" clip-path="url(#p94b38c51a8)" style="fill: #ff0000"/>
    <path d="M 185.62755 105.962907 
L 188.492333 103.692306 
L 186.321769 102.678545 
L 196.714364 98.542664 
L 190.314608 107.71625 
L 189.823279 105.371541 
L 186.958496 107.642143 
L 185.62755 105.962907 
" clip-path="url(#p94b38c51a8)" style="fill: #ff0000"/>
    <path d="M 161.527281 250.13024 
L 151.591245 243.621517 
L 151.313313 246.000974 
L 144.112543 237.441742 
L 154.835699 240.623797 
L 152.765374 241.829125 
L 162.70141 248.337847 
L 161.527281 250.13024 
" clip-path="url(#p94b38c51a8)" style="fill: #ff0000"/>
    <path d="M 176.49437 104.981469 
L 183.967648 99.317264 
L 181.81954 98.256748 
L 192.299239 94.346832 
L 185.70238 103.379715 
L 185.261928 101.024919 
L 177.78865 106.689125 
L 176.49437 104.981469 
" clip-path="url(#p94b38c51a8)" style="fill: #ff0000"/>
    <path d="M 196.378768 192.418163 
L 197.884974 200.160656 
L 199.78368 198.699842 
L 198.674588 209.830047 
L 193.473809 199.927349 
L 195.781683 200.569825 
L 194.275478 192.827332 
L 196.378768 192.418163 
" clip-path="url(#p94b38c51a8)" style="fill: #ff0000"/>
    <path d="M 159.587554 154.478502 
L 158.367096 145.578791 
L 156.389802 146.931333 
L 158.118498 135.880399 
L 162.758358 146.057984 
L 160.489948 145.287674 
L 161.710406 154.187386 
L 159.587554 154.478502 
" clip-path="url(#p94b38c51a8)" style="fill: #ff0000"/>
    <path d="M 299.5536 109.048198 
L 306.746631 115.333331 
L 307.34974 113.014857 
L 313.302603 122.484543 
L 303.12011 117.855464 
L 305.336754 116.946866 
L 298.143723 110.661733 
L 299.5536 109.048198 
" clip-path="url(#p94b38c51a8)" style="fill: #ff0000"/>
    <path d="M 236.210197 221.55467 
L 223.427134 218.526434 
L 223.975713 220.858412 
L 214.291534 215.261251 
L 225.457497 214.60337 
L 223.921062 216.44142 
L 236.704125 219.469656 
L 236.210197 221.55467 
" clip-path="url(#p94b38c51a8)" style="fill: #ff0000"/>
    <path d="M 237.896233 228.86965 
L 226.027548 226.872149 
L 226.728431 229.162962 
L 216.696841 224.215362 
L 227.795288 222.823951 
L 226.383167 224.759145 
L 238.251852 226.756647 
L 237.896233 228.86965 
" clip-path="url(#p94b38c51a8)" style="fill: #ff0000"/>
    <path d="M 145.495851 138.336211 
L 150.36877 129.127081 
L 147.973772 129.071892 
L 155.825408 121.105503 
L 153.655541 132.078343 
L 152.262693 130.129231 
L 147.389774 139.338362 
L 145.495851 138.336211 
" clip-path="url(#p94b38c51a8)" style="fill: #ff0000"/>
    <path d="M 298.948651 215.404562 
L 307.544929 206.715573 
L 305.2682 205.970207 
L 315.087973 200.6145 
L 309.83791 210.491158 
L 309.068165 208.222556 
L 300.471887 216.911545 
L 298.948651 215.404562 
" clip-path="url(#p94b38c51a8)" style="fill: #ff0000"/>
    <path d="M 335.293246 186.332385 
L 329.743991 198.244037 
L 332.138707 198.177742 
L 324.701017 206.53192 
L 326.311835 195.46319 
L 327.8017 197.339186 
L 333.350955 185.427534 
L 335.293246 186.332385 
" clip-path="url(#p94b38c51a8)" style="fill: #ff0000"/>
    <path d="M 311.621766 197.294386 
L 307.579374 205.695814 
L 309.974732 205.659428 
L 302.433301 213.920078 
L 304.182211 202.872325 
L 305.648534 204.766779 
L 309.690926 196.365352 
L 311.621766 197.294386 
" clip-path="url(#p94b38c51a8)" style="fill: #ff0000"/>
    <path d="M 234.299687 203.887984 
L 223.343321 200.314083 
L 223.697378 202.683409 
L 214.508687 196.305361 
L 225.690832 196.572158 
L 224.007806 198.276999 
L 234.964171 201.8509 
L 234.299687 203.887984 
" clip-path="url(#p94b38c51a8)" style="fill: #ff0000"/>
    <path d="M 262.189013 102.334873 
L 261.860387 101.892591 
L 261.304448 102.992125 
L 259.345034 97.583422 
L 263.958143 101.020368 
L 262.744952 101.235338 
L 263.073578 101.677621 
L 262.189013 102.334873 
" clip-path="url(#p94b38c51a8)" style="fill: #ff0000"/>
    <path d="M 211.633353 81.984873 
L 222.729683 79.75948 
L 221.257902 77.869262 
L 232.39434 78.913905 
L 222.521914 84.171922 
L 223.15102 81.860366 
L 212.05469 84.085759 
L 211.633353 81.984873 
" clip-path="url(#p94b38c51a8)" style="fill: #ff0000"/>
    <path d="M 317.576279 218.527003 
L 307.542365 228.884218 
L 309.826787 229.60566 
L 300.063736 235.064081 
L 305.209905 225.132894 
L 306.003405 227.393296 
L 316.037318 217.036081 
L 317.576279 218.527003 
" clip-path="url(#p94b38c51a8)" style="fill: #ff0000"/>
    <path d="M 245.662378 85.322873 
L 236.858097 82.230372 
L 237.158816 84.607056 
L 228.115788 78.02411 
L 239.289112 78.542151 
L 237.568196 80.208737 
L 246.372477 83.301238 
L 245.662378 85.322873 
" clip-path="url(#p94b38c51a8)" style="fill: #ff0000"/>
    <path d="M 312.137638 137.681986 
L 318.826704 149.456099 
L 320.160543 147.46614 
L 322.65812 158.369059 
L 314.57138 150.641435 
L 316.96365 150.51453 
L 310.274584 138.740417 
L 312.137638 137.681986 
" clip-path="url(#p94b38c51a8)" style="fill: #ff0000"/>
    <path d="M 182.665609 139.238849 
L 179.664768 153.833179 
L 181.979356 153.215324 
L 176.673381 163.062058 
L 175.682919 151.92067 
L 177.565956 153.401628 
L 180.566797 138.807297 
L 182.665609 139.238849 
" clip-path="url(#p94b38c51a8)" style="fill: #ff0000"/>
    <path d="M 215.093594 106.116299 
L 223.064794 107.577671 
L 222.397385 105.276883 
L 232.355774 110.370216 
L 221.23822 111.599666 
L 222.678406 109.685266 
L 214.707205 108.223894 
L 215.093594 106.116299 
" clip-path="url(#p94b38c51a8)" style="fill: #ff0000"/>
    <path d="M 339.325516 129.790479 
L 340.846557 142.513342 
L 342.846949 141.195203 
L 340.927368 152.214583 
L 336.46424 141.958267 
L 338.718987 142.767697 
L 337.197946 130.044833 
L 339.325516 129.790479 
" clip-path="url(#p94b38c51a8)" style="fill: #ff0000"/>
    <path d="M 158.026385 129.511352 
L 160.509067 120.353521 
L 158.160669 120.826904 
L 164.066039 111.327528 
L 164.364882 122.508862 
L 162.577138 120.914174 
L 160.094456 130.072005 
L 158.026385 129.511352 
" clip-path="url(#p94b38c51a8)" style="fill: #ff0000"/>
    <path d="M 236.362415 102.542847 
L 245.684311 106.462765 
L 245.527296 104.072283 
L 254.157385 111.187977 
L 243.035552 109.997859 
L 244.85373 108.437957 
L 235.531834 104.51804 
L 236.362415 102.542847 
" clip-path="url(#p94b38c51a8)" style="fill: #ff0000"/>
    <path d="M 129.969848 139.231341 
L 133.727057 130.075534 
L 131.338022 130.253221 
L 138.3788 121.561904 
L 137.28493 132.693615 
L 135.70936 130.888999 
L 131.952151 140.044805 
L 129.969848 139.231341 
" clip-path="url(#p94b38c51a8)" style="fill: #ff0000"/>
    <path d="M 185.623648 210.881211 
L 185.601429 219.572488 
L 187.746881 218.50661 
L 184.505423 229.211958 
L 181.318742 218.490176 
L 183.458716 219.567011 
L 183.480935 210.875733 
L 185.623648 210.881211 
" clip-path="url(#p94b38c51a8)" style="fill: #ff0000"/>
    <path d="M 198.890892 93.828891 
L 209.92215 90.03267 
L 208.211849 88.355191 
L 219.388237 87.9081 
L 210.303597 94.4335 
L 210.619399 92.058772 
L 199.588141 95.854993 
L 198.890892 93.828891 
" clip-path="url(#p94b38c51a8)" style="fill: #ff0000"/>
    <path d="M 267.880284 218.026431 
L 255.548848 222.675414 
L 257.307211 224.302443 
L 246.148553 225.074382 
L 255.039576 218.287539 
L 254.79297 220.670446 
L 267.124406 216.021463 
L 267.880284 218.026431 
" clip-path="url(#p94b38c51a8)" style="fill: #ff0000"/>
    <path d="M 270.078405 125.952574 
L 276.491679 135.877831 
L 277.709937 133.815088 
L 280.824837 144.557943 
L 272.310826 137.303761 
L 274.691975 137.040722 
L 268.278701 127.115465 
L 270.078405 125.952574 
" clip-path="url(#p94b38c51a8)" style="fill: #ff0000"/>
    <path d="M 179.181743 237.299332 
L 185.951575 242.425974 
L 186.391055 240.070996 
L 192.991645 249.101154 
L 182.510332 245.195568 
L 184.658001 244.134164 
L 177.888169 239.007522 
L 179.181743 237.299332 
" clip-path="url(#p94b38c51a8)" style="fill: #ff0000"/>
    <path d="M 230.044567 259.276847 
L 221.128905 260.461891 
L 222.473246 262.44477 
L 211.429567 260.670316 
L 221.626282 256.072651 
L 220.846584 258.337851 
L 229.762246 257.152808 
L 230.044567 259.276847 
" clip-path="url(#p94b38c51a8)" style="fill: #ff0000"/>
    <path d="M 267.432372 119.232811 
L 267.387615 118.681726 
L 266.330202 119.322324 
L 267.535889 113.677206 
L 269.636711 119.053784 
L 268.489785 118.592212 
L 268.534542 119.143297 
L 267.432372 119.232811 
" clip-path="url(#p94b38c51a8)" style="fill: #ff0000"/>
    <path d="M 294.658019 235.394552 
L 286.171739 243.331696 
L 288.417852 244.164787 
L 278.397784 249.135679 
L 284.026891 239.470034 
L 284.708086 241.766779 
L 293.194365 233.829635 
L 294.658019 235.394552 
" clip-path="url(#p94b38c51a8)" style="fill: #ff0000"/>
    <path d="M 218.522325 197.531302 
L 206.382677 190.039412 
L 206.169076 192.425505 
L 198.739886 184.063766 
L 209.545029 186.955205 
L 207.507995 188.215979 
L 219.647643 195.707869 
L 218.522325 197.531302 
" clip-path="url(#p94b38c51a8)" style="fill: #ff0000"/>
    <path d="M 239.173432 296.549715 
L 232.254787 297.484402 
L 233.603371 299.464398 
L 222.555917 297.713597 
L 232.742764 293.094108 
L 231.967918 295.360972 
L 238.886563 294.426285 
L 239.173432 296.549715 
" clip-path="url(#p94b38c51a8)" style="fill: #ff0000"/>
    <path d="M 203.553111 169.520173 
L 207.548301 156.826145 
L 205.182784 157.204815 
L 211.464959 147.950313 
L 211.314429 159.134626 
L 209.592182 157.469415 
L 205.596993 170.163443 
L 203.553111 169.520173 
" clip-path="url(#p94b38c51a8)" style="fill: #ff0000"/>
    <path d="M 254.154718 96.569644 
L 263.250839 101.872911 
L 263.404525 99.482212 
L 271.041104 107.654983 
L 260.166838 105.035466 
L 262.17161 103.723996 
L 253.075489 98.420728 
L 254.154718 96.569644 
" clip-path="url(#p94b38c51a8)" style="fill: #ff0000"/>
    <path d="M 277.825722 227.458044 
L 283.905782 222.890312 
L 281.762197 221.820685 
L 292.258402 217.9553 
L 285.62325 226.960092 
L 285.1928 224.603447 
L 279.112739 229.17118 
L 277.825722 227.458044 
" clip-path="url(#p94b38c51a8)" style="fill: #ff0000"/>
    <path d="M 156.147813 84.685625 
L 162.458547 76.719301 
L 160.113714 76.228569 
L 169.285669 69.826477 
L 165.152436 80.220125 
L 164.138121 78.049819 
L 157.827387 86.016144 
L 156.147813 84.685625 
" clip-path="url(#p94b38c51a8)" style="fill: #ff0000"/>
    <path d="M 337.886212 85.651126 
L 343.714001 93.976249 
L 344.854966 91.869768 
L 348.365909 102.489788 
L 339.588873 95.556162 
L 341.958636 95.205047 
L 336.130847 86.879924 
L 337.886212 85.651126 
" clip-path="url(#p94b38c51a8)" style="fill: #ff0000"/>
    <path d="M 197.246485 187.074034 
L 191.66168 175.538168 
L 190.199925 177.436149 
L 188.424407 166.392641 
L 195.985715 174.635102 
L 193.590277 174.604486 
L 199.175082 186.140352 
L 197.246485 187.074034 
" clip-path="url(#p94b38c51a8)" style="fill: #ff0000"/>
    <path d="M 146.872042 269.167117 
L 138.443584 262.714086 
L 137.991669 265.066709 
L 131.438879 256.001805 
L 141.899412 259.962712 
L 139.746165 261.012753 
L 148.174623 267.465784 
L 146.872042 269.167117 
" clip-path="url(#p94b38c51a8)" style="fill: #ff0000"/>
    <path d="M 293.139737 68.98777 
L 303.372925 75.557005 
L 303.628889 73.175085 
L 310.908332 81.667508 
L 300.156271 78.584536 
L 302.215386 77.360155 
L 291.982197 70.79092 
L 293.139737 68.98777 
" clip-path="url(#p94b38c51a8)" style="fill: #ff0000"/>
    <path d="M 270.721707 224.810675 
L 261.116147 226.80725 
L 262.601145 228.687102 
L 251.457656 227.720569 
L 261.292973 222.393461 
L 260.68009 224.70937 
L 270.285649 222.712795 
L 270.721707 224.810675 
" clip-path="url(#p94b38c51a8)" style="fill: #ff0000"/>
    <path d="M 116.471785 226.824978 
L 113.210006 217.127088 
L 111.520621 218.82563 
L 111.151611 207.646391 
L 117.613393 216.776392 
L 115.24093 216.444009 
L 118.502709 226.141899 
L 116.471785 226.824978 
" clip-path="url(#p94b38c51a8)" style="fill: #ff0000"/>
    <path d="M 209.502606 120.027663 
L 214.388394 112.259685 
L 212.004207 112.02577 
L 220.428915 104.668064 
L 217.445557 115.44819 
L 216.202177 113.400491 
L 211.31639 121.168469 
L 209.502606 120.027663 
" clip-path="url(#p94b38c51a8)" style="fill: #ff0000"/>
    <path d="M 196.919281 185.712813 
L 189.298481 177.502348 
L 188.456848 179.745273 
L 183.524127 169.706359 
L 193.168278 175.372212 
L 190.868958 176.044661 
L 198.489758 184.255126 
L 196.919281 185.712813 
" clip-path="url(#p94b38c51a8)" style="fill: #ff0000"/>
    <path d="M 217.03615 52.559882 
L 227.26833 48.879114 
L 225.534923 47.225523 
L 236.704032 46.623427 
L 227.710792 53.274229 
L 227.99362 50.895349 
L 217.76144 54.576118 
L 217.03615 52.559882 
" clip-path="url(#p94b38c51a8)" style="fill: #ff0000"/>
   </g>
   <g id="matplotlib.axis_1">
    <g id="xtick_1">
     <g id="line2d_1">
      <defs>
       <path id="m6d80f58dfc" d="M 0 0 
L 0 3.5 
" style="stroke: #000000; stroke-width: 0.8"/>
      </defs>
      <g>
       <use xlink:href="#m6d80f58dfc" x="78.06929" y="307.584" style="stroke: #000000; stroke-width: 0.8"/>
      </g>
     </g>
     <g id="text_1">
      <!-- −2.0 -->
      <g transform="translate(63.499603 323.702125) scale(0.12 -0.12)">
       <defs>
        <path id="DejaVuSans-2212" d="M 678 2272 
L 4684 2272 
L 4684 1741 
L 678 1741 
L 678 2272 
z
" transform="scale(0.015625)"/>
        <path id="DejaVuSans-32" d="M 1228 531 
L 3431 531 
L 3431 0 
L 469 0 
L 469 531 
Q 828 903 1448 1529 
Q 2069 2156 2228 2338 
Q 2531 2678 2651 2914 
Q 2772 3150 2772 3378 
Q 2772 3750 2511 3984 
Q 2250 4219 1831 4219 
Q 1534 4219 1204 4116 
Q 875 4013 500 3803 
L 500 4441 
Q 881 4594 1212 4672 
Q 1544 4750 1819 4750 
Q 2544 4750 2975 4387 
Q 3406 4025 3406 3419 
Q 3406 3131 3298 2873 
Q 3191 2616 2906 2266 
Q 2828 2175 2409 1742 
Q 1991 1309 1228 531 
z
" transform="scale(0.015625)"/>
        <path id="DejaVuSans-2e" d="M 684 794 
L 1344 794 
L 1344 0 
L 684 0 
L 684 794 
z
" transform="scale(0.015625)"/>
        <path id="DejaVuSans-30" d="M 2034 4250 
Q 1547 4250 1301 3770 
Q 1056 3291 1056 2328 
Q 1056 1369 1301 889 
Q 1547 409 2034 409 
Q 2525 409 2770 889 
Q 3016 1369 3016 2328 
Q 3016 3291 2770 3770 
Q 2525 4250 2034 4250 
z
M 2034 4750 
Q 2819 4750 3233 4129 
Q 3647 3509 3647 2328 
Q 3647 1150 3233 529 
Q 2819 -91 2034 -91 
Q 1250 -91 836 529 
Q 422 1150 422 2328 
Q 422 3509 836 4129 
Q 1250 4750 2034 4750 
z
" transform="scale(0.015625)"/>
       </defs>
       <use xlink:href="#DejaVuSans-2212"/>
       <use xlink:href="#DejaVuSans-32" x="83.789062"/>
       <use xlink:href="#DejaVuSans-2e" x="147.412109"/>
       <use xlink:href="#DejaVuSans-30" x="179.199219"/>
      </g>
     </g>
    </g>
    <g id="xtick_2">
     <g id="line2d_2">
      <g>
       <use xlink:href="#m6d80f58dfc" x="120.764163" y="307.584" style="stroke: #000000; stroke-width: 0.8"/>
      </g>
     </g>
     <g id="text_2">
      <!-- −1.5 -->
      <g transform="translate(106.194476 323.702125) scale(0.12 -0.12)">
       <defs>
        <path id="DejaVuSans-31" d="M 794 531 
L 1825 531 
L 1825 4091 
L 703 3866 
L 703 4441 
L 1819 4666 
L 2450 4666 
L 2450 531 
L 3481 531 
L 3481 0 
L 794 0 
L 794 531 
z
" transform="scale(0.015625)"/>
        <path id="DejaVuSans-35" d="M 691 4666 
L 3169 4666 
L 3169 4134 
L 1269 4134 
L 1269 2991 
Q 1406 3038 1543 3061 
Q 1681 3084 1819 3084 
Q 2600 3084 3056 2656 
Q 3513 2228 3513 1497 
Q 3513 744 3044 326 
Q 2575 -91 1722 -91 
Q 1428 -91 1123 -41 
Q 819 9 494 109 
L 494 744 
Q 775 591 1075 516 
Q 1375 441 1709 441 
Q 2250 441 2565 725 
Q 2881 1009 2881 1497 
Q 2881 1984 2565 2268 
Q 2250 2553 1709 2553 
Q 1456 2553 1204 2497 
Q 953 2441 691 2322 
L 691 4666 
z
" transform="scale(0.015625)"/>
       </defs>
       <use xlink:href="#DejaVuSans-2212"/>
       <use xlink:href="#DejaVuSans-31" x="83.789062"/>
       <use xlink:href="#DejaVuSans-2e" x="147.412109"/>
       <use xlink:href="#DejaVuSans-35" x="179.199219"/>
      </g>
     </g>
    </g>
    <g id="xtick_3">
     <g id="line2d_3">
      <g>
       <use xlink:href="#m6d80f58dfc" x="163.459037" y="307.584" style="stroke: #000000; stroke-width: 0.8"/>
      </g>
     </g>
     <g id="text_3">
      <!-- −1.0 -->
      <g transform="translate(148.889349 323.702125) scale(0.12 -0.12)">
       <use xlink:href="#DejaVuSans-2212"/>
       <use xlink:href="#DejaVuSans-31" x="83.789062"/>
       <use xlink:href="#DejaVuSans-2e" x="147.412109"/>
       <use xlink:href="#DejaVuSans-30" x="179.199219"/>
      </g>
     </g>
    </g>
    <g id="xtick_4">
     <g id="line2d_4">
      <g>
       <use xlink:href="#m6d80f58dfc" x="206.15391" y="307.584" style="stroke: #000000; stroke-width: 0.8"/>
      </g>
     </g>
     <g id="text_4">
      <!-- −0.5 -->
      <g transform="translate(191.584222 323.702125) scale(0.12 -0.12)">
       <use xlink:href="#DejaVuSans-2212"/>
       <use xlink:href="#DejaVuSans-30" x="83.789062"/>
       <use xlink:href="#DejaVuSans-2e" x="147.412109"/>
       <use xlink:href="#DejaVuSans-35" x="179.199219"/>
      </g>
     </g>
    </g>
    <g id="xtick_5">
     <g id="line2d_5">
      <g>
       <use xlink:href="#m6d80f58dfc" x="248.848783" y="307.584" style="stroke: #000000; stroke-width: 0.8"/>
      </g>
     </g>
     <g id="text_5">
      <!-- 0.0 -->
      <g transform="translate(239.306908 323.702125) scale(0.12 -0.12)">
       <use xlink:href="#DejaVuSans-30"/>
       <use xlink:href="#DejaVuSans-2e" x="63.623047"/>
       <use xlink:href="#DejaVuSans-30" x="95.410156"/>
      </g>
     </g>
    </g>
    <g id="xtick_6">
     <g id="line2d_6">
      <g>
       <use xlink:href="#m6d80f58dfc" x="291.543656" y="307.584" style="stroke: #000000; stroke-width: 0.8"/>
      </g>
     </g>
     <g id="text_6">
      <!-- 0.5 -->
      <g transform="translate(282.001781 323.702125) scale(0.12 -0.12)">
       <use xlink:href="#DejaVuSans-30"/>
       <use xlink:href="#DejaVuSans-2e" x="63.623047"/>
       <use xlink:href="#DejaVuSans-35" x="95.410156"/>
      </g>
     </g>
    </g>
    <g id="xtick_7">
     <g id="line2d_7">
      <g>
       <use xlink:href="#m6d80f58dfc" x="334.23853" y="307.584" style="stroke: #000000; stroke-width: 0.8"/>
      </g>
     </g>
     <g id="text_7">
      <!-- 1.0 -->
      <g transform="translate(324.696655 323.702125) scale(0.12 -0.12)">
       <use xlink:href="#DejaVuSans-31"/>
       <use xlink:href="#DejaVuSans-2e" x="63.623047"/>
       <use xlink:href="#DejaVuSans-30" x="95.410156"/>
      </g>
     </g>
    </g>
    <g id="xtick_8">
     <g id="line2d_8">
      <g>
       <use xlink:href="#m6d80f58dfc" x="376.933403" y="307.584" style="stroke: #000000; stroke-width: 0.8"/>
      </g>
     </g>
     <g id="text_8">
      <!-- 1.5 -->
      <g transform="translate(367.391528 323.702125) scale(0.12 -0.12)">
       <use xlink:href="#DejaVuSans-31"/>
       <use xlink:href="#DejaVuSans-2e" x="63.623047"/>
       <use xlink:href="#DejaVuSans-35" x="95.410156"/>
      </g>
     </g>
    </g>
    <g id="text_9">
     <!-- x -->
     <g transform="translate(232.016875 340.835562) scale(0.14 -0.14)">
      <defs>
       <path id="DejaVuSans-78" d="M 3513 3500 
L 2247 1797 
L 3578 0 
L 2900 0 
L 1881 1375 
L 863 0 
L 184 0 
L 1544 1831 
L 300 3500 
L 978 3500 
L 1906 2253 
L 2834 3500 
L 3513 3500 
z
" transform="scale(0.015625)"/>
      </defs>
      <use xlink:href="#DejaVuSans-78"/>
     </g>
    </g>
   </g>
   <g id="matplotlib.axis_2">
    <g id="ytick_1">
     <g id="line2d_9">
      <defs>
       <path id="m0368101c7c" d="M 0 0 
L -3.5 0 
" style="stroke: #000000; stroke-width: 0.8"/>
      </defs>
      <g>
       <use xlink:href="#m0368101c7c" x="57.6" y="306.138766" style="stroke: #000000; stroke-width: 0.8"/>
      </g>
     </g>
     <g id="text_10">
      <!-- −1.5 -->
      <g transform="translate(21.460625 310.697828) scale(0.12 -0.12)">
       <use xlink:href="#DejaVuSans-2212"/>
       <use xlink:href="#DejaVuSans-31" x="83.789062"/>
       <use xlink:href="#DejaVuSans-2e" x="147.412109"/>
       <use xlink:href="#DejaVuSans-35" x="179.199219"/>
      </g>
     </g>
    </g>
    <g id="ytick_2">
     <g id="line2d_10">
      <g>
       <use xlink:href="#m0368101c7c" x="57.6" y="263.443892" style="stroke: #000000; stroke-width: 0.8"/>
      </g>
     </g>
     <g id="text_11">
      <!-- −1.0 -->
      <g transform="translate(21.460625 268.002955) scale(0.12 -0.12)">
       <use xlink:href="#DejaVuSans-2212"/>
       <use xlink:href="#DejaVuSans-31" x="83.789062"/>
       <use xlink:href="#DejaVuSans-2e" x="147.412109"/>
       <use xlink:href="#DejaVuSans-30" x="179.199219"/>
      </g>
     </g>
    </g>
    <g id="ytick_3">
     <g id="line2d_11">
      <g>
       <use xlink:href="#m0368101c7c" x="57.6" y="220.749019" style="stroke: #000000; stroke-width: 0.8"/>
      </g>
     </g>
     <g id="text_12">
      <!-- −0.5 -->
      <g transform="translate(21.460625 225.308082) scale(0.12 -0.12)">
       <use xlink:href="#DejaVuSans-2212"/>
       <use xlink:href="#DejaVuSans-30" x="83.789062"/>
       <use xlink:href="#DejaVuSans-2e" x="147.412109"/>
       <use xlink:href="#DejaVuSans-35" x="179.199219"/>
      </g>
     </g>
    </g>
    <g id="ytick_4">
     <g id="line2d_12">
      <g>
       <use xlink:href="#m0368101c7c" x="57.6" y="178.054146" style="stroke: #000000; stroke-width: 0.8"/>
      </g>
     </g>
     <g id="text_13">
      <!-- 0.0 -->
      <g transform="translate(31.51625 182.613208) scale(0.12 -0.12)">
       <use xlink:href="#DejaVuSans-30"/>
       <use xlink:href="#DejaVuSans-2e" x="63.623047"/>
       <use xlink:href="#DejaVuSans-30" x="95.410156"/>
      </g>
     </g>
    </g>
    <g id="ytick_5">
     <g id="line2d_13">
      <g>
       <use xlink:href="#m0368101c7c" x="57.6" y="135.359273" style="stroke: #000000; stroke-width: 0.8"/>
      </g>
     </g>
     <g id="text_14">
      <!-- 0.5 -->
      <g transform="translate(31.51625 139.918335) scale(0.12 -0.12)">
       <use xlink:href="#DejaVuSans-30"/>
       <use xlink:href="#DejaVuSans-2e" x="63.623047"/>
       <use xlink:href="#DejaVuSans-35" x="95.410156"/>
      </g>
     </g>
    </g>
    <g id="ytick_6">
     <g id="line2d_14">
      <g>
       <use xlink:href="#m0368101c7c" x="57.6" y="92.664399" style="stroke: #000000; stroke-width: 0.8"/>
      </g>
     </g>
     <g id="text_15">
      <!-- 1.0 -->
      <g transform="translate(31.51625 97.223462) scale(0.12 -0.12)">
       <use xlink:href="#DejaVuSans-31"/>
       <use xlink:href="#DejaVuSans-2e" x="63.623047"/>
       <use xlink:href="#DejaVuSans-30" x="95.410156"/>
      </g>
     </g>
    </g>
    <g id="ytick_7">
     <g id="line2d_15">
      <g>
       <use xlink:href="#m0368101c7c" x="57.6" y="49.969526" style="stroke: #000000; stroke-width: 0.8"/>
      </g>
     </g>
     <g id="text_16">
      <!-- 1.5 -->
      <g transform="translate(31.51625 54.528588) scale(0.12 -0.12)">
       <use xlink:href="#DejaVuSans-31"/>
       <use xlink:href="#DejaVuSans-2e" x="63.623047"/>
       <use xlink:href="#DejaVuSans-35" x="95.410156"/>
      </g>
     </g>
    </g>
    <g id="text_17">
     <!-- y -->
     <g transform="translate(14.549063 178.671125) rotate(-90) scale(0.14 -0.14)">
      <defs>
       <path id="DejaVuSans-79" d="M 2059 -325 
Q 1816 -950 1584 -1140 
Q 1353 -1331 966 -1331 
L 506 -1331 
L 506 -850 
L 844 -850 
Q 1081 -850 1212 -737 
Q 1344 -625 1503 -206 
L 1606 56 
L 191 3500 
L 800 3500 
L 1894 763 
L 2988 3500 
L 3597 3500 
L 2059 -325 
z
" transform="scale(0.015625)"/>
      </defs>
      <use xlink:href="#DejaVuSans-79"/>
     </g>
    </g>
   </g>
   <g id="patch_3">
    <path d="M 57.6 307.584 
L 57.6 41.472 
" style="fill: none; stroke: #000000; stroke-width: 0.8; stroke-linejoin: miter; stroke-linecap: square"/>
   </g>
   <g id="patch_4">
    <path d="M 414.72 307.584 
L 414.72 41.472 
" style="fill: none; stroke: #000000; stroke-width: 0.8; stroke-linejoin: miter; stroke-linecap: square"/>
   </g>
   <g id="patch_5">
    <path d="M 57.6 307.584 
L 414.72 307.584 
" style="fill: none; stroke: #000000; stroke-width: 0.8; stroke-linejoin: miter; stroke-linecap: square"/>
   </g>
   <g id="patch_6">
    <path d="M 57.6 41.472 
L 414.72 41.472 
" style="fill: none; stroke: #000000; stroke-width: 0.8; stroke-linejoin: miter; stroke-linecap: square"/>
   </g>
   <g id="text_18">
    <!-- Velocities at the final time -->
    <g transform="translate(116.81 35.472) scale(0.16 -0.16)">
     <defs>
      <path id="DejaVuSans-Bold-56" d="M 31 4666 
L 1241 4666 
L 2478 1222 
L 3713 4666 
L 4922 4666 
L 3194 0 
L 1759 0 
L 31 4666 
z
" transform="scale(0.015625)"/>
      <path id="DejaVuSans-Bold-65" d="M 4031 1759 
L 4031 1441 
L 1416 1441 
Q 1456 1047 1700 850 
Q 1944 653 2381 653 
Q 2734 653 3104 758 
Q 3475 863 3866 1075 
L 3866 213 
Q 3469 63 3072 -14 
Q 2675 -91 2278 -91 
Q 1328 -91 801 392 
Q 275 875 275 1747 
Q 275 2603 792 3093 
Q 1309 3584 2216 3584 
Q 3041 3584 3536 3087 
Q 4031 2591 4031 1759 
z
M 2881 2131 
Q 2881 2450 2695 2645 
Q 2509 2841 2209 2841 
Q 1884 2841 1681 2658 
Q 1478 2475 1428 2131 
L 2881 2131 
z
" transform="scale(0.015625)"/>
      <path id="DejaVuSans-Bold-6c" d="M 538 4863 
L 1656 4863 
L 1656 0 
L 538 0 
L 538 4863 
z
" transform="scale(0.015625)"/>
      <path id="DejaVuSans-Bold-6f" d="M 2203 2784 
Q 1831 2784 1636 2517 
Q 1441 2250 1441 1747 
Q 1441 1244 1636 976 
Q 1831 709 2203 709 
Q 2569 709 2762 976 
Q 2956 1244 2956 1747 
Q 2956 2250 2762 2517 
Q 2569 2784 2203 2784 
z
M 2203 3584 
Q 3106 3584 3614 3096 
Q 4122 2609 4122 1747 
Q 4122 884 3614 396 
Q 3106 -91 2203 -91 
Q 1297 -91 786 396 
Q 275 884 275 1747 
Q 275 2609 786 3096 
Q 1297 3584 2203 3584 
z
" transform="scale(0.015625)"/>
      <path id="DejaVuSans-Bold-63" d="M 3366 3391 
L 3366 2478 
Q 3138 2634 2908 2709 
Q 2678 2784 2431 2784 
Q 1963 2784 1702 2511 
Q 1441 2238 1441 1747 
Q 1441 1256 1702 982 
Q 1963 709 2431 709 
Q 2694 709 2930 787 
Q 3166 866 3366 1019 
L 3366 103 
Q 3103 6 2833 -42 
Q 2563 -91 2291 -91 
Q 1344 -91 809 395 
Q 275 881 275 1747 
Q 275 2613 809 3098 
Q 1344 3584 2291 3584 
Q 2566 3584 2833 3536 
Q 3100 3488 3366 3391 
z
" transform="scale(0.015625)"/>
      <path id="DejaVuSans-Bold-69" d="M 538 3500 
L 1656 3500 
L 1656 0 
L 538 0 
L 538 3500 
z
M 538 4863 
L 1656 4863 
L 1656 3950 
L 538 3950 
L 538 4863 
z
" transform="scale(0.015625)"/>
      <path id="DejaVuSans-Bold-74" d="M 1759 4494 
L 1759 3500 
L 2913 3500 
L 2913 2700 
L 1759 2700 
L 1759 1216 
Q 1759 972 1856 886 
Q 1953 800 2241 800 
L 2816 800 
L 2816 0 
L 1856 0 
Q 1194 0 917 276 
Q 641 553 641 1216 
L 641 2700 
L 84 2700 
L 84 3500 
L 641 3500 
L 641 4494 
L 1759 4494 
z
" transform="scale(0.015625)"/>
      <path id="DejaVuSans-Bold-73" d="M 3272 3391 
L 3272 2541 
Q 2913 2691 2578 2766 
Q 2244 2841 1947 2841 
Q 1628 2841 1473 2761 
Q 1319 2681 1319 2516 
Q 1319 2381 1436 2309 
Q 1553 2238 1856 2203 
L 2053 2175 
Q 2913 2066 3209 1816 
Q 3506 1566 3506 1031 
Q 3506 472 3093 190 
Q 2681 -91 1863 -91 
Q 1516 -91 1145 -36 
Q 775 19 384 128 
L 384 978 
Q 719 816 1070 734 
Q 1422 653 1784 653 
Q 2113 653 2278 743 
Q 2444 834 2444 1013 
Q 2444 1163 2330 1236 
Q 2216 1309 1875 1350 
L 1678 1375 
Q 931 1469 631 1722 
Q 331 1975 331 2491 
Q 331 3047 712 3315 
Q 1094 3584 1881 3584 
Q 2191 3584 2531 3537 
Q 2872 3491 3272 3391 
z
" transform="scale(0.015625)"/>
      <path id="DejaVuSans-Bold-20" transform="scale(0.015625)"/>
      <path id="DejaVuSans-Bold-61" d="M 2106 1575 
Q 1756 1575 1579 1456 
Q 1403 1338 1403 1106 
Q 1403 894 1545 773 
Q 1688 653 1941 653 
Q 2256 653 2472 879 
Q 2688 1106 2688 1447 
L 2688 1575 
L 2106 1575 
z
M 3816 1997 
L 3816 0 
L 2688 0 
L 2688 519 
Q 2463 200 2181 54 
Q 1900 -91 1497 -91 
Q 953 -91 614 226 
Q 275 544 275 1050 
Q 275 1666 698 1953 
Q 1122 2241 2028 2241 
L 2688 2241 
L 2688 2328 
Q 2688 2594 2478 2717 
Q 2269 2841 1825 2841 
Q 1466 2841 1156 2769 
Q 847 2697 581 2553 
L 581 3406 
Q 941 3494 1303 3539 
Q 1666 3584 2028 3584 
Q 2975 3584 3395 3211 
Q 3816 2838 3816 1997 
z
" transform="scale(0.015625)"/>
      <path id="DejaVuSans-Bold-68" d="M 4056 2131 
L 4056 0 
L 2931 0 
L 2931 347 
L 2931 1625 
Q 2931 2084 2911 2256 
Q 2891 2428 2841 2509 
Q 2775 2619 2662 2680 
Q 2550 2741 2406 2741 
Q 2056 2741 1856 2470 
Q 1656 2200 1656 1722 
L 1656 0 
L 538 0 
L 538 4863 
L 1656 4863 
L 1656 2988 
Q 1909 3294 2193 3439 
Q 2478 3584 2822 3584 
Q 3428 3584 3742 3212 
Q 4056 2841 4056 2131 
z
" transform="scale(0.015625)"/>
      <path id="DejaVuSans-Bold-66" d="M 2841 4863 
L 2841 4128 
L 2222 4128 
Q 1984 4128 1890 4042 
Q 1797 3956 1797 3744 
L 1797 3500 
L 2753 3500 
L 2753 2700 
L 1797 2700 
L 1797 0 
L 678 0 
L 678 2700 
L 122 2700 
L 122 3500 
L 678 3500 
L 678 3744 
Q 678 4316 997 4589 
Q 1316 4863 1984 4863 
L 2841 4863 
z
" transform="scale(0.015625)"/>
      <path id="DejaVuSans-Bold-6e" d="M 4056 2131 
L 4056 0 
L 2931 0 
L 2931 347 
L 2931 1631 
Q 2931 2084 2911 2256 
Q 2891 2428 2841 2509 
Q 2775 2619 2662 2680 
Q 2550 2741 2406 2741 
Q 2056 2741 1856 2470 
Q 1656 2200 1656 1722 
L 1656 0 
L 538 0 
L 538 3500 
L 1656 3500 
L 1656 2988 
Q 1909 3294 2193 3439 
Q 2478 3584 2822 3584 
Q 3428 3584 3742 3212 
Q 4056 2841 4056 2131 
z
" transform="scale(0.015625)"/>
      <path id="DejaVuSans-Bold-6d" d="M 3781 2919 
Q 3994 3244 4286 3414 
Q 4578 3584 4928 3584 
Q 5531 3584 5847 3212 
Q 6163 2841 6163 2131 
L 6163 0 
L 5038 0 
L 5038 1825 
Q 5041 1866 5042 1909 
Q 5044 1953 5044 2034 
Q 5044 2406 4934 2573 
Q 4825 2741 4581 2741 
Q 4263 2741 4089 2478 
Q 3916 2216 3909 1719 
L 3909 0 
L 2784 0 
L 2784 1825 
Q 2784 2406 2684 2573 
Q 2584 2741 2328 2741 
Q 2006 2741 1831 2477 
Q 1656 2213 1656 1722 
L 1656 0 
L 531 0 
L 531 3500 
L 1656 3500 
L 1656 2988 
Q 1863 3284 2130 3434 
Q 2397 3584 2719 3584 
Q 3081 3584 3359 3409 
Q 3638 3234 3781 2919 
z
" transform="scale(0.015625)"/>
     </defs>
     <use xlink:href="#DejaVuSans-Bold-56"/>
     <use xlink:href="#DejaVuSans-Bold-65" x="71.892578"/>
     <use xlink:href="#DejaVuSans-Bold-6c" x="139.714844"/>
     <use xlink:href="#DejaVuSans-Bold-6f" x="173.992188"/>
     <use xlink:href="#DejaVuSans-Bold-63" x="242.693359"/>
     <use xlink:href="#DejaVuSans-Bold-69" x="301.970703"/>
     <use xlink:href="#DejaVuSans-Bold-74" x="336.248047"/>
     <use xlink:href="#DejaVuSans-Bold-69" x="384.050781"/>
     <use xlink:href="#DejaVuSans-Bold-65" x="418.328125"/>
     <use xlink:href="#DejaVuSans-Bold-73" x="486.150391"/>
     <use xlink:href="#DejaVuSans-Bold-20" x="545.671875"/>
     <use xlink:href="#DejaVuSans-Bold-61" x="580.486328"/>
     <use xlink:href="#DejaVuSans-Bold-74" x="647.966797"/>
     <use xlink:href="#DejaVuSans-Bold-20" x="695.769531"/>
     <use xlink:href="#DejaVuSans-Bold-74" x="730.583984"/>
     <use xlink:href="#DejaVuSans-Bold-68" x="778.386719"/>
     <use xlink:href="#DejaVuSans-Bold-65" x="849.578125"/>
     <use xlink:href="#DejaVuSans-Bold-20" x="917.400391"/>
     <use xlink:href="#DejaVuSans-Bold-66" x="952.214844"/>
     <use xlink:href="#DejaVuSans-Bold-69" x="995.720703"/>
     <use xlink:href="#DejaVuSans-Bold-6e" x="1029.998047"/>
     <use xlink:href="#DejaVuSans-Bold-61" x="1101.189453"/>
     <use xlink:href="#DejaVuSans-Bold-6c" x="1168.669922"/>
     <use xlink:href="#DejaVuSans-Bold-20" x="1202.947266"/>
     <use xlink:href="#DejaVuSans-Bold-74" x="1237.761719"/>
     <use xlink:href="#DejaVuSans-Bold-69" x="1285.564453"/>
     <use xlink:href="#DejaVuSans-Bold-6d" x="1319.841797"/>
     <use xlink:href="#DejaVuSans-Bold-65" x="1424.041016"/>
    </g>
   </g>
   <g id="legend_1">
    <g id="patch_7">
     <path d="M 328.266875 78.82825 
L 407.72 78.82825 
Q 409.72 78.82825 409.72 76.82825 
L 409.72 48.472 
Q 409.72 46.472 407.72 46.472 
L 328.266875 46.472 
Q 326.266875 46.472 326.266875 48.472 
L 326.266875 76.82825 
Q 326.266875 78.82825 328.266875 78.82825 
z
" style="fill: #ffffff; opacity: 0.8; stroke: #cccccc; stroke-linejoin: miter"/>
    </g>
    <g id="PathCollection_2">
     <g>
      <use xlink:href="#m27874c81c3" x="340.266875" y="55.445437" style="fill: #0000ff; stroke: #0000ff"/>
     </g>
    </g>
    <g id="text_19">
     <!-- Positions -->
     <g transform="translate(358.266875 58.070437) scale(0.1 -0.1)">
      <defs>
       <path id="DejaVuSans-50" d="M 1259 4147 
L 1259 2394 
L 2053 2394 
Q 2494 2394 2734 2622 
Q 2975 2850 2975 3272 
Q 2975 3691 2734 3919 
Q 2494 4147 2053 4147 
L 1259 4147 
z
M 628 4666 
L 2053 4666 
Q 2838 4666 3239 4311 
Q 3641 3956 3641 3272 
Q 3641 2581 3239 2228 
Q 2838 1875 2053 1875 
L 1259 1875 
L 1259 0 
L 628 0 
L 628 4666 
z
" transform="scale(0.015625)"/>
       <path id="DejaVuSans-6f" d="M 1959 3097 
Q 1497 3097 1228 2736 
Q 959 2375 959 1747 
Q 959 1119 1226 758 
Q 1494 397 1959 397 
Q 2419 397 2687 759 
Q 2956 1122 2956 1747 
Q 2956 2369 2687 2733 
Q 2419 3097 1959 3097 
z
M 1959 3584 
Q 2709 3584 3137 3096 
Q 3566 2609 3566 1747 
Q 3566 888 3137 398 
Q 2709 -91 1959 -91 
Q 1206 -91 779 398 
Q 353 888 353 1747 
Q 353 2609 779 3096 
Q 1206 3584 1959 3584 
z
" transform="scale(0.015625)"/>
       <path id="DejaVuSans-73" d="M 2834 3397 
L 2834 2853 
Q 2591 2978 2328 3040 
Q 2066 3103 1784 3103 
Q 1356 3103 1142 2972 
Q 928 2841 928 2578 
Q 928 2378 1081 2264 
Q 1234 2150 1697 2047 
L 1894 2003 
Q 2506 1872 2764 1633 
Q 3022 1394 3022 966 
Q 3022 478 2636 193 
Q 2250 -91 1575 -91 
Q 1294 -91 989 -36 
Q 684 19 347 128 
L 347 722 
Q 666 556 975 473 
Q 1284 391 1588 391 
Q 1994 391 2212 530 
Q 2431 669 2431 922 
Q 2431 1156 2273 1281 
Q 2116 1406 1581 1522 
L 1381 1569 
Q 847 1681 609 1914 
Q 372 2147 372 2553 
Q 372 3047 722 3315 
Q 1072 3584 1716 3584 
Q 2034 3584 2315 3537 
Q 2597 3491 2834 3397 
z
" transform="scale(0.015625)"/>
       <path id="DejaVuSans-69" d="M 603 3500 
L 1178 3500 
L 1178 0 
L 603 0 
L 603 3500 
z
M 603 4863 
L 1178 4863 
L 1178 4134 
L 603 4134 
L 603 4863 
z
" transform="scale(0.015625)"/>
       <path id="DejaVuSans-74" d="M 1172 4494 
L 1172 3500 
L 2356 3500 
L 2356 3053 
L 1172 3053 
L 1172 1153 
Q 1172 725 1289 603 
Q 1406 481 1766 481 
L 2356 481 
L 2356 0 
L 1766 0 
Q 1100 0 847 248 
Q 594 497 594 1153 
L 594 3053 
L 172 3053 
L 172 3500 
L 594 3500 
L 594 4494 
L 1172 4494 
z
" transform="scale(0.015625)"/>
       <path id="DejaVuSans-6e" d="M 3513 2113 
L 3513 0 
L 2938 0 
L 2938 2094 
Q 2938 2591 2744 2837 
Q 2550 3084 2163 3084 
Q 1697 3084 1428 2787 
Q 1159 2491 1159 1978 
L 1159 0 
L 581 0 
L 581 3500 
L 1159 3500 
L 1159 2956 
Q 1366 3272 1645 3428 
Q 1925 3584 2291 3584 
Q 2894 3584 3203 3211 
Q 3513 2838 3513 2113 
z
" transform="scale(0.015625)"/>
      </defs>
      <use xlink:href="#DejaVuSans-50"/>
      <use xlink:href="#DejaVuSans-6f" x="56.677734"/>
      <use xlink:href="#DejaVuSans-73" x="117.859375"/>
      <use xlink:href="#DejaVuSans-69" x="169.958984"/>
      <use xlink:href="#DejaVuSans-74" x="197.742188"/>
      <use xlink:href="#DejaVuSans-69" x="236.951172"/>
      <use xlink:href="#DejaVuSans-6f" x="264.734375"/>
      <use xlink:href="#DejaVuSans-6e" x="325.916016"/>
      <use xlink:href="#DejaVuSans-73" x="389.294922"/>
     </g>
    </g>
    <g id="patch_8">
     <path d="M 330.266875 72.748562 
L 350.266875 72.748562 
L 350.266875 65.748562 
L 330.266875 65.748562 
z
" style="fill: #ff0000"/>
    </g>
    <g id="text_20">
     <!-- Velocities -->
     <g transform="translate(358.266875 72.748562) scale(0.1 -0.1)">
      <defs>
       <path id="DejaVuSans-56" d="M 1831 0 
L 50 4666 
L 709 4666 
L 2188 738 
L 3669 4666 
L 4325 4666 
L 2547 0 
L 1831 0 
z
" transform="scale(0.015625)"/>
       <path id="DejaVuSans-65" d="M 3597 1894 
L 3597 1613 
L 953 1613 
Q 991 1019 1311 708 
Q 1631 397 2203 397 
Q 2534 397 2845 478 
Q 3156 559 3463 722 
L 3463 178 
Q 3153 47 2828 -22 
Q 2503 -91 2169 -91 
Q 1331 -91 842 396 
Q 353 884 353 1716 
Q 353 2575 817 3079 
Q 1281 3584 2069 3584 
Q 2775 3584 3186 3129 
Q 3597 2675 3597 1894 
z
M 3022 2063 
Q 3016 2534 2758 2815 
Q 2500 3097 2075 3097 
Q 1594 3097 1305 2825 
Q 1016 2553 972 2059 
L 3022 2063 
z
" transform="scale(0.015625)"/>
       <path id="DejaVuSans-6c" d="M 603 4863 
L 1178 4863 
L 1178 0 
L 603 0 
L 603 4863 
z
" transform="scale(0.015625)"/>
       <path id="DejaVuSans-63" d="M 3122 3366 
L 3122 2828 
Q 2878 2963 2633 3030 
Q 2388 3097 2138 3097 
Q 1578 3097 1268 2742 
Q 959 2388 959 1747 
Q 959 1106 1268 751 
Q 1578 397 2138 397 
Q 2388 397 2633 464 
Q 2878 531 3122 666 
L 3122 134 
Q 2881 22 2623 -34 
Q 2366 -91 2075 -91 
Q 1284 -91 818 406 
Q 353 903 353 1747 
Q 353 2603 823 3093 
Q 1294 3584 2113 3584 
Q 2378 3584 2631 3529 
Q 2884 3475 3122 3366 
z
" transform="scale(0.015625)"/>
      </defs>
      <use xlink:href="#DejaVuSans-56"/>
      <use xlink:href="#DejaVuSans-65" x="60.658203"/>
      <use xlink:href="#DejaVuSans-6c" x="122.181641"/>
      <use xlink:href="#DejaVuSans-6f" x="149.964844"/>
      <use xlink:href="#DejaVuSans-63" x="211.146484"/>
      <use xlink:href="#DejaVuSans-69" x="266.126953"/>
      <use xlink:href="#DejaVuSans-74" x="293.910156"/>
      <use xlink:href="#DejaVuSans-69" x="333.119141"/>
      <use xlink:href="#DejaVuSans-65" x="360.902344"/>
      <use xlink:href="#DejaVuSans-73" x="422.425781"/>
     </g>
    </g>
   </g>
  </g>
 </g>
 <defs>
  <clipPath id="p94b38c51a8">
   <rect x="57.6" y="41.472" width="357.12" height="266.112"/>
  </clipPath>
 </defs>
</svg>
