<?xml version="1.0" encoding="utf-8" standalone="no"?>
<!DOCTYPE svg PUBLIC "-//W3C//DTD SVG 1.1//EN"
  "http://www.w3.org/Graphics/SVG/1.1/DTD/svg11.dtd">
<svg xmlns:xlink="http://www.w3.org/1999/xlink" width="460.8pt" height="345.6pt" viewBox="0 0 460.8 345.6" xmlns="http://www.w3.org/2000/svg" version="1.1">
 <metadata>
  <rdf:RDF xmlns:dc="http://purl.org/dc/elements/1.1/" xmlns:cc="http://creativecommons.org/ns#" xmlns:rdf="http://www.w3.org/1999/02/22-rdf-syntax-ns#">
   <cc:Work>
    <dc:type rdf:resource="http://purl.org/dc/dcmitype/StillImage"/>
    <dc:date>2025-02-26T17:15:02.922605</dc:date>
    <dc:format>image/svg+xml</dc:format>
    <dc:creator>
     <cc:Agent>
      <dc:title>Matplotlib v3.6.3, https://matplotlib.org/</dc:title>
     </cc:Agent>
    </dc:creator>
   </cc:Work>
  </rdf:RDF>
 </metadata>
 <defs>
  <style type="text/css">*{stroke-linejoin: round; stroke-linecap: butt}</style>
 </defs>
 <g id="figure_1">
  <g id="patch_1">
   <path d="M 0 345.6 
L 460.8 345.6 
L 460.8 0 
L 0 0 
z
" style="fill: #ffffff"/>
  </g>
  <g id="axes_1">
   <g id="patch_2">
    <path d="M 57.6 307.584 
L 414.72 307.584 
L 414.72 41.472 
L 57.6 41.472 
z
" style="fill: #ffffff"/>
   </g>
   <g id="PathCollection_1">
    <defs>
     <path id="m0142ad6462" d="M 0 3 
C 0.795609 3 1.55874 2.683901 2.12132 2.12132 
C 2.683901 1.55874 3 0.795609 3 0 
C 3 -0.795609 2.683901 -1.55874 2.12132 -2.12132 
C 1.55874 -2.683901 0.795609 -3 0 -3 
C -0.795609 -3 -1.55874 -2.683901 -2.12132 -2.12132 
C -2.683901 -1.55874 -3 -0.795609 -3 0 
C -3 0.795609 -2.683901 1.55874 -2.12132 2.12132 
C -1.55874 2.683901 -0.795609 3 0 3 
z
" style="stroke: #0000ff"/>
    </defs>
    <g clip-path="url(#p5270c5036d)">
     <use xlink:href="#m0142ad6462" x="186.146341" y="253.078475" style="fill: #0000ff; stroke: #0000ff"/>
     <use xlink:href="#m0142ad6462" x="166.501814" y="218.539379" style="fill: #0000ff; stroke: #0000ff"/>
     <use xlink:href="#m0142ad6462" x="279.764268" y="148.954067" style="fill: #0000ff; stroke: #0000ff"/>
     <use xlink:href="#m0142ad6462" x="123.647732" y="187.972908" style="fill: #0000ff; stroke: #0000ff"/>
     <use xlink:href="#m0142ad6462" x="218.765376" y="108.789155" style="fill: #0000ff; stroke: #0000ff"/>
     <use xlink:href="#m0142ad6462" x="280.751531" y="247.951329" style="fill: #0000ff; stroke: #0000ff"/>
     <use xlink:href="#m0142ad6462" x="246.446617" y="179.449832" style="fill: #0000ff; stroke: #0000ff"/>
     <use xlink:href="#m0142ad6462" x="172.294649" y="270.099413" style="fill: #0000ff; stroke: #0000ff"/>
     <use xlink:href="#m0142ad6462" x="331.949049" y="205.833264" style="fill: #0000ff; stroke: #0000ff"/>
     <use xlink:href="#m0142ad6462" x="219.218252" y="277.374215" style="fill: #0000ff; stroke: #0000ff"/>
     <use xlink:href="#m0142ad6462" x="166.293289" y="182.423581" style="fill: #0000ff; stroke: #0000ff"/>
     <use xlink:href="#m0142ad6462" x="317.188645" y="250.028495" style="fill: #0000ff; stroke: #0000ff"/>
     <use xlink:href="#m0142ad6462" x="275.429486" y="117.086402" style="fill: #0000ff; stroke: #0000ff"/>
     <use xlink:href="#m0142ad6462" x="190.172771" y="99.137681" style="fill: #0000ff; stroke: #0000ff"/>
     <use xlink:href="#m0142ad6462" x="314.846034" y="184.43219" style="fill: #0000ff; stroke: #0000ff"/>
     <use xlink:href="#m0142ad6462" x="251.680349" y="223.695794" style="fill: #0000ff; stroke: #0000ff"/>
     <use xlink:href="#m0142ad6462" x="230.168971" y="145.677375" style="fill: #0000ff; stroke: #0000ff"/>
     <use xlink:href="#m0142ad6462" x="266.09749" y="246.382864" style="fill: #0000ff; stroke: #0000ff"/>
     <use xlink:href="#m0142ad6462" x="144.449769" y="209.980884" style="fill: #0000ff; stroke: #0000ff"/>
     <use xlink:href="#m0142ad6462" x="303.200023" y="144.132884" style="fill: #0000ff; stroke: #0000ff"/>
     <use xlink:href="#m0142ad6462" x="309.027887" y="170.137307" style="fill: #0000ff; stroke: #0000ff"/>
     <use xlink:href="#m0142ad6462" x="242.569192" y="216.82768" style="fill: #0000ff; stroke: #0000ff"/>
     <use xlink:href="#m0142ad6462" x="325.838017" y="226.976855" style="fill: #0000ff; stroke: #0000ff"/>
     <use xlink:href="#m0142ad6462" x="294.276422" y="156.512653" style="fill: #0000ff; stroke: #0000ff"/>
     <use xlink:href="#m0142ad6462" x="177.910517" y="93.753929" style="fill: #0000ff; stroke: #0000ff"/>
     <use xlink:href="#m0142ad6462" x="222.439656" y="132.569162" style="fill: #0000ff; stroke: #0000ff"/>
     <use xlink:href="#m0142ad6462" x="275.882993" y="289.292986" style="fill: #0000ff; stroke: #0000ff"/>
     <use xlink:href="#m0142ad6462" x="262.172888" y="229.581509" style="fill: #0000ff; stroke: #0000ff"/>
     <use xlink:href="#m0142ad6462" x="300.757027" y="110.435753" style="fill: #0000ff; stroke: #0000ff"/>
     <use xlink:href="#m0142ad6462" x="194.574304" y="114.091675" style="fill: #0000ff; stroke: #0000ff"/>
     <use xlink:href="#m0142ad6462" x="228.176518" y="258.029403" style="fill: #0000ff; stroke: #0000ff"/>
     <use xlink:href="#m0142ad6462" x="153.664887" y="177.913253" style="fill: #0000ff; stroke: #0000ff"/>
     <use xlink:href="#m0142ad6462" x="193.088527" y="180.845808" style="fill: #0000ff; stroke: #0000ff"/>
     <use xlink:href="#m0142ad6462" x="288.134436" y="214.743492" style="fill: #0000ff; stroke: #0000ff"/>
     <use xlink:href="#m0142ad6462" x="181.64816" y="183.356683" style="fill: #0000ff; stroke: #0000ff"/>
     <use xlink:href="#m0142ad6462" x="166.910514" y="190.462837" style="fill: #0000ff; stroke: #0000ff"/>
     <use xlink:href="#m0142ad6462" x="145.575032" y="115.03526" style="fill: #0000ff; stroke: #0000ff"/>
     <use xlink:href="#m0142ad6462" x="295.014813" y="167.104518" style="fill: #0000ff; stroke: #0000ff"/>
     <use xlink:href="#m0142ad6462" x="172.308469" y="172.682375" style="fill: #0000ff; stroke: #0000ff"/>
     <use xlink:href="#m0142ad6462" x="277.064404" y="196.801918" style="fill: #0000ff; stroke: #0000ff"/>
     <use xlink:href="#m0142ad6462" x="142.697602" y="98.64394" style="fill: #0000ff; stroke: #0000ff"/>
     <use xlink:href="#m0142ad6462" x="159.238864" y="219.273201" style="fill: #0000ff; stroke: #0000ff"/>
     <use xlink:href="#m0142ad6462" x="181.945726" y="195.659736" style="fill: #0000ff; stroke: #0000ff"/>
     <use xlink:href="#m0142ad6462" x="247.606308" y="53.568" style="fill: #0000ff; stroke: #0000ff"/>
     <use xlink:href="#m0142ad6462" x="256.935235" y="274.422522" style="fill: #0000ff; stroke: #0000ff"/>
     <use xlink:href="#m0142ad6462" x="211.020365" y="260.263442" style="fill: #0000ff; stroke: #0000ff"/>
     <use xlink:href="#m0142ad6462" x="276.408133" y="203.991584" style="fill: #0000ff; stroke: #0000ff"/>
     <use xlink:href="#m0142ad6462" x="205.043795" y="141.044354" style="fill: #0000ff; stroke: #0000ff"/>
     <use xlink:href="#m0142ad6462" x="322.179787" y="196.998702" style="fill: #0000ff; stroke: #0000ff"/>
     <use xlink:href="#m0142ad6462" x="287.171603" y="181.286964" style="fill: #0000ff; stroke: #0000ff"/>
     <use xlink:href="#m0142ad6462" x="218.603" y="144.235721" style="fill: #0000ff; stroke: #0000ff"/>
     <use xlink:href="#m0142ad6462" x="333.768962" y="138.619767" style="fill: #0000ff; stroke: #0000ff"/>
     <use xlink:href="#m0142ad6462" x="210.245748" y="82.877905" style="fill: #0000ff; stroke: #0000ff"/>
     <use xlink:href="#m0142ad6462" x="278.178423" y="97.747086" style="fill: #0000ff; stroke: #0000ff"/>
     <use xlink:href="#m0142ad6462" x="162.028337" y="81.049837" style="fill: #0000ff; stroke: #0000ff"/>
     <use xlink:href="#m0142ad6462" x="189.847234" y="266.892548" style="fill: #0000ff; stroke: #0000ff"/>
     <use xlink:href="#m0142ad6462" x="205.970821" y="54.535496" style="fill: #0000ff; stroke: #0000ff"/>
     <use xlink:href="#m0142ad6462" x="232.910276" y="104.829859" style="fill: #0000ff; stroke: #0000ff"/>
     <use xlink:href="#m0142ad6462" x="137.175051" y="148.842235" style="fill: #0000ff; stroke: #0000ff"/>
     <use xlink:href="#m0142ad6462" x="179.844233" y="224.427275" style="fill: #0000ff; stroke: #0000ff"/>
     <use xlink:href="#m0142ad6462" x="165.646398" y="130.185771" style="fill: #0000ff; stroke: #0000ff"/>
     <use xlink:href="#m0142ad6462" x="245.939374" y="202.701223" style="fill: #0000ff; stroke: #0000ff"/>
     <use xlink:href="#m0142ad6462" x="244.095655" y="236.207676" style="fill: #0000ff; stroke: #0000ff"/>
     <use xlink:href="#m0142ad6462" x="270.211123" y="77.764135" style="fill: #0000ff; stroke: #0000ff"/>
     <use xlink:href="#m0142ad6462" x="229.361532" y="234.726473" style="fill: #0000ff; stroke: #0000ff"/>
     <use xlink:href="#m0142ad6462" x="203.826828" y="92.043164" style="fill: #0000ff; stroke: #0000ff"/>
     <use xlink:href="#m0142ad6462" x="174.912856" y="139.545333" style="fill: #0000ff; stroke: #0000ff"/>
     <use xlink:href="#m0142ad6462" x="235.717594" y="78.901548" style="fill: #0000ff; stroke: #0000ff"/>
     <use xlink:href="#m0142ad6462" x="268.884875" y="140.121704" style="fill: #0000ff; stroke: #0000ff"/>
     <use xlink:href="#m0142ad6462" x="251.610998" y="73.298746" style="fill: #0000ff; stroke: #0000ff"/>
     <use xlink:href="#m0142ad6462" x="186.793568" y="71.064487" style="fill: #0000ff; stroke: #0000ff"/>
     <use xlink:href="#m0142ad6462" x="300.443438" y="143.682613" style="fill: #0000ff; stroke: #0000ff"/>
     <use xlink:href="#m0142ad6462" x="226.464278" y="295.488" style="fill: #0000ff; stroke: #0000ff"/>
     <use xlink:href="#m0142ad6462" x="163.214037" y="240.322467" style="fill: #0000ff; stroke: #0000ff"/>
     <use xlink:href="#m0142ad6462" x="229.024353" y="131.473326" style="fill: #0000ff; stroke: #0000ff"/>
     <use xlink:href="#m0142ad6462" x="265.19498" y="240.933303" style="fill: #0000ff; stroke: #0000ff"/>
     <use xlink:href="#m0142ad6462" x="297.846606" y="269.248291" style="fill: #0000ff; stroke: #0000ff"/>
     <use xlink:href="#m0142ad6462" x="260.231606" y="126.181734" style="fill: #0000ff; stroke: #0000ff"/>
     <use xlink:href="#m0142ad6462" x="191.069871" y="122.692945" style="fill: #0000ff; stroke: #0000ff"/>
     <use xlink:href="#m0142ad6462" x="146.871249" y="162.09148" style="fill: #0000ff; stroke: #0000ff"/>
     <use xlink:href="#m0142ad6462" x="300.863406" y="199.432203" style="fill: #0000ff; stroke: #0000ff"/>
     <use xlink:href="#m0142ad6462" x="294.668185" y="103.458027" style="fill: #0000ff; stroke: #0000ff"/>
     <use xlink:href="#m0142ad6462" x="299.866045" y="231.751043" style="fill: #0000ff; stroke: #0000ff"/>
     <use xlink:href="#m0142ad6462" x="222.618063" y="61.657898" style="fill: #0000ff; stroke: #0000ff"/>
     <use xlink:href="#m0142ad6462" x="178.008612" y="119.316499" style="fill: #0000ff; stroke: #0000ff"/>
     <use xlink:href="#m0142ad6462" x="237.574305" y="283.017921" style="fill: #0000ff; stroke: #0000ff"/>
     <use xlink:href="#m0142ad6462" x="286.589963" y="76.011048" style="fill: #0000ff; stroke: #0000ff"/>
     <use xlink:href="#m0142ad6462" x="221.53243" y="110.896489" style="fill: #0000ff; stroke: #0000ff"/>
     <use xlink:href="#m0142ad6462" x="151.02808" y="162.352248" style="fill: #0000ff; stroke: #0000ff"/>
     <use xlink:href="#m0142ad6462" x="165.098076" y="160.056304" style="fill: #0000ff; stroke: #0000ff"/>
     <use xlink:href="#m0142ad6462" x="290.517726" y="152.967058" style="fill: #0000ff; stroke: #0000ff"/>
     <use xlink:href="#m0142ad6462" x="265.40609" y="198.582347" style="fill: #0000ff; stroke: #0000ff"/>
     <use xlink:href="#m0142ad6462" x="257.192508" y="265.090189" style="fill: #0000ff; stroke: #0000ff"/>
     <use xlink:href="#m0142ad6462" x="313.387179" y="102.597782" style="fill: #0000ff; stroke: #0000ff"/>
     <use xlink:href="#m0142ad6462" x="127.79984" y="131.788301" style="fill: #0000ff; stroke: #0000ff"/>
     <use xlink:href="#m0142ad6462" x="312.039402" y="181.894894" style="fill: #0000ff; stroke: #0000ff"/>
     <use xlink:href="#m0142ad6462" x="317.096503" y="138.642859" style="fill: #0000ff; stroke: #0000ff"/>
     <use xlink:href="#m0142ad6462" x="167.971805" y="228.804358" style="fill: #0000ff; stroke: #0000ff"/>
     <use xlink:href="#m0142ad6462" x="191.037044" y="217.542024" style="fill: #0000ff; stroke: #0000ff"/>
     <use xlink:href="#m0142ad6462" x="348.672268" y="141.355054" style="fill: #0000ff; stroke: #0000ff"/>
    </g>
   </g>
   <g id="Quiver_1">
    <path d="M 185.320334 253.760769 
L 177.65954 244.486376 
L 176.689821 246.676971 
L 172.344897 236.370023 
L 181.64586 242.583205 
L 179.311553 243.121787 
L 186.972347 252.396181 
L 185.320334 253.760769 
" clip-path="url(#p5270c5036d)" style="fill: #ff0000"/>
    <path d="M 167.435413 218.013828 
L 172.467815 226.95348 
L 173.809462 224.968778 
L 176.264178 235.881427 
L 168.207866 228.122086 
L 170.600616 228.004583 
L 165.568215 219.064931 
L 167.435413 218.013828 
" clip-path="url(#p5270c5036d)" style="fill: #ff0000"/>
    <path d="M 280.465396 148.143986 
L 287.201776 153.974354 
L 287.793953 151.653064 
L 293.791374 161.094593 
L 283.58718 156.513549 
L 285.799518 155.594516 
L 279.063139 149.764148 
L 280.465396 148.143986 
" clip-path="url(#p5270c5036d)" style="fill: #ff0000"/>
    <path d="M 122.581581 188.078418 
L 121.410827 176.248245 
L 119.384033 177.525416 
L 121.527389 166.547367 
L 125.780945 176.892357 
L 123.543131 176.037225 
L 124.713884 187.867398 
L 122.581581 188.078418 
" clip-path="url(#p5270c5036d)" style="fill: #ff0000"/>
    <path d="M 219.238272 109.750499 
L 206.934168 115.803021 
L 208.841303 117.252814 
L 197.809177 119.097737 
L 206.00393 111.48475 
L 205.988377 113.880334 
L 218.292481 107.827811 
L 219.238272 109.750499 
" clip-path="url(#p5270c5036d)" style="fill: #ff0000"/>
    <path d="M 281.528233 248.689263 
L 275.843511 254.672646 
L 278.134849 255.37181 
L 268.425408 260.925034 
L 273.474634 250.94421 
L 274.290106 253.196779 
L 279.974828 247.213396 
L 281.528233 248.689263 
" clip-path="url(#p5270c5036d)" style="fill: #ff0000"/>
    <path d="M 245.508399 179.967094 
L 238.504352 167.263039 
L 237.145178 169.23578 
L 234.787215 158.301817 
L 242.774485 166.13221 
L 240.380788 166.228515 
L 247.384835 178.93257 
L 245.508399 179.967094 
" clip-path="url(#p5270c5036d)" style="fill: #ff0000"/>
    <path d="M 171.467331 270.780118 
L 163.064007 260.566846 
L 162.090077 262.755572 
L 157.764987 252.440285 
L 167.053981 258.671347 
L 164.718642 259.205438 
L 173.121966 269.418709 
L 171.467331 270.780118 
" clip-path="url(#p5270c5036d)" style="fill: #ff0000"/>
    <path d="M 332.982827 206.114536 
L 330.309978 215.938218 
L 332.658808 215.466985 
L 326.744745 224.960951 
L 326.456137 213.779348 
L 328.242421 215.375672 
L 330.91527 205.551991 
L 332.982827 206.114536 
" clip-path="url(#p5270c5036d)" style="fill: #ff0000"/>
    <path d="M 219.192221 276.303171 
L 230.208518 276.035423 
L 229.085411 273.919367 
L 239.873943 276.872183 
L 229.2416 280.345629 
L 230.260581 278.17751 
L 219.244284 278.445258 
L 219.192221 276.303171 
" clip-path="url(#p5270c5036d)" style="fill: #ff0000"/>
    <path d="M 165.222008 182.436601 
L 165.146105 176.191452 
L 163.016564 177.288773 
L 166.100203 166.536904 
L 169.444249 177.210651 
L 167.288667 176.165411 
L 167.36457 182.41056 
L 165.222008 182.436601 
" clip-path="url(#p5270c5036d)" style="fill: #ff0000"/>
    <path d="M 318.090381 250.607014 
L 312.34045 259.569425 
L 314.722441 259.824726 
L 306.232045 267.106533 
L 309.312023 256.353613 
L 310.536977 258.412387 
L 316.286909 249.449976 
L 318.090381 250.607014 
" clip-path="url(#p5270c5036d)" style="fill: #ff0000"/>
    <path d="M 275.855961 116.103584 
L 284.790957 119.980747 
L 284.661087 117.588636 
L 293.209847 124.801835 
L 282.102241 123.485546 
L 283.938008 121.946383 
L 275.003012 118.06922 
L 275.855961 116.103584 
" clip-path="url(#p5270c5036d)" style="fill: #ff0000"/>
    <path d="M 190.796799 100.008543 
L 179.759668 107.917337 
L 181.878585 109.035035 
L 171.297875 112.662721 
L 178.13442 103.809858 
L 178.511613 106.175611 
L 189.548744 98.266818 
L 190.796799 100.008543 
" clip-path="url(#p5270c5036d)" style="fill: #ff0000"/>
    <path d="M 313.782143 184.30591 
L 315.06694 173.481703 
L 312.812876 174.293034 
L 317.267355 164.032958 
L 319.196226 175.050716 
L 317.194724 173.734264 
L 315.909926 184.55847 
L 313.782143 184.30591 
" clip-path="url(#p5270c5036d)" style="fill: #ff0000"/>
    <path d="M 252.397408 223.472497 
L 252.620704 224.189556 
L 253.831524 223.025904 
L 253.913315 230.866377 
L 249.529174 224.365684 
L 251.186588 224.636149 
L 250.963291 223.91909 
L 252.397408 223.472497 
" clip-path="url(#p5270c5036d)" style="fill: #ff0000"/>
    <path d="M 230.102268 144.608093 
L 245.152034 143.669283 
L 243.949348 141.597422 
L 254.84227 144.138245 
L 244.349561 148.013112 
L 245.285438 145.807846 
L 230.235673 146.746656 
L 230.102268 144.608093 
" clip-path="url(#p5270c5036d)" style="fill: #ff0000"/>
    <path d="M 266.663212 247.292684 
L 257.289937 253.120944 
L 259.3312 254.374861 
L 248.535841 257.302619 
L 255.93687 248.915945 
L 256.158494 251.301305 
L 265.531769 245.473045 
L 266.663212 247.292684 
" clip-path="url(#p5270c5036d)" style="fill: #ff0000"/>
    <path d="M 143.410598 210.241527 
L 140.353157 198.051618 
L 138.535456 199.612074 
L 139.046549 188.43843 
L 144.770487 198.04822 
L 142.431501 197.530333 
L 145.488941 209.720242 
L 143.410598 210.241527 
" clip-path="url(#p5270c5036d)" style="fill: #ff0000"/>
    <path d="M 304.190484 143.724472 
L 308.514557 154.211011 
L 310.087067 152.403727 
L 311.199802 163.533568 
L 304.144303 154.854197 
L 306.533636 155.027835 
L 302.209563 144.541295 
L 304.190484 143.724472 
" clip-path="url(#p5270c5036d)" style="fill: #ff0000"/>
    <path d="M 310.099046 170.158039 
L 309.896524 180.621871 
L 312.059575 179.592175 
L 308.638779 190.241574 
L 305.632618 179.467785 
L 307.754205 180.580408 
L 307.956727 170.116576 
L 310.099046 170.158039 
" clip-path="url(#p5270c5036d)" style="fill: #ff0000"/>
    <path d="M 242.650426 217.895956 
L 229.167557 218.921222 
L 230.398301 220.976539 
L 219.471841 218.584052 
L 229.910897 214.566884 
L 229.005089 216.78467 
L 242.487958 215.759404 
L 242.650426 217.895956 
" clip-path="url(#p5270c5036d)" style="fill: #ff0000"/>
    <path d="M 326.817497 227.410943 
L 322.37916 237.425658 
L 324.772207 237.314353 
L 317.492894 245.806887 
L 318.895329 234.709828 
L 320.420201 236.557483 
L 324.858538 226.542768 
L 326.817497 227.410943 
" clip-path="url(#p5270c5036d)" style="fill: #ff0000"/>
    <path d="M 293.300464 156.954602 
L 288.295905 145.902999 
L 286.785938 147.762854 
L 285.294326 136.67743 
L 292.641685 145.111163 
L 290.247821 145.019102 
L 295.25238 156.070705 
L 293.300464 156.954602 
" clip-path="url(#p5270c5036d)" style="fill: #ff0000"/>
    <path d="M 177.049133 93.116881 
L 183.419509 84.503178 
L 181.059693 84.090466 
L 190.014322 77.387769 
L 186.227997 87.912753 
L 185.142277 85.777273 
L 178.771901 94.390977 
L 177.049133 93.116881 
" clip-path="url(#p5270c5036d)" style="fill: #ff0000"/>
    <path d="M 221.985987 131.598597 
L 233.23785 126.339164 
L 231.359947 124.851702 
L 242.426605 123.226707 
L 234.081961 130.675093 
L 234.145188 128.280294 
L 222.893325 133.539727 
L 221.985987 131.598597 
" clip-path="url(#p5270c5036d)" style="fill: #ff0000"/>
    <path d="M 276.292111 290.283155 
L 268.051328 293.688083 
L 269.859733 295.259302 
L 258.730689 296.379976 
L 267.405025 289.318288 
L 267.233092 291.707745 
L 275.473875 288.302817 
L 276.292111 290.283155 
" clip-path="url(#p5270c5036d)" style="fill: #ff0000"/>
    <path d="M 262.65403 230.538752 
L 253.021086 235.380592 
L 254.940613 236.813936 
L 243.924756 238.753631 
L 252.053759 231.070478 
L 252.058801 233.466106 
L 261.691745 228.624266 
L 262.65403 230.538752 
" clip-path="url(#p5270c5036d)" style="fill: #ff0000"/>
    <path d="M 301.602901 109.77825 
L 310.296969 120.96311 
L 311.331213 118.80223 
L 315.368625 129.233474 
L 306.255972 122.747249 
L 308.605222 122.278116 
L 299.911154 111.093257 
L 301.602901 109.77825 
" clip-path="url(#p5270c5036d)" style="fill: #ff0000"/>
    <path d="M 193.975858 113.203038 
L 201.091806 108.410854 
L 199.006277 107.232027 
L 209.68798 103.913477 
L 202.596953 112.563846 
L 202.288697 110.188127 
L 195.17275 114.980311 
L 193.975858 113.203038 
" clip-path="url(#p5270c5036d)" style="fill: #ff0000"/>
    <path d="M 228.177143 259.100763 
L 215.095029 259.108392 
L 216.167638 261.250487 
L 205.452166 258.042655 
L 216.163889 254.822328 
L 215.093779 256.965672 
L 228.175894 256.958043 
L 228.177143 259.100763 
" clip-path="url(#p5270c5036d)" style="fill: #ff0000"/>
    <path d="M 152.59354 177.907849 
L 152.649719 166.77054 
L 150.501622 167.831078 
L 153.769702 157.133827 
L 156.9297 167.863503 
L 154.792412 166.781348 
L 154.736233 177.918657 
L 152.59354 177.907849 
" clip-path="url(#p5270c5036d)" style="fill: #ff0000"/>
    <path d="M 192.351085 181.622977 
L 188.065165 177.556145 
L 187.367451 179.847925 
L 181.808086 170.141999 
L 191.792102 175.184911 
L 189.540049 176.001807 
L 193.825969 180.068639 
L 192.351085 181.622977 
" clip-path="url(#p5270c5036d)" style="fill: #ff0000"/>
    <path d="M 288.97929 215.402304 
L 282.366006 223.883126 
L 284.714527 224.355895 
L 275.591846 230.828006 
L 279.645399 220.403024 
L 280.676296 222.565502 
L 287.289581 214.084681 
L 288.97929 215.402304 
" clip-path="url(#p5270c5036d)" style="fill: #ff0000"/>
    <path d="M 180.757299 183.951813 
L 177.854511 179.60658 
L 176.66792 181.687701 
L 173.3892 170.993706 
L 182.013083 178.11692 
L 179.636232 178.41632 
L 182.53902 182.761553 
L 180.757299 183.951813 
" clip-path="url(#p5270c5036d)" style="fill: #ff0000"/>
    <path d="M 165.844286 190.358106 
L 166.966586 178.932376 
L 164.729397 179.789143 
L 168.975394 169.441049 
L 171.12677 180.417529 
L 169.099043 179.141838 
L 167.976743 190.567568 
L 165.844286 190.358106 
" clip-path="url(#p5270c5036d)" style="fill: #ff0000"/>
    <path d="M 144.556371 114.703383 
L 147.278757 106.347309 
L 144.909558 106.702216 
L 151.28431 97.511238 
L 151.021524 108.693477 
L 149.316079 107.011062 
L 146.593693 115.367137 
L 144.556371 114.703383 
" clip-path="url(#p5270c5036d)" style="fill: #ff0000"/>
    <path d="M 296.074892 167.259585 
L 294.826528 175.793721 
L 297.101752 175.043777 
L 292.370845 185.17936 
L 290.741281 174.113374 
L 292.706371 175.483587 
L 293.954735 166.94945 
L 296.074892 167.259585 
" clip-path="url(#p5270c5036d)" style="fill: #ff0000"/>
    <path d="M 171.248371 172.837309 
L 170.163018 165.411075 
L 168.197757 166.781042 
L 169.828705 155.715259 
L 174.558344 165.851434 
L 172.283214 165.101206 
L 173.368566 172.52744 
L 171.248371 172.837309 
" clip-path="url(#p5270c5036d)" style="fill: #ff0000"/>
    <path d="M 277.743588 197.630484 
L 267.05472 206.392273 
L 269.241654 207.370219 
L 258.918447 211.67637 
L 265.166547 202.398827 
L 265.696351 204.735143 
L 276.385219 195.973353 
L 277.743588 197.630484 
" clip-path="url(#p5270c5036d)" style="fill: #ff0000"/>
    <path d="M 141.868772 97.965079 
L 148.680361 89.648715 
L 146.343839 89.119824 
L 155.618939 82.8681 
L 151.316823 93.192989 
L 150.338022 91.006436 
L 143.526433 99.3228 
L 141.868772 97.965079 
" clip-path="url(#p5270c5036d)" style="fill: #ff0000"/>
    <path d="M 158.274148 219.739179 
L 153.865589 210.612127 
L 152.402135 212.508799 
L 150.636501 201.463706 
L 158.19043 209.71293 
L 155.795021 209.680171 
L 160.20358 218.807223 
L 158.274148 219.739179 
" clip-path="url(#p5270c5036d)" style="fill: #ff0000"/>
    <path d="M 182.823002 195.044757 
L 189.311539 204.30075 
L 190.451112 202.193516 
L 193.969071 212.811214 
L 185.187456 205.883389 
L 187.556987 205.530707 
L 181.06845 196.274715 
L 182.823002 195.044757 
" clip-path="url(#p5270c5036d)" style="fill: #ff0000"/>
    <path d="M 247.686062 52.499613 
L 258.032842 53.271991 
L 257.123963 51.055462 
L 267.568573 55.058167 
L 256.645437 57.465786 
L 257.873333 55.408766 
L 247.526553 54.636387 
L 247.686062 52.499613 
" clip-path="url(#p5270c5036d)" style="fill: #ff0000"/>
    <path d="M 257.347317 275.411461 
L 247.359195 279.573427 
L 249.172299 281.139223 
L 238.046662 282.293231 
L 246.699804 275.205589 
L 246.53503 277.595549 
L 256.523152 273.433584 
L 257.347317 275.411461 
" clip-path="url(#p5270c5036d)" style="fill: #ff0000"/>
    <path d="M 210.648259 261.268106 
L 199.716084 257.219061 
L 199.976536 259.600495 
L 191.046216 252.865443 
L 202.209172 253.572512 
L 200.460296 255.209734 
L 211.392471 259.258779 
L 210.648259 261.268106 
" clip-path="url(#p5270c5036d)" style="fill: #ff0000"/>
    <path d="M 277.027844 204.865524 
L 270.388124 209.573752 
L 272.501486 210.70192 
L 261.902956 214.277211 
L 268.78322 205.458282 
L 269.148702 207.825872 
L 275.788422 203.117644 
L 277.027844 204.865524 
" clip-path="url(#p5270c5036d)" style="fill: #ff0000"/>
    <path d="M 204.489546 140.127501 
L 215.154569 133.680362 
L 213.129217 132.400904 
L 223.960499 129.608972 
L 216.454713 137.902024 
L 216.263068 135.514069 
L 205.598044 141.961208 
L 204.489546 140.127501 
" clip-path="url(#p5270c5036d)" style="fill: #ff0000"/>
    <path d="M 323.22556 197.231449 
L 321.159759 206.513417 
L 323.484052 205.93314 
L 318.019255 215.692624 
L 317.209415 204.536653 
L 319.068213 206.047921 
L 321.134014 196.765954 
L 323.22556 197.231449 
" clip-path="url(#p5270c5036d)" style="fill: #ff0000"/>
    <path d="M 288.030613 181.92721 
L 281.652205 190.485031 
L 284.01047 190.906514 
L 275.030981 197.575869 
L 278.856414 187.065037 
L 279.934186 189.204538 
L 286.312594 180.646718 
L 288.030613 181.92721 
" clip-path="url(#p5270c5036d)" style="fill: #ff0000"/>
    <path d="M 218.260692 143.220517 
L 230.952167 138.941191 
L 229.252348 137.253092 
L 240.431304 136.875627 
L 231.306193 143.344312 
L 231.636782 140.971597 
L 218.945307 145.250924 
L 218.260692 143.220517 
" clip-path="url(#p5270c5036d)" style="fill: #ff0000"/>
    <path d="M 334.81446 138.385786 
L 337.478953 150.291526 
L 339.335967 148.778065 
L 338.539288 159.934984 
L 333.062982 150.181954 
L 335.387958 150.759488 
L 332.723465 138.853748 
L 334.81446 138.385786 
" clip-path="url(#p5270c5036d)" style="fill: #ff0000"/>
    <path d="M 209.799879 81.903732 
L 218.912059 77.733178 
L 217.046148 76.230701 
L 228.125485 74.694528 
L 219.721363 82.075739 
L 219.803798 79.681524 
L 210.691617 83.852078 
L 209.799879 81.903732 
" clip-path="url(#p5270c5036d)" style="fill: #ff0000"/>
    <path d="M 278.743505 96.83687 
L 286.029902 101.360423 
L 286.24985 98.974907 
L 293.656769 107.35638 
L 282.859356 104.436207 
L 284.899737 103.180856 
L 277.613341 98.657303 
L 278.743505 96.83687 
" clip-path="url(#p5270c5036d)" style="fill: #ff0000"/>
    <path d="M 161.402887 80.179995 
L 170.974888 73.297352 
L 168.854146 72.183119 
L 179.428912 68.538143 
L 172.606847 77.402169 
L 172.225788 75.037036 
L 162.653787 81.919678 
L 161.402887 80.179995 
" clip-path="url(#p5270c5036d)" style="fill: #ff0000"/>
    <path d="M 189.089679 267.650125 
L 181.560814 260.121479 
L 180.803281 262.394188 
L 175.500176 252.545908 
L 185.34861 257.848726 
L 183.075924 258.606325 
L 190.604789 266.134971 
L 189.089679 267.650125 
" clip-path="url(#p5270c5036d)" style="fill: #ff0000"/>
    <path d="M 205.873297 53.468584 
L 215.994943 52.543384 
L 214.732982 50.507084 
L 225.694675 52.732577 
L 215.318128 56.908556 
L 216.189991 54.677208 
L 206.068345 55.602408 
L 205.873297 53.468584 
" clip-path="url(#p5270c5036d)" style="fill: #ff0000"/>
    <path d="M 232.708113 103.777746 
L 245.501149 101.319574 
L 244.04471 99.41751 
L 255.172331 100.552222 
L 245.257686 105.73019 
L 245.905474 103.423801 
L 233.112438 105.881973 
L 232.708113 103.777746 
" clip-path="url(#p5270c5036d)" style="fill: #ff0000"/>
    <path d="M 136.105633 148.777767 
L 136.859236 136.27673 
L 134.655931 137.217213 
L 138.508866 126.716431 
L 141.072442 137.604021 
L 138.998073 136.405666 
L 138.24447 148.906703 
L 136.105633 148.777767 
" clip-path="url(#p5270c5036d)" style="fill: #ff0000"/>
    <path d="M 179.254189 225.321512 
L 173.839799 221.748931 
L 173.553946 224.127449 
L 166.381714 215.54429 
L 177.094215 218.762029 
L 175.019889 219.960458 
L 180.434278 223.533038 
L 179.254189 225.321512 
" clip-path="url(#p5270c5036d)" style="fill: #ff0000"/>
    <path d="M 164.762893 129.579775 
L 170.27725 121.540174 
L 167.904244 121.211688 
L 176.614716 114.194623 
L 173.205276 124.847662 
L 172.044261 122.752166 
L 166.529904 130.791767 
L 164.762893 129.579775 
" clip-path="url(#p5270c5036d)" style="fill: #ff0000"/>
    <path d="M 245.079684 203.340555 
L 236.846206 192.269234 
L 235.766156 194.407588 
L 231.951914 183.892689 
L 240.924299 190.571599 
L 238.565587 190.990572 
L 246.799065 202.061892 
L 245.079684 203.340555 
" clip-path="url(#p5270c5036d)" style="fill: #ff0000"/>
    <path d="M 244.383163 237.239738 
L 230.730284 241.043109 
L 232.337362 242.819724 
L 221.154221 242.59862 
L 230.612313 236.627354 
L 230.155268 238.978985 
L 243.808147 235.175615 
L 244.383163 237.239738 
" clip-path="url(#p5270c5036d)" style="fill: #ff0000"/>
    <path d="M 270.772862 76.851851 
L 278.940463 81.881047 
L 279.151656 79.49474 
L 286.589281 87.848977 
L 275.781225 84.968445 
L 277.816986 83.705615 
L 269.649385 78.676419 
L 270.772862 76.851851 
" clip-path="url(#p5270c5036d)" style="fill: #ff0000"/>
    <path d="M 229.72998 233.720462 
L 240.513048 237.669723 
L 240.243933 235.289253 
L 249.1987 241.991766 
L 238.033245 241.325319 
L 239.776152 239.681745 
L 228.993084 235.732484 
L 229.72998 233.720462 
" clip-path="url(#p5270c5036d)" style="fill: #ff0000"/>
    <path d="M 203.371485 91.073383 
L 211.147142 87.42246 
L 209.266674 85.938242 
L 220.330511 84.294149 
L 211.998735 91.756926 
L 212.057829 89.362021 
L 204.282172 93.012945 
L 203.371485 91.073383 
" clip-path="url(#p5270c5036d)" style="fill: #ff0000"/>
    <path d="M 175.937901 139.856933 
L 174.034451 146.118546 
L 176.396141 145.716702 
L 170.205001 155.032351 
L 170.245871 143.847099 
L 171.984361 145.495345 
L 173.887811 139.233732 
L 175.937901 139.856933 
" clip-path="url(#p5270c5036d)" style="fill: #ff0000"/>
    <path d="M 235.586099 77.838288 
L 245.729867 76.583796 
L 244.403618 74.588771 
L 255.4307 76.463604 
L 245.192586 80.96833 
L 245.992857 78.710316 
L 235.849088 79.964808 
L 235.586099 77.838288 
" clip-path="url(#p5270c5036d)" style="fill: #ff0000"/>
    <path d="M 269.350581 139.156857 
L 276.594686 142.653385 
L 276.561249 140.257984 
L 284.81261 147.809579 
L 273.767018 146.04707 
L 275.663276 144.58308 
L 268.41917 141.086552 
L 269.350581 139.156857 
" clip-path="url(#p5270c5036d)" style="fill: #ff0000"/>
    <path d="M 251.732045 72.234246 
L 262.225429 73.427474 
L 261.403023 71.177427 
L 271.684881 75.581395 
L 260.676742 77.564426 
L 261.983336 75.556473 
L 251.489951 74.363245 
L 251.732045 72.234246 
" clip-path="url(#p5270c5036d)" style="fill: #ff0000"/>
    <path d="M 186.40747 70.065117 
L 194.017282 67.125133 
L 192.245716 65.51249 
L 203.397711 64.649621 
L 194.562303 71.508711 
L 194.789478 69.123873 
L 187.179666 72.063857 
L 186.40747 70.065117 
" clip-path="url(#p5270c5036d)" style="fill: #ff0000"/>
    <path d="M 301.364809 143.135908 
L 305.703117 150.447336 
L 306.999156 148.432554 
L 309.70209 159.286386 
L 301.470925 151.712784 
L 303.860374 151.540746 
L 299.522066 144.229318 
L 301.364809 143.135908 
" clip-path="url(#p5270c5036d)" style="fill: #ff0000"/>
    <path d="M 226.17647 296.519978 
L 215.517166 293.547205 
L 215.973527 295.898969 
L 206.517172 289.924952 
L 217.700377 289.707101 
L 216.092782 291.483249 
L 226.752086 294.456022 
L 226.17647 296.519978 
" clip-path="url(#p5270c5036d)" style="fill: #ff0000"/>
    <path d="M 162.303752 240.887439 
L 155.524134 229.964088 
L 154.268536 232.004317 
L 151.349673 221.206549 
L 159.730247 228.614486 
L 157.344705 228.834144 
L 164.124322 239.757495 
L 162.303752 240.887439 
" clip-path="url(#p5270c5036d)" style="fill: #ff0000"/>
    <path d="M 228.31982 132.280448 
L 222.260002 126.990858 
L 221.658058 129.309635 
L 215.700441 119.842939 
L 225.885256 124.466905 
L 223.669068 125.376615 
L 229.728886 130.666205 
L 228.31982 132.280448 
" clip-path="url(#p5270c5036d)" style="fill: #ff0000"/>
    <path d="M 265.592742 239.938518 
L 268.976 241.291305 
L 268.77674 238.903973 
L 277.531304 245.865951 
L 266.390166 244.872683 
L 268.180475 243.280875 
L 264.797217 241.928088 
L 265.592742 239.938518 
" clip-path="url(#p5270c5036d)" style="fill: #ff0000"/>
    <path d="M 298.593412 270.016467 
L 291.501392 276.911194 
L 293.763179 277.700739 
L 283.841007 282.864269 
L 289.282345 273.091686 
L 290.007781 275.374843 
L 297.099801 268.480116 
L 298.593412 270.016467 
" clip-path="url(#p5270c5036d)" style="fill: #ff0000"/>
    <path d="M 260.662873 125.201009 
L 269.362493 129.026612 
L 269.244303 126.633896 
L 277.757747 133.888744 
L 266.656699 132.518243 
L 268.499958 130.988061 
L 259.800338 127.162458 
L 260.662873 125.201009 
" clip-path="url(#p5270c5036d)" style="fill: #ff0000"/>
    <path d="M 191.546435 123.360381 
L 190.879 123.836945 
L 192.499564 124.695253 
L 184.395513 127.458587 
L 189.640179 120.690638 
L 189.925871 122.502074 
L 190.593307 122.02551 
L 191.546435 123.360381 
" clip-path="url(#p5270c5036d)" style="fill: #ff0000"/>
    <path d="M 145.808063 162.223567 
L 144.403839 150.920768 
L 142.409553 152.248128 
L 144.278242 141.220003 
L 148.788671 151.455606 
L 146.530211 150.656594 
L 147.934436 161.959393 
L 145.808063 162.223567 
" clip-path="url(#p5270c5036d)" style="fill: #ff0000"/>
    <path d="M 301.867821 199.804981 
L 298.592193 208.630843 
L 300.9738 208.371985 
L 294.232775 217.297797 
L 294.947313 206.135316 
L 296.583364 207.885287 
L 299.858992 199.059425 
L 301.867821 199.804981 
" clip-path="url(#p5270c5036d)" style="fill: #ff0000"/>
    <path d="M 295.39894 102.674568 
L 302.535162 109.330734 
L 303.213214 107.03306 
L 308.85554 116.690994 
L 298.82868 111.733815 
L 301.073651 110.897652 
L 293.937429 104.241486 
L 295.39894 102.674568 
" clip-path="url(#p5270c5036d)" style="fill: #ff0000"/>
    <path d="M 300.769998 232.326093 
L 294.885904 241.57563 
L 297.268858 241.821776 
L 288.806505 249.136153 
L 291.845143 238.371479 
L 293.077998 240.425531 
L 298.962092 231.175994 
L 300.769998 232.326093 
" clip-path="url(#p5270c5036d)" style="fill: #ff0000"/>
    <path d="M 222.577171 60.587318 
L 233.823878 60.157742 
L 232.671515 58.057475 
L 243.499983 60.860298 
L 232.916865 64.480951 
L 233.905661 62.298901 
L 222.658954 62.728477 
L 222.577171 60.587318 
" clip-path="url(#p5270c5036d)" style="fill: #ff0000"/>
    <path d="M 177.183071 118.633641 
L 183.536225 110.953001 
L 181.202286 110.412826 
L 190.507487 104.205993 
L 186.15553 114.509973 
L 185.187306 112.318717 
L 178.834153 119.999357 
L 177.183071 118.633641 
" clip-path="url(#p5270c5036d)" style="fill: #ff0000"/>
    <path d="M 237.398315 284.074727 
L 226.218402 282.21293 
L 226.923227 284.502533 
L 216.883136 279.572209 
L 227.97917 278.161695 
L 226.570383 280.099317 
L 237.750296 281.961114 
L 237.398315 284.074727 
" clip-path="url(#p5270c5036d)" style="fill: #ff0000"/>
    <path d="M 287.102566 75.070277 
L 296.514181 80.198431 
L 296.598615 77.804285 
L 304.46852 85.752627 
L 293.522999 83.448913 
L 295.488975 82.079973 
L 286.07736 76.951819 
L 287.102566 75.070277 
" clip-path="url(#p5270c5036d)" style="fill: #ff0000"/>
    <path d="M 221.54145 111.967811 
L 211.755635 112.050203 
L 212.844997 114.183827 
L 202.104716 111.060062 
L 212.790876 107.755895 
L 211.737595 109.907559 
L 221.52341 109.825167 
L 221.54145 111.967811 
" clip-path="url(#p5270c5036d)" style="fill: #ff0000"/>
    <path d="M 149.956757 162.343299 
L 150.0454 151.732025 
L 147.893805 152.785449 
L 151.197267 142.099071 
L 154.321741 152.839145 
L 152.188045 151.749924 
L 152.099402 162.361198 
L 149.956757 162.343299 
" clip-path="url(#p5270c5036d)" style="fill: #ff0000"/>
    <path d="M 164.048367 159.84201 
L 166.444062 148.1068 
L 164.130349 148.727922 
L 169.422418 138.873708 
L 170.428607 150.013686 
L 168.543482 148.535388 
L 166.147786 160.270598 
L 164.048367 159.84201 
" clip-path="url(#p5270c5036d)" style="fill: #ff0000"/>
    <path d="M 291.215975 152.154494 
L 297.799899 157.812162 
L 298.383833 155.488784 
L 304.414728 164.908967 
L 294.194339 160.364169 
L 296.403401 159.43729 
L 289.819477 153.779622 
L 291.215975 152.154494 
" clip-path="url(#p5270c5036d)" style="fill: #ff0000"/>
    <path d="M 265.752543 199.596143 
L 259.083391 201.875247 
L 260.790093 203.556386 
L 249.612773 203.979526 
L 258.711376 197.473609 
L 258.390485 199.847654 
L 265.059637 197.56855 
L 265.752543 199.596143 
" clip-path="url(#p5270c5036d)" style="fill: #ff0000"/>
    <path d="M 257.653741 266.057182 
L 247.471894 270.913679 
L 249.361353 272.386434 
L 238.307719 274.09778 
L 246.593957 266.584472 
L 246.549428 268.979692 
L 256.731276 264.123195 
L 257.653741 266.057182 
" clip-path="url(#p5270c5036d)" style="fill: #ff0000"/>
    <path d="M 314.271384 101.992808 
L 321.941235 113.202745 
L 323.104671 111.108592 
L 326.501797 121.765565 
L 317.799441 114.738437 
L 320.172825 114.412693 
L 312.502973 103.202756 
L 314.271384 101.992808 
" clip-path="url(#p5270c5036d)" style="fill: #ff0000"/>
    <path d="M 126.772223 131.485291 
L 129.463991 122.356525 
L 127.105747 122.778123 
L 133.218699 113.410981 
L 133.27145 124.596183 
L 131.519226 122.962546 
L 128.827457 132.091311 
L 126.772223 131.485291 
" clip-path="url(#p5270c5036d)" style="fill: #ff0000"/>
    <path d="M 313.088978 182.10984 
L 311.123892 191.70532 
L 313.43799 191.085635 
L 308.139803 200.936562 
L 307.140532 189.795961 
L 309.024739 191.275429 
L 310.989825 181.679949 
L 313.088978 182.10984 
" clip-path="url(#p5270c5036d)" style="fill: #ff0000"/>
    <path d="M 318.097123 138.260013 
L 322.126927 148.792472 
L 323.745323 147.02616 
L 324.571916 158.180903 
L 317.741599 149.323233 
L 320.125686 149.558163 
L 316.095882 139.025704 
L 318.097123 138.260013 
" clip-path="url(#p5270c5036d)" style="fill: #ff0000"/>
    <path d="M 167.303187 229.641473 
L 161.692539 225.160147 
L 161.192416 227.502996 
L 154.827125 218.305464 
L 165.204129 222.480307 
L 163.029777 223.485918 
L 168.640424 227.967244 
L 167.303187 229.641473 
" clip-path="url(#p5270c5036d)" style="fill: #ff0000"/>
    <path d="M 190.503905 218.471311 
L 185.066796 215.351999 
L 184.929805 217.743713 
L 177.236351 209.624458 
L 188.128641 212.16799 
L 186.133075 213.493425 
L 191.570183 216.612737 
L 190.503905 218.471311 
" clip-path="url(#p5270c5036d)" style="fill: #ff0000"/>
    <path d="M 347.600953 141.364897 
L 347.524094 132.999555 
L 345.391308 134.090556 
L 348.506823 123.347879 
L 351.819196 134.031498 
L 349.666724 132.979869 
L 349.743582 141.345211 
L 347.600953 141.364897 
" clip-path="url(#p5270c5036d)" style="fill: #ff0000"/>
   </g>
   <g id="matplotlib.axis_1">
    <g id="xtick_1">
     <g id="line2d_1">
      <defs>
       <path id="m6538c7790b" d="M 0 0 
L 0 3.5 
" style="stroke: #000000; stroke-width: 0.8"/>
      </defs>
      <g>
       <use xlink:href="#m6538c7790b" x="76.535306" y="307.584" style="stroke: #000000; stroke-width: 0.8"/>
      </g>
     </g>
     <g id="text_1">
      <!-- −1.5 -->
      <g transform="translate(61.965618 323.702125) scale(0.12 -0.12)">
       <defs>
        <path id="DejaVuSans-2212" d="M 678 2272 
L 4684 2272 
L 4684 1741 
L 678 1741 
L 678 2272 
z
" transform="scale(0.015625)"/>
        <path id="DejaVuSans-31" d="M 794 531 
L 1825 531 
L 1825 4091 
L 703 3866 
L 703 4441 
L 1819 4666 
L 2450 4666 
L 2450 531 
L 3481 531 
L 3481 0 
L 794 0 
L 794 531 
z
" transform="scale(0.015625)"/>
        <path id="DejaVuSans-2e" d="M 684 794 
L 1344 794 
L 1344 0 
L 684 0 
L 684 794 
z
" transform="scale(0.015625)"/>
        <path id="DejaVuSans-35" d="M 691 4666 
L 3169 4666 
L 3169 4134 
L 1269 4134 
L 1269 2991 
Q 1406 3038 1543 3061 
Q 1681 3084 1819 3084 
Q 2600 3084 3056 2656 
Q 3513 2228 3513 1497 
Q 3513 744 3044 326 
Q 2575 -91 1722 -91 
Q 1428 -91 1123 -41 
Q 819 9 494 109 
L 494 744 
Q 775 591 1075 516 
Q 1375 441 1709 441 
Q 2250 441 2565 725 
Q 2881 1009 2881 1497 
Q 2881 1984 2565 2268 
Q 2250 2553 1709 2553 
Q 1456 2553 1204 2497 
Q 953 2441 691 2322 
L 691 4666 
z
" transform="scale(0.015625)"/>
       </defs>
       <use xlink:href="#DejaVuSans-2212"/>
       <use xlink:href="#DejaVuSans-31" x="83.789062"/>
       <use xlink:href="#DejaVuSans-2e" x="147.412109"/>
       <use xlink:href="#DejaVuSans-35" x="179.199219"/>
      </g>
     </g>
    </g>
    <g id="xtick_2">
     <g id="line2d_2">
      <g>
       <use xlink:href="#m6538c7790b" x="117.006681" y="307.584" style="stroke: #000000; stroke-width: 0.8"/>
      </g>
     </g>
     <g id="text_2">
      <!-- −1.0 -->
      <g transform="translate(102.436994 323.702125) scale(0.12 -0.12)">
       <defs>
        <path id="DejaVuSans-30" d="M 2034 4250 
Q 1547 4250 1301 3770 
Q 1056 3291 1056 2328 
Q 1056 1369 1301 889 
Q 1547 409 2034 409 
Q 2525 409 2770 889 
Q 3016 1369 3016 2328 
Q 3016 3291 2770 3770 
Q 2525 4250 2034 4250 
z
M 2034 4750 
Q 2819 4750 3233 4129 
Q 3647 3509 3647 2328 
Q 3647 1150 3233 529 
Q 2819 -91 2034 -91 
Q 1250 -91 836 529 
Q 422 1150 422 2328 
Q 422 3509 836 4129 
Q 1250 4750 2034 4750 
z
" transform="scale(0.015625)"/>
       </defs>
       <use xlink:href="#DejaVuSans-2212"/>
       <use xlink:href="#DejaVuSans-31" x="83.789062"/>
       <use xlink:href="#DejaVuSans-2e" x="147.412109"/>
       <use xlink:href="#DejaVuSans-30" x="179.199219"/>
      </g>
     </g>
    </g>
    <g id="xtick_3">
     <g id="line2d_3">
      <g>
       <use xlink:href="#m6538c7790b" x="157.478057" y="307.584" style="stroke: #000000; stroke-width: 0.8"/>
      </g>
     </g>
     <g id="text_3">
      <!-- −0.5 -->
      <g transform="translate(142.90837 323.702125) scale(0.12 -0.12)">
       <use xlink:href="#DejaVuSans-2212"/>
       <use xlink:href="#DejaVuSans-30" x="83.789062"/>
       <use xlink:href="#DejaVuSans-2e" x="147.412109"/>
       <use xlink:href="#DejaVuSans-35" x="179.199219"/>
      </g>
     </g>
    </g>
    <g id="xtick_4">
     <g id="line2d_4">
      <g>
       <use xlink:href="#m6538c7790b" x="197.949433" y="307.584" style="stroke: #000000; stroke-width: 0.8"/>
      </g>
     </g>
     <g id="text_4">
      <!-- 0.0 -->
      <g transform="translate(188.407558 323.702125) scale(0.12 -0.12)">
       <use xlink:href="#DejaVuSans-30"/>
       <use xlink:href="#DejaVuSans-2e" x="63.623047"/>
       <use xlink:href="#DejaVuSans-30" x="95.410156"/>
      </g>
     </g>
    </g>
    <g id="xtick_5">
     <g id="line2d_5">
      <g>
       <use xlink:href="#m6538c7790b" x="238.420809" y="307.584" style="stroke: #000000; stroke-width: 0.8"/>
      </g>
     </g>
     <g id="text_5">
      <!-- 0.5 -->
      <g transform="translate(228.878934 323.702125) scale(0.12 -0.12)">
       <use xlink:href="#DejaVuSans-30"/>
       <use xlink:href="#DejaVuSans-2e" x="63.623047"/>
       <use xlink:href="#DejaVuSans-35" x="95.410156"/>
      </g>
     </g>
    </g>
    <g id="xtick_6">
     <g id="line2d_6">
      <g>
       <use xlink:href="#m6538c7790b" x="278.892184" y="307.584" style="stroke: #000000; stroke-width: 0.8"/>
      </g>
     </g>
     <g id="text_6">
      <!-- 1.0 -->
      <g transform="translate(269.350309 323.702125) scale(0.12 -0.12)">
       <use xlink:href="#DejaVuSans-31"/>
       <use xlink:href="#DejaVuSans-2e" x="63.623047"/>
       <use xlink:href="#DejaVuSans-30" x="95.410156"/>
      </g>
     </g>
    </g>
    <g id="xtick_7">
     <g id="line2d_7">
      <g>
       <use xlink:href="#m6538c7790b" x="319.36356" y="307.584" style="stroke: #000000; stroke-width: 0.8"/>
      </g>
     </g>
     <g id="text_7">
      <!-- 1.5 -->
      <g transform="translate(309.821685 323.702125) scale(0.12 -0.12)">
       <use xlink:href="#DejaVuSans-31"/>
       <use xlink:href="#DejaVuSans-2e" x="63.623047"/>
       <use xlink:href="#DejaVuSans-35" x="95.410156"/>
      </g>
     </g>
    </g>
    <g id="xtick_8">
     <g id="line2d_8">
      <g>
       <use xlink:href="#m6538c7790b" x="359.834936" y="307.584" style="stroke: #000000; stroke-width: 0.8"/>
      </g>
     </g>
     <g id="text_8">
      <!-- 2.0 -->
      <g transform="translate(350.293061 323.702125) scale(0.12 -0.12)">
       <defs>
        <path id="DejaVuSans-32" d="M 1228 531 
L 3431 531 
L 3431 0 
L 469 0 
L 469 531 
Q 828 903 1448 1529 
Q 2069 2156 2228 2338 
Q 2531 2678 2651 2914 
Q 2772 3150 2772 3378 
Q 2772 3750 2511 3984 
Q 2250 4219 1831 4219 
Q 1534 4219 1204 4116 
Q 875 4013 500 3803 
L 500 4441 
Q 881 4594 1212 4672 
Q 1544 4750 1819 4750 
Q 2544 4750 2975 4387 
Q 3406 4025 3406 3419 
Q 3406 3131 3298 2873 
Q 3191 2616 2906 2266 
Q 2828 2175 2409 1742 
Q 1991 1309 1228 531 
z
" transform="scale(0.015625)"/>
       </defs>
       <use xlink:href="#DejaVuSans-32"/>
       <use xlink:href="#DejaVuSans-2e" x="63.623047"/>
       <use xlink:href="#DejaVuSans-30" x="95.410156"/>
      </g>
     </g>
    </g>
    <g id="xtick_9">
     <g id="line2d_9">
      <g>
       <use xlink:href="#m6538c7790b" x="400.306312" y="307.584" style="stroke: #000000; stroke-width: 0.8"/>
      </g>
     </g>
     <g id="text_9">
      <!-- 2.5 -->
      <g transform="translate(390.764437 323.702125) scale(0.12 -0.12)">
       <use xlink:href="#DejaVuSans-32"/>
       <use xlink:href="#DejaVuSans-2e" x="63.623047"/>
       <use xlink:href="#DejaVuSans-35" x="95.410156"/>
      </g>
     </g>
    </g>
    <g id="text_10">
     <!-- x -->
     <g transform="translate(232.016875 340.835562) scale(0.14 -0.14)">
      <defs>
       <path id="DejaVuSans-78" d="M 3513 3500 
L 2247 1797 
L 3578 0 
L 2900 0 
L 1881 1375 
L 863 0 
L 184 0 
L 1544 1831 
L 300 3500 
L 978 3500 
L 1906 2253 
L 2834 3500 
L 3513 3500 
z
" transform="scale(0.015625)"/>
      </defs>
      <use xlink:href="#DejaVuSans-78"/>
     </g>
    </g>
   </g>
   <g id="matplotlib.axis_2">
    <g id="ytick_1">
     <g id="line2d_10">
      <defs>
       <path id="m0905c7b80e" d="M 0 0 
L -3.5 0 
" style="stroke: #000000; stroke-width: 0.8"/>
      </defs>
      <g>
       <use xlink:href="#m0905c7b80e" x="57.6" y="292.001007" style="stroke: #000000; stroke-width: 0.8"/>
      </g>
     </g>
     <g id="text_11">
      <!-- −1.0 -->
      <g transform="translate(21.460625 296.56007) scale(0.12 -0.12)">
       <use xlink:href="#DejaVuSans-2212"/>
       <use xlink:href="#DejaVuSans-31" x="83.789062"/>
       <use xlink:href="#DejaVuSans-2e" x="147.412109"/>
       <use xlink:href="#DejaVuSans-30" x="179.199219"/>
      </g>
     </g>
    </g>
    <g id="ytick_2">
     <g id="line2d_11">
      <g>
       <use xlink:href="#m0905c7b80e" x="57.6" y="251.529631" style="stroke: #000000; stroke-width: 0.8"/>
      </g>
     </g>
     <g id="text_12">
      <!-- −0.5 -->
      <g transform="translate(21.460625 256.088694) scale(0.12 -0.12)">
       <use xlink:href="#DejaVuSans-2212"/>
       <use xlink:href="#DejaVuSans-30" x="83.789062"/>
       <use xlink:href="#DejaVuSans-2e" x="147.412109"/>
       <use xlink:href="#DejaVuSans-35" x="179.199219"/>
      </g>
     </g>
    </g>
    <g id="ytick_3">
     <g id="line2d_12">
      <g>
       <use xlink:href="#m0905c7b80e" x="57.6" y="211.058256" style="stroke: #000000; stroke-width: 0.8"/>
      </g>
     </g>
     <g id="text_13">
      <!-- 0.0 -->
      <g transform="translate(31.51625 215.617318) scale(0.12 -0.12)">
       <use xlink:href="#DejaVuSans-30"/>
       <use xlink:href="#DejaVuSans-2e" x="63.623047"/>
       <use xlink:href="#DejaVuSans-30" x="95.410156"/>
      </g>
     </g>
    </g>
    <g id="ytick_4">
     <g id="line2d_13">
      <g>
       <use xlink:href="#m0905c7b80e" x="57.6" y="170.58688" style="stroke: #000000; stroke-width: 0.8"/>
      </g>
     </g>
     <g id="text_14">
      <!-- 0.5 -->
      <g transform="translate(31.51625 175.145942) scale(0.12 -0.12)">
       <use xlink:href="#DejaVuSans-30"/>
       <use xlink:href="#DejaVuSans-2e" x="63.623047"/>
       <use xlink:href="#DejaVuSans-35" x="95.410156"/>
      </g>
     </g>
    </g>
    <g id="ytick_5">
     <g id="line2d_14">
      <g>
       <use xlink:href="#m0905c7b80e" x="57.6" y="130.115504" style="stroke: #000000; stroke-width: 0.8"/>
      </g>
     </g>
     <g id="text_15">
      <!-- 1.0 -->
      <g transform="translate(31.51625 134.674567) scale(0.12 -0.12)">
       <use xlink:href="#DejaVuSans-31"/>
       <use xlink:href="#DejaVuSans-2e" x="63.623047"/>
       <use xlink:href="#DejaVuSans-30" x="95.410156"/>
      </g>
     </g>
    </g>
    <g id="ytick_6">
     <g id="line2d_15">
      <g>
       <use xlink:href="#m0905c7b80e" x="57.6" y="89.644128" style="stroke: #000000; stroke-width: 0.8"/>
      </g>
     </g>
     <g id="text_16">
      <!-- 1.5 -->
      <g transform="translate(31.51625 94.203191) scale(0.12 -0.12)">
       <use xlink:href="#DejaVuSans-31"/>
       <use xlink:href="#DejaVuSans-2e" x="63.623047"/>
       <use xlink:href="#DejaVuSans-35" x="95.410156"/>
      </g>
     </g>
    </g>
    <g id="ytick_7">
     <g id="line2d_16">
      <g>
       <use xlink:href="#m0905c7b80e" x="57.6" y="49.172753" style="stroke: #000000; stroke-width: 0.8"/>
      </g>
     </g>
     <g id="text_17">
      <!-- 2.0 -->
      <g transform="translate(31.51625 53.731815) scale(0.12 -0.12)">
       <use xlink:href="#DejaVuSans-32"/>
       <use xlink:href="#DejaVuSans-2e" x="63.623047"/>
       <use xlink:href="#DejaVuSans-30" x="95.410156"/>
      </g>
     </g>
    </g>
    <g id="text_18">
     <!-- y -->
     <g transform="translate(14.549063 178.671125) rotate(-90) scale(0.14 -0.14)">
      <defs>
       <path id="DejaVuSans-79" d="M 2059 -325 
Q 1816 -950 1584 -1140 
Q 1353 -1331 966 -1331 
L 506 -1331 
L 506 -850 
L 844 -850 
Q 1081 -850 1212 -737 
Q 1344 -625 1503 -206 
L 1606 56 
L 191 3500 
L 800 3500 
L 1894 763 
L 2988 3500 
L 3597 3500 
L 2059 -325 
z
" transform="scale(0.015625)"/>
      </defs>
      <use xlink:href="#DejaVuSans-79"/>
     </g>
    </g>
   </g>
   <g id="patch_3">
    <path d="M 57.6 307.584 
L 57.6 41.472 
" style="fill: none; stroke: #000000; stroke-width: 0.8; stroke-linejoin: miter; stroke-linecap: square"/>
   </g>
   <g id="patch_4">
    <path d="M 414.72 307.584 
L 414.72 41.472 
" style="fill: none; stroke: #000000; stroke-width: 0.8; stroke-linejoin: miter; stroke-linecap: square"/>
   </g>
   <g id="patch_5">
    <path d="M 57.6 307.584 
L 414.72 307.584 
" style="fill: none; stroke: #000000; stroke-width: 0.8; stroke-linejoin: miter; stroke-linecap: square"/>
   </g>
   <g id="patch_6">
    <path d="M 57.6 41.472 
L 414.72 41.472 
" style="fill: none; stroke: #000000; stroke-width: 0.8; stroke-linejoin: miter; stroke-linecap: square"/>
   </g>
   <g id="text_19">
    <!-- Velocities at the final time -->
    <g transform="translate(116.81 35.472) scale(0.16 -0.16)">
     <defs>
      <path id="DejaVuSans-Bold-56" d="M 31 4666 
L 1241 4666 
L 2478 1222 
L 3713 4666 
L 4922 4666 
L 3194 0 
L 1759 0 
L 31 4666 
z
" transform="scale(0.015625)"/>
      <path id="DejaVuSans-Bold-65" d="M 4031 1759 
L 4031 1441 
L 1416 1441 
Q 1456 1047 1700 850 
Q 1944 653 2381 653 
Q 2734 653 3104 758 
Q 3475 863 3866 1075 
L 3866 213 
Q 3469 63 3072 -14 
Q 2675 -91 2278 -91 
Q 1328 -91 801 392 
Q 275 875 275 1747 
Q 275 2603 792 3093 
Q 1309 3584 2216 3584 
Q 3041 3584 3536 3087 
Q 4031 2591 4031 1759 
z
M 2881 2131 
Q 2881 2450 2695 2645 
Q 2509 2841 2209 2841 
Q 1884 2841 1681 2658 
Q 1478 2475 1428 2131 
L 2881 2131 
z
" transform="scale(0.015625)"/>
      <path id="DejaVuSans-Bold-6c" d="M 538 4863 
L 1656 4863 
L 1656 0 
L 538 0 
L 538 4863 
z
" transform="scale(0.015625)"/>
      <path id="DejaVuSans-Bold-6f" d="M 2203 2784 
Q 1831 2784 1636 2517 
Q 1441 2250 1441 1747 
Q 1441 1244 1636 976 
Q 1831 709 2203 709 
Q 2569 709 2762 976 
Q 2956 1244 2956 1747 
Q 2956 2250 2762 2517 
Q 2569 2784 2203 2784 
z
M 2203 3584 
Q 3106 3584 3614 3096 
Q 4122 2609 4122 1747 
Q 4122 884 3614 396 
Q 3106 -91 2203 -91 
Q 1297 -91 786 396 
Q 275 884 275 1747 
Q 275 2609 786 3096 
Q 1297 3584 2203 3584 
z
" transform="scale(0.015625)"/>
      <path id="DejaVuSans-Bold-63" d="M 3366 3391 
L 3366 2478 
Q 3138 2634 2908 2709 
Q 2678 2784 2431 2784 
Q 1963 2784 1702 2511 
Q 1441 2238 1441 1747 
Q 1441 1256 1702 982 
Q 1963 709 2431 709 
Q 2694 709 2930 787 
Q 3166 866 3366 1019 
L 3366 103 
Q 3103 6 2833 -42 
Q 2563 -91 2291 -91 
Q 1344 -91 809 395 
Q 275 881 275 1747 
Q 275 2613 809 3098 
Q 1344 3584 2291 3584 
Q 2566 3584 2833 3536 
Q 3100 3488 3366 3391 
z
" transform="scale(0.015625)"/>
      <path id="DejaVuSans-Bold-69" d="M 538 3500 
L 1656 3500 
L 1656 0 
L 538 0 
L 538 3500 
z
M 538 4863 
L 1656 4863 
L 1656 3950 
L 538 3950 
L 538 4863 
z
" transform="scale(0.015625)"/>
      <path id="DejaVuSans-Bold-74" d="M 1759 4494 
L 1759 3500 
L 2913 3500 
L 2913 2700 
L 1759 2700 
L 1759 1216 
Q 1759 972 1856 886 
Q 1953 800 2241 800 
L 2816 800 
L 2816 0 
L 1856 0 
Q 1194 0 917 276 
Q 641 553 641 1216 
L 641 2700 
L 84 2700 
L 84 3500 
L 641 3500 
L 641 4494 
L 1759 4494 
z
" transform="scale(0.015625)"/>
      <path id="DejaVuSans-Bold-73" d="M 3272 3391 
L 3272 2541 
Q 2913 2691 2578 2766 
Q 2244 2841 1947 2841 
Q 1628 2841 1473 2761 
Q 1319 2681 1319 2516 
Q 1319 2381 1436 2309 
Q 1553 2238 1856 2203 
L 2053 2175 
Q 2913 2066 3209 1816 
Q 3506 1566 3506 1031 
Q 3506 472 3093 190 
Q 2681 -91 1863 -91 
Q 1516 -91 1145 -36 
Q 775 19 384 128 
L 384 978 
Q 719 816 1070 734 
Q 1422 653 1784 653 
Q 2113 653 2278 743 
Q 2444 834 2444 1013 
Q 2444 1163 2330 1236 
Q 2216 1309 1875 1350 
L 1678 1375 
Q 931 1469 631 1722 
Q 331 1975 331 2491 
Q 331 3047 712 3315 
Q 1094 3584 1881 3584 
Q 2191 3584 2531 3537 
Q 2872 3491 3272 3391 
z
" transform="scale(0.015625)"/>
      <path id="DejaVuSans-Bold-20" transform="scale(0.015625)"/>
      <path id="DejaVuSans-Bold-61" d="M 2106 1575 
Q 1756 1575 1579 1456 
Q 1403 1338 1403 1106 
Q 1403 894 1545 773 
Q 1688 653 1941 653 
Q 2256 653 2472 879 
Q 2688 1106 2688 1447 
L 2688 1575 
L 2106 1575 
z
M 3816 1997 
L 3816 0 
L 2688 0 
L 2688 519 
Q 2463 200 2181 54 
Q 1900 -91 1497 -91 
Q 953 -91 614 226 
Q 275 544 275 1050 
Q 275 1666 698 1953 
Q 1122 2241 2028 2241 
L 2688 2241 
L 2688 2328 
Q 2688 2594 2478 2717 
Q 2269 2841 1825 2841 
Q 1466 2841 1156 2769 
Q 847 2697 581 2553 
L 581 3406 
Q 941 3494 1303 3539 
Q 1666 3584 2028 3584 
Q 2975 3584 3395 3211 
Q 3816 2838 3816 1997 
z
" transform="scale(0.015625)"/>
      <path id="DejaVuSans-Bold-68" d="M 4056 2131 
L 4056 0 
L 2931 0 
L 2931 347 
L 2931 1625 
Q 2931 2084 2911 2256 
Q 2891 2428 2841 2509 
Q 2775 2619 2662 2680 
Q 2550 2741 2406 2741 
Q 2056 2741 1856 2470 
Q 1656 2200 1656 1722 
L 1656 0 
L 538 0 
L 538 4863 
L 1656 4863 
L 1656 2988 
Q 1909 3294 2193 3439 
Q 2478 3584 2822 3584 
Q 3428 3584 3742 3212 
Q 4056 2841 4056 2131 
z
" transform="scale(0.015625)"/>
      <path id="DejaVuSans-Bold-66" d="M 2841 4863 
L 2841 4128 
L 2222 4128 
Q 1984 4128 1890 4042 
Q 1797 3956 1797 3744 
L 1797 3500 
L 2753 3500 
L 2753 2700 
L 1797 2700 
L 1797 0 
L 678 0 
L 678 2700 
L 122 2700 
L 122 3500 
L 678 3500 
L 678 3744 
Q 678 4316 997 4589 
Q 1316 4863 1984 4863 
L 2841 4863 
z
" transform="scale(0.015625)"/>
      <path id="DejaVuSans-Bold-6e" d="M 4056 2131 
L 4056 0 
L 2931 0 
L 2931 347 
L 2931 1631 
Q 2931 2084 2911 2256 
Q 2891 2428 2841 2509 
Q 2775 2619 2662 2680 
Q 2550 2741 2406 2741 
Q 2056 2741 1856 2470 
Q 1656 2200 1656 1722 
L 1656 0 
L 538 0 
L 538 3500 
L 1656 3500 
L 1656 2988 
Q 1909 3294 2193 3439 
Q 2478 3584 2822 3584 
Q 3428 3584 3742 3212 
Q 4056 2841 4056 2131 
z
" transform="scale(0.015625)"/>
      <path id="DejaVuSans-Bold-6d" d="M 3781 2919 
Q 3994 3244 4286 3414 
Q 4578 3584 4928 3584 
Q 5531 3584 5847 3212 
Q 6163 2841 6163 2131 
L 6163 0 
L 5038 0 
L 5038 1825 
Q 5041 1866 5042 1909 
Q 5044 1953 5044 2034 
Q 5044 2406 4934 2573 
Q 4825 2741 4581 2741 
Q 4263 2741 4089 2478 
Q 3916 2216 3909 1719 
L 3909 0 
L 2784 0 
L 2784 1825 
Q 2784 2406 2684 2573 
Q 2584 2741 2328 2741 
Q 2006 2741 1831 2477 
Q 1656 2213 1656 1722 
L 1656 0 
L 531 0 
L 531 3500 
L 1656 3500 
L 1656 2988 
Q 1863 3284 2130 3434 
Q 2397 3584 2719 3584 
Q 3081 3584 3359 3409 
Q 3638 3234 3781 2919 
z
" transform="scale(0.015625)"/>
     </defs>
     <use xlink:href="#DejaVuSans-Bold-56"/>
     <use xlink:href="#DejaVuSans-Bold-65" x="71.892578"/>
     <use xlink:href="#DejaVuSans-Bold-6c" x="139.714844"/>
     <use xlink:href="#DejaVuSans-Bold-6f" x="173.992188"/>
     <use xlink:href="#DejaVuSans-Bold-63" x="242.693359"/>
     <use xlink:href="#DejaVuSans-Bold-69" x="301.970703"/>
     <use xlink:href="#DejaVuSans-Bold-74" x="336.248047"/>
     <use xlink:href="#DejaVuSans-Bold-69" x="384.050781"/>
     <use xlink:href="#DejaVuSans-Bold-65" x="418.328125"/>
     <use xlink:href="#DejaVuSans-Bold-73" x="486.150391"/>
     <use xlink:href="#DejaVuSans-Bold-20" x="545.671875"/>
     <use xlink:href="#DejaVuSans-Bold-61" x="580.486328"/>
     <use xlink:href="#DejaVuSans-Bold-74" x="647.966797"/>
     <use xlink:href="#DejaVuSans-Bold-20" x="695.769531"/>
     <use xlink:href="#DejaVuSans-Bold-74" x="730.583984"/>
     <use xlink:href="#DejaVuSans-Bold-68" x="778.386719"/>
     <use xlink:href="#DejaVuSans-Bold-65" x="849.578125"/>
     <use xlink:href="#DejaVuSans-Bold-20" x="917.400391"/>
     <use xlink:href="#DejaVuSans-Bold-66" x="952.214844"/>
     <use xlink:href="#DejaVuSans-Bold-69" x="995.720703"/>
     <use xlink:href="#DejaVuSans-Bold-6e" x="1029.998047"/>
     <use xlink:href="#DejaVuSans-Bold-61" x="1101.189453"/>
     <use xlink:href="#DejaVuSans-Bold-6c" x="1168.669922"/>
     <use xlink:href="#DejaVuSans-Bold-20" x="1202.947266"/>
     <use xlink:href="#DejaVuSans-Bold-74" x="1237.761719"/>
     <use xlink:href="#DejaVuSans-Bold-69" x="1285.564453"/>
     <use xlink:href="#DejaVuSans-Bold-6d" x="1319.841797"/>
     <use xlink:href="#DejaVuSans-Bold-65" x="1424.041016"/>
    </g>
   </g>
   <g id="legend_1">
    <g id="patch_7">
     <path d="M 328.266875 78.82825 
L 407.72 78.82825 
Q 409.72 78.82825 409.72 76.82825 
L 409.72 48.472 
Q 409.72 46.472 407.72 46.472 
L 328.266875 46.472 
Q 326.266875 46.472 326.266875 48.472 
L 326.266875 76.82825 
Q 326.266875 78.82825 328.266875 78.82825 
z
" style="fill: #ffffff; opacity: 0.8; stroke: #cccccc; stroke-linejoin: miter"/>
    </g>
    <g id="PathCollection_2">
     <g>
      <use xlink:href="#m0142ad6462" x="340.266875" y="55.445437" style="fill: #0000ff; stroke: #0000ff"/>
     </g>
    </g>
    <g id="text_20">
     <!-- Positions -->
     <g transform="translate(358.266875 58.070437) scale(0.1 -0.1)">
      <defs>
       <path id="DejaVuSans-50" d="M 1259 4147 
L 1259 2394 
L 2053 2394 
Q 2494 2394 2734 2622 
Q 2975 2850 2975 3272 
Q 2975 3691 2734 3919 
Q 2494 4147 2053 4147 
L 1259 4147 
z
M 628 4666 
L 2053 4666 
Q 2838 4666 3239 4311 
Q 3641 3956 3641 3272 
Q 3641 2581 3239 2228 
Q 2838 1875 2053 1875 
L 1259 1875 
L 1259 0 
L 628 0 
L 628 4666 
z
" transform="scale(0.015625)"/>
       <path id="DejaVuSans-6f" d="M 1959 3097 
Q 1497 3097 1228 2736 
Q 959 2375 959 1747 
Q 959 1119 1226 758 
Q 1494 397 1959 397 
Q 2419 397 2687 759 
Q 2956 1122 2956 1747 
Q 2956 2369 2687 2733 
Q 2419 3097 1959 3097 
z
M 1959 3584 
Q 2709 3584 3137 3096 
Q 3566 2609 3566 1747 
Q 3566 888 3137 398 
Q 2709 -91 1959 -91 
Q 1206 -91 779 398 
Q 353 888 353 1747 
Q 353 2609 779 3096 
Q 1206 3584 1959 3584 
z
" transform="scale(0.015625)"/>
       <path id="DejaVuSans-73" d="M 2834 3397 
L 2834 2853 
Q 2591 2978 2328 3040 
Q 2066 3103 1784 3103 
Q 1356 3103 1142 2972 
Q 928 2841 928 2578 
Q 928 2378 1081 2264 
Q 1234 2150 1697 2047 
L 1894 2003 
Q 2506 1872 2764 1633 
Q 3022 1394 3022 966 
Q 3022 478 2636 193 
Q 2250 -91 1575 -91 
Q 1294 -91 989 -36 
Q 684 19 347 128 
L 347 722 
Q 666 556 975 473 
Q 1284 391 1588 391 
Q 1994 391 2212 530 
Q 2431 669 2431 922 
Q 2431 1156 2273 1281 
Q 2116 1406 1581 1522 
L 1381 1569 
Q 847 1681 609 1914 
Q 372 2147 372 2553 
Q 372 3047 722 3315 
Q 1072 3584 1716 3584 
Q 2034 3584 2315 3537 
Q 2597 3491 2834 3397 
z
" transform="scale(0.015625)"/>
       <path id="DejaVuSans-69" d="M 603 3500 
L 1178 3500 
L 1178 0 
L 603 0 
L 603 3500 
z
M 603 4863 
L 1178 4863 
L 1178 4134 
L 603 4134 
L 603 4863 
z
" transform="scale(0.015625)"/>
       <path id="DejaVuSans-74" d="M 1172 4494 
L 1172 3500 
L 2356 3500 
L 2356 3053 
L 1172 3053 
L 1172 1153 
Q 1172 725 1289 603 
Q 1406 481 1766 481 
L 2356 481 
L 2356 0 
L 1766 0 
Q 1100 0 847 248 
Q 594 497 594 1153 
L 594 3053 
L 172 3053 
L 172 3500 
L 594 3500 
L 594 4494 
L 1172 4494 
z
" transform="scale(0.015625)"/>
       <path id="DejaVuSans-6e" d="M 3513 2113 
L 3513 0 
L 2938 0 
L 2938 2094 
Q 2938 2591 2744 2837 
Q 2550 3084 2163 3084 
Q 1697 3084 1428 2787 
Q 1159 2491 1159 1978 
L 1159 0 
L 581 0 
L 581 3500 
L 1159 3500 
L 1159 2956 
Q 1366 3272 1645 3428 
Q 1925 3584 2291 3584 
Q 2894 3584 3203 3211 
Q 3513 2838 3513 2113 
z
" transform="scale(0.015625)"/>
      </defs>
      <use xlink:href="#DejaVuSans-50"/>
      <use xlink:href="#DejaVuSans-6f" x="56.677734"/>
      <use xlink:href="#DejaVuSans-73" x="117.859375"/>
      <use xlink:href="#DejaVuSans-69" x="169.958984"/>
      <use xlink:href="#DejaVuSans-74" x="197.742188"/>
      <use xlink:href="#DejaVuSans-69" x="236.951172"/>
      <use xlink:href="#DejaVuSans-6f" x="264.734375"/>
      <use xlink:href="#DejaVuSans-6e" x="325.916016"/>
      <use xlink:href="#DejaVuSans-73" x="389.294922"/>
     </g>
    </g>
    <g id="patch_8">
     <path d="M 330.266875 72.748562 
L 350.266875 72.748562 
L 350.266875 65.748562 
L 330.266875 65.748562 
z
" style="fill: #ff0000"/>
    </g>
    <g id="text_21">
     <!-- Velocities -->
     <g transform="translate(358.266875 72.748562) scale(0.1 -0.1)">
      <defs>
       <path id="DejaVuSans-56" d="M 1831 0 
L 50 4666 
L 709 4666 
L 2188 738 
L 3669 4666 
L 4325 4666 
L 2547 0 
L 1831 0 
z
" transform="scale(0.015625)"/>
       <path id="DejaVuSans-65" d="M 3597 1894 
L 3597 1613 
L 953 1613 
Q 991 1019 1311 708 
Q 1631 397 2203 397 
Q 2534 397 2845 478 
Q 3156 559 3463 722 
L 3463 178 
Q 3153 47 2828 -22 
Q 2503 -91 2169 -91 
Q 1331 -91 842 396 
Q 353 884 353 1716 
Q 353 2575 817 3079 
Q 1281 3584 2069 3584 
Q 2775 3584 3186 3129 
Q 3597 2675 3597 1894 
z
M 3022 2063 
Q 3016 2534 2758 2815 
Q 2500 3097 2075 3097 
Q 1594 3097 1305 2825 
Q 1016 2553 972 2059 
L 3022 2063 
z
" transform="scale(0.015625)"/>
       <path id="DejaVuSans-6c" d="M 603 4863 
L 1178 4863 
L 1178 0 
L 603 0 
L 603 4863 
z
" transform="scale(0.015625)"/>
       <path id="DejaVuSans-63" d="M 3122 3366 
L 3122 2828 
Q 2878 2963 2633 3030 
Q 2388 3097 2138 3097 
Q 1578 3097 1268 2742 
Q 959 2388 959 1747 
Q 959 1106 1268 751 
Q 1578 397 2138 397 
Q 2388 397 2633 464 
Q 2878 531 3122 666 
L 3122 134 
Q 2881 22 2623 -34 
Q 2366 -91 2075 -91 
Q 1284 -91 818 406 
Q 353 903 353 1747 
Q 353 2603 823 3093 
Q 1294 3584 2113 3584 
Q 2378 3584 2631 3529 
Q 2884 3475 3122 3366 
z
" transform="scale(0.015625)"/>
      </defs>
      <use xlink:href="#DejaVuSans-56"/>
      <use xlink:href="#DejaVuSans-65" x="60.658203"/>
      <use xlink:href="#DejaVuSans-6c" x="122.181641"/>
      <use xlink:href="#DejaVuSans-6f" x="149.964844"/>
      <use xlink:href="#DejaVuSans-63" x="211.146484"/>
      <use xlink:href="#DejaVuSans-69" x="266.126953"/>
      <use xlink:href="#DejaVuSans-74" x="293.910156"/>
      <use xlink:href="#DejaVuSans-69" x="333.119141"/>
      <use xlink:href="#DejaVuSans-65" x="360.902344"/>
      <use xlink:href="#DejaVuSans-73" x="422.425781"/>
     </g>
    </g>
   </g>
  </g>
 </g>
 <defs>
  <clipPath id="p5270c5036d">
   <rect x="57.6" y="41.472" width="357.12" height="266.112"/>
  </clipPath>
 </defs>
</svg>
