<?xml version="1.0" encoding="utf-8" standalone="no"?>
<!DOCTYPE svg PUBLIC "-//W3C//DTD SVG 1.1//EN"
  "http://www.w3.org/Graphics/SVG/1.1/DTD/svg11.dtd">
<svg xmlns:xlink="http://www.w3.org/1999/xlink" width="460.8pt" height="345.6pt" viewBox="0 0 460.8 345.6" xmlns="http://www.w3.org/2000/svg" version="1.1">
 <metadata>
  <rdf:RDF xmlns:dc="http://purl.org/dc/elements/1.1/" xmlns:cc="http://creativecommons.org/ns#" xmlns:rdf="http://www.w3.org/1999/02/22-rdf-syntax-ns#">
   <cc:Work>
    <dc:type rdf:resource="http://purl.org/dc/dcmitype/StillImage"/>
    <dc:date>2025-02-26T17:15:28.037860</dc:date>
    <dc:format>image/svg+xml</dc:format>
    <dc:creator>
     <cc:Agent>
      <dc:title>Matplotlib v3.6.3, https://matplotlib.org/</dc:title>
     </cc:Agent>
    </dc:creator>
   </cc:Work>
  </rdf:RDF>
 </metadata>
 <defs>
  <style type="text/css">*{stroke-linejoin: round; stroke-linecap: butt}</style>
 </defs>
 <g id="figure_1">
  <g id="patch_1">
   <path d="M 0 345.6 
L 460.8 345.6 
L 460.8 0 
L 0 0 
z
" style="fill: #ffffff"/>
  </g>
  <g id="axes_1">
   <g id="patch_2">
    <path d="M 57.6 307.584 
L 414.72 307.584 
L 414.72 41.472 
L 57.6 41.472 
z
" style="fill: #ffffff"/>
   </g>
   <g id="PathCollection_1">
    <defs>
     <path id="mb554d4db87" d="M 0 3 
C 0.795609 3 1.55874 2.683901 2.12132 2.12132 
C 2.683901 1.55874 3 0.795609 3 0 
C 3 -0.795609 2.683901 -1.55874 2.12132 -2.12132 
C 1.55874 -2.683901 0.795609 -3 0 -3 
C -0.795609 -3 -1.55874 -2.683901 -2.12132 -2.12132 
C -2.683901 -1.55874 -3 -0.795609 -3 0 
C -3 0.795609 -2.683901 1.55874 -2.12132 2.12132 
C -1.55874 2.683901 -0.795609 3 0 3 
z
" style="stroke: #0000ff"/>
    </defs>
    <g clip-path="url(#p97a735b49a)">
     <use xlink:href="#mb554d4db87" x="266.924338" y="57.144353" style="fill: #0000ff; stroke: #0000ff"/>
     <use xlink:href="#mb554d4db87" x="334.013579" y="102.110675" style="fill: #0000ff; stroke: #0000ff"/>
     <use xlink:href="#mb554d4db87" x="235.374167" y="295.488" style="fill: #0000ff; stroke: #0000ff"/>
     <use xlink:href="#mb554d4db87" x="253.472736" y="246.482237" style="fill: #0000ff; stroke: #0000ff"/>
     <use xlink:href="#mb554d4db87" x="213.52535" y="270.372173" style="fill: #0000ff; stroke: #0000ff"/>
     <use xlink:href="#mb554d4db87" x="266.578835" y="180.196934" style="fill: #0000ff; stroke: #0000ff"/>
     <use xlink:href="#mb554d4db87" x="183.604573" y="283.400276" style="fill: #0000ff; stroke: #0000ff"/>
     <use xlink:href="#mb554d4db87" x="277.816205" y="211.903037" style="fill: #0000ff; stroke: #0000ff"/>
     <use xlink:href="#mb554d4db87" x="287.242676" y="117.577256" style="fill: #0000ff; stroke: #0000ff"/>
     <use xlink:href="#mb554d4db87" x="289.475058" y="169.540873" style="fill: #0000ff; stroke: #0000ff"/>
     <use xlink:href="#mb554d4db87" x="159.82014" y="268.497874" style="fill: #0000ff; stroke: #0000ff"/>
     <use xlink:href="#mb554d4db87" x="235.487546" y="227.581628" style="fill: #0000ff; stroke: #0000ff"/>
     <use xlink:href="#mb554d4db87" x="128.924112" y="118.343207" style="fill: #0000ff; stroke: #0000ff"/>
     <use xlink:href="#mb554d4db87" x="145.583038" y="139.376382" style="fill: #0000ff; stroke: #0000ff"/>
     <use xlink:href="#mb554d4db87" x="139.584824" y="163.178397" style="fill: #0000ff; stroke: #0000ff"/>
     <use xlink:href="#mb554d4db87" x="217.725259" y="102.587902" style="fill: #0000ff; stroke: #0000ff"/>
     <use xlink:href="#mb554d4db87" x="187.993288" y="63.564691" style="fill: #0000ff; stroke: #0000ff"/>
     <use xlink:href="#mb554d4db87" x="213.621486" y="226.330833" style="fill: #0000ff; stroke: #0000ff"/>
     <use xlink:href="#mb554d4db87" x="331.04772" y="193.771491" style="fill: #0000ff; stroke: #0000ff"/>
     <use xlink:href="#mb554d4db87" x="357.224614" y="176.990718" style="fill: #0000ff; stroke: #0000ff"/>
     <use xlink:href="#mb554d4db87" x="285.389012" y="145.824216" style="fill: #0000ff; stroke: #0000ff"/>
     <use xlink:href="#mb554d4db87" x="304.522614" y="203.133999" style="fill: #0000ff; stroke: #0000ff"/>
     <use xlink:href="#mb554d4db87" x="292.653444" y="66.952825" style="fill: #0000ff; stroke: #0000ff"/>
     <use xlink:href="#mb554d4db87" x="224.877115" y="123.256498" style="fill: #0000ff; stroke: #0000ff"/>
     <use xlink:href="#mb554d4db87" x="248.011812" y="165.00184" style="fill: #0000ff; stroke: #0000ff"/>
     <use xlink:href="#mb554d4db87" x="314.447548" y="114.59153" style="fill: #0000ff; stroke: #0000ff"/>
     <use xlink:href="#mb554d4db87" x="269.497115" y="159.460468" style="fill: #0000ff; stroke: #0000ff"/>
     <use xlink:href="#mb554d4db87" x="207.016462" y="247.928044" style="fill: #0000ff; stroke: #0000ff"/>
     <use xlink:href="#mb554d4db87" x="257.070078" y="222.910433" style="fill: #0000ff; stroke: #0000ff"/>
     <use xlink:href="#mb554d4db87" x="205.641797" y="167.756465" style="fill: #0000ff; stroke: #0000ff"/>
     <use xlink:href="#mb554d4db87" x="244.125743" y="185.167599" style="fill: #0000ff; stroke: #0000ff"/>
     <use xlink:href="#mb554d4db87" x="194.872773" y="109.567721" style="fill: #0000ff; stroke: #0000ff"/>
     <use xlink:href="#mb554d4db87" x="254.349293" y="144.241384" style="fill: #0000ff; stroke: #0000ff"/>
     <use xlink:href="#mb554d4db87" x="173.929213" y="99.175081" style="fill: #0000ff; stroke: #0000ff"/>
     <use xlink:href="#mb554d4db87" x="315.329021" y="82.521929" style="fill: #0000ff; stroke: #0000ff"/>
     <use xlink:href="#mb554d4db87" x="345.368669" y="227.063278" style="fill: #0000ff; stroke: #0000ff"/>
     <use xlink:href="#mb554d4db87" x="309.612207" y="158.138712" style="fill: #0000ff; stroke: #0000ff"/>
     <use xlink:href="#mb554d4db87" x="144.57906" y="95.423777" style="fill: #0000ff; stroke: #0000ff"/>
     <use xlink:href="#mb554d4db87" x="164.998601" y="76.751596" style="fill: #0000ff; stroke: #0000ff"/>
     <use xlink:href="#mb554d4db87" x="184.970368" y="259.221842" style="fill: #0000ff; stroke: #0000ff"/>
     <use xlink:href="#mb554d4db87" x="311.401764" y="270.355541" style="fill: #0000ff; stroke: #0000ff"/>
     <use xlink:href="#mb554d4db87" x="264.816313" y="105.92686" style="fill: #0000ff; stroke: #0000ff"/>
     <use xlink:href="#mb554d4db87" x="285.464115" y="191.054163" style="fill: #0000ff; stroke: #0000ff"/>
     <use xlink:href="#mb554d4db87" x="309.393843" y="242.32969" style="fill: #0000ff; stroke: #0000ff"/>
     <use xlink:href="#mb554d4db87" x="178.336832" y="128.295653" style="fill: #0000ff; stroke: #0000ff"/>
     <use xlink:href="#mb554d4db87" x="190.223645" y="148.65735" style="fill: #0000ff; stroke: #0000ff"/>
     <use xlink:href="#mb554d4db87" x="333.187905" y="167.569213" style="fill: #0000ff; stroke: #0000ff"/>
     <use xlink:href="#mb554d4db87" x="304.392241" y="135.270298" style="fill: #0000ff; stroke: #0000ff"/>
     <use xlink:href="#mb554d4db87" x="198.233292" y="85.040655" style="fill: #0000ff; stroke: #0000ff"/>
     <use xlink:href="#mb554d4db87" x="294.447585" y="95.83493" style="fill: #0000ff; stroke: #0000ff"/>
     <use xlink:href="#mb554d4db87" x="159.806097" y="196.250623" style="fill: #0000ff; stroke: #0000ff"/>
     <use xlink:href="#mb554d4db87" x="328.731217" y="141.09319" style="fill: #0000ff; stroke: #0000ff"/>
     <use xlink:href="#mb554d4db87" x="241.082455" y="100.654522" style="fill: #0000ff; stroke: #0000ff"/>
     <use xlink:href="#mb554d4db87" x="223.641697" y="78.761933" style="fill: #0000ff; stroke: #0000ff"/>
     <use xlink:href="#mb554d4db87" x="188.714182" y="233.34855" style="fill: #0000ff; stroke: #0000ff"/>
     <use xlink:href="#mb554d4db87" x="181.57237" y="191.798632" style="fill: #0000ff; stroke: #0000ff"/>
     <use xlink:href="#mb554d4db87" x="115.095386" y="172.087659" style="fill: #0000ff; stroke: #0000ff"/>
     <use xlink:href="#mb554d4db87" x="288.449343" y="257.024802" style="fill: #0000ff; stroke: #0000ff"/>
     <use xlink:href="#mb554d4db87" x="213.32102" y="147.67051" style="fill: #0000ff; stroke: #0000ff"/>
     <use xlink:href="#mb554d4db87" x="287.696946" y="284.438323" style="fill: #0000ff; stroke: #0000ff"/>
     <use xlink:href="#mb554d4db87" x="354.014714" y="202.705483" style="fill: #0000ff; stroke: #0000ff"/>
     <use xlink:href="#mb554d4db87" x="230.505966" y="249.513833" style="fill: #0000ff; stroke: #0000ff"/>
     <use xlink:href="#mb554d4db87" x="310.307047" y="181.245615" style="fill: #0000ff; stroke: #0000ff"/>
     <use xlink:href="#mb554d4db87" x="265.818691" y="267.05824" style="fill: #0000ff; stroke: #0000ff"/>
     <use xlink:href="#mb554d4db87" x="240.75705" y="271.499198" style="fill: #0000ff; stroke: #0000ff"/>
     <use xlink:href="#mb554d4db87" x="260.25589" y="200.260215" style="fill: #0000ff; stroke: #0000ff"/>
     <use xlink:href="#mb554d4db87" x="117.914438" y="200.579962" style="fill: #0000ff; stroke: #0000ff"/>
     <use xlink:href="#mb554d4db87" x="355.056074" y="150.692545" style="fill: #0000ff; stroke: #0000ff"/>
     <use xlink:href="#mb554d4db87" x="322.701418" y="218.532258" style="fill: #0000ff; stroke: #0000ff"/>
     <use xlink:href="#mb554d4db87" x="346.817303" y="125.004031" style="fill: #0000ff; stroke: #0000ff"/>
     <use xlink:href="#mb554d4db87" x="140.860007" y="248.703203" style="fill: #0000ff; stroke: #0000ff"/>
     <use xlink:href="#mb554d4db87" x="203.413064" y="129.18184" style="fill: #0000ff; stroke: #0000ff"/>
     <use xlink:href="#mb554d4db87" x="331.955379" y="250.151594" style="fill: #0000ff; stroke: #0000ff"/>
     <use xlink:href="#mb554d4db87" x="218.566244" y="205.505076" style="fill: #0000ff; stroke: #0000ff"/>
     <use xlink:href="#mb554d4db87" x="202.5875" y="188.51567" style="fill: #0000ff; stroke: #0000ff"/>
     <use xlink:href="#mb554d4db87" x="247.004379" y="122.202001" style="fill: #0000ff; stroke: #0000ff"/>
     <use xlink:href="#mb554d4db87" x="164.588515" y="241.0765" style="fill: #0000ff; stroke: #0000ff"/>
     <use xlink:href="#mb554d4db87" x="138.19003" y="189.209781" style="fill: #0000ff; stroke: #0000ff"/>
     <use xlink:href="#mb554d4db87" x="233.931892" y="143.150316" style="fill: #0000ff; stroke: #0000ff"/>
     <use xlink:href="#mb554d4db87" x="213.399022" y="55.918116" style="fill: #0000ff; stroke: #0000ff"/>
     <use xlink:href="#mb554d4db87" x="208.608148" y="292.879017" style="fill: #0000ff; stroke: #0000ff"/>
     <use xlink:href="#mb554d4db87" x="223.69391" y="184.863927" style="fill: #0000ff; stroke: #0000ff"/>
     <use xlink:href="#mb554d4db87" x="227.691939" y="164.630178" style="fill: #0000ff; stroke: #0000ff"/>
     <use xlink:href="#mb554d4db87" x="275.077621" y="237.743018" style="fill: #0000ff; stroke: #0000ff"/>
     <use xlink:href="#mb554d4db87" x="161.688996" y="172.229736" style="fill: #0000ff; stroke: #0000ff"/>
     <use xlink:href="#mb554d4db87" x="269.37145" y="129.708889" style="fill: #0000ff; stroke: #0000ff"/>
     <use xlink:href="#mb554d4db87" x="157.230142" y="118.090457" style="fill: #0000ff; stroke: #0000ff"/>
     <use xlink:href="#mb554d4db87" x="118.941807" y="144.448761" style="fill: #0000ff; stroke: #0000ff"/>
     <use xlink:href="#mb554d4db87" x="148.602071" y="218.594834" style="fill: #0000ff; stroke: #0000ff"/>
     <use xlink:href="#mb554d4db87" x="239.216588" y="206.303807" style="fill: #0000ff; stroke: #0000ff"/>
     <use xlink:href="#mb554d4db87" x="126.571574" y="225.644565" style="fill: #0000ff; stroke: #0000ff"/>
     <use xlink:href="#mb554d4db87" x="239.944321" y="53.568" style="fill: #0000ff; stroke: #0000ff"/>
     <use xlink:href="#mb554d4db87" x="196.248895" y="210.5452" style="fill: #0000ff; stroke: #0000ff"/>
     <use xlink:href="#mb554d4db87" x="183.857646" y="169.65073" style="fill: #0000ff; stroke: #0000ff"/>
     <use xlink:href="#mb554d4db87" x="261.969532" y="292.886678" style="fill: #0000ff; stroke: #0000ff"/>
     <use xlink:href="#mb554d4db87" x="295.212267" y="224.77813" style="fill: #0000ff; stroke: #0000ff"/>
     <use xlink:href="#mb554d4db87" x="248.782499" y="78.301653" style="fill: #0000ff; stroke: #0000ff"/>
     <use xlink:href="#mb554d4db87" x="173.294581" y="216.256056" style="fill: #0000ff; stroke: #0000ff"/>
     <use xlink:href="#mb554d4db87" x="166.980348" y="149.394527" style="fill: #0000ff; stroke: #0000ff"/>
     <use xlink:href="#mb554d4db87" x="272.504458" y="84.120603" style="fill: #0000ff; stroke: #0000ff"/>
    </g>
   </g>
   <g id="Quiver_1">
    <path d="M 266.166678 56.386881 
L 273.375499 49.176269 
L 271.102707 48.418985 
L 280.950405 43.1148 
L 275.648667 52.963816 
L 274.890819 50.691212 
L 267.681998 57.901825 
L 266.166678 56.386881 
" clip-path="url(#p97a735b49a)" style="fill: #ff0000"/>
    <path d="M 333.25589 101.353232 
L 340.466444 94.14033 
L 338.193623 93.383134 
L 348.041116 88.078569 
L 342.739758 97.927789 
L 341.981822 95.655215 
L 334.771268 102.868117 
L 333.25589 101.353232 
" clip-path="url(#p97a735b49a)" style="fill: #ff0000"/>
    <path d="M 234.616539 294.730496 
L 241.825401 287.520458 
L 239.552641 286.763077 
L 249.400565 281.459312 
L 244.098407 291.308102 
L 243.340656 289.035466 
L 236.131794 296.245504 
L 234.616539 294.730496 
" clip-path="url(#p97a735b49a)" style="fill: #ff0000"/>
    <path d="M 252.715161 245.72468 
L 259.926479 238.513194 
L 257.653772 237.755655 
L 267.502067 232.452578 
L 262.199221 242.300997 
L 261.441628 240.028308 
L 254.230311 247.239794 
L 252.715161 245.72468 
" clip-path="url(#p97a735b49a)" style="fill: #ff0000"/>
    <path d="M 212.767776 269.614615 
L 219.977844 262.404404 
L 217.705139 261.646861 
L 227.553443 256.343802 
L 222.250579 266.192212 
L 221.492991 263.919521 
L 214.282923 271.129731 
L 212.767776 269.614615 
" clip-path="url(#p97a735b49a)" style="fill: #ff0000"/>
    <path d="M 265.821249 179.439388 
L 273.035356 172.224894 
L 270.762638 171.467389 
L 280.610853 166.164163 
L 275.308156 176.012662 
L 274.550529 173.739985 
L 267.336421 180.954479 
L 265.821249 179.439388 
" clip-path="url(#p97a735b49a)" style="fill: #ff0000"/>
    <path d="M 182.846915 282.642802 
L 190.056302 275.431669 
L 187.783513 274.674379 
L 197.631228 269.370225 
L 192.329458 279.219224 
L 191.571617 276.946618 
L 184.36223 284.15775 
L 182.846915 282.642802 
" clip-path="url(#p97a735b49a)" style="fill: #ff0000"/>
    <path d="M 277.058833 211.145277 
L 284.271214 203.936582 
L 281.99871 203.178435 
L 291.848422 197.877991 
L 286.542944 207.724992 
L 285.785959 205.452101 
L 278.573578 212.660796 
L 277.058833 211.145277 
" clip-path="url(#p97a735b49a)" style="fill: #ff0000"/>
    <path d="M 286.485193 116.819607 
L 293.697415 109.608963 
L 291.424801 108.851148 
L 301.273738 103.549264 
L 295.969699 113.397041 
L 295.212382 111.12426 
L 288.000159 118.334905 
L 286.485193 116.819607 
" clip-path="url(#p97a735b49a)" style="fill: #ff0000"/>
    <path d="M 288.717512 168.783287 
L 295.927777 161.573409 
L 293.655099 160.815782 
L 303.503598 155.513084 
L 298.200373 165.361299 
L 297.442868 163.088581 
L 290.232604 170.298459 
L 288.717512 168.783287 
" clip-path="url(#p97a735b49a)" style="fill: #ff0000"/>
    <path d="M 159.06245 267.740432 
L 166.271844 260.528685 
L 163.999023 259.77149 
L 173.846515 254.466921 
L 168.54516 264.316143 
L 167.787223 262.043569 
L 160.577829 269.255316 
L 159.06245 267.740432 
" clip-path="url(#p97a735b49a)" style="fill: #ff0000"/>
    <path d="M 234.729967 226.824074 
L 241.942202 219.611606 
L 239.669492 218.854077 
L 249.517763 213.550956 
L 244.214961 223.399398 
L 243.457358 221.126713 
L 236.245124 228.339181 
L 234.729967 226.824074 
" clip-path="url(#p97a735b49a)" style="fill: #ff0000"/>
    <path d="M 128.166604 117.585583 
L 135.377245 110.376049 
L 133.104606 109.618308 
L 142.95337 104.316103 
L 137.649652 114.164053 
L 136.892261 111.891297 
L 129.681619 119.100831 
L 128.166604 117.585583 
" clip-path="url(#p97a735b49a)" style="fill: #ff0000"/>
    <path d="M 144.825508 138.61878 
L 152.035225 131.409743 
L 149.762563 130.65207 
L 159.61117 125.349573 
L 154.307744 135.19768 
L 153.550285 132.924947 
L 146.340568 140.133984 
L 144.825508 138.61878 
" clip-path="url(#p97a735b49a)" style="fill: #ff0000"/>
    <path d="M 138.827346 162.420744 
L 146.037657 155.212097 
L 143.765046 154.454269 
L 153.614015 149.152444 
L 148.309917 159.000189 
L 147.552614 156.727404 
L 140.342303 163.936051 
L 138.827346 162.420744 
" clip-path="url(#p97a735b49a)" style="fill: #ff0000"/>
    <path d="M 216.967751 101.830278 
L 224.179831 94.619299 
L 221.907191 93.86156 
L 231.755952 88.55935 
L 226.452239 98.407303 
L 225.694847 96.134547 
L 218.482767 103.345526 
L 216.967751 101.830278 
" clip-path="url(#p97a735b49a)" style="fill: #ff0000"/>
    <path d="M 187.235682 62.807166 
L 194.442991 55.599086 
L 192.170253 54.841642 
L 202.018326 49.538154 
L 196.715891 59.386795 
L 195.958204 57.114137 
L 188.750895 64.322217 
L 187.235682 62.807166 
" clip-path="url(#p97a735b49a)" style="fill: #ff0000"/>
    <path d="M 212.864035 225.573152 
L 220.073901 218.365479 
L 217.801319 217.607567 
L 227.650482 212.306104 
L 222.346023 222.153654 
L 221.588802 219.880841 
L 214.378936 227.088514 
L 212.864035 225.573152 
" clip-path="url(#p97a735b49a)" style="fill: #ff0000"/>
    <path d="M 330.290247 193.013832 
L 337.500103 185.80574 
L 335.227498 185.047896 
L 345.076503 179.74614 
L 339.772337 189.593848 
L 339.015049 187.321057 
L 331.805193 194.529149 
L 330.290247 193.013832 
" clip-path="url(#p97a735b49a)" style="fill: #ff0000"/>
    <path d="M 356.46701 176.23319 
L 363.67878 169.020703 
L 361.406044 168.26325 
L 371.254138 162.9598 
L 365.951666 172.80842 
L 365.193987 170.53576 
L 357.982217 177.748246 
L 356.46701 176.23319 
" clip-path="url(#p97a735b49a)" style="fill: #ff0000"/>
    <path d="M 284.631603 145.066493 
L 291.845585 137.855507 
L 289.573045 137.097469 
L 299.422503 131.796553 
L 294.117496 141.643808 
L 293.360402 139.370953 
L 286.14642 146.58194 
L 284.631603 145.066493 
" clip-path="url(#p97a735b49a)" style="fill: #ff0000"/>
    <path d="M 303.765152 202.37633 
L 310.97819 195.165268 
L 308.705596 194.40739 
L 318.55468 189.105779 
L 313.250369 198.953409 
L 312.493115 196.680607 
L 305.280076 203.891669 
L 303.765152 202.37633 
" clip-path="url(#p97a735b49a)" style="fill: #ff0000"/>
    <path d="M 291.895763 66.195374 
L 299.104588 58.984373 
L 296.831776 58.22715 
L 306.679333 52.922703 
L 301.377857 62.77186 
L 300.619948 60.499276 
L 293.411124 67.710277 
L 291.895763 66.195374 
" clip-path="url(#p97a735b49a)" style="fill: #ff0000"/>
    <path d="M 224.119636 122.498846 
L 231.332162 115.287962 
L 229.05955 114.530137 
L 238.908511 109.228297 
L 233.604428 119.07605 
L 232.847121 116.803266 
L 225.634595 124.014151 
L 224.119636 122.498846 
" clip-path="url(#p97a735b49a)" style="fill: #ff0000"/>
    <path d="M 247.254208 164.244312 
L 254.466064 157.031732 
L 252.193329 156.27428 
L 262.041419 150.970825 
L 256.738952 160.819448 
L 255.981272 158.546788 
L 248.769416 165.759368 
L 247.254208 164.244312 
" clip-path="url(#p97a735b49a)" style="fill: #ff0000"/>
    <path d="M 313.689953 113.833993 
L 320.901625 106.621768 
L 318.628898 105.864289 
L 328.477052 100.56095 
L 323.174468 110.40951 
L 322.416815 108.136841 
L 315.205143 115.349067 
L 313.689953 113.833993 
" clip-path="url(#p97a735b49a)" style="fill: #ff0000"/>
    <path d="M 268.739436 158.703016 
L 275.951348 151.488934 
L 273.678537 150.73171 
L 283.526096 145.427267 
L 278.224616 155.276422 
L 277.466708 153.003838 
L 270.254795 160.21792 
L 268.739436 158.703016 
" clip-path="url(#p97a735b49a)" style="fill: #ff0000"/>
    <path d="M 206.258912 247.170462 
L 213.467093 239.962589 
L 211.194411 239.204975 
L 221.042882 233.902224 
L 215.73971 243.750467 
L 214.982192 241.477753 
L 207.774011 248.685626 
L 206.258912 247.170462 
" clip-path="url(#p97a735b49a)" style="fill: #ff0000"/>
    <path d="M 256.312557 222.152822 
L 263.524675 214.941557 
L 261.252022 214.183856 
L 271.100693 208.881477 
L 265.797149 218.729521 
L 265.039717 216.456778 
L 257.827599 223.668044 
L 256.312557 222.152822 
" clip-path="url(#p97a735b49a)" style="fill: #ff0000"/>
    <path d="M 204.884339 166.998791 
L 212.094755 159.790421 
L 209.822165 159.032533 
L 219.671274 153.730969 
L 214.366915 163.578574 
L 213.609672 161.305768 
L 206.399255 168.514138 
L 204.884339 166.998791 
" clip-path="url(#p97a735b49a)" style="fill: #ff0000"/>
    <path d="M 243.3683 184.40991 
L 250.584266 177.196291 
L 248.311691 176.438355 
L 258.160911 171.136996 
L 252.856348 180.98449 
L 252.099151 178.711669 
L 244.883186 185.925288 
L 243.3683 184.40991 
" clip-path="url(#p97a735b49a)" style="fill: #ff0000"/>
    <path d="M 194.115261 108.810101 
L 201.327413 101.598968 
L 199.054769 100.841241 
L 208.903501 95.538976 
L 203.599843 105.386958 
L 202.842438 103.114207 
L 195.630285 110.32534 
L 194.115261 108.810101 
" clip-path="url(#p97a735b49a)" style="fill: #ff0000"/>
    <path d="M 253.591589 143.483956 
L 260.801477 136.271447 
L 258.528641 135.514294 
L 268.376034 130.209543 
L 263.074863 140.058863 
L 262.316884 137.786303 
L 255.106996 144.998812 
L 253.591589 143.483956 
" clip-path="url(#p97a735b49a)" style="fill: #ff0000"/>
    <path d="M 173.171703 98.41746 
L 180.382196 91.208021 
L 178.109554 90.450289 
L 187.958299 85.148048 
L 182.654617 94.996017 
L 181.897217 92.723264 
L 174.686724 99.932702 
L 173.171703 98.41746 
" clip-path="url(#p97a735b49a)" style="fill: #ff0000"/>
    <path d="M 314.571315 81.764502 
L 321.780583 74.552578 
L 319.507746 73.795431 
L 329.355126 68.490656 
L 324.053978 78.339989 
L 323.295994 76.067431 
L 316.086726 83.279355 
L 314.571315 81.764502 
" clip-path="url(#p97a735b49a)" style="fill: #ff0000"/>
    <path d="M 344.611112 226.305703 
L 351.823989 219.092998 
L 349.5513 218.335405 
L 359.39972 213.03256 
L 354.096641 222.880854 
L 353.339102 220.608147 
L 346.126226 227.820853 
L 344.611112 226.305703 
" clip-path="url(#p97a735b49a)" style="fill: #ff0000"/>
    <path d="M 308.854696 157.381091 
L 316.066213 150.170614 
L 313.79357 149.412884 
L 323.642309 144.110633 
L 318.338638 153.958607 
L 317.581236 151.685855 
L 310.369718 158.896332 
L 308.854696 157.381091 
" clip-path="url(#p97a735b49a)" style="fill: #ff0000"/>
    <path d="M 143.821562 94.666143 
L 151.031182 87.457817 
L 148.758552 86.700047 
L 158.607385 81.397969 
L 153.30354 91.245851 
L 152.546178 88.973085 
L 145.336558 96.181411 
L 143.821562 94.666143 
" clip-path="url(#p97a735b49a)" style="fill: #ff0000"/>
    <path d="M 164.241056 75.994009 
L 171.449097 68.786373 
L 169.17642 68.028744 
L 179.024926 62.726059 
L 173.721688 72.574267 
L 172.964186 70.301548 
L 165.756146 77.509183 
L 164.241056 75.994009 
" clip-path="url(#p97a735b49a)" style="fill: #ff0000"/>
    <path d="M 184.21266 258.464418 
L 191.420757 251.253621 
L 189.147918 250.496481 
L 198.995282 245.191676 
L 193.694164 255.041025 
L 192.936173 252.768469 
L 185.728075 259.979266 
L 184.21266 258.464418 
" clip-path="url(#p97a735b49a)" style="fill: #ff0000"/>
    <path d="M 310.644255 269.597919 
L 317.854409 262.388836 
L 315.581768 261.631101 
L 325.430519 256.328871 
L 320.126825 266.176834 
L 319.369428 263.90408 
L 312.159274 271.113163 
L 310.644255 269.597919 
" clip-path="url(#p97a735b49a)" style="fill: #ff0000"/>
    <path d="M 264.058848 105.169193 
L 271.270847 97.959114 
L 268.99825 97.201245 
L 278.847313 91.899595 
L 273.543041 101.747246 
L 272.785777 99.474447 
L 265.573778 106.684527 
L 264.058848 105.169193 
" clip-path="url(#p97a735b49a)" style="fill: #ff0000"/>
    <path d="M 284.706656 190.29649 
L 291.918266 183.086913 
L 289.645675 182.329027 
L 299.494779 177.027454 
L 294.19043 186.875063 
L 293.433184 184.602259 
L 286.221574 191.811836 
L 284.706656 190.29649 
" clip-path="url(#p97a735b49a)" style="fill: #ff0000"/>
    <path d="M 308.636415 241.571985 
L 315.843551 234.367486 
L 313.570992 233.609504 
L 323.420319 228.308344 
L 318.115556 238.155731 
L 317.358406 235.882895 
L 310.15127 243.087394 
L 308.636415 241.571985 
" clip-path="url(#p97a735b49a)" style="fill: #ff0000"/>
    <path d="M 177.579297 127.538056 
L 184.7922 120.325742 
L 182.519533 119.568084 
L 192.368107 114.265525 
L 187.064743 124.113665 
L 186.30727 121.840936 
L 179.094367 129.05325 
L 177.579297 127.538056 
" clip-path="url(#p97a735b49a)" style="fill: #ff0000"/>
    <path d="M 189.466141 147.899722 
L 196.677765 140.689276 
L 194.405129 139.931525 
L 204.253919 134.629367 
L 198.950153 144.477291 
L 198.192773 142.204532 
L 190.981149 149.414978 
L 189.466141 147.899722 
" clip-path="url(#p97a735b49a)" style="fill: #ff0000"/>
    <path d="M 332.430441 166.811545 
L 339.641465 159.602457 
L 337.368869 158.844586 
L 347.217937 153.542946 
L 341.913654 163.390591 
L 341.156393 161.117792 
L 333.94537 168.32688 
L 332.430441 166.811545 
" clip-path="url(#p97a735b49a)" style="fill: #ff0000"/>
    <path d="M 303.634785 134.512622 
L 310.849119 127.300384 
L 308.576531 126.542488 
L 318.425659 121.240958 
L 313.121266 131.088544 
L 312.364031 128.815736 
L 305.149696 136.027974 
L 303.634785 134.512622 
" clip-path="url(#p97a735b49a)" style="fill: #ff0000"/>
    <path d="M 197.475726 84.28309 
L 204.685561 77.073242 
L 202.412863 76.315678 
L 212.261215 71.012708 
L 206.958262 80.86107 
L 206.200694 78.588373 
L 198.990859 85.79822 
L 197.475726 84.28309 
" clip-path="url(#p97a735b49a)" style="fill: #ff0000"/>
    <path d="M 293.689955 95.077428 
L 300.89979 87.866367 
L 298.627028 87.108994 
L 308.474934 81.805195 
L 303.17281 91.654003 
L 302.415051 89.38137 
L 295.205215 96.592431 
L 293.689955 95.077428 
" clip-path="url(#p97a735b49a)" style="fill: #ff0000"/>
    <path d="M 159.048585 195.493003 
L 166.26633 188.276297 
L 163.993686 187.518567 
L 173.842425 182.216314 
L 168.538755 192.06429 
L 167.781353 189.791538 
L 160.563608 197.008244 
L 159.048585 195.493003 
" clip-path="url(#p97a735b49a)" style="fill: #ff0000"/>
    <path d="M 327.973766 140.335509 
L 335.186139 133.125328 
L 332.913557 132.367416 
L 342.76272 127.065952 
L 337.458261 136.913503 
L 336.701041 134.64069 
L 329.488667 141.850871 
L 327.973766 140.335509 
" clip-path="url(#p97a735b49a)" style="fill: #ff0000"/>
    <path d="M 240.324933 99.896912 
L 247.537294 92.685392 
L 245.26464 91.927693 
L 255.113306 86.625306 
L 249.809771 96.473354 
L 249.052337 94.200612 
L 241.839976 101.412132 
L 240.324933 99.896912 
" clip-path="url(#p97a735b49a)" style="fill: #ff0000"/>
    <path d="M 222.884101 78.004397 
L 230.09376 70.79417 
L 227.821033 70.036693 
L 237.669181 64.733344 
L 232.366607 74.58191 
L 231.608952 72.309242 
L 224.399293 79.519469 
L 222.884101 78.004397 
" clip-path="url(#p97a735b49a)" style="fill: #ff0000"/>
    <path d="M 187.956575 232.591026 
L 195.166322 225.380487 
L 192.893583 224.623046 
L 202.741649 219.319543 
L 197.439228 229.168191 
L 196.681537 226.895535 
L 189.47179 234.106075 
L 187.956575 232.591026 
" clip-path="url(#p97a735b49a)" style="fill: #ff0000"/>
    <path d="M 180.814966 191.040904 
L 188.031166 183.827786 
L 185.75863 183.069735 
L 195.60812 177.768878 
L 190.303055 187.616101 
L 189.545974 185.343242 
L 182.329774 192.55636 
L 180.814966 191.040904 
" clip-path="url(#p97a735b49a)" style="fill: #ff0000"/>
    <path d="M 114.337875 171.330039 
L 121.549384 164.119563 
L 119.276741 163.361835 
L 129.125478 158.059579 
L 123.82181 167.907556 
L 123.064407 165.634804 
L 115.852898 172.84528 
L 114.337875 171.330039 
" clip-path="url(#p97a735b49a)" style="fill: #ff0000"/>
    <path d="M 287.691783 256.267229 
L 294.898537 249.060593 
L 292.625846 248.303008 
L 302.474246 243.000127 
L 297.171204 252.848441 
L 296.413657 250.575737 
L 289.206903 257.782374 
L 287.691783 256.267229 
" clip-path="url(#p97a735b49a)" style="fill: #ff0000"/>
    <path d="M 212.563511 146.912889 
L 219.772771 139.704694 
L 217.500129 138.94696 
L 227.348878 133.644726 
L 222.045189 143.492691 
L 221.287791 141.219937 
L 214.07853 148.428132 
L 212.563511 146.912889 
" clip-path="url(#p97a735b49a)" style="fill: #ff0000"/>
    <path d="M 286.939373 283.680764 
L 294.147958 276.472052 
L 291.875253 275.714506 
L 301.723564 270.411457 
L 296.420689 280.259861 
L 295.663103 277.98717 
L 288.454518 285.195882 
L 286.939373 283.680764 
" clip-path="url(#p97a735b49a)" style="fill: #ff0000"/>
    <path d="M 353.257113 201.947953 
L 360.469318 194.735074 
L 358.196585 193.977614 
L 368.044694 188.674192 
L 362.742193 198.522797 
L 361.984521 196.250135 
L 354.772316 203.463014 
L 353.257113 201.947953 
" clip-path="url(#p97a735b49a)" style="fill: #ff0000"/>
    <path d="M 229.748338 248.756329 
L 236.959313 241.544167 
L 234.686553 240.786788 
L 244.534473 235.483016 
L 239.232322 245.331809 
L 238.474569 243.059174 
L 231.263594 250.271336 
L 229.748338 248.756329 
" clip-path="url(#p97a735b49a)" style="fill: #ff0000"/>
    <path d="M 309.549508 180.488022 
L 316.761038 173.277009 
L 314.488367 172.519361 
L 324.336914 167.216752 
L 319.0336 177.06492 
L 318.276115 174.792195 
L 311.064586 182.003208 
L 309.549508 180.488022 
" clip-path="url(#p97a735b49a)" style="fill: #ff0000"/>
    <path d="M 265.061044 266.300756 
L 272.268301 259.091946 
L 269.995521 258.334625 
L 279.843307 253.030602 
L 274.541406 262.879531 
L 273.783596 260.606915 
L 266.576339 267.815724 
L 265.061044 266.300756 
" clip-path="url(#p97a735b49a)" style="fill: #ff0000"/>
    <path d="M 239.999385 270.741731 
L 247.208287 263.530937 
L 244.93549 262.773669 
L 254.783151 257.469416 
L 249.481482 267.318469 
L 248.723618 265.04587 
L 241.514715 272.256664 
L 239.999385 270.741731 
" clip-path="url(#p97a735b49a)" style="fill: #ff0000"/>
    <path d="M 259.498428 199.502545 
L 266.713855 192.289089 
L 264.441261 191.531213 
L 274.290343 186.229597 
L 268.986035 196.07723 
L 268.22878 193.804428 
L 261.013352 201.017884 
L 259.498428 199.502545 
" clip-path="url(#p97a735b49a)" style="fill: #ff0000"/>
    <path d="M 117.156838 199.82243 
L 124.368148 192.610479 
L 122.095416 191.853014 
L 131.943538 186.549615 
L 126.641014 196.398208 
L 125.883347 194.125544 
L 118.672037 201.337494 
L 117.156838 199.82243 
" clip-path="url(#p97a735b49a)" style="fill: #ff0000"/>
    <path d="M 354.298459 149.935029 
L 361.510188 142.722358 
L 359.23744 141.964941 
L 369.085451 136.661336 
L 363.783133 146.51004 
L 363.025418 144.237391 
L 355.81369 151.450062 
L 354.298459 149.935029 
" clip-path="url(#p97a735b49a)" style="fill: #ff0000"/>
    <path d="M 321.944007 217.774538 
L 329.153518 210.567971 
L 326.880975 209.809941 
L 336.730415 204.508991 
L 331.425442 214.356265 
L 330.66834 212.083413 
L 323.458829 219.289979 
L 321.944007 217.774538 
" clip-path="url(#p97a735b49a)" style="fill: #ff0000"/>
    <path d="M 346.059622 124.24658 
L 353.270234 117.033778 
L 350.997421 116.276557 
L 360.844973 110.9721 
L 355.543507 120.821262 
L 354.785596 118.54868 
L 347.574984 125.761482 
L 346.059622 124.24658 
" clip-path="url(#p97a735b49a)" style="fill: #ff0000"/>
    <path d="M 140.102348 247.945731 
L 147.312878 240.733416 
L 145.040087 239.976131 
L 154.887787 234.671951 
L 149.586045 244.520964 
L 148.828197 242.24836 
L 141.617667 249.460675 
L 140.102348 247.945731 
" clip-path="url(#p97a735b49a)" style="fill: #ff0000"/>
    <path d="M 202.65563 128.424142 
L 209.868777 121.213503 
L 207.596211 120.455542 
L 217.44549 115.154292 
L 212.140816 125.001727 
L 211.383646 122.728898 
L 204.170499 129.939538 
L 202.65563 128.424142 
" clip-path="url(#p97a735b49a)" style="fill: #ff0000"/>
    <path d="M 331.197825 249.394016 
L 338.410073 242.182008 
L 336.137388 241.424404 
L 345.985834 236.121607 
L 340.682708 245.969876 
L 339.92518 243.697165 
L 332.712932 250.909173 
L 331.197825 249.394016 
" clip-path="url(#p97a735b49a)" style="fill: #ff0000"/>
    <path d="M 217.80895 204.747238 
L 225.022002 197.539368 
L 222.749576 196.780985 
L 232.599838 191.481562 
L 227.293338 201.328013 
L 226.536589 199.055044 
L 219.323537 206.262914 
L 217.80895 204.747238 
" clip-path="url(#p97a735b49a)" style="fill: #ff0000"/>
    <path d="M 201.830206 187.757832 
L 209.045354 180.547861 
L 206.772929 179.78948 
L 216.623188 174.490053 
L 211.316692 184.336506 
L 210.559942 182.063537 
L 203.344794 189.273507 
L 201.830206 187.757832 
" clip-path="url(#p97a735b49a)" style="fill: #ff0000"/>
    <path d="M 246.246834 121.444413 
L 253.459025 114.232633 
L 251.186348 113.475002 
L 261.034856 108.17232 
L 255.731615 118.020527 
L 254.974114 115.747807 
L 247.761923 122.959588 
L 246.246834 121.444413 
" clip-path="url(#p97a735b49a)" style="fill: #ff0000"/>
    <path d="M 163.830773 240.31911 
L 171.040545 233.105986 
L 168.767671 232.348949 
L 178.614796 227.043699 
L 173.314123 236.893288 
L 172.556029 234.620766 
L 165.346257 241.83389 
L 163.830773 240.31911 
" clip-path="url(#p97a735b49a)" style="fill: #ff0000"/>
    <path d="M 137.432648 188.452031 
L 144.645447 181.24273 
L 142.372933 180.484613 
L 152.222575 175.184039 
L 146.917226 185.03111 
L 146.160211 182.758229 
L 138.947412 189.967531 
L 137.432648 188.452031 
" clip-path="url(#p97a735b49a)" style="fill: #ff0000"/>
    <path d="M 233.174272 142.392803 
L 240.382683 135.183378 
L 238.109932 134.425972 
L 247.957916 129.122317 
L 242.655647 138.971048 
L 241.897922 136.698403 
L 234.689511 143.907829 
L 233.174272 142.392803 
" clip-path="url(#p97a735b49a)" style="fill: #ff0000"/>
    <path d="M 212.641382 55.160624 
L 219.848886 47.951702 
L 217.576114 47.19436 
L 227.42395 41.89043 
L 222.121956 51.739308 
L 221.364167 49.466685 
L 214.156663 56.675607 
L 212.641382 55.160624 
" clip-path="url(#p97a735b49a)" style="fill: #ff0000"/>
    <path d="M 207.850493 292.12154 
L 215.058978 284.911363 
L 212.786191 284.154064 
L 222.633926 278.849947 
L 217.33212 288.698926 
L 216.574287 286.426317 
L 209.365803 293.636494 
L 207.850493 292.12154 
" clip-path="url(#p97a735b49a)" style="fill: #ff0000"/>
    <path d="M 222.936627 184.106078 
L 230.150955 176.897135 
L 227.878541 176.138721 
L 237.728877 170.839437 
L 232.422239 180.685813 
L 231.665521 178.412833 
L 224.451193 185.621775 
L 222.936627 184.106078 
" clip-path="url(#p97a735b49a)" style="fill: #ff0000"/>
    <path d="M 226.934439 163.872546 
L 234.144196 156.664055 
L 231.871565 155.906289 
L 241.720387 150.604192 
L 236.416561 160.452084 
L 235.659195 158.179319 
L 228.449438 165.387811 
L 226.934439 163.872546 
" clip-path="url(#p97a735b49a)" style="fill: #ff0000"/>
    <path d="M 274.320147 236.985359 
L 281.53221 229.775057 
L 279.259605 229.017214 
L 289.10861 223.715455 
L 283.804446 233.563164 
L 283.047157 231.290374 
L 275.835094 238.500676 
L 274.320147 236.985359 
" clip-path="url(#p97a735b49a)" style="fill: #ff0000"/>
    <path d="M 160.931402 171.472198 
L 168.144583 164.258495 
L 165.871858 163.501011 
L 175.720023 158.197694 
L 170.417418 168.046243 
L 169.65977 165.773572 
L 162.446589 172.987275 
L 160.931402 171.472198 
" clip-path="url(#p97a735b49a)" style="fill: #ff0000"/>
    <path d="M 268.614025 128.951181 
L 275.826694 121.741206 
L 273.554137 120.983216 
L 283.403484 115.682093 
L 278.098684 125.52946 
L 277.341543 123.256621 
L 270.128874 130.466596 
L 268.614025 128.951181 
" clip-path="url(#p97a735b49a)" style="fill: #ff0000"/>
    <path d="M 156.472648 117.332819 
L 163.683225 110.123602 
L 161.410599 109.365822 
L 171.259456 104.063789 
L 165.955566 113.911646 
L 165.198214 111.638877 
L 157.987637 118.848094 
L 156.472648 117.332819 
" clip-path="url(#p97a735b49a)" style="fill: #ff0000"/>
    <path d="M 118.184294 143.691143 
L 125.395095 136.481337 
L 123.12245 135.723615 
L 132.971173 130.421333 
L 127.667532 140.269324 
L 126.910123 137.996574 
L 119.699321 145.20638 
L 118.184294 143.691143 
" clip-path="url(#p97a735b49a)" style="fill: #ff0000"/>
    <path d="M 147.844367 217.837406 
L 155.056852 210.622301 
L 152.784017 209.865148 
L 162.63141 204.560398 
L 157.330237 214.409718 
L 156.572259 212.137158 
L 149.359774 219.352263 
L 147.844367 217.837406 
" clip-path="url(#p97a735b49a)" style="fill: #ff0000"/>
    <path d="M 238.459116 205.546148 
L 245.674612 198.332432 
L 243.402008 197.574586 
L 253.25102 192.27284 
L 247.946843 202.120542 
L 247.189557 199.847751 
L 239.97406 207.061467 
L 238.459116 205.546148 
" clip-path="url(#p97a735b49a)" style="fill: #ff0000"/>
    <path d="M 125.813993 224.887014 
L 133.025478 217.67525 
L 130.752766 216.917728 
L 140.60102 211.614576 
L 135.298249 221.463036 
L 134.540639 219.190353 
L 127.329154 226.402117 
L 125.813993 224.887014 
" clip-path="url(#p97a735b49a)" style="fill: #ff0000"/>
    <path d="M 239.18666 52.810529 
L 246.394865 45.600516 
L 244.122072 44.843235 
L 253.969764 39.539039 
L 248.668038 49.388061 
L 247.910187 47.115458 
L 240.701982 54.325471 
L 239.18666 52.810529 
" clip-path="url(#p97a735b49a)" style="fill: #ff0000"/>
    <path d="M 195.491453 209.78751 
L 202.703677 202.577648 
L 200.431104 201.81971 
L 210.280329 196.518361 
L 204.975755 206.36585 
L 204.218561 204.093028 
L 197.006337 211.30289 
L 195.491453 209.78751 
" clip-path="url(#p97a735b49a)" style="fill: #ff0000"/>
    <path d="M 183.100154 168.893091 
L 190.31245 161.682193 
L 188.039825 160.924406 
L 197.888696 155.622399 
L 192.58478 165.470242 
L 191.827435 163.197471 
L 184.615139 170.408369 
L 183.100154 168.893091 
" clip-path="url(#p97a735b49a)" style="fill: #ff0000"/>
    <path d="M 261.211918 292.12916 
L 268.420279 284.919888 
L 266.147533 284.162466 
L 275.995555 278.858881 
L 270.693216 288.707574 
L 269.935506 286.434924 
L 262.727146 293.644196 
L 261.211918 292.12916 
" clip-path="url(#p97a735b49a)" style="fill: #ff0000"/>
    <path d="M 294.454872 224.020392 
L 301.668622 216.809902 
L 299.396095 216.051822 
L 309.24565 210.751086 
L 303.940464 220.598245 
L 303.183411 218.325376 
L 295.969661 225.535867 
L 294.454872 224.020392 
" clip-path="url(#p97a735b49a)" style="fill: #ff0000"/>
    <path d="M 248.024873 77.544148 
L 255.234796 70.333067 
L 252.962038 69.575683 
L 262.809969 64.271932 
L 257.507798 74.120714 
L 256.75005 71.848077 
L 249.540126 79.059158 
L 248.024873 77.544148 
" clip-path="url(#p97a735b49a)" style="fill: #ff0000"/>
    <path d="M 172.536961 215.498544 
L 179.748599 208.285877 
L 177.475847 207.528474 
L 187.323826 202.22481 
L 182.021566 212.073545 
L 181.263838 209.800901 
L 174.052201 217.013567 
L 172.536961 215.498544 
" clip-path="url(#p97a735b49a)" style="fill: #ff0000"/>
    <path d="M 166.222746 148.636997 
L 173.434986 141.424067 
L 171.162253 140.66661 
L 181.010356 135.363178 
L 175.707865 145.211788 
L 174.950191 142.939126 
L 167.73795 150.152057 
L 166.222746 148.636997 
" clip-path="url(#p97a735b49a)" style="fill: #ff0000"/>
    <path d="M 271.746834 83.363095 
L 278.955991 76.152844 
L 276.683235 75.39545 
L 286.53119 70.091741 
L 281.228976 79.940501 
L 280.471238 77.667861 
L 273.262081 84.878112 
L 271.746834 83.363095 
" clip-path="url(#p97a735b49a)" style="fill: #ff0000"/>
   </g>
   <g id="matplotlib.axis_1">
    <g id="xtick_1">
     <g id="line2d_1">
      <defs>
       <path id="m9de739a9a9" d="M 0 0 
L 0 3.5 
" style="stroke: #000000; stroke-width: 0.8"/>
      </defs>
      <g>
       <use xlink:href="#m9de739a9a9" x="82.832067" y="307.584" style="stroke: #000000; stroke-width: 0.8"/>
      </g>
     </g>
     <g id="text_1">
      <!-- 75.5 -->
      <g transform="translate(69.472692 323.702125) scale(0.12 -0.12)">
       <defs>
        <path id="DejaVuSans-37" d="M 525 4666 
L 3525 4666 
L 3525 4397 
L 1831 0 
L 1172 0 
L 2766 4134 
L 525 4134 
L 525 4666 
z
" transform="scale(0.015625)"/>
        <path id="DejaVuSans-35" d="M 691 4666 
L 3169 4666 
L 3169 4134 
L 1269 4134 
L 1269 2991 
Q 1406 3038 1543 3061 
Q 1681 3084 1819 3084 
Q 2600 3084 3056 2656 
Q 3513 2228 3513 1497 
Q 3513 744 3044 326 
Q 2575 -91 1722 -91 
Q 1428 -91 1123 -41 
Q 819 9 494 109 
L 494 744 
Q 775 591 1075 516 
Q 1375 441 1709 441 
Q 2250 441 2565 725 
Q 2881 1009 2881 1497 
Q 2881 1984 2565 2268 
Q 2250 2553 1709 2553 
Q 1456 2553 1204 2497 
Q 953 2441 691 2322 
L 691 4666 
z
" transform="scale(0.015625)"/>
        <path id="DejaVuSans-2e" d="M 684 794 
L 1344 794 
L 1344 0 
L 684 0 
L 684 794 
z
" transform="scale(0.015625)"/>
       </defs>
       <use xlink:href="#DejaVuSans-37"/>
       <use xlink:href="#DejaVuSans-35" x="63.623047"/>
       <use xlink:href="#DejaVuSans-2e" x="127.246094"/>
       <use xlink:href="#DejaVuSans-35" x="159.033203"/>
      </g>
     </g>
    </g>
    <g id="xtick_2">
     <g id="line2d_2">
      <g>
       <use xlink:href="#m9de739a9a9" x="146.131092" y="307.584" style="stroke: #000000; stroke-width: 0.8"/>
      </g>
     </g>
     <g id="text_2">
      <!-- 76.0 -->
      <g transform="translate(132.771717 323.702125) scale(0.12 -0.12)">
       <defs>
        <path id="DejaVuSans-36" d="M 2113 2584 
Q 1688 2584 1439 2293 
Q 1191 2003 1191 1497 
Q 1191 994 1439 701 
Q 1688 409 2113 409 
Q 2538 409 2786 701 
Q 3034 994 3034 1497 
Q 3034 2003 2786 2293 
Q 2538 2584 2113 2584 
z
M 3366 4563 
L 3366 3988 
Q 3128 4100 2886 4159 
Q 2644 4219 2406 4219 
Q 1781 4219 1451 3797 
Q 1122 3375 1075 2522 
Q 1259 2794 1537 2939 
Q 1816 3084 2150 3084 
Q 2853 3084 3261 2657 
Q 3669 2231 3669 1497 
Q 3669 778 3244 343 
Q 2819 -91 2113 -91 
Q 1303 -91 875 529 
Q 447 1150 447 2328 
Q 447 3434 972 4092 
Q 1497 4750 2381 4750 
Q 2619 4750 2861 4703 
Q 3103 4656 3366 4563 
z
" transform="scale(0.015625)"/>
        <path id="DejaVuSans-30" d="M 2034 4250 
Q 1547 4250 1301 3770 
Q 1056 3291 1056 2328 
Q 1056 1369 1301 889 
Q 1547 409 2034 409 
Q 2525 409 2770 889 
Q 3016 1369 3016 2328 
Q 3016 3291 2770 3770 
Q 2525 4250 2034 4250 
z
M 2034 4750 
Q 2819 4750 3233 4129 
Q 3647 3509 3647 2328 
Q 3647 1150 3233 529 
Q 2819 -91 2034 -91 
Q 1250 -91 836 529 
Q 422 1150 422 2328 
Q 422 3509 836 4129 
Q 1250 4750 2034 4750 
z
" transform="scale(0.015625)"/>
       </defs>
       <use xlink:href="#DejaVuSans-37"/>
       <use xlink:href="#DejaVuSans-36" x="63.623047"/>
       <use xlink:href="#DejaVuSans-2e" x="127.246094"/>
       <use xlink:href="#DejaVuSans-30" x="159.033203"/>
      </g>
     </g>
    </g>
    <g id="xtick_3">
     <g id="line2d_3">
      <g>
       <use xlink:href="#m9de739a9a9" x="209.430118" y="307.584" style="stroke: #000000; stroke-width: 0.8"/>
      </g>
     </g>
     <g id="text_3">
      <!-- 76.5 -->
      <g transform="translate(196.070743 323.702125) scale(0.12 -0.12)">
       <use xlink:href="#DejaVuSans-37"/>
       <use xlink:href="#DejaVuSans-36" x="63.623047"/>
       <use xlink:href="#DejaVuSans-2e" x="127.246094"/>
       <use xlink:href="#DejaVuSans-35" x="159.033203"/>
      </g>
     </g>
    </g>
    <g id="xtick_4">
     <g id="line2d_4">
      <g>
       <use xlink:href="#m9de739a9a9" x="272.729143" y="307.584" style="stroke: #000000; stroke-width: 0.8"/>
      </g>
     </g>
     <g id="text_4">
      <!-- 77.0 -->
      <g transform="translate(259.369768 323.702125) scale(0.12 -0.12)">
       <use xlink:href="#DejaVuSans-37"/>
       <use xlink:href="#DejaVuSans-37" x="63.623047"/>
       <use xlink:href="#DejaVuSans-2e" x="127.246094"/>
       <use xlink:href="#DejaVuSans-30" x="159.033203"/>
      </g>
     </g>
    </g>
    <g id="xtick_5">
     <g id="line2d_5">
      <g>
       <use xlink:href="#m9de739a9a9" x="336.028169" y="307.584" style="stroke: #000000; stroke-width: 0.8"/>
      </g>
     </g>
     <g id="text_5">
      <!-- 77.5 -->
      <g transform="translate(322.668794 323.702125) scale(0.12 -0.12)">
       <use xlink:href="#DejaVuSans-37"/>
       <use xlink:href="#DejaVuSans-37" x="63.623047"/>
       <use xlink:href="#DejaVuSans-2e" x="127.246094"/>
       <use xlink:href="#DejaVuSans-35" x="159.033203"/>
      </g>
     </g>
    </g>
    <g id="xtick_6">
     <g id="line2d_6">
      <g>
       <use xlink:href="#m9de739a9a9" x="399.327194" y="307.584" style="stroke: #000000; stroke-width: 0.8"/>
      </g>
     </g>
     <g id="text_6">
      <!-- 78.0 -->
      <g transform="translate(385.967819 323.702125) scale(0.12 -0.12)">
       <defs>
        <path id="DejaVuSans-38" d="M 2034 2216 
Q 1584 2216 1326 1975 
Q 1069 1734 1069 1313 
Q 1069 891 1326 650 
Q 1584 409 2034 409 
Q 2484 409 2743 651 
Q 3003 894 3003 1313 
Q 3003 1734 2745 1975 
Q 2488 2216 2034 2216 
z
M 1403 2484 
Q 997 2584 770 2862 
Q 544 3141 544 3541 
Q 544 4100 942 4425 
Q 1341 4750 2034 4750 
Q 2731 4750 3128 4425 
Q 3525 4100 3525 3541 
Q 3525 3141 3298 2862 
Q 3072 2584 2669 2484 
Q 3125 2378 3379 2068 
Q 3634 1759 3634 1313 
Q 3634 634 3220 271 
Q 2806 -91 2034 -91 
Q 1263 -91 848 271 
Q 434 634 434 1313 
Q 434 1759 690 2068 
Q 947 2378 1403 2484 
z
M 1172 3481 
Q 1172 3119 1398 2916 
Q 1625 2713 2034 2713 
Q 2441 2713 2670 2916 
Q 2900 3119 2900 3481 
Q 2900 3844 2670 4047 
Q 2441 4250 2034 4250 
Q 1625 4250 1398 4047 
Q 1172 3844 1172 3481 
z
" transform="scale(0.015625)"/>
       </defs>
       <use xlink:href="#DejaVuSans-37"/>
       <use xlink:href="#DejaVuSans-38" x="63.623047"/>
       <use xlink:href="#DejaVuSans-2e" x="127.246094"/>
       <use xlink:href="#DejaVuSans-30" x="159.033203"/>
      </g>
     </g>
    </g>
    <g id="text_7">
     <!-- x -->
     <g transform="translate(232.016875 340.835562) scale(0.14 -0.14)">
      <defs>
       <path id="DejaVuSans-78" d="M 3513 3500 
L 2247 1797 
L 3578 0 
L 2900 0 
L 1881 1375 
L 863 0 
L 184 0 
L 1544 1831 
L 300 3500 
L 978 3500 
L 1906 2253 
L 2834 3500 
L 3513 3500 
z
" transform="scale(0.015625)"/>
      </defs>
      <use xlink:href="#DejaVuSans-78"/>
     </g>
    </g>
   </g>
   <g id="matplotlib.axis_2">
    <g id="ytick_1">
     <g id="line2d_7">
      <defs>
       <path id="mbc95e743c7" d="M 0 0 
L -3.5 0 
" style="stroke: #000000; stroke-width: 0.8"/>
      </defs>
      <g>
       <use xlink:href="#mbc95e743c7" x="57.6" y="285.785888" style="stroke: #000000; stroke-width: 0.8"/>
      </g>
     </g>
     <g id="text_8">
      <!-- 74.50 -->
      <g transform="translate(16.24625 290.344951) scale(0.12 -0.12)">
       <defs>
        <path id="DejaVuSans-34" d="M 2419 4116 
L 825 1625 
L 2419 1625 
L 2419 4116 
z
M 2253 4666 
L 3047 4666 
L 3047 1625 
L 3713 1625 
L 3713 1100 
L 3047 1100 
L 3047 0 
L 2419 0 
L 2419 1100 
L 313 1100 
L 313 1709 
L 2253 4666 
z
" transform="scale(0.015625)"/>
       </defs>
       <use xlink:href="#DejaVuSans-37"/>
       <use xlink:href="#DejaVuSans-34" x="63.623047"/>
       <use xlink:href="#DejaVuSans-2e" x="127.246094"/>
       <use xlink:href="#DejaVuSans-35" x="159.033203"/>
       <use xlink:href="#DejaVuSans-30" x="222.65625"/>
      </g>
     </g>
    </g>
    <g id="ytick_2">
     <g id="line2d_8">
      <g>
       <use xlink:href="#mbc95e743c7" x="57.6" y="254.136376" style="stroke: #000000; stroke-width: 0.8"/>
      </g>
     </g>
     <g id="text_9">
      <!-- 74.75 -->
      <g transform="translate(16.24625 258.695438) scale(0.12 -0.12)">
       <use xlink:href="#DejaVuSans-37"/>
       <use xlink:href="#DejaVuSans-34" x="63.623047"/>
       <use xlink:href="#DejaVuSans-2e" x="127.246094"/>
       <use xlink:href="#DejaVuSans-37" x="159.033203"/>
       <use xlink:href="#DejaVuSans-35" x="222.65625"/>
      </g>
     </g>
    </g>
    <g id="ytick_3">
     <g id="line2d_9">
      <g>
       <use xlink:href="#mbc95e743c7" x="57.6" y="222.486863" style="stroke: #000000; stroke-width: 0.8"/>
      </g>
     </g>
     <g id="text_10">
      <!-- 75.00 -->
      <g transform="translate(16.24625 227.045925) scale(0.12 -0.12)">
       <use xlink:href="#DejaVuSans-37"/>
       <use xlink:href="#DejaVuSans-35" x="63.623047"/>
       <use xlink:href="#DejaVuSans-2e" x="127.246094"/>
       <use xlink:href="#DejaVuSans-30" x="159.033203"/>
       <use xlink:href="#DejaVuSans-30" x="222.65625"/>
      </g>
     </g>
    </g>
    <g id="ytick_4">
     <g id="line2d_10">
      <g>
       <use xlink:href="#mbc95e743c7" x="57.6" y="190.83735" style="stroke: #000000; stroke-width: 0.8"/>
      </g>
     </g>
     <g id="text_11">
      <!-- 75.25 -->
      <g transform="translate(16.24625 195.396413) scale(0.12 -0.12)">
       <defs>
        <path id="DejaVuSans-32" d="M 1228 531 
L 3431 531 
L 3431 0 
L 469 0 
L 469 531 
Q 828 903 1448 1529 
Q 2069 2156 2228 2338 
Q 2531 2678 2651 2914 
Q 2772 3150 2772 3378 
Q 2772 3750 2511 3984 
Q 2250 4219 1831 4219 
Q 1534 4219 1204 4116 
Q 875 4013 500 3803 
L 500 4441 
Q 881 4594 1212 4672 
Q 1544 4750 1819 4750 
Q 2544 4750 2975 4387 
Q 3406 4025 3406 3419 
Q 3406 3131 3298 2873 
Q 3191 2616 2906 2266 
Q 2828 2175 2409 1742 
Q 1991 1309 1228 531 
z
" transform="scale(0.015625)"/>
       </defs>
       <use xlink:href="#DejaVuSans-37"/>
       <use xlink:href="#DejaVuSans-35" x="63.623047"/>
       <use xlink:href="#DejaVuSans-2e" x="127.246094"/>
       <use xlink:href="#DejaVuSans-32" x="159.033203"/>
       <use xlink:href="#DejaVuSans-35" x="222.65625"/>
      </g>
     </g>
    </g>
    <g id="ytick_5">
     <g id="line2d_11">
      <g>
       <use xlink:href="#mbc95e743c7" x="57.6" y="159.187837" style="stroke: #000000; stroke-width: 0.8"/>
      </g>
     </g>
     <g id="text_12">
      <!-- 75.50 -->
      <g transform="translate(16.24625 163.7469) scale(0.12 -0.12)">
       <use xlink:href="#DejaVuSans-37"/>
       <use xlink:href="#DejaVuSans-35" x="63.623047"/>
       <use xlink:href="#DejaVuSans-2e" x="127.246094"/>
       <use xlink:href="#DejaVuSans-35" x="159.033203"/>
       <use xlink:href="#DejaVuSans-30" x="222.65625"/>
      </g>
     </g>
    </g>
    <g id="ytick_6">
     <g id="line2d_12">
      <g>
       <use xlink:href="#mbc95e743c7" x="57.6" y="127.538325" style="stroke: #000000; stroke-width: 0.8"/>
      </g>
     </g>
     <g id="text_13">
      <!-- 75.75 -->
      <g transform="translate(16.24625 132.097387) scale(0.12 -0.12)">
       <use xlink:href="#DejaVuSans-37"/>
       <use xlink:href="#DejaVuSans-35" x="63.623047"/>
       <use xlink:href="#DejaVuSans-2e" x="127.246094"/>
       <use xlink:href="#DejaVuSans-37" x="159.033203"/>
       <use xlink:href="#DejaVuSans-35" x="222.65625"/>
      </g>
     </g>
    </g>
    <g id="ytick_7">
     <g id="line2d_13">
      <g>
       <use xlink:href="#mbc95e743c7" x="57.6" y="95.888812" style="stroke: #000000; stroke-width: 0.8"/>
      </g>
     </g>
     <g id="text_14">
      <!-- 76.00 -->
      <g transform="translate(16.24625 100.447874) scale(0.12 -0.12)">
       <use xlink:href="#DejaVuSans-37"/>
       <use xlink:href="#DejaVuSans-36" x="63.623047"/>
       <use xlink:href="#DejaVuSans-2e" x="127.246094"/>
       <use xlink:href="#DejaVuSans-30" x="159.033203"/>
       <use xlink:href="#DejaVuSans-30" x="222.65625"/>
      </g>
     </g>
    </g>
    <g id="ytick_8">
     <g id="line2d_14">
      <g>
       <use xlink:href="#mbc95e743c7" x="57.6" y="64.239299" style="stroke: #000000; stroke-width: 0.8"/>
      </g>
     </g>
     <g id="text_15">
      <!-- 76.25 -->
      <g transform="translate(16.24625 68.798362) scale(0.12 -0.12)">
       <use xlink:href="#DejaVuSans-37"/>
       <use xlink:href="#DejaVuSans-36" x="63.623047"/>
       <use xlink:href="#DejaVuSans-2e" x="127.246094"/>
       <use xlink:href="#DejaVuSans-32" x="159.033203"/>
       <use xlink:href="#DejaVuSans-35" x="222.65625"/>
      </g>
     </g>
    </g>
    <g id="text_16">
     <!-- y -->
     <g transform="translate(9.334688 178.671125) rotate(-90) scale(0.14 -0.14)">
      <defs>
       <path id="DejaVuSans-79" d="M 2059 -325 
Q 1816 -950 1584 -1140 
Q 1353 -1331 966 -1331 
L 506 -1331 
L 506 -850 
L 844 -850 
Q 1081 -850 1212 -737 
Q 1344 -625 1503 -206 
L 1606 56 
L 191 3500 
L 800 3500 
L 1894 763 
L 2988 3500 
L 3597 3500 
L 2059 -325 
z
" transform="scale(0.015625)"/>
      </defs>
      <use xlink:href="#DejaVuSans-79"/>
     </g>
    </g>
   </g>
   <g id="patch_3">
    <path d="M 57.6 307.584 
L 57.6 41.472 
" style="fill: none; stroke: #000000; stroke-width: 0.8; stroke-linejoin: miter; stroke-linecap: square"/>
   </g>
   <g id="patch_4">
    <path d="M 414.72 307.584 
L 414.72 41.472 
" style="fill: none; stroke: #000000; stroke-width: 0.8; stroke-linejoin: miter; stroke-linecap: square"/>
   </g>
   <g id="patch_5">
    <path d="M 57.6 307.584 
L 414.72 307.584 
" style="fill: none; stroke: #000000; stroke-width: 0.8; stroke-linejoin: miter; stroke-linecap: square"/>
   </g>
   <g id="patch_6">
    <path d="M 57.6 41.472 
L 414.72 41.472 
" style="fill: none; stroke: #000000; stroke-width: 0.8; stroke-linejoin: miter; stroke-linecap: square"/>
   </g>
   <g id="text_17">
    <!-- Velocities at the final time -->
    <g transform="translate(116.81 35.472) scale(0.16 -0.16)">
     <defs>
      <path id="DejaVuSans-Bold-56" d="M 31 4666 
L 1241 4666 
L 2478 1222 
L 3713 4666 
L 4922 4666 
L 3194 0 
L 1759 0 
L 31 4666 
z
" transform="scale(0.015625)"/>
      <path id="DejaVuSans-Bold-65" d="M 4031 1759 
L 4031 1441 
L 1416 1441 
Q 1456 1047 1700 850 
Q 1944 653 2381 653 
Q 2734 653 3104 758 
Q 3475 863 3866 1075 
L 3866 213 
Q 3469 63 3072 -14 
Q 2675 -91 2278 -91 
Q 1328 -91 801 392 
Q 275 875 275 1747 
Q 275 2603 792 3093 
Q 1309 3584 2216 3584 
Q 3041 3584 3536 3087 
Q 4031 2591 4031 1759 
z
M 2881 2131 
Q 2881 2450 2695 2645 
Q 2509 2841 2209 2841 
Q 1884 2841 1681 2658 
Q 1478 2475 1428 2131 
L 2881 2131 
z
" transform="scale(0.015625)"/>
      <path id="DejaVuSans-Bold-6c" d="M 538 4863 
L 1656 4863 
L 1656 0 
L 538 0 
L 538 4863 
z
" transform="scale(0.015625)"/>
      <path id="DejaVuSans-Bold-6f" d="M 2203 2784 
Q 1831 2784 1636 2517 
Q 1441 2250 1441 1747 
Q 1441 1244 1636 976 
Q 1831 709 2203 709 
Q 2569 709 2762 976 
Q 2956 1244 2956 1747 
Q 2956 2250 2762 2517 
Q 2569 2784 2203 2784 
z
M 2203 3584 
Q 3106 3584 3614 3096 
Q 4122 2609 4122 1747 
Q 4122 884 3614 396 
Q 3106 -91 2203 -91 
Q 1297 -91 786 396 
Q 275 884 275 1747 
Q 275 2609 786 3096 
Q 1297 3584 2203 3584 
z
" transform="scale(0.015625)"/>
      <path id="DejaVuSans-Bold-63" d="M 3366 3391 
L 3366 2478 
Q 3138 2634 2908 2709 
Q 2678 2784 2431 2784 
Q 1963 2784 1702 2511 
Q 1441 2238 1441 1747 
Q 1441 1256 1702 982 
Q 1963 709 2431 709 
Q 2694 709 2930 787 
Q 3166 866 3366 1019 
L 3366 103 
Q 3103 6 2833 -42 
Q 2563 -91 2291 -91 
Q 1344 -91 809 395 
Q 275 881 275 1747 
Q 275 2613 809 3098 
Q 1344 3584 2291 3584 
Q 2566 3584 2833 3536 
Q 3100 3488 3366 3391 
z
" transform="scale(0.015625)"/>
      <path id="DejaVuSans-Bold-69" d="M 538 3500 
L 1656 3500 
L 1656 0 
L 538 0 
L 538 3500 
z
M 538 4863 
L 1656 4863 
L 1656 3950 
L 538 3950 
L 538 4863 
z
" transform="scale(0.015625)"/>
      <path id="DejaVuSans-Bold-74" d="M 1759 4494 
L 1759 3500 
L 2913 3500 
L 2913 2700 
L 1759 2700 
L 1759 1216 
Q 1759 972 1856 886 
Q 1953 800 2241 800 
L 2816 800 
L 2816 0 
L 1856 0 
Q 1194 0 917 276 
Q 641 553 641 1216 
L 641 2700 
L 84 2700 
L 84 3500 
L 641 3500 
L 641 4494 
L 1759 4494 
z
" transform="scale(0.015625)"/>
      <path id="DejaVuSans-Bold-73" d="M 3272 3391 
L 3272 2541 
Q 2913 2691 2578 2766 
Q 2244 2841 1947 2841 
Q 1628 2841 1473 2761 
Q 1319 2681 1319 2516 
Q 1319 2381 1436 2309 
Q 1553 2238 1856 2203 
L 2053 2175 
Q 2913 2066 3209 1816 
Q 3506 1566 3506 1031 
Q 3506 472 3093 190 
Q 2681 -91 1863 -91 
Q 1516 -91 1145 -36 
Q 775 19 384 128 
L 384 978 
Q 719 816 1070 734 
Q 1422 653 1784 653 
Q 2113 653 2278 743 
Q 2444 834 2444 1013 
Q 2444 1163 2330 1236 
Q 2216 1309 1875 1350 
L 1678 1375 
Q 931 1469 631 1722 
Q 331 1975 331 2491 
Q 331 3047 712 3315 
Q 1094 3584 1881 3584 
Q 2191 3584 2531 3537 
Q 2872 3491 3272 3391 
z
" transform="scale(0.015625)"/>
      <path id="DejaVuSans-Bold-20" transform="scale(0.015625)"/>
      <path id="DejaVuSans-Bold-61" d="M 2106 1575 
Q 1756 1575 1579 1456 
Q 1403 1338 1403 1106 
Q 1403 894 1545 773 
Q 1688 653 1941 653 
Q 2256 653 2472 879 
Q 2688 1106 2688 1447 
L 2688 1575 
L 2106 1575 
z
M 3816 1997 
L 3816 0 
L 2688 0 
L 2688 519 
Q 2463 200 2181 54 
Q 1900 -91 1497 -91 
Q 953 -91 614 226 
Q 275 544 275 1050 
Q 275 1666 698 1953 
Q 1122 2241 2028 2241 
L 2688 2241 
L 2688 2328 
Q 2688 2594 2478 2717 
Q 2269 2841 1825 2841 
Q 1466 2841 1156 2769 
Q 847 2697 581 2553 
L 581 3406 
Q 941 3494 1303 3539 
Q 1666 3584 2028 3584 
Q 2975 3584 3395 3211 
Q 3816 2838 3816 1997 
z
" transform="scale(0.015625)"/>
      <path id="DejaVuSans-Bold-68" d="M 4056 2131 
L 4056 0 
L 2931 0 
L 2931 347 
L 2931 1625 
Q 2931 2084 2911 2256 
Q 2891 2428 2841 2509 
Q 2775 2619 2662 2680 
Q 2550 2741 2406 2741 
Q 2056 2741 1856 2470 
Q 1656 2200 1656 1722 
L 1656 0 
L 538 0 
L 538 4863 
L 1656 4863 
L 1656 2988 
Q 1909 3294 2193 3439 
Q 2478 3584 2822 3584 
Q 3428 3584 3742 3212 
Q 4056 2841 4056 2131 
z
" transform="scale(0.015625)"/>
      <path id="DejaVuSans-Bold-66" d="M 2841 4863 
L 2841 4128 
L 2222 4128 
Q 1984 4128 1890 4042 
Q 1797 3956 1797 3744 
L 1797 3500 
L 2753 3500 
L 2753 2700 
L 1797 2700 
L 1797 0 
L 678 0 
L 678 2700 
L 122 2700 
L 122 3500 
L 678 3500 
L 678 3744 
Q 678 4316 997 4589 
Q 1316 4863 1984 4863 
L 2841 4863 
z
" transform="scale(0.015625)"/>
      <path id="DejaVuSans-Bold-6e" d="M 4056 2131 
L 4056 0 
L 2931 0 
L 2931 347 
L 2931 1631 
Q 2931 2084 2911 2256 
Q 2891 2428 2841 2509 
Q 2775 2619 2662 2680 
Q 2550 2741 2406 2741 
Q 2056 2741 1856 2470 
Q 1656 2200 1656 1722 
L 1656 0 
L 538 0 
L 538 3500 
L 1656 3500 
L 1656 2988 
Q 1909 3294 2193 3439 
Q 2478 3584 2822 3584 
Q 3428 3584 3742 3212 
Q 4056 2841 4056 2131 
z
" transform="scale(0.015625)"/>
      <path id="DejaVuSans-Bold-6d" d="M 3781 2919 
Q 3994 3244 4286 3414 
Q 4578 3584 4928 3584 
Q 5531 3584 5847 3212 
Q 6163 2841 6163 2131 
L 6163 0 
L 5038 0 
L 5038 1825 
Q 5041 1866 5042 1909 
Q 5044 1953 5044 2034 
Q 5044 2406 4934 2573 
Q 4825 2741 4581 2741 
Q 4263 2741 4089 2478 
Q 3916 2216 3909 1719 
L 3909 0 
L 2784 0 
L 2784 1825 
Q 2784 2406 2684 2573 
Q 2584 2741 2328 2741 
Q 2006 2741 1831 2477 
Q 1656 2213 1656 1722 
L 1656 0 
L 531 0 
L 531 3500 
L 1656 3500 
L 1656 2988 
Q 1863 3284 2130 3434 
Q 2397 3584 2719 3584 
Q 3081 3584 3359 3409 
Q 3638 3234 3781 2919 
z
" transform="scale(0.015625)"/>
     </defs>
     <use xlink:href="#DejaVuSans-Bold-56"/>
     <use xlink:href="#DejaVuSans-Bold-65" x="71.892578"/>
     <use xlink:href="#DejaVuSans-Bold-6c" x="139.714844"/>
     <use xlink:href="#DejaVuSans-Bold-6f" x="173.992188"/>
     <use xlink:href="#DejaVuSans-Bold-63" x="242.693359"/>
     <use xlink:href="#DejaVuSans-Bold-69" x="301.970703"/>
     <use xlink:href="#DejaVuSans-Bold-74" x="336.248047"/>
     <use xlink:href="#DejaVuSans-Bold-69" x="384.050781"/>
     <use xlink:href="#DejaVuSans-Bold-65" x="418.328125"/>
     <use xlink:href="#DejaVuSans-Bold-73" x="486.150391"/>
     <use xlink:href="#DejaVuSans-Bold-20" x="545.671875"/>
     <use xlink:href="#DejaVuSans-Bold-61" x="580.486328"/>
     <use xlink:href="#DejaVuSans-Bold-74" x="647.966797"/>
     <use xlink:href="#DejaVuSans-Bold-20" x="695.769531"/>
     <use xlink:href="#DejaVuSans-Bold-74" x="730.583984"/>
     <use xlink:href="#DejaVuSans-Bold-68" x="778.386719"/>
     <use xlink:href="#DejaVuSans-Bold-65" x="849.578125"/>
     <use xlink:href="#DejaVuSans-Bold-20" x="917.400391"/>
     <use xlink:href="#DejaVuSans-Bold-66" x="952.214844"/>
     <use xlink:href="#DejaVuSans-Bold-69" x="995.720703"/>
     <use xlink:href="#DejaVuSans-Bold-6e" x="1029.998047"/>
     <use xlink:href="#DejaVuSans-Bold-61" x="1101.189453"/>
     <use xlink:href="#DejaVuSans-Bold-6c" x="1168.669922"/>
     <use xlink:href="#DejaVuSans-Bold-20" x="1202.947266"/>
     <use xlink:href="#DejaVuSans-Bold-74" x="1237.761719"/>
     <use xlink:href="#DejaVuSans-Bold-69" x="1285.564453"/>
     <use xlink:href="#DejaVuSans-Bold-6d" x="1319.841797"/>
     <use xlink:href="#DejaVuSans-Bold-65" x="1424.041016"/>
    </g>
   </g>
   <g id="legend_1">
    <g id="patch_7">
     <path d="M 328.266875 78.82825 
L 407.72 78.82825 
Q 409.72 78.82825 409.72 76.82825 
L 409.72 48.472 
Q 409.72 46.472 407.72 46.472 
L 328.266875 46.472 
Q 326.266875 46.472 326.266875 48.472 
L 326.266875 76.82825 
Q 326.266875 78.82825 328.266875 78.82825 
z
" style="fill: #ffffff; opacity: 0.8; stroke: #cccccc; stroke-linejoin: miter"/>
    </g>
    <g id="PathCollection_2">
     <g>
      <use xlink:href="#mb554d4db87" x="340.266875" y="55.445437" style="fill: #0000ff; stroke: #0000ff"/>
     </g>
    </g>
    <g id="text_18">
     <!-- Positions -->
     <g transform="translate(358.266875 58.070437) scale(0.1 -0.1)">
      <defs>
       <path id="DejaVuSans-50" d="M 1259 4147 
L 1259 2394 
L 2053 2394 
Q 2494 2394 2734 2622 
Q 2975 2850 2975 3272 
Q 2975 3691 2734 3919 
Q 2494 4147 2053 4147 
L 1259 4147 
z
M 628 4666 
L 2053 4666 
Q 2838 4666 3239 4311 
Q 3641 3956 3641 3272 
Q 3641 2581 3239 2228 
Q 2838 1875 2053 1875 
L 1259 1875 
L 1259 0 
L 628 0 
L 628 4666 
z
" transform="scale(0.015625)"/>
       <path id="DejaVuSans-6f" d="M 1959 3097 
Q 1497 3097 1228 2736 
Q 959 2375 959 1747 
Q 959 1119 1226 758 
Q 1494 397 1959 397 
Q 2419 397 2687 759 
Q 2956 1122 2956 1747 
Q 2956 2369 2687 2733 
Q 2419 3097 1959 3097 
z
M 1959 3584 
Q 2709 3584 3137 3096 
Q 3566 2609 3566 1747 
Q 3566 888 3137 398 
Q 2709 -91 1959 -91 
Q 1206 -91 779 398 
Q 353 888 353 1747 
Q 353 2609 779 3096 
Q 1206 3584 1959 3584 
z
" transform="scale(0.015625)"/>
       <path id="DejaVuSans-73" d="M 2834 3397 
L 2834 2853 
Q 2591 2978 2328 3040 
Q 2066 3103 1784 3103 
Q 1356 3103 1142 2972 
Q 928 2841 928 2578 
Q 928 2378 1081 2264 
Q 1234 2150 1697 2047 
L 1894 2003 
Q 2506 1872 2764 1633 
Q 3022 1394 3022 966 
Q 3022 478 2636 193 
Q 2250 -91 1575 -91 
Q 1294 -91 989 -36 
Q 684 19 347 128 
L 347 722 
Q 666 556 975 473 
Q 1284 391 1588 391 
Q 1994 391 2212 530 
Q 2431 669 2431 922 
Q 2431 1156 2273 1281 
Q 2116 1406 1581 1522 
L 1381 1569 
Q 847 1681 609 1914 
Q 372 2147 372 2553 
Q 372 3047 722 3315 
Q 1072 3584 1716 3584 
Q 2034 3584 2315 3537 
Q 2597 3491 2834 3397 
z
" transform="scale(0.015625)"/>
       <path id="DejaVuSans-69" d="M 603 3500 
L 1178 3500 
L 1178 0 
L 603 0 
L 603 3500 
z
M 603 4863 
L 1178 4863 
L 1178 4134 
L 603 4134 
L 603 4863 
z
" transform="scale(0.015625)"/>
       <path id="DejaVuSans-74" d="M 1172 4494 
L 1172 3500 
L 2356 3500 
L 2356 3053 
L 1172 3053 
L 1172 1153 
Q 1172 725 1289 603 
Q 1406 481 1766 481 
L 2356 481 
L 2356 0 
L 1766 0 
Q 1100 0 847 248 
Q 594 497 594 1153 
L 594 3053 
L 172 3053 
L 172 3500 
L 594 3500 
L 594 4494 
L 1172 4494 
z
" transform="scale(0.015625)"/>
       <path id="DejaVuSans-6e" d="M 3513 2113 
L 3513 0 
L 2938 0 
L 2938 2094 
Q 2938 2591 2744 2837 
Q 2550 3084 2163 3084 
Q 1697 3084 1428 2787 
Q 1159 2491 1159 1978 
L 1159 0 
L 581 0 
L 581 3500 
L 1159 3500 
L 1159 2956 
Q 1366 3272 1645 3428 
Q 1925 3584 2291 3584 
Q 2894 3584 3203 3211 
Q 3513 2838 3513 2113 
z
" transform="scale(0.015625)"/>
      </defs>
      <use xlink:href="#DejaVuSans-50"/>
      <use xlink:href="#DejaVuSans-6f" x="56.677734"/>
      <use xlink:href="#DejaVuSans-73" x="117.859375"/>
      <use xlink:href="#DejaVuSans-69" x="169.958984"/>
      <use xlink:href="#DejaVuSans-74" x="197.742188"/>
      <use xlink:href="#DejaVuSans-69" x="236.951172"/>
      <use xlink:href="#DejaVuSans-6f" x="264.734375"/>
      <use xlink:href="#DejaVuSans-6e" x="325.916016"/>
      <use xlink:href="#DejaVuSans-73" x="389.294922"/>
     </g>
    </g>
    <g id="patch_8">
     <path d="M 330.266875 72.748562 
L 350.266875 72.748562 
L 350.266875 65.748562 
L 330.266875 65.748562 
z
" style="fill: #ff0000"/>
    </g>
    <g id="text_19">
     <!-- Velocities -->
     <g transform="translate(358.266875 72.748562) scale(0.1 -0.1)">
      <defs>
       <path id="DejaVuSans-56" d="M 1831 0 
L 50 4666 
L 709 4666 
L 2188 738 
L 3669 4666 
L 4325 4666 
L 2547 0 
L 1831 0 
z
" transform="scale(0.015625)"/>
       <path id="DejaVuSans-65" d="M 3597 1894 
L 3597 1613 
L 953 1613 
Q 991 1019 1311 708 
Q 1631 397 2203 397 
Q 2534 397 2845 478 
Q 3156 559 3463 722 
L 3463 178 
Q 3153 47 2828 -22 
Q 2503 -91 2169 -91 
Q 1331 -91 842 396 
Q 353 884 353 1716 
Q 353 2575 817 3079 
Q 1281 3584 2069 3584 
Q 2775 3584 3186 3129 
Q 3597 2675 3597 1894 
z
M 3022 2063 
Q 3016 2534 2758 2815 
Q 2500 3097 2075 3097 
Q 1594 3097 1305 2825 
Q 1016 2553 972 2059 
L 3022 2063 
z
" transform="scale(0.015625)"/>
       <path id="DejaVuSans-6c" d="M 603 4863 
L 1178 4863 
L 1178 0 
L 603 0 
L 603 4863 
z
" transform="scale(0.015625)"/>
       <path id="DejaVuSans-63" d="M 3122 3366 
L 3122 2828 
Q 2878 2963 2633 3030 
Q 2388 3097 2138 3097 
Q 1578 3097 1268 2742 
Q 959 2388 959 1747 
Q 959 1106 1268 751 
Q 1578 397 2138 397 
Q 2388 397 2633 464 
Q 2878 531 3122 666 
L 3122 134 
Q 2881 22 2623 -34 
Q 2366 -91 2075 -91 
Q 1284 -91 818 406 
Q 353 903 353 1747 
Q 353 2603 823 3093 
Q 1294 3584 2113 3584 
Q 2378 3584 2631 3529 
Q 2884 3475 3122 3366 
z
" transform="scale(0.015625)"/>
      </defs>
      <use xlink:href="#DejaVuSans-56"/>
      <use xlink:href="#DejaVuSans-65" x="60.658203"/>
      <use xlink:href="#DejaVuSans-6c" x="122.181641"/>
      <use xlink:href="#DejaVuSans-6f" x="149.964844"/>
      <use xlink:href="#DejaVuSans-63" x="211.146484"/>
      <use xlink:href="#DejaVuSans-69" x="266.126953"/>
      <use xlink:href="#DejaVuSans-74" x="293.910156"/>
      <use xlink:href="#DejaVuSans-69" x="333.119141"/>
      <use xlink:href="#DejaVuSans-65" x="360.902344"/>
      <use xlink:href="#DejaVuSans-73" x="422.425781"/>
     </g>
    </g>
   </g>
  </g>
 </g>
 <defs>
  <clipPath id="p97a735b49a">
   <rect x="57.6" y="41.472" width="357.12" height="266.112"/>
  </clipPath>
 </defs>
</svg>
