<?xml version="1.0" encoding="utf-8" standalone="no"?>
<!DOCTYPE svg PUBLIC "-//W3C//DTD SVG 1.1//EN"
  "http://www.w3.org/Graphics/SVG/1.1/DTD/svg11.dtd">
<svg xmlns:xlink="http://www.w3.org/1999/xlink" width="460.8pt" height="345.6pt" viewBox="0 0 460.8 345.6" xmlns="http://www.w3.org/2000/svg" version="1.1">
 <metadata>
  <rdf:RDF xmlns:dc="http://purl.org/dc/elements/1.1/" xmlns:cc="http://creativecommons.org/ns#" xmlns:rdf="http://www.w3.org/1999/02/22-rdf-syntax-ns#">
   <cc:Work>
    <dc:type rdf:resource="http://purl.org/dc/dcmitype/StillImage"/>
    <dc:date>2025-02-24T13:49:40.727471</dc:date>
    <dc:format>image/svg+xml</dc:format>
    <dc:creator>
     <cc:Agent>
      <dc:title>Matplotlib v3.6.3, https://matplotlib.org/</dc:title>
     </cc:Agent>
    </dc:creator>
   </cc:Work>
  </rdf:RDF>
 </metadata>
 <defs>
  <style type="text/css">*{stroke-linejoin: round; stroke-linecap: butt}</style>
 </defs>
 <g id="figure_1">
  <g id="patch_1">
   <path d="M 0 345.6 
L 460.8 345.6 
L 460.8 0 
L 0 0 
z
" style="fill: #ffffff"/>
  </g>
  <g id="axes_1">
   <g id="patch_2">
    <path d="M 57.6 307.584 
L 414.72 307.584 
L 414.72 41.472 
L 57.6 41.472 
z
" style="fill: #ffffff"/>
   </g>
   <g id="PathCollection_1">
    <defs>
     <path id="m319cd3bbed" d="M 0 3 
C 0.795609 3 1.55874 2.683901 2.12132 2.12132 
C 2.683901 1.55874 3 0.795609 3 0 
C 3 -0.795609 2.683901 -1.55874 2.12132 -2.12132 
C 1.55874 -2.683901 0.795609 -3 0 -3 
C -0.795609 -3 -1.55874 -2.683901 -2.12132 -2.12132 
C -2.683901 -1.55874 -3 -0.795609 -3 0 
C -3 0.795609 -2.683901 1.55874 -2.12132 2.12132 
C -1.55874 2.683901 -0.795609 3 0 3 
z
" style="stroke: #0000ff"/>
    </defs>
    <g clip-path="url(#p9d6de6783a)">
     <use xlink:href="#m319cd3bbed" x="274.293697" y="94.960951" style="fill: #0000ff; stroke: #0000ff"/>
     <use xlink:href="#m319cd3bbed" x="293.224853" y="68.391495" style="fill: #0000ff; stroke: #0000ff"/>
     <use xlink:href="#m319cd3bbed" x="171.870091" y="267.105406" style="fill: #0000ff; stroke: #0000ff"/>
     <use xlink:href="#m319cd3bbed" x="128.005547" y="226.830395" style="fill: #0000ff; stroke: #0000ff"/>
     <use xlink:href="#m319cd3bbed" x="342.00174" y="79.426058" style="fill: #0000ff; stroke: #0000ff"/>
     <use xlink:href="#m319cd3bbed" x="314.897903" y="98.338353" style="fill: #0000ff; stroke: #0000ff"/>
     <use xlink:href="#m319cd3bbed" x="157.3043" y="252.926506" style="fill: #0000ff; stroke: #0000ff"/>
     <use xlink:href="#m319cd3bbed" x="154.571975" y="264.235294" style="fill: #0000ff; stroke: #0000ff"/>
     <use xlink:href="#m319cd3bbed" x="292.091915" y="165.279417" style="fill: #0000ff; stroke: #0000ff"/>
     <use xlink:href="#m319cd3bbed" x="315.980925" y="69.66435" style="fill: #0000ff; stroke: #0000ff"/>
     <use xlink:href="#m319cd3bbed" x="163.500157" y="261.718186" style="fill: #0000ff; stroke: #0000ff"/>
     <use xlink:href="#m319cd3bbed" x="259.683156" y="129.900683" style="fill: #0000ff; stroke: #0000ff"/>
     <use xlink:href="#m319cd3bbed" x="343.375735" y="107.743535" style="fill: #0000ff; stroke: #0000ff"/>
     <use xlink:href="#m319cd3bbed" x="298.911997" y="76.453562" style="fill: #0000ff; stroke: #0000ff"/>
     <use xlink:href="#m319cd3bbed" x="136.670159" y="263.628008" style="fill: #0000ff; stroke: #0000ff"/>
     <use xlink:href="#m319cd3bbed" x="337.389301" y="114.927222" style="fill: #0000ff; stroke: #0000ff"/>
     <use xlink:href="#m319cd3bbed" x="342.597112" y="135.708099" style="fill: #0000ff; stroke: #0000ff"/>
     <use xlink:href="#m319cd3bbed" x="320.832383" y="88.979751" style="fill: #0000ff; stroke: #0000ff"/>
     <use xlink:href="#m319cd3bbed" x="264.967898" y="53.568" style="fill: #0000ff; stroke: #0000ff"/>
     <use xlink:href="#m319cd3bbed" x="155.715749" y="228.004243" style="fill: #0000ff; stroke: #0000ff"/>
     <use xlink:href="#m319cd3bbed" x="228.250696" y="132.014249" style="fill: #0000ff; stroke: #0000ff"/>
     <use xlink:href="#m319cd3bbed" x="271.227218" y="83.640548" style="fill: #0000ff; stroke: #0000ff"/>
     <use xlink:href="#m319cd3bbed" x="324.448382" y="98.82927" style="fill: #0000ff; stroke: #0000ff"/>
     <use xlink:href="#m319cd3bbed" x="239.551711" y="109.544276" style="fill: #0000ff; stroke: #0000ff"/>
     <use xlink:href="#m319cd3bbed" x="310.412799" y="115.429328" style="fill: #0000ff; stroke: #0000ff"/>
     <use xlink:href="#m319cd3bbed" x="259.265475" y="98.025757" style="fill: #0000ff; stroke: #0000ff"/>
     <use xlink:href="#m319cd3bbed" x="165.440399" y="295.488" style="fill: #0000ff; stroke: #0000ff"/>
     <use xlink:href="#m319cd3bbed" x="292.403495" y="58.573906" style="fill: #0000ff; stroke: #0000ff"/>
     <use xlink:href="#m319cd3bbed" x="174.861982" y="200.861495" style="fill: #0000ff; stroke: #0000ff"/>
     <use xlink:href="#m319cd3bbed" x="348.38814" y="98.981961" style="fill: #0000ff; stroke: #0000ff"/>
     <use xlink:href="#m319cd3bbed" x="147.596207" y="247.515832" style="fill: #0000ff; stroke: #0000ff"/>
     <use xlink:href="#m319cd3bbed" x="148.104059" y="281.865161" style="fill: #0000ff; stroke: #0000ff"/>
     <use xlink:href="#m319cd3bbed" x="226.911825" y="228.368012" style="fill: #0000ff; stroke: #0000ff"/>
     <use xlink:href="#m319cd3bbed" x="184.402869" y="150.455985" style="fill: #0000ff; stroke: #0000ff"/>
     <use xlink:href="#m319cd3bbed" x="273.168823" y="115.713723" style="fill: #0000ff; stroke: #0000ff"/>
     <use xlink:href="#m319cd3bbed" x="179.444807" y="242.801368" style="fill: #0000ff; stroke: #0000ff"/>
     <use xlink:href="#m319cd3bbed" x="158.656756" y="286.977993" style="fill: #0000ff; stroke: #0000ff"/>
     <use xlink:href="#m319cd3bbed" x="277.509172" y="71.504244" style="fill: #0000ff; stroke: #0000ff"/>
     <use xlink:href="#m319cd3bbed" x="292.671479" y="83.158645" style="fill: #0000ff; stroke: #0000ff"/>
     <use xlink:href="#m319cd3bbed" x="251.599557" y="105.607033" style="fill: #0000ff; stroke: #0000ff"/>
     <use xlink:href="#m319cd3bbed" x="306.508776" y="94.435717" style="fill: #0000ff; stroke: #0000ff"/>
     <use xlink:href="#m319cd3bbed" x="236.481279" y="193.372102" style="fill: #0000ff; stroke: #0000ff"/>
     <use xlink:href="#m319cd3bbed" x="182.972627" y="288.029959" style="fill: #0000ff; stroke: #0000ff"/>
     <use xlink:href="#m319cd3bbed" x="264.959569" y="151.575658" style="fill: #0000ff; stroke: #0000ff"/>
     <use xlink:href="#m319cd3bbed" x="319.538332" y="141.917092" style="fill: #0000ff; stroke: #0000ff"/>
     <use xlink:href="#m319cd3bbed" x="122.941498" y="236.21381" style="fill: #0000ff; stroke: #0000ff"/>
     <use xlink:href="#m319cd3bbed" x="167.109568" y="217.165533" style="fill: #0000ff; stroke: #0000ff"/>
     <use xlink:href="#m319cd3bbed" x="145.541886" y="261.465826" style="fill: #0000ff; stroke: #0000ff"/>
     <use xlink:href="#m319cd3bbed" x="319.815449" y="79.278922" style="fill: #0000ff; stroke: #0000ff"/>
     <use xlink:href="#m319cd3bbed" x="263.770534" y="89.952748" style="fill: #0000ff; stroke: #0000ff"/>
     <use xlink:href="#m319cd3bbed" x="329.60675" y="85.86026" style="fill: #0000ff; stroke: #0000ff"/>
     <use xlink:href="#m319cd3bbed" x="333.382878" y="104.069179" style="fill: #0000ff; stroke: #0000ff"/>
     <use xlink:href="#m319cd3bbed" x="349.039691" y="128.787023" style="fill: #0000ff; stroke: #0000ff"/>
     <use xlink:href="#m319cd3bbed" x="116.218116" y="245.893635" style="fill: #0000ff; stroke: #0000ff"/>
     <use xlink:href="#m319cd3bbed" x="261.765046" y="63.605489" style="fill: #0000ff; stroke: #0000ff"/>
     <use xlink:href="#m319cd3bbed" x="278.581385" y="107.721761" style="fill: #0000ff; stroke: #0000ff"/>
     <use xlink:href="#m319cd3bbed" x="153.632405" y="238.698292" style="fill: #0000ff; stroke: #0000ff"/>
     <use xlink:href="#m319cd3bbed" x="339.558496" y="125.07412" style="fill: #0000ff; stroke: #0000ff"/>
     <use xlink:href="#m319cd3bbed" x="317.070432" y="107.263613" style="fill: #0000ff; stroke: #0000ff"/>
     <use xlink:href="#m319cd3bbed" x="341.372575" y="90.036427" style="fill: #0000ff; stroke: #0000ff"/>
     <use xlink:href="#m319cd3bbed" x="248.364595" y="123.040567" style="fill: #0000ff; stroke: #0000ff"/>
     <use xlink:href="#m319cd3bbed" x="190.718534" y="238.650691" style="fill: #0000ff; stroke: #0000ff"/>
     <use xlink:href="#m319cd3bbed" x="138.503988" y="279.344569" style="fill: #0000ff; stroke: #0000ff"/>
     <use xlink:href="#m319cd3bbed" x="286.736061" y="75.119141" style="fill: #0000ff; stroke: #0000ff"/>
     <use xlink:href="#m319cd3bbed" x="129.364801" y="282.516576" style="fill: #0000ff; stroke: #0000ff"/>
     <use xlink:href="#m319cd3bbed" x="302.597103" y="121.1032" style="fill: #0000ff; stroke: #0000ff"/>
     <use xlink:href="#m319cd3bbed" x="346.712706" y="119.121213" style="fill: #0000ff; stroke: #0000ff"/>
     <use xlink:href="#m319cd3bbed" x="131.855995" y="272.312608" style="fill: #0000ff; stroke: #0000ff"/>
     <use xlink:href="#m319cd3bbed" x="356.101884" y="122.455547" style="fill: #0000ff; stroke: #0000ff"/>
     <use xlink:href="#m319cd3bbed" x="136.782616" y="253.790539" style="fill: #0000ff; stroke: #0000ff"/>
     <use xlink:href="#m319cd3bbed" x="119.249793" y="205.037751" style="fill: #0000ff; stroke: #0000ff"/>
     <use xlink:href="#m319cd3bbed" x="353.107101" y="111.670223" style="fill: #0000ff; stroke: #0000ff"/>
     <use xlink:href="#m319cd3bbed" x="126.406497" y="263.514076" style="fill: #0000ff; stroke: #0000ff"/>
     <use xlink:href="#m319cd3bbed" x="333.390349" y="131.957817" style="fill: #0000ff; stroke: #0000ff"/>
     <use xlink:href="#m319cd3bbed" x="152.819729" y="274.120917" style="fill: #0000ff; stroke: #0000ff"/>
     <use xlink:href="#m319cd3bbed" x="246.247174" y="197.87614" style="fill: #0000ff; stroke: #0000ff"/>
     <use xlink:href="#m319cd3bbed" x="140.315437" y="288.549651" style="fill: #0000ff; stroke: #0000ff"/>
     <use xlink:href="#m319cd3bbed" x="168.926331" y="253.565854" style="fill: #0000ff; stroke: #0000ff"/>
     <use xlink:href="#m319cd3bbed" x="284.867207" y="110.504154" style="fill: #0000ff; stroke: #0000ff"/>
     <use xlink:href="#m319cd3bbed" x="326.01192" y="109.909578" style="fill: #0000ff; stroke: #0000ff"/>
     <use xlink:href="#m319cd3bbed" x="123.07415" y="216.497313" style="fill: #0000ff; stroke: #0000ff"/>
     <use xlink:href="#m319cd3bbed" x="328.755497" y="68.608646" style="fill: #0000ff; stroke: #0000ff"/>
     <use xlink:href="#m319cd3bbed" x="304.382659" y="140.910343" style="fill: #0000ff; stroke: #0000ff"/>
     <use xlink:href="#m319cd3bbed" x="320.787006" y="118.007502" style="fill: #0000ff; stroke: #0000ff"/>
     <use xlink:href="#m319cd3bbed" x="262.767963" y="145.216224" style="fill: #0000ff; stroke: #0000ff"/>
     <use xlink:href="#m319cd3bbed" x="326.172494" y="136.865641" style="fill: #0000ff; stroke: #0000ff"/>
     <use xlink:href="#m319cd3bbed" x="138.256026" y="224.52509" style="fill: #0000ff; stroke: #0000ff"/>
     <use xlink:href="#m319cd3bbed" x="134.591276" y="242.829172" style="fill: #0000ff; stroke: #0000ff"/>
     <use xlink:href="#m319cd3bbed" x="142.612021" y="237.086269" style="fill: #0000ff; stroke: #0000ff"/>
     <use xlink:href="#m319cd3bbed" x="333.183561" y="94.220519" style="fill: #0000ff; stroke: #0000ff"/>
     <use xlink:href="#m319cd3bbed" x="162.851274" y="272.358744" style="fill: #0000ff; stroke: #0000ff"/>
     <use xlink:href="#m319cd3bbed" x="331.939618" y="77.386577" style="fill: #0000ff; stroke: #0000ff"/>
     <use xlink:href="#m319cd3bbed" x="150.3288" y="291.453639" style="fill: #0000ff; stroke: #0000ff"/>
     <use xlink:href="#m319cd3bbed" x="296.48203" y="110.238629" style="fill: #0000ff; stroke: #0000ff"/>
     <use xlink:href="#m319cd3bbed" x="143.213925" y="271.401668" style="fill: #0000ff; stroke: #0000ff"/>
     <use xlink:href="#m319cd3bbed" x="174.50832" y="291.775733" style="fill: #0000ff; stroke: #0000ff"/>
     <use xlink:href="#m319cd3bbed" x="281.594133" y="83.666425" style="fill: #0000ff; stroke: #0000ff"/>
     <use xlink:href="#m319cd3bbed" x="278.978138" y="150.454112" style="fill: #0000ff; stroke: #0000ff"/>
     <use xlink:href="#m319cd3bbed" x="168.062939" y="283.569916" style="fill: #0000ff; stroke: #0000ff"/>
     <use xlink:href="#m319cd3bbed" x="321.646996" y="61.640949" style="fill: #0000ff; stroke: #0000ff"/>
    </g>
   </g>
   <g id="Quiver_1">
    <path d="M 273.445182 94.30686 
L 279.669681 86.232173 
L 277.31856 85.772506 
L 286.405013 79.249631 
L 282.409649 89.697051 
L 281.36671 87.540355 
L 275.142212 95.615042 
L 273.445182 94.30686 
" clip-path="url(#p9d6de6783a)" style="fill: #ff0000"/>
    <path d="M 292.470929 67.630304 
L 299.737628 60.432977 
L 297.46859 59.66452 
L 307.342268 54.408854 
L 301.992133 64.231664 
L 301.245476 61.955359 
L 293.978777 69.152686 
L 292.470929 67.630304 
" clip-path="url(#p9d6de6783a)" style="fill: #ff0000"/>
    <path d="M 172.626356 267.864271 
L 165.386382 275.079437 
L 167.657777 275.840902 
L 157.800333 281.126954 
L 163.120189 271.287712 
L 163.873853 273.561707 
L 171.113827 266.346541 
L 172.626356 267.864271 
" clip-path="url(#p9d6de6783a)" style="fill: #ff0000"/>
    <path d="M 128.769011 227.582017 
L 121.598603 234.865401 
L 123.877152 235.60518 
L 114.070545 240.984956 
L 119.296368 231.095451 
L 120.071675 233.362158 
L 127.242083 226.078774 
L 128.769011 227.582017 
" clip-path="url(#p9d6de6783a)" style="fill: #ff0000"/>
    <path d="M 341.236044 78.67671 
L 348.297934 71.460757 
L 346.017194 70.727757 
L 355.807761 65.318843 
L 350.611369 75.223844 
L 349.829325 72.959453 
L 342.767435 80.175406 
L 341.236044 78.67671 
" clip-path="url(#p9d6de6783a)" style="fill: #ff0000"/>
    <path d="M 314.122431 97.599126 
L 321.25656 90.115209 
L 318.96639 89.412226 
L 328.685073 83.875193 
L 323.619219 93.847587 
L 322.807503 91.593662 
L 315.673374 99.07758 
L 314.122431 97.599126 
" clip-path="url(#p9d6de6783a)" style="fill: #ff0000"/>
    <path d="M 158.0543 253.691563 
L 150.700934 260.900216 
L 152.965992 261.680328 
L 143.065424 266.885163 
L 148.465989 257.089989 
L 149.200933 259.370102 
L 156.5543 252.16145 
L 158.0543 253.691563 
" clip-path="url(#p9d6de6783a)" style="fill: #ff0000"/>
    <path d="M 155.326524 264.995866 
L 148.027318 272.237272 
L 150.296986 273.003866 
L 140.427627 278.267637 
L 145.769695 268.440438 
L 146.518221 270.716129 
L 153.817427 263.474723 
L 155.326524 264.995866 
" clip-path="url(#p9d6de6783a)" style="fill: #ff0000"/>
    <path d="M 291.329318 164.526916 
L 298.501516 157.258482 
L 296.22382 156.516078 
L 306.036619 151.147604 
L 300.799406 161.031082 
L 300.026711 158.763483 
L 292.854513 166.031917 
L 291.329318 164.526916 
" clip-path="url(#p9d6de6783a)" style="fill: #ff0000"/>
    <path d="M 315.255235 68.876196 
L 322.711385 62.010969 
L 320.471851 61.160352 
L 330.530458 56.267912 
L 324.825992 65.889273 
L 324.162765 63.587276 
L 316.706615 70.452504 
L 315.255235 68.876196 
" clip-path="url(#p9d6de6783a)" style="fill: #ff0000"/>
    <path d="M 164.256305 262.477167 
L 156.996961 269.709408 
L 159.268238 270.471223 
L 149.40998 275.755756 
L 154.731351 265.917335 
L 155.484665 268.191445 
L 162.744009 260.959205 
L 164.256305 262.477167 
" clip-path="url(#p9d6de6783a)" style="fill: #ff0000"/>
    <path d="M 258.717279 129.437117 
L 263.059199 120.390365 
L 260.663878 120.429111 
L 268.197166 112.161033 
L 266.459143 123.210504 
L 264.990954 121.317496 
L 260.649034 130.364249 
L 258.717279 129.437117 
" clip-path="url(#p9d6de6783a)" style="fill: #ff0000"/>
    <path d="M 342.599436 107.005177 
L 349.652608 99.589577 
L 347.361653 98.889159 
L 357.07413 93.341247 
L 352.019445 103.319308 
L 351.205206 101.066293 
L 344.152033 108.481893 
L 342.599436 107.005177 
" clip-path="url(#p9d6de6783a)" style="fill: #ff0000"/>
    <path d="M 298.169755 75.680975 
L 305.650139 68.4944 
L 303.393069 67.691468 
L 313.345658 62.586813 
L 307.846518 72.326987 
L 307.134622 70.039573 
L 299.654238 77.226148 
L 298.169755 75.680975 
" clip-path="url(#p9d6de6783a)" style="fill: #ff0000"/>
    <path d="M 137.430206 264.383085 
L 130.151841 271.709364 
L 132.427012 272.45947 
L 122.596106 277.794713 
L 127.866728 267.929011 
L 128.631746 270.199211 
L 135.910111 262.872932 
L 137.430206 264.383085 
" clip-path="url(#p9d6de6783a)" style="fill: #ff0000"/>
    <path d="M 336.563691 114.244448 
L 342.958012 106.512443 
L 340.624018 105.972504 
L 349.92859 99.764728 
L 345.577677 110.069149 
L 344.609232 107.877991 
L 338.214911 115.609996 
L 336.563691 114.244448 
" clip-path="url(#p9d6de6783a)" style="fill: #ff0000"/>
    <path d="M 341.837581 134.952504 
L 348.981775 127.771087 
L 346.707116 127.019429 
L 356.541661 121.690896 
L 351.264307 131.552998 
L 350.500838 129.282277 
L 343.356644 136.463694 
L 341.837581 134.952504 
" clip-path="url(#p9d6de6783a)" style="fill: #ff0000"/>
    <path d="M 320.098389 88.199325 
L 327.380176 81.35078 
L 325.131762 80.523921 
L 335.138008 75.525263 
L 329.535724 85.20648 
L 328.848163 82.911633 
L 321.566377 89.760177 
L 320.098389 88.199325 
" clip-path="url(#p9d6de6783a)" style="fill: #ff0000"/>
    <path d="M 264.212716 52.808058 
L 271.462987 45.6032 
L 269.19268 44.838498 
L 279.057649 39.566503 
L 273.723773 49.398151 
L 272.973351 47.123085 
L 265.72308 54.327942 
L 264.212716 52.808058 
" clip-path="url(#p9d6de6783a)" style="fill: #ff0000"/>
    <path d="M 156.466024 228.76903 
L 149.144703 235.95143 
L 151.410041 236.730729 
L 141.511345 241.939122 
L 146.908389 232.142007 
L 147.644153 234.421857 
L 154.965473 227.239456 
L 156.466024 228.76903 
" clip-path="url(#p9d6de6783a)" style="fill: #ff0000"/>
    <path d="M 227.492776 131.257037 
L 234.7176 124.025456 
L 232.444548 123.268953 
L 242.290425 117.961388 
L 236.992068 127.812223 
L 236.23344 125.539879 
L 229.008616 132.771461 
L 227.492776 131.257037 
" clip-path="url(#p9d6de6783a)" style="fill: #ff0000"/>
    <path d="M 270.483085 82.869784 
L 277.927122 75.68295 
L 275.668091 74.885555 
L 285.608136 69.756516 
L 280.132891 79.510142 
L 279.415389 77.22448 
L 271.971351 84.411313 
L 270.483085 82.869784 
" clip-path="url(#p9d6de6783a)" style="fill: #ff0000"/>
    <path d="M 323.730112 98.034349 
L 331.319031 91.177205 
L 329.08757 90.305631 
L 339.191597 85.507697 
L 333.397189 95.075162 
L 332.755571 92.767048 
L 325.166652 99.624192 
L 323.730112 98.034349 
" clip-path="url(#p9d6de6783a)" style="fill: #ff0000"/>
    <path d="M 238.820503 108.761239 
L 246.323901 101.754486 
L 244.078448 100.919621 
L 254.102442 95.95665 
L 248.465697 105.617842 
L 247.786317 103.32056 
L 240.282919 110.327313 
L 238.820503 108.761239 
" clip-path="url(#p9d6de6783a)" style="fill: #ff0000"/>
    <path d="M 309.645312 114.681816 
L 316.884794 107.248885 
L 314.602307 106.521347 
L 324.379897 101.089012 
L 319.207231 111.006424 
L 318.419769 108.743911 
L 311.180287 116.176841 
L 309.645312 114.681816 
" clip-path="url(#p9d6de6783a)" style="fill: #ff0000"/>
    <path d="M 258.522461 97.253914 
L 265.792295 90.255606 
L 263.534423 89.454935 
L 273.481895 84.340316 
L 267.992511 94.085992 
L 267.278324 91.799291 
L 260.00849 98.7976 
L 258.522461 97.253914 
" clip-path="url(#p9d6de6783a)" style="fill: #ff0000"/>
    <path d="M 166.147225 296.293114 
L 158.444618 303.055399 
L 160.663385 303.9588 
L 150.491767 308.611725 
L 156.422425 299.128117 
L 157.030964 301.445171 
L 164.733572 294.682886 
L 166.147225 296.293114 
" clip-path="url(#p9d6de6783a)" style="fill: #ff0000"/>
    <path d="M 291.634862 57.827571 
L 298.736336 50.513935 
L 296.452736 49.789897 
L 306.221985 44.342577 
L 301.064531 54.267908 
L 300.273601 52.006605 
L 293.172127 59.320241 
L 291.634862 57.827571 
" clip-path="url(#p9d6de6783a)" style="fill: #ff0000"/>
    <path d="M 175.623395 201.615194 
L 168.42005 208.892265 
L 170.696576 209.63825 
L 160.875346 214.991284 
L 166.128097 205.116055 
L 166.897224 207.384866 
L 174.100569 200.107796 
L 175.623395 201.615194 
" clip-path="url(#p9d6de6783a)" style="fill: #ff0000"/>
    <path d="M 347.604697 98.251188 
L 354.510018 90.848163 
L 352.212359 90.170061 
L 361.870415 84.527945 
L 356.913019 94.554697 
L 356.076905 92.309708 
L 349.171584 99.712733 
L 347.604697 98.251188 
" clip-path="url(#p9d6de6783a)" style="fill: #ff0000"/>
    <path d="M 148.353139 248.274031 
L 141.021932 255.592998 
L 143.293996 256.352463 
L 133.441211 261.647194 
L 138.752399 251.803271 
L 139.508066 254.076601 
L 146.839274 246.757634 
L 148.353139 248.274031 
" clip-path="url(#p9d6de6783a)" style="fill: #ff0000"/>
    <path d="M 148.864388 282.619954 
L 141.67816 289.858889 
L 143.95361 290.608146 
L 134.124695 295.947056 
L 139.391637 286.079388 
L 140.157502 288.349303 
L 147.34373 281.110368 
L 148.864388 282.619954 
" clip-path="url(#p9d6de6783a)" style="fill: #ff0000"/>
    <path d="M 226.153363 227.611343 
L 233.363136 220.384484 
L 231.089543 219.629608 
L 240.931617 214.314994 
L 235.640315 224.169621 
L 234.88006 221.897821 
L 227.670287 229.12468 
L 226.153363 227.611343 
" clip-path="url(#p9d6de6783a)" style="fill: #ff0000"/>
    <path d="M 185.160672 151.213313 
L 177.944698 158.433808 
L 180.217633 159.190663 
L 170.370937 164.496708 
L 175.670814 154.646691 
L 176.429091 156.919151 
L 183.645066 149.698656 
L 185.160672 151.213313 
" clip-path="url(#p9d6de6783a)" style="fill: #ff0000"/>
    <path d="M 272.395005 114.972765 
L 279.411571 107.645037 
L 277.122978 106.936938 
L 286.854012 101.42164 
L 281.765882 111.382688 
L 280.959205 109.126954 
L 273.94264 116.454682 
L 272.395005 114.972765 
" clip-path="url(#p9d6de6783a)" style="fill: #ff0000"/>
    <path d="M 180.208694 243.55256 
L 173.032024 250.850519 
L 175.310989 251.589016 
L 165.507412 256.974312 
L 170.727667 247.081866 
L 171.504249 249.348136 
L 178.68092 242.050177 
L 180.208694 243.55256 
" clip-path="url(#p9d6de6783a)" style="fill: #ff0000"/>
    <path d="M 159.365998 287.780981 
L 151.824733 294.441827 
L 154.046204 295.338561 
L 143.888604 300.022012 
L 149.790755 290.520636 
L 150.406251 292.835852 
L 157.947515 286.175006 
L 159.365998 287.780981 
" clip-path="url(#p9d6de6783a)" style="fill: #ff0000"/>
    <path d="M 276.75494 70.743358 
L 283.948585 63.612625 
L 281.679237 62.845085 
L 291.550789 57.585428 
L 286.204625 67.4104 
L 285.457048 65.134397 
L 278.263403 72.265129 
L 276.75494 70.743358 
" clip-path="url(#p9d6de6783a)" style="fill: #ff0000"/>
    <path d="M 291.929387 82.385914 
L 299.138851 75.462306 
L 296.881938 74.658937 
L 306.835517 69.556212 
L 301.334487 79.295319 
L 300.623035 77.007767 
L 293.413571 83.931375 
L 291.929387 82.385914 
" clip-path="url(#p9d6de6783a)" style="fill: #ff0000"/>
    <path d="M 250.829383 104.862288 
L 257.883128 97.567702 
L 255.598036 96.848386 
L 265.356007 91.380887 
L 260.219077 101.316856 
L 259.423475 99.057192 
L 252.36973 106.351778 
L 250.829383 104.862288 
" clip-path="url(#p9d6de6783a)" style="fill: #ff0000"/>
    <path d="M 305.700881 93.73207 
L 312.401401 86.038838 
L 310.081965 85.43944 
L 319.542113 79.471431 
L 314.929333 89.661318 
L 314.01719 87.44613 
L 307.31667 95.139363 
L 305.700881 93.73207 
" clip-path="url(#p9d6de6783a)" style="fill: #ff0000"/>
    <path d="M 237.239387 194.129126 
L 230.026441 201.352398 
L 232.29968 202.108338 
L 222.455118 207.418342 
L 227.751034 197.566195 
L 228.510225 199.83835 
L 235.723172 192.615078 
L 237.239387 194.129126 
" clip-path="url(#p9d6de6783a)" style="fill: #ff0000"/>
    <path d="M 183.729162 288.788555 
L 176.590139 295.908187 
L 178.861805 296.668843 
L 169.006246 301.958407 
L 174.322595 292.117271 
L 175.077069 294.390996 
L 182.216092 287.271364 
L 183.729162 288.788555 
" clip-path="url(#p9d6de6783a)" style="fill: #ff0000"/>
    <path d="M 265.940981 152.005359 
L 261.465971 162.225998 
L 263.858496 162.10399 
L 256.617244 170.629001 
L 257.970027 159.52578 
L 259.503148 161.366595 
L 263.978158 151.145956 
L 265.940981 152.005359 
" clip-path="url(#p9d6de6783a)" style="fill: #ff0000"/>
    <path d="M 318.765703 141.174894 
L 325.539344 134.123533 
L 323.25189 133.411765 
L 332.991755 127.912077 
L 327.887659 137.864953 
L 327.084601 135.607929 
L 320.31096 142.65929 
L 318.765703 141.174894 
" clip-path="url(#p9d6de6783a)" style="fill: #ff0000"/>
    <path d="M 123.732446 236.936453 
L 116.856651 244.462153 
L 119.16119 245.116492 
L 109.561912 250.858042 
L 114.415502 240.780632 
L 115.274754 243.016866 
L 122.15055 235.491167 
L 123.732446 236.936453 
" clip-path="url(#p9d6de6783a)" style="fill: #ff0000"/>
    <path d="M 167.863909 217.926311 
L 160.594096 225.134608 
L 162.863554 225.901823 
L 152.992755 231.162893 
L 158.337512 221.337156 
L 159.085415 223.613052 
L 166.355228 216.404755 
L 167.863909 217.926311 
" clip-path="url(#p9d6de6783a)" style="fill: #ff0000"/>
    <path d="M 146.289174 262.233532 
L 139.11884 269.213162 
L 141.381122 270.001286 
L 131.462197 275.171049 
L 136.897394 265.395049 
L 137.624264 267.67775 
L 144.794598 260.69812 
L 146.289174 262.233532 
" clip-path="url(#p9d6de6783a)" style="fill: #ff0000"/>
    <path d="M 319.073207 78.506336 
L 326.543244 71.329692 
L 324.286174 70.526762 
L 334.238759 65.4221 
L 328.739626 75.162278 
L 328.027728 72.874864 
L 320.557691 80.051508 
L 319.073207 78.506336 
" clip-path="url(#p9d6de6783a)" style="fill: #ff0000"/>
    <path d="M 263.018492 89.189699 
L 270.370225 81.944014 
L 268.103091 81.169958 
L 277.989712 75.938682 
L 272.615345 85.748255 
L 271.87431 83.470113 
L 264.522576 90.715797 
L 263.018492 89.189699 
" clip-path="url(#p9d6de6783a)" style="fill: #ff0000"/>
    <path d="M 328.864863 85.087333 
L 336.213285 78.034024 
L 333.956585 77.230056 
L 343.911518 72.129973 
L 338.407904 81.86762 
L 337.697058 79.579879 
L 330.348636 86.633187 
L 328.864863 85.087333 
" clip-path="url(#p9d6de6783a)" style="fill: #ff0000"/>
    <path d="M 332.677767 103.262562 
L 340.452787 96.46596 
L 338.235948 95.557838 
L 348.417448 90.926577 
L 342.466614 100.397538 
L 341.863009 98.079194 
L 334.087989 104.875796 
L 332.677767 103.262562 
" clip-path="url(#p9d6de6783a)" style="fill: #ff0000"/>
    <path d="M 348.29418 128.017591 
L 355.60697 120.932157 
L 353.346516 120.138803 
L 363.277372 114.991994 
L 357.81958 124.755397 
L 357.097991 122.471022 
L 349.785201 129.556456 
L 348.29418 128.017591 
" clip-path="url(#p9d6de6783a)" style="fill: #ff0000"/>
    <path d="M 116.989329 246.637303 
L 109.963843 253.923013 
L 112.249938 254.639135 
L 102.499618 260.120266 
L 107.622657 250.177127 
L 108.421416 252.435677 
L 115.446902 245.149967 
L 116.989329 246.637303 
" clip-path="url(#p9d6de6783a)" style="fill: #ff0000"/>
    <path d="M 261.029458 62.826566 
L 268.446219 55.822426 
L 266.196118 55.000169 
L 276.192116 49.98105 
L 270.609651 59.673708 
L 269.917396 57.380273 
L 262.500635 64.384412 
L 261.029458 62.826566 
" clip-path="url(#p9d6de6783a)" style="fill: #ff0000"/>
    <path d="M 277.653903 107.185488 
L 282.65152 98.54214 
L 280.260282 98.397074 
L 288.405465 90.731076 
L 285.825174 101.614716 
L 284.506484 99.614687 
L 279.508867 108.258035 
L 277.653903 107.185488 
" clip-path="url(#p9d6de6783a)" style="fill: #ff0000"/>
    <path d="M 154.398772 239.446953 
L 147.216277 246.799319 
L 149.497672 247.530274 
L 139.71196 252.947965 
L 144.899468 243.038308 
L 145.683542 245.301997 
L 152.866037 237.949631 
L 154.398772 239.446953 
" clip-path="url(#p9d6de6783a)" style="fill: #ff0000"/>
    <path d="M 338.78152 124.336474 
L 345.823464 116.919069 
L 343.531867 116.220753 
L 353.239252 110.663936 
L 348.19372 120.646628 
L 347.377415 118.394361 
L 340.335471 125.811765 
L 338.78152 124.336474 
" clip-path="url(#p9d6de6783a)" style="fill: #ff0000"/>
    <path d="M 316.340923 106.478993 
L 323.741352 99.598367 
L 321.497714 98.758635 
L 331.532444 93.817407 
L 325.874768 103.466357 
L 325.20037 101.167607 
L 317.799941 108.048234 
L 316.340923 106.478993 
" clip-path="url(#p9d6de6783a)" style="fill: #ff0000"/>
    <path d="M 340.621455 89.272469 
L 347.928856 82.087868 
L 345.662659 81.311072 
L 355.555596 76.091749 
L 350.169377 85.894819 
L 349.431096 83.615783 
L 342.123695 90.800384 
L 340.621455 89.272469 
" clip-path="url(#p9d6de6783a)" style="fill: #ff0000"/>
    <path d="M 249.1538 123.765112 
L 242.287115 131.244599 
L 244.590072 131.904484 
L 234.976999 137.622907 
L 239.854837 127.557211 
L 240.708703 129.795508 
L 247.575389 122.316021 
L 249.1538 123.765112 
" clip-path="url(#p9d6de6783a)" style="fill: #ff0000"/>
    <path d="M 191.468304 239.415973 
L 184.137676 246.598 
L 186.402498 247.378796 
L 176.50036 252.580643 
L 181.90388 242.787099 
L 182.638137 245.067434 
L 189.968765 237.885408 
L 191.468304 239.415973 
" clip-path="url(#p9d6de6783a)" style="fill: #ff0000"/>
    <path d="M 139.267729 280.095909 
L 132.180375 287.300243 
L 134.459197 288.039182 
L 124.654574 293.422573 
L 129.87675 283.531142 
L 130.652893 285.797563 
L 137.740247 278.593229 
L 139.267729 280.095909 
" clip-path="url(#p9d6de6783a)" style="fill: #ff0000"/>
    <path d="M 285.987097 74.35307 
L 293.265661 67.23704 
L 291.001662 66.453862 
L 300.909265 61.262433 
L 295.495447 71.050288 
L 294.76359 68.769182 
L 287.485025 75.885212 
L 285.987097 74.35307 
" clip-path="url(#p9d6de6783a)" style="fill: #ff0000"/>
    <path d="M 130.131799 283.264591 
L 123.003849 290.573436 
L 125.28586 291.302468 
L 115.504718 296.728404 
L 120.683872 286.814379 
L 121.469853 289.077406 
L 128.597803 281.768562 
L 130.131799 283.264591 
" clip-path="url(#p9d6de6783a)" style="fill: #ff0000"/>
    <path d="M 301.825927 120.359493 
L 308.868467 113.056836 
L 306.582408 112.340598 
L 316.333005 106.85996 
L 311.209463 116.802839 
L 310.410819 114.54425 
L 303.368279 121.846907 
L 301.825927 120.359493 
" clip-path="url(#p9d6de6783a)" style="fill: #ff0000"/>
    <path d="M 345.907598 118.414379 
L 352.696688 110.681373 
L 350.379639 110.072813 
L 359.863298 104.142236 
L 355.210285 114.313815 
L 354.306903 112.09504 
L 347.517813 119.828046 
L 345.907598 118.414379 
" clip-path="url(#p9d6de6783a)" style="fill: #ff0000"/>
    <path d="M 132.619951 273.063731 
L 125.491322 280.314152 
L 127.770355 281.052441 
L 117.967266 286.438626 
L 123.186623 276.545707 
L 123.963412 278.811907 
L 131.09204 271.561486 
L 132.619951 273.063731 
" clip-path="url(#p9d6de6783a)" style="fill: #ff0000"/>
    <path d="M 355.347482 121.69483 
L 362.681292 114.421891 
L 360.411771 113.65486 
L 370.282141 108.392985 
L 364.938185 118.219158 
L 364.190097 115.943323 
L 356.856287 123.216263 
L 355.347482 121.69483 
" clip-path="url(#p9d6de6783a)" style="fill: #ff0000"/>
    <path d="M 137.545992 254.542249 
L 130.454639 261.74365 
L 132.733103 262.483695 
L 122.925867 267.862325 
L 128.152845 257.973431 
L 128.927887 260.240228 
L 136.019239 253.038828 
L 137.545992 254.542249 
" clip-path="url(#p9d6de6783a)" style="fill: #ff0000"/>
    <path d="M 120.02845 205.773622 
L 112.996427 213.214503 
L 115.289611 213.907589 
L 105.594929 219.486539 
L 110.617672 209.492361 
L 111.439114 211.74276 
L 118.471137 204.301879 
L 120.02845 205.773622 
" clip-path="url(#p9d6de6783a)" style="fill: #ff0000"/>
    <path d="M 352.3264 110.936522 
L 359.321608 103.493212 
L 357.026504 102.80651 
L 366.705622 97.200602 
L 361.710711 107.208719 
L 360.88301 104.960615 
L 353.887802 112.403925 
L 352.3264 110.936522 
" clip-path="url(#p9d6de6783a)" style="fill: #ff0000"/>
    <path d="M 127.167124 264.268568 
L 120.034128 271.459555 
L 122.309874 272.207913 
L 112.483066 277.550702 
L 117.746114 267.680957 
L 118.512874 269.950569 
L 125.64587 262.759583 
L 127.167124 264.268568 
" clip-path="url(#p9d6de6783a)" style="fill: #ff0000"/>
    <path d="M 332.619812 131.213448 
L 339.824844 123.755114 
L 337.5394 123.036915 
L 347.294696 117.564644 
L 342.162626 127.503124 
L 341.365919 125.24385 
L 334.160887 132.702185 
L 332.619812 131.213448 
" clip-path="url(#p9d6de6783a)" style="fill: #ff0000"/>
    <path d="M 153.580566 274.875197 
L 146.476854 282.040666 
L 148.752809 282.788389 
L 138.927495 288.133924 
L 144.187784 278.262708 
L 144.955179 280.532106 
L 152.058891 273.366637 
L 153.580566 274.875197 
" clip-path="url(#p9d6de6783a)" style="fill: #ff0000"/>
    <path d="M 247.004199 198.634246 
L 239.780509 205.847635 
L 242.052666 206.606822 
L 232.200527 211.902755 
L 237.510515 202.058184 
L 238.266459 204.331422 
L 245.490149 197.118033 
L 247.004199 198.634246 
" clip-path="url(#p9d6de6783a)" style="fill: #ff0000"/>
    <path d="M 141.076867 289.303333 
L 133.853095 296.601375 
L 136.129637 297.347308 
L 126.30853 302.700567 
L 131.561055 292.825218 
L 132.330234 295.094012 
L 139.554006 287.79597 
L 141.076867 289.303333 
" clip-path="url(#p9d6de6783a)" style="fill: #ff0000"/>
    <path d="M 169.677134 254.330123 
L 162.410935 261.468306 
L 164.67681 262.246039 
L 154.781714 267.461269 
L 160.171989 257.660428 
L 160.909328 259.939769 
L 168.175527 252.801586 
L 169.677134 254.330123 
" clip-path="url(#p9d6de6783a)" style="fill: #ff0000"/>
    <path d="M 285.935111 110.418166 
L 286.727792 120.262648 
L 288.777611 119.022768 
L 286.433781 129.959769 
L 282.370189 119.538697 
L 284.591985 120.434624 
L 283.799303 110.590142 
L 285.935111 110.418166 
" clip-path="url(#p9d6de6783a)" style="fill: #ff0000"/>
    <path d="M 325.291888 109.116252 
L 332.943265 102.171781 
L 330.709875 101.30516 
L 340.803234 96.484824 
L 335.030064 106.065118 
L 334.383328 103.758434 
L 326.731951 110.702905 
L 325.291888 109.116252 
" clip-path="url(#p9d6de6783a)" style="fill: #ff0000"/>
    <path d="M 123.847764 217.238484 
L 116.790607 224.604539 
L 119.079004 225.313269 
L 109.346451 230.825886 
L 114.437326 220.866241 
L 115.24338 223.122196 
L 122.300537 215.756141 
L 123.847764 217.238484 
" clip-path="url(#p9d6de6783a)" style="fill: #ff0000"/>
    <path d="M 327.985659 67.863554 
L 335.026801 60.588562 
L 332.742033 59.868216 
L 342.502466 54.405113 
L 337.361061 64.338767 
L 336.566477 62.078746 
L 329.525335 69.353738 
L 327.985659 67.863554 
" clip-path="url(#p9d6de6783a)" style="fill: #ff0000"/>
    <path d="M 305.043528 141.753589 
L 297.083735 147.99183 
L 299.248718 149.017455 
L 288.833645 153.096399 
L 295.283508 143.957974 
L 295.761998 146.305336 
L 303.721791 140.067096 
L 305.043528 141.753589 
" clip-path="url(#p9d6de6783a)" style="fill: #ff0000"/>
    <path d="M 320.04731 117.232478 
L 327.406765 110.208488 
L 325.152349 109.398136 
L 335.121676 104.326247 
L 329.590526 114.048279 
L 328.886157 111.758536 
L 321.526702 118.782526 
L 320.04731 117.232478 
" clip-path="url(#p9d6de6783a)" style="fill: #ff0000"/>
    <path d="M 263.249998 146.173018 
L 254.61439 150.523661 
L 256.535254 151.955213 
L 245.521211 153.905186 
L 253.643042 146.214451 
L 253.650319 148.610074 
L 262.285927 144.25943 
L 263.249998 146.173018 
" clip-path="url(#p9d6de6783a)" style="fill: #ff0000"/>
    <path d="M 325.469769 136.056944 
L 333.332233 129.224778 
L 331.118087 128.31011 
L 341.313227 123.708951 
L 335.334436 133.162289 
L 334.737683 130.842171 
L 326.875218 137.674337 
L 325.469769 136.056944 
" clip-path="url(#p9d6de6783a)" style="fill: #ff0000"/>
    <path d="M 139.045626 225.249206 
L 132.106967 232.81535 
L 134.410283 233.473982 
L 124.800323 239.197635 
L 129.672682 229.129287 
L 130.527767 231.367119 
L 137.466426 223.800974 
L 139.045626 225.249206 
" clip-path="url(#p9d6de6783a)" style="fill: #ff0000"/>
    <path d="M 135.343191 243.592347 
L 128.018122 250.809345 
L 130.285127 251.583779 
L 120.397634 256.813407 
L 125.773636 247.00473 
L 126.514292 249.282995 
L 133.839361 242.065997 
L 135.343191 243.592347 
" clip-path="url(#p9d6de6783a)" style="fill: #ff0000"/>
    <path d="M 143.372109 237.841305 
L 136.253299 245.007747 
L 138.528511 245.757731 
L 128.69789 251.093501 
L 133.967984 241.227517 
L 134.733124 243.497676 
L 141.851933 236.331233 
L 143.372109 237.841305 
" clip-path="url(#p9d6de6783a)" style="fill: #ff0000"/>
    <path d="M 332.454162 93.435797 
L 339.814204 86.594639 
L 337.570683 85.754594 
L 347.606103 80.814769 
L 341.947078 90.462928 
L 341.273002 88.164084 
L 333.91296 95.005242 
L 332.454162 93.435797 
" clip-path="url(#p9d6de6783a)" style="fill: #ff0000"/>
    <path d="M 163.615098 273.11 
L 156.380228 280.465895 
L 158.659131 281.204584 
L 148.855098 286.589048 
L 154.076191 276.697046 
L 154.852581 278.963382 
L 162.087451 271.607488 
L 163.615098 273.11 
" clip-path="url(#p9d6de6783a)" style="fill: #ff0000"/>
    <path d="M 331.170986 76.640241 
L 338.287883 69.310735 
L 336.004284 68.586695 
L 345.773539 63.139384 
L 340.616075 73.06471 
L 339.825147 70.803407 
L 332.70825 78.132913 
L 331.170986 76.640241 
" clip-path="url(#p9d6de6783a)" style="fill: #ff0000"/>
    <path d="M 151.09322 292.204288 
L 143.884895 299.544857 
L 146.164384 300.281735 
L 136.364634 305.673991 
L 141.577863 295.777841 
L 142.356054 298.043559 
L 149.56438 290.70299 
L 151.09322 292.204288 
" clip-path="url(#p9d6de6783a)" style="fill: #ff0000"/>
    <path d="M 295.767714 109.440152 
L 303.388892 102.622259 
L 301.161784 101.739621 
L 311.289498 96.991892 
L 305.447679 106.530481 
L 304.817524 104.219212 
L 297.196346 111.037105 
L 295.767714 109.440152 
" clip-path="url(#p9d6de6783a)" style="fill: #ff0000"/>
    <path d="M 143.970864 272.15986 
L 136.819738 279.299172 
L 139.091809 280.058617 
L 129.239071 285.353435 
L 134.550173 275.509465 
L 135.305859 277.782788 
L 142.456985 270.643476 
L 143.970864 272.15986 
" clip-path="url(#p9d6de6783a)" style="fill: #ff0000"/>
    <path d="M 175.241941 292.55651 
L 167.72093 299.623272 
L 169.968948 300.451206 
L 159.960313 305.445079 
L 165.567225 295.766542 
L 166.253689 298.061717 
L 173.7747 290.994955 
L 175.241941 292.55651 
" clip-path="url(#p9d6de6783a)" style="fill: #ff0000"/>
    <path d="M 280.84904 82.896588 
L 288.146544 75.833644 
L 285.886521 75.039063 
L 295.820171 69.897648 
L 290.357077 79.658086 
L 289.636729 77.373319 
L 282.339225 84.436262 
L 280.84904 82.896588 
" clip-path="url(#p9d6de6783a)" style="fill: #ff0000"/>
    <path d="M 278.505874 149.492458 
L 287.453241 145.098456 
L 285.54706 143.64741 
L 296.580396 141.809741 
L 288.380639 149.417338 
L 288.397767 147.021765 
L 279.450401 151.415767 
L 278.505874 149.492458 
" clip-path="url(#p9d6de6783a)" style="fill: #ff0000"/>
    <path d="M 168.792849 284.354164 
L 161.365385 291.267002 
L 163.609451 292.105588 
L 153.577247 297.051941 
L 159.229994 287.400102 
L 159.905566 289.698507 
L 167.333029 282.785668 
L 168.792849 284.354164 
" clip-path="url(#p9d6de6783a)" style="fill: #ff0000"/>
    <path d="M 320.878002 60.894985 
L 328.020837 53.53163 
L 325.736887 52.808697 
L 335.503501 47.356653 
L 330.350847 57.284477 
L 329.558824 55.023557 
L 322.415989 62.386912 
L 320.878002 60.894985 
" clip-path="url(#p9d6de6783a)" style="fill: #ff0000"/>
   </g>
   <g id="matplotlib.axis_1">
    <g id="xtick_1">
     <g id="line2d_1">
      <path d="M 70.71873 307.584 
L 70.71873 41.472 
" clip-path="url(#p9d6de6783a)" style="fill: none; stroke: #b0b0b0; stroke-width: 0.8; stroke-linecap: square"/>
     </g>
     <g id="line2d_2">
      <defs>
       <path id="mc86599ee54" d="M 0 0 
L 0 3.5 
" style="stroke: #000000; stroke-width: 0.8"/>
      </defs>
      <g>
       <use xlink:href="#mc86599ee54" x="70.71873" y="307.584" style="stroke: #000000; stroke-width: 0.8"/>
      </g>
     </g>
     <g id="text_1">
      <!-- −60 -->
      <g transform="translate(60.166386 322.182437) scale(0.1 -0.1)">
       <defs>
        <path id="DejaVuSans-2212" d="M 678 2272 
L 4684 2272 
L 4684 1741 
L 678 1741 
L 678 2272 
z
" transform="scale(0.015625)"/>
        <path id="DejaVuSans-36" d="M 2113 2584 
Q 1688 2584 1439 2293 
Q 1191 2003 1191 1497 
Q 1191 994 1439 701 
Q 1688 409 2113 409 
Q 2538 409 2786 701 
Q 3034 994 3034 1497 
Q 3034 2003 2786 2293 
Q 2538 2584 2113 2584 
z
M 3366 4563 
L 3366 3988 
Q 3128 4100 2886 4159 
Q 2644 4219 2406 4219 
Q 1781 4219 1451 3797 
Q 1122 3375 1075 2522 
Q 1259 2794 1537 2939 
Q 1816 3084 2150 3084 
Q 2853 3084 3261 2657 
Q 3669 2231 3669 1497 
Q 3669 778 3244 343 
Q 2819 -91 2113 -91 
Q 1303 -91 875 529 
Q 447 1150 447 2328 
Q 447 3434 972 4092 
Q 1497 4750 2381 4750 
Q 2619 4750 2861 4703 
Q 3103 4656 3366 4563 
z
" transform="scale(0.015625)"/>
        <path id="DejaVuSans-30" d="M 2034 4250 
Q 1547 4250 1301 3770 
Q 1056 3291 1056 2328 
Q 1056 1369 1301 889 
Q 1547 409 2034 409 
Q 2525 409 2770 889 
Q 3016 1369 3016 2328 
Q 3016 3291 2770 3770 
Q 2525 4250 2034 4250 
z
M 2034 4750 
Q 2819 4750 3233 4129 
Q 3647 3509 3647 2328 
Q 3647 1150 3233 529 
Q 2819 -91 2034 -91 
Q 1250 -91 836 529 
Q 422 1150 422 2328 
Q 422 3509 836 4129 
Q 1250 4750 2034 4750 
z
" transform="scale(0.015625)"/>
       </defs>
       <use xlink:href="#DejaVuSans-2212"/>
       <use xlink:href="#DejaVuSans-36" x="83.789062"/>
       <use xlink:href="#DejaVuSans-30" x="147.412109"/>
      </g>
     </g>
    </g>
    <g id="xtick_2">
     <g id="line2d_3">
      <path d="M 124.707669 307.584 
L 124.707669 41.472 
" clip-path="url(#p9d6de6783a)" style="fill: none; stroke: #b0b0b0; stroke-width: 0.8; stroke-linecap: square"/>
     </g>
     <g id="line2d_4">
      <g>
       <use xlink:href="#mc86599ee54" x="124.707669" y="307.584" style="stroke: #000000; stroke-width: 0.8"/>
      </g>
     </g>
     <g id="text_2">
      <!-- −40 -->
      <g transform="translate(114.155325 322.182437) scale(0.1 -0.1)">
       <defs>
        <path id="DejaVuSans-34" d="M 2419 4116 
L 825 1625 
L 2419 1625 
L 2419 4116 
z
M 2253 4666 
L 3047 4666 
L 3047 1625 
L 3713 1625 
L 3713 1100 
L 3047 1100 
L 3047 0 
L 2419 0 
L 2419 1100 
L 313 1100 
L 313 1709 
L 2253 4666 
z
" transform="scale(0.015625)"/>
       </defs>
       <use xlink:href="#DejaVuSans-2212"/>
       <use xlink:href="#DejaVuSans-34" x="83.789062"/>
       <use xlink:href="#DejaVuSans-30" x="147.412109"/>
      </g>
     </g>
    </g>
    <g id="xtick_3">
     <g id="line2d_5">
      <path d="M 178.696608 307.584 
L 178.696608 41.472 
" clip-path="url(#p9d6de6783a)" style="fill: none; stroke: #b0b0b0; stroke-width: 0.8; stroke-linecap: square"/>
     </g>
     <g id="line2d_6">
      <g>
       <use xlink:href="#mc86599ee54" x="178.696608" y="307.584" style="stroke: #000000; stroke-width: 0.8"/>
      </g>
     </g>
     <g id="text_3">
      <!-- −20 -->
      <g transform="translate(168.144264 322.182437) scale(0.1 -0.1)">
       <defs>
        <path id="DejaVuSans-32" d="M 1228 531 
L 3431 531 
L 3431 0 
L 469 0 
L 469 531 
Q 828 903 1448 1529 
Q 2069 2156 2228 2338 
Q 2531 2678 2651 2914 
Q 2772 3150 2772 3378 
Q 2772 3750 2511 3984 
Q 2250 4219 1831 4219 
Q 1534 4219 1204 4116 
Q 875 4013 500 3803 
L 500 4441 
Q 881 4594 1212 4672 
Q 1544 4750 1819 4750 
Q 2544 4750 2975 4387 
Q 3406 4025 3406 3419 
Q 3406 3131 3298 2873 
Q 3191 2616 2906 2266 
Q 2828 2175 2409 1742 
Q 1991 1309 1228 531 
z
" transform="scale(0.015625)"/>
       </defs>
       <use xlink:href="#DejaVuSans-2212"/>
       <use xlink:href="#DejaVuSans-32" x="83.789062"/>
       <use xlink:href="#DejaVuSans-30" x="147.412109"/>
      </g>
     </g>
    </g>
    <g id="xtick_4">
     <g id="line2d_7">
      <path d="M 232.685547 307.584 
L 232.685547 41.472 
" clip-path="url(#p9d6de6783a)" style="fill: none; stroke: #b0b0b0; stroke-width: 0.8; stroke-linecap: square"/>
     </g>
     <g id="line2d_8">
      <g>
       <use xlink:href="#mc86599ee54" x="232.685547" y="307.584" style="stroke: #000000; stroke-width: 0.8"/>
      </g>
     </g>
     <g id="text_4">
      <!-- 0 -->
      <g transform="translate(229.504297 322.182437) scale(0.1 -0.1)">
       <use xlink:href="#DejaVuSans-30"/>
      </g>
     </g>
    </g>
    <g id="xtick_5">
     <g id="line2d_9">
      <path d="M 286.674486 307.584 
L 286.674486 41.472 
" clip-path="url(#p9d6de6783a)" style="fill: none; stroke: #b0b0b0; stroke-width: 0.8; stroke-linecap: square"/>
     </g>
     <g id="line2d_10">
      <g>
       <use xlink:href="#mc86599ee54" x="286.674486" y="307.584" style="stroke: #000000; stroke-width: 0.8"/>
      </g>
     </g>
     <g id="text_5">
      <!-- 20 -->
      <g transform="translate(280.311986 322.182437) scale(0.1 -0.1)">
       <use xlink:href="#DejaVuSans-32"/>
       <use xlink:href="#DejaVuSans-30" x="63.623047"/>
      </g>
     </g>
    </g>
    <g id="xtick_6">
     <g id="line2d_11">
      <path d="M 340.663425 307.584 
L 340.663425 41.472 
" clip-path="url(#p9d6de6783a)" style="fill: none; stroke: #b0b0b0; stroke-width: 0.8; stroke-linecap: square"/>
     </g>
     <g id="line2d_12">
      <g>
       <use xlink:href="#mc86599ee54" x="340.663425" y="307.584" style="stroke: #000000; stroke-width: 0.8"/>
      </g>
     </g>
     <g id="text_6">
      <!-- 40 -->
      <g transform="translate(334.300925 322.182437) scale(0.1 -0.1)">
       <use xlink:href="#DejaVuSans-34"/>
       <use xlink:href="#DejaVuSans-30" x="63.623047"/>
      </g>
     </g>
    </g>
    <g id="xtick_7">
     <g id="line2d_13">
      <path d="M 394.652364 307.584 
L 394.652364 41.472 
" clip-path="url(#p9d6de6783a)" style="fill: none; stroke: #b0b0b0; stroke-width: 0.8; stroke-linecap: square"/>
     </g>
     <g id="line2d_14">
      <g>
       <use xlink:href="#mc86599ee54" x="394.652364" y="307.584" style="stroke: #000000; stroke-width: 0.8"/>
      </g>
     </g>
     <g id="text_7">
      <!-- 60 -->
      <g transform="translate(388.289864 322.182437) scale(0.1 -0.1)">
       <use xlink:href="#DejaVuSans-36"/>
       <use xlink:href="#DejaVuSans-30" x="63.623047"/>
      </g>
     </g>
    </g>
    <g id="text_8">
     <!-- X -->
     <g transform="translate(232.735 335.860562) scale(0.1 -0.1)">
      <defs>
       <path id="DejaVuSans-58" d="M 403 4666 
L 1081 4666 
L 2241 2931 
L 3406 4666 
L 4084 4666 
L 2584 2425 
L 4184 0 
L 3506 0 
L 2194 1984 
L 872 0 
L 191 0 
L 1856 2491 
L 403 4666 
z
" transform="scale(0.015625)"/>
      </defs>
      <use xlink:href="#DejaVuSans-58"/>
     </g>
    </g>
   </g>
   <g id="matplotlib.axis_2">
    <g id="ytick_1">
     <g id="line2d_15">
      <path d="M 57.6 284.40092 
L 414.72 284.40092 
" clip-path="url(#p9d6de6783a)" style="fill: none; stroke: #b0b0b0; stroke-width: 0.8; stroke-linecap: square"/>
     </g>
     <g id="line2d_16">
      <defs>
       <path id="m95c524321a" d="M 0 0 
L -3.5 0 
" style="stroke: #000000; stroke-width: 0.8"/>
      </defs>
      <g>
       <use xlink:href="#m95c524321a" x="57.6" y="284.40092" style="stroke: #000000; stroke-width: 0.8"/>
      </g>
     </g>
     <g id="text_9">
      <!-- −40 -->
      <g transform="translate(29.495313 288.200139) scale(0.1 -0.1)">
       <use xlink:href="#DejaVuSans-2212"/>
       <use xlink:href="#DejaVuSans-34" x="83.789062"/>
       <use xlink:href="#DejaVuSans-30" x="147.412109"/>
      </g>
     </g>
    </g>
    <g id="ytick_2">
     <g id="line2d_17">
      <path d="M 57.6 230.411981 
L 414.72 230.411981 
" clip-path="url(#p9d6de6783a)" style="fill: none; stroke: #b0b0b0; stroke-width: 0.8; stroke-linecap: square"/>
     </g>
     <g id="line2d_18">
      <g>
       <use xlink:href="#m95c524321a" x="57.6" y="230.411981" style="stroke: #000000; stroke-width: 0.8"/>
      </g>
     </g>
     <g id="text_10">
      <!-- −20 -->
      <g transform="translate(29.495313 234.2112) scale(0.1 -0.1)">
       <use xlink:href="#DejaVuSans-2212"/>
       <use xlink:href="#DejaVuSans-32" x="83.789062"/>
       <use xlink:href="#DejaVuSans-30" x="147.412109"/>
      </g>
     </g>
    </g>
    <g id="ytick_3">
     <g id="line2d_19">
      <path d="M 57.6 176.423042 
L 414.72 176.423042 
" clip-path="url(#p9d6de6783a)" style="fill: none; stroke: #b0b0b0; stroke-width: 0.8; stroke-linecap: square"/>
     </g>
     <g id="line2d_20">
      <g>
       <use xlink:href="#m95c524321a" x="57.6" y="176.423042" style="stroke: #000000; stroke-width: 0.8"/>
      </g>
     </g>
     <g id="text_11">
      <!-- 0 -->
      <g transform="translate(44.2375 180.222261) scale(0.1 -0.1)">
       <use xlink:href="#DejaVuSans-30"/>
      </g>
     </g>
    </g>
    <g id="ytick_4">
     <g id="line2d_21">
      <path d="M 57.6 122.434103 
L 414.72 122.434103 
" clip-path="url(#p9d6de6783a)" style="fill: none; stroke: #b0b0b0; stroke-width: 0.8; stroke-linecap: square"/>
     </g>
     <g id="line2d_22">
      <g>
       <use xlink:href="#m95c524321a" x="57.6" y="122.434103" style="stroke: #000000; stroke-width: 0.8"/>
      </g>
     </g>
     <g id="text_12">
      <!-- 20 -->
      <g transform="translate(37.875 126.233322) scale(0.1 -0.1)">
       <use xlink:href="#DejaVuSans-32"/>
       <use xlink:href="#DejaVuSans-30" x="63.623047"/>
      </g>
     </g>
    </g>
    <g id="ytick_5">
     <g id="line2d_23">
      <path d="M 57.6 68.445164 
L 414.72 68.445164 
" clip-path="url(#p9d6de6783a)" style="fill: none; stroke: #b0b0b0; stroke-width: 0.8; stroke-linecap: square"/>
     </g>
     <g id="line2d_24">
      <g>
       <use xlink:href="#m95c524321a" x="57.6" y="68.445164" style="stroke: #000000; stroke-width: 0.8"/>
      </g>
     </g>
     <g id="text_13">
      <!-- 40 -->
      <g transform="translate(37.875 72.244383) scale(0.1 -0.1)">
       <use xlink:href="#DejaVuSans-34"/>
       <use xlink:href="#DejaVuSans-30" x="63.623047"/>
      </g>
     </g>
    </g>
    <g id="text_14">
     <!-- Y -->
     <g transform="translate(23.415625 177.581906) rotate(-90) scale(0.1 -0.1)">
      <defs>
       <path id="DejaVuSans-59" d="M -13 4666 
L 666 4666 
L 1959 2747 
L 3244 4666 
L 3922 4666 
L 2272 2222 
L 2272 0 
L 1638 0 
L 1638 2222 
L -13 4666 
z
" transform="scale(0.015625)"/>
      </defs>
      <use xlink:href="#DejaVuSans-59"/>
     </g>
    </g>
   </g>
   <g id="patch_3">
    <path d="M 57.6 307.584 
L 57.6 41.472 
" style="fill: none; stroke: #000000; stroke-width: 0.8; stroke-linejoin: miter; stroke-linecap: square"/>
   </g>
   <g id="patch_4">
    <path d="M 414.72 307.584 
L 414.72 41.472 
" style="fill: none; stroke: #000000; stroke-width: 0.8; stroke-linejoin: miter; stroke-linecap: square"/>
   </g>
   <g id="patch_5">
    <path d="M 57.6 307.584 
L 414.72 307.584 
" style="fill: none; stroke: #000000; stroke-width: 0.8; stroke-linejoin: miter; stroke-linecap: square"/>
   </g>
   <g id="patch_6">
    <path d="M 57.6 41.472 
L 414.72 41.472 
" style="fill: none; stroke: #000000; stroke-width: 0.8; stroke-linejoin: miter; stroke-linecap: square"/>
   </g>
   <g id="text_15">
    <!-- Velocities at the final time -->
    <g transform="translate(157.704375 35.472) scale(0.12 -0.12)">
     <defs>
      <path id="DejaVuSans-56" d="M 1831 0 
L 50 4666 
L 709 4666 
L 2188 738 
L 3669 4666 
L 4325 4666 
L 2547 0 
L 1831 0 
z
" transform="scale(0.015625)"/>
      <path id="DejaVuSans-65" d="M 3597 1894 
L 3597 1613 
L 953 1613 
Q 991 1019 1311 708 
Q 1631 397 2203 397 
Q 2534 397 2845 478 
Q 3156 559 3463 722 
L 3463 178 
Q 3153 47 2828 -22 
Q 2503 -91 2169 -91 
Q 1331 -91 842 396 
Q 353 884 353 1716 
Q 353 2575 817 3079 
Q 1281 3584 2069 3584 
Q 2775 3584 3186 3129 
Q 3597 2675 3597 1894 
z
M 3022 2063 
Q 3016 2534 2758 2815 
Q 2500 3097 2075 3097 
Q 1594 3097 1305 2825 
Q 1016 2553 972 2059 
L 3022 2063 
z
" transform="scale(0.015625)"/>
      <path id="DejaVuSans-6c" d="M 603 4863 
L 1178 4863 
L 1178 0 
L 603 0 
L 603 4863 
z
" transform="scale(0.015625)"/>
      <path id="DejaVuSans-6f" d="M 1959 3097 
Q 1497 3097 1228 2736 
Q 959 2375 959 1747 
Q 959 1119 1226 758 
Q 1494 397 1959 397 
Q 2419 397 2687 759 
Q 2956 1122 2956 1747 
Q 2956 2369 2687 2733 
Q 2419 3097 1959 3097 
z
M 1959 3584 
Q 2709 3584 3137 3096 
Q 3566 2609 3566 1747 
Q 3566 888 3137 398 
Q 2709 -91 1959 -91 
Q 1206 -91 779 398 
Q 353 888 353 1747 
Q 353 2609 779 3096 
Q 1206 3584 1959 3584 
z
" transform="scale(0.015625)"/>
      <path id="DejaVuSans-63" d="M 3122 3366 
L 3122 2828 
Q 2878 2963 2633 3030 
Q 2388 3097 2138 3097 
Q 1578 3097 1268 2742 
Q 959 2388 959 1747 
Q 959 1106 1268 751 
Q 1578 397 2138 397 
Q 2388 397 2633 464 
Q 2878 531 3122 666 
L 3122 134 
Q 2881 22 2623 -34 
Q 2366 -91 2075 -91 
Q 1284 -91 818 406 
Q 353 903 353 1747 
Q 353 2603 823 3093 
Q 1294 3584 2113 3584 
Q 2378 3584 2631 3529 
Q 2884 3475 3122 3366 
z
" transform="scale(0.015625)"/>
      <path id="DejaVuSans-69" d="M 603 3500 
L 1178 3500 
L 1178 0 
L 603 0 
L 603 3500 
z
M 603 4863 
L 1178 4863 
L 1178 4134 
L 603 4134 
L 603 4863 
z
" transform="scale(0.015625)"/>
      <path id="DejaVuSans-74" d="M 1172 4494 
L 1172 3500 
L 2356 3500 
L 2356 3053 
L 1172 3053 
L 1172 1153 
Q 1172 725 1289 603 
Q 1406 481 1766 481 
L 2356 481 
L 2356 0 
L 1766 0 
Q 1100 0 847 248 
Q 594 497 594 1153 
L 594 3053 
L 172 3053 
L 172 3500 
L 594 3500 
L 594 4494 
L 1172 4494 
z
" transform="scale(0.015625)"/>
      <path id="DejaVuSans-73" d="M 2834 3397 
L 2834 2853 
Q 2591 2978 2328 3040 
Q 2066 3103 1784 3103 
Q 1356 3103 1142 2972 
Q 928 2841 928 2578 
Q 928 2378 1081 2264 
Q 1234 2150 1697 2047 
L 1894 2003 
Q 2506 1872 2764 1633 
Q 3022 1394 3022 966 
Q 3022 478 2636 193 
Q 2250 -91 1575 -91 
Q 1294 -91 989 -36 
Q 684 19 347 128 
L 347 722 
Q 666 556 975 473 
Q 1284 391 1588 391 
Q 1994 391 2212 530 
Q 2431 669 2431 922 
Q 2431 1156 2273 1281 
Q 2116 1406 1581 1522 
L 1381 1569 
Q 847 1681 609 1914 
Q 372 2147 372 2553 
Q 372 3047 722 3315 
Q 1072 3584 1716 3584 
Q 2034 3584 2315 3537 
Q 2597 3491 2834 3397 
z
" transform="scale(0.015625)"/>
      <path id="DejaVuSans-20" transform="scale(0.015625)"/>
      <path id="DejaVuSans-61" d="M 2194 1759 
Q 1497 1759 1228 1600 
Q 959 1441 959 1056 
Q 959 750 1161 570 
Q 1363 391 1709 391 
Q 2188 391 2477 730 
Q 2766 1069 2766 1631 
L 2766 1759 
L 2194 1759 
z
M 3341 1997 
L 3341 0 
L 2766 0 
L 2766 531 
Q 2569 213 2275 61 
Q 1981 -91 1556 -91 
Q 1019 -91 701 211 
Q 384 513 384 1019 
Q 384 1609 779 1909 
Q 1175 2209 1959 2209 
L 2766 2209 
L 2766 2266 
Q 2766 2663 2505 2880 
Q 2244 3097 1772 3097 
Q 1472 3097 1187 3025 
Q 903 2953 641 2809 
L 641 3341 
Q 956 3463 1253 3523 
Q 1550 3584 1831 3584 
Q 2591 3584 2966 3190 
Q 3341 2797 3341 1997 
z
" transform="scale(0.015625)"/>
      <path id="DejaVuSans-68" d="M 3513 2113 
L 3513 0 
L 2938 0 
L 2938 2094 
Q 2938 2591 2744 2837 
Q 2550 3084 2163 3084 
Q 1697 3084 1428 2787 
Q 1159 2491 1159 1978 
L 1159 0 
L 581 0 
L 581 4863 
L 1159 4863 
L 1159 2956 
Q 1366 3272 1645 3428 
Q 1925 3584 2291 3584 
Q 2894 3584 3203 3211 
Q 3513 2838 3513 2113 
z
" transform="scale(0.015625)"/>
      <path id="DejaVuSans-66" d="M 2375 4863 
L 2375 4384 
L 1825 4384 
Q 1516 4384 1395 4259 
Q 1275 4134 1275 3809 
L 1275 3500 
L 2222 3500 
L 2222 3053 
L 1275 3053 
L 1275 0 
L 697 0 
L 697 3053 
L 147 3053 
L 147 3500 
L 697 3500 
L 697 3744 
Q 697 4328 969 4595 
Q 1241 4863 1831 4863 
L 2375 4863 
z
" transform="scale(0.015625)"/>
      <path id="DejaVuSans-6e" d="M 3513 2113 
L 3513 0 
L 2938 0 
L 2938 2094 
Q 2938 2591 2744 2837 
Q 2550 3084 2163 3084 
Q 1697 3084 1428 2787 
Q 1159 2491 1159 1978 
L 1159 0 
L 581 0 
L 581 3500 
L 1159 3500 
L 1159 2956 
Q 1366 3272 1645 3428 
Q 1925 3584 2291 3584 
Q 2894 3584 3203 3211 
Q 3513 2838 3513 2113 
z
" transform="scale(0.015625)"/>
      <path id="DejaVuSans-6d" d="M 3328 2828 
Q 3544 3216 3844 3400 
Q 4144 3584 4550 3584 
Q 5097 3584 5394 3201 
Q 5691 2819 5691 2113 
L 5691 0 
L 5113 0 
L 5113 2094 
Q 5113 2597 4934 2840 
Q 4756 3084 4391 3084 
Q 3944 3084 3684 2787 
Q 3425 2491 3425 1978 
L 3425 0 
L 2847 0 
L 2847 2094 
Q 2847 2600 2669 2842 
Q 2491 3084 2119 3084 
Q 1678 3084 1418 2786 
Q 1159 2488 1159 1978 
L 1159 0 
L 581 0 
L 581 3500 
L 1159 3500 
L 1159 2956 
Q 1356 3278 1631 3431 
Q 1906 3584 2284 3584 
Q 2666 3584 2933 3390 
Q 3200 3197 3328 2828 
z
" transform="scale(0.015625)"/>
     </defs>
     <use xlink:href="#DejaVuSans-56"/>
     <use xlink:href="#DejaVuSans-65" x="60.658203"/>
     <use xlink:href="#DejaVuSans-6c" x="122.181641"/>
     <use xlink:href="#DejaVuSans-6f" x="149.964844"/>
     <use xlink:href="#DejaVuSans-63" x="211.146484"/>
     <use xlink:href="#DejaVuSans-69" x="266.126953"/>
     <use xlink:href="#DejaVuSans-74" x="293.910156"/>
     <use xlink:href="#DejaVuSans-69" x="333.119141"/>
     <use xlink:href="#DejaVuSans-65" x="360.902344"/>
     <use xlink:href="#DejaVuSans-73" x="422.425781"/>
     <use xlink:href="#DejaVuSans-20" x="474.525391"/>
     <use xlink:href="#DejaVuSans-61" x="506.3125"/>
     <use xlink:href="#DejaVuSans-74" x="567.591797"/>
     <use xlink:href="#DejaVuSans-20" x="606.800781"/>
     <use xlink:href="#DejaVuSans-74" x="638.587891"/>
     <use xlink:href="#DejaVuSans-68" x="677.796875"/>
     <use xlink:href="#DejaVuSans-65" x="741.175781"/>
     <use xlink:href="#DejaVuSans-20" x="802.699219"/>
     <use xlink:href="#DejaVuSans-66" x="834.486328"/>
     <use xlink:href="#DejaVuSans-69" x="869.691406"/>
     <use xlink:href="#DejaVuSans-6e" x="897.474609"/>
     <use xlink:href="#DejaVuSans-61" x="960.853516"/>
     <use xlink:href="#DejaVuSans-6c" x="1022.132812"/>
     <use xlink:href="#DejaVuSans-20" x="1049.916016"/>
     <use xlink:href="#DejaVuSans-74" x="1081.703125"/>
     <use xlink:href="#DejaVuSans-69" x="1120.912109"/>
     <use xlink:href="#DejaVuSans-6d" x="1148.695312"/>
     <use xlink:href="#DejaVuSans-65" x="1246.107422"/>
    </g>
   </g>
   <g id="legend_1">
    <g id="patch_7">
     <path d="M 64.6 78.82825 
L 144.053125 78.82825 
Q 146.053125 78.82825 146.053125 76.82825 
L 146.053125 48.472 
Q 146.053125 46.472 144.053125 46.472 
L 64.6 46.472 
Q 62.6 46.472 62.6 48.472 
L 62.6 76.82825 
Q 62.6 78.82825 64.6 78.82825 
z
" style="fill: #ffffff; opacity: 0.8; stroke: #cccccc; stroke-linejoin: miter"/>
    </g>
    <g id="PathCollection_2">
     <g>
      <use xlink:href="#m319cd3bbed" x="76.6" y="55.445437" style="fill: #0000ff; stroke: #0000ff"/>
     </g>
    </g>
    <g id="text_16">
     <!-- Positions -->
     <g transform="translate(94.6 58.070437) scale(0.1 -0.1)">
      <defs>
       <path id="DejaVuSans-50" d="M 1259 4147 
L 1259 2394 
L 2053 2394 
Q 2494 2394 2734 2622 
Q 2975 2850 2975 3272 
Q 2975 3691 2734 3919 
Q 2494 4147 2053 4147 
L 1259 4147 
z
M 628 4666 
L 2053 4666 
Q 2838 4666 3239 4311 
Q 3641 3956 3641 3272 
Q 3641 2581 3239 2228 
Q 2838 1875 2053 1875 
L 1259 1875 
L 1259 0 
L 628 0 
L 628 4666 
z
" transform="scale(0.015625)"/>
      </defs>
      <use xlink:href="#DejaVuSans-50"/>
      <use xlink:href="#DejaVuSans-6f" x="56.677734"/>
      <use xlink:href="#DejaVuSans-73" x="117.859375"/>
      <use xlink:href="#DejaVuSans-69" x="169.958984"/>
      <use xlink:href="#DejaVuSans-74" x="197.742188"/>
      <use xlink:href="#DejaVuSans-69" x="236.951172"/>
      <use xlink:href="#DejaVuSans-6f" x="264.734375"/>
      <use xlink:href="#DejaVuSans-6e" x="325.916016"/>
      <use xlink:href="#DejaVuSans-73" x="389.294922"/>
     </g>
    </g>
    <g id="patch_8">
     <path d="M 66.6 72.748562 
L 86.6 72.748562 
L 86.6 65.748562 
L 66.6 65.748562 
z
" style="fill: #ff0000"/>
    </g>
    <g id="text_17">
     <!-- Velocities -->
     <g transform="translate(94.6 72.748562) scale(0.1 -0.1)">
      <use xlink:href="#DejaVuSans-56"/>
      <use xlink:href="#DejaVuSans-65" x="60.658203"/>
      <use xlink:href="#DejaVuSans-6c" x="122.181641"/>
      <use xlink:href="#DejaVuSans-6f" x="149.964844"/>
      <use xlink:href="#DejaVuSans-63" x="211.146484"/>
      <use xlink:href="#DejaVuSans-69" x="266.126953"/>
      <use xlink:href="#DejaVuSans-74" x="293.910156"/>
      <use xlink:href="#DejaVuSans-69" x="333.119141"/>
      <use xlink:href="#DejaVuSans-65" x="360.902344"/>
      <use xlink:href="#DejaVuSans-73" x="422.425781"/>
     </g>
    </g>
   </g>
  </g>
 </g>
 <defs>
  <clipPath id="p9d6de6783a">
   <rect x="57.6" y="41.472" width="357.12" height="266.112"/>
  </clipPath>
 </defs>
</svg>
