<?xml version="1.0" encoding="utf-8" standalone="no"?>
<!DOCTYPE svg PUBLIC "-//W3C//DTD SVG 1.1//EN"
  "http://www.w3.org/Graphics/SVG/1.1/DTD/svg11.dtd">
<svg xmlns:xlink="http://www.w3.org/1999/xlink" width="460.8pt" height="345.6pt" viewBox="0 0 460.8 345.6" xmlns="http://www.w3.org/2000/svg" version="1.1">
 <metadata>
  <rdf:RDF xmlns:dc="http://purl.org/dc/elements/1.1/" xmlns:cc="http://creativecommons.org/ns#" xmlns:rdf="http://www.w3.org/1999/02/22-rdf-syntax-ns#">
   <cc:Work>
    <dc:type rdf:resource="http://purl.org/dc/dcmitype/StillImage"/>
    <dc:date>2025-04-30T10:58:09.193697</dc:date>
    <dc:format>image/svg+xml</dc:format>
    <dc:creator>
     <cc:Agent>
      <dc:title>Matplotlib v3.10.1, https://matplotlib.org/</dc:title>
     </cc:Agent>
    </dc:creator>
   </cc:Work>
  </rdf:RDF>
 </metadata>
 <defs>
  <style type="text/css">*{stroke-linejoin: round; stroke-linecap: butt}</style>
 </defs>
 <g id="figure_1">
  <g id="patch_1">
   <path d="M 0 345.6 
L 460.8 345.6 
L 460.8 0 
L 0 0 
z
" style="fill: #ffffff"/>
  </g>
  <g id="axes_1">
   <g id="patch_2">
    <path d="M 57.6 307.584 
L 414.72 307.584 
L 414.72 41.472 
L 57.6 41.472 
z
" style="fill: #ffffff"/>
   </g>
   <g id="Quiver_1">
    <path d="M 267.932889 114.133492 
L 274.339456 107.726519 
L 271.798476 106.879615 
L 282.809085 100.950375 
L 276.880543 111.961361 
L 276.033478 109.420434 
L 269.626911 115.827408 
L 267.932889 114.133492 
" clip-path="url(#p04f79da975)"/>
    <path d="M 242.289545 56.877644 
L 248.696752 50.471081 
L 246.155841 49.623969 
L 257.166937 43.695631 
L 251.237493 54.706131 
L 250.390636 52.165135 
L 243.983429 58.571698 
L 242.289545 56.877644 
" clip-path="url(#p04f79da975)"/>
    <path d="M 317.278202 200.71341 
L 323.68445 194.307034 
L 321.143488 193.460075 
L 332.154227 187.531074 
L 326.225446 198.541931 
L 325.378436 196.000986 
L 318.972188 202.407362 
L 317.278202 200.71341 
" clip-path="url(#p04f79da975)"/>
    <path d="M 192.016972 94.686399 
L 198.423669 88.28109 
L 195.882808 87.43383 
L 206.894248 81.506132 
L 200.964164 92.516287 
L 200.117455 89.975242 
L 193.710758 96.380551 
L 192.016972 94.686399 
" clip-path="url(#p04f79da975)"/>
    <path d="M 252.313512 88.63366 
L 258.717302 82.228886 
L 256.176284 81.382097 
L 267.186627 75.45236 
L 261.258581 86.463613 
L 260.411401 83.922725 
L 254.00761 90.327499 
L 252.313512 88.63366 
" clip-path="url(#p04f79da975)"/>
    <path d="M 154.922938 165.020971 
L 161.329319 158.614925 
L 158.788387 157.767874 
L 169.79934 151.83927 
L 163.870162 162.849913 
L 163.023243 160.308938 
L 156.616863 166.714984 
L 154.922938 165.020971 
" clip-path="url(#p04f79da975)"/>
    <path d="M 342.993156 130.609979 
L 349.399277 124.203478 
L 346.858298 123.356569 
L 357.86892 117.427351 
L 351.940356 128.438325 
L 351.093296 125.897397 
L 344.687175 132.303897 
L 342.993156 130.609979 
" clip-path="url(#p04f79da975)"/>
    <path d="M 213.833212 256.539673 
L 220.238971 250.134485 
L 217.698056 249.287387 
L 228.709118 243.358988 
L 222.779735 254.369521 
L 221.932864 251.82853 
L 215.527105 258.233717 
L 213.833212 256.539673 
" clip-path="url(#p04f79da975)"/>
    <path d="M 183.038287 240.631133 
L 189.444085 234.225531 
L 186.903144 233.378508 
L 197.914032 227.449784 
L 191.984973 238.460492 
L 191.138028 235.919526 
L 184.73223 242.325127 
L 183.038287 240.631133 
" clip-path="url(#p04f79da975)"/>
    <path d="M 210.036669 227.519102 
L 216.442607 221.113805 
L 213.901696 220.266694 
L 224.912791 214.338354 
L 218.983349 225.348855 
L 218.136491 222.807859 
L 211.730553 229.213156 
L 210.036669 227.519102 
" clip-path="url(#p04f79da975)"/>
    <path d="M 257.82301 200.893981 
L 264.229237 194.488043 
L 261.688303 193.641001 
L 272.699234 187.712358 
L 266.770095 198.723022 
L 265.923168 196.18205 
L 259.516941 202.587988 
L 257.82301 200.893981 
" clip-path="url(#p04f79da975)"/>
    <path d="M 220.358994 151.844406 
L 226.765017 145.439032 
L 224.224106 144.591919 
L 235.235205 138.663586 
L 229.305755 149.674084 
L 228.4589 147.133087 
L 222.052877 153.53846 
L 220.358994 151.844406 
" clip-path="url(#p04f79da975)"/>
    <path d="M 315.789726 152.584401 
L 322.196106 146.177867 
L 319.655142 145.330913 
L 330.665868 139.401889 
L 324.73711 150.412758 
L 323.890095 147.871815 
L 317.483715 154.27835 
L 315.789726 152.584401 
" clip-path="url(#p04f79da975)"/>
    <path d="M 292.022665 132.390122 
L 298.428358 125.984195 
L 295.88739 125.137257 
L 306.898079 119.208165 
L 300.969389 130.219071 
L 300.122358 127.678133 
L 293.716665 134.08406 
L 292.022665 132.390122 
" clip-path="url(#p04f79da975)"/>
    <path d="M 119.7072 156.662151 
L 126.113996 150.255089 
L 123.573025 149.408157 
L 134.583699 143.479037 
L 128.655038 154.489958 
L 127.808 151.949022 
L 121.401205 158.356085 
L 119.7072 156.662151 
" clip-path="url(#p04f79da975)"/>
    <path d="M 187.952452 208.123133 
L 194.358527 201.717624 
L 191.817611 200.870527 
L 202.828671 194.942123 
L 196.899293 205.952659 
L 196.052421 203.411668 
L 189.646346 209.817177 
L 187.952452 208.123133 
" clip-path="url(#p04f79da975)"/>
    <path d="M 339.733603 222.155157 
L 346.140055 215.748619 
L 343.599096 214.901651 
L 354.609853 208.972685 
L 348.681037 219.983524 
L 347.834035 217.442576 
L 341.427584 223.849115 
L 339.733603 222.155157 
" clip-path="url(#p04f79da975)"/>
    <path d="M 291.069774 169.813694 
L 297.476371 163.407349 
L 294.935434 162.560315 
L 305.946348 156.63164 
L 300.017241 167.642322 
L 299.170306 165.101352 
L 292.76371 171.507696 
L 291.069774 169.813694 
" clip-path="url(#p04f79da975)"/>
    <path d="M 309.519092 83.704149 
L 315.925042 77.298038 
L 313.384078 76.451085 
L 324.394801 70.522055 
L 318.466049 81.532928 
L 317.619032 78.991985 
L 311.213083 85.398096 
L 309.519092 83.704149 
" clip-path="url(#p04f79da975)"/>
    <path d="M 156.477512 85.364189 
L 162.884789 78.957196 
L 160.343855 78.110155 
L 171.354784 72.181508 
L 165.425649 83.192174 
L 164.578721 80.651202 
L 158.171444 87.058196 
L 156.477512 85.364189 
" clip-path="url(#p04f79da975)"/>
    <path d="M 330.655573 246.673087 
L 337.062252 240.266536 
L 334.521308 239.419526 
L 345.532165 233.490746 
L 339.603163 244.501484 
L 338.756204 241.960522 
L 332.349525 248.367073 
L 330.655573 246.673087 
" clip-path="url(#p04f79da975)"/>
    <path d="M 338.649869 185.115701 
L 345.056264 178.709457 
L 342.515321 177.862443 
L 353.526189 171.933682 
L 347.597167 182.94441 
L 346.750213 180.403446 
L 340.343818 186.80969 
L 338.649869 185.115701 
" clip-path="url(#p04f79da975)"/>
    <path d="M 206.128123 70.794756 
L 212.531861 64.390427 
L 209.990869 63.54356 
L 221.001393 57.614161 
L 215.07301 68.625232 
L 214.225908 66.084318 
L 207.82217 72.488647 
L 206.128123 70.794756 
" clip-path="url(#p04f79da975)"/>
    <path d="M 132.619268 181.270997 
L 139.025743 174.864165 
L 136.484766 174.017251 
L 147.495398 168.088053 
L 141.566814 179.099016 
L 140.719759 176.558086 
L 134.313284 182.964918 
L 132.619268 181.270997 
" clip-path="url(#p04f79da975)"/>
    <path d="M 354.195599 198.676644 
L 360.602096 192.270115 
L 358.061141 191.423137 
L 369.071924 185.494218 
L 363.14306 196.505031 
L 362.296069 193.96408 
L 355.889572 200.370609 
L 354.195599 198.676644 
" clip-path="url(#p04f79da975)"/>
    <path d="M 277.208431 188.618373 
L 283.614779 182.212163 
L 281.073835 181.365151 
L 292.084697 175.436379 
L 286.155687 186.447113 
L 285.30873 183.90615 
L 278.902382 190.31236 
L 277.208431 188.618373 
" clip-path="url(#p04f79da975)"/>
    <path d="M 183.89278 285.180411 
L 190.297738 278.774449 
L 187.756718 277.927664 
L 198.767051 271.997909 
L 192.839023 283.009172 
L 191.99184 280.468285 
L 185.586882 286.874247 
L 183.89278 285.180411 
" clip-path="url(#p04f79da975)"/>
    <path d="M 227.096564 78.134766 
L 233.501537 71.72685 
L 230.960389 70.880449 
L 241.969825 64.949029 
L 236.043463 75.961189 
L 235.195895 73.42043 
L 228.790922 79.828346 
L 227.096564 78.134766 
" clip-path="url(#p04f79da975)"/>
    <path d="M 117.923774 204.283066 
L 124.329998 197.876028 
L 121.78899 197.029205 
L 132.799411 191.099614 
L 126.87122 202.110788 
L 126.024074 199.569889 
L 119.617851 205.976927 
L 117.923774 204.283066 
" clip-path="url(#p04f79da975)"/>
    <path d="M 202.799574 280.329675 
L 209.204408 273.925224 
L 206.66348 273.078163 
L 217.674455 267.149601 
L 211.745235 278.160222 
L 210.898326 275.619243 
L 204.493492 282.023695 
L 202.799574 280.329675 
" clip-path="url(#p04f79da975)"/>
    <path d="M 279.947249 151.729269 
L 286.353219 145.323421 
L 283.812273 144.476413 
L 294.823127 138.547626 
L 288.894132 149.558367 
L 288.047172 147.017406 
L 281.641202 153.423254 
L 279.947249 151.729269 
" clip-path="url(#p04f79da975)"/>
    <path d="M 224.103846 170.456056 
L 230.510037 164.050513 
L 227.969126 163.2034 
L 238.980224 157.275065 
L 233.050776 168.285564 
L 232.20392 165.744567 
L 225.79773 172.15011 
L 224.103846 170.456056 
" clip-path="url(#p04f79da975)"/>
    <path d="M 295.304297 190.573803 
L 301.710371 184.167739 
L 299.169418 183.320753 
L 310.180221 177.39187 
L 304.251321 188.402663 
L 303.404339 185.861709 
L 296.998265 192.267773 
L 295.304297 190.573803 
" clip-path="url(#p04f79da975)"/>
    <path d="M 212.554484 294.64099 
L 218.961098 288.234767 
L 216.42017 287.387705 
L 227.431149 281.45915 
L 221.501922 292.469767 
L 220.655015 289.928788 
L 214.248401 296.33501 
L 212.554484 294.64099 
" clip-path="url(#p04f79da975)"/>
    <path d="M 146.131299 224.415048 
L 152.537319 218.008481 
L 149.99633 217.161605 
L 161.006875 211.232244 
L 155.078454 222.243295 
L 154.231361 219.702378 
L 147.825341 226.108945 
L 146.131299 224.415048 
" clip-path="url(#p04f79da975)"/>
    <path d="M 214.456633 52.720973 
L 220.863217 46.315033 
L 218.322306 45.467921 
L 229.333402 39.539583 
L 223.403957 50.550083 
L 222.557101 48.009087 
L 216.150517 54.415027 
L 214.456633 52.720973 
" clip-path="url(#p04f79da975)"/>
    <path d="M 357.248276 176.898298 
L 363.654702 170.491623 
L 361.113732 169.644688 
L 372.124415 163.715584 
L 366.195738 174.726497 
L 365.348704 172.18556 
L 358.942278 178.592234 
L 357.248276 176.898298 
" clip-path="url(#p04f79da975)"/>
    <path d="M 336.035081 101.678357 
L 342.441057 95.272019 
L 339.90008 94.425106 
L 350.910711 88.495904 
L 344.98213 99.506869 
L 344.135074 96.96594 
L 337.729098 103.372278 
L 336.035081 101.678357 
" clip-path="url(#p04f79da975)"/>
    <path d="M 320.334608 261.220409 
L 326.741243 254.813836 
L 324.200294 253.966839 
L 335.21112 248.038001 
L 329.282176 259.04877 
L 328.435204 256.507813 
L 322.028568 262.914386 
L 320.334608 261.220409 
" clip-path="url(#p04f79da975)"/>
    <path d="M 150.847383 261.09036 
L 157.252935 254.684003 
L 154.711929 253.837178 
L 165.722355 247.907597 
L 159.794154 258.918766 
L 158.94701 256.377866 
L 152.541458 262.784222 
L 150.847383 261.09036 
" clip-path="url(#p04f79da975)"/>
    <path d="M 318.417736 108.467444 
L 324.82362 102.061386 
L 322.282655 101.214436 
L 333.293372 95.285395 
L 327.364631 106.296273 
L 326.517612 103.755332 
L 320.111728 110.16139 
L 318.417736 108.467444 
" clip-path="url(#p04f79da975)"/>
    <path d="M 167.566238 189.969034 
L 173.972283 183.5634 
L 171.431357 182.716334 
L 182.442345 176.787797 
L 176.5131 187.798404 
L 175.666197 185.257424 
L 169.260152 191.663057 
L 167.566238 189.969034 
" clip-path="url(#p04f79da975)"/>
    <path d="M 137.581851 205.450047 
L 143.98784 199.043467 
L 141.446847 198.1966 
L 152.457372 192.267201 
L 146.528988 203.278272 
L 145.681887 200.737358 
L 139.275898 207.143938 
L 137.581851 205.450047 
" clip-path="url(#p04f79da975)"/>
    <path d="M 157.373597 243.650028 
L 163.77945 237.24361 
L 161.238459 236.396738 
L 172.248995 230.467361 
L 166.32059 241.478421 
L 165.473493 238.937505 
L 159.06764 245.343922 
L 157.373597 243.650028 
" clip-path="url(#p04f79da975)"/>
    <path d="M 170.744654 108.051074 
L 177.151498 101.644502 
L 174.610562 100.797463 
L 185.621485 94.868805 
L 179.692361 105.879478 
L 178.845431 103.338506 
L 172.438587 109.745079 
L 170.744654 108.051074 
" clip-path="url(#p04f79da975)"/>
    <path d="M 254.889101 133.630711 
L 261.296143 127.223771 
L 258.755196 126.376766 
L 269.766041 120.447963 
L 263.837062 131.458713 
L 262.990098 128.917753 
L 256.583057 135.324693 
L 254.889101 133.630711 
" clip-path="url(#p04f79da975)"/>
    <path d="M 135.816925 243.703534 
L 142.222812 237.29685 
L 139.681806 236.450024 
L 150.692235 230.520448 
L 144.764029 241.531615 
L 143.916886 238.990714 
L 137.510999 245.397398 
L 135.816925 243.703534 
" clip-path="url(#p04f79da975)"/>
    <path d="M 338.70607 164.208568 
L 345.112396 157.802208 
L 342.571441 156.95523 
L 353.582223 151.026311 
L 347.653361 162.037124 
L 346.80637 159.496173 
L 340.400043 165.902533 
L 338.70607 164.208568 
" clip-path="url(#p04f79da975)"/>
    <path d="M 282.579027 93.046576 
L 288.985081 86.639889 
L 286.444086 85.79303 
L 297.454591 79.863594 
L 291.526244 90.874685 
L 290.679134 88.333774 
L 284.27308 94.740461 
L 282.579027 93.046576 
" clip-path="url(#p04f79da975)"/>
    <path d="M 166.106669 222.233203 
L 172.512727 215.827259 
L 169.971781 214.980252 
L 180.982632 209.051459 
L 175.053643 220.062204 
L 174.206681 217.521243 
L 167.800622 223.927187 
L 166.106669 222.233203 
" clip-path="url(#p04f79da975)"/>
    <path d="M 317.778636 176.624385 
L 324.185346 170.217816 
L 321.644402 169.370804 
L 332.655265 163.442034 
L 326.726253 174.452766 
L 325.879296 171.911804 
L 319.472586 178.318372 
L 317.778636 176.624385 
" clip-path="url(#p04f79da975)"/>
    <path d="M 274.797584 75.746688 
L 281.201633 69.342037 
L 278.66064 68.495172 
L 289.671159 62.565763 
L 283.742786 73.57684 
L 282.895682 71.035926 
L 276.491633 77.440578 
L 274.797584 75.746688 
" clip-path="url(#p04f79da975)"/>
    <path d="M 149.363399 189.857767 
L 155.769608 183.451582 
L 153.228656 182.604593 
L 164.239465 176.675723 
L 158.310553 187.686509 
L 157.463573 185.145554 
L 151.057365 191.551739 
L 149.363399 189.857767 
" clip-path="url(#p04f79da975)"/>
    <path d="M 160.727908 206.105251 
L 167.133868 199.699373 
L 164.592921 198.852373 
L 175.603757 192.923552 
L 169.674794 203.934312 
L 168.827826 201.393353 
L 162.421866 207.799231 
L 160.727908 206.105251 
" clip-path="url(#p04f79da975)"/>
    <path d="M 192.020558 58.451369 
L 198.427427 52.044271 
L 195.886459 51.197332 
L 206.89715 45.268243 
L 200.968456 56.279147 
L 200.121426 53.738209 
L 193.714557 60.145307 
L 192.020558 58.451369 
" clip-path="url(#p04f79da975)"/>
    <path d="M 113.377692 184.386025 
L 119.784187 177.978822 
L 117.243187 177.131978 
L 128.253657 171.202478 
L 122.325374 182.213604 
L 121.47825 179.672697 
L 115.071754 186.079901 
L 113.377692 184.386025 
" clip-path="url(#p04f79da975)"/>
    <path d="M 355.801036 154.941201 
L 362.207324 148.534549 
L 359.666346 147.687637 
L 370.676975 141.758433 
L 364.748397 152.769399 
L 363.901341 150.22847 
L 357.495053 156.635122 
L 355.801036 154.941201 
" clip-path="url(#p04f79da975)"/>
    <path d="M 295.528879 107.796927 
L 301.934808 101.390773 
L 299.39384 100.543834 
L 310.404533 94.614749 
L 304.475836 105.625651 
L 303.628807 103.084713 
L 297.222878 109.490866 
L 295.528879 107.796927 
" clip-path="url(#p04f79da975)"/>
    <path d="M 314.032532 236.319222 
L 320.439091 229.912784 
L 317.898146 229.065776 
L 328.909 223.136989 
L 322.980004 234.14773 
L 322.133044 231.606769 
L 315.726485 238.013207 
L 314.032532 236.319222 
" clip-path="url(#p04f79da975)"/>
    <path d="M 268.217491 140.187331 
L 274.623554 133.781327 
L 272.082605 132.934331 
L 283.09343 127.005491 
L 277.164488 138.016261 
L 276.317516 135.475304 
L 269.911452 141.881308 
L 268.217491 140.187331 
" clip-path="url(#p04f79da975)"/>
    <path d="M 177.025914 68.874237 
L 183.432844 62.468246 
L 180.891953 61.621075 
L 191.903186 55.692992 
L 185.973487 66.703355 
L 185.126689 64.162339 
L 178.719758 70.56833 
L 177.025914 68.874237 
" clip-path="url(#p04f79da975)"/>
    <path d="M 186.009314 265.276592 
L 192.415662 258.870684 
L 189.874738 258.023612 
L 200.88574 252.0951 
L 194.95647 263.105694 
L 194.109573 260.564711 
L 187.703225 266.970619 
L 186.009314 265.276592 
" clip-path="url(#p04f79da975)"/>
    <path d="M 241.621521 143.554075 
L 248.02843 137.147983 
L 245.487531 136.300837 
L 256.498707 130.372648 
L 250.569113 141.383067 
L 249.722291 138.84206 
L 243.315382 145.248152 
L 241.621521 143.554075 
" clip-path="url(#p04f79da975)"/>
    <path d="M 269.741682 56.296732 
L 276.14885 49.890562 
L 273.607963 49.04338 
L 284.619222 43.115347 
L 278.689473 54.125683 
L 277.842687 51.584663 
L 271.435519 57.990833 
L 269.741682 56.296732 
" clip-path="url(#p04f79da975)"/>
    <path d="M 124.881991 224.738427 
L 131.288028 218.331615 
L 128.747024 217.484784 
L 139.757463 211.555228 
L 133.829238 222.566384 
L 132.9821 220.025482 
L 126.576062 226.432293 
L 124.881991 224.738427 
" clip-path="url(#p04f79da975)"/>
    <path d="M 215.29199 89.767183 
L 221.699591 83.361312 
L 219.158752 82.513984 
L 230.17035 76.58658 
L 224.239972 87.596577 
L 223.393331 85.055509 
L 216.98573 91.46138 
L 215.29199 89.767183 
" clip-path="url(#p04f79da975)"/>
    <path d="M 166.632618 271.201803 
L 173.038413 264.795089 
L 170.497399 263.948287 
L 181.507771 258.018606 
L 175.57967 269.029829 
L 174.732503 266.488937 
L 168.326709 272.89565 
L 166.632618 271.201803 
" clip-path="url(#p04f79da975)"/>
    <path d="M 164.031739 146.242027 
L 170.43706 139.836091 
L 167.896066 138.989229 
L 178.906579 133.059809 
L 172.978217 144.070891 
L 172.13111 141.529979 
L 165.725789 147.935915 
L 164.031739 146.242027 
" clip-path="url(#p04f79da975)"/>
    <path d="M 290.163475 63.854457 
L 296.569195 57.44913 
L 294.028268 56.602067 
L 305.039248 50.673514 
L 299.110019 61.68413 
L 298.263112 59.143151 
L 291.857392 65.548478 
L 290.163475 63.854457 
" clip-path="url(#p04f79da975)"/>
    <path d="M 316.116015 125.658865 
L 322.521683 119.252755 
L 319.980701 118.405858 
L 330.991294 112.476587 
L 325.062783 123.487589 
L 324.215711 120.946665 
L 317.810042 127.352775 
L 316.116015 125.658865 
" clip-path="url(#p04f79da975)"/>
    <path d="M 253.99216 167.942652 
L 260.398367 161.536795 
L 257.857436 160.689741 
L 268.868396 154.761151 
L 262.939204 165.771787 
L 262.092289 163.23081 
L 255.686082 169.636667 
L 253.99216 167.942652 
" clip-path="url(#p04f79da975)"/>
    <path d="M 245.594536 281.316524 
L 252.00096 274.910409 
L 249.460027 274.063364 
L 260.470968 268.134738 
L 254.541811 279.145393 
L 253.694888 276.604419 
L 247.288464 283.010534 
L 245.594536 281.316524 
" clip-path="url(#p04f79da975)"/>
    <path d="M 228.602437 117.35635 
L 235.007937 110.951552 
L 232.46703 110.104428 
L 243.478154 104.176142 
L 237.548658 115.186614 
L 236.701813 112.645614 
L 230.296313 119.050411 
L 228.602437 117.35635 
" clip-path="url(#p04f79da975)"/>
    <path d="M 139.688931 122.851052 
L 146.095699 116.444022 
L 143.554729 115.597089 
L 154.565406 109.667974 
L 148.636739 120.678892 
L 147.789703 118.137956 
L 141.382934 124.544986 
L 139.688931 122.851052 
" clip-path="url(#p04f79da975)"/>
    <path d="M 287.71144 266.547277 
L 294.11797 260.141025 
L 291.577035 259.293986 
L 302.587962 253.365334 
L 296.658831 264.376003 
L 295.811902 261.835031 
L 289.405372 268.241282 
L 287.71144 266.547277 
" clip-path="url(#p04f79da975)"/>
    <path d="M 224.565926 197.675047 
L 230.971953 191.269504 
L 228.431032 190.422423 
L 239.442053 184.493948 
L 233.512746 195.504522 
L 232.665858 192.963537 
L 226.259831 199.36908 
L 224.565926 197.675047 
" clip-path="url(#p04f79da975)"/>
    <path d="M 192.034218 173.516507 
L 198.440239 167.111028 
L 195.899321 166.263936 
L 206.91037 160.335511 
L 200.981013 171.346058 
L 200.134136 168.805069 
L 193.728115 175.210547 
L 192.034218 173.516507 
" clip-path="url(#p04f79da975)"/>
    <path d="M 285.889067 221.091248 
L 292.295377 214.685137 
L 289.754436 213.838113 
L 300.765326 207.909393 
L 294.836264 218.920098 
L 293.989319 216.379132 
L 287.583009 222.785243 
L 285.889067 221.091248 
" clip-path="url(#p04f79da975)"/>
    <path d="M 246.338262 235.189053 
L 252.74443 228.7832 
L 250.203497 227.936153 
L 261.214441 222.007533 
L 255.285279 233.018185 
L 254.438357 230.477211 
L 248.032189 236.883064 
L 246.338262 235.189053 
" clip-path="url(#p04f79da975)"/>
    <path d="M 189.935312 132.960588 
L 196.340846 126.555495 
L 193.799922 125.708423 
L 204.810924 119.779911 
L 198.881654 130.790505 
L 198.034757 128.249522 
L 191.629223 134.654615 
L 189.935312 132.960588 
" clip-path="url(#p04f79da975)"/>
   </g>
   <g id="matplotlib.axis_1">
    <g id="xtick_1">
     <g id="line2d_1">
      <defs>
       <path id="mdc33998df1" d="M 0 0 
L 0 3.5 
" style="stroke: #000000; stroke-width: 0.8"/>
      </defs>
      <g>
       <use xlink:href="#mdc33998df1" x="75.484304" y="307.584" style="stroke: #000000; stroke-width: 0.8"/>
      </g>
     </g>
     <g id="text_1">
      <!-- 93.0 -->
      <g transform="translate(62.124929 323.702125) scale(0.12 -0.12)">
       <defs>
        <path id="DejaVuSans-39" d="M 703 97 
L 703 672 
Q 941 559 1184 500 
Q 1428 441 1663 441 
Q 2288 441 2617 861 
Q 2947 1281 2994 2138 
Q 2813 1869 2534 1725 
Q 2256 1581 1919 1581 
Q 1219 1581 811 2004 
Q 403 2428 403 3163 
Q 403 3881 828 4315 
Q 1253 4750 1959 4750 
Q 2769 4750 3195 4129 
Q 3622 3509 3622 2328 
Q 3622 1225 3098 567 
Q 2575 -91 1691 -91 
Q 1453 -91 1209 -44 
Q 966 3 703 97 
z
M 1959 2075 
Q 2384 2075 2632 2365 
Q 2881 2656 2881 3163 
Q 2881 3666 2632 3958 
Q 2384 4250 1959 4250 
Q 1534 4250 1286 3958 
Q 1038 3666 1038 3163 
Q 1038 2656 1286 2365 
Q 1534 2075 1959 2075 
z
" transform="scale(0.015625)"/>
        <path id="DejaVuSans-33" d="M 2597 2516 
Q 3050 2419 3304 2112 
Q 3559 1806 3559 1356 
Q 3559 666 3084 287 
Q 2609 -91 1734 -91 
Q 1441 -91 1130 -33 
Q 819 25 488 141 
L 488 750 
Q 750 597 1062 519 
Q 1375 441 1716 441 
Q 2309 441 2620 675 
Q 2931 909 2931 1356 
Q 2931 1769 2642 2001 
Q 2353 2234 1838 2234 
L 1294 2234 
L 1294 2753 
L 1863 2753 
Q 2328 2753 2575 2939 
Q 2822 3125 2822 3475 
Q 2822 3834 2567 4026 
Q 2313 4219 1838 4219 
Q 1578 4219 1281 4162 
Q 984 4106 628 3988 
L 628 4550 
Q 988 4650 1302 4700 
Q 1616 4750 1894 4750 
Q 2613 4750 3031 4423 
Q 3450 4097 3450 3541 
Q 3450 3153 3228 2886 
Q 3006 2619 2597 2516 
z
" transform="scale(0.015625)"/>
        <path id="DejaVuSans-2e" d="M 684 794 
L 1344 794 
L 1344 0 
L 684 0 
L 684 794 
z
" transform="scale(0.015625)"/>
        <path id="DejaVuSans-30" d="M 2034 4250 
Q 1547 4250 1301 3770 
Q 1056 3291 1056 2328 
Q 1056 1369 1301 889 
Q 1547 409 2034 409 
Q 2525 409 2770 889 
Q 3016 1369 3016 2328 
Q 3016 3291 2770 3770 
Q 2525 4250 2034 4250 
z
M 2034 4750 
Q 2819 4750 3233 4129 
Q 3647 3509 3647 2328 
Q 3647 1150 3233 529 
Q 2819 -91 2034 -91 
Q 1250 -91 836 529 
Q 422 1150 422 2328 
Q 422 3509 836 4129 
Q 1250 4750 2034 4750 
z
" transform="scale(0.015625)"/>
       </defs>
       <use xlink:href="#DejaVuSans-39"/>
       <use xlink:href="#DejaVuSans-33" transform="translate(63.623047 0)"/>
       <use xlink:href="#DejaVuSans-2e" transform="translate(127.246094 0)"/>
       <use xlink:href="#DejaVuSans-30" transform="translate(159.033203 0)"/>
      </g>
     </g>
    </g>
    <g id="xtick_2">
     <g id="line2d_2">
      <g>
       <use xlink:href="#mdc33998df1" x="138.235826" y="307.584" style="stroke: #000000; stroke-width: 0.8"/>
      </g>
     </g>
     <g id="text_2">
      <!-- 93.5 -->
      <g transform="translate(124.876451 323.702125) scale(0.12 -0.12)">
       <defs>
        <path id="DejaVuSans-35" d="M 691 4666 
L 3169 4666 
L 3169 4134 
L 1269 4134 
L 1269 2991 
Q 1406 3038 1543 3061 
Q 1681 3084 1819 3084 
Q 2600 3084 3056 2656 
Q 3513 2228 3513 1497 
Q 3513 744 3044 326 
Q 2575 -91 1722 -91 
Q 1428 -91 1123 -41 
Q 819 9 494 109 
L 494 744 
Q 775 591 1075 516 
Q 1375 441 1709 441 
Q 2250 441 2565 725 
Q 2881 1009 2881 1497 
Q 2881 1984 2565 2268 
Q 2250 2553 1709 2553 
Q 1456 2553 1204 2497 
Q 953 2441 691 2322 
L 691 4666 
z
" transform="scale(0.015625)"/>
       </defs>
       <use xlink:href="#DejaVuSans-39"/>
       <use xlink:href="#DejaVuSans-33" transform="translate(63.623047 0)"/>
       <use xlink:href="#DejaVuSans-2e" transform="translate(127.246094 0)"/>
       <use xlink:href="#DejaVuSans-35" transform="translate(159.033203 0)"/>
      </g>
     </g>
    </g>
    <g id="xtick_3">
     <g id="line2d_3">
      <g>
       <use xlink:href="#mdc33998df1" x="200.987349" y="307.584" style="stroke: #000000; stroke-width: 0.8"/>
      </g>
     </g>
     <g id="text_3">
      <!-- 94.0 -->
      <g transform="translate(187.627974 323.702125) scale(0.12 -0.12)">
       <defs>
        <path id="DejaVuSans-34" d="M 2419 4116 
L 825 1625 
L 2419 1625 
L 2419 4116 
z
M 2253 4666 
L 3047 4666 
L 3047 1625 
L 3713 1625 
L 3713 1100 
L 3047 1100 
L 3047 0 
L 2419 0 
L 2419 1100 
L 313 1100 
L 313 1709 
L 2253 4666 
z
" transform="scale(0.015625)"/>
       </defs>
       <use xlink:href="#DejaVuSans-39"/>
       <use xlink:href="#DejaVuSans-34" transform="translate(63.623047 0)"/>
       <use xlink:href="#DejaVuSans-2e" transform="translate(127.246094 0)"/>
       <use xlink:href="#DejaVuSans-30" transform="translate(159.033203 0)"/>
      </g>
     </g>
    </g>
    <g id="xtick_4">
     <g id="line2d_4">
      <g>
       <use xlink:href="#mdc33998df1" x="263.738871" y="307.584" style="stroke: #000000; stroke-width: 0.8"/>
      </g>
     </g>
     <g id="text_4">
      <!-- 94.5 -->
      <g transform="translate(250.379496 323.702125) scale(0.12 -0.12)">
       <use xlink:href="#DejaVuSans-39"/>
       <use xlink:href="#DejaVuSans-34" transform="translate(63.623047 0)"/>
       <use xlink:href="#DejaVuSans-2e" transform="translate(127.246094 0)"/>
       <use xlink:href="#DejaVuSans-35" transform="translate(159.033203 0)"/>
      </g>
     </g>
    </g>
    <g id="xtick_5">
     <g id="line2d_5">
      <g>
       <use xlink:href="#mdc33998df1" x="326.490393" y="307.584" style="stroke: #000000; stroke-width: 0.8"/>
      </g>
     </g>
     <g id="text_5">
      <!-- 95.0 -->
      <g transform="translate(313.131018 323.702125) scale(0.12 -0.12)">
       <use xlink:href="#DejaVuSans-39"/>
       <use xlink:href="#DejaVuSans-35" transform="translate(63.623047 0)"/>
       <use xlink:href="#DejaVuSans-2e" transform="translate(127.246094 0)"/>
       <use xlink:href="#DejaVuSans-30" transform="translate(159.033203 0)"/>
      </g>
     </g>
    </g>
    <g id="xtick_6">
     <g id="line2d_6">
      <g>
       <use xlink:href="#mdc33998df1" x="389.241916" y="307.584" style="stroke: #000000; stroke-width: 0.8"/>
      </g>
     </g>
     <g id="text_6">
      <!-- 95.5 -->
      <g transform="translate(375.882541 323.702125) scale(0.12 -0.12)">
       <use xlink:href="#DejaVuSans-39"/>
       <use xlink:href="#DejaVuSans-35" transform="translate(63.623047 0)"/>
       <use xlink:href="#DejaVuSans-2e" transform="translate(127.246094 0)"/>
       <use xlink:href="#DejaVuSans-35" transform="translate(159.033203 0)"/>
      </g>
     </g>
    </g>
    <g id="text_7">
     <!-- x -->
     <g transform="translate(232.016875 340.835562) scale(0.14 -0.14)">
      <defs>
       <path id="DejaVuSans-78" d="M 3513 3500 
L 2247 1797 
L 3578 0 
L 2900 0 
L 1881 1375 
L 863 0 
L 184 0 
L 1544 1831 
L 300 3500 
L 978 3500 
L 1906 2253 
L 2834 3500 
L 3513 3500 
z
" transform="scale(0.015625)"/>
      </defs>
      <use xlink:href="#DejaVuSans-78"/>
     </g>
    </g>
   </g>
   <g id="matplotlib.axis_2">
    <g id="ytick_1">
     <g id="line2d_7">
      <defs>
       <path id="mf8694ba00a" d="M 0 0 
L -3.5 0 
" style="stroke: #000000; stroke-width: 0.8"/>
      </defs>
      <g>
       <use xlink:href="#mf8694ba00a" x="57.6" y="294.089505" style="stroke: #000000; stroke-width: 0.8"/>
      </g>
     </g>
     <g id="text_8">
      <!-- 93.75 -->
      <g transform="translate(16.24625 298.648567) scale(0.12 -0.12)">
       <defs>
        <path id="DejaVuSans-37" d="M 525 4666 
L 3525 4666 
L 3525 4397 
L 1831 0 
L 1172 0 
L 2766 4134 
L 525 4134 
L 525 4666 
z
" transform="scale(0.015625)"/>
       </defs>
       <use xlink:href="#DejaVuSans-39"/>
       <use xlink:href="#DejaVuSans-33" transform="translate(63.623047 0)"/>
       <use xlink:href="#DejaVuSans-2e" transform="translate(127.246094 0)"/>
       <use xlink:href="#DejaVuSans-37" transform="translate(159.033203 0)"/>
       <use xlink:href="#DejaVuSans-35" transform="translate(222.65625 0)"/>
      </g>
     </g>
    </g>
    <g id="ytick_2">
     <g id="line2d_8">
      <g>
       <use xlink:href="#mf8694ba00a" x="57.6" y="262.713744" style="stroke: #000000; stroke-width: 0.8"/>
      </g>
     </g>
     <g id="text_9">
      <!-- 94.00 -->
      <g transform="translate(16.24625 267.272806) scale(0.12 -0.12)">
       <use xlink:href="#DejaVuSans-39"/>
       <use xlink:href="#DejaVuSans-34" transform="translate(63.623047 0)"/>
       <use xlink:href="#DejaVuSans-2e" transform="translate(127.246094 0)"/>
       <use xlink:href="#DejaVuSans-30" transform="translate(159.033203 0)"/>
       <use xlink:href="#DejaVuSans-30" transform="translate(222.65625 0)"/>
      </g>
     </g>
    </g>
    <g id="ytick_3">
     <g id="line2d_9">
      <g>
       <use xlink:href="#mf8694ba00a" x="57.6" y="231.337982" style="stroke: #000000; stroke-width: 0.8"/>
      </g>
     </g>
     <g id="text_10">
      <!-- 94.25 -->
      <g transform="translate(16.24625 235.897045) scale(0.12 -0.12)">
       <defs>
        <path id="DejaVuSans-32" d="M 1228 531 
L 3431 531 
L 3431 0 
L 469 0 
L 469 531 
Q 828 903 1448 1529 
Q 2069 2156 2228 2338 
Q 2531 2678 2651 2914 
Q 2772 3150 2772 3378 
Q 2772 3750 2511 3984 
Q 2250 4219 1831 4219 
Q 1534 4219 1204 4116 
Q 875 4013 500 3803 
L 500 4441 
Q 881 4594 1212 4672 
Q 1544 4750 1819 4750 
Q 2544 4750 2975 4387 
Q 3406 4025 3406 3419 
Q 3406 3131 3298 2873 
Q 3191 2616 2906 2266 
Q 2828 2175 2409 1742 
Q 1991 1309 1228 531 
z
" transform="scale(0.015625)"/>
       </defs>
       <use xlink:href="#DejaVuSans-39"/>
       <use xlink:href="#DejaVuSans-34" transform="translate(63.623047 0)"/>
       <use xlink:href="#DejaVuSans-2e" transform="translate(127.246094 0)"/>
       <use xlink:href="#DejaVuSans-32" transform="translate(159.033203 0)"/>
       <use xlink:href="#DejaVuSans-35" transform="translate(222.65625 0)"/>
      </g>
     </g>
    </g>
    <g id="ytick_4">
     <g id="line2d_10">
      <g>
       <use xlink:href="#mf8694ba00a" x="57.6" y="199.962221" style="stroke: #000000; stroke-width: 0.8"/>
      </g>
     </g>
     <g id="text_11">
      <!-- 94.50 -->
      <g transform="translate(16.24625 204.521284) scale(0.12 -0.12)">
       <use xlink:href="#DejaVuSans-39"/>
       <use xlink:href="#DejaVuSans-34" transform="translate(63.623047 0)"/>
       <use xlink:href="#DejaVuSans-2e" transform="translate(127.246094 0)"/>
       <use xlink:href="#DejaVuSans-35" transform="translate(159.033203 0)"/>
       <use xlink:href="#DejaVuSans-30" transform="translate(222.65625 0)"/>
      </g>
     </g>
    </g>
    <g id="ytick_5">
     <g id="line2d_11">
      <g>
       <use xlink:href="#mf8694ba00a" x="57.6" y="168.58646" style="stroke: #000000; stroke-width: 0.8"/>
      </g>
     </g>
     <g id="text_12">
      <!-- 94.75 -->
      <g transform="translate(16.24625 173.145523) scale(0.12 -0.12)">
       <use xlink:href="#DejaVuSans-39"/>
       <use xlink:href="#DejaVuSans-34" transform="translate(63.623047 0)"/>
       <use xlink:href="#DejaVuSans-2e" transform="translate(127.246094 0)"/>
       <use xlink:href="#DejaVuSans-37" transform="translate(159.033203 0)"/>
       <use xlink:href="#DejaVuSans-35" transform="translate(222.65625 0)"/>
      </g>
     </g>
    </g>
    <g id="ytick_6">
     <g id="line2d_12">
      <g>
       <use xlink:href="#mf8694ba00a" x="57.6" y="137.210699" style="stroke: #000000; stroke-width: 0.8"/>
      </g>
     </g>
     <g id="text_13">
      <!-- 95.00 -->
      <g transform="translate(16.24625 141.769761) scale(0.12 -0.12)">
       <use xlink:href="#DejaVuSans-39"/>
       <use xlink:href="#DejaVuSans-35" transform="translate(63.623047 0)"/>
       <use xlink:href="#DejaVuSans-2e" transform="translate(127.246094 0)"/>
       <use xlink:href="#DejaVuSans-30" transform="translate(159.033203 0)"/>
       <use xlink:href="#DejaVuSans-30" transform="translate(222.65625 0)"/>
      </g>
     </g>
    </g>
    <g id="ytick_7">
     <g id="line2d_13">
      <g>
       <use xlink:href="#mf8694ba00a" x="57.6" y="105.834938" style="stroke: #000000; stroke-width: 0.8"/>
      </g>
     </g>
     <g id="text_14">
      <!-- 95.25 -->
      <g transform="translate(16.24625 110.394) scale(0.12 -0.12)">
       <use xlink:href="#DejaVuSans-39"/>
       <use xlink:href="#DejaVuSans-35" transform="translate(63.623047 0)"/>
       <use xlink:href="#DejaVuSans-2e" transform="translate(127.246094 0)"/>
       <use xlink:href="#DejaVuSans-32" transform="translate(159.033203 0)"/>
       <use xlink:href="#DejaVuSans-35" transform="translate(222.65625 0)"/>
      </g>
     </g>
    </g>
    <g id="ytick_8">
     <g id="line2d_14">
      <g>
       <use xlink:href="#mf8694ba00a" x="57.6" y="74.459176" style="stroke: #000000; stroke-width: 0.8"/>
      </g>
     </g>
     <g id="text_15">
      <!-- 95.50 -->
      <g transform="translate(16.24625 79.018239) scale(0.12 -0.12)">
       <use xlink:href="#DejaVuSans-39"/>
       <use xlink:href="#DejaVuSans-35" transform="translate(63.623047 0)"/>
       <use xlink:href="#DejaVuSans-2e" transform="translate(127.246094 0)"/>
       <use xlink:href="#DejaVuSans-35" transform="translate(159.033203 0)"/>
       <use xlink:href="#DejaVuSans-30" transform="translate(222.65625 0)"/>
      </g>
     </g>
    </g>
    <g id="ytick_9">
     <g id="line2d_15">
      <g>
       <use xlink:href="#mf8694ba00a" x="57.6" y="43.083415" style="stroke: #000000; stroke-width: 0.8"/>
      </g>
     </g>
     <g id="text_16">
      <!-- 95.75 -->
      <g transform="translate(16.24625 47.642478) scale(0.12 -0.12)">
       <use xlink:href="#DejaVuSans-39"/>
       <use xlink:href="#DejaVuSans-35" transform="translate(63.623047 0)"/>
       <use xlink:href="#DejaVuSans-2e" transform="translate(127.246094 0)"/>
       <use xlink:href="#DejaVuSans-37" transform="translate(159.033203 0)"/>
       <use xlink:href="#DejaVuSans-35" transform="translate(222.65625 0)"/>
      </g>
     </g>
    </g>
    <g id="text_17">
     <!-- y -->
     <g transform="translate(9.334688 178.671125) rotate(-90) scale(0.14 -0.14)">
      <defs>
       <path id="DejaVuSans-79" d="M 2059 -325 
Q 1816 -950 1584 -1140 
Q 1353 -1331 966 -1331 
L 506 -1331 
L 506 -850 
L 844 -850 
Q 1081 -850 1212 -737 
Q 1344 -625 1503 -206 
L 1606 56 
L 191 3500 
L 800 3500 
L 1894 763 
L 2988 3500 
L 3597 3500 
L 2059 -325 
z
" transform="scale(0.015625)"/>
      </defs>
      <use xlink:href="#DejaVuSans-79"/>
     </g>
    </g>
   </g>
   <g id="line2d_16">
    <defs>
     <path id="mb3950298ca" d="M 0 3 
C 0.795609 3 1.55874 2.683901 2.12132 2.12132 
C 2.683901 1.55874 3 0.795609 3 0 
C 3 -0.795609 2.683901 -1.55874 2.12132 -2.12132 
C 1.55874 -2.683901 0.795609 -3 0 -3 
C -0.795609 -3 -1.55874 -2.683901 -2.12132 -2.12132 
C -2.683901 -1.55874 -3 -0.795609 -3 0 
C -3 0.795609 -2.683901 1.55874 -2.12132 2.12132 
C -1.55874 2.683901 -0.795609 3 0 3 
z
" style="stroke: #0000ff"/>
    </defs>
    <g clip-path="url(#p04f79da975)">
     <use xlink:href="#mb3950298ca" x="268.7799" y="114.98045" style="fill: #0000ff; stroke: #0000ff"/>
     <use xlink:href="#mb3950298ca" x="243.136487" y="57.724671" style="fill: #0000ff; stroke: #0000ff"/>
     <use xlink:href="#mb3950298ca" x="318.125195" y="201.560386" style="fill: #0000ff; stroke: #0000ff"/>
     <use xlink:href="#mb3950298ca" x="192.863865" y="95.533475" style="fill: #0000ff; stroke: #0000ff"/>
     <use xlink:href="#mb3950298ca" x="253.160561" y="89.48058" style="fill: #0000ff; stroke: #0000ff"/>
     <use xlink:href="#mb3950298ca" x="155.769901" y="165.867978" style="fill: #0000ff; stroke: #0000ff"/>
     <use xlink:href="#mb3950298ca" x="343.840166" y="131.456938" style="fill: #0000ff; stroke: #0000ff"/>
     <use xlink:href="#mb3950298ca" x="214.680158" y="257.386695" style="fill: #0000ff; stroke: #0000ff"/>
     <use xlink:href="#mb3950298ca" x="183.885259" y="241.47813" style="fill: #0000ff; stroke: #0000ff"/>
     <use xlink:href="#mb3950298ca" x="210.883611" y="228.366129" style="fill: #0000ff; stroke: #0000ff"/>
     <use xlink:href="#mb3950298ca" x="258.669975" y="201.740985" style="fill: #0000ff; stroke: #0000ff"/>
     <use xlink:href="#mb3950298ca" x="221.205935" y="152.691433" style="fill: #0000ff; stroke: #0000ff"/>
     <use xlink:href="#mb3950298ca" x="316.636721" y="153.431376" style="fill: #0000ff; stroke: #0000ff"/>
     <use xlink:href="#mb3950298ca" x="292.869665" y="133.237091" style="fill: #0000ff; stroke: #0000ff"/>
     <use xlink:href="#mb3950298ca" x="120.554203" y="157.509118" style="fill: #0000ff; stroke: #0000ff"/>
     <use xlink:href="#mb3950298ca" x="188.799399" y="208.970155" style="fill: #0000ff; stroke: #0000ff"/>
     <use xlink:href="#mb3950298ca" x="340.580594" y="223.002136" style="fill: #0000ff; stroke: #0000ff"/>
     <use xlink:href="#mb3950298ca" x="291.916742" y="170.660695" style="fill: #0000ff; stroke: #0000ff"/>
     <use xlink:href="#mb3950298ca" x="310.366087" y="84.551122" style="fill: #0000ff; stroke: #0000ff"/>
     <use xlink:href="#mb3950298ca" x="157.324478" y="86.211192" style="fill: #0000ff; stroke: #0000ff"/>
    </g>
   </g>
   <g id="line2d_17">
    <defs>
     <path id="md288b195b0" d="M 0 3 
C 0.795609 3 1.55874 2.683901 2.12132 2.12132 
C 2.683901 1.55874 3 0.795609 3 0 
C 3 -0.795609 2.683901 -1.55874 2.12132 -2.12132 
C 1.55874 -2.683901 0.795609 -3 0 -3 
C -0.795609 -3 -1.55874 -2.683901 -2.12132 -2.12132 
C -2.683901 -1.55874 -3 -0.795609 -3 0 
C -3 0.795609 -2.683901 1.55874 -2.12132 2.12132 
C -1.55874 2.683901 -0.795609 3 0 3 
z
" style="stroke: #ff0000"/>
    </defs>
    <g clip-path="url(#p04f79da975)">
     <use xlink:href="#md288b195b0" x="331.502549" y="247.52008" style="fill: #ff0000; stroke: #ff0000"/>
     <use xlink:href="#md288b195b0" x="339.496843" y="185.962695" style="fill: #ff0000; stroke: #ff0000"/>
     <use xlink:href="#md288b195b0" x="206.975147" y="71.641701" style="fill: #ff0000; stroke: #ff0000"/>
     <use xlink:href="#md288b195b0" x="133.466276" y="182.117957" style="fill: #ff0000; stroke: #ff0000"/>
     <use xlink:href="#md288b195b0" x="355.042585" y="199.523626" style="fill: #ff0000; stroke: #ff0000"/>
     <use xlink:href="#md288b195b0" x="278.055407" y="189.465367" style="fill: #ff0000; stroke: #ff0000"/>
     <use xlink:href="#md288b195b0" x="184.739831" y="286.027329" style="fill: #ff0000; stroke: #ff0000"/>
     <use xlink:href="#md288b195b0" x="227.943743" y="78.981556" style="fill: #ff0000; stroke: #ff0000"/>
     <use xlink:href="#md288b195b0" x="118.770813" y="205.129996" style="fill: #ff0000; stroke: #ff0000"/>
     <use xlink:href="#md288b195b0" x="203.646533" y="281.176685" style="fill: #ff0000; stroke: #ff0000"/>
     <use xlink:href="#md288b195b0" x="280.794225" y="152.576262" style="fill: #ff0000; stroke: #ff0000"/>
     <use xlink:href="#md288b195b0" x="224.950788" y="171.303083" style="fill: #ff0000; stroke: #ff0000"/>
     <use xlink:href="#md288b195b0" x="296.151281" y="191.420788" style="fill: #ff0000; stroke: #ff0000"/>
     <use xlink:href="#md288b195b0" x="213.401443" y="295.488" style="fill: #ff0000; stroke: #ff0000"/>
     <use xlink:href="#md288b195b0" x="146.97832" y="225.261997" style="fill: #ff0000; stroke: #ff0000"/>
     <use xlink:href="#md288b195b0" x="215.303575" y="53.568" style="fill: #ff0000; stroke: #ff0000"/>
     <use xlink:href="#md288b195b0" x="358.095277" y="177.745266" style="fill: #ff0000; stroke: #ff0000"/>
     <use xlink:href="#md288b195b0" x="336.882089" y="102.525317" style="fill: #ff0000; stroke: #ff0000"/>
     <use xlink:href="#md288b195b0" x="321.181588" y="262.067398" style="fill: #ff0000; stroke: #ff0000"/>
     <use xlink:href="#md288b195b0" x="151.69442" y="261.937291" style="fill: #ff0000; stroke: #ff0000"/>
     <use xlink:href="#md288b195b0" x="319.264732" y="109.314417" style="fill: #ff0000; stroke: #ff0000"/>
     <use xlink:href="#md288b195b0" x="168.413195" y="190.816045" style="fill: #ff0000; stroke: #ff0000"/>
     <use xlink:href="#md288b195b0" x="138.428874" y="206.296992" style="fill: #ff0000; stroke: #ff0000"/>
     <use xlink:href="#md288b195b0" x="158.220619" y="244.496975" style="fill: #ff0000; stroke: #ff0000"/>
     <use xlink:href="#md288b195b0" x="171.59162" y="108.898077" style="fill: #ff0000; stroke: #ff0000"/>
     <use xlink:href="#md288b195b0" x="255.736079" y="134.477702" style="fill: #ff0000; stroke: #ff0000"/>
     <use xlink:href="#md288b195b0" x="136.663962" y="244.550466" style="fill: #ff0000; stroke: #ff0000"/>
     <use xlink:href="#md288b195b0" x="339.553057" y="165.05555" style="fill: #ff0000; stroke: #ff0000"/>
     <use xlink:href="#md288b195b0" x="283.426054" y="93.893518" style="fill: #ff0000; stroke: #ff0000"/>
     <use xlink:href="#md288b195b0" x="166.953645" y="223.080195" style="fill: #ff0000; stroke: #ff0000"/>
     <use xlink:href="#md288b195b0" x="318.625611" y="177.471379" style="fill: #ff0000; stroke: #ff0000"/>
     <use xlink:href="#md288b195b0" x="275.644608" y="76.593633" style="fill: #ff0000; stroke: #ff0000"/>
     <use xlink:href="#md288b195b0" x="150.210382" y="190.704753" style="fill: #ff0000; stroke: #ff0000"/>
     <use xlink:href="#md288b195b0" x="161.574887" y="206.952241" style="fill: #ff0000; stroke: #ff0000"/>
     <use xlink:href="#md288b195b0" x="192.867558" y="59.298338" style="fill: #ff0000; stroke: #ff0000"/>
     <use xlink:href="#md288b195b0" x="114.224723" y="185.232963" style="fill: #ff0000; stroke: #ff0000"/>
     <use xlink:href="#md288b195b0" x="356.648045" y="155.788161" style="fill: #ff0000; stroke: #ff0000"/>
     <use xlink:href="#md288b195b0" x="296.375879" y="108.643897" style="fill: #ff0000; stroke: #ff0000"/>
     <use xlink:href="#md288b195b0" x="314.879508" y="237.166214" style="fill: #ff0000; stroke: #ff0000"/>
     <use xlink:href="#md288b195b0" x="269.064472" y="141.03432" style="fill: #ff0000; stroke: #ff0000"/>
     <use xlink:href="#md288b195b0" x="177.872836" y="69.721283" style="fill: #ff0000; stroke: #ff0000"/>
     <use xlink:href="#md288b195b0" x="186.856269" y="266.123605" style="fill: #ff0000; stroke: #ff0000"/>
     <use xlink:href="#md288b195b0" x="242.468452" y="144.401113" style="fill: #ff0000; stroke: #ff0000"/>
     <use xlink:href="#md288b195b0" x="270.5886" y="57.143782" style="fill: #ff0000; stroke: #ff0000"/>
     <use xlink:href="#md288b195b0" x="125.729027" y="225.58536" style="fill: #ff0000; stroke: #ff0000"/>
     <use xlink:href="#md288b195b0" x="216.13886" y="90.614282" style="fill: #ff0000; stroke: #ff0000"/>
     <use xlink:href="#md288b195b0" x="167.479664" y="272.048727" style="fill: #ff0000; stroke: #ff0000"/>
     <use xlink:href="#md288b195b0" x="164.878764" y="147.088971" style="fill: #ff0000; stroke: #ff0000"/>
     <use xlink:href="#md288b195b0" x="291.010433" y="64.701468" style="fill: #ff0000; stroke: #ff0000"/>
     <use xlink:href="#md288b195b0" x="316.963029" y="126.50582" style="fill: #ff0000; stroke: #ff0000"/>
    </g>
   </g>
   <g id="line2d_18">
    <defs>
     <path id="m6da91bef93" d="M 0 3 
C 0.795609 3 1.55874 2.683901 2.12132 2.12132 
C 2.683901 1.55874 3 0.795609 3 0 
C 3 -0.795609 2.683901 -1.55874 2.12132 -2.12132 
C 1.55874 -2.683901 0.795609 -3 0 -3 
C -0.795609 -3 -1.55874 -2.683901 -2.12132 -2.12132 
C -2.683901 -1.55874 -3 -0.795609 -3 0 
C -3 0.795609 -2.683901 1.55874 -2.12132 2.12132 
C -1.55874 2.683901 -0.795609 3 0 3 
z
" style="stroke: #000000"/>
    </defs>
    <g clip-path="url(#p04f79da975)">
     <use xlink:href="#m6da91bef93" x="254.839121" y="168.789659" style="stroke: #000000"/>
     <use xlink:href="#m6da91bef93" x="246.4415" y="282.163529" style="stroke: #000000"/>
     <use xlink:href="#m6da91bef93" x="229.449375" y="118.20338" style="stroke: #000000"/>
     <use xlink:href="#m6da91bef93" x="140.535933" y="123.698019" style="stroke: #000000"/>
     <use xlink:href="#m6da91bef93" x="288.558406" y="267.394279" style="stroke: #000000"/>
     <use xlink:href="#m6da91bef93" x="225.412879" y="198.522064" style="stroke: #000000"/>
     <use xlink:href="#m6da91bef93" x="192.881166" y="174.363527" style="stroke: #000000"/>
     <use xlink:href="#m6da91bef93" x="286.736038" y="221.938245" style="stroke: #000000"/>
     <use xlink:href="#m6da91bef93" x="247.185225" y="236.036058" style="stroke: #000000"/>
     <use xlink:href="#m6da91bef93" x="190.782268" y="133.807602" style="stroke: #000000"/>
    </g>
   </g>
   <g id="patch_3">
    <path d="M 57.6 307.584 
L 57.6 41.472 
" style="fill: none; stroke: #000000; stroke-width: 0.8; stroke-linejoin: miter; stroke-linecap: square"/>
   </g>
   <g id="patch_4">
    <path d="M 414.72 307.584 
L 414.72 41.472 
" style="fill: none; stroke: #000000; stroke-width: 0.8; stroke-linejoin: miter; stroke-linecap: square"/>
   </g>
   <g id="patch_5">
    <path d="M 57.6 307.584 
L 414.72 307.584 
" style="fill: none; stroke: #000000; stroke-width: 0.8; stroke-linejoin: miter; stroke-linecap: square"/>
   </g>
   <g id="patch_6">
    <path d="M 57.6 41.472 
L 414.72 41.472 
" style="fill: none; stroke: #000000; stroke-width: 0.8; stroke-linejoin: miter; stroke-linecap: square"/>
   </g>
   <g id="text_18">
    <!-- Velocities at the final time -->
    <g transform="translate(116.81 35.472) scale(0.16 -0.16)">
     <defs>
      <path id="DejaVuSans-Bold-56" d="M 31 4666 
L 1241 4666 
L 2478 1222 
L 3713 4666 
L 4922 4666 
L 3194 0 
L 1759 0 
L 31 4666 
z
" transform="scale(0.015625)"/>
      <path id="DejaVuSans-Bold-65" d="M 4031 1759 
L 4031 1441 
L 1416 1441 
Q 1456 1047 1700 850 
Q 1944 653 2381 653 
Q 2734 653 3104 758 
Q 3475 863 3866 1075 
L 3866 213 
Q 3469 63 3072 -14 
Q 2675 -91 2278 -91 
Q 1328 -91 801 392 
Q 275 875 275 1747 
Q 275 2603 792 3093 
Q 1309 3584 2216 3584 
Q 3041 3584 3536 3087 
Q 4031 2591 4031 1759 
z
M 2881 2131 
Q 2881 2450 2695 2645 
Q 2509 2841 2209 2841 
Q 1884 2841 1681 2658 
Q 1478 2475 1428 2131 
L 2881 2131 
z
" transform="scale(0.015625)"/>
      <path id="DejaVuSans-Bold-6c" d="M 538 4863 
L 1656 4863 
L 1656 0 
L 538 0 
L 538 4863 
z
" transform="scale(0.015625)"/>
      <path id="DejaVuSans-Bold-6f" d="M 2203 2784 
Q 1831 2784 1636 2517 
Q 1441 2250 1441 1747 
Q 1441 1244 1636 976 
Q 1831 709 2203 709 
Q 2569 709 2762 976 
Q 2956 1244 2956 1747 
Q 2956 2250 2762 2517 
Q 2569 2784 2203 2784 
z
M 2203 3584 
Q 3106 3584 3614 3096 
Q 4122 2609 4122 1747 
Q 4122 884 3614 396 
Q 3106 -91 2203 -91 
Q 1297 -91 786 396 
Q 275 884 275 1747 
Q 275 2609 786 3096 
Q 1297 3584 2203 3584 
z
" transform="scale(0.015625)"/>
      <path id="DejaVuSans-Bold-63" d="M 3366 3391 
L 3366 2478 
Q 3138 2634 2908 2709 
Q 2678 2784 2431 2784 
Q 1963 2784 1702 2511 
Q 1441 2238 1441 1747 
Q 1441 1256 1702 982 
Q 1963 709 2431 709 
Q 2694 709 2930 787 
Q 3166 866 3366 1019 
L 3366 103 
Q 3103 6 2833 -42 
Q 2563 -91 2291 -91 
Q 1344 -91 809 395 
Q 275 881 275 1747 
Q 275 2613 809 3098 
Q 1344 3584 2291 3584 
Q 2566 3584 2833 3536 
Q 3100 3488 3366 3391 
z
" transform="scale(0.015625)"/>
      <path id="DejaVuSans-Bold-69" d="M 538 3500 
L 1656 3500 
L 1656 0 
L 538 0 
L 538 3500 
z
M 538 4863 
L 1656 4863 
L 1656 3950 
L 538 3950 
L 538 4863 
z
" transform="scale(0.015625)"/>
      <path id="DejaVuSans-Bold-74" d="M 1759 4494 
L 1759 3500 
L 2913 3500 
L 2913 2700 
L 1759 2700 
L 1759 1216 
Q 1759 972 1856 886 
Q 1953 800 2241 800 
L 2816 800 
L 2816 0 
L 1856 0 
Q 1194 0 917 276 
Q 641 553 641 1216 
L 641 2700 
L 84 2700 
L 84 3500 
L 641 3500 
L 641 4494 
L 1759 4494 
z
" transform="scale(0.015625)"/>
      <path id="DejaVuSans-Bold-73" d="M 3272 3391 
L 3272 2541 
Q 2913 2691 2578 2766 
Q 2244 2841 1947 2841 
Q 1628 2841 1473 2761 
Q 1319 2681 1319 2516 
Q 1319 2381 1436 2309 
Q 1553 2238 1856 2203 
L 2053 2175 
Q 2913 2066 3209 1816 
Q 3506 1566 3506 1031 
Q 3506 472 3093 190 
Q 2681 -91 1863 -91 
Q 1516 -91 1145 -36 
Q 775 19 384 128 
L 384 978 
Q 719 816 1070 734 
Q 1422 653 1784 653 
Q 2113 653 2278 743 
Q 2444 834 2444 1013 
Q 2444 1163 2330 1236 
Q 2216 1309 1875 1350 
L 1678 1375 
Q 931 1469 631 1722 
Q 331 1975 331 2491 
Q 331 3047 712 3315 
Q 1094 3584 1881 3584 
Q 2191 3584 2531 3537 
Q 2872 3491 3272 3391 
z
" transform="scale(0.015625)"/>
      <path id="DejaVuSans-Bold-20" transform="scale(0.015625)"/>
      <path id="DejaVuSans-Bold-61" d="M 2106 1575 
Q 1756 1575 1579 1456 
Q 1403 1338 1403 1106 
Q 1403 894 1545 773 
Q 1688 653 1941 653 
Q 2256 653 2472 879 
Q 2688 1106 2688 1447 
L 2688 1575 
L 2106 1575 
z
M 3816 1997 
L 3816 0 
L 2688 0 
L 2688 519 
Q 2463 200 2181 54 
Q 1900 -91 1497 -91 
Q 953 -91 614 226 
Q 275 544 275 1050 
Q 275 1666 698 1953 
Q 1122 2241 2028 2241 
L 2688 2241 
L 2688 2328 
Q 2688 2594 2478 2717 
Q 2269 2841 1825 2841 
Q 1466 2841 1156 2769 
Q 847 2697 581 2553 
L 581 3406 
Q 941 3494 1303 3539 
Q 1666 3584 2028 3584 
Q 2975 3584 3395 3211 
Q 3816 2838 3816 1997 
z
" transform="scale(0.015625)"/>
      <path id="DejaVuSans-Bold-68" d="M 4056 2131 
L 4056 0 
L 2931 0 
L 2931 347 
L 2931 1625 
Q 2931 2084 2911 2256 
Q 2891 2428 2841 2509 
Q 2775 2619 2662 2680 
Q 2550 2741 2406 2741 
Q 2056 2741 1856 2470 
Q 1656 2200 1656 1722 
L 1656 0 
L 538 0 
L 538 4863 
L 1656 4863 
L 1656 2988 
Q 1909 3294 2193 3439 
Q 2478 3584 2822 3584 
Q 3428 3584 3742 3212 
Q 4056 2841 4056 2131 
z
" transform="scale(0.015625)"/>
      <path id="DejaVuSans-Bold-66" d="M 2841 4863 
L 2841 4128 
L 2222 4128 
Q 1984 4128 1890 4042 
Q 1797 3956 1797 3744 
L 1797 3500 
L 2753 3500 
L 2753 2700 
L 1797 2700 
L 1797 0 
L 678 0 
L 678 2700 
L 122 2700 
L 122 3500 
L 678 3500 
L 678 3744 
Q 678 4316 997 4589 
Q 1316 4863 1984 4863 
L 2841 4863 
z
" transform="scale(0.015625)"/>
      <path id="DejaVuSans-Bold-6e" d="M 4056 2131 
L 4056 0 
L 2931 0 
L 2931 347 
L 2931 1631 
Q 2931 2084 2911 2256 
Q 2891 2428 2841 2509 
Q 2775 2619 2662 2680 
Q 2550 2741 2406 2741 
Q 2056 2741 1856 2470 
Q 1656 2200 1656 1722 
L 1656 0 
L 538 0 
L 538 3500 
L 1656 3500 
L 1656 2988 
Q 1909 3294 2193 3439 
Q 2478 3584 2822 3584 
Q 3428 3584 3742 3212 
Q 4056 2841 4056 2131 
z
" transform="scale(0.015625)"/>
      <path id="DejaVuSans-Bold-6d" d="M 3781 2919 
Q 3994 3244 4286 3414 
Q 4578 3584 4928 3584 
Q 5531 3584 5847 3212 
Q 6163 2841 6163 2131 
L 6163 0 
L 5038 0 
L 5038 1825 
Q 5041 1866 5042 1909 
Q 5044 1953 5044 2034 
Q 5044 2406 4934 2573 
Q 4825 2741 4581 2741 
Q 4263 2741 4089 2478 
Q 3916 2216 3909 1719 
L 3909 0 
L 2784 0 
L 2784 1825 
Q 2784 2406 2684 2573 
Q 2584 2741 2328 2741 
Q 2006 2741 1831 2477 
Q 1656 2213 1656 1722 
L 1656 0 
L 531 0 
L 531 3500 
L 1656 3500 
L 1656 2988 
Q 1863 3284 2130 3434 
Q 2397 3584 2719 3584 
Q 3081 3584 3359 3409 
Q 3638 3234 3781 2919 
z
" transform="scale(0.015625)"/>
     </defs>
     <use xlink:href="#DejaVuSans-Bold-56"/>
     <use xlink:href="#DejaVuSans-Bold-65" transform="translate(71.892578 0)"/>
     <use xlink:href="#DejaVuSans-Bold-6c" transform="translate(139.714844 0)"/>
     <use xlink:href="#DejaVuSans-Bold-6f" transform="translate(173.992188 0)"/>
     <use xlink:href="#DejaVuSans-Bold-63" transform="translate(242.693359 0)"/>
     <use xlink:href="#DejaVuSans-Bold-69" transform="translate(301.970703 0)"/>
     <use xlink:href="#DejaVuSans-Bold-74" transform="translate(336.248047 0)"/>
     <use xlink:href="#DejaVuSans-Bold-69" transform="translate(384.050781 0)"/>
     <use xlink:href="#DejaVuSans-Bold-65" transform="translate(418.328125 0)"/>
     <use xlink:href="#DejaVuSans-Bold-73" transform="translate(486.150391 0)"/>
     <use xlink:href="#DejaVuSans-Bold-20" transform="translate(545.671875 0)"/>
     <use xlink:href="#DejaVuSans-Bold-61" transform="translate(580.486328 0)"/>
     <use xlink:href="#DejaVuSans-Bold-74" transform="translate(647.966797 0)"/>
     <use xlink:href="#DejaVuSans-Bold-20" transform="translate(695.769531 0)"/>
     <use xlink:href="#DejaVuSans-Bold-74" transform="translate(730.583984 0)"/>
     <use xlink:href="#DejaVuSans-Bold-68" transform="translate(778.386719 0)"/>
     <use xlink:href="#DejaVuSans-Bold-65" transform="translate(849.578125 0)"/>
     <use xlink:href="#DejaVuSans-Bold-20" transform="translate(917.400391 0)"/>
     <use xlink:href="#DejaVuSans-Bold-66" transform="translate(952.214844 0)"/>
     <use xlink:href="#DejaVuSans-Bold-69" transform="translate(995.720703 0)"/>
     <use xlink:href="#DejaVuSans-Bold-6e" transform="translate(1029.998047 0)"/>
     <use xlink:href="#DejaVuSans-Bold-61" transform="translate(1101.189453 0)"/>
     <use xlink:href="#DejaVuSans-Bold-6c" transform="translate(1168.669922 0)"/>
     <use xlink:href="#DejaVuSans-Bold-20" transform="translate(1202.947266 0)"/>
     <use xlink:href="#DejaVuSans-Bold-74" transform="translate(1237.761719 0)"/>
     <use xlink:href="#DejaVuSans-Bold-69" transform="translate(1285.564453 0)"/>
     <use xlink:href="#DejaVuSans-Bold-6d" transform="translate(1319.841797 0)"/>
     <use xlink:href="#DejaVuSans-Bold-65" transform="translate(1424.041016 0)"/>
    </g>
   </g>
  </g>
 </g>
 <defs>
  <clipPath id="p04f79da975">
   <rect x="57.6" y="41.472" width="357.12" height="266.112"/>
  </clipPath>
 </defs>
</svg>
