<?xml version="1.0" encoding="utf-8" standalone="no"?>
<!DOCTYPE svg PUBLIC "-//W3C//DTD SVG 1.1//EN"
  "http://www.w3.org/Graphics/SVG/1.1/DTD/svg11.dtd">
<svg xmlns:xlink="http://www.w3.org/1999/xlink" width="460.8pt" height="345.6pt" viewBox="0 0 460.8 345.6" xmlns="http://www.w3.org/2000/svg" version="1.1">
 <metadata>
  <rdf:RDF xmlns:dc="http://purl.org/dc/elements/1.1/" xmlns:cc="http://creativecommons.org/ns#" xmlns:rdf="http://www.w3.org/1999/02/22-rdf-syntax-ns#">
   <cc:Work>
    <dc:type rdf:resource="http://purl.org/dc/dcmitype/StillImage"/>
    <dc:date>2025-04-08T17:41:14.778192</dc:date>
    <dc:format>image/svg+xml</dc:format>
    <dc:creator>
     <cc:Agent>
      <dc:title>Matplotlib v3.10.1, https://matplotlib.org/</dc:title>
     </cc:Agent>
    </dc:creator>
   </cc:Work>
  </rdf:RDF>
 </metadata>
 <defs>
  <style type="text/css">*{stroke-linejoin: round; stroke-linecap: butt}</style>
 </defs>
 <g id="figure_1">
  <g id="patch_1">
   <path d="M 0 345.6 
L 460.8 345.6 
L 460.8 0 
L 0 0 
z
" style="fill: #ffffff"/>
  </g>
  <g id="axes_1">
   <g id="patch_2">
    <path d="M 57.6 307.584 
L 414.72 307.584 
L 414.72 41.472 
L 57.6 41.472 
z
" style="fill: #ffffff"/>
   </g>
   <g id="Quiver_1">
    <path d="M 340.847742 127.367245 
L 346.725777 121.484331 
L 344.009008 120.579993 
L 355.777415 114.236859 
L 349.444048 126.010525 
L 348.537457 123.294508 
L 342.659422 129.177423 
L 340.847742 127.367245 
" clip-path="url(#p553f9cd606)"/>
    <path d="M 206.360468 175.776814 
L 212.239239 169.90292 
L 209.523222 168.996328 
L 221.296889 162.662963 
L 214.953753 174.431369 
L 214.049416 171.7146 
L 208.170645 177.588494 
L 206.360468 175.776814 
" clip-path="url(#p553f9cd606)"/>
    <path d="M 280.003034 174.882424 
L 285.881319 169.00446 
L 283.164951 168.098921 
L 294.936162 161.760991 
L 288.597589 173.531856 
L 287.692199 170.815438 
L 281.813913 176.693403 
L 280.003034 174.882424 
" clip-path="url(#p553f9cd606)"/>
    <path d="M 315.690609 179.100279 
L 321.571453 173.217139 
L 318.854883 172.312205 
L 330.624684 165.971657 
L 324.28873 177.743931 
L 323.382735 175.027715 
L 317.501891 180.910855 
L 315.690609 179.100279 
" clip-path="url(#p553f9cd606)"/>
    <path d="M 243.33637 118.685873 
L 249.207464 112.814312 
L 246.491034 111.908955 
L 258.26182 105.570235 
L 251.924037 117.341526 
L 251.018465 114.625168 
L 245.147371 120.49673 
L 243.33637 118.685873 
" clip-path="url(#p553f9cd606)"/>
    <path d="M 209.090538 65.442915 
L 214.986079 59.555752 
L 212.270331 58.648356 
L 224.045873 52.318477 
L 217.699253 64.085005 
L 216.79572 61.367968 
L 210.900178 67.255132 
L 209.090538 65.442915 
" clip-path="url(#p553f9cd606)"/>
    <path d="M 225.049348 203.971357 
L 230.925575 198.098395 
L 228.209433 197.192176 
L 239.982231 190.857195 
L 233.64071 202.626472 
L 232.736 199.909827 
L 226.859774 205.782789 
L 225.049348 203.971357 
" clip-path="url(#p553f9cd606)"/>
    <path d="M 223.1941 145.969343 
L 229.067098 140.096362 
L 226.350706 139.190893 
L 238.121753 132.852658 
L 231.783485 144.623688 
L 230.878025 141.907293 
L 225.005027 147.780274 
L 223.1941 145.969343 
" clip-path="url(#p553f9cd606)"/>
    <path d="M 352.343303 165.112412 
L 358.22469 159.226726 
L 355.507966 158.322254 
L 367.276689 151.979704 
L 360.942737 163.753056 
L 360.036281 161.036994 
L 354.154893 166.92268 
L 352.343303 165.112412 
" clip-path="url(#p553f9cd606)"/>
    <path d="M 259.714538 202.665068 
L 265.592457 196.787888 
L 262.87612 195.882252 
L 274.647557 189.544741 
L 268.308565 201.315381 
L 267.403272 198.59893 
L 261.525353 204.47611 
L 259.714538 202.665068 
" clip-path="url(#p553f9cd606)"/>
    <path d="M 256.879428 83.343658 
L 262.751335 77.4719 
L 260.034953 76.566401 
L 271.806072 70.2283 
L 265.467671 81.999257 
L 264.562241 79.282852 
L 258.690334 85.15461 
L 256.879428 83.343658 
" clip-path="url(#p553f9cd606)"/>
    <path d="M 242.602844 172.990394 
L 248.480621 167.114218 
L 245.764351 166.208384 
L 257.536252 159.871736 
L 251.196397 171.641911 
L 250.291303 168.925394 
L 244.413526 174.80157 
L 242.602844 172.990394 
" clip-path="url(#p553f9cd606)"/>
    <path d="M 206.43134 111.658956 
L 212.296618 105.793419 
L 209.580204 104.888014 
L 221.351102 98.549503 
L 215.013111 110.320681 
L 214.107587 107.604307 
L 208.242309 113.469845 
L 206.43134 111.658956 
" clip-path="url(#p553f9cd606)"/>
    <path d="M 283.111433 228.581212 
L 288.993515 222.700025 
L 286.277191 221.794354 
L 298.048711 215.456999 
L 291.709564 227.227554 
L 290.804306 224.511092 
L 284.922224 230.392279 
L 283.111433 228.581212 
" clip-path="url(#p553f9cd606)"/>
    <path d="M 263.795899 146.410178 
L 269.67179 140.533994 
L 266.955374 139.628597 
L 278.726253 133.290052 
L 272.388296 145.061248 
L 271.482764 142.344877 
L 265.606873 148.221062 
L 263.795899 146.410178 
" clip-path="url(#p553f9cd606)"/>
    <path d="M 281.445399 115.49483 
L 287.318709 109.618641 
L 284.602094 108.713842 
L 296.371579 102.372707 
L 290.036212 114.145298 
L 289.130082 111.429127 
L 283.256772 117.305315 
L 281.445399 115.49483 
" clip-path="url(#p553f9cd606)"/>
    <path d="M 347.14676 206.959247 
L 353.030796 201.072526 
L 350.314196 200.167682 
L 362.083788 193.826745 
L 355.748222 205.599229 
L 354.842138 202.883042 
L 348.958102 208.769763 
L 347.14676 206.959247 
" clip-path="url(#p553f9cd606)"/>
    <path d="M 304.174095 144.848064 
L 310.051051 138.968187 
L 307.334433 138.063397 
L 319.103896 131.722222 
L 312.768569 143.494834 
L 311.86243 140.778666 
L 305.985473 146.658543 
L 304.174095 144.848064 
" clip-path="url(#p553f9cd606)"/>
    <path d="M 299.19322 78.38738 
L 305.069575 72.510498 
L 302.353142 71.605155 
L 314.123896 65.266377 
L 307.786172 77.037699 
L 306.880585 74.321346 
L 301.00423 80.198228 
L 299.19322 78.38738 
" clip-path="url(#p553f9cd606)"/>
    <path d="M 175.600847 231.626436 
L 181.482426 225.738251 
L 178.765525 224.834311 
L 190.533004 218.489455 
L 184.20136 230.264048 
L 183.294371 227.548163 
L 177.412792 233.436348 
L 175.600847 231.626436 
" clip-path="url(#p553f9cd606)"/>
    <path d="M 124.455698 214.494472 
L 130.333001 208.618975 
L 127.616746 207.713093 
L 139.388758 201.37665 
L 133.048699 213.146714 
L 132.143651 210.430182 
L 126.266349 216.305679 
L 124.455698 214.494472 
" clip-path="url(#p553f9cd606)"/>
    <path d="M 195.565337 140.853118 
L 201.433622 134.989467 
L 198.717586 134.08293 
L 210.491126 127.749328 
L 204.148227 139.517862 
L 203.243835 136.801111 
L 197.37555 142.664762 
L 195.565337 140.853118 
" clip-path="url(#p553f9cd606)"/>
    <path d="M 274.875174 263.899121 
L 280.760983 258.016233 
L 278.044815 257.110094 
L 289.817425 250.774765 
L 283.476253 262.544229 
L 282.571463 259.827611 
L 276.685654 265.7105 
L 274.875174 263.899121 
" clip-path="url(#p553f9cd606)"/>
    <path d="M 135.046776 110.563545 
L 140.947172 104.65842 
L 138.230416 103.754044 
L 149.998915 97.411079 
L 143.665378 109.184654 
L 142.758826 106.468624 
L 136.85843 112.373748 
L 135.046776 110.563545 
" clip-path="url(#p553f9cd606)"/>
    <path d="M 170.371887 273.295862 
L 176.255938 267.420434 
L 173.540209 266.512978 
L 185.315892 260.18336 
L 178.969011 271.949747 
L 178.065538 269.232691 
L 172.181488 275.108118 
L 170.371887 273.295862 
" clip-path="url(#p553f9cd606)"/>
    <path d="M 175.170691 70.354113 
L 181.069416 64.458006 
L 178.353223 63.551939 
L 190.125667 57.2163 
L 183.784804 68.985931 
L 182.879943 66.269337 
L 176.981218 72.165444 
L 175.170691 70.354113 
" clip-path="url(#p553f9cd606)"/>
    <path d="M 123.052339 137.533725 
L 128.946636 131.63102 
L 126.229598 130.727492 
L 137.996115 124.380853 
L 131.666255 136.156406 
L 130.758855 133.440658 
L 124.864558 139.343363 
L 123.052339 137.533725 
" clip-path="url(#p553f9cd606)"/>
    <path d="M 234.728808 252.553747 
L 240.605029 246.683019 
L 237.88906 245.776284 
L 249.663061 239.443539 
L 243.319305 251.211611 
L 242.415111 248.494795 
L 236.53889 254.365522 
L 234.728808 252.553747 
" clip-path="url(#p553f9cd606)"/>
    <path d="M 313.325588 211.471341 
L 319.208434 205.587114 
L 316.491935 204.681968 
L 328.26223 198.342337 
L 321.925359 210.114118 
L 321.019576 207.397831 
L 315.136729 213.282057 
L 313.325588 211.471341 
" clip-path="url(#p553f9cd606)"/>
    <path d="M 137.666178 237.425187 
L 143.542913 231.557427 
L 140.827212 230.649887 
L 152.60309 224.320632 
L 146.255846 236.086823 
L 145.352458 233.369739 
L 139.475723 239.237499 
L 137.666178 237.425187 
" clip-path="url(#p553f9cd606)"/>
    <path d="M 153.636079 87.585783 
L 159.532562 81.689894 
L 156.816215 80.784293 
L 168.587572 74.446634 
L 162.248728 86.217353 
L 161.3434 83.500914 
L 155.446917 89.396804 
L 153.636079 87.585783 
" clip-path="url(#p553f9cd606)"/>
    <path d="M 184.706954 157.935308 
L 190.57203 152.071952 
L 187.855769 151.166089 
L 199.627736 144.829564 
L 193.287759 156.599673 
L 192.382693 153.883147 
L 186.517617 159.746503 
L 184.706954 157.935308 
" clip-path="url(#p553f9cd606)"/>
    <path d="M 152.186295 256.756808 
L 158.075185 250.878319 
L 155.359593 249.970453 
L 167.136229 243.64261 
L 160.787576 255.40804 
L 159.884513 252.690848 
L 153.995622 258.569337 
L 152.186295 256.756808 
" clip-path="url(#p553f9cd606)"/>
    <path d="M 226.705994 232.329542 
L 232.588686 226.454546 
L 229.872886 225.547304 
L 241.648071 219.216759 
L 235.302116 230.983646 
L 234.398429 228.26666 
L 228.515737 234.141656 
L 226.705994 232.329542 
" clip-path="url(#p553f9cd606)"/>
    <path d="M 146.371019 186.392865 
L 152.213489 180.523403 
L 149.495016 179.624201 
L 161.251415 173.258839 
L 154.940309 185.044453 
L 154.028586 182.330154 
L 148.186116 188.199616 
L 146.371019 186.392865 
" clip-path="url(#p553f9cd606)"/>
    <path d="M 298.368042 279.889516 
L 304.254254 274.00491 
L 301.537984 273.099075 
L 313.309887 266.76243 
L 306.970029 278.532603 
L 306.064935 275.816086 
L 300.178723 281.700692 
L 298.368042 279.889516 
" clip-path="url(#p553f9cd606)"/>
    <path d="M 147.59398 133.427996 
L 153.498573 127.510739 
L 150.781212 126.608185 
L 162.545453 120.257328 
L 156.219815 132.035149 
L 155.311441 129.319727 
L 149.406848 135.236984 
L 147.59398 133.427996 
" clip-path="url(#p553f9cd606)"/>
    <path d="M 340.157513 240.456706 
L 346.043424 234.569467 
L 343.326929 233.664309 
L 355.097252 227.32473 
L 348.760328 239.096483 
L 347.854557 236.380192 
L 341.968646 242.267431 
L 340.157513 240.456706 
" clip-path="url(#p553f9cd606)"/>
    <path d="M 182.611572 92.935916 
L 188.507717 87.042264 
L 185.791516 86.136225 
L 197.563893 79.800462 
L 191.223154 91.57016 
L 190.318263 88.853575 
L 184.422118 94.747228 
L 182.611572 92.935916 
" clip-path="url(#p553f9cd606)"/>
    <path d="M 208.201224 245.333435 
L 214.080476 239.454312 
L 211.364093 238.548818 
L 223.135201 232.210697 
L 216.79682 243.981665 
L 215.891385 241.265261 
L 210.012133 247.144384 
L 208.201224 245.333435 
" clip-path="url(#p553f9cd606)"/>
    <path d="M 272.888944 289.29794 
L 278.774337 283.414963 
L 276.05813 282.508941 
L 287.830469 276.173107 
L 281.489801 287.942843 
L 280.584894 285.226264 
L 274.699501 291.10924 
L 272.888944 289.29794 
" clip-path="url(#p553f9cd606)"/>
    <path d="M 178.786847 182.90282 
L 184.672967 177.031091 
L 181.957684 176.122302 
L 193.736471 169.798463 
L 187.383817 181.561735 
L 186.481678 178.844235 
L 180.595558 184.715964 
L 178.786847 182.90282 
" clip-path="url(#p553f9cd606)"/>
    <path d="M 316.62638 233.649604 
L 322.511254 227.763848 
L 319.794793 226.858587 
L 331.565356 220.519454 
L 325.227987 232.290967 
L 324.322319 229.574641 
L 318.437445 235.460397 
L 316.62638 233.649604 
" clip-path="url(#p553f9cd606)"/>
    <path d="M 218.074775 269.159687 
L 223.947369 263.28348 
L 221.230697 262.378851 
L 232.999785 256.03698 
L 226.665154 267.809967 
L 225.758854 265.093852 
L 219.886261 270.970059 
L 218.074775 269.159687 
" clip-path="url(#p553f9cd606)"/>
    <path d="M 203.709464 222.1143 
L 209.590023 216.237842 
L 206.873946 215.33143 
L 218.647193 208.997285 
L 212.304837 220.766111 
L 211.40032 218.049402 
L 205.519761 223.925861 
L 203.709464 222.1143 
" clip-path="url(#p553f9cd606)"/>
    <path d="M 221.009413 292.900272 
L 226.894568 287.018518 
L 224.178437 286.112269 
L 235.951307 279.777421 
L 229.609653 291.546626 
L 228.704974 288.829971 
L 222.819818 294.711725 
L 221.009413 292.900272 
" clip-path="url(#p553f9cd606)"/>
    <path d="M 322.853416 261.669934 
L 328.740348 255.78344 
L 326.023989 254.877875 
L 337.795263 248.540062 
L 331.456573 260.310864 
L 330.55121 257.594437 
L 324.664277 263.48093 
L 322.853416 261.669934 
" clip-path="url(#p553f9cd606)"/>
    <path d="M 167.57957 144.096928 
L 173.434632 138.249884 
L 170.71886 137.342559 
L 182.494238 131.012374 
L 176.147923 142.779066 
L 175.24432 140.062053 
L 169.389258 145.909097 
L 167.57957 144.096928 
" clip-path="url(#p553f9cd606)"/>
    <path d="M 162.804205 168.342352 
L 168.658416 162.502104 
L 165.943106 161.593397 
L 177.721704 155.269206 
L 171.369402 167.032667 
L 170.467182 164.315195 
L 164.61297 170.155442 
L 162.804205 168.342352 
" clip-path="url(#p553f9cd606)"/>
    <path d="M 293.006662 201.060718 
L 298.887239 195.180053 
L 296.170838 194.274609 
L 307.941829 187.936269 
L 301.603666 199.707355 
L 300.698181 196.990968 
L 294.817604 202.871633 
L 293.006662 201.060718 
" clip-path="url(#p553f9cd606)"/>
    <path d="M 227.142672 89.897871 
L 233.008034 84.036983 
L 230.291987 83.130482 
L 242.065442 76.796722 
L 235.722701 88.565341 
L 234.818272 85.848602 
L 228.95291 91.709491 
L 227.142672 89.897871 
" clip-path="url(#p553f9cd606)"/>
    <path d="M 192.875817 202.687349 
L 198.743664 196.819035 
L 196.027234 195.913679 
L 207.79802 189.574959 
L 201.460237 201.346249 
L 200.554665 198.629892 
L 194.686818 204.498206 
L 192.875817 202.687349 
" clip-path="url(#p553f9cd606)"/>
    <path d="M 191.342579 261.045823 
L 197.219057 255.160213 
L 194.501962 254.256858 
L 206.268076 247.90947 
L 199.938965 259.685425 
L 199.031392 256.969736 
L 193.154914 262.855345 
L 191.342579 261.045823 
" clip-path="url(#p553f9cd606)"/>
    <path d="M 194.948477 286.616078 
L 200.834597 280.733599 
L 198.118484 279.827294 
L 209.891483 273.492685 
L 203.549589 285.261762 
L 202.644966 282.545088 
L 196.758845 288.427567 
L 194.948477 286.616078 
" clip-path="url(#p553f9cd606)"/>
    <path d="M 247.949617 228.387725 
L 253.831043 222.510903 
L 251.115005 221.604375 
L 262.888523 215.270733 
L 256.545664 227.039288 
L 255.641263 224.322541 
L 249.759837 230.199363 
L 247.949617 228.387725 
" clip-path="url(#p553f9cd606)"/>
    <path d="M 141.630195 159.700337 
L 147.530326 153.78643 
L 144.812879 152.884134 
L 156.576519 146.532162 
L 150.251997 158.310582 
L 149.343366 155.595246 
L 143.443235 161.509153 
L 141.630195 159.700337 
" clip-path="url(#p553f9cd606)"/>
    <path d="M 161.809658 110.228793 
L 167.722551 104.323271 
L 165.006723 103.416112 
L 176.781711 97.085203 
L 170.43612 108.852286 
L 169.53235 106.135329 
L 163.619457 112.040851 
L 161.809658 110.228793 
" clip-path="url(#p553f9cd606)"/>
    <path d="M 270.493395 54.762773 
L 276.376927 48.886194 
L 273.661069 47.979124 
L 285.435853 41.647833 
L 279.090643 53.415122 
L 278.186785 50.698193 
L 272.303253 56.574772 
L 270.493395 54.762773 
" clip-path="url(#p553f9cd606)"/>
    <path d="M 240.728411 52.661985 
L 246.621008 46.776549 
L 243.905165 45.869433 
L 255.680055 39.538339 
L 249.334648 51.305522 
L 248.430836 48.588578 
L 242.538239 54.474015 
L 240.728411 52.661985 
" clip-path="url(#p553f9cd606)"/>
    <path d="M 312.257765 111.448206 
L 318.131861 105.570797 
L 315.415213 104.666098 
L 327.184463 98.324529 
L 320.849531 110.097353 
L 319.943301 107.381215 
L 314.069205 113.258624 
L 312.257765 111.448206 
" clip-path="url(#p553f9cd606)"/>
    <path d="M 299.454099 255.053705 
L 305.340827 249.168612 
L 302.624559 248.26277 
L 314.396478 241.926154 
L 308.056592 253.696311 
L 307.151504 250.979792 
L 301.264776 256.864886 
L 299.454099 255.053705 
" clip-path="url(#p553f9cd606)"/>
    <path d="M 178.997294 124.203845 
L 184.859551 118.353319 
L 182.144066 117.445135 
L 193.921446 111.118676 
L 187.571409 122.88336 
L 186.668665 120.166061 
L 180.806409 126.016587 
L 178.997294 124.203845 
" clip-path="url(#p553f9cd606)"/>
    <path d="M 118.164753 165.010515 
L 124.061877 159.104458 
L 121.344799 158.20105 
L 133.111037 151.853892 
L 126.781696 163.629723 
L 125.874176 160.914016 
L 119.977052 166.820073 
L 118.164753 165.010515 
" clip-path="url(#p553f9cd606)"/>
    <path d="M 258.3842 247.237157 
L 264.264997 241.359808 
L 261.54887 240.453547 
L 273.321766 234.118748 
L 266.980063 245.887927 
L 266.075395 243.171268 
L 260.194598 249.048617 
L 258.3842 247.237157 
" clip-path="url(#p553f9cd606)"/>
    <path d="M 168.666912 200.317254 
L 174.520915 194.438313 
L 171.802603 193.538624 
L 183.560143 187.175368 
L 177.246925 198.959852 
L 176.335689 196.245389 
L 170.481686 202.12433 
L 168.666912 200.317254 
" clip-path="url(#p553f9cd606)"/>
    <path d="M 246.654679 294.5823 
L 252.538341 288.701701 
L 249.822183 287.795529 
L 261.594871 281.460343 
L 255.253555 293.229731 
L 254.348798 290.513102 
L 248.465136 296.3937 
L 246.654679 294.5823 
" clip-path="url(#p553f9cd606)"/>
    <path d="M 148.340674 212.064199 
L 154.207661 206.195581 
L 151.491142 205.290494 
L 163.261299 198.950608 
L 156.924683 210.722526 
L 156.018842 208.006259 
L 150.151854 213.874876 
L 148.340674 212.064199 
" clip-path="url(#p553f9cd606)"/>
    <path d="M 248.618482 271.335179 
L 254.500851 265.456431 
L 251.784736 264.55013 
L 263.557724 258.215502 
L 257.21585 269.984589 
L 256.311222 267.267917 
L 250.428854 273.146665 
L 248.618482 271.335179 
" clip-path="url(#p553f9cd606)"/>
    <path d="M 331.16895 93.627827 
L 337.046619 87.746693 
L 334.329959 86.842029 
L 346.099129 80.50031 
L 339.764346 92.273215 
L 338.858081 89.557088 
L 332.980413 95.438222 
L 331.16895 93.627827 
" clip-path="url(#p553f9cd606)"/>
    <path d="M 121.131866 189.591689 
L 126.992686 183.71201 
L 124.274842 182.81091 
L 136.035684 176.45376 
L 129.716348 188.234963 
L 128.806522 185.520028 
L 122.945702 191.399707 
L 121.131866 189.591689 
" clip-path="url(#p553f9cd606)"/>
   </g>
   <g id="matplotlib.axis_1">
    <g id="xtick_1">
     <g id="line2d_1">
      <defs>
       <path id="m3e402b95d8" d="M 0 0 
L 0 3.5 
" style="stroke: #000000; stroke-width: 0.8"/>
      </defs>
      <g>
       <use xlink:href="#m3e402b95d8" x="113.755291" y="307.584" style="stroke: #000000; stroke-width: 0.8"/>
      </g>
     </g>
     <g id="text_1">
      <!-- 81.5 -->
      <g transform="translate(100.395916 323.702125) scale(0.12 -0.12)">
       <defs>
        <path id="DejaVuSans-38" d="M 2034 2216 
Q 1584 2216 1326 1975 
Q 1069 1734 1069 1313 
Q 1069 891 1326 650 
Q 1584 409 2034 409 
Q 2484 409 2743 651 
Q 3003 894 3003 1313 
Q 3003 1734 2745 1975 
Q 2488 2216 2034 2216 
z
M 1403 2484 
Q 997 2584 770 2862 
Q 544 3141 544 3541 
Q 544 4100 942 4425 
Q 1341 4750 2034 4750 
Q 2731 4750 3128 4425 
Q 3525 4100 3525 3541 
Q 3525 3141 3298 2862 
Q 3072 2584 2669 2484 
Q 3125 2378 3379 2068 
Q 3634 1759 3634 1313 
Q 3634 634 3220 271 
Q 2806 -91 2034 -91 
Q 1263 -91 848 271 
Q 434 634 434 1313 
Q 434 1759 690 2068 
Q 947 2378 1403 2484 
z
M 1172 3481 
Q 1172 3119 1398 2916 
Q 1625 2713 2034 2713 
Q 2441 2713 2670 2916 
Q 2900 3119 2900 3481 
Q 2900 3844 2670 4047 
Q 2441 4250 2034 4250 
Q 1625 4250 1398 4047 
Q 1172 3844 1172 3481 
z
" transform="scale(0.015625)"/>
        <path id="DejaVuSans-31" d="M 794 531 
L 1825 531 
L 1825 4091 
L 703 3866 
L 703 4441 
L 1819 4666 
L 2450 4666 
L 2450 531 
L 3481 531 
L 3481 0 
L 794 0 
L 794 531 
z
" transform="scale(0.015625)"/>
        <path id="DejaVuSans-2e" d="M 684 794 
L 1344 794 
L 1344 0 
L 684 0 
L 684 794 
z
" transform="scale(0.015625)"/>
        <path id="DejaVuSans-35" d="M 691 4666 
L 3169 4666 
L 3169 4134 
L 1269 4134 
L 1269 2991 
Q 1406 3038 1543 3061 
Q 1681 3084 1819 3084 
Q 2600 3084 3056 2656 
Q 3513 2228 3513 1497 
Q 3513 744 3044 326 
Q 2575 -91 1722 -91 
Q 1428 -91 1123 -41 
Q 819 9 494 109 
L 494 744 
Q 775 591 1075 516 
Q 1375 441 1709 441 
Q 2250 441 2565 725 
Q 2881 1009 2881 1497 
Q 2881 1984 2565 2268 
Q 2250 2553 1709 2553 
Q 1456 2553 1204 2497 
Q 953 2441 691 2322 
L 691 4666 
z
" transform="scale(0.015625)"/>
       </defs>
       <use xlink:href="#DejaVuSans-38"/>
       <use xlink:href="#DejaVuSans-31" transform="translate(63.623047 0)"/>
       <use xlink:href="#DejaVuSans-2e" transform="translate(127.246094 0)"/>
       <use xlink:href="#DejaVuSans-35" transform="translate(159.033203 0)"/>
      </g>
     </g>
    </g>
    <g id="xtick_2">
     <g id="line2d_2">
      <g>
       <use xlink:href="#m3e402b95d8" x="176.901285" y="307.584" style="stroke: #000000; stroke-width: 0.8"/>
      </g>
     </g>
     <g id="text_2">
      <!-- 82.0 -->
      <g transform="translate(163.54191 323.702125) scale(0.12 -0.12)">
       <defs>
        <path id="DejaVuSans-32" d="M 1228 531 
L 3431 531 
L 3431 0 
L 469 0 
L 469 531 
Q 828 903 1448 1529 
Q 2069 2156 2228 2338 
Q 2531 2678 2651 2914 
Q 2772 3150 2772 3378 
Q 2772 3750 2511 3984 
Q 2250 4219 1831 4219 
Q 1534 4219 1204 4116 
Q 875 4013 500 3803 
L 500 4441 
Q 881 4594 1212 4672 
Q 1544 4750 1819 4750 
Q 2544 4750 2975 4387 
Q 3406 4025 3406 3419 
Q 3406 3131 3298 2873 
Q 3191 2616 2906 2266 
Q 2828 2175 2409 1742 
Q 1991 1309 1228 531 
z
" transform="scale(0.015625)"/>
        <path id="DejaVuSans-30" d="M 2034 4250 
Q 1547 4250 1301 3770 
Q 1056 3291 1056 2328 
Q 1056 1369 1301 889 
Q 1547 409 2034 409 
Q 2525 409 2770 889 
Q 3016 1369 3016 2328 
Q 3016 3291 2770 3770 
Q 2525 4250 2034 4250 
z
M 2034 4750 
Q 2819 4750 3233 4129 
Q 3647 3509 3647 2328 
Q 3647 1150 3233 529 
Q 2819 -91 2034 -91 
Q 1250 -91 836 529 
Q 422 1150 422 2328 
Q 422 3509 836 4129 
Q 1250 4750 2034 4750 
z
" transform="scale(0.015625)"/>
       </defs>
       <use xlink:href="#DejaVuSans-38"/>
       <use xlink:href="#DejaVuSans-32" transform="translate(63.623047 0)"/>
       <use xlink:href="#DejaVuSans-2e" transform="translate(127.246094 0)"/>
       <use xlink:href="#DejaVuSans-30" transform="translate(159.033203 0)"/>
      </g>
     </g>
    </g>
    <g id="xtick_3">
     <g id="line2d_3">
      <g>
       <use xlink:href="#m3e402b95d8" x="240.047278" y="307.584" style="stroke: #000000; stroke-width: 0.8"/>
      </g>
     </g>
     <g id="text_3">
      <!-- 82.5 -->
      <g transform="translate(226.687903 323.702125) scale(0.12 -0.12)">
       <use xlink:href="#DejaVuSans-38"/>
       <use xlink:href="#DejaVuSans-32" transform="translate(63.623047 0)"/>
       <use xlink:href="#DejaVuSans-2e" transform="translate(127.246094 0)"/>
       <use xlink:href="#DejaVuSans-35" transform="translate(159.033203 0)"/>
      </g>
     </g>
    </g>
    <g id="xtick_4">
     <g id="line2d_4">
      <g>
       <use xlink:href="#m3e402b95d8" x="303.193272" y="307.584" style="stroke: #000000; stroke-width: 0.8"/>
      </g>
     </g>
     <g id="text_4">
      <!-- 83.0 -->
      <g transform="translate(289.833897 323.702125) scale(0.12 -0.12)">
       <defs>
        <path id="DejaVuSans-33" d="M 2597 2516 
Q 3050 2419 3304 2112 
Q 3559 1806 3559 1356 
Q 3559 666 3084 287 
Q 2609 -91 1734 -91 
Q 1441 -91 1130 -33 
Q 819 25 488 141 
L 488 750 
Q 750 597 1062 519 
Q 1375 441 1716 441 
Q 2309 441 2620 675 
Q 2931 909 2931 1356 
Q 2931 1769 2642 2001 
Q 2353 2234 1838 2234 
L 1294 2234 
L 1294 2753 
L 1863 2753 
Q 2328 2753 2575 2939 
Q 2822 3125 2822 3475 
Q 2822 3834 2567 4026 
Q 2313 4219 1838 4219 
Q 1578 4219 1281 4162 
Q 984 4106 628 3988 
L 628 4550 
Q 988 4650 1302 4700 
Q 1616 4750 1894 4750 
Q 2613 4750 3031 4423 
Q 3450 4097 3450 3541 
Q 3450 3153 3228 2886 
Q 3006 2619 2597 2516 
z
" transform="scale(0.015625)"/>
       </defs>
       <use xlink:href="#DejaVuSans-38"/>
       <use xlink:href="#DejaVuSans-33" transform="translate(63.623047 0)"/>
       <use xlink:href="#DejaVuSans-2e" transform="translate(127.246094 0)"/>
       <use xlink:href="#DejaVuSans-30" transform="translate(159.033203 0)"/>
      </g>
     </g>
    </g>
    <g id="xtick_5">
     <g id="line2d_5">
      <g>
       <use xlink:href="#m3e402b95d8" x="366.339265" y="307.584" style="stroke: #000000; stroke-width: 0.8"/>
      </g>
     </g>
     <g id="text_5">
      <!-- 83.5 -->
      <g transform="translate(352.97989 323.702125) scale(0.12 -0.12)">
       <use xlink:href="#DejaVuSans-38"/>
       <use xlink:href="#DejaVuSans-33" transform="translate(63.623047 0)"/>
       <use xlink:href="#DejaVuSans-2e" transform="translate(127.246094 0)"/>
       <use xlink:href="#DejaVuSans-35" transform="translate(159.033203 0)"/>
      </g>
     </g>
    </g>
    <g id="text_6">
     <!-- x -->
     <g transform="translate(232.016875 340.835562) scale(0.14 -0.14)">
      <defs>
       <path id="DejaVuSans-78" d="M 3513 3500 
L 2247 1797 
L 3578 0 
L 2900 0 
L 1881 1375 
L 863 0 
L 184 0 
L 1544 1831 
L 300 3500 
L 978 3500 
L 1906 2253 
L 2834 3500 
L 3513 3500 
z
" transform="scale(0.015625)"/>
      </defs>
      <use xlink:href="#DejaVuSans-78"/>
     </g>
    </g>
   </g>
   <g id="matplotlib.axis_2">
    <g id="ytick_1">
     <g id="line2d_6">
      <defs>
       <path id="mc833bf072f" d="M 0 0 
L -3.5 0 
" style="stroke: #000000; stroke-width: 0.8"/>
      </defs>
      <g>
       <use xlink:href="#mc833bf072f" x="57.6" y="284.734193" style="stroke: #000000; stroke-width: 0.8"/>
      </g>
     </g>
     <g id="text_7">
      <!-- 82.25 -->
      <g transform="translate(16.24625 289.293256) scale(0.12 -0.12)">
       <use xlink:href="#DejaVuSans-38"/>
       <use xlink:href="#DejaVuSans-32" transform="translate(63.623047 0)"/>
       <use xlink:href="#DejaVuSans-2e" transform="translate(127.246094 0)"/>
       <use xlink:href="#DejaVuSans-32" transform="translate(159.033203 0)"/>
       <use xlink:href="#DejaVuSans-35" transform="translate(222.65625 0)"/>
      </g>
     </g>
    </g>
    <g id="ytick_2">
     <g id="line2d_7">
      <g>
       <use xlink:href="#mc833bf072f" x="57.6" y="253.161196" style="stroke: #000000; stroke-width: 0.8"/>
      </g>
     </g>
     <g id="text_8">
      <!-- 82.50 -->
      <g transform="translate(16.24625 257.720259) scale(0.12 -0.12)">
       <use xlink:href="#DejaVuSans-38"/>
       <use xlink:href="#DejaVuSans-32" transform="translate(63.623047 0)"/>
       <use xlink:href="#DejaVuSans-2e" transform="translate(127.246094 0)"/>
       <use xlink:href="#DejaVuSans-35" transform="translate(159.033203 0)"/>
       <use xlink:href="#DejaVuSans-30" transform="translate(222.65625 0)"/>
      </g>
     </g>
    </g>
    <g id="ytick_3">
     <g id="line2d_8">
      <g>
       <use xlink:href="#mc833bf072f" x="57.6" y="221.5882" style="stroke: #000000; stroke-width: 0.8"/>
      </g>
     </g>
     <g id="text_9">
      <!-- 82.75 -->
      <g transform="translate(16.24625 226.147262) scale(0.12 -0.12)">
       <defs>
        <path id="DejaVuSans-37" d="M 525 4666 
L 3525 4666 
L 3525 4397 
L 1831 0 
L 1172 0 
L 2766 4134 
L 525 4134 
L 525 4666 
z
" transform="scale(0.015625)"/>
       </defs>
       <use xlink:href="#DejaVuSans-38"/>
       <use xlink:href="#DejaVuSans-32" transform="translate(63.623047 0)"/>
       <use xlink:href="#DejaVuSans-2e" transform="translate(127.246094 0)"/>
       <use xlink:href="#DejaVuSans-37" transform="translate(159.033203 0)"/>
       <use xlink:href="#DejaVuSans-35" transform="translate(222.65625 0)"/>
      </g>
     </g>
    </g>
    <g id="ytick_4">
     <g id="line2d_9">
      <g>
       <use xlink:href="#mc833bf072f" x="57.6" y="190.015203" style="stroke: #000000; stroke-width: 0.8"/>
      </g>
     </g>
     <g id="text_10">
      <!-- 83.00 -->
      <g transform="translate(16.24625 194.574265) scale(0.12 -0.12)">
       <use xlink:href="#DejaVuSans-38"/>
       <use xlink:href="#DejaVuSans-33" transform="translate(63.623047 0)"/>
       <use xlink:href="#DejaVuSans-2e" transform="translate(127.246094 0)"/>
       <use xlink:href="#DejaVuSans-30" transform="translate(159.033203 0)"/>
       <use xlink:href="#DejaVuSans-30" transform="translate(222.65625 0)"/>
      </g>
     </g>
    </g>
    <g id="ytick_5">
     <g id="line2d_10">
      <g>
       <use xlink:href="#mc833bf072f" x="57.6" y="158.442206" style="stroke: #000000; stroke-width: 0.8"/>
      </g>
     </g>
     <g id="text_11">
      <!-- 83.25 -->
      <g transform="translate(16.24625 163.001269) scale(0.12 -0.12)">
       <use xlink:href="#DejaVuSans-38"/>
       <use xlink:href="#DejaVuSans-33" transform="translate(63.623047 0)"/>
       <use xlink:href="#DejaVuSans-2e" transform="translate(127.246094 0)"/>
       <use xlink:href="#DejaVuSans-32" transform="translate(159.033203 0)"/>
       <use xlink:href="#DejaVuSans-35" transform="translate(222.65625 0)"/>
      </g>
     </g>
    </g>
    <g id="ytick_6">
     <g id="line2d_11">
      <g>
       <use xlink:href="#mc833bf072f" x="57.6" y="126.869209" style="stroke: #000000; stroke-width: 0.8"/>
      </g>
     </g>
     <g id="text_12">
      <!-- 83.50 -->
      <g transform="translate(16.24625 131.428272) scale(0.12 -0.12)">
       <use xlink:href="#DejaVuSans-38"/>
       <use xlink:href="#DejaVuSans-33" transform="translate(63.623047 0)"/>
       <use xlink:href="#DejaVuSans-2e" transform="translate(127.246094 0)"/>
       <use xlink:href="#DejaVuSans-35" transform="translate(159.033203 0)"/>
       <use xlink:href="#DejaVuSans-30" transform="translate(222.65625 0)"/>
      </g>
     </g>
    </g>
    <g id="ytick_7">
     <g id="line2d_12">
      <g>
       <use xlink:href="#mc833bf072f" x="57.6" y="95.296213" style="stroke: #000000; stroke-width: 0.8"/>
      </g>
     </g>
     <g id="text_13">
      <!-- 83.75 -->
      <g transform="translate(16.24625 99.855275) scale(0.12 -0.12)">
       <use xlink:href="#DejaVuSans-38"/>
       <use xlink:href="#DejaVuSans-33" transform="translate(63.623047 0)"/>
       <use xlink:href="#DejaVuSans-2e" transform="translate(127.246094 0)"/>
       <use xlink:href="#DejaVuSans-37" transform="translate(159.033203 0)"/>
       <use xlink:href="#DejaVuSans-35" transform="translate(222.65625 0)"/>
      </g>
     </g>
    </g>
    <g id="ytick_8">
     <g id="line2d_13">
      <g>
       <use xlink:href="#mc833bf072f" x="57.6" y="63.723216" style="stroke: #000000; stroke-width: 0.8"/>
      </g>
     </g>
     <g id="text_14">
      <!-- 84.00 -->
      <g transform="translate(16.24625 68.282278) scale(0.12 -0.12)">
       <defs>
        <path id="DejaVuSans-34" d="M 2419 4116 
L 825 1625 
L 2419 1625 
L 2419 4116 
z
M 2253 4666 
L 3047 4666 
L 3047 1625 
L 3713 1625 
L 3713 1100 
L 3047 1100 
L 3047 0 
L 2419 0 
L 2419 1100 
L 313 1100 
L 313 1709 
L 2253 4666 
z
" transform="scale(0.015625)"/>
       </defs>
       <use xlink:href="#DejaVuSans-38"/>
       <use xlink:href="#DejaVuSans-34" transform="translate(63.623047 0)"/>
       <use xlink:href="#DejaVuSans-2e" transform="translate(127.246094 0)"/>
       <use xlink:href="#DejaVuSans-30" transform="translate(159.033203 0)"/>
       <use xlink:href="#DejaVuSans-30" transform="translate(222.65625 0)"/>
      </g>
     </g>
    </g>
    <g id="text_15">
     <!-- y -->
     <g transform="translate(9.334688 178.671125) rotate(-90) scale(0.14 -0.14)">
      <defs>
       <path id="DejaVuSans-79" d="M 2059 -325 
Q 1816 -950 1584 -1140 
Q 1353 -1331 966 -1331 
L 506 -1331 
L 506 -850 
L 844 -850 
Q 1081 -850 1212 -737 
Q 1344 -625 1503 -206 
L 1606 56 
L 191 3500 
L 800 3500 
L 1894 763 
L 2988 3500 
L 3597 3500 
L 2059 -325 
z
" transform="scale(0.015625)"/>
      </defs>
      <use xlink:href="#DejaVuSans-79"/>
     </g>
    </g>
   </g>
   <g id="line2d_14">
    <defs>
     <path id="mfa86727975" d="M 0 3 
C 0.795609 3 1.55874 2.683901 2.12132 2.12132 
C 2.683901 1.55874 3 0.795609 3 0 
C 3 -0.795609 2.683901 -1.55874 2.12132 -2.12132 
C 1.55874 -2.683901 0.795609 -3 0 -3 
C -0.795609 -3 -1.55874 -2.683901 -2.12132 -2.12132 
C -2.683901 -1.55874 -3 -0.795609 -3 0 
C -3 0.795609 -2.683901 1.55874 -2.12132 2.12132 
C -1.55874 2.683901 -0.795609 3 0 3 
z
" style="stroke: #0000ff"/>
    </defs>
    <g clip-path="url(#p553f9cd606)">
     <use xlink:href="#mfa86727975" x="341.753582" y="128.272334" style="fill: #0000ff; stroke: #0000ff"/>
     <use xlink:href="#mfa86727975" x="207.265557" y="176.682654" style="fill: #0000ff; stroke: #0000ff"/>
     <use xlink:href="#mfa86727975" x="280.908474" y="175.787913" style="fill: #0000ff; stroke: #0000ff"/>
     <use xlink:href="#mfa86727975" x="316.59625" y="180.005567" style="fill: #0000ff; stroke: #0000ff"/>
     <use xlink:href="#mfa86727975" x="244.24187" y="119.591302" style="fill: #0000ff; stroke: #0000ff"/>
     <use xlink:href="#mfa86727975" x="209.995358" y="66.349023" style="fill: #0000ff; stroke: #0000ff"/>
     <use xlink:href="#mfa86727975" x="225.954561" y="204.877073" style="fill: #0000ff; stroke: #0000ff"/>
     <use xlink:href="#mfa86727975" x="224.099564" y="146.874809" style="fill: #0000ff; stroke: #0000ff"/>
     <use xlink:href="#mfa86727975" x="353.249098" y="166.017546" style="fill: #0000ff; stroke: #0000ff"/>
     <use xlink:href="#mfa86727975" x="260.619945" y="203.570589" style="fill: #0000ff; stroke: #0000ff"/>
     <use xlink:href="#mfa86727975" x="257.784881" y="84.249134" style="fill: #0000ff; stroke: #0000ff"/>
     <use xlink:href="#mfa86727975" x="243.508185" y="173.895982" style="fill: #0000ff; stroke: #0000ff"/>
     <use xlink:href="#mfa86727975" x="207.336824" y="112.5644" style="fill: #0000ff; stroke: #0000ff"/>
     <use xlink:href="#mfa86727975" x="284.016828" y="229.486745" style="fill: #0000ff; stroke: #0000ff"/>
     <use xlink:href="#mfa86727975" x="264.701386" y="147.31562" style="fill: #0000ff; stroke: #0000ff"/>
     <use xlink:href="#mfa86727975" x="282.351086" y="116.400073" style="fill: #0000ff; stroke: #0000ff"/>
     <use xlink:href="#mfa86727975" x="348.052431" y="207.864505" style="fill: #0000ff; stroke: #0000ff"/>
     <use xlink:href="#mfa86727975" x="305.079784" y="145.753304" style="fill: #0000ff; stroke: #0000ff"/>
     <use xlink:href="#mfa86727975" x="300.098725" y="79.292804" style="fill: #0000ff; stroke: #0000ff"/>
     <use xlink:href="#mfa86727975" x="176.50682" y="232.531392" style="fill: #0000ff; stroke: #0000ff"/>
    </g>
   </g>
   <g id="line2d_15">
    <defs>
     <path id="mcf1567402b" d="M 0 3 
C 0.795609 3 1.55874 2.683901 2.12132 2.12132 
C 2.683901 1.55874 3 0.795609 3 0 
C 3 -0.795609 2.683901 -1.55874 2.12132 -2.12132 
C 1.55874 -2.683901 0.795609 -3 0 -3 
C -0.795609 -3 -1.55874 -2.683901 -2.12132 -2.12132 
C -2.683901 -1.55874 -3 -0.795609 -3 0 
C -3 0.795609 -2.683901 1.55874 -2.12132 2.12132 
C -1.55874 2.683901 -0.795609 3 0 3 
z
" style="stroke: #ff0000"/>
    </defs>
    <g clip-path="url(#p553f9cd606)">
     <use xlink:href="#mcf1567402b" x="125.361023" y="215.400076" style="fill: #ff0000; stroke: #ff0000"/>
     <use xlink:href="#mcf1567402b" x="196.470444" y="141.75894" style="fill: #ff0000; stroke: #ff0000"/>
     <use xlink:href="#mcf1567402b" x="275.780414" y="264.804811" style="fill: #ff0000; stroke: #ff0000"/>
     <use xlink:href="#mcf1567402b" x="135.952603" y="111.468646" style="fill: #ff0000; stroke: #ff0000"/>
     <use xlink:href="#mcf1567402b" x="171.276688" y="274.20199" style="fill: #ff0000; stroke: #ff0000"/>
     <use xlink:href="#mcf1567402b" x="176.075955" y="71.259779" style="fill: #ff0000; stroke: #ff0000"/>
     <use xlink:href="#mcf1567402b" x="123.958448" y="138.438544" style="fill: #ff0000; stroke: #ff0000"/>
     <use xlink:href="#mcf1567402b" x="235.633849" y="253.459634" style="fill: #ff0000; stroke: #ff0000"/>
     <use xlink:href="#mcf1567402b" x="314.231158" y="212.376699" style="fill: #ff0000; stroke: #ff0000"/>
     <use xlink:href="#mcf1567402b" x="138.570951" y="238.331343" style="fill: #ff0000; stroke: #ff0000"/>
     <use xlink:href="#mcf1567402b" x="154.541498" y="88.491293" style="fill: #ff0000; stroke: #ff0000"/>
     <use xlink:href="#mcf1567402b" x="185.612285" y="158.840906" style="fill: #ff0000; stroke: #ff0000"/>
     <use xlink:href="#mcf1567402b" x="153.090958" y="257.663072" style="fill: #ff0000; stroke: #ff0000"/>
     <use xlink:href="#mcf1567402b" x="227.610866" y="233.235599" style="fill: #ff0000; stroke: #ff0000"/>
     <use xlink:href="#mcf1567402b" x="147.278567" y="187.29624" style="fill: #ff0000; stroke: #ff0000"/>
     <use xlink:href="#mcf1567402b" x="299.273383" y="280.795104" style="fill: #ff0000; stroke: #ff0000"/>
     <use xlink:href="#mcf1567402b" x="148.500414" y="134.33249" style="fill: #ff0000; stroke: #ff0000"/>
     <use xlink:href="#mcf1567402b" x="341.06308" y="241.362068" style="fill: #ff0000; stroke: #ff0000"/>
     <use xlink:href="#mcf1567402b" x="183.516845" y="93.841572" style="fill: #ff0000; stroke: #ff0000"/>
     <use xlink:href="#mcf1567402b" x="209.106679" y="246.238909" style="fill: #ff0000; stroke: #ff0000"/>
     <use xlink:href="#mcf1567402b" x="273.794222" y="290.20359" style="fill: #ff0000; stroke: #ff0000"/>
     <use xlink:href="#mcf1567402b" x="179.691203" y="183.809392" style="fill: #ff0000; stroke: #ff0000"/>
     <use xlink:href="#mcf1567402b" x="317.531912" y="234.555" style="fill: #ff0000; stroke: #ff0000"/>
     <use xlink:href="#mcf1567402b" x="218.980518" y="270.064873" style="fill: #ff0000; stroke: #ff0000"/>
     <use xlink:href="#mcf1567402b" x="204.614613" y="223.02008" style="fill: #ff0000; stroke: #ff0000"/>
     <use xlink:href="#mcf1567402b" x="221.914615" y="293.805998" style="fill: #ff0000; stroke: #ff0000"/>
     <use xlink:href="#mcf1567402b" x="323.758847" y="262.575432" style="fill: #ff0000; stroke: #ff0000"/>
     <use xlink:href="#mcf1567402b" x="168.484414" y="145.003013" style="fill: #ff0000; stroke: #ff0000"/>
     <use xlink:href="#mcf1567402b" x="163.708588" y="169.248897" style="fill: #ff0000; stroke: #ff0000"/>
     <use xlink:href="#mcf1567402b" x="293.912133" y="201.966175" style="fill: #ff0000; stroke: #ff0000"/>
     <use xlink:href="#mcf1567402b" x="228.047791" y="90.803681" style="fill: #ff0000; stroke: #ff0000"/>
     <use xlink:href="#mcf1567402b" x="193.781317" y="203.592777" style="fill: #ff0000; stroke: #ff0000"/>
     <use xlink:href="#mcf1567402b" x="192.248747" y="261.950584" style="fill: #ff0000; stroke: #ff0000"/>
     <use xlink:href="#mcf1567402b" x="195.853661" y="287.521823" style="fill: #ff0000; stroke: #ff0000"/>
     <use xlink:href="#mcf1567402b" x="248.854727" y="229.293544" style="fill: #ff0000; stroke: #ff0000"/>
     <use xlink:href="#mcf1567402b" x="142.536715" y="160.604745" style="fill: #ff0000; stroke: #ff0000"/>
     <use xlink:href="#mcf1567402b" x="162.714558" y="111.134822" style="fill: #ff0000; stroke: #ff0000"/>
     <use xlink:href="#mcf1567402b" x="271.398324" y="55.668773" style="fill: #ff0000; stroke: #ff0000"/>
     <use xlink:href="#mcf1567402b" x="241.633325" y="53.568" style="fill: #ff0000; stroke: #ff0000"/>
     <use xlink:href="#mcf1567402b" x="313.163485" y="112.353415" style="fill: #ff0000; stroke: #ff0000"/>
     <use xlink:href="#mcf1567402b" x="300.359437" y="255.959295" style="fill: #ff0000; stroke: #ff0000"/>
     <use xlink:href="#mcf1567402b" x="179.901851" y="125.110216" style="fill: #ff0000; stroke: #ff0000"/>
     <use xlink:href="#mcf1567402b" x="119.070902" y="165.915294" style="fill: #ff0000; stroke: #ff0000"/>
     <use xlink:href="#mcf1567402b" x="259.289399" y="248.142887" style="fill: #ff0000; stroke: #ff0000"/>
     <use xlink:href="#mcf1567402b" x="169.574299" y="201.220792" style="fill: #ff0000; stroke: #ff0000"/>
     <use xlink:href="#mcf1567402b" x="247.559907" y="295.488" style="fill: #ff0000; stroke: #ff0000"/>
     <use xlink:href="#mcf1567402b" x="149.246264" y="212.969538" style="fill: #ff0000; stroke: #ff0000"/>
     <use xlink:href="#mcf1567402b" x="249.523668" y="272.240922" style="fill: #ff0000; stroke: #ff0000"/>
     <use xlink:href="#mcf1567402b" x="332.074682" y="94.533024" style="fill: #ff0000; stroke: #ff0000"/>
     <use xlink:href="#mcf1567402b" x="122.038784" y="190.495698" style="fill: #ff0000; stroke: #ff0000"/>
    </g>
   </g>
   <g id="line2d_16"/>
   <g id="patch_3">
    <path d="M 57.6 307.584 
L 57.6 41.472 
" style="fill: none; stroke: #000000; stroke-width: 0.8; stroke-linejoin: miter; stroke-linecap: square"/>
   </g>
   <g id="patch_4">
    <path d="M 414.72 307.584 
L 414.72 41.472 
" style="fill: none; stroke: #000000; stroke-width: 0.8; stroke-linejoin: miter; stroke-linecap: square"/>
   </g>
   <g id="patch_5">
    <path d="M 57.6 307.584 
L 414.72 307.584 
" style="fill: none; stroke: #000000; stroke-width: 0.8; stroke-linejoin: miter; stroke-linecap: square"/>
   </g>
   <g id="patch_6">
    <path d="M 57.6 41.472 
L 414.72 41.472 
" style="fill: none; stroke: #000000; stroke-width: 0.8; stroke-linejoin: miter; stroke-linecap: square"/>
   </g>
   <g id="text_16">
    <!-- Velocities at the final time -->
    <g transform="translate(116.81 35.472) scale(0.16 -0.16)">
     <defs>
      <path id="DejaVuSans-Bold-56" d="M 31 4666 
L 1241 4666 
L 2478 1222 
L 3713 4666 
L 4922 4666 
L 3194 0 
L 1759 0 
L 31 4666 
z
" transform="scale(0.015625)"/>
      <path id="DejaVuSans-Bold-65" d="M 4031 1759 
L 4031 1441 
L 1416 1441 
Q 1456 1047 1700 850 
Q 1944 653 2381 653 
Q 2734 653 3104 758 
Q 3475 863 3866 1075 
L 3866 213 
Q 3469 63 3072 -14 
Q 2675 -91 2278 -91 
Q 1328 -91 801 392 
Q 275 875 275 1747 
Q 275 2603 792 3093 
Q 1309 3584 2216 3584 
Q 3041 3584 3536 3087 
Q 4031 2591 4031 1759 
z
M 2881 2131 
Q 2881 2450 2695 2645 
Q 2509 2841 2209 2841 
Q 1884 2841 1681 2658 
Q 1478 2475 1428 2131 
L 2881 2131 
z
" transform="scale(0.015625)"/>
      <path id="DejaVuSans-Bold-6c" d="M 538 4863 
L 1656 4863 
L 1656 0 
L 538 0 
L 538 4863 
z
" transform="scale(0.015625)"/>
      <path id="DejaVuSans-Bold-6f" d="M 2203 2784 
Q 1831 2784 1636 2517 
Q 1441 2250 1441 1747 
Q 1441 1244 1636 976 
Q 1831 709 2203 709 
Q 2569 709 2762 976 
Q 2956 1244 2956 1747 
Q 2956 2250 2762 2517 
Q 2569 2784 2203 2784 
z
M 2203 3584 
Q 3106 3584 3614 3096 
Q 4122 2609 4122 1747 
Q 4122 884 3614 396 
Q 3106 -91 2203 -91 
Q 1297 -91 786 396 
Q 275 884 275 1747 
Q 275 2609 786 3096 
Q 1297 3584 2203 3584 
z
" transform="scale(0.015625)"/>
      <path id="DejaVuSans-Bold-63" d="M 3366 3391 
L 3366 2478 
Q 3138 2634 2908 2709 
Q 2678 2784 2431 2784 
Q 1963 2784 1702 2511 
Q 1441 2238 1441 1747 
Q 1441 1256 1702 982 
Q 1963 709 2431 709 
Q 2694 709 2930 787 
Q 3166 866 3366 1019 
L 3366 103 
Q 3103 6 2833 -42 
Q 2563 -91 2291 -91 
Q 1344 -91 809 395 
Q 275 881 275 1747 
Q 275 2613 809 3098 
Q 1344 3584 2291 3584 
Q 2566 3584 2833 3536 
Q 3100 3488 3366 3391 
z
" transform="scale(0.015625)"/>
      <path id="DejaVuSans-Bold-69" d="M 538 3500 
L 1656 3500 
L 1656 0 
L 538 0 
L 538 3500 
z
M 538 4863 
L 1656 4863 
L 1656 3950 
L 538 3950 
L 538 4863 
z
" transform="scale(0.015625)"/>
      <path id="DejaVuSans-Bold-74" d="M 1759 4494 
L 1759 3500 
L 2913 3500 
L 2913 2700 
L 1759 2700 
L 1759 1216 
Q 1759 972 1856 886 
Q 1953 800 2241 800 
L 2816 800 
L 2816 0 
L 1856 0 
Q 1194 0 917 276 
Q 641 553 641 1216 
L 641 2700 
L 84 2700 
L 84 3500 
L 641 3500 
L 641 4494 
L 1759 4494 
z
" transform="scale(0.015625)"/>
      <path id="DejaVuSans-Bold-73" d="M 3272 3391 
L 3272 2541 
Q 2913 2691 2578 2766 
Q 2244 2841 1947 2841 
Q 1628 2841 1473 2761 
Q 1319 2681 1319 2516 
Q 1319 2381 1436 2309 
Q 1553 2238 1856 2203 
L 2053 2175 
Q 2913 2066 3209 1816 
Q 3506 1566 3506 1031 
Q 3506 472 3093 190 
Q 2681 -91 1863 -91 
Q 1516 -91 1145 -36 
Q 775 19 384 128 
L 384 978 
Q 719 816 1070 734 
Q 1422 653 1784 653 
Q 2113 653 2278 743 
Q 2444 834 2444 1013 
Q 2444 1163 2330 1236 
Q 2216 1309 1875 1350 
L 1678 1375 
Q 931 1469 631 1722 
Q 331 1975 331 2491 
Q 331 3047 712 3315 
Q 1094 3584 1881 3584 
Q 2191 3584 2531 3537 
Q 2872 3491 3272 3391 
z
" transform="scale(0.015625)"/>
      <path id="DejaVuSans-Bold-20" transform="scale(0.015625)"/>
      <path id="DejaVuSans-Bold-61" d="M 2106 1575 
Q 1756 1575 1579 1456 
Q 1403 1338 1403 1106 
Q 1403 894 1545 773 
Q 1688 653 1941 653 
Q 2256 653 2472 879 
Q 2688 1106 2688 1447 
L 2688 1575 
L 2106 1575 
z
M 3816 1997 
L 3816 0 
L 2688 0 
L 2688 519 
Q 2463 200 2181 54 
Q 1900 -91 1497 -91 
Q 953 -91 614 226 
Q 275 544 275 1050 
Q 275 1666 698 1953 
Q 1122 2241 2028 2241 
L 2688 2241 
L 2688 2328 
Q 2688 2594 2478 2717 
Q 2269 2841 1825 2841 
Q 1466 2841 1156 2769 
Q 847 2697 581 2553 
L 581 3406 
Q 941 3494 1303 3539 
Q 1666 3584 2028 3584 
Q 2975 3584 3395 3211 
Q 3816 2838 3816 1997 
z
" transform="scale(0.015625)"/>
      <path id="DejaVuSans-Bold-68" d="M 4056 2131 
L 4056 0 
L 2931 0 
L 2931 347 
L 2931 1625 
Q 2931 2084 2911 2256 
Q 2891 2428 2841 2509 
Q 2775 2619 2662 2680 
Q 2550 2741 2406 2741 
Q 2056 2741 1856 2470 
Q 1656 2200 1656 1722 
L 1656 0 
L 538 0 
L 538 4863 
L 1656 4863 
L 1656 2988 
Q 1909 3294 2193 3439 
Q 2478 3584 2822 3584 
Q 3428 3584 3742 3212 
Q 4056 2841 4056 2131 
z
" transform="scale(0.015625)"/>
      <path id="DejaVuSans-Bold-66" d="M 2841 4863 
L 2841 4128 
L 2222 4128 
Q 1984 4128 1890 4042 
Q 1797 3956 1797 3744 
L 1797 3500 
L 2753 3500 
L 2753 2700 
L 1797 2700 
L 1797 0 
L 678 0 
L 678 2700 
L 122 2700 
L 122 3500 
L 678 3500 
L 678 3744 
Q 678 4316 997 4589 
Q 1316 4863 1984 4863 
L 2841 4863 
z
" transform="scale(0.015625)"/>
      <path id="DejaVuSans-Bold-6e" d="M 4056 2131 
L 4056 0 
L 2931 0 
L 2931 347 
L 2931 1631 
Q 2931 2084 2911 2256 
Q 2891 2428 2841 2509 
Q 2775 2619 2662 2680 
Q 2550 2741 2406 2741 
Q 2056 2741 1856 2470 
Q 1656 2200 1656 1722 
L 1656 0 
L 538 0 
L 538 3500 
L 1656 3500 
L 1656 2988 
Q 1909 3294 2193 3439 
Q 2478 3584 2822 3584 
Q 3428 3584 3742 3212 
Q 4056 2841 4056 2131 
z
" transform="scale(0.015625)"/>
      <path id="DejaVuSans-Bold-6d" d="M 3781 2919 
Q 3994 3244 4286 3414 
Q 4578 3584 4928 3584 
Q 5531 3584 5847 3212 
Q 6163 2841 6163 2131 
L 6163 0 
L 5038 0 
L 5038 1825 
Q 5041 1866 5042 1909 
Q 5044 1953 5044 2034 
Q 5044 2406 4934 2573 
Q 4825 2741 4581 2741 
Q 4263 2741 4089 2478 
Q 3916 2216 3909 1719 
L 3909 0 
L 2784 0 
L 2784 1825 
Q 2784 2406 2684 2573 
Q 2584 2741 2328 2741 
Q 2006 2741 1831 2477 
Q 1656 2213 1656 1722 
L 1656 0 
L 531 0 
L 531 3500 
L 1656 3500 
L 1656 2988 
Q 1863 3284 2130 3434 
Q 2397 3584 2719 3584 
Q 3081 3584 3359 3409 
Q 3638 3234 3781 2919 
z
" transform="scale(0.015625)"/>
     </defs>
     <use xlink:href="#DejaVuSans-Bold-56"/>
     <use xlink:href="#DejaVuSans-Bold-65" transform="translate(71.892578 0)"/>
     <use xlink:href="#DejaVuSans-Bold-6c" transform="translate(139.714844 0)"/>
     <use xlink:href="#DejaVuSans-Bold-6f" transform="translate(173.992188 0)"/>
     <use xlink:href="#DejaVuSans-Bold-63" transform="translate(242.693359 0)"/>
     <use xlink:href="#DejaVuSans-Bold-69" transform="translate(301.970703 0)"/>
     <use xlink:href="#DejaVuSans-Bold-74" transform="translate(336.248047 0)"/>
     <use xlink:href="#DejaVuSans-Bold-69" transform="translate(384.050781 0)"/>
     <use xlink:href="#DejaVuSans-Bold-65" transform="translate(418.328125 0)"/>
     <use xlink:href="#DejaVuSans-Bold-73" transform="translate(486.150391 0)"/>
     <use xlink:href="#DejaVuSans-Bold-20" transform="translate(545.671875 0)"/>
     <use xlink:href="#DejaVuSans-Bold-61" transform="translate(580.486328 0)"/>
     <use xlink:href="#DejaVuSans-Bold-74" transform="translate(647.966797 0)"/>
     <use xlink:href="#DejaVuSans-Bold-20" transform="translate(695.769531 0)"/>
     <use xlink:href="#DejaVuSans-Bold-74" transform="translate(730.583984 0)"/>
     <use xlink:href="#DejaVuSans-Bold-68" transform="translate(778.386719 0)"/>
     <use xlink:href="#DejaVuSans-Bold-65" transform="translate(849.578125 0)"/>
     <use xlink:href="#DejaVuSans-Bold-20" transform="translate(917.400391 0)"/>
     <use xlink:href="#DejaVuSans-Bold-66" transform="translate(952.214844 0)"/>
     <use xlink:href="#DejaVuSans-Bold-69" transform="translate(995.720703 0)"/>
     <use xlink:href="#DejaVuSans-Bold-6e" transform="translate(1029.998047 0)"/>
     <use xlink:href="#DejaVuSans-Bold-61" transform="translate(1101.189453 0)"/>
     <use xlink:href="#DejaVuSans-Bold-6c" transform="translate(1168.669922 0)"/>
     <use xlink:href="#DejaVuSans-Bold-20" transform="translate(1202.947266 0)"/>
     <use xlink:href="#DejaVuSans-Bold-74" transform="translate(1237.761719 0)"/>
     <use xlink:href="#DejaVuSans-Bold-69" transform="translate(1285.564453 0)"/>
     <use xlink:href="#DejaVuSans-Bold-6d" transform="translate(1319.841797 0)"/>
     <use xlink:href="#DejaVuSans-Bold-65" transform="translate(1424.041016 0)"/>
    </g>
   </g>
  </g>
 </g>
 <defs>
  <clipPath id="p553f9cd606">
   <rect x="57.6" y="41.472" width="357.12" height="266.112"/>
  </clipPath>
 </defs>
</svg>
