<?xml version="1.0" encoding="utf-8" standalone="no"?>
<!DOCTYPE svg PUBLIC "-//W3C//DTD SVG 1.1//EN"
  "http://www.w3.org/Graphics/SVG/1.1/DTD/svg11.dtd">
<svg xmlns:xlink="http://www.w3.org/1999/xlink" width="460.8pt" height="345.6pt" viewBox="0 0 460.8 345.6" xmlns="http://www.w3.org/2000/svg" version="1.1">
 <metadata>
  <rdf:RDF xmlns:dc="http://purl.org/dc/elements/1.1/" xmlns:cc="http://creativecommons.org/ns#" xmlns:rdf="http://www.w3.org/1999/02/22-rdf-syntax-ns#">
   <cc:Work>
    <dc:type rdf:resource="http://purl.org/dc/dcmitype/StillImage"/>
    <dc:date>2025-04-08T17:57:26.954446</dc:date>
    <dc:format>image/svg+xml</dc:format>
    <dc:creator>
     <cc:Agent>
      <dc:title>Matplotlib v3.10.1, https://matplotlib.org/</dc:title>
     </cc:Agent>
    </dc:creator>
   </cc:Work>
  </rdf:RDF>
 </metadata>
 <defs>
  <style type="text/css">*{stroke-linejoin: round; stroke-linecap: butt}</style>
 </defs>
 <g id="figure_1">
  <g id="patch_1">
   <path d="M 0 345.6 
L 460.8 345.6 
L 460.8 0 
L 0 0 
z
" style="fill: #ffffff"/>
  </g>
  <g id="axes_1">
   <g id="patch_2">
    <path d="M 57.6 307.584 
L 414.72 307.584 
L 414.72 41.472 
L 57.6 41.472 
z
" style="fill: #ffffff"/>
   </g>
   <g id="Quiver_1">
    <path d="M 331.077072 209.062661 
L 330.381314 215.22861 
L 333.069785 214.243327 
L 327.81664 226.537034 
L 325.435115 213.381841 
L 327.836424 214.941448 
L 328.532182 208.775499 
L 331.077072 209.062661 
" clip-path="url(#p93ff06baa4)"/>
    <path d="M 255.806962 85.336301 
L 262.785578 88.549011 
L 262.693373 85.687166 
L 272.718704 94.531571 
L 259.480452 92.66624 
L 261.714605 90.875369 
L 254.735989 87.66266 
L 255.806962 85.336301 
" clip-path="url(#p93ff06baa4)"/>
    <path d="M 154.230881 266.617629 
L 150.111713 261.532253 
L 148.927612 264.139275 
L 143.852859 251.770862 
L 154.89788 259.303342 
L 152.101802 259.920275 
L 156.22097 265.005651 
L 154.230881 266.617629 
" clip-path="url(#p93ff06baa4)"/>
    <path d="M 250.961488 153.772709 
L 252.28261 156.833104 
L 254.126409 154.642427 
L 255.674554 167.921509 
L 247.07248 157.687493 
L 249.931301 157.848126 
L 248.610178 154.787731 
L 250.961488 153.772709 
" clip-path="url(#p93ff06baa4)"/>
    <path d="M 150.122521 129.818119 
L 153.181671 122.559116 
L 150.324352 122.744547 
L 158.837308 112.436282 
L 157.404435 125.728296 
L 155.541699 123.553699 
L 152.482549 130.812702 
L 150.122521 129.818119 
" clip-path="url(#p93ff06baa4)"/>
    <path d="M 351.064321 170.521056 
L 351.205844 177.625357 
L 353.740873 176.294082 
L 350.155115 189.173256 
L 346.059276 176.447107 
L 348.645312 177.676365 
L 348.503788 170.572064 
L 351.064321 170.521056 
" clip-path="url(#p93ff06baa4)"/>
    <path d="M 174.388154 153.389796 
L 177.323252 144.567658 
L 174.488932 144.974218 
L 182.176452 134.036539 
L 181.779171 147.399658 
L 179.753332 145.376138 
L 176.818233 154.198276 
L 174.388154 153.389796 
" clip-path="url(#p93ff06baa4)"/>
    <path d="M 98.801816 193.006937 
L 99.427211 184.743292 
L 96.77684 185.826893 
L 101.573785 173.348108 
L 104.438052 186.406696 
L 101.980949 184.93656 
L 101.355553 193.200204 
L 98.801816 193.006937 
" clip-path="url(#p93ff06baa4)"/>
    <path d="M 140.3737 176.248208 
L 144.230952 165.955777 
L 141.383416 166.256108 
L 149.474402 155.613425 
L 148.5779 168.952355 
L 146.629113 166.854526 
L 142.771861 177.146957 
L 140.3737 176.248208 
" clip-path="url(#p93ff06baa4)"/>
    <path d="M 235.967106 116.167331 
L 242.758153 119.42765 
L 242.712187 116.564689 
L 252.593346 125.56988 
L 239.386952 123.490954 
L 241.649741 121.736405 
L 234.858694 118.476086 
L 235.967106 116.167331 
" clip-path="url(#p93ff06baa4)"/>
    <path d="M 143.751673 222.123389 
L 139.993483 211.636648 
L 138.01459 213.706102 
L 137.310905 200.355612 
L 145.247279 211.114085 
L 142.40438 210.772642 
L 146.162569 221.259383 
L 143.751673 222.123389 
" clip-path="url(#p93ff06baa4)"/>
    <path d="M 273.676156 135.581384 
L 275.175149 138.624339 
L 276.906697 136.343901 
L 279.119233 149.528568 
L 270.014455 139.739095 
L 272.877735 139.756071 
L 271.378742 136.713115 
L 273.676156 135.581384 
" clip-path="url(#p93ff06baa4)"/>
    <path d="M 86.587117 130.959431 
L 90.057775 120.771463 
L 87.220619 121.157734 
L 94.986196 110.275336 
L 94.493319 123.63527 
L 92.482008 121.597308 
L 89.01135 131.785276 
L 86.587117 130.959431 
" clip-path="url(#p93ff06baa4)"/>
    <path d="M 165.515277 103.252041 
L 173.320933 95.399477 
L 170.601839 94.502154 
L 182.353836 88.128668 
L 176.050877 99.918641 
L 175.137279 97.204973 
L 167.331623 105.057536 
L 165.515277 103.252041 
" clip-path="url(#p93ff06baa4)"/>
    <path d="M 239.962536 225.473499 
L 236.814003 227.508023 
L 239.279477 228.964077 
L 226.439374 232.687316 
L 235.109604 222.510977 
L 235.424045 225.356989 
L 238.572578 223.322465 
L 239.962536 225.473499 
" clip-path="url(#p93ff06baa4)"/>
    <path d="M 168.592704 230.483423 
L 165.043859 223.633829 
L 163.358984 225.948965 
L 160.87912 212.811955 
L 170.180847 222.414488 
L 167.317813 222.45567 
L 170.866658 229.305264 
L 168.592704 230.483423 
" clip-path="url(#p93ff06baa4)"/>
    <path d="M 278.562757 264.755872 
L 274.169427 272.595558 
L 277.029576 272.730492 
L 267.418324 282.02321 
L 270.327139 268.974472 
L 271.935281 271.343552 
L 276.328611 263.503865 
L 278.562757 264.755872 
" clip-path="url(#p93ff06baa4)"/>
    <path d="M 287.344376 209.189906 
L 285.852228 217.457837 
L 288.59998 216.652529 
L 282.545226 228.571871 
L 281.039006 215.287968 
L 283.331904 217.002984 
L 284.824052 208.735052 
L 287.344376 209.189906 
" clip-path="url(#p93ff06baa4)"/>
    <path d="M 198.633972 242.674942 
L 194.854515 240.146693 
L 194.494886 242.987348 
L 185.987469 232.67451 
L 198.766783 236.601329 
L 196.278481 238.01802 
L 200.057937 240.546269 
L 198.633972 242.674942 
" clip-path="url(#p93ff06baa4)"/>
    <path d="M 119.187555 143.139931 
L 123.893863 133.025854 
L 121.031665 133.106374 
L 129.91693 123.117238 
L 127.997564 136.347763 
L 126.215829 134.106317 
L 121.509521 144.220394 
L 119.187555 143.139931 
" clip-path="url(#p93ff06baa4)"/>
    <path d="M 284.4763 64.245392 
L 292.622407 68.369786 
L 292.636808 65.506492 
L 302.325925 74.717994 
L 289.166294 72.361117 
L 291.465569 70.654661 
L 283.319462 66.530267 
L 284.4763 64.245392 
" clip-path="url(#p93ff06baa4)"/>
    <path d="M 363.529356 130.802236 
L 363.322784 138.274039 
L 365.918235 137.064786 
L 361.724253 149.758929 
L 358.238049 136.852452 
L 360.762722 138.203261 
L 360.969294 130.731458 
L 363.529356 130.802236 
" clip-path="url(#p93ff06baa4)"/>
    <path d="M 142.153184 78.427768 
L 146.212477 68.295173 
L 143.358911 68.531442 
L 151.687008 58.07326 
L 150.49099 71.388676 
L 148.589836 69.247585 
L 144.530543 79.38018 
L 142.153184 78.427768 
" clip-path="url(#p93ff06baa4)"/>
    <path d="M 326.268779 111.362202 
L 326.368056 117.398612 
L 328.907693 116.076151 
L 325.277222 128.942792 
L 321.225611 116.202493 
L 323.807362 117.440726 
L 323.708085 111.404316 
L 326.268779 111.362202 
" clip-path="url(#p93ff06baa4)"/>
    <path d="M 171.973734 289.306118 
L 168.129805 285.623275 
L 167.28267 288.35842 
L 160.694007 276.725696 
L 172.597969 282.810633 
L 169.901571 283.774012 
L 173.7455 287.456855 
L 171.973734 289.306118 
" clip-path="url(#p93ff06baa4)"/>
    <path d="M 332.431076 242.844607 
L 330.346487 254.585051 
L 333.09195 253.771976 
L 327.07092 265.70839 
L 325.527149 252.428799 
L 327.824886 254.137325 
L 329.909475 242.396881 
L 332.431076 242.844607 
" clip-path="url(#p93ff06baa4)"/>
    <path d="M 318.005204 172.558636 
L 319.286894 181.559187 
L 321.64183 179.930403 
L 319.643903 193.149293 
L 314.035444 181.013563 
L 316.751432 181.92024 
L 315.469742 172.91969 
L 318.005204 172.558636 
" clip-path="url(#p93ff06baa4)"/>
    <path d="M 284.889766 108.255628 
L 288.028526 112.15988 
L 289.2222 109.557228 
L 294.25146 121.944209 
L 283.234198 114.371184 
L 286.032525 113.764532 
L 282.893765 109.86028 
L 284.889766 108.255628 
" clip-path="url(#p93ff06baa4)"/>
    <path d="M 343.404956 258.2087 
L 340.353048 266.444662 
L 343.199455 266.133813 
L 335.147838 276.806312 
L 335.995061 263.464161 
L 337.951584 265.554778 
L 341.003491 257.318817 
L 343.404956 258.2087 
" clip-path="url(#p93ff06baa4)"/>
    <path d="M 382.196014 178.281619 
L 381.700563 186.594465 
L 384.333251 185.468583 
L 379.736649 198.022547 
L 376.66374 185.011474 
L 379.144059 186.442096 
L 379.639511 178.129249 
L 382.196014 178.281619 
" clip-path="url(#p93ff06baa4)"/>
    <path d="M 353.477505 145.58349 
L 353.456459 152.620002 
L 356.021317 151.347147 
L 352.141474 164.140801 
L 348.338231 151.324167 
L 350.89543 152.612342 
L 350.916476 145.575831 
L 353.477505 145.58349 
" clip-path="url(#p93ff06baa4)"/>
    <path d="M 299.829816 154.927226 
L 302.267227 161.604868 
L 304.233943 159.523838 
L 305.015953 172.869969 
L 297.016588 162.15825 
L 299.861442 162.483005 
L 297.424031 155.805363 
L 299.829816 154.927226 
" clip-path="url(#p93ff06baa4)"/>
    <path d="M 249.683985 197.942324 
L 246.642688 202.150247 
L 249.468441 202.61261 
L 238.853998 210.740609 
L 243.241469 198.112036 
L 244.567031 200.650056 
L 247.608327 196.442133 
L 249.683985 197.942324 
" clip-path="url(#p93ff06baa4)"/>
    <path d="M 275.976219 229.369646 
L 272.779143 235.492148 
L 275.64203 235.542511 
L 266.309557 245.115165 
L 268.831536 231.986175 
L 270.508978 234.306703 
L 273.706055 228.184201 
L 275.976219 229.369646 
" clip-path="url(#p93ff06baa4)"/>
    <path d="M 321.207392 152.505652 
L 321.838545 160.485303 
L 324.290644 159.006834 
L 321.470724 172.075071 
L 316.631444 159.612641 
L 319.285479 160.687239 
L 318.654325 152.707588 
L 321.207392 152.505652 
" clip-path="url(#p93ff06baa4)"/>
    <path d="M 190.107656 191.828119 
L 195.72236 178.088027 
L 192.867234 178.304626 
L 201.267201 167.904081 
L 199.979455 181.21094 
L 198.093101 179.056798 
L 192.478397 192.79689 
L 190.107656 191.828119 
" clip-path="url(#p93ff06baa4)"/>
    <path d="M 302.402385 296.472608 
L 294.86819 302.737329 
L 297.49021 303.887838 
L 285.188016 309.121077 
L 292.577973 297.980193 
L 293.230778 300.768114 
L 300.764973 294.503392 
L 302.402385 296.472608 
" clip-path="url(#p93ff06baa4)"/>
    <path d="M 298.559388 119.198361 
L 300.029438 121.860747 
L 301.652458 119.501835 
L 304.479094 132.568621 
L 294.926516 123.215599 
L 297.787458 123.098668 
L 296.317407 120.436282 
L 298.559388 119.198361 
" clip-path="url(#p93ff06baa4)"/>
    <path d="M 254.338788 244.232727 
L 251.561577 244.759139 
L 253.29664 247.036904 
L 240.000036 245.647272 
L 251.865806 239.488192 
L 251.084632 242.242901 
L 253.861843 241.71649 
L 254.338788 244.232727 
" clip-path="url(#p93ff06baa4)"/>
    <path d="M 331.671958 127.994884 
L 332.914774 133.465604 
L 335.128505 131.64955 
L 334.219149 144.987609 
L 327.636285 133.351602 
L 330.417367 134.032955 
L 329.174551 128.562235 
L 331.671958 127.994884 
" clip-path="url(#p93ff06baa4)"/>
    <path d="M 251.407874 52.324182 
L 256.410622 53.548443 
L 255.775573 50.756424 
L 267.300596 57.531718 
L 253.949268 58.219329 
L 255.801854 56.036078 
L 250.799105 54.811818 
L 251.407874 52.324182 
" clip-path="url(#p93ff06baa4)"/>
    <path d="M 188.142229 72.869459 
L 199.19575 64.641069 
L 196.639317 63.351376 
L 209.20486 58.786522 
L 201.227125 69.514359 
L 200.725019 66.695397 
L 189.671498 74.923787 
L 188.142229 72.869459 
" clip-path="url(#p93ff06baa4)"/>
    <path d="M 345.854369 276.184887 
L 341.729738 283.624315 
L 344.590472 283.746225 
L 335.02163 293.082607 
L 337.871003 280.020761 
L 339.489915 282.382494 
L 343.614546 274.943065 
L 345.854369 276.184887 
" clip-path="url(#p93ff06baa4)"/>
    <path d="M 311.73524 226.247886 
L 308.144103 235.165636 
L 310.998086 234.934474 
L 302.651288 245.377736 
L 303.871131 232.064482 
L 305.768451 234.208972 
L 309.359589 225.291222 
L 311.73524 226.247886 
" clip-path="url(#p93ff06baa4)"/>
    <path d="M 120.698855 88.205613 
L 128.015508 77.415986 
L 125.177178 77.038437 
L 135.543501 68.596273 
L 131.53611 81.350551 
L 130.135152 78.853357 
L 122.818499 89.642984 
L 120.698855 88.205613 
" clip-path="url(#p93ff06baa4)"/>
    <path d="M 298.051768 178.250823 
L 297.803528 185.690272 
L 300.405848 184.495874 
L 296.139376 197.165838 
L 292.727001 184.239645 
L 295.243912 185.604862 
L 295.492153 178.165413 
L 298.051768 178.250823 
" clip-path="url(#p93ff06baa4)"/>
    <path d="M 213.250108 274.828855 
L 209.191237 272.199242 
L 208.873412 275.044878 
L 200.215288 264.858237 
L 213.050956 268.596741 
L 210.583751 270.049863 
L 214.642622 272.679476 
L 213.250108 274.828855 
" clip-path="url(#p93ff06baa4)"/>
    <path d="M 312.991944 126.371184 
L 316.314658 132.700134 
L 317.986964 130.375903 
L 320.537972 143.499284 
L 311.184352 133.947291 
L 314.047121 133.890597 
L 310.724407 127.561647 
L 312.991944 126.371184 
" clip-path="url(#p93ff06baa4)"/>
    <path d="M 385.782671 215.084575 
L 384.097301 224.860592 
L 386.838661 224.033788 
L 380.877442 236.000184 
L 379.267233 222.728485 
L 381.573492 224.425491 
L 383.258862 214.649474 
L 385.782671 215.084575 
" clip-path="url(#p93ff06baa4)"/>
    <path d="M 272.823299 194.324375 
L 272.265423 196.876661 
L 275.040831 196.172555 
L 268.553485 207.862084 
L 267.534923 194.531919 
L 269.763453 196.329783 
L 270.32133 193.777497 
L 272.823299 194.324375 
" clip-path="url(#p93ff06baa4)"/>
    <path d="M 181.156719 176.897698 
L 181.224092 174.054657 
L 178.633434 175.274144 
L 182.777283 162.563547 
L 186.314398 175.456164 
L 183.784414 174.11533 
L 183.717041 176.958372 
L 181.156719 176.897698 
" clip-path="url(#p93ff06baa4)"/>
    <path d="M 306.611461 68.995158 
L 312.903114 74.923207 
L 313.727386 72.181085 
L 320.412932 83.758401 
L 308.458587 77.773052 
L 311.146848 76.787196 
L 304.855195 70.859147 
L 306.611461 68.995158 
" clip-path="url(#p93ff06baa4)"/>
    <path d="M 188.422354 83.674558 
L 200.422761 77.896666 
L 198.158 76.144661 
L 211.362048 74.05089 
L 201.49102 83.067184 
L 201.533767 80.204173 
L 189.533361 85.982066 
L 188.422354 83.674558 
" clip-path="url(#p93ff06baa4)"/>
    <path d="M 200.723884 66.715434 
L 211.26812 63.285831 
L 209.258242 61.246455 
L 222.623726 60.938874 
L 211.634697 68.552809 
L 212.060271 65.721282 
L 201.516036 69.150886 
L 200.723884 66.715434 
" clip-path="url(#p93ff06baa4)"/>
    <path d="M 123.203693 223.489508 
L 118.65284 213.838591 
L 116.882569 216.089102 
L 114.895703 202.868545 
L 123.831833 212.812203 
L 120.969262 212.746292 
L 125.520114 222.397208 
L 123.203693 223.489508 
" clip-path="url(#p93ff06baa4)"/>
    <path d="M 185.982723 252.350303 
L 179.864537 249.293109 
L 179.865248 252.156439 
L 170.127651 242.9962 
L 183.299538 245.283594 
L 181.0093 247.002161 
L 187.127486 250.059355 
L 185.982723 252.350303 
" clip-path="url(#p93ff06baa4)"/>
    <path d="M 106.724323 90.391539 
L 114.400977 79.467681 
L 111.569337 79.042859 
L 122.074981 70.774714 
L 117.855486 83.4604 
L 116.49636 80.940195 
L 108.819706 91.864052 
L 106.724323 90.391539 
" clip-path="url(#p93ff06baa4)"/>
    <path d="M 366.207375 213.546282 
L 364.00588 224.224281 
L 366.772734 223.487274 
L 360.424625 235.252999 
L 359.247877 221.935866 
L 361.497595 223.707145 
L 363.69909 213.029145 
L 366.207375 213.546282 
" clip-path="url(#p93ff06baa4)"/>
    <path d="M 373.363182 244.576401 
L 367.975267 257.085717 
L 370.833956 256.922742 
L 362.240267 267.163801 
L 363.777534 253.883456 
L 365.623127 256.072622 
L 371.011042 243.563305 
L 373.363182 244.576401 
" clip-path="url(#p93ff06baa4)"/>
    <path d="M 196.551175 145.434726 
L 202.366147 134.73907 
L 199.504504 134.640799 
L 208.995884 125.22568 
L 206.254522 138.310622 
L 204.616153 135.962344 
L 198.801181 146.658 
L 196.551175 145.434726 
" clip-path="url(#p93ff06baa4)"/>
    <path d="M 231.78049 256.039019 
L 228.010793 256.616978 
L 229.66464 258.954381 
L 216.425162 257.097772 
L 228.500291 251.359999 
L 227.622677 254.085518 
L 231.392374 253.507558 
L 231.78049 256.039019 
" clip-path="url(#p93ff06baa4)"/>
    <path d="M 265.513584 164.80884 
L 267.549687 174.622172 
L 269.797174 172.848064 
L 268.637185 186.166667 
L 262.274275 174.40894 
L 265.042054 175.142464 
L 263.005951 165.329132 
L 265.513584 164.80884 
" clip-path="url(#p93ff06baa4)"/>
    <path d="M 104.521037 235.030359 
L 102.08689 228.281113 
L 100.112177 230.354557 
L 99.381547 217.005514 
L 107.33962 227.747946 
L 104.496037 227.412242 
L 106.930185 234.161489 
L 104.521037 235.030359 
" clip-path="url(#p93ff06baa4)"/>
    <path d="M 222.104505 284.334032 
L 217.059118 280.346444 
L 216.475741 283.149716 
L 208.811425 272.195766 
L 221.239772 277.121917 
L 218.647128 278.337178 
L 223.692515 282.324766 
L 222.104505 284.334032 
" clip-path="url(#p93ff06baa4)"/>
    <path d="M 196.767974 210.769404 
L 188.775513 202.439895 
L 187.81416 205.137015 
L 181.720279 193.23763 
L 193.357951 199.817549 
L 190.623443 200.666739 
L 198.615904 208.996248 
L 196.767974 210.769404 
" clip-path="url(#p93ff06baa4)"/>
    <path d="M 214.10411 228.87927 
L 205.35036 221.855397 
L 204.746344 224.654294 
L 197.162946 213.644169 
L 209.554658 218.661761 
L 206.953131 219.857886 
L 215.706882 226.881758 
L 214.10411 228.87927 
" clip-path="url(#p93ff06baa4)"/>
    <path d="M 277.979894 292.191875 
L 271.706296 299.935496 
L 274.502315 300.5527 
L 263.456562 308.084109 
L 268.532516 295.716188 
L 269.716363 298.323326 
L 275.989961 290.579704 
L 277.979894 292.191875 
" clip-path="url(#p93ff06baa4)"/>
    <path d="M 215.051155 69.928821 
L 223.830605 68.895395 
L 222.259472 66.501611 
L 235.425962 68.81987 
L 223.157649 74.132051 
L 224.129997 71.438875 
L 215.350547 72.472301 
L 215.051155 69.928821 
" clip-path="url(#p93ff06baa4)"/>
    <path d="M 180.27597 120.054849 
L 186.590772 113.617137 
L 183.865778 112.737894 
L 195.575184 106.286493 
L 189.350672 118.11807 
L 188.41907 115.410529 
L 182.104267 121.848241 
L 180.27597 120.054849 
" clip-path="url(#p93ff06baa4)"/>
    <path d="M 310.318208 259.016124 
L 306.561606 268.686675 
L 309.412528 268.420396 
L 301.194927 278.965622 
L 302.250781 265.638359 
L 304.174357 267.75933 
L 307.930959 258.088778 
L 310.318208 259.016124 
" clip-path="url(#p93ff06baa4)"/>
   </g>
   <g id="matplotlib.axis_1">
    <g id="xtick_1">
     <g id="line2d_1">
      <defs>
       <path id="mf723378ebc" d="M 0 0 
L 0 3.5 
" style="stroke: #000000; stroke-width: 0.8"/>
      </defs>
      <g>
       <use xlink:href="#mf723378ebc" x="73.533682" y="307.584" style="stroke: #000000; stroke-width: 0.8"/>
      </g>
     </g>
     <g id="text_1">
      <!-- −1.0 -->
      <g transform="translate(58.963995 323.702125) scale(0.12 -0.12)">
       <defs>
        <path id="DejaVuSans-2212" d="M 678 2272 
L 4684 2272 
L 4684 1741 
L 678 1741 
L 678 2272 
z
" transform="scale(0.015625)"/>
        <path id="DejaVuSans-31" d="M 794 531 
L 1825 531 
L 1825 4091 
L 703 3866 
L 703 4441 
L 1819 4666 
L 2450 4666 
L 2450 531 
L 3481 531 
L 3481 0 
L 794 0 
L 794 531 
z
" transform="scale(0.015625)"/>
        <path id="DejaVuSans-2e" d="M 684 794 
L 1344 794 
L 1344 0 
L 684 0 
L 684 794 
z
" transform="scale(0.015625)"/>
        <path id="DejaVuSans-30" d="M 2034 4250 
Q 1547 4250 1301 3770 
Q 1056 3291 1056 2328 
Q 1056 1369 1301 889 
Q 1547 409 2034 409 
Q 2525 409 2770 889 
Q 3016 1369 3016 2328 
Q 3016 3291 2770 3770 
Q 2525 4250 2034 4250 
z
M 2034 4750 
Q 2819 4750 3233 4129 
Q 3647 3509 3647 2328 
Q 3647 1150 3233 529 
Q 2819 -91 2034 -91 
Q 1250 -91 836 529 
Q 422 1150 422 2328 
Q 422 3509 836 4129 
Q 1250 4750 2034 4750 
z
" transform="scale(0.015625)"/>
       </defs>
       <use xlink:href="#DejaVuSans-2212"/>
       <use xlink:href="#DejaVuSans-31" transform="translate(83.789062 0)"/>
       <use xlink:href="#DejaVuSans-2e" transform="translate(147.412109 0)"/>
       <use xlink:href="#DejaVuSans-30" transform="translate(179.199219 0)"/>
      </g>
     </g>
    </g>
    <g id="xtick_2">
     <g id="line2d_2">
      <g>
       <use xlink:href="#mf723378ebc" x="133.315159" y="307.584" style="stroke: #000000; stroke-width: 0.8"/>
      </g>
     </g>
     <g id="text_2">
      <!-- −0.5 -->
      <g transform="translate(118.745471 323.702125) scale(0.12 -0.12)">
       <defs>
        <path id="DejaVuSans-35" d="M 691 4666 
L 3169 4666 
L 3169 4134 
L 1269 4134 
L 1269 2991 
Q 1406 3038 1543 3061 
Q 1681 3084 1819 3084 
Q 2600 3084 3056 2656 
Q 3513 2228 3513 1497 
Q 3513 744 3044 326 
Q 2575 -91 1722 -91 
Q 1428 -91 1123 -41 
Q 819 9 494 109 
L 494 744 
Q 775 591 1075 516 
Q 1375 441 1709 441 
Q 2250 441 2565 725 
Q 2881 1009 2881 1497 
Q 2881 1984 2565 2268 
Q 2250 2553 1709 2553 
Q 1456 2553 1204 2497 
Q 953 2441 691 2322 
L 691 4666 
z
" transform="scale(0.015625)"/>
       </defs>
       <use xlink:href="#DejaVuSans-2212"/>
       <use xlink:href="#DejaVuSans-30" transform="translate(83.789062 0)"/>
       <use xlink:href="#DejaVuSans-2e" transform="translate(147.412109 0)"/>
       <use xlink:href="#DejaVuSans-35" transform="translate(179.199219 0)"/>
      </g>
     </g>
    </g>
    <g id="xtick_3">
     <g id="line2d_3">
      <g>
       <use xlink:href="#mf723378ebc" x="193.096635" y="307.584" style="stroke: #000000; stroke-width: 0.8"/>
      </g>
     </g>
     <g id="text_3">
      <!-- 0.0 -->
      <g transform="translate(183.55476 323.702125) scale(0.12 -0.12)">
       <use xlink:href="#DejaVuSans-30"/>
       <use xlink:href="#DejaVuSans-2e" transform="translate(63.623047 0)"/>
       <use xlink:href="#DejaVuSans-30" transform="translate(95.410156 0)"/>
      </g>
     </g>
    </g>
    <g id="xtick_4">
     <g id="line2d_4">
      <g>
       <use xlink:href="#mf723378ebc" x="252.878111" y="307.584" style="stroke: #000000; stroke-width: 0.8"/>
      </g>
     </g>
     <g id="text_4">
      <!-- 0.5 -->
      <g transform="translate(243.336236 323.702125) scale(0.12 -0.12)">
       <use xlink:href="#DejaVuSans-30"/>
       <use xlink:href="#DejaVuSans-2e" transform="translate(63.623047 0)"/>
       <use xlink:href="#DejaVuSans-35" transform="translate(95.410156 0)"/>
      </g>
     </g>
    </g>
    <g id="xtick_5">
     <g id="line2d_5">
      <g>
       <use xlink:href="#mf723378ebc" x="312.659587" y="307.584" style="stroke: #000000; stroke-width: 0.8"/>
      </g>
     </g>
     <g id="text_5">
      <!-- 1.0 -->
      <g transform="translate(303.117712 323.702125) scale(0.12 -0.12)">
       <use xlink:href="#DejaVuSans-31"/>
       <use xlink:href="#DejaVuSans-2e" transform="translate(63.623047 0)"/>
       <use xlink:href="#DejaVuSans-30" transform="translate(95.410156 0)"/>
      </g>
     </g>
    </g>
    <g id="xtick_6">
     <g id="line2d_6">
      <g>
       <use xlink:href="#mf723378ebc" x="372.441063" y="307.584" style="stroke: #000000; stroke-width: 0.8"/>
      </g>
     </g>
     <g id="text_6">
      <!-- 1.5 -->
      <g transform="translate(362.899188 323.702125) scale(0.12 -0.12)">
       <use xlink:href="#DejaVuSans-31"/>
       <use xlink:href="#DejaVuSans-2e" transform="translate(63.623047 0)"/>
       <use xlink:href="#DejaVuSans-35" transform="translate(95.410156 0)"/>
      </g>
     </g>
    </g>
    <g id="text_7">
     <!-- x -->
     <g transform="translate(232.016875 340.835562) scale(0.14 -0.14)">
      <defs>
       <path id="DejaVuSans-78" d="M 3513 3500 
L 2247 1797 
L 3578 0 
L 2900 0 
L 1881 1375 
L 863 0 
L 184 0 
L 1544 1831 
L 300 3500 
L 978 3500 
L 1906 2253 
L 2834 3500 
L 3513 3500 
z
" transform="scale(0.015625)"/>
      </defs>
      <use xlink:href="#DejaVuSans-78"/>
     </g>
    </g>
   </g>
   <g id="matplotlib.axis_2">
    <g id="ytick_1">
     <g id="line2d_7">
      <defs>
       <path id="md0069ed547" d="M 0 0 
L -3.5 0 
" style="stroke: #000000; stroke-width: 0.8"/>
      </defs>
      <g>
       <use xlink:href="#md0069ed547" x="57.6" y="286.254698" style="stroke: #000000; stroke-width: 0.8"/>
      </g>
     </g>
     <g id="text_8">
      <!-- 0.50 -->
      <g transform="translate(23.88125 290.813761) scale(0.12 -0.12)">
       <use xlink:href="#DejaVuSans-30"/>
       <use xlink:href="#DejaVuSans-2e" transform="translate(63.623047 0)"/>
       <use xlink:href="#DejaVuSans-35" transform="translate(95.410156 0)"/>
       <use xlink:href="#DejaVuSans-30" transform="translate(159.033203 0)"/>
      </g>
     </g>
    </g>
    <g id="ytick_2">
     <g id="line2d_8">
      <g>
       <use xlink:href="#md0069ed547" x="57.6" y="256.36396" style="stroke: #000000; stroke-width: 0.8"/>
      </g>
     </g>
     <g id="text_9">
      <!-- 0.75 -->
      <g transform="translate(23.88125 260.923023) scale(0.12 -0.12)">
       <defs>
        <path id="DejaVuSans-37" d="M 525 4666 
L 3525 4666 
L 3525 4397 
L 1831 0 
L 1172 0 
L 2766 4134 
L 525 4134 
L 525 4666 
z
" transform="scale(0.015625)"/>
       </defs>
       <use xlink:href="#DejaVuSans-30"/>
       <use xlink:href="#DejaVuSans-2e" transform="translate(63.623047 0)"/>
       <use xlink:href="#DejaVuSans-37" transform="translate(95.410156 0)"/>
       <use xlink:href="#DejaVuSans-35" transform="translate(159.033203 0)"/>
      </g>
     </g>
    </g>
    <g id="ytick_3">
     <g id="line2d_9">
      <g>
       <use xlink:href="#md0069ed547" x="57.6" y="226.473222" style="stroke: #000000; stroke-width: 0.8"/>
      </g>
     </g>
     <g id="text_10">
      <!-- 1.00 -->
      <g transform="translate(23.88125 231.032284) scale(0.12 -0.12)">
       <use xlink:href="#DejaVuSans-31"/>
       <use xlink:href="#DejaVuSans-2e" transform="translate(63.623047 0)"/>
       <use xlink:href="#DejaVuSans-30" transform="translate(95.410156 0)"/>
       <use xlink:href="#DejaVuSans-30" transform="translate(159.033203 0)"/>
      </g>
     </g>
    </g>
    <g id="ytick_4">
     <g id="line2d_10">
      <g>
       <use xlink:href="#md0069ed547" x="57.6" y="196.582484" style="stroke: #000000; stroke-width: 0.8"/>
      </g>
     </g>
     <g id="text_11">
      <!-- 1.25 -->
      <g transform="translate(23.88125 201.141546) scale(0.12 -0.12)">
       <defs>
        <path id="DejaVuSans-32" d="M 1228 531 
L 3431 531 
L 3431 0 
L 469 0 
L 469 531 
Q 828 903 1448 1529 
Q 2069 2156 2228 2338 
Q 2531 2678 2651 2914 
Q 2772 3150 2772 3378 
Q 2772 3750 2511 3984 
Q 2250 4219 1831 4219 
Q 1534 4219 1204 4116 
Q 875 4013 500 3803 
L 500 4441 
Q 881 4594 1212 4672 
Q 1544 4750 1819 4750 
Q 2544 4750 2975 4387 
Q 3406 4025 3406 3419 
Q 3406 3131 3298 2873 
Q 3191 2616 2906 2266 
Q 2828 2175 2409 1742 
Q 1991 1309 1228 531 
z
" transform="scale(0.015625)"/>
       </defs>
       <use xlink:href="#DejaVuSans-31"/>
       <use xlink:href="#DejaVuSans-2e" transform="translate(63.623047 0)"/>
       <use xlink:href="#DejaVuSans-32" transform="translate(95.410156 0)"/>
       <use xlink:href="#DejaVuSans-35" transform="translate(159.033203 0)"/>
      </g>
     </g>
    </g>
    <g id="ytick_5">
     <g id="line2d_11">
      <g>
       <use xlink:href="#md0069ed547" x="57.6" y="166.691746" style="stroke: #000000; stroke-width: 0.8"/>
      </g>
     </g>
     <g id="text_12">
      <!-- 1.50 -->
      <g transform="translate(23.88125 171.250808) scale(0.12 -0.12)">
       <use xlink:href="#DejaVuSans-31"/>
       <use xlink:href="#DejaVuSans-2e" transform="translate(63.623047 0)"/>
       <use xlink:href="#DejaVuSans-35" transform="translate(95.410156 0)"/>
       <use xlink:href="#DejaVuSans-30" transform="translate(159.033203 0)"/>
      </g>
     </g>
    </g>
    <g id="ytick_6">
     <g id="line2d_12">
      <g>
       <use xlink:href="#md0069ed547" x="57.6" y="136.801008" style="stroke: #000000; stroke-width: 0.8"/>
      </g>
     </g>
     <g id="text_13">
      <!-- 1.75 -->
      <g transform="translate(23.88125 141.36007) scale(0.12 -0.12)">
       <use xlink:href="#DejaVuSans-31"/>
       <use xlink:href="#DejaVuSans-2e" transform="translate(63.623047 0)"/>
       <use xlink:href="#DejaVuSans-37" transform="translate(95.410156 0)"/>
       <use xlink:href="#DejaVuSans-35" transform="translate(159.033203 0)"/>
      </g>
     </g>
    </g>
    <g id="ytick_7">
     <g id="line2d_13">
      <g>
       <use xlink:href="#md0069ed547" x="57.6" y="106.910269" style="stroke: #000000; stroke-width: 0.8"/>
      </g>
     </g>
     <g id="text_14">
      <!-- 2.00 -->
      <g transform="translate(23.88125 111.469332) scale(0.12 -0.12)">
       <use xlink:href="#DejaVuSans-32"/>
       <use xlink:href="#DejaVuSans-2e" transform="translate(63.623047 0)"/>
       <use xlink:href="#DejaVuSans-30" transform="translate(95.410156 0)"/>
       <use xlink:href="#DejaVuSans-30" transform="translate(159.033203 0)"/>
      </g>
     </g>
    </g>
    <g id="ytick_8">
     <g id="line2d_14">
      <g>
       <use xlink:href="#md0069ed547" x="57.6" y="77.019531" style="stroke: #000000; stroke-width: 0.8"/>
      </g>
     </g>
     <g id="text_15">
      <!-- 2.25 -->
      <g transform="translate(23.88125 81.578594) scale(0.12 -0.12)">
       <use xlink:href="#DejaVuSans-32"/>
       <use xlink:href="#DejaVuSans-2e" transform="translate(63.623047 0)"/>
       <use xlink:href="#DejaVuSans-32" transform="translate(95.410156 0)"/>
       <use xlink:href="#DejaVuSans-35" transform="translate(159.033203 0)"/>
      </g>
     </g>
    </g>
    <g id="ytick_9">
     <g id="line2d_15">
      <g>
       <use xlink:href="#md0069ed547" x="57.6" y="47.128793" style="stroke: #000000; stroke-width: 0.8"/>
      </g>
     </g>
     <g id="text_16">
      <!-- 2.50 -->
      <g transform="translate(23.88125 51.687856) scale(0.12 -0.12)">
       <use xlink:href="#DejaVuSans-32"/>
       <use xlink:href="#DejaVuSans-2e" transform="translate(63.623047 0)"/>
       <use xlink:href="#DejaVuSans-35" transform="translate(95.410156 0)"/>
       <use xlink:href="#DejaVuSans-30" transform="translate(159.033203 0)"/>
      </g>
     </g>
    </g>
    <g id="text_17">
     <!-- y -->
     <g transform="translate(16.969687 178.671125) rotate(-90) scale(0.14 -0.14)">
      <defs>
       <path id="DejaVuSans-79" d="M 2059 -325 
Q 1816 -950 1584 -1140 
Q 1353 -1331 966 -1331 
L 506 -1331 
L 506 -850 
L 844 -850 
Q 1081 -850 1212 -737 
Q 1344 -625 1503 -206 
L 1606 56 
L 191 3500 
L 800 3500 
L 1894 763 
L 2988 3500 
L 3597 3500 
L 2059 -325 
z
" transform="scale(0.015625)"/>
      </defs>
      <use xlink:href="#DejaVuSans-79"/>
     </g>
    </g>
   </g>
   <g id="line2d_16">
    <defs>
     <path id="me13ec2d9c0" d="M 0 3 
C 0.795609 3 1.55874 2.683901 2.12132 2.12132 
C 2.683901 1.55874 3 0.795609 3 0 
C 3 -0.795609 2.683901 -1.55874 2.12132 -2.12132 
C 1.55874 -2.683901 0.795609 -3 0 -3 
C -0.795609 -3 -1.55874 -2.683901 -2.12132 -2.12132 
C -2.683901 -1.55874 -3 -0.795609 -3 0 
C -3 0.795609 -2.683901 1.55874 -2.12132 2.12132 
C -1.55874 2.683901 -0.795609 3 0 3 
z
" style="stroke: #0000ff"/>
    </defs>
    <g clip-path="url(#p93ff06baa4)">
     <use xlink:href="#me13ec2d9c0" x="329.804627" y="208.91908" style="fill: #0000ff; stroke: #0000ff"/>
     <use xlink:href="#me13ec2d9c0" x="255.271475" y="86.49948" style="fill: #0000ff; stroke: #0000ff"/>
     <use xlink:href="#me13ec2d9c0" x="155.225926" y="265.81164" style="fill: #0000ff; stroke: #0000ff"/>
     <use xlink:href="#me13ec2d9c0" x="249.785833" y="154.28022" style="fill: #0000ff; stroke: #0000ff"/>
     <use xlink:href="#me13ec2d9c0" x="151.302535" y="130.31541" style="fill: #0000ff; stroke: #0000ff"/>
     <use xlink:href="#me13ec2d9c0" x="349.784054" y="170.54656" style="fill: #0000ff; stroke: #0000ff"/>
     <use xlink:href="#me13ec2d9c0" x="175.603193" y="153.794036" style="fill: #0000ff; stroke: #0000ff"/>
     <use xlink:href="#me13ec2d9c0" x="100.078685" y="193.103571" style="fill: #0000ff; stroke: #0000ff"/>
     <use xlink:href="#me13ec2d9c0" x="141.572781" y="176.697582" style="fill: #0000ff; stroke: #0000ff"/>
     <use xlink:href="#me13ec2d9c0" x="235.4129" y="117.321709" style="fill: #0000ff; stroke: #0000ff"/>
     <use xlink:href="#me13ec2d9c0" x="144.957121" y="221.691386" style="fill: #0000ff; stroke: #0000ff"/>
     <use xlink:href="#me13ec2d9c0" x="272.527449" y="136.14725" style="fill: #0000ff; stroke: #0000ff"/>
     <use xlink:href="#me13ec2d9c0" x="87.799233" y="131.372354" style="fill: #0000ff; stroke: #0000ff"/>
     <use xlink:href="#me13ec2d9c0" x="166.42345" y="104.154789" style="fill: #0000ff; stroke: #0000ff"/>
     <use xlink:href="#me13ec2d9c0" x="239.267557" y="224.397982" style="fill: #0000ff; stroke: #0000ff"/>
     <use xlink:href="#me13ec2d9c0" x="169.729681" y="229.894344" style="fill: #0000ff; stroke: #0000ff"/>
     <use xlink:href="#me13ec2d9c0" x="277.445684" y="264.129869" style="fill: #0000ff; stroke: #0000ff"/>
     <use xlink:href="#me13ec2d9c0" x="286.084214" y="208.962479" style="fill: #0000ff; stroke: #0000ff"/>
     <use xlink:href="#me13ec2d9c0" x="199.345954" y="241.610606" style="fill: #0000ff; stroke: #0000ff"/>
     <use xlink:href="#me13ec2d9c0" x="120.348538" y="143.680162" style="fill: #0000ff; stroke: #0000ff"/>
    </g>
   </g>
   <g id="line2d_17">
    <defs>
     <path id="m07b3c0b3d1" d="M 0 3 
C 0.795609 3 1.55874 2.683901 2.12132 2.12132 
C 2.683901 1.55874 3 0.795609 3 0 
C 3 -0.795609 2.683901 -1.55874 2.12132 -2.12132 
C 1.55874 -2.683901 0.795609 -3 0 -3 
C -0.795609 -3 -1.55874 -2.683901 -2.12132 -2.12132 
C -2.683901 -1.55874 -3 -0.795609 -3 0 
C -3 0.795609 -2.683901 1.55874 -2.12132 2.12132 
C -1.55874 2.683901 -0.795609 3 0 3 
z
" style="stroke: #ff0000"/>
    </defs>
    <g clip-path="url(#p93ff06baa4)">
     <use xlink:href="#m07b3c0b3d1" x="283.897881" y="65.387829" style="fill: #ff0000; stroke: #ff0000"/>
     <use xlink:href="#m07b3c0b3d1" x="362.249325" y="130.766847" style="fill: #ff0000; stroke: #ff0000"/>
     <use xlink:href="#m07b3c0b3d1" x="143.341864" y="78.903974" style="fill: #ff0000; stroke: #ff0000"/>
     <use xlink:href="#m07b3c0b3d1" x="324.988432" y="111.383259" style="fill: #ff0000; stroke: #ff0000"/>
     <use xlink:href="#m07b3c0b3d1" x="172.859617" y="288.381487" style="fill: #ff0000; stroke: #ff0000"/>
     <use xlink:href="#m07b3c0b3d1" x="331.170276" y="242.620744" style="fill: #ff0000; stroke: #ff0000"/>
     <use xlink:href="#m07b3c0b3d1" x="316.737473" y="172.739163" style="fill: #ff0000; stroke: #ff0000"/>
     <use xlink:href="#m07b3c0b3d1" x="283.891766" y="109.057954" style="fill: #ff0000; stroke: #ff0000"/>
     <use xlink:href="#m07b3c0b3d1" x="342.204224" y="257.763759" style="fill: #ff0000; stroke: #ff0000"/>
     <use xlink:href="#m07b3c0b3d1" x="380.917762" y="178.205434" style="fill: #ff0000; stroke: #ff0000"/>
     <use xlink:href="#m07b3c0b3d1" x="352.19699" y="145.579661" style="fill: #ff0000; stroke: #ff0000"/>
     <use xlink:href="#m07b3c0b3d1" x="298.626924" y="155.366295" style="fill: #ff0000; stroke: #ff0000"/>
     <use xlink:href="#m07b3c0b3d1" x="248.646156" y="197.192229" style="fill: #ff0000; stroke: #ff0000"/>
     <use xlink:href="#m07b3c0b3d1" x="274.841137" y="228.776924" style="fill: #ff0000; stroke: #ff0000"/>
     <use xlink:href="#m07b3c0b3d1" x="319.930858" y="152.60662" style="fill: #ff0000; stroke: #ff0000"/>
     <use xlink:href="#m07b3c0b3d1" x="191.293026" y="192.312505" style="fill: #ff0000; stroke: #ff0000"/>
     <use xlink:href="#m07b3c0b3d1" x="301.583679" y="295.488" style="fill: #ff0000; stroke: #ff0000"/>
     <use xlink:href="#m07b3c0b3d1" x="297.438397" y="119.817321" style="fill: #ff0000; stroke: #ff0000"/>
     <use xlink:href="#m07b3c0b3d1" x="254.100316" y="242.974609" style="fill: #ff0000; stroke: #ff0000"/>
     <use xlink:href="#m07b3c0b3d1" x="330.423254" y="128.278559" style="fill: #ff0000; stroke: #ff0000"/>
     <use xlink:href="#m07b3c0b3d1" x="251.103489" y="53.568" style="fill: #ff0000; stroke: #ff0000"/>
     <use xlink:href="#m07b3c0b3d1" x="188.906863" y="73.896623" style="fill: #ff0000; stroke: #ff0000"/>
     <use xlink:href="#m07b3c0b3d1" x="344.734457" y="275.563976" style="fill: #ff0000; stroke: #ff0000"/>
     <use xlink:href="#m07b3c0b3d1" x="310.547414" y="225.769554" style="fill: #ff0000; stroke: #ff0000"/>
     <use xlink:href="#m07b3c0b3d1" x="121.758677" y="88.924298" style="fill: #ff0000; stroke: #ff0000"/>
     <use xlink:href="#m07b3c0b3d1" x="296.77196" y="178.208118" style="fill: #ff0000; stroke: #ff0000"/>
     <use xlink:href="#m07b3c0b3d1" x="213.946365" y="273.754166" style="fill: #ff0000; stroke: #ff0000"/>
     <use xlink:href="#m07b3c0b3d1" x="311.858175" y="126.966416" style="fill: #ff0000; stroke: #ff0000"/>
     <use xlink:href="#m07b3c0b3d1" x="384.520767" y="214.867025" style="fill: #ff0000; stroke: #ff0000"/>
     <use xlink:href="#m07b3c0b3d1" x="271.572315" y="194.050936" style="fill: #ff0000; stroke: #ff0000"/>
     <use xlink:href="#m07b3c0b3d1" x="182.43688" y="176.928035" style="fill: #ff0000; stroke: #ff0000"/>
     <use xlink:href="#m07b3c0b3d1" x="305.733328" y="69.927152" style="fill: #ff0000; stroke: #ff0000"/>
     <use xlink:href="#m07b3c0b3d1" x="188.977857" y="84.828312" style="fill: #ff0000; stroke: #ff0000"/>
     <use xlink:href="#m07b3c0b3d1" x="201.11996" y="67.93316" style="fill: #ff0000; stroke: #ff0000"/>
     <use xlink:href="#m07b3c0b3d1" x="124.361904" y="222.943358" style="fill: #ff0000; stroke: #ff0000"/>
     <use xlink:href="#m07b3c0b3d1" x="186.555104" y="251.204829" style="fill: #ff0000; stroke: #ff0000"/>
     <use xlink:href="#m07b3c0b3d1" x="107.772015" y="91.127796" style="fill: #ff0000; stroke: #ff0000"/>
     <use xlink:href="#m07b3c0b3d1" x="364.953233" y="213.287713" style="fill: #ff0000; stroke: #ff0000"/>
     <use xlink:href="#m07b3c0b3d1" x="372.187112" y="244.069853" style="fill: #ff0000; stroke: #ff0000"/>
     <use xlink:href="#m07b3c0b3d1" x="197.676178" y="146.046363" style="fill: #ff0000; stroke: #ff0000"/>
     <use xlink:href="#m07b3c0b3d1" x="231.586432" y="254.773289" style="fill: #ff0000; stroke: #ff0000"/>
     <use xlink:href="#m07b3c0b3d1" x="264.259768" y="165.068986" style="fill: #ff0000; stroke: #ff0000"/>
     <use xlink:href="#m07b3c0b3d1" x="105.725611" y="234.595924" style="fill: #ff0000; stroke: #ff0000"/>
     <use xlink:href="#m07b3c0b3d1" x="222.89851" y="283.329399" style="fill: #ff0000; stroke: #ff0000"/>
     <use xlink:href="#m07b3c0b3d1" x="197.691939" y="209.882826" style="fill: #ff0000; stroke: #ff0000"/>
     <use xlink:href="#m07b3c0b3d1" x="214.905496" y="227.880514" style="fill: #ff0000; stroke: #ff0000"/>
     <use xlink:href="#m07b3c0b3d1" x="276.984927" y="291.38579" style="fill: #ff0000; stroke: #ff0000"/>
     <use xlink:href="#m07b3c0b3d1" x="215.200851" y="71.200561" style="fill: #ff0000; stroke: #ff0000"/>
     <use xlink:href="#m07b3c0b3d1" x="181.190118" y="120.951545" style="fill: #ff0000; stroke: #ff0000"/>
     <use xlink:href="#m07b3c0b3d1" x="309.124584" y="258.552451" style="fill: #ff0000; stroke: #ff0000"/>
    </g>
   </g>
   <g id="line2d_18"/>
   <g id="patch_3">
    <path d="M 57.6 307.584 
L 57.6 41.472 
" style="fill: none; stroke: #000000; stroke-width: 0.8; stroke-linejoin: miter; stroke-linecap: square"/>
   </g>
   <g id="patch_4">
    <path d="M 414.72 307.584 
L 414.72 41.472 
" style="fill: none; stroke: #000000; stroke-width: 0.8; stroke-linejoin: miter; stroke-linecap: square"/>
   </g>
   <g id="patch_5">
    <path d="M 57.6 307.584 
L 414.72 307.584 
" style="fill: none; stroke: #000000; stroke-width: 0.8; stroke-linejoin: miter; stroke-linecap: square"/>
   </g>
   <g id="patch_6">
    <path d="M 57.6 41.472 
L 414.72 41.472 
" style="fill: none; stroke: #000000; stroke-width: 0.8; stroke-linejoin: miter; stroke-linecap: square"/>
   </g>
   <g id="text_18">
    <!-- Velocities at the final time -->
    <g transform="translate(116.81 35.472) scale(0.16 -0.16)">
     <defs>
      <path id="DejaVuSans-Bold-56" d="M 31 4666 
L 1241 4666 
L 2478 1222 
L 3713 4666 
L 4922 4666 
L 3194 0 
L 1759 0 
L 31 4666 
z
" transform="scale(0.015625)"/>
      <path id="DejaVuSans-Bold-65" d="M 4031 1759 
L 4031 1441 
L 1416 1441 
Q 1456 1047 1700 850 
Q 1944 653 2381 653 
Q 2734 653 3104 758 
Q 3475 863 3866 1075 
L 3866 213 
Q 3469 63 3072 -14 
Q 2675 -91 2278 -91 
Q 1328 -91 801 392 
Q 275 875 275 1747 
Q 275 2603 792 3093 
Q 1309 3584 2216 3584 
Q 3041 3584 3536 3087 
Q 4031 2591 4031 1759 
z
M 2881 2131 
Q 2881 2450 2695 2645 
Q 2509 2841 2209 2841 
Q 1884 2841 1681 2658 
Q 1478 2475 1428 2131 
L 2881 2131 
z
" transform="scale(0.015625)"/>
      <path id="DejaVuSans-Bold-6c" d="M 538 4863 
L 1656 4863 
L 1656 0 
L 538 0 
L 538 4863 
z
" transform="scale(0.015625)"/>
      <path id="DejaVuSans-Bold-6f" d="M 2203 2784 
Q 1831 2784 1636 2517 
Q 1441 2250 1441 1747 
Q 1441 1244 1636 976 
Q 1831 709 2203 709 
Q 2569 709 2762 976 
Q 2956 1244 2956 1747 
Q 2956 2250 2762 2517 
Q 2569 2784 2203 2784 
z
M 2203 3584 
Q 3106 3584 3614 3096 
Q 4122 2609 4122 1747 
Q 4122 884 3614 396 
Q 3106 -91 2203 -91 
Q 1297 -91 786 396 
Q 275 884 275 1747 
Q 275 2609 786 3096 
Q 1297 3584 2203 3584 
z
" transform="scale(0.015625)"/>
      <path id="DejaVuSans-Bold-63" d="M 3366 3391 
L 3366 2478 
Q 3138 2634 2908 2709 
Q 2678 2784 2431 2784 
Q 1963 2784 1702 2511 
Q 1441 2238 1441 1747 
Q 1441 1256 1702 982 
Q 1963 709 2431 709 
Q 2694 709 2930 787 
Q 3166 866 3366 1019 
L 3366 103 
Q 3103 6 2833 -42 
Q 2563 -91 2291 -91 
Q 1344 -91 809 395 
Q 275 881 275 1747 
Q 275 2613 809 3098 
Q 1344 3584 2291 3584 
Q 2566 3584 2833 3536 
Q 3100 3488 3366 3391 
z
" transform="scale(0.015625)"/>
      <path id="DejaVuSans-Bold-69" d="M 538 3500 
L 1656 3500 
L 1656 0 
L 538 0 
L 538 3500 
z
M 538 4863 
L 1656 4863 
L 1656 3950 
L 538 3950 
L 538 4863 
z
" transform="scale(0.015625)"/>
      <path id="DejaVuSans-Bold-74" d="M 1759 4494 
L 1759 3500 
L 2913 3500 
L 2913 2700 
L 1759 2700 
L 1759 1216 
Q 1759 972 1856 886 
Q 1953 800 2241 800 
L 2816 800 
L 2816 0 
L 1856 0 
Q 1194 0 917 276 
Q 641 553 641 1216 
L 641 2700 
L 84 2700 
L 84 3500 
L 641 3500 
L 641 4494 
L 1759 4494 
z
" transform="scale(0.015625)"/>
      <path id="DejaVuSans-Bold-73" d="M 3272 3391 
L 3272 2541 
Q 2913 2691 2578 2766 
Q 2244 2841 1947 2841 
Q 1628 2841 1473 2761 
Q 1319 2681 1319 2516 
Q 1319 2381 1436 2309 
Q 1553 2238 1856 2203 
L 2053 2175 
Q 2913 2066 3209 1816 
Q 3506 1566 3506 1031 
Q 3506 472 3093 190 
Q 2681 -91 1863 -91 
Q 1516 -91 1145 -36 
Q 775 19 384 128 
L 384 978 
Q 719 816 1070 734 
Q 1422 653 1784 653 
Q 2113 653 2278 743 
Q 2444 834 2444 1013 
Q 2444 1163 2330 1236 
Q 2216 1309 1875 1350 
L 1678 1375 
Q 931 1469 631 1722 
Q 331 1975 331 2491 
Q 331 3047 712 3315 
Q 1094 3584 1881 3584 
Q 2191 3584 2531 3537 
Q 2872 3491 3272 3391 
z
" transform="scale(0.015625)"/>
      <path id="DejaVuSans-Bold-20" transform="scale(0.015625)"/>
      <path id="DejaVuSans-Bold-61" d="M 2106 1575 
Q 1756 1575 1579 1456 
Q 1403 1338 1403 1106 
Q 1403 894 1545 773 
Q 1688 653 1941 653 
Q 2256 653 2472 879 
Q 2688 1106 2688 1447 
L 2688 1575 
L 2106 1575 
z
M 3816 1997 
L 3816 0 
L 2688 0 
L 2688 519 
Q 2463 200 2181 54 
Q 1900 -91 1497 -91 
Q 953 -91 614 226 
Q 275 544 275 1050 
Q 275 1666 698 1953 
Q 1122 2241 2028 2241 
L 2688 2241 
L 2688 2328 
Q 2688 2594 2478 2717 
Q 2269 2841 1825 2841 
Q 1466 2841 1156 2769 
Q 847 2697 581 2553 
L 581 3406 
Q 941 3494 1303 3539 
Q 1666 3584 2028 3584 
Q 2975 3584 3395 3211 
Q 3816 2838 3816 1997 
z
" transform="scale(0.015625)"/>
      <path id="DejaVuSans-Bold-68" d="M 4056 2131 
L 4056 0 
L 2931 0 
L 2931 347 
L 2931 1625 
Q 2931 2084 2911 2256 
Q 2891 2428 2841 2509 
Q 2775 2619 2662 2680 
Q 2550 2741 2406 2741 
Q 2056 2741 1856 2470 
Q 1656 2200 1656 1722 
L 1656 0 
L 538 0 
L 538 4863 
L 1656 4863 
L 1656 2988 
Q 1909 3294 2193 3439 
Q 2478 3584 2822 3584 
Q 3428 3584 3742 3212 
Q 4056 2841 4056 2131 
z
" transform="scale(0.015625)"/>
      <path id="DejaVuSans-Bold-66" d="M 2841 4863 
L 2841 4128 
L 2222 4128 
Q 1984 4128 1890 4042 
Q 1797 3956 1797 3744 
L 1797 3500 
L 2753 3500 
L 2753 2700 
L 1797 2700 
L 1797 0 
L 678 0 
L 678 2700 
L 122 2700 
L 122 3500 
L 678 3500 
L 678 3744 
Q 678 4316 997 4589 
Q 1316 4863 1984 4863 
L 2841 4863 
z
" transform="scale(0.015625)"/>
      <path id="DejaVuSans-Bold-6e" d="M 4056 2131 
L 4056 0 
L 2931 0 
L 2931 347 
L 2931 1631 
Q 2931 2084 2911 2256 
Q 2891 2428 2841 2509 
Q 2775 2619 2662 2680 
Q 2550 2741 2406 2741 
Q 2056 2741 1856 2470 
Q 1656 2200 1656 1722 
L 1656 0 
L 538 0 
L 538 3500 
L 1656 3500 
L 1656 2988 
Q 1909 3294 2193 3439 
Q 2478 3584 2822 3584 
Q 3428 3584 3742 3212 
Q 4056 2841 4056 2131 
z
" transform="scale(0.015625)"/>
      <path id="DejaVuSans-Bold-6d" d="M 3781 2919 
Q 3994 3244 4286 3414 
Q 4578 3584 4928 3584 
Q 5531 3584 5847 3212 
Q 6163 2841 6163 2131 
L 6163 0 
L 5038 0 
L 5038 1825 
Q 5041 1866 5042 1909 
Q 5044 1953 5044 2034 
Q 5044 2406 4934 2573 
Q 4825 2741 4581 2741 
Q 4263 2741 4089 2478 
Q 3916 2216 3909 1719 
L 3909 0 
L 2784 0 
L 2784 1825 
Q 2784 2406 2684 2573 
Q 2584 2741 2328 2741 
Q 2006 2741 1831 2477 
Q 1656 2213 1656 1722 
L 1656 0 
L 531 0 
L 531 3500 
L 1656 3500 
L 1656 2988 
Q 1863 3284 2130 3434 
Q 2397 3584 2719 3584 
Q 3081 3584 3359 3409 
Q 3638 3234 3781 2919 
z
" transform="scale(0.015625)"/>
     </defs>
     <use xlink:href="#DejaVuSans-Bold-56"/>
     <use xlink:href="#DejaVuSans-Bold-65" transform="translate(71.892578 0)"/>
     <use xlink:href="#DejaVuSans-Bold-6c" transform="translate(139.714844 0)"/>
     <use xlink:href="#DejaVuSans-Bold-6f" transform="translate(173.992188 0)"/>
     <use xlink:href="#DejaVuSans-Bold-63" transform="translate(242.693359 0)"/>
     <use xlink:href="#DejaVuSans-Bold-69" transform="translate(301.970703 0)"/>
     <use xlink:href="#DejaVuSans-Bold-74" transform="translate(336.248047 0)"/>
     <use xlink:href="#DejaVuSans-Bold-69" transform="translate(384.050781 0)"/>
     <use xlink:href="#DejaVuSans-Bold-65" transform="translate(418.328125 0)"/>
     <use xlink:href="#DejaVuSans-Bold-73" transform="translate(486.150391 0)"/>
     <use xlink:href="#DejaVuSans-Bold-20" transform="translate(545.671875 0)"/>
     <use xlink:href="#DejaVuSans-Bold-61" transform="translate(580.486328 0)"/>
     <use xlink:href="#DejaVuSans-Bold-74" transform="translate(647.966797 0)"/>
     <use xlink:href="#DejaVuSans-Bold-20" transform="translate(695.769531 0)"/>
     <use xlink:href="#DejaVuSans-Bold-74" transform="translate(730.583984 0)"/>
     <use xlink:href="#DejaVuSans-Bold-68" transform="translate(778.386719 0)"/>
     <use xlink:href="#DejaVuSans-Bold-65" transform="translate(849.578125 0)"/>
     <use xlink:href="#DejaVuSans-Bold-20" transform="translate(917.400391 0)"/>
     <use xlink:href="#DejaVuSans-Bold-66" transform="translate(952.214844 0)"/>
     <use xlink:href="#DejaVuSans-Bold-69" transform="translate(995.720703 0)"/>
     <use xlink:href="#DejaVuSans-Bold-6e" transform="translate(1029.998047 0)"/>
     <use xlink:href="#DejaVuSans-Bold-61" transform="translate(1101.189453 0)"/>
     <use xlink:href="#DejaVuSans-Bold-6c" transform="translate(1168.669922 0)"/>
     <use xlink:href="#DejaVuSans-Bold-20" transform="translate(1202.947266 0)"/>
     <use xlink:href="#DejaVuSans-Bold-74" transform="translate(1237.761719 0)"/>
     <use xlink:href="#DejaVuSans-Bold-69" transform="translate(1285.564453 0)"/>
     <use xlink:href="#DejaVuSans-Bold-6d" transform="translate(1319.841797 0)"/>
     <use xlink:href="#DejaVuSans-Bold-65" transform="translate(1424.041016 0)"/>
    </g>
   </g>
  </g>
 </g>
 <defs>
  <clipPath id="p93ff06baa4">
   <rect x="57.6" y="41.472" width="357.12" height="266.112"/>
  </clipPath>
 </defs>
</svg>
