<?xml version="1.0" encoding="utf-8" standalone="no"?>
<!DOCTYPE svg PUBLIC "-//W3C//DTD SVG 1.1//EN"
  "http://www.w3.org/Graphics/SVG/1.1/DTD/svg11.dtd">
<svg xmlns:xlink="http://www.w3.org/1999/xlink" width="460.8pt" height="345.6pt" viewBox="0 0 460.8 345.6" xmlns="http://www.w3.org/2000/svg" version="1.1">
 <metadata>
  <rdf:RDF xmlns:dc="http://purl.org/dc/elements/1.1/" xmlns:cc="http://creativecommons.org/ns#" xmlns:rdf="http://www.w3.org/1999/02/22-rdf-syntax-ns#">
   <cc:Work>
    <dc:type rdf:resource="http://purl.org/dc/dcmitype/StillImage"/>
    <dc:date>2025-02-24T13:57:15.795654</dc:date>
    <dc:format>image/svg+xml</dc:format>
    <dc:creator>
     <cc:Agent>
      <dc:title>Matplotlib v3.6.3, https://matplotlib.org/</dc:title>
     </cc:Agent>
    </dc:creator>
   </cc:Work>
  </rdf:RDF>
 </metadata>
 <defs>
  <style type="text/css">*{stroke-linejoin: round; stroke-linecap: butt}</style>
 </defs>
 <g id="figure_1">
  <g id="patch_1">
   <path d="M 0 345.6 
L 460.8 345.6 
L 460.8 0 
L 0 0 
z
" style="fill: #ffffff"/>
  </g>
  <g id="axes_1">
   <g id="patch_2">
    <path d="M 57.6 307.584 
L 414.72 307.584 
L 414.72 41.472 
L 57.6 41.472 
z
" style="fill: #ffffff"/>
   </g>
   <g id="matplotlib.axis_1">
    <g id="xtick_1">
     <g id="line2d_1">
      <path d="M 73.832727 307.584 
L 73.832727 41.472 
" clip-path="url(#p83c55496b0)" style="fill: none; stroke: #b0b0b0; stroke-width: 0.8; stroke-linecap: square"/>
     </g>
     <g id="line2d_2">
      <defs>
       <path id="maf236a8d8e" d="M 0 0 
L 0 3.5 
" style="stroke: #000000; stroke-width: 0.8"/>
      </defs>
      <g>
       <use xlink:href="#maf236a8d8e" x="73.832727" y="307.584" style="stroke: #000000; stroke-width: 0.8"/>
      </g>
     </g>
     <g id="text_1">
      <!-- 0 -->
      <g transform="translate(70.651477 322.182437) scale(0.1 -0.1)">
       <defs>
        <path id="DejaVuSans-30" d="M 2034 4250 
Q 1547 4250 1301 3770 
Q 1056 3291 1056 2328 
Q 1056 1369 1301 889 
Q 1547 409 2034 409 
Q 2525 409 2770 889 
Q 3016 1369 3016 2328 
Q 3016 3291 2770 3770 
Q 2525 4250 2034 4250 
z
M 2034 4750 
Q 2819 4750 3233 4129 
Q 3647 3509 3647 2328 
Q 3647 1150 3233 529 
Q 2819 -91 2034 -91 
Q 1250 -91 836 529 
Q 422 1150 422 2328 
Q 422 3509 836 4129 
Q 1250 4750 2034 4750 
z
" transform="scale(0.015625)"/>
       </defs>
       <use xlink:href="#DejaVuSans-30"/>
      </g>
     </g>
    </g>
    <g id="xtick_2">
     <g id="line2d_3">
      <path d="M 138.77013 307.584 
L 138.77013 41.472 
" clip-path="url(#p83c55496b0)" style="fill: none; stroke: #b0b0b0; stroke-width: 0.8; stroke-linecap: square"/>
     </g>
     <g id="line2d_4">
      <g>
       <use xlink:href="#maf236a8d8e" x="138.77013" y="307.584" style="stroke: #000000; stroke-width: 0.8"/>
      </g>
     </g>
     <g id="text_2">
      <!-- 2000 -->
      <g transform="translate(126.04513 322.182437) scale(0.1 -0.1)">
       <defs>
        <path id="DejaVuSans-32" d="M 1228 531 
L 3431 531 
L 3431 0 
L 469 0 
L 469 531 
Q 828 903 1448 1529 
Q 2069 2156 2228 2338 
Q 2531 2678 2651 2914 
Q 2772 3150 2772 3378 
Q 2772 3750 2511 3984 
Q 2250 4219 1831 4219 
Q 1534 4219 1204 4116 
Q 875 4013 500 3803 
L 500 4441 
Q 881 4594 1212 4672 
Q 1544 4750 1819 4750 
Q 2544 4750 2975 4387 
Q 3406 4025 3406 3419 
Q 3406 3131 3298 2873 
Q 3191 2616 2906 2266 
Q 2828 2175 2409 1742 
Q 1991 1309 1228 531 
z
" transform="scale(0.015625)"/>
       </defs>
       <use xlink:href="#DejaVuSans-32"/>
       <use xlink:href="#DejaVuSans-30" x="63.623047"/>
       <use xlink:href="#DejaVuSans-30" x="127.246094"/>
       <use xlink:href="#DejaVuSans-30" x="190.869141"/>
      </g>
     </g>
    </g>
    <g id="xtick_3">
     <g id="line2d_5">
      <path d="M 203.707533 307.584 
L 203.707533 41.472 
" clip-path="url(#p83c55496b0)" style="fill: none; stroke: #b0b0b0; stroke-width: 0.8; stroke-linecap: square"/>
     </g>
     <g id="line2d_6">
      <g>
       <use xlink:href="#maf236a8d8e" x="203.707533" y="307.584" style="stroke: #000000; stroke-width: 0.8"/>
      </g>
     </g>
     <g id="text_3">
      <!-- 4000 -->
      <g transform="translate(190.982533 322.182437) scale(0.1 -0.1)">
       <defs>
        <path id="DejaVuSans-34" d="M 2419 4116 
L 825 1625 
L 2419 1625 
L 2419 4116 
z
M 2253 4666 
L 3047 4666 
L 3047 1625 
L 3713 1625 
L 3713 1100 
L 3047 1100 
L 3047 0 
L 2419 0 
L 2419 1100 
L 313 1100 
L 313 1709 
L 2253 4666 
z
" transform="scale(0.015625)"/>
       </defs>
       <use xlink:href="#DejaVuSans-34"/>
       <use xlink:href="#DejaVuSans-30" x="63.623047"/>
       <use xlink:href="#DejaVuSans-30" x="127.246094"/>
       <use xlink:href="#DejaVuSans-30" x="190.869141"/>
      </g>
     </g>
    </g>
    <g id="xtick_4">
     <g id="line2d_7">
      <path d="M 268.644936 307.584 
L 268.644936 41.472 
" clip-path="url(#p83c55496b0)" style="fill: none; stroke: #b0b0b0; stroke-width: 0.8; stroke-linecap: square"/>
     </g>
     <g id="line2d_8">
      <g>
       <use xlink:href="#maf236a8d8e" x="268.644936" y="307.584" style="stroke: #000000; stroke-width: 0.8"/>
      </g>
     </g>
     <g id="text_4">
      <!-- 6000 -->
      <g transform="translate(255.919936 322.182437) scale(0.1 -0.1)">
       <defs>
        <path id="DejaVuSans-36" d="M 2113 2584 
Q 1688 2584 1439 2293 
Q 1191 2003 1191 1497 
Q 1191 994 1439 701 
Q 1688 409 2113 409 
Q 2538 409 2786 701 
Q 3034 994 3034 1497 
Q 3034 2003 2786 2293 
Q 2538 2584 2113 2584 
z
M 3366 4563 
L 3366 3988 
Q 3128 4100 2886 4159 
Q 2644 4219 2406 4219 
Q 1781 4219 1451 3797 
Q 1122 3375 1075 2522 
Q 1259 2794 1537 2939 
Q 1816 3084 2150 3084 
Q 2853 3084 3261 2657 
Q 3669 2231 3669 1497 
Q 3669 778 3244 343 
Q 2819 -91 2113 -91 
Q 1303 -91 875 529 
Q 447 1150 447 2328 
Q 447 3434 972 4092 
Q 1497 4750 2381 4750 
Q 2619 4750 2861 4703 
Q 3103 4656 3366 4563 
z
" transform="scale(0.015625)"/>
       </defs>
       <use xlink:href="#DejaVuSans-36"/>
       <use xlink:href="#DejaVuSans-30" x="63.623047"/>
       <use xlink:href="#DejaVuSans-30" x="127.246094"/>
       <use xlink:href="#DejaVuSans-30" x="190.869141"/>
      </g>
     </g>
    </g>
    <g id="xtick_5">
     <g id="line2d_9">
      <path d="M 333.582339 307.584 
L 333.582339 41.472 
" clip-path="url(#p83c55496b0)" style="fill: none; stroke: #b0b0b0; stroke-width: 0.8; stroke-linecap: square"/>
     </g>
     <g id="line2d_10">
      <g>
       <use xlink:href="#maf236a8d8e" x="333.582339" y="307.584" style="stroke: #000000; stroke-width: 0.8"/>
      </g>
     </g>
     <g id="text_5">
      <!-- 8000 -->
      <g transform="translate(320.857339 322.182437) scale(0.1 -0.1)">
       <defs>
        <path id="DejaVuSans-38" d="M 2034 2216 
Q 1584 2216 1326 1975 
Q 1069 1734 1069 1313 
Q 1069 891 1326 650 
Q 1584 409 2034 409 
Q 2484 409 2743 651 
Q 3003 894 3003 1313 
Q 3003 1734 2745 1975 
Q 2488 2216 2034 2216 
z
M 1403 2484 
Q 997 2584 770 2862 
Q 544 3141 544 3541 
Q 544 4100 942 4425 
Q 1341 4750 2034 4750 
Q 2731 4750 3128 4425 
Q 3525 4100 3525 3541 
Q 3525 3141 3298 2862 
Q 3072 2584 2669 2484 
Q 3125 2378 3379 2068 
Q 3634 1759 3634 1313 
Q 3634 634 3220 271 
Q 2806 -91 2034 -91 
Q 1263 -91 848 271 
Q 434 634 434 1313 
Q 434 1759 690 2068 
Q 947 2378 1403 2484 
z
M 1172 3481 
Q 1172 3119 1398 2916 
Q 1625 2713 2034 2713 
Q 2441 2713 2670 2916 
Q 2900 3119 2900 3481 
Q 2900 3844 2670 4047 
Q 2441 4250 2034 4250 
Q 1625 4250 1398 4047 
Q 1172 3844 1172 3481 
z
" transform="scale(0.015625)"/>
       </defs>
       <use xlink:href="#DejaVuSans-38"/>
       <use xlink:href="#DejaVuSans-30" x="63.623047"/>
       <use xlink:href="#DejaVuSans-30" x="127.246094"/>
       <use xlink:href="#DejaVuSans-30" x="190.869141"/>
      </g>
     </g>
    </g>
    <g id="xtick_6">
     <g id="line2d_11">
      <path d="M 398.519741 307.584 
L 398.519741 41.472 
" clip-path="url(#p83c55496b0)" style="fill: none; stroke: #b0b0b0; stroke-width: 0.8; stroke-linecap: square"/>
     </g>
     <g id="line2d_12">
      <g>
       <use xlink:href="#maf236a8d8e" x="398.519741" y="307.584" style="stroke: #000000; stroke-width: 0.8"/>
      </g>
     </g>
     <g id="text_6">
      <!-- 10000 -->
      <g transform="translate(382.613491 322.182437) scale(0.1 -0.1)">
       <defs>
        <path id="DejaVuSans-31" d="M 794 531 
L 1825 531 
L 1825 4091 
L 703 3866 
L 703 4441 
L 1819 4666 
L 2450 4666 
L 2450 531 
L 3481 531 
L 3481 0 
L 794 0 
L 794 531 
z
" transform="scale(0.015625)"/>
       </defs>
       <use xlink:href="#DejaVuSans-31"/>
       <use xlink:href="#DejaVuSans-30" x="63.623047"/>
       <use xlink:href="#DejaVuSans-30" x="127.246094"/>
       <use xlink:href="#DejaVuSans-30" x="190.869141"/>
       <use xlink:href="#DejaVuSans-30" x="254.492188"/>
      </g>
     </g>
    </g>
    <g id="text_7">
     <!-- Steps -->
     <g transform="translate(222.170156 335.860562) scale(0.1 -0.1)">
      <defs>
       <path id="DejaVuSans-53" d="M 3425 4513 
L 3425 3897 
Q 3066 4069 2747 4153 
Q 2428 4238 2131 4238 
Q 1616 4238 1336 4038 
Q 1056 3838 1056 3469 
Q 1056 3159 1242 3001 
Q 1428 2844 1947 2747 
L 2328 2669 
Q 3034 2534 3370 2195 
Q 3706 1856 3706 1288 
Q 3706 609 3251 259 
Q 2797 -91 1919 -91 
Q 1588 -91 1214 -16 
Q 841 59 441 206 
L 441 856 
Q 825 641 1194 531 
Q 1563 422 1919 422 
Q 2459 422 2753 634 
Q 3047 847 3047 1241 
Q 3047 1584 2836 1778 
Q 2625 1972 2144 2069 
L 1759 2144 
Q 1053 2284 737 2584 
Q 422 2884 422 3419 
Q 422 4038 858 4394 
Q 1294 4750 2059 4750 
Q 2388 4750 2728 4690 
Q 3069 4631 3425 4513 
z
" transform="scale(0.015625)"/>
       <path id="DejaVuSans-74" d="M 1172 4494 
L 1172 3500 
L 2356 3500 
L 2356 3053 
L 1172 3053 
L 1172 1153 
Q 1172 725 1289 603 
Q 1406 481 1766 481 
L 2356 481 
L 2356 0 
L 1766 0 
Q 1100 0 847 248 
Q 594 497 594 1153 
L 594 3053 
L 172 3053 
L 172 3500 
L 594 3500 
L 594 4494 
L 1172 4494 
z
" transform="scale(0.015625)"/>
       <path id="DejaVuSans-65" d="M 3597 1894 
L 3597 1613 
L 953 1613 
Q 991 1019 1311 708 
Q 1631 397 2203 397 
Q 2534 397 2845 478 
Q 3156 559 3463 722 
L 3463 178 
Q 3153 47 2828 -22 
Q 2503 -91 2169 -91 
Q 1331 -91 842 396 
Q 353 884 353 1716 
Q 353 2575 817 3079 
Q 1281 3584 2069 3584 
Q 2775 3584 3186 3129 
Q 3597 2675 3597 1894 
z
M 3022 2063 
Q 3016 2534 2758 2815 
Q 2500 3097 2075 3097 
Q 1594 3097 1305 2825 
Q 1016 2553 972 2059 
L 3022 2063 
z
" transform="scale(0.015625)"/>
       <path id="DejaVuSans-70" d="M 1159 525 
L 1159 -1331 
L 581 -1331 
L 581 3500 
L 1159 3500 
L 1159 2969 
Q 1341 3281 1617 3432 
Q 1894 3584 2278 3584 
Q 2916 3584 3314 3078 
Q 3713 2572 3713 1747 
Q 3713 922 3314 415 
Q 2916 -91 2278 -91 
Q 1894 -91 1617 61 
Q 1341 213 1159 525 
z
M 3116 1747 
Q 3116 2381 2855 2742 
Q 2594 3103 2138 3103 
Q 1681 3103 1420 2742 
Q 1159 2381 1159 1747 
Q 1159 1113 1420 752 
Q 1681 391 2138 391 
Q 2594 391 2855 752 
Q 3116 1113 3116 1747 
z
" transform="scale(0.015625)"/>
       <path id="DejaVuSans-73" d="M 2834 3397 
L 2834 2853 
Q 2591 2978 2328 3040 
Q 2066 3103 1784 3103 
Q 1356 3103 1142 2972 
Q 928 2841 928 2578 
Q 928 2378 1081 2264 
Q 1234 2150 1697 2047 
L 1894 2003 
Q 2506 1872 2764 1633 
Q 3022 1394 3022 966 
Q 3022 478 2636 193 
Q 2250 -91 1575 -91 
Q 1294 -91 989 -36 
Q 684 19 347 128 
L 347 722 
Q 666 556 975 473 
Q 1284 391 1588 391 
Q 1994 391 2212 530 
Q 2431 669 2431 922 
Q 2431 1156 2273 1281 
Q 2116 1406 1581 1522 
L 1381 1569 
Q 847 1681 609 1914 
Q 372 2147 372 2553 
Q 372 3047 722 3315 
Q 1072 3584 1716 3584 
Q 2034 3584 2315 3537 
Q 2597 3491 2834 3397 
z
" transform="scale(0.015625)"/>
      </defs>
      <use xlink:href="#DejaVuSans-53"/>
      <use xlink:href="#DejaVuSans-74" x="63.476562"/>
      <use xlink:href="#DejaVuSans-65" x="102.685547"/>
      <use xlink:href="#DejaVuSans-70" x="164.208984"/>
      <use xlink:href="#DejaVuSans-73" x="227.685547"/>
     </g>
    </g>
   </g>
   <g id="matplotlib.axis_2">
    <g id="ytick_1">
     <g id="line2d_13">
      <path d="M 57.6 295.831778 
L 414.72 295.831778 
" clip-path="url(#p83c55496b0)" style="fill: none; stroke: #b0b0b0; stroke-width: 0.8; stroke-linecap: square"/>
     </g>
     <g id="line2d_14">
      <defs>
       <path id="ma3f9232494" d="M 0 0 
L -3.5 0 
" style="stroke: #000000; stroke-width: 0.8"/>
      </defs>
      <g>
       <use xlink:href="#ma3f9232494" x="57.6" y="295.831778" style="stroke: #000000; stroke-width: 0.8"/>
      </g>
     </g>
     <g id="text_8">
      <!-- 0.00 -->
      <g transform="translate(28.334375 299.630997) scale(0.1 -0.1)">
       <defs>
        <path id="DejaVuSans-2e" d="M 684 794 
L 1344 794 
L 1344 0 
L 684 0 
L 684 794 
z
" transform="scale(0.015625)"/>
       </defs>
       <use xlink:href="#DejaVuSans-30"/>
       <use xlink:href="#DejaVuSans-2e" x="63.623047"/>
       <use xlink:href="#DejaVuSans-30" x="95.410156"/>
       <use xlink:href="#DejaVuSans-30" x="159.033203"/>
      </g>
     </g>
    </g>
    <g id="ytick_2">
     <g id="line2d_15">
      <path d="M 57.6 261.93229 
L 414.72 261.93229 
" clip-path="url(#p83c55496b0)" style="fill: none; stroke: #b0b0b0; stroke-width: 0.8; stroke-linecap: square"/>
     </g>
     <g id="line2d_16">
      <g>
       <use xlink:href="#ma3f9232494" x="57.6" y="261.93229" style="stroke: #000000; stroke-width: 0.8"/>
      </g>
     </g>
     <g id="text_9">
      <!-- 0.05 -->
      <g transform="translate(28.334375 265.731509) scale(0.1 -0.1)">
       <defs>
        <path id="DejaVuSans-35" d="M 691 4666 
L 3169 4666 
L 3169 4134 
L 1269 4134 
L 1269 2991 
Q 1406 3038 1543 3061 
Q 1681 3084 1819 3084 
Q 2600 3084 3056 2656 
Q 3513 2228 3513 1497 
Q 3513 744 3044 326 
Q 2575 -91 1722 -91 
Q 1428 -91 1123 -41 
Q 819 9 494 109 
L 494 744 
Q 775 591 1075 516 
Q 1375 441 1709 441 
Q 2250 441 2565 725 
Q 2881 1009 2881 1497 
Q 2881 1984 2565 2268 
Q 2250 2553 1709 2553 
Q 1456 2553 1204 2497 
Q 953 2441 691 2322 
L 691 4666 
z
" transform="scale(0.015625)"/>
       </defs>
       <use xlink:href="#DejaVuSans-30"/>
       <use xlink:href="#DejaVuSans-2e" x="63.623047"/>
       <use xlink:href="#DejaVuSans-30" x="95.410156"/>
       <use xlink:href="#DejaVuSans-35" x="159.033203"/>
      </g>
     </g>
    </g>
    <g id="ytick_3">
     <g id="line2d_17">
      <path d="M 57.6 228.032802 
L 414.72 228.032802 
" clip-path="url(#p83c55496b0)" style="fill: none; stroke: #b0b0b0; stroke-width: 0.8; stroke-linecap: square"/>
     </g>
     <g id="line2d_18">
      <g>
       <use xlink:href="#ma3f9232494" x="57.6" y="228.032802" style="stroke: #000000; stroke-width: 0.8"/>
      </g>
     </g>
     <g id="text_10">
      <!-- 0.10 -->
      <g transform="translate(28.334375 231.832021) scale(0.1 -0.1)">
       <use xlink:href="#DejaVuSans-30"/>
       <use xlink:href="#DejaVuSans-2e" x="63.623047"/>
       <use xlink:href="#DejaVuSans-31" x="95.410156"/>
       <use xlink:href="#DejaVuSans-30" x="159.033203"/>
      </g>
     </g>
    </g>
    <g id="ytick_4">
     <g id="line2d_19">
      <path d="M 57.6 194.133314 
L 414.72 194.133314 
" clip-path="url(#p83c55496b0)" style="fill: none; stroke: #b0b0b0; stroke-width: 0.8; stroke-linecap: square"/>
     </g>
     <g id="line2d_20">
      <g>
       <use xlink:href="#ma3f9232494" x="57.6" y="194.133314" style="stroke: #000000; stroke-width: 0.8"/>
      </g>
     </g>
     <g id="text_11">
      <!-- 0.15 -->
      <g transform="translate(28.334375 197.932532) scale(0.1 -0.1)">
       <use xlink:href="#DejaVuSans-30"/>
       <use xlink:href="#DejaVuSans-2e" x="63.623047"/>
       <use xlink:href="#DejaVuSans-31" x="95.410156"/>
       <use xlink:href="#DejaVuSans-35" x="159.033203"/>
      </g>
     </g>
    </g>
    <g id="ytick_5">
     <g id="line2d_21">
      <path d="M 57.6 160.233825 
L 414.72 160.233825 
" clip-path="url(#p83c55496b0)" style="fill: none; stroke: #b0b0b0; stroke-width: 0.8; stroke-linecap: square"/>
     </g>
     <g id="line2d_22">
      <g>
       <use xlink:href="#ma3f9232494" x="57.6" y="160.233825" style="stroke: #000000; stroke-width: 0.8"/>
      </g>
     </g>
     <g id="text_12">
      <!-- 0.20 -->
      <g transform="translate(28.334375 164.033044) scale(0.1 -0.1)">
       <use xlink:href="#DejaVuSans-30"/>
       <use xlink:href="#DejaVuSans-2e" x="63.623047"/>
       <use xlink:href="#DejaVuSans-32" x="95.410156"/>
       <use xlink:href="#DejaVuSans-30" x="159.033203"/>
      </g>
     </g>
    </g>
    <g id="ytick_6">
     <g id="line2d_23">
      <path d="M 57.6 126.334337 
L 414.72 126.334337 
" clip-path="url(#p83c55496b0)" style="fill: none; stroke: #b0b0b0; stroke-width: 0.8; stroke-linecap: square"/>
     </g>
     <g id="line2d_24">
      <g>
       <use xlink:href="#ma3f9232494" x="57.6" y="126.334337" style="stroke: #000000; stroke-width: 0.8"/>
      </g>
     </g>
     <g id="text_13">
      <!-- 0.25 -->
      <g transform="translate(28.334375 130.133556) scale(0.1 -0.1)">
       <use xlink:href="#DejaVuSans-30"/>
       <use xlink:href="#DejaVuSans-2e" x="63.623047"/>
       <use xlink:href="#DejaVuSans-32" x="95.410156"/>
       <use xlink:href="#DejaVuSans-35" x="159.033203"/>
      </g>
     </g>
    </g>
    <g id="ytick_7">
     <g id="line2d_25">
      <path d="M 57.6 92.434849 
L 414.72 92.434849 
" clip-path="url(#p83c55496b0)" style="fill: none; stroke: #b0b0b0; stroke-width: 0.8; stroke-linecap: square"/>
     </g>
     <g id="line2d_26">
      <g>
       <use xlink:href="#ma3f9232494" x="57.6" y="92.434849" style="stroke: #000000; stroke-width: 0.8"/>
      </g>
     </g>
     <g id="text_14">
      <!-- 0.30 -->
      <g transform="translate(28.334375 96.234068) scale(0.1 -0.1)">
       <defs>
        <path id="DejaVuSans-33" d="M 2597 2516 
Q 3050 2419 3304 2112 
Q 3559 1806 3559 1356 
Q 3559 666 3084 287 
Q 2609 -91 1734 -91 
Q 1441 -91 1130 -33 
Q 819 25 488 141 
L 488 750 
Q 750 597 1062 519 
Q 1375 441 1716 441 
Q 2309 441 2620 675 
Q 2931 909 2931 1356 
Q 2931 1769 2642 2001 
Q 2353 2234 1838 2234 
L 1294 2234 
L 1294 2753 
L 1863 2753 
Q 2328 2753 2575 2939 
Q 2822 3125 2822 3475 
Q 2822 3834 2567 4026 
Q 2313 4219 1838 4219 
Q 1578 4219 1281 4162 
Q 984 4106 628 3988 
L 628 4550 
Q 988 4650 1302 4700 
Q 1616 4750 1894 4750 
Q 2613 4750 3031 4423 
Q 3450 4097 3450 3541 
Q 3450 3153 3228 2886 
Q 3006 2619 2597 2516 
z
" transform="scale(0.015625)"/>
       </defs>
       <use xlink:href="#DejaVuSans-30"/>
       <use xlink:href="#DejaVuSans-2e" x="63.623047"/>
       <use xlink:href="#DejaVuSans-33" x="95.410156"/>
       <use xlink:href="#DejaVuSans-30" x="159.033203"/>
      </g>
     </g>
    </g>
    <g id="ytick_8">
     <g id="line2d_27">
      <path d="M 57.6 58.535361 
L 414.72 58.535361 
" clip-path="url(#p83c55496b0)" style="fill: none; stroke: #b0b0b0; stroke-width: 0.8; stroke-linecap: square"/>
     </g>
     <g id="line2d_28">
      <g>
       <use xlink:href="#ma3f9232494" x="57.6" y="58.535361" style="stroke: #000000; stroke-width: 0.8"/>
      </g>
     </g>
     <g id="text_15">
      <!-- 0.35 -->
      <g transform="translate(28.334375 62.33458) scale(0.1 -0.1)">
       <use xlink:href="#DejaVuSans-30"/>
       <use xlink:href="#DejaVuSans-2e" x="63.623047"/>
       <use xlink:href="#DejaVuSans-33" x="95.410156"/>
       <use xlink:href="#DejaVuSans-35" x="159.033203"/>
      </g>
     </g>
    </g>
    <g id="text_16">
     <!-- Mean Velocity Magnitude -->
     <g transform="translate(22.254687 237.435031) rotate(-90) scale(0.1 -0.1)">
      <defs>
       <path id="DejaVuSans-4d" d="M 628 4666 
L 1569 4666 
L 2759 1491 
L 3956 4666 
L 4897 4666 
L 4897 0 
L 4281 0 
L 4281 4097 
L 3078 897 
L 2444 897 
L 1241 4097 
L 1241 0 
L 628 0 
L 628 4666 
z
" transform="scale(0.015625)"/>
       <path id="DejaVuSans-61" d="M 2194 1759 
Q 1497 1759 1228 1600 
Q 959 1441 959 1056 
Q 959 750 1161 570 
Q 1363 391 1709 391 
Q 2188 391 2477 730 
Q 2766 1069 2766 1631 
L 2766 1759 
L 2194 1759 
z
M 3341 1997 
L 3341 0 
L 2766 0 
L 2766 531 
Q 2569 213 2275 61 
Q 1981 -91 1556 -91 
Q 1019 -91 701 211 
Q 384 513 384 1019 
Q 384 1609 779 1909 
Q 1175 2209 1959 2209 
L 2766 2209 
L 2766 2266 
Q 2766 2663 2505 2880 
Q 2244 3097 1772 3097 
Q 1472 3097 1187 3025 
Q 903 2953 641 2809 
L 641 3341 
Q 956 3463 1253 3523 
Q 1550 3584 1831 3584 
Q 2591 3584 2966 3190 
Q 3341 2797 3341 1997 
z
" transform="scale(0.015625)"/>
       <path id="DejaVuSans-6e" d="M 3513 2113 
L 3513 0 
L 2938 0 
L 2938 2094 
Q 2938 2591 2744 2837 
Q 2550 3084 2163 3084 
Q 1697 3084 1428 2787 
Q 1159 2491 1159 1978 
L 1159 0 
L 581 0 
L 581 3500 
L 1159 3500 
L 1159 2956 
Q 1366 3272 1645 3428 
Q 1925 3584 2291 3584 
Q 2894 3584 3203 3211 
Q 3513 2838 3513 2113 
z
" transform="scale(0.015625)"/>
       <path id="DejaVuSans-20" transform="scale(0.015625)"/>
       <path id="DejaVuSans-56" d="M 1831 0 
L 50 4666 
L 709 4666 
L 2188 738 
L 3669 4666 
L 4325 4666 
L 2547 0 
L 1831 0 
z
" transform="scale(0.015625)"/>
       <path id="DejaVuSans-6c" d="M 603 4863 
L 1178 4863 
L 1178 0 
L 603 0 
L 603 4863 
z
" transform="scale(0.015625)"/>
       <path id="DejaVuSans-6f" d="M 1959 3097 
Q 1497 3097 1228 2736 
Q 959 2375 959 1747 
Q 959 1119 1226 758 
Q 1494 397 1959 397 
Q 2419 397 2687 759 
Q 2956 1122 2956 1747 
Q 2956 2369 2687 2733 
Q 2419 3097 1959 3097 
z
M 1959 3584 
Q 2709 3584 3137 3096 
Q 3566 2609 3566 1747 
Q 3566 888 3137 398 
Q 2709 -91 1959 -91 
Q 1206 -91 779 398 
Q 353 888 353 1747 
Q 353 2609 779 3096 
Q 1206 3584 1959 3584 
z
" transform="scale(0.015625)"/>
       <path id="DejaVuSans-63" d="M 3122 3366 
L 3122 2828 
Q 2878 2963 2633 3030 
Q 2388 3097 2138 3097 
Q 1578 3097 1268 2742 
Q 959 2388 959 1747 
Q 959 1106 1268 751 
Q 1578 397 2138 397 
Q 2388 397 2633 464 
Q 2878 531 3122 666 
L 3122 134 
Q 2881 22 2623 -34 
Q 2366 -91 2075 -91 
Q 1284 -91 818 406 
Q 353 903 353 1747 
Q 353 2603 823 3093 
Q 1294 3584 2113 3584 
Q 2378 3584 2631 3529 
Q 2884 3475 3122 3366 
z
" transform="scale(0.015625)"/>
       <path id="DejaVuSans-69" d="M 603 3500 
L 1178 3500 
L 1178 0 
L 603 0 
L 603 3500 
z
M 603 4863 
L 1178 4863 
L 1178 4134 
L 603 4134 
L 603 4863 
z
" transform="scale(0.015625)"/>
       <path id="DejaVuSans-79" d="M 2059 -325 
Q 1816 -950 1584 -1140 
Q 1353 -1331 966 -1331 
L 506 -1331 
L 506 -850 
L 844 -850 
Q 1081 -850 1212 -737 
Q 1344 -625 1503 -206 
L 1606 56 
L 191 3500 
L 800 3500 
L 1894 763 
L 2988 3500 
L 3597 3500 
L 2059 -325 
z
" transform="scale(0.015625)"/>
       <path id="DejaVuSans-67" d="M 2906 1791 
Q 2906 2416 2648 2759 
Q 2391 3103 1925 3103 
Q 1463 3103 1205 2759 
Q 947 2416 947 1791 
Q 947 1169 1205 825 
Q 1463 481 1925 481 
Q 2391 481 2648 825 
Q 2906 1169 2906 1791 
z
M 3481 434 
Q 3481 -459 3084 -895 
Q 2688 -1331 1869 -1331 
Q 1566 -1331 1297 -1286 
Q 1028 -1241 775 -1147 
L 775 -588 
Q 1028 -725 1275 -790 
Q 1522 -856 1778 -856 
Q 2344 -856 2625 -561 
Q 2906 -266 2906 331 
L 2906 616 
Q 2728 306 2450 153 
Q 2172 0 1784 0 
Q 1141 0 747 490 
Q 353 981 353 1791 
Q 353 2603 747 3093 
Q 1141 3584 1784 3584 
Q 2172 3584 2450 3431 
Q 2728 3278 2906 2969 
L 2906 3500 
L 3481 3500 
L 3481 434 
z
" transform="scale(0.015625)"/>
       <path id="DejaVuSans-75" d="M 544 1381 
L 544 3500 
L 1119 3500 
L 1119 1403 
Q 1119 906 1312 657 
Q 1506 409 1894 409 
Q 2359 409 2629 706 
Q 2900 1003 2900 1516 
L 2900 3500 
L 3475 3500 
L 3475 0 
L 2900 0 
L 2900 538 
Q 2691 219 2414 64 
Q 2138 -91 1772 -91 
Q 1169 -91 856 284 
Q 544 659 544 1381 
z
M 1991 3584 
L 1991 3584 
z
" transform="scale(0.015625)"/>
       <path id="DejaVuSans-64" d="M 2906 2969 
L 2906 4863 
L 3481 4863 
L 3481 0 
L 2906 0 
L 2906 525 
Q 2725 213 2448 61 
Q 2172 -91 1784 -91 
Q 1150 -91 751 415 
Q 353 922 353 1747 
Q 353 2572 751 3078 
Q 1150 3584 1784 3584 
Q 2172 3584 2448 3432 
Q 2725 3281 2906 2969 
z
M 947 1747 
Q 947 1113 1208 752 
Q 1469 391 1925 391 
Q 2381 391 2643 752 
Q 2906 1113 2906 1747 
Q 2906 2381 2643 2742 
Q 2381 3103 1925 3103 
Q 1469 3103 1208 2742 
Q 947 2381 947 1747 
z
" transform="scale(0.015625)"/>
      </defs>
      <use xlink:href="#DejaVuSans-4d"/>
      <use xlink:href="#DejaVuSans-65" x="86.279297"/>
      <use xlink:href="#DejaVuSans-61" x="147.802734"/>
      <use xlink:href="#DejaVuSans-6e" x="209.082031"/>
      <use xlink:href="#DejaVuSans-20" x="272.460938"/>
      <use xlink:href="#DejaVuSans-56" x="304.248047"/>
      <use xlink:href="#DejaVuSans-65" x="364.90625"/>
      <use xlink:href="#DejaVuSans-6c" x="426.429688"/>
      <use xlink:href="#DejaVuSans-6f" x="454.212891"/>
      <use xlink:href="#DejaVuSans-63" x="515.394531"/>
      <use xlink:href="#DejaVuSans-69" x="570.375"/>
      <use xlink:href="#DejaVuSans-74" x="598.158203"/>
      <use xlink:href="#DejaVuSans-79" x="637.367188"/>
      <use xlink:href="#DejaVuSans-20" x="696.546875"/>
      <use xlink:href="#DejaVuSans-4d" x="728.333984"/>
      <use xlink:href="#DejaVuSans-61" x="814.613281"/>
      <use xlink:href="#DejaVuSans-67" x="875.892578"/>
      <use xlink:href="#DejaVuSans-6e" x="939.369141"/>
      <use xlink:href="#DejaVuSans-69" x="1002.748047"/>
      <use xlink:href="#DejaVuSans-74" x="1030.53125"/>
      <use xlink:href="#DejaVuSans-75" x="1069.740234"/>
      <use xlink:href="#DejaVuSans-64" x="1133.119141"/>
      <use xlink:href="#DejaVuSans-65" x="1196.595703"/>
     </g>
    </g>
   </g>
   <g id="line2d_29">
    <path d="M 73.832727 263.612667 
L 74.060008 258.839945 
L 74.547039 250.921585 
L 74.579507 250.905228 
L 74.676914 251.738625 
L 75.131475 258.547816 
L 75.553568 265.798875 
L 75.618506 266.044037 
L 75.650975 266.03548 
L 75.813318 263.977352 
L 76.430223 250.416228 
L 76.917254 236.543258 
L 77.956252 212.058002 
L 78.151065 211.084937 
L 78.183533 211.094714 
L 78.248471 211.019665 
L 78.378345 209.940993 
L 78.540689 208.573908 
L 78.573158 208.597507 
L 78.670564 209.278851 
L 78.897845 213.313912 
L 80.553748 249.312606 
L 80.683623 249.695539 
L 81.040779 252.415747 
L 81.235591 256.960093 
L 81.690153 274.447704 
L 82.079777 293.975233 
L 82.112246 293.522468 
L 83.053838 265.505662 
L 83.540869 259.977005 
L 83.735681 258.812705 
L 83.962962 255.36568 
L 84.190243 253.628024 
L 84.644805 251.519491 
L 84.937023 246.529146 
L 85.586397 234.490627 
L 85.748741 231.982165 
L 86.040959 222.334342 
L 86.657864 200.988645 
L 87.112426 189.590652 
L 87.7618 165.574914 
L 88.898205 123.074577 
L 89.190423 114.029059 
L 89.482641 111.501436 
L 90.099547 108.178921 
L 90.132015 108.289951 
L 90.26189 110.271311 
L 90.586577 114.421486 
L 90.716452 114.815982 
L 90.813858 114.840348 
L 91.00867 115.91693 
L 91.073608 115.850963 
L 91.26842 114.763323 
L 91.820388 109.438579 
L 91.852857 109.481188 
L 91.982731 110.147289 
L 92.0152 110.044335 
L 92.177544 107.644242 
L 92.664574 97.614622 
L 93.638635 70.249172 
L 94.612696 55.825967 
L 94.807508 54.312754 
L 94.839977 54.470192 
L 94.904914 54.654657 
L 94.937383 54.570581 
L 95.067258 54.278561 
L 95.099727 54.303108 
L 95.197133 54.362572 
L 95.229602 54.296416 
L 95.391945 53.568 
L 95.424414 53.898982 
L 95.586757 55.274413 
L 95.814038 62.06346 
L 96.430943 77.721314 
L 96.690693 80.459616 
L 97.242661 86.54398 
L 97.372536 87.687091 
L 98.346597 103.674595 
L 98.476472 104.110242 
L 98.50894 104.015242 
L 99.060908 100.961349 
L 99.320658 103.801842 
L 99.547939 111.186668 
L 99.937563 121.304088 
L 100.067438 124.810529 
L 100.554469 139.72016 
L 100.586937 139.782127 
L 100.716812 137.706899 
L 101.203843 123.427461 
L 101.593467 114.711676 
L 101.690873 114.042033 
L 101.723342 114.232051 
L 101.885685 118.010054 
L 102.307778 127.847932 
L 102.502591 128.658805 
L 102.567528 128.512815 
L 102.664934 128.32801 
L 102.697403 128.384006 
L 102.924684 129.235584 
L 102.989621 129.066322 
L 103.151965 127.178 
L 103.801339 117.420645 
L 103.963682 116.678254 
L 104.2559 118.238363 
L 104.51565 119.67319 
L 104.710462 120.211839 
L 104.7754 120.173291 
L 104.807868 120.218781 
L 104.937743 120.852503 
L 105.26243 123.646811 
L 105.457242 128.697821 
L 107.145615 182.940836 
L 107.892395 194.15748 
L 107.924864 194.0381 
L 108.152145 188.770753 
L 108.574238 178.813865 
L 108.866456 174.708366 
L 108.931394 174.935691 
L 109.256081 177.231742 
L 109.483361 181.482805 
L 109.710642 184.12513 
L 109.77558 184.210813 
L 109.808048 184.153176 
L 110.067798 183.178173 
L 110.100267 183.213582 
L 110.197673 183.892249 
L 110.457422 188.5939 
L 110.976922 197.944865 
L 111.171734 199.860421 
L 111.236671 199.946715 
L 111.26914 199.921169 
L 111.431484 197.88483 
L 111.821108 192.764693 
L 112.27567 190.243352 
L 112.600357 187.912289 
L 112.632825 187.894421 
L 112.665294 187.982732 
L 113.282199 192.401629 
L 113.639355 199.539316 
L 113.964042 205.987465 
L 114.191323 209.328045 
L 114.51601 218.302897 
L 114.873166 228.879273 
L 115.165384 232.17267 
L 115.197853 232.272358 
L 115.230322 232.243096 
L 115.392665 230.791241 
L 115.717352 227.943112 
L 115.78229 228.327015 
L 116.00957 233.043862 
L 116.204383 238.881809 
L 116.52907 245.966647 
L 116.658944 248.641568 
L 116.983631 256.244376 
L 117.697943 263.979115 
L 117.827818 264.410357 
L 118.184973 263.799116 
L 118.28238 263.864068 
L 118.574598 266.792109 
L 119.02916 274.181666 
L 119.094097 274.112027 
L 119.159034 274.01524 
L 119.353847 272.575746 
L 119.938283 263.736181 
L 120.26297 253.738685 
L 121.626656 216.015471 
L 122.113686 208.276326 
L 122.600717 203.573854 
L 122.633186 203.685725 
L 122.698123 203.632898 
L 122.957873 201.941822 
L 123.379966 196.391894 
L 123.477372 196.073026 
L 123.50984 196.093141 
L 123.639715 196.133663 
L 123.737121 195.75421 
L 123.76959 195.806523 
L 123.996871 197.728563 
L 124.02934 197.504081 
L 124.354027 194.842462 
L 124.451433 194.650149 
L 124.483901 194.705396 
L 124.808588 196.199159 
L 125.425494 205.004989 
L 125.5229 204.583154 
L 125.944993 205.856708 
L 126.107337 208.610042 
L 127.535959 240.495472 
L 127.860646 247.691272 
L 128.347677 259.197467 
L 128.412614 259.469864 
L 128.445083 259.407153 
L 128.574958 257.995759 
L 128.867176 254.669902 
L 128.932114 254.489341 
L 128.997051 254.596851 
L 129.061988 254.901414 
L 129.094457 254.735575 
L 129.159394 254.576127 
L 129.191863 254.587712 
L 129.354207 256.225685 
L 129.743831 267.984391 
L 130.003581 273.591431 
L 130.295799 275.964746 
L 130.490611 276.702991 
L 130.620486 277.316343 
L 130.652955 277.199094 
L 130.847767 276.551023 
L 131.237391 276.008461 
L 131.302329 275.956596 
L 131.334797 276.011009 
L 131.464672 277.32432 
L 131.886765 284.786363 
L 131.984172 284.651 
L 132.049109 284.712473 
L 132.243921 283.426574 
L 132.406265 282.936715 
L 132.666014 281.6829 
L 132.698483 281.749158 
L 132.828358 282.429816 
L 132.990701 283.104302 
L 133.02317 283.066497 
L 133.185513 282.074739 
L 133.542669 279.398102 
L 133.964762 272.45793 
L 135.068698 247.149706 
L 135.425854 242.706672 
L 135.718072 241.879943 
L 136.01029 236.282602 
L 136.399915 229.300176 
L 136.562258 228.740998 
L 136.822008 228.30008 
L 137.01682 228.401406 
L 137.244101 225.330305 
L 137.893475 215.078972 
L 137.925944 215.131759 
L 137.990881 215.63074 
L 138.51038 222.359887 
L 139.159755 230.783438 
L 139.581848 235.983916 
L 139.679254 236.197323 
L 139.744191 236.290256 
L 139.77666 236.258813 
L 139.906535 235.457104 
L 140.003941 234.89637 
L 140.036409 235.033994 
L 140.198753 236.724123 
L 140.393565 242.917246 
L 140.750721 253.204081 
L 141.237751 260.276335 
L 141.497501 261.878846 
L 141.562438 261.773819 
L 141.984532 259.921881 
L 142.017 259.944304 
L 142.114406 260.58065 
L 142.439093 263.680681 
L 142.601437 265.144613 
L 143.153405 271.879695 
L 143.543029 277.240113 
L 143.607967 277.541535 
L 143.640435 277.4946 
L 143.997591 275.875358 
L 144.03006 276.011494 
L 144.127466 276.317258 
L 144.192403 276.255484 
L 144.289809 276.376114 
L 144.419684 277.047426 
L 144.646965 277.986105 
L 144.744371 278.086399 
L 144.77684 278.053058 
L 144.971652 277.459805 
L 145.036589 277.591906 
L 145.133996 277.673923 
L 145.426214 276.567938 
L 145.458683 276.680619 
L 145.848307 280.009625 
L 146.075588 282.406639 
L 146.205463 282.456942 
L 146.400275 281.790003 
L 146.497681 281.963599 
L 146.627556 282.639734 
L 146.789899 283.470418 
L 146.822368 283.336288 
L 147.244461 279.362439 
L 147.27693 279.39416 
L 147.471742 280.61313 
L 147.796429 284.630546 
L 148.413334 294.210907 
L 148.510741 293.584801 
L 148.77049 291.379398 
L 148.835428 291.450325 
L 149.095177 292.264221 
L 149.127646 292.206335 
L 149.257521 291.493053 
L 149.419864 288.514322 
L 149.744551 276.316954 
L 150.26405 259.360731 
L 150.296519 259.300076 
L 150.328988 259.387878 
L 150.426394 260.327112 
L 150.848487 269.095609 
L 151.173174 275.30774 
L 151.27058 275.03268 
L 151.432924 274.520008 
L 151.465392 274.542889 
L 151.595267 274.310889 
L 151.822548 271.775208 
L 152.634266 264.94908 
L 152.699203 265.019513 
L 152.76414 264.987367 
L 152.958953 263.836636 
L 153.510921 254.896516 
L 153.673264 252.668774 
L 154.290169 242.505781 
L 154.420044 241.857243 
L 154.809669 238.970901 
L 154.842137 238.997367 
L 155.069418 237.16545 
L 155.751261 230.844563 
L 155.816198 230.825476 
L 155.848667 230.899284 
L 155.946073 231.670113 
L 156.400635 236.8996 
L 156.465572 236.84391 
L 156.562978 236.386288 
L 156.822728 234.485914 
L 156.855197 234.75049 
L 157.050009 239.021908 
L 157.569508 249.03128 
L 157.666914 249.698496 
L 157.699383 249.590669 
L 157.829258 248.125077 
L 158.02407 242.278226 
L 158.77085 216.503042 
L 158.998131 214.641841 
L 159.095537 215.112661 
L 159.550099 218.746615 
L 159.582568 218.721408 
L 159.647505 218.588021 
L 160.199473 215.729886 
L 160.231942 215.75956 
L 160.426754 215.879891 
L 160.589097 215.867213 
L 160.686504 216.315399 
L 161.108597 218.052052 
L 161.173534 217.690231 
L 161.498221 215.598062 
L 161.595627 216.001501 
L 161.725502 217.09928 
L 163.316468 240.351299 
L 163.706093 249.214456 
L 164.128186 258.799103 
L 164.290529 259.982923 
L 164.647685 261.98763 
L 165.102247 264.959842 
L 165.394465 269.328516 
L 166.011371 276.763161 
L 166.043839 276.740912 
L 166.141245 276.252669 
L 166.336058 273.617973 
L 166.595807 270.433628 
L 166.660745 270.519204 
L 166.985432 272.945846 
L 167.472462 278.139917 
L 167.667274 278.206658 
L 167.894555 279.142197 
L 168.154305 281.251208 
L 168.414054 285.004601 
L 168.738742 288.846901 
L 168.77121 288.837423 
L 168.868616 288.205309 
L 169.063429 284.483835 
L 169.582928 274.292131 
L 169.77774 273.323174 
L 169.810209 273.377083 
L 170.005021 276.753995 
L 170.589457 289.216626 
L 170.78427 290.64536 
L 170.849207 290.602842 
L 171.076488 289.75989 
L 171.401175 287.107826 
L 172.310299 269.71399 
L 173.02461 264.094731 
L 173.057079 264.102462 
L 173.641515 265.126388 
L 173.673984 265.103747 
L 173.803859 264.863938 
L 173.966202 263.921504 
L 174.875326 256.152646 
L 175.070138 254.575147 
L 175.102607 254.594323 
L 175.232482 254.898697 
L 175.329888 254.804638 
L 175.394825 254.964857 
L 175.557169 256.357372 
L 175.979262 263.429526 
L 176.498761 271.174381 
L 177.083198 276.75492 
L 177.180604 277.276359 
L 177.245541 277.196337 
L 177.375416 276.82917 
L 177.570228 275.461155 
L 177.894915 273.350333 
L 178.02479 272.960012 
L 178.057259 273.026686 
L 178.252071 274.230791 
L 178.544289 275.837718 
L 178.641695 276.036592 
L 178.674164 276.01253 
L 178.868976 274.974873 
L 179.388476 270.946449 
L 179.485882 270.724066 
L 179.51835 270.737659 
L 179.615756 271.112087 
L 179.7781 272.908123 
L 180.167724 280.519873 
L 180.882036 292.517881 
L 180.946973 292.550006 
L 180.979442 292.493225 
L 181.109317 292.010815 
L 181.304129 289.423479 
L 182.050909 278.906549 
L 182.667814 273.870545 
L 182.960033 273.55137 
L 182.992501 273.603942 
L 183.122376 274.282682 
L 183.317188 276.736543 
L 183.966562 286.472414 
L 183.999031 286.468181 
L 184.096437 286.028756 
L 184.258781 283.98657 
L 185.297779 264.119971 
L 185.589998 258.95167 
L 186.012091 251.582359 
L 187.310839 239.388153 
L 187.375776 239.228827 
L 187.440714 239.335106 
L 187.53812 239.119415 
L 187.570588 239.173291 
L 187.700463 240.128804 
L 188.706993 251.31221 
L 188.77193 251.410136 
L 189.096617 253.5413 
L 189.323898 254.104399 
L 189.77846 257.409327 
L 189.843397 257.065181 
L 190.395365 251.184273 
L 190.622646 249.611807 
L 190.817458 249.194681 
L 190.849927 249.245702 
L 191.142145 249.857934 
L 191.239552 249.858865 
L 191.369426 250.552844 
L 191.726582 254.536187 
L 191.921394 255.624302 
L 192.246081 256.659614 
L 192.343487 256.503332 
L 192.862987 253.852789 
L 193.02533 252.972026 
L 193.057799 252.990026 
L 193.220142 253.375872 
L 193.479892 254.173847 
L 193.609767 254.046489 
L 193.77211 253.794731 
L 193.869516 254.083883 
L 194.03186 254.527059 
L 194.064329 254.508279 
L 194.161735 254.410031 
L 194.194203 254.437613 
L 194.29161 254.911347 
L 194.681234 257.175794 
L 194.843577 257.441828 
L 194.876046 257.425333 
L 195.005921 257.089298 
L 195.168264 256.01813 
L 195.752701 249.485644 
L 195.850107 249.564215 
L 195.915045 249.696702 
L 195.947513 249.576746 
L 196.402075 247.695971 
L 196.726762 246.079473 
L 196.954043 245.824945 
L 196.986512 245.855281 
L 197.116387 246.362053 
L 197.506011 249.427098 
L 198.057979 255.631183 
L 198.122916 255.695398 
L 198.155385 255.651353 
L 198.28526 254.964031 
L 198.609947 251.027724 
L 198.902165 248.535708 
L 198.999571 248.848734 
L 199.616477 253.702993 
L 200.882756 274.018364 
L 201.012631 274.396685 
L 201.045099 274.387295 
L 201.434724 273.435831 
L 202.408785 268.47996 
L 202.603597 268.365225 
L 202.733472 268.3874 
L 203.090628 267.41487 
L 203.28544 266.458994 
L 204.129626 260.911046 
L 204.162095 260.946104 
L 204.29197 261.204944 
L 204.389376 261.14838 
L 204.486782 261.363262 
L 204.681594 262.664122 
L 204.973812 266.376201 
L 205.233562 268.608935 
L 205.395905 269.282049 
L 205.460843 269.214056 
L 205.623186 269.237415 
L 205.78553 269.271769 
L 205.915405 269.01501 
L 206.402435 266.995758 
L 206.662185 266.108076 
L 206.79206 266.066784 
L 206.921934 266.306856 
L 207.376496 267.722966 
L 207.441434 267.630209 
L 207.571308 267.032592 
L 208.967463 255.547632 
L 209.0324 255.690223 
L 209.194743 257.097825 
L 209.486962 262.151355 
L 210.071398 273.569646 
L 210.558429 278.014765 
L 210.78571 278.64043 
L 210.915585 278.881975 
L 211.987052 282.763098 
L 212.051989 282.914218 
L 212.084458 282.894159 
L 212.603957 280.361637 
L 212.766301 280.360962 
L 213.2858 281.093259 
L 213.675424 282.074636 
L 213.77283 281.942641 
L 214.162455 280.4076 
L 214.584548 278.614327 
L 214.876766 277.319188 
L 215.136516 274.785629 
L 216.305389 260.729331 
L 216.630076 259.606168 
L 216.79242 259.563923 
L 216.954763 259.635217 
L 216.987232 259.58899 
L 217.182044 258.768324 
L 217.506731 256.737563 
L 218.02623 251.461987 
L 218.643136 245.549568 
L 219.03276 243.913187 
L 219.162635 243.726603 
L 219.195104 243.742324 
L 219.844478 245.390132 
L 220.169165 246.24144 
L 220.623726 246.842962 
L 220.915945 246.924891 
L 221.2731 246.513974 
L 221.435444 246.839176 
L 222.117287 248.985207 
L 222.182224 248.899857 
L 222.344568 248.162768 
L 223.091348 243.684228 
L 223.188754 243.858997 
L 223.383566 245.038066 
L 223.805659 249.54707 
L 224.455033 256.167077 
L 224.877126 257.410527 
L 225.78625 263.373832 
L 225.851187 263.341489 
L 226.208343 263.088979 
L 226.370687 262.807219 
L 226.597967 261.923294 
L 227.377216 257.956828 
L 227.864247 257.313136 
L 228.02659 257.363983 
L 228.221403 257.762526 
L 228.708433 259.452054 
L 228.77337 259.167059 
L 229.7799 255.361702 
L 229.877306 255.288722 
L 229.909775 255.314331 
L 230.03965 255.70884 
L 230.266931 257.494604 
L 230.818899 264.503928 
L 231.27346 268.831461 
L 231.500741 269.457917 
L 231.630616 269.408378 
L 231.857897 268.98117 
L 231.987772 268.312532 
L 232.377396 266.609516 
L 232.53974 266.495652 
L 232.702083 266.750285 
L 232.896896 267.531223 
L 233.189114 269.774894 
L 233.676144 275.505641 
L 234.422924 284.937434 
L 234.552799 285.085659 
L 234.812549 284.707288 
L 235.007361 283.112717 
L 235.591798 277.495485 
L 235.656735 277.48487 
L 235.689204 277.553554 
L 235.819079 278.304989 
L 236.078828 281.641475 
L 236.955483 295.488 
L 236.987952 295.434515 
L 237.767201 290.411113 
L 238.059419 290.101267 
L 238.189294 290.268301 
L 238.481512 290.739144 
L 238.513981 290.717819 
L 238.643856 290.383978 
L 238.968543 288.528575 
L 239.845198 283.020024 
L 240.397166 282.132175 
L 240.559509 282.182828 
L 240.754321 282.560587 
L 241.143946 283.927409 
L 241.988132 287.969757 
L 242.345288 290.344498 
L 242.767381 293.00302 
L 243.124536 293.283612 
L 243.221943 293.120794 
L 243.384286 292.134082 
L 243.741442 287.940908 
L 244.29341 281.899355 
L 244.650565 279.7846 
L 244.812909 279.584705 
L 244.845378 279.600457 
L 244.975252 279.849418 
L 245.202533 280.892917 
L 245.494752 283.41594 
L 245.949313 287.979896 
L 246.338938 290.189432 
L 246.598688 290.749536 
L 246.761031 290.842682 
L 246.890906 290.532157 
L 247.118187 289.205235 
L 247.572749 284.751063 
L 248.02731 281.018316 
L 248.222123 280.648755 
L 248.319529 280.796258 
L 248.514341 281.737652 
L 248.871497 285.007187 
L 249.358527 289.189116 
L 249.488402 289.40469 
L 249.520871 289.355793 
L 249.650745 288.738373 
L 249.910495 285.965305 
L 250.657275 277.559832 
L 250.917025 276.734238 
L 251.079368 276.75941 
L 251.436524 277.303598 
L 251.891086 278.399676 
L 252.183304 278.820748 
L 252.313179 278.714169 
L 252.507991 278.148195 
L 252.832678 276.330983 
L 253.644396 271.450168 
L 254.131426 269.15998 
L 255.008081 264.87665 
L 255.267831 264.533243 
L 255.592518 264.59518 
L 255.754861 264.491499 
L 255.949674 263.992574 
L 256.209423 262.563519 
L 256.858797 257.163085 
L 257.670515 251.209218 
L 258.384826 247.485329 
L 258.871857 245.893008 
L 259.553699 244.094758 
L 259.845918 242.021991 
L 260.657635 235.349872 
L 260.755041 235.285902 
L 260.78751 235.312234 
L 260.917385 235.634263 
L 261.209603 237.22909 
L 261.664165 239.497518 
L 261.891446 239.76426 
L 262.28107 239.906571 
L 262.475882 240.401671 
L 262.735632 241.781989 
L 263.02785 244.685769 
L 263.417475 251.191066 
L 264.618817 273.160358 
L 265.268191 282.682481 
L 265.917565 292.492249 
L 266.014971 291.84596 
L 266.307189 287.10519 
L 267.248782 267.691256 
L 268.060499 251.487593 
L 268.417655 248.058667 
L 268.644936 247.368188 
L 268.774811 247.370165 
L 269.002091 247.76012 
L 269.359247 248.316042 
L 269.521591 248.255286 
L 269.748872 247.843571 
L 270.268371 246.883527 
L 270.430714 246.969068 
L 270.625527 247.453221 
L 270.982682 249.206324 
L 271.469713 251.336879 
L 271.664525 251.525319 
L 271.7944 251.35508 
L 271.989212 250.640812 
L 272.346368 248.206397 
L 273.255491 241.703071 
L 274.911395 232.019056 
L 276.015331 224.334369 
L 276.145206 224.189965 
L 276.177674 224.207116 
L 276.307549 224.494285 
L 276.53483 225.797632 
L 276.924455 229.742791 
L 277.671235 237.361995 
L 278.158265 239.943483 
L 279.392076 244.852036 
L 279.716763 245.313263 
L 279.944044 245.334238 
L 280.138856 245.122953 
L 280.366137 244.507449 
L 280.658355 242.941859 
L 281.275261 237.786255 
L 281.729822 234.982892 
L 282.054509 234.085555 
L 282.249322 234.017259 
L 282.411665 234.244522 
L 282.703883 235.145893 
L 283.450664 237.564822 
L 283.677945 237.705663 
L 284.100038 237.762347 
L 284.29485 238.134694 
L 284.522131 239.122277 
L 284.814349 241.643028 
L 285.236442 247.746516 
L 285.950754 257.741736 
L 286.665065 263.871538 
L 288.450844 276.010017 
L 288.580718 275.786423 
L 288.872937 274.567565 
L 289.392436 271.408733 
L 289.879466 266.568358 
L 290.431434 261.698737 
L 290.821059 260.021821 
L 291.308089 258.120315 
L 291.697714 255.17045 
L 292.347088 250.371837 
L 292.736712 248.921131 
L 292.996462 248.563408 
L 293.126337 248.631602 
L 293.28868 249.009416 
L 293.54843 250.288494 
L 294.262741 254.131437 
L 294.457553 254.254384 
L 294.652366 254.036655 
L 295.171865 253.382906 
L 295.366677 253.446026 
L 295.593958 253.770284 
L 295.886176 254.649298 
L 296.243332 256.594354 
L 297.574549 266.367555 
L 298.418735 273.77692 
L 299.003172 278.108562 
L 299.262921 278.908941 
L 299.425265 278.9097 
L 299.620077 278.462178 
L 300.009701 276.737077 
L 300.561669 274.550087 
L 300.724013 274.446101 
L 300.853888 274.632491 
L 301.081168 275.515188 
L 301.925355 279.823034 
L 301.957823 279.806648 
L 302.087698 279.524494 
L 302.347448 278.167178 
L 302.834478 275.653647 
L 303.029291 275.515574 
L 303.191634 275.780986 
L 304.133226 277.870754 
L 304.587788 278.147551 
L 305.04235 278.329824 
L 305.3021 278.769612 
L 305.691724 279.956819 
L 306.698254 283.150072 
L 307.217753 284.160911 
L 307.445034 284.316551 
L 307.574909 284.176539 
L 307.769721 283.497988 
L 308.126877 281.118457 
L 308.581439 278.491318 
L 308.841188 278.054768 
L 309.29575 277.809982 
L 309.523031 277.025483 
L 309.880187 274.686772 
L 311.373747 263.699432 
L 311.503622 263.700081 
L 311.665965 264.124554 
L 311.925715 265.626548 
L 312.380277 269.905069 
L 313.451744 280.647174 
L 313.873837 282.521451 
L 314.230993 283.307661 
L 314.458273 283.40285 
L 314.718023 283.197266 
L 315.075179 282.985092 
L 315.659615 283.006063 
L 315.854428 282.402767 
L 316.146646 280.531941 
L 316.731083 274.77378 
L 317.899956 263.719974 
L 318.386986 260.612117 
L 318.711673 259.708197 
L 318.906486 259.617553 
L 319.523391 259.736121 
L 319.78314 259.225212 
L 320.335108 257.991162 
L 320.464983 258.05256 
L 320.659795 258.528861 
L 321.406576 260.906167 
L 321.666325 260.948488 
L 321.991012 260.993456 
L 322.413105 261.37262 
L 322.867667 262.023752 
L 323.614447 263.284695 
L 323.776791 263.1343 
L 324.004072 262.454432 
L 324.361227 260.43979 
L 325.205414 254.013985 
L 325.757382 250.479955 
L 326.147006 249.12155 
L 326.374287 248.932511 
L 326.53663 249.120694 
L 326.763911 249.822064 
L 327.088598 251.660573 
L 327.478223 255.256272 
L 327.932785 261.78002 
L 328.776971 274.036362 
L 329.134127 276.399766 
L 329.361407 276.785464 
L 329.491282 276.677164 
L 329.913375 276.06922 
L 329.945844 276.093124 
L 330.075719 276.381271 
L 330.303 277.666706 
L 330.757562 282.136931 
L 331.212123 285.737462 
L 331.439404 286.216224 
L 331.53681 286.087484 
L 331.699154 285.41107 
L 331.958904 283.088144 
L 332.413465 276.241148 
L 333.127777 265.959719 
L 333.452464 263.990607 
L 333.614807 263.79719 
L 333.647276 263.812581 
L 333.80962 264.093892 
L 334.166775 264.865562 
L 334.199244 264.850275 
L 334.29665 264.625917 
L 334.458994 263.531732 
L 334.718743 259.829928 
L 335.433055 248.434445 
L 335.562929 248.048373 
L 335.595398 248.061911 
L 335.692804 248.359077 
L 335.887616 250.031728 
L 336.212303 255.404652 
L 337.05649 270.601635 
L 337.283771 271.601776 
L 337.446114 271.647905 
L 337.900676 271.302587 
L 337.933145 271.342037 
L 338.095488 271.798284 
L 338.322769 273.276416 
L 338.647456 277.083634 
L 339.361767 286.015164 
L 339.524111 286.39062 
L 339.55658 286.38122 
L 339.686454 286.149992 
L 340.238422 284.868839 
L 340.368297 284.971915 
L 340.887796 285.828433 
L 340.952734 285.739929 
L 341.115077 285.182278 
L 341.53717 282.505199 
L 341.991732 280.253264 
L 342.316419 279.545357 
L 342.608638 279.358928 
L 343.29048 279.161407 
L 344.29701 278.348783 
L 344.621697 278.440995 
L 345.368477 278.82391 
L 345.595758 278.515673 
L 345.887976 277.709481 
L 346.180195 276.226804 
L 346.53735 273.030759 
L 347.738692 261.026523 
L 347.933505 260.770578 
L 348.063379 260.935453 
L 348.355598 261.849146 
L 348.712753 262.706839 
L 348.875097 262.708124 
L 349.134847 262.360898 
L 349.394596 262.153785 
L 349.524471 262.307512 
L 349.719283 262.981795 
L 350.04397 265.201877 
L 350.985563 272.414717 
L 351.569999 275.466699 
L 352.024561 279.519319 
L 352.80381 286.516257 
L 352.966153 286.697859 
L 353.096028 286.465154 
L 353.55059 285.41086 
L 353.680465 285.594723 
L 353.875277 286.454716 
L 354.622057 290.941646 
L 354.686995 290.88667 
L 355.011682 290.485512 
L 355.04415 290.520096 
L 355.174025 290.891278 
L 355.401306 292.423759 
L 355.661056 294.534691 
L 355.725993 294.39156 
L 355.953274 291.999987 
L 356.472773 287.150751 
L 356.764991 286.112713 
L 357.252022 285.170284 
L 357.479303 283.665006 
L 357.836459 279.273182 
L 358.778051 266.916623 
L 359.167675 264.718102 
L 359.589768 263.629417 
L 360.011862 262.441732 
L 360.369017 260.582292 
L 360.758642 257.207394 
L 362.154796 243.428235 
L 363.648356 235.758872 
L 364.362668 233.609296 
L 364.622417 233.233639 
L 364.752292 233.294902 
L 364.914635 233.691479 
L 365.141916 234.960929 
L 365.499072 238.569664 
L 366.505602 249.616789 
L 366.992632 252.165509 
L 367.512132 255.042433 
L 368.096568 259.699131 
L 368.648536 266.221893 
L 369.200504 271.780885 
L 369.460254 272.764309 
L 369.622597 272.790477 
L 369.784941 272.472997 
L 370.109628 271.180673 
L 370.726533 268.779813 
L 371.31097 266.945504 
L 372.025281 264.436337 
L 372.252562 264.289083 
L 372.447374 264.484694 
L 372.901936 265.427972 
L 373.259092 266.499017 
L 373.55131 268.17252 
L 373.908466 271.761524 
L 374.395496 279.417176 
L 375.012402 288.452018 
L 375.207214 289.115973 
L 375.30462 288.960811 
L 375.531901 287.886007 
L 376.083869 283.861071 
L 376.473493 279.373768 
L 377.090398 268.867912 
L 377.642366 261.287488 
L 378.06446 258.3014 
L 378.389147 257.328117 
L 378.616427 257.185926 
L 379.103458 257.138477 
L 379.29827 256.689348 
L 379.622957 255.197894 
L 380.174925 252.699037 
L 380.3048 252.638797 
L 380.434675 252.931888 
L 380.661956 254.296856 
L 381.116517 258.980015 
L 381.668485 263.857472 
L 382.090579 265.771564 
L 383.29192 269.463273 
L 383.778951 272.394252 
L 384.201044 274.494142 
L 384.395856 274.759499 
L 384.525731 274.666931 
L 384.720543 274.172454 
L 385.04523 272.564498 
L 386.019291 267.177249 
L 386.214104 266.978317 
L 386.376447 267.101416 
L 386.636197 267.703231 
L 387.025821 269.281447 
L 387.999882 274.226627 
L 388.389507 277.534198 
L 388.8116 283.307978 
L 389.55838 294.869131 
L 389.590849 294.64132 
L 389.915536 289.632679 
L 391.441565 265.17856 
L 392.123407 259.795147 
L 393.324749 251.808288 
L 393.454624 251.813356 
L 393.616968 252.238529 
L 393.876717 253.773577 
L 395.467683 265.357509 
L 395.792371 266.144134 
L 395.954714 266.165903 
L 396.117058 265.942205 
L 396.376807 265.132947 
L 397.740493 259.084127 
L 398.259992 255.038248 
L 398.487273 253.247689 
L 398.487273 253.247689 
" clip-path="url(#p83c55496b0)" style="fill: none; stroke: #000000; stroke-width: 2; stroke-linecap: square"/>
   </g>
   <g id="patch_3">
    <path d="M 57.6 307.584 
L 57.6 41.472 
" style="fill: none; stroke: #000000; stroke-width: 0.8; stroke-linejoin: miter; stroke-linecap: square"/>
   </g>
   <g id="patch_4">
    <path d="M 414.72 307.584 
L 414.72 41.472 
" style="fill: none; stroke: #000000; stroke-width: 0.8; stroke-linejoin: miter; stroke-linecap: square"/>
   </g>
   <g id="patch_5">
    <path d="M 57.6 307.584 
L 414.72 307.584 
" style="fill: none; stroke: #000000; stroke-width: 0.8; stroke-linejoin: miter; stroke-linecap: square"/>
   </g>
   <g id="patch_6">
    <path d="M 57.6 41.472 
L 414.72 41.472 
" style="fill: none; stroke: #000000; stroke-width: 0.8; stroke-linejoin: miter; stroke-linecap: square"/>
   </g>
   <g id="text_17">
    <!-- Mean Velocity Magnitude Over Time -->
    <g transform="translate(127.744687 35.472) scale(0.12 -0.12)">
     <defs>
      <path id="DejaVuSans-4f" d="M 2522 4238 
Q 1834 4238 1429 3725 
Q 1025 3213 1025 2328 
Q 1025 1447 1429 934 
Q 1834 422 2522 422 
Q 3209 422 3611 934 
Q 4013 1447 4013 2328 
Q 4013 3213 3611 3725 
Q 3209 4238 2522 4238 
z
M 2522 4750 
Q 3503 4750 4090 4092 
Q 4678 3434 4678 2328 
Q 4678 1225 4090 567 
Q 3503 -91 2522 -91 
Q 1538 -91 948 565 
Q 359 1222 359 2328 
Q 359 3434 948 4092 
Q 1538 4750 2522 4750 
z
" transform="scale(0.015625)"/>
      <path id="DejaVuSans-76" d="M 191 3500 
L 800 3500 
L 1894 563 
L 2988 3500 
L 3597 3500 
L 2284 0 
L 1503 0 
L 191 3500 
z
" transform="scale(0.015625)"/>
      <path id="DejaVuSans-72" d="M 2631 2963 
Q 2534 3019 2420 3045 
Q 2306 3072 2169 3072 
Q 1681 3072 1420 2755 
Q 1159 2438 1159 1844 
L 1159 0 
L 581 0 
L 581 3500 
L 1159 3500 
L 1159 2956 
Q 1341 3275 1631 3429 
Q 1922 3584 2338 3584 
Q 2397 3584 2469 3576 
Q 2541 3569 2628 3553 
L 2631 2963 
z
" transform="scale(0.015625)"/>
      <path id="DejaVuSans-54" d="M -19 4666 
L 3928 4666 
L 3928 4134 
L 2272 4134 
L 2272 0 
L 1638 0 
L 1638 4134 
L -19 4134 
L -19 4666 
z
" transform="scale(0.015625)"/>
      <path id="DejaVuSans-6d" d="M 3328 2828 
Q 3544 3216 3844 3400 
Q 4144 3584 4550 3584 
Q 5097 3584 5394 3201 
Q 5691 2819 5691 2113 
L 5691 0 
L 5113 0 
L 5113 2094 
Q 5113 2597 4934 2840 
Q 4756 3084 4391 3084 
Q 3944 3084 3684 2787 
Q 3425 2491 3425 1978 
L 3425 0 
L 2847 0 
L 2847 2094 
Q 2847 2600 2669 2842 
Q 2491 3084 2119 3084 
Q 1678 3084 1418 2786 
Q 1159 2488 1159 1978 
L 1159 0 
L 581 0 
L 581 3500 
L 1159 3500 
L 1159 2956 
Q 1356 3278 1631 3431 
Q 1906 3584 2284 3584 
Q 2666 3584 2933 3390 
Q 3200 3197 3328 2828 
z
" transform="scale(0.015625)"/>
     </defs>
     <use xlink:href="#DejaVuSans-4d"/>
     <use xlink:href="#DejaVuSans-65" x="86.279297"/>
     <use xlink:href="#DejaVuSans-61" x="147.802734"/>
     <use xlink:href="#DejaVuSans-6e" x="209.082031"/>
     <use xlink:href="#DejaVuSans-20" x="272.460938"/>
     <use xlink:href="#DejaVuSans-56" x="304.248047"/>
     <use xlink:href="#DejaVuSans-65" x="364.90625"/>
     <use xlink:href="#DejaVuSans-6c" x="426.429688"/>
     <use xlink:href="#DejaVuSans-6f" x="454.212891"/>
     <use xlink:href="#DejaVuSans-63" x="515.394531"/>
     <use xlink:href="#DejaVuSans-69" x="570.375"/>
     <use xlink:href="#DejaVuSans-74" x="598.158203"/>
     <use xlink:href="#DejaVuSans-79" x="637.367188"/>
     <use xlink:href="#DejaVuSans-20" x="696.546875"/>
     <use xlink:href="#DejaVuSans-4d" x="728.333984"/>
     <use xlink:href="#DejaVuSans-61" x="814.613281"/>
     <use xlink:href="#DejaVuSans-67" x="875.892578"/>
     <use xlink:href="#DejaVuSans-6e" x="939.369141"/>
     <use xlink:href="#DejaVuSans-69" x="1002.748047"/>
     <use xlink:href="#DejaVuSans-74" x="1030.53125"/>
     <use xlink:href="#DejaVuSans-75" x="1069.740234"/>
     <use xlink:href="#DejaVuSans-64" x="1133.119141"/>
     <use xlink:href="#DejaVuSans-65" x="1196.595703"/>
     <use xlink:href="#DejaVuSans-20" x="1258.119141"/>
     <use xlink:href="#DejaVuSans-4f" x="1289.90625"/>
     <use xlink:href="#DejaVuSans-76" x="1368.617188"/>
     <use xlink:href="#DejaVuSans-65" x="1427.796875"/>
     <use xlink:href="#DejaVuSans-72" x="1489.320312"/>
     <use xlink:href="#DejaVuSans-20" x="1530.433594"/>
     <use xlink:href="#DejaVuSans-54" x="1562.220703"/>
     <use xlink:href="#DejaVuSans-69" x="1620.179688"/>
     <use xlink:href="#DejaVuSans-6d" x="1647.962891"/>
     <use xlink:href="#DejaVuSans-65" x="1745.375"/>
    </g>
   </g>
  </g>
 </g>
 <defs>
  <clipPath id="p83c55496b0">
   <rect x="57.6" y="41.472" width="357.12" height="266.112"/>
  </clipPath>
 </defs>
</svg>
