<?xml version="1.0" encoding="utf-8" standalone="no"?>
<!DOCTYPE svg PUBLIC "-//W3C//DTD SVG 1.1//EN"
  "http://www.w3.org/Graphics/SVG/1.1/DTD/svg11.dtd">
<svg xmlns:xlink="http://www.w3.org/1999/xlink" width="460.8pt" height="345.6pt" viewBox="0 0 460.8 345.6" xmlns="http://www.w3.org/2000/svg" version="1.1">
 <metadata>
  <rdf:RDF xmlns:dc="http://purl.org/dc/elements/1.1/" xmlns:cc="http://creativecommons.org/ns#" xmlns:rdf="http://www.w3.org/1999/02/22-rdf-syntax-ns#">
   <cc:Work>
    <dc:type rdf:resource="http://purl.org/dc/dcmitype/StillImage"/>
    <dc:date>2025-02-24T13:57:02.592453</dc:date>
    <dc:format>image/svg+xml</dc:format>
    <dc:creator>
     <cc:Agent>
      <dc:title>Matplotlib v3.6.3, https://matplotlib.org/</dc:title>
     </cc:Agent>
    </dc:creator>
   </cc:Work>
  </rdf:RDF>
 </metadata>
 <defs>
  <style type="text/css">*{stroke-linejoin: round; stroke-linecap: butt}</style>
 </defs>
 <g id="figure_1">
  <g id="patch_1">
   <path d="M 0 345.6 
L 460.8 345.6 
L 460.8 0 
L 0 0 
z
" style="fill: #ffffff"/>
  </g>
  <g id="axes_1">
   <g id="patch_2">
    <path d="M 57.6 162.432 
L 414.72 162.432 
L 414.72 41.472 
L 57.6 41.472 
z
" style="fill: #ffffff"/>
   </g>
   <g id="matplotlib.axis_1">
    <g id="xtick_1">
     <g id="line2d_1">
      <path d="M 73.832727 162.432 
L 73.832727 41.472 
" clip-path="url(#p463125340b)" style="fill: none; stroke: #b0b0b0; stroke-width: 0.8; stroke-linecap: square"/>
     </g>
     <g id="line2d_2">
      <defs>
       <path id="m87f3dcb778" d="M 0 0 
L 0 3.5 
" style="stroke: #000000; stroke-width: 0.8"/>
      </defs>
      <g>
       <use xlink:href="#m87f3dcb778" x="73.832727" y="162.432" style="stroke: #000000; stroke-width: 0.8"/>
      </g>
     </g>
     <g id="text_1">
      <!-- 0 -->
      <g transform="translate(70.651477 177.030437) scale(0.1 -0.1)">
       <defs>
        <path id="DejaVuSans-30" d="M 2034 4250 
Q 1547 4250 1301 3770 
Q 1056 3291 1056 2328 
Q 1056 1369 1301 889 
Q 1547 409 2034 409 
Q 2525 409 2770 889 
Q 3016 1369 3016 2328 
Q 3016 3291 2770 3770 
Q 2525 4250 2034 4250 
z
M 2034 4750 
Q 2819 4750 3233 4129 
Q 3647 3509 3647 2328 
Q 3647 1150 3233 529 
Q 2819 -91 2034 -91 
Q 1250 -91 836 529 
Q 422 1150 422 2328 
Q 422 3509 836 4129 
Q 1250 4750 2034 4750 
z
" transform="scale(0.015625)"/>
       </defs>
       <use xlink:href="#DejaVuSans-30"/>
      </g>
     </g>
    </g>
    <g id="xtick_2">
     <g id="line2d_3">
      <path d="M 138.77013 162.432 
L 138.77013 41.472 
" clip-path="url(#p463125340b)" style="fill: none; stroke: #b0b0b0; stroke-width: 0.8; stroke-linecap: square"/>
     </g>
     <g id="line2d_4">
      <g>
       <use xlink:href="#m87f3dcb778" x="138.77013" y="162.432" style="stroke: #000000; stroke-width: 0.8"/>
      </g>
     </g>
     <g id="text_2">
      <!-- 2000 -->
      <g transform="translate(126.04513 177.030437) scale(0.1 -0.1)">
       <defs>
        <path id="DejaVuSans-32" d="M 1228 531 
L 3431 531 
L 3431 0 
L 469 0 
L 469 531 
Q 828 903 1448 1529 
Q 2069 2156 2228 2338 
Q 2531 2678 2651 2914 
Q 2772 3150 2772 3378 
Q 2772 3750 2511 3984 
Q 2250 4219 1831 4219 
Q 1534 4219 1204 4116 
Q 875 4013 500 3803 
L 500 4441 
Q 881 4594 1212 4672 
Q 1544 4750 1819 4750 
Q 2544 4750 2975 4387 
Q 3406 4025 3406 3419 
Q 3406 3131 3298 2873 
Q 3191 2616 2906 2266 
Q 2828 2175 2409 1742 
Q 1991 1309 1228 531 
z
" transform="scale(0.015625)"/>
       </defs>
       <use xlink:href="#DejaVuSans-32"/>
       <use xlink:href="#DejaVuSans-30" x="63.623047"/>
       <use xlink:href="#DejaVuSans-30" x="127.246094"/>
       <use xlink:href="#DejaVuSans-30" x="190.869141"/>
      </g>
     </g>
    </g>
    <g id="xtick_3">
     <g id="line2d_5">
      <path d="M 203.707533 162.432 
L 203.707533 41.472 
" clip-path="url(#p463125340b)" style="fill: none; stroke: #b0b0b0; stroke-width: 0.8; stroke-linecap: square"/>
     </g>
     <g id="line2d_6">
      <g>
       <use xlink:href="#m87f3dcb778" x="203.707533" y="162.432" style="stroke: #000000; stroke-width: 0.8"/>
      </g>
     </g>
     <g id="text_3">
      <!-- 4000 -->
      <g transform="translate(190.982533 177.030437) scale(0.1 -0.1)">
       <defs>
        <path id="DejaVuSans-34" d="M 2419 4116 
L 825 1625 
L 2419 1625 
L 2419 4116 
z
M 2253 4666 
L 3047 4666 
L 3047 1625 
L 3713 1625 
L 3713 1100 
L 3047 1100 
L 3047 0 
L 2419 0 
L 2419 1100 
L 313 1100 
L 313 1709 
L 2253 4666 
z
" transform="scale(0.015625)"/>
       </defs>
       <use xlink:href="#DejaVuSans-34"/>
       <use xlink:href="#DejaVuSans-30" x="63.623047"/>
       <use xlink:href="#DejaVuSans-30" x="127.246094"/>
       <use xlink:href="#DejaVuSans-30" x="190.869141"/>
      </g>
     </g>
    </g>
    <g id="xtick_4">
     <g id="line2d_7">
      <path d="M 268.644936 162.432 
L 268.644936 41.472 
" clip-path="url(#p463125340b)" style="fill: none; stroke: #b0b0b0; stroke-width: 0.8; stroke-linecap: square"/>
     </g>
     <g id="line2d_8">
      <g>
       <use xlink:href="#m87f3dcb778" x="268.644936" y="162.432" style="stroke: #000000; stroke-width: 0.8"/>
      </g>
     </g>
     <g id="text_4">
      <!-- 6000 -->
      <g transform="translate(255.919936 177.030437) scale(0.1 -0.1)">
       <defs>
        <path id="DejaVuSans-36" d="M 2113 2584 
Q 1688 2584 1439 2293 
Q 1191 2003 1191 1497 
Q 1191 994 1439 701 
Q 1688 409 2113 409 
Q 2538 409 2786 701 
Q 3034 994 3034 1497 
Q 3034 2003 2786 2293 
Q 2538 2584 2113 2584 
z
M 3366 4563 
L 3366 3988 
Q 3128 4100 2886 4159 
Q 2644 4219 2406 4219 
Q 1781 4219 1451 3797 
Q 1122 3375 1075 2522 
Q 1259 2794 1537 2939 
Q 1816 3084 2150 3084 
Q 2853 3084 3261 2657 
Q 3669 2231 3669 1497 
Q 3669 778 3244 343 
Q 2819 -91 2113 -91 
Q 1303 -91 875 529 
Q 447 1150 447 2328 
Q 447 3434 972 4092 
Q 1497 4750 2381 4750 
Q 2619 4750 2861 4703 
Q 3103 4656 3366 4563 
z
" transform="scale(0.015625)"/>
       </defs>
       <use xlink:href="#DejaVuSans-36"/>
       <use xlink:href="#DejaVuSans-30" x="63.623047"/>
       <use xlink:href="#DejaVuSans-30" x="127.246094"/>
       <use xlink:href="#DejaVuSans-30" x="190.869141"/>
      </g>
     </g>
    </g>
    <g id="xtick_5">
     <g id="line2d_9">
      <path d="M 333.582339 162.432 
L 333.582339 41.472 
" clip-path="url(#p463125340b)" style="fill: none; stroke: #b0b0b0; stroke-width: 0.8; stroke-linecap: square"/>
     </g>
     <g id="line2d_10">
      <g>
       <use xlink:href="#m87f3dcb778" x="333.582339" y="162.432" style="stroke: #000000; stroke-width: 0.8"/>
      </g>
     </g>
     <g id="text_5">
      <!-- 8000 -->
      <g transform="translate(320.857339 177.030437) scale(0.1 -0.1)">
       <defs>
        <path id="DejaVuSans-38" d="M 2034 2216 
Q 1584 2216 1326 1975 
Q 1069 1734 1069 1313 
Q 1069 891 1326 650 
Q 1584 409 2034 409 
Q 2484 409 2743 651 
Q 3003 894 3003 1313 
Q 3003 1734 2745 1975 
Q 2488 2216 2034 2216 
z
M 1403 2484 
Q 997 2584 770 2862 
Q 544 3141 544 3541 
Q 544 4100 942 4425 
Q 1341 4750 2034 4750 
Q 2731 4750 3128 4425 
Q 3525 4100 3525 3541 
Q 3525 3141 3298 2862 
Q 3072 2584 2669 2484 
Q 3125 2378 3379 2068 
Q 3634 1759 3634 1313 
Q 3634 634 3220 271 
Q 2806 -91 2034 -91 
Q 1263 -91 848 271 
Q 434 634 434 1313 
Q 434 1759 690 2068 
Q 947 2378 1403 2484 
z
M 1172 3481 
Q 1172 3119 1398 2916 
Q 1625 2713 2034 2713 
Q 2441 2713 2670 2916 
Q 2900 3119 2900 3481 
Q 2900 3844 2670 4047 
Q 2441 4250 2034 4250 
Q 1625 4250 1398 4047 
Q 1172 3844 1172 3481 
z
" transform="scale(0.015625)"/>
       </defs>
       <use xlink:href="#DejaVuSans-38"/>
       <use xlink:href="#DejaVuSans-30" x="63.623047"/>
       <use xlink:href="#DejaVuSans-30" x="127.246094"/>
       <use xlink:href="#DejaVuSans-30" x="190.869141"/>
      </g>
     </g>
    </g>
    <g id="xtick_6">
     <g id="line2d_11">
      <path d="M 398.519741 162.432 
L 398.519741 41.472 
" clip-path="url(#p463125340b)" style="fill: none; stroke: #b0b0b0; stroke-width: 0.8; stroke-linecap: square"/>
     </g>
     <g id="line2d_12">
      <g>
       <use xlink:href="#m87f3dcb778" x="398.519741" y="162.432" style="stroke: #000000; stroke-width: 0.8"/>
      </g>
     </g>
     <g id="text_6">
      <!-- 10000 -->
      <g transform="translate(382.613491 177.030437) scale(0.1 -0.1)">
       <defs>
        <path id="DejaVuSans-31" d="M 794 531 
L 1825 531 
L 1825 4091 
L 703 3866 
L 703 4441 
L 1819 4666 
L 2450 4666 
L 2450 531 
L 3481 531 
L 3481 0 
L 794 0 
L 794 531 
z
" transform="scale(0.015625)"/>
       </defs>
       <use xlink:href="#DejaVuSans-31"/>
       <use xlink:href="#DejaVuSans-30" x="63.623047"/>
       <use xlink:href="#DejaVuSans-30" x="127.246094"/>
       <use xlink:href="#DejaVuSans-30" x="190.869141"/>
       <use xlink:href="#DejaVuSans-30" x="254.492188"/>
      </g>
     </g>
    </g>
    <g id="text_7">
     <!-- Steps -->
     <g transform="translate(222.170156 190.708562) scale(0.1 -0.1)">
      <defs>
       <path id="DejaVuSans-53" d="M 3425 4513 
L 3425 3897 
Q 3066 4069 2747 4153 
Q 2428 4238 2131 4238 
Q 1616 4238 1336 4038 
Q 1056 3838 1056 3469 
Q 1056 3159 1242 3001 
Q 1428 2844 1947 2747 
L 2328 2669 
Q 3034 2534 3370 2195 
Q 3706 1856 3706 1288 
Q 3706 609 3251 259 
Q 2797 -91 1919 -91 
Q 1588 -91 1214 -16 
Q 841 59 441 206 
L 441 856 
Q 825 641 1194 531 
Q 1563 422 1919 422 
Q 2459 422 2753 634 
Q 3047 847 3047 1241 
Q 3047 1584 2836 1778 
Q 2625 1972 2144 2069 
L 1759 2144 
Q 1053 2284 737 2584 
Q 422 2884 422 3419 
Q 422 4038 858 4394 
Q 1294 4750 2059 4750 
Q 2388 4750 2728 4690 
Q 3069 4631 3425 4513 
z
" transform="scale(0.015625)"/>
       <path id="DejaVuSans-74" d="M 1172 4494 
L 1172 3500 
L 2356 3500 
L 2356 3053 
L 1172 3053 
L 1172 1153 
Q 1172 725 1289 603 
Q 1406 481 1766 481 
L 2356 481 
L 2356 0 
L 1766 0 
Q 1100 0 847 248 
Q 594 497 594 1153 
L 594 3053 
L 172 3053 
L 172 3500 
L 594 3500 
L 594 4494 
L 1172 4494 
z
" transform="scale(0.015625)"/>
       <path id="DejaVuSans-65" d="M 3597 1894 
L 3597 1613 
L 953 1613 
Q 991 1019 1311 708 
Q 1631 397 2203 397 
Q 2534 397 2845 478 
Q 3156 559 3463 722 
L 3463 178 
Q 3153 47 2828 -22 
Q 2503 -91 2169 -91 
Q 1331 -91 842 396 
Q 353 884 353 1716 
Q 353 2575 817 3079 
Q 1281 3584 2069 3584 
Q 2775 3584 3186 3129 
Q 3597 2675 3597 1894 
z
M 3022 2063 
Q 3016 2534 2758 2815 
Q 2500 3097 2075 3097 
Q 1594 3097 1305 2825 
Q 1016 2553 972 2059 
L 3022 2063 
z
" transform="scale(0.015625)"/>
       <path id="DejaVuSans-70" d="M 1159 525 
L 1159 -1331 
L 581 -1331 
L 581 3500 
L 1159 3500 
L 1159 2969 
Q 1341 3281 1617 3432 
Q 1894 3584 2278 3584 
Q 2916 3584 3314 3078 
Q 3713 2572 3713 1747 
Q 3713 922 3314 415 
Q 2916 -91 2278 -91 
Q 1894 -91 1617 61 
Q 1341 213 1159 525 
z
M 3116 1747 
Q 3116 2381 2855 2742 
Q 2594 3103 2138 3103 
Q 1681 3103 1420 2742 
Q 1159 2381 1159 1747 
Q 1159 1113 1420 752 
Q 1681 391 2138 391 
Q 2594 391 2855 752 
Q 3116 1113 3116 1747 
z
" transform="scale(0.015625)"/>
       <path id="DejaVuSans-73" d="M 2834 3397 
L 2834 2853 
Q 2591 2978 2328 3040 
Q 2066 3103 1784 3103 
Q 1356 3103 1142 2972 
Q 928 2841 928 2578 
Q 928 2378 1081 2264 
Q 1234 2150 1697 2047 
L 1894 2003 
Q 2506 1872 2764 1633 
Q 3022 1394 3022 966 
Q 3022 478 2636 193 
Q 2250 -91 1575 -91 
Q 1294 -91 989 -36 
Q 684 19 347 128 
L 347 722 
Q 666 556 975 473 
Q 1284 391 1588 391 
Q 1994 391 2212 530 
Q 2431 669 2431 922 
Q 2431 1156 2273 1281 
Q 2116 1406 1581 1522 
L 1381 1569 
Q 847 1681 609 1914 
Q 372 2147 372 2553 
Q 372 3047 722 3315 
Q 1072 3584 1716 3584 
Q 2034 3584 2315 3537 
Q 2597 3491 2834 3397 
z
" transform="scale(0.015625)"/>
      </defs>
      <use xlink:href="#DejaVuSans-53"/>
      <use xlink:href="#DejaVuSans-74" x="63.476562"/>
      <use xlink:href="#DejaVuSans-65" x="102.685547"/>
      <use xlink:href="#DejaVuSans-70" x="164.208984"/>
      <use xlink:href="#DejaVuSans-73" x="227.685547"/>
     </g>
    </g>
   </g>
   <g id="matplotlib.axis_2">
    <g id="ytick_1">
     <g id="line2d_13">
      <path d="M 57.6 147.988696 
L 414.72 147.988696 
" clip-path="url(#p463125340b)" style="fill: none; stroke: #b0b0b0; stroke-width: 0.8; stroke-linecap: square"/>
     </g>
     <g id="line2d_14">
      <defs>
       <path id="m6e08455f97" d="M 0 0 
L -3.5 0 
" style="stroke: #000000; stroke-width: 0.8"/>
      </defs>
      <g>
       <use xlink:href="#m6e08455f97" x="57.6" y="147.988696" style="stroke: #000000; stroke-width: 0.8"/>
      </g>
     </g>
     <g id="text_8">
      <!-- −0.1 -->
      <g transform="translate(26.317187 151.787915) scale(0.1 -0.1)">
       <defs>
        <path id="DejaVuSans-2212" d="M 678 2272 
L 4684 2272 
L 4684 1741 
L 678 1741 
L 678 2272 
z
" transform="scale(0.015625)"/>
        <path id="DejaVuSans-2e" d="M 684 794 
L 1344 794 
L 1344 0 
L 684 0 
L 684 794 
z
" transform="scale(0.015625)"/>
       </defs>
       <use xlink:href="#DejaVuSans-2212"/>
       <use xlink:href="#DejaVuSans-30" x="83.789062"/>
       <use xlink:href="#DejaVuSans-2e" x="147.412109"/>
       <use xlink:href="#DejaVuSans-31" x="179.199219"/>
      </g>
     </g>
    </g>
    <g id="ytick_2">
     <g id="line2d_15">
      <path d="M 57.6 114.606263 
L 414.72 114.606263 
" clip-path="url(#p463125340b)" style="fill: none; stroke: #b0b0b0; stroke-width: 0.8; stroke-linecap: square"/>
     </g>
     <g id="line2d_16">
      <g>
       <use xlink:href="#m6e08455f97" x="57.6" y="114.606263" style="stroke: #000000; stroke-width: 0.8"/>
      </g>
     </g>
     <g id="text_9">
      <!-- 0.0 -->
      <g transform="translate(34.696875 118.405482) scale(0.1 -0.1)">
       <use xlink:href="#DejaVuSans-30"/>
       <use xlink:href="#DejaVuSans-2e" x="63.623047"/>
       <use xlink:href="#DejaVuSans-30" x="95.410156"/>
      </g>
     </g>
    </g>
    <g id="ytick_3">
     <g id="line2d_17">
      <path d="M 57.6 81.223831 
L 414.72 81.223831 
" clip-path="url(#p463125340b)" style="fill: none; stroke: #b0b0b0; stroke-width: 0.8; stroke-linecap: square"/>
     </g>
     <g id="line2d_18">
      <g>
       <use xlink:href="#m6e08455f97" x="57.6" y="81.223831" style="stroke: #000000; stroke-width: 0.8"/>
      </g>
     </g>
     <g id="text_10">
      <!-- 0.1 -->
      <g transform="translate(34.696875 85.02305) scale(0.1 -0.1)">
       <use xlink:href="#DejaVuSans-30"/>
       <use xlink:href="#DejaVuSans-2e" x="63.623047"/>
       <use xlink:href="#DejaVuSans-31" x="95.410156"/>
      </g>
     </g>
    </g>
    <g id="ytick_4">
     <g id="line2d_19">
      <path d="M 57.6 47.841398 
L 414.72 47.841398 
" clip-path="url(#p463125340b)" style="fill: none; stroke: #b0b0b0; stroke-width: 0.8; stroke-linecap: square"/>
     </g>
     <g id="line2d_20">
      <g>
       <use xlink:href="#m6e08455f97" x="57.6" y="47.841398" style="stroke: #000000; stroke-width: 0.8"/>
      </g>
     </g>
     <g id="text_11">
      <!-- 0.2 -->
      <g transform="translate(34.696875 51.640617) scale(0.1 -0.1)">
       <use xlink:href="#DejaVuSans-30"/>
       <use xlink:href="#DejaVuSans-2e" x="63.623047"/>
       <use xlink:href="#DejaVuSans-32" x="95.410156"/>
      </g>
     </g>
    </g>
    <g id="text_12">
     <!-- Mean V_x -->
     <g transform="translate(19.959375 126.044187) rotate(-90) scale(0.1 -0.1)">
      <defs>
       <path id="DejaVuSans-4d" d="M 628 4666 
L 1569 4666 
L 2759 1491 
L 3956 4666 
L 4897 4666 
L 4897 0 
L 4281 0 
L 4281 4097 
L 3078 897 
L 2444 897 
L 1241 4097 
L 1241 0 
L 628 0 
L 628 4666 
z
" transform="scale(0.015625)"/>
       <path id="DejaVuSans-61" d="M 2194 1759 
Q 1497 1759 1228 1600 
Q 959 1441 959 1056 
Q 959 750 1161 570 
Q 1363 391 1709 391 
Q 2188 391 2477 730 
Q 2766 1069 2766 1631 
L 2766 1759 
L 2194 1759 
z
M 3341 1997 
L 3341 0 
L 2766 0 
L 2766 531 
Q 2569 213 2275 61 
Q 1981 -91 1556 -91 
Q 1019 -91 701 211 
Q 384 513 384 1019 
Q 384 1609 779 1909 
Q 1175 2209 1959 2209 
L 2766 2209 
L 2766 2266 
Q 2766 2663 2505 2880 
Q 2244 3097 1772 3097 
Q 1472 3097 1187 3025 
Q 903 2953 641 2809 
L 641 3341 
Q 956 3463 1253 3523 
Q 1550 3584 1831 3584 
Q 2591 3584 2966 3190 
Q 3341 2797 3341 1997 
z
" transform="scale(0.015625)"/>
       <path id="DejaVuSans-6e" d="M 3513 2113 
L 3513 0 
L 2938 0 
L 2938 2094 
Q 2938 2591 2744 2837 
Q 2550 3084 2163 3084 
Q 1697 3084 1428 2787 
Q 1159 2491 1159 1978 
L 1159 0 
L 581 0 
L 581 3500 
L 1159 3500 
L 1159 2956 
Q 1366 3272 1645 3428 
Q 1925 3584 2291 3584 
Q 2894 3584 3203 3211 
Q 3513 2838 3513 2113 
z
" transform="scale(0.015625)"/>
       <path id="DejaVuSans-20" transform="scale(0.015625)"/>
       <path id="DejaVuSans-56" d="M 1831 0 
L 50 4666 
L 709 4666 
L 2188 738 
L 3669 4666 
L 4325 4666 
L 2547 0 
L 1831 0 
z
" transform="scale(0.015625)"/>
       <path id="DejaVuSans-5f" d="M 3263 -1063 
L 3263 -1509 
L -63 -1509 
L -63 -1063 
L 3263 -1063 
z
" transform="scale(0.015625)"/>
       <path id="DejaVuSans-78" d="M 3513 3500 
L 2247 1797 
L 3578 0 
L 2900 0 
L 1881 1375 
L 863 0 
L 184 0 
L 1544 1831 
L 300 3500 
L 978 3500 
L 1906 2253 
L 2834 3500 
L 3513 3500 
z
" transform="scale(0.015625)"/>
      </defs>
      <use xlink:href="#DejaVuSans-4d"/>
      <use xlink:href="#DejaVuSans-65" x="86.279297"/>
      <use xlink:href="#DejaVuSans-61" x="147.802734"/>
      <use xlink:href="#DejaVuSans-6e" x="209.082031"/>
      <use xlink:href="#DejaVuSans-20" x="272.460938"/>
      <use xlink:href="#DejaVuSans-56" x="304.248047"/>
      <use xlink:href="#DejaVuSans-5f" x="372.65625"/>
      <use xlink:href="#DejaVuSans-78" x="422.65625"/>
     </g>
    </g>
   </g>
   <g id="line2d_21">
    <path d="M 73.832727 105.482632 
L 73.897665 106.108174 
L 74.25482 113.392107 
L 74.709382 121.019286 
L 75.391225 127.033772 
L 75.780849 129.406587 
L 76.884785 143.325469 
L 77.891315 155.534635 
L 78.118596 156.198041 
L 78.345877 156.403991 
L 78.540689 156.933818 
L 78.573158 156.875502 
L 78.703032 156.16665 
L 79.027719 152.616033 
L 79.482281 148.453706 
L 79.677094 146.809418 
L 80.391405 137.392221 
L 80.716092 136.632763 
L 81.073248 134.266244 
L 81.430403 128.596885 
L 81.852497 119.647378 
L 82.242121 112.912449 
L 82.696683 107.789847 
L 83.248651 104.087694 
L 83.410994 103.532936 
L 83.443463 103.563195 
L 83.573338 104.33789 
L 84.222712 109.651807 
L 84.25518 109.629133 
L 84.352587 109.413445 
L 85.164304 102.945003 
L 85.456522 100.008436 
L 85.813678 98.607427 
L 86.203303 94.68771 
L 87.794269 74.425108 
L 87.956612 73.607379 
L 88.216362 70.971313 
L 88.865736 61.84498 
L 89.222892 57.389294 
L 89.287829 57.177957 
L 89.320298 57.363805 
L 89.77486 60.776779 
L 90.002141 61.968781 
L 90.132015 62.192532 
L 90.326828 63.501023 
L 90.813858 68.091683 
L 91.138545 70.870778 
L 91.430763 72.596598 
L 91.625576 73.648434 
L 91.722982 73.722953 
L 91.75545 73.686616 
L 92.112606 72.706764 
L 92.469762 69.297253 
L 92.729511 65.669719 
L 93.736041 50.111958 
L 94.190603 47.330092 
L 94.288009 47.277614 
L 94.320478 47.330367 
L 94.482821 47.565099 
L 94.51529 47.520856 
L 94.904914 46.988014 
L 95.002321 47.016211 
L 95.164664 47.646573 
L 95.651695 51.456884 
L 96.00885 54.872037 
L 96.138725 56.080416 
L 96.430943 58.28206 
L 96.560818 58.378505 
L 96.853037 57.698627 
L 96.982911 57.670044 
L 97.112786 57.419385 
L 97.177724 57.688332 
L 97.372536 60.180069 
L 97.794629 65.387781 
L 98.119316 68.215833 
L 98.249191 68.348752 
L 98.281659 68.293312 
L 99.060908 66.337742 
L 99.450533 67.040644 
L 99.77522 68.974712 
L 99.970032 70.166671 
L 100.716812 78.285613 
L 101.171374 79.994207 
L 101.560998 82.535396 
L 102.307778 89.3157 
L 102.502591 91.519994 
L 103.281839 101.823195 
L 103.574058 102.447119 
L 103.671464 102.53802 
L 103.833807 103.144691 
L 104.02862 103.855129 
L 104.061088 103.805029 
L 104.126026 103.777034 
L 104.2559 103.539868 
L 104.288369 103.566138 
L 104.483181 103.970979 
L 104.613056 104.452749 
L 104.645525 104.396302 
L 104.742931 103.706263 
L 105.587117 94.305334 
L 105.619586 94.335484 
L 105.749461 94.433032 
L 105.911804 94.80658 
L 107.697583 117.593787 
L 107.76252 117.775823 
L 107.827458 117.741305 
L 107.989801 117.190678 
L 108.574238 112.861302 
L 108.639175 112.989708 
L 108.801519 113.493968 
L 108.931394 113.686492 
L 108.963862 113.622584 
L 108.996331 113.572051 
L 109.061268 113.668681 
L 109.353487 114.400706 
L 109.418424 114.339661 
L 109.613236 113.97886 
L 109.710642 114.042696 
L 109.872986 114.238393 
L 109.937923 114.059526 
L 110.132735 113.792551 
L 110.295079 113.289662 
L 110.554829 111.746328 
L 110.619766 111.677382 
L 110.652235 111.714618 
L 110.782109 112.123485 
L 111.171734 116.832489 
L 112.27567 129.954595 
L 112.535419 130.837373 
L 112.632825 130.729749 
L 112.827638 130.56024 
L 112.925044 130.852875 
L 113.282199 132.996409 
L 113.379606 132.845532 
L 113.606887 131.438496 
L 114.158854 128.40363 
L 114.353667 126.90655 
L 115.26279 119.19725 
L 115.295259 119.17112 
L 115.327728 119.211608 
L 115.490071 120.149314 
L 115.749821 121.366124 
L 115.912164 121.798632 
L 116.106977 122.51185 
L 116.139445 122.479134 
L 116.26932 121.918446 
L 116.399195 121.51764 
L 116.431664 121.558738 
L 116.756351 122.283507 
L 116.821288 122.28627 
L 116.918694 121.901513 
L 117.081038 120.304693 
L 117.795349 110.749975 
L 118.314848 106.485591 
L 118.379786 106.326848 
L 118.412254 106.350847 
L 118.50966 107.118322 
L 119.581128 119.600753 
L 120.068158 124.844382 
L 120.295439 125.453348 
L 120.457783 125.970761 
L 120.78247 127.702464 
L 121.172094 131.505686 
L 122.048749 142.041454 
L 122.340967 143.631998 
L 122.503311 144.303267 
L 122.535779 144.25109 
L 122.633186 143.923695 
L 122.795529 143.531189 
L 122.892935 143.501747 
L 122.925404 143.53882 
L 123.02281 143.702329 
L 123.055279 143.683994 
L 123.120216 143.405482 
L 123.802059 137.127169 
L 123.931934 137.4128 
L 124.02934 137.944652 
L 124.386495 140.349907 
L 124.77612 141.00233 
L 124.808588 140.936183 
L 125.068338 139.770862 
L 125.425494 137.066804 
L 125.587837 136.430218 
L 125.847587 135.121192 
L 126.107337 131.672201 
L 127.178804 115.363408 
L 127.243741 115.426575 
L 127.373616 116.152844 
L 127.795709 119.29756 
L 127.990521 119.788571 
L 128.02299 119.753809 
L 128.120396 118.79969 
L 128.737301 111.197154 
L 128.76977 111.236734 
L 128.997051 111.790792 
L 129.256801 113.926191 
L 129.581488 117.922531 
L 129.711362 118.029377 
L 129.808769 117.876664 
L 130.100987 117.053995 
L 130.133456 117.093561 
L 130.230862 117.404363 
L 130.685423 120.927281 
L 131.042579 123.385287 
L 131.26986 123.923408 
L 131.334797 123.880605 
L 131.497141 122.726109 
L 132.146515 116.383186 
L 132.406265 115.396882 
L 132.503671 115.600525 
L 132.76342 117.053504 
L 133.964762 125.796061 
L 134.808949 135.46775 
L 135.068698 136.612539 
L 135.328448 137.741814 
L 135.360916 137.731181 
L 135.490791 137.277414 
L 135.78301 136.207508 
L 135.815478 136.222164 
L 136.01029 136.250882 
L 136.140165 137.108921 
L 136.464852 139.023446 
L 136.627196 139.130496 
L 136.789539 139.892253 
L 136.951883 140.291589 
L 137.01682 140.287131 
L 137.27657 142.087526 
L 138.088287 150.191001 
L 138.120756 150.184592 
L 138.2831 150.142347 
L 138.412974 149.775625 
L 138.640255 149.094403 
L 138.77013 148.546255 
L 139.679254 143.96361 
L 139.77666 143.938145 
L 139.939003 144.458147 
L 140.003941 144.603932 
L 140.036409 144.534978 
L 140.198753 143.688768 
L 140.393565 140.627331 
L 140.750721 135.497757 
L 141.205283 131.890642 
L 141.497501 131.241872 
L 141.594907 131.444892 
L 141.822188 131.812153 
L 141.984532 132.031925 
L 142.081938 131.76408 
L 142.698843 128.932238 
L 142.861186 128.318978 
L 143.185873 125.742377 
L 143.737841 120.80527 
L 143.867716 120.595062 
L 144.192403 118.823727 
L 144.614496 117.044981 
L 144.809309 116.858162 
L 144.874246 116.821955 
L 145.004121 116.208897 
L 145.198933 114.288527 
L 145.588557 109.918198 
L 145.848307 109.019546 
L 145.913244 108.99827 
L 146.108057 108.269109 
L 146.335338 107.755722 
L 146.465212 107.977151 
L 146.692493 108.864149 
L 146.822368 109.278682 
L 146.854837 109.195447 
L 147.244461 107.538179 
L 147.27693 107.573749 
L 147.406805 108.171813 
L 148.088647 112.520114 
L 148.413334 114.399776 
L 148.900365 113.546073 
L 149.062708 113.473498 
L 149.192583 112.929562 
L 149.387395 111.431173 
L 149.647145 106.992198 
L 150.231582 96.984596 
L 150.296519 96.831912 
L 150.328988 96.868113 
L 150.458863 97.519788 
L 150.816018 101.34442 
L 152.082298 120.520418 
L 153.28364 133.783746 
L 153.510921 134.667327 
L 153.673264 135.626345 
L 154.225232 139.509128 
L 154.420044 139.183841 
L 154.51745 139.273573 
L 154.712262 139.407759 
L 154.744731 139.347532 
L 155.03695 138.066394 
L 155.329168 135.717083 
L 156.627916 120.549321 
L 156.887665 118.420779 
L 157.569508 108.640324 
L 157.991601 98.350015 
L 158.673444 80.04999 
L 158.998131 77.435085 
L 159.063068 77.377306 
L 159.095537 77.412143 
L 159.290349 78.105177 
L 159.387756 78.327605 
L 159.420224 78.310152 
L 159.679974 77.56166 
L 160.069598 76.029791 
L 160.26441 75.770235 
L 160.394285 75.64807 
L 160.621566 75.337256 
L 160.654035 75.361211 
L 161.725502 79.210049 
L 162.634626 88.998114 
L 163.673624 105.748975 
L 163.965842 107.778748 
L 164.193123 108.323001 
L 164.387936 108.328024 
L 164.51781 108.989991 
L 165.069778 112.475749 
L 165.26459 112.686556 
L 165.719152 113.24927 
L 165.751621 113.124822 
L 165.881496 112.396467 
L 166.368526 107.240086 
L 166.595807 105.674933 
L 166.660745 105.746308 
L 166.855557 106.745284 
L 167.180244 110.64682 
L 167.504931 113.186873 
L 168.02443 114.363142 
L 168.186774 114.433627 
L 168.219242 114.390342 
L 168.414054 113.78343 
L 169.03096 110.228443 
L 169.485522 106.504423 
L 169.712803 106.44438 
L 169.810209 106.495345 
L 170.069958 108.223864 
L 170.686864 112.599123 
L 170.881676 112.705082 
L 170.946613 112.652889 
L 170.979082 112.714023 
L 171.044019 112.74208 
L 171.076488 112.705396 
L 171.2713 112.073815 
L 171.498581 110.147958 
L 171.823268 108.129101 
L 172.147955 107.248693 
L 172.27783 107.351189 
L 172.375236 107.751651 
L 173.219422 111.982703 
L 173.738922 113.97568 
L 174.388296 118.148473 
L 174.680514 120.25018 
L 175.394825 125.579352 
L 175.816918 126.23583 
L 176.011731 126.266401 
L 176.401355 125.740556 
L 176.53123 125.648602 
L 177.01826 124.18261 
L 177.440353 122.214074 
L 178.28454 118.931764 
L 178.317008 118.939581 
L 178.414415 119.146846 
L 178.804039 120.968062 
L 179.323538 124.118484 
L 179.51835 124.334528 
L 179.550819 124.314173 
L 179.680694 124.01962 
L 179.972912 122.518807 
L 180.492411 117.843532 
L 180.78463 115.663413 
L 180.882036 115.520732 
L 180.914505 115.55377 
L 181.076848 116.094013 
L 181.369066 118.266805 
L 182.01844 122.781221 
L 182.667814 125.409076 
L 183.02497 125.488306 
L 183.187314 124.846233 
L 183.544469 121.89503 
L 184.063969 117.983847 
L 184.193843 117.89509 
L 184.226312 117.927203 
L 184.388656 118.486723 
L 184.77828 119.589378 
L 185.005561 119.783835 
L 185.102967 119.623825 
L 185.297779 118.598234 
L 185.654935 114.821804 
L 186.304309 107.701555 
L 187.375776 100.805067 
L 188.252431 92.670887 
L 188.414775 92.265124 
L 188.544649 92.436696 
L 188.706993 93.212991 
L 188.901805 95.240288 
L 189.583648 104.169664 
L 190.979802 129.467348 
L 191.369426 133.786595 
L 191.596707 134.367428 
L 191.726582 134.256998 
L 191.79152 134.18699 
L 191.856457 134.245427 
L 191.986332 134.307729 
L 192.083738 134.177679 
L 192.603237 132.057124 
L 193.057799 128.0957 
L 193.350017 122.778643 
L 194.226672 105.295004 
L 195.135796 95.192741 
L 195.492951 93.699241 
L 195.590358 93.622063 
L 195.622826 93.657825 
L 195.78517 94.207648 
L 196.986512 100.374306 
L 197.343667 104.753157 
L 197.765761 113.202457 
L 198.707353 131.505525 
L 198.999571 133.712416 
L 199.161915 134.193622 
L 199.259321 134.282773 
L 199.29179 134.250247 
L 199.51907 133.647424 
L 199.746351 132.16863 
L 200.687944 124.881214 
L 200.882756 124.552547 
L 201.012631 124.692276 
L 201.824348 126.362751 
L 201.889286 126.367233 
L 201.921754 126.322502 
L 202.246441 125.737142 
L 203.28544 122.682866 
L 203.317909 122.704983 
L 203.707533 123.063027 
L 203.740002 123.01451 
L 203.902345 122.425302 
L 204.162095 120.310682 
L 205.330968 110.014002 
L 205.915405 106.548918 
L 206.305029 104.863324 
L 206.597247 102.876662 
L 206.986872 100.633073 
L 207.116747 100.527851 
L 207.149215 100.550865 
L 207.376496 100.987963 
L 208.058339 102.8588 
L 208.77265 106.010616 
L 209.097337 108.877812 
L 210.03893 118.136095 
L 210.883116 122.714367 
L 210.948053 122.755332 
L 210.980522 122.724105 
L 211.337678 121.872488 
L 211.922114 120.232738 
L 212.084458 120.113353 
L 212.571488 121.372152 
L 212.733832 121.308454 
L 213.058519 121.004636 
L 213.090988 121.037708 
L 213.318269 121.118127 
L 213.740362 121.071874 
L 214.065049 121.638915 
L 214.389736 122.178306 
L 214.552079 122.155155 
L 214.77936 121.813142 
L 215.201453 120.661679 
L 215.493672 118.982353 
L 215.818359 116.138193 
L 217.214513 101.048209 
L 218.415855 90.80973 
L 218.610667 90.512782 
L 218.740542 90.621294 
L 218.967823 91.265701 
L 219.260041 92.933883 
L 219.714603 97.553518 
L 220.266571 105.288395 
L 221.500381 123.241687 
L 221.954943 127.087945 
L 222.441974 129.722844 
L 223.448503 137.604827 
L 223.578378 137.575376 
L 223.740722 137.251236 
L 224.03294 136.002224 
L 224.617377 133.344454 
L 224.877126 132.246088 
L 225.948593 126.023833 
L 226.403155 125.314114 
L 226.857717 124.758391 
L 227.052529 123.858281 
L 228.059059 116.376568 
L 229.325338 101.983102 
L 229.942244 96.547156 
L 230.137056 96.193765 
L 230.266931 96.386113 
L 230.494212 97.281042 
L 232.377396 107.632231 
L 233.318989 114.022421 
L 233.741082 115.382385 
L 234.487862 116.639045 
L 234.845018 118.694276 
L 235.559329 123.591163 
L 235.656735 123.636257 
L 235.689204 123.595652 
L 235.851547 123.004874 
L 236.143766 120.789925 
L 236.825608 115.425674 
L 237.377576 112.763389 
L 237.669795 112.168949 
L 237.994482 111.99205 
L 238.124356 112.14092 
L 238.351637 112.89087 
L 238.806199 115.436011 
L 239.358167 118.005475 
L 240.007541 119.863383 
L 240.52704 120.874353 
L 240.754321 120.873769 
L 241.04654 120.563415 
L 241.436164 119.767489 
L 242.312819 117.27911 
L 242.929724 115.068075 
L 243.059599 115.150686 
L 243.254411 115.766818 
L 244.066129 118.956602 
L 244.228472 118.803271 
L 245.202533 117.076921 
L 245.78697 115.831266 
L 246.144126 115.396333 
L 246.468813 114.600949 
L 247.897436 110.258677 
L 248.222123 109.927493 
L 248.416935 109.957086 
L 248.644216 110.25631 
L 249.390996 111.514329 
L 249.553339 111.374148 
L 249.813089 110.758132 
L 250.754681 108.180895 
L 250.981962 108.196874 
L 251.339118 108.533287 
L 251.598868 109.084323 
L 251.956023 110.514718 
L 254.228832 122.32314 
L 255.04055 127.652995 
L 255.430174 128.89111 
L 256.079548 130.411217 
L 256.858797 132.93512 
L 257.021141 132.947652 
L 257.215953 132.685033 
L 257.573109 131.688521 
L 257.995202 129.872186 
L 258.384826 127.101851 
L 258.806919 122.249921 
L 259.391356 112.453573 
L 260.78751 88.285549 
L 261.112197 86.413618 
L 261.307009 86.215411 
L 261.436884 86.430798 
L 261.631696 87.253168 
L 261.923915 89.606139 
L 262.313539 94.780998 
L 263.060319 108.450726 
L 263.807099 120.802611 
L 264.196724 124.417382 
L 264.456473 125.243204 
L 264.586348 125.18596 
L 264.748692 124.717026 
L 265.008441 123.179092 
L 265.495472 118.574903 
L 266.502001 108.891896 
L 266.826688 107.570834 
L 266.956563 107.521357 
L 267.086438 107.793435 
L 267.28125 108.85336 
L 267.573469 111.867036 
L 268.125437 120.51807 
L 268.872217 131.447155 
L 269.391716 135.959982 
L 269.813809 138.068912 
L 270.106027 138.623014 
L 270.268371 138.573475 
L 270.463183 138.169694 
L 270.755401 136.871408 
L 271.404775 132.447973 
L 273.060679 120.180747 
L 273.612647 114.137932 
L 274.197084 104.785348 
L 275.5283 81.857053 
L 275.852987 79.723984 
L 276.015331 79.492185 
L 276.112737 79.635679 
L 276.307549 80.534743 
L 276.599768 83.215113 
L 277.119267 90.577643 
L 278.807639 116.039462 
L 279.489482 121.944889 
L 280.106387 127.785525 
L 281.632416 144.182988 
L 281.892166 144.813053 
L 282.022041 144.748899 
L 282.184384 144.269464 
L 282.444134 142.519676 
L 282.833758 137.875668 
L 283.450664 127.318584 
L 284.684474 105.931554 
L 285.139036 102.017341 
L 285.561129 100.133471 
L 285.950754 99.226156 
L 286.210503 99.069426 
L 286.405315 99.224879 
L 286.762471 99.912106 
L 287.444314 101.71134 
L 287.931344 103.943041 
L 288.385906 105.761898 
L 288.54825 105.88244 
L 288.678125 105.72844 
L 288.905405 105.034187 
L 289.489842 102.22794 
L 290.106747 99.626693 
L 290.334028 99.359651 
L 290.496372 99.458164 
L 290.756121 100.007863 
L 291.243152 101.732059 
L 291.665245 103.891042 
L 292.022401 107.230402 
L 292.574369 115.111558 
L 293.645836 130.525165 
L 294.100398 134.064307 
L 294.392616 135.019827 
L 294.554959 135.052074 
L 294.717303 134.718432 
L 294.944584 133.650352 
L 295.30174 130.660731 
L 295.78877 124.399672 
L 296.925175 108.980014 
L 297.477143 104.729543 
L 297.834298 103.399081 
L 298.029111 103.253354 
L 298.191454 103.414641 
L 298.451204 104.073998 
L 299.230452 106.251095 
L 299.425265 106.278254 
L 299.652546 106.022319 
L 300.139576 104.986979 
L 300.626607 104.153009 
L 300.821419 104.151929 
L 301.016231 104.449072 
L 301.275981 105.338314 
L 301.730543 107.9053 
L 302.574729 112.511093 
L 303.321509 117.179045 
L 304.263101 122.377785 
L 304.587788 123.25365 
L 304.750132 123.279369 
L 304.912475 123.007766 
L 305.172225 121.98329 
L 305.561849 119.337945 
L 306.633316 111.632607 
L 307.152816 109.29048 
L 307.380097 108.939235 
L 307.509971 109.012326 
L 307.704784 109.48471 
L 308.029471 111.049049 
L 310.269811 125.190027 
L 310.886716 129.207772 
L 311.178935 130.012953 
L 311.308809 130.01569 
L 311.471153 129.681714 
L 311.730903 128.473933 
L 312.412745 123.737155 
L 313.54915 116.327885 
L 313.938774 115.011916 
L 314.198524 114.709995 
L 314.425805 114.744659 
L 314.78296 115.084154 
L 315.172585 115.728999 
L 315.562209 116.906037 
L 316.438864 119.808843 
L 316.568739 119.791668 
L 316.731083 119.427786 
L 316.958363 118.212287 
L 317.28305 115.094104 
L 317.932425 105.993507 
L 318.54933 98.631766 
L 318.874017 96.958619 
L 319.03636 96.808479 
L 319.166235 96.977593 
L 319.393516 97.742428 
L 319.78314 99.949739 
L 320.270171 104.057428 
L 321.114357 113.960758 
L 321.926075 121.800402 
L 322.510511 125.643908 
L 322.997542 127.599943 
L 324.29629 131.590349 
L 324.783321 133.363968 
L 325.010601 133.613126 
L 325.140476 133.518666 
L 325.335288 132.965699 
L 325.595038 131.308423 
L 325.952194 127.297957 
L 326.763911 114.480508 
L 327.413285 106.240582 
L 327.835378 103.113228 
L 328.095128 102.369278 
L 328.225003 102.36136 
L 328.387346 102.643172 
L 328.776971 104.006025 
L 329.199064 105.138233 
L 329.426345 105.252509 
L 329.913375 105.241244 
L 330.108188 105.765246 
L 330.432875 107.509601 
L 331.04978 110.805587 
L 331.406936 111.577854 
L 331.893966 112.461305 
L 332.218653 113.651912 
L 332.575809 115.917262 
L 334.978493 133.63438 
L 335.205774 134.15809 
L 335.30318 134.08942 
L 335.465523 133.548297 
L 335.725273 131.620173 
L 336.114897 126.675489 
L 337.511051 106.865926 
L 337.933145 104.253622 
L 338.192894 103.716075 
L 338.322769 103.834574 
L 338.517581 104.549216 
L 338.8098 106.835776 
L 339.361767 113.700243 
L 339.848798 118.544258 
L 340.141016 119.844263 
L 340.30336 119.990035 
L 340.433235 119.818922 
L 340.660516 119.000363 
L 341.082609 116.364928 
L 341.959264 110.73186 
L 342.835919 107.050175 
L 343.128137 106.461085 
L 343.258012 106.48421 
L 343.420355 106.825438 
L 343.647636 107.961387 
L 344.004792 111.22644 
L 345.076259 122.16918 
L 345.368477 122.970441 
L 345.530821 122.951369 
L 345.693164 122.573912 
L 345.920445 121.375261 
L 346.245132 118.311114 
L 346.862037 109.67959 
L 347.673755 99.445907 
L 347.998442 97.619135 
L 348.128317 97.514851 
L 348.160786 97.548361 
L 348.29066 97.917018 
L 348.517941 99.394013 
L 348.907566 103.774141 
L 350.563469 124.723973 
L 350.888156 125.848064 
L 351.0505 125.911544 
L 351.212843 125.630068 
L 351.472593 124.558694 
L 352.089498 120.652831 
L 353.323309 113.053609 
L 353.680465 112.051337 
L 353.875277 111.998462 
L 354.03762 112.246062 
L 354.329839 113.209365 
L 354.816869 114.743442 
L 354.979213 114.792489 
L 355.174025 114.556167 
L 355.628587 113.967494 
L 355.79093 114.073376 
L 356.018211 114.584051 
L 356.375367 116.044842 
L 357.122147 119.186064 
L 357.576709 121.077126 
L 358.323489 124.559367 
L 358.485833 124.660403 
L 358.615707 124.458434 
L 358.81052 123.650566 
L 359.102738 121.315632 
L 359.622237 114.827451 
L 361.31061 92.378486 
L 361.602828 91.131875 
L 361.700234 91.144861 
L 361.830109 91.524858 
L 362.05739 93.147411 
L 362.414545 97.695705 
L 363.096388 110.022365 
L 364.752292 141.163853 
L 365.076979 143.220702 
L 365.239322 143.418098 
L 365.369197 143.212288 
L 365.596478 142.206061 
L 365.986103 139.148742 
L 366.960164 128.886745 
L 368.226443 116.262862 
L 368.648536 113.759094 
L 368.875817 113.350901 
L 369.038161 113.371844 
L 369.427785 113.811375 
L 369.687535 113.924329 
L 369.914815 113.756181 
L 370.174565 113.236344 
L 370.531721 111.908429 
L 371.116157 108.669003 
L 372.54478 100.318602 
L 372.836999 99.790245 
L 372.999342 99.783966 
L 373.194154 100.066416 
L 373.453904 100.968657 
L 373.81106 103.163587 
L 374.947464 110.972629 
L 375.174745 111.294477 
L 375.337089 111.239214 
L 375.56437 110.852567 
L 375.889057 109.784822 
L 376.343618 107.361634 
L 377.090398 103.231159 
L 377.252742 103.084174 
L 377.382617 103.276767 
L 377.609898 104.203613 
L 377.967053 106.790749 
L 378.454084 112.065892 
L 379.135927 122.316286 
L 379.850238 132.149604 
L 380.239863 134.994554 
L 380.467143 135.451363 
L 380.597018 135.262663 
L 380.79183 134.433685 
L 381.181455 131.448032 
L 382.090579 124.389601 
L 382.934765 118.062196 
L 383.616607 113.518946 
L 383.973763 112.495515 
L 384.882887 110.882776 
L 385.240043 109.064031 
L 386.473853 101.836333 
L 386.766072 101.344368 
L 386.928415 101.411775 
L 387.188165 101.911512 
L 387.577789 103.226025 
L 387.999882 105.472829 
L 388.519381 109.614956 
L 389.168755 114.589242 
L 389.396036 115.145501 
L 389.525911 115.091833 
L 389.688255 114.639221 
L 389.948004 113.056093 
L 390.370097 108.666794 
L 391.05194 101.687538 
L 391.376627 100.244511 
L 391.538971 100.101939 
L 391.668845 100.290909 
L 391.863658 101.10666 
L 392.155876 103.49465 
L 392.642906 109.67074 
L 393.941655 126.982043 
L 394.363748 129.865304 
L 394.655966 130.649644 
L 394.850778 130.700679 
L 395.04559 130.478988 
L 395.922245 129.184015 
L 396.149526 129.32725 
L 396.474213 129.860747 
L 397.156056 131.02377 
L 397.708024 131.630853 
L 398.389867 132.77838 
L 398.487273 132.713542 
L 398.487273 132.713542 
" clip-path="url(#p463125340b)" style="fill: none; stroke: #0000ff; stroke-width: 2; stroke-linecap: square"/>
   </g>
   <g id="patch_3">
    <path d="M 57.6 162.432 
L 57.6 41.472 
" style="fill: none; stroke: #000000; stroke-width: 0.8; stroke-linejoin: miter; stroke-linecap: square"/>
   </g>
   <g id="patch_4">
    <path d="M 414.72 162.432 
L 414.72 41.472 
" style="fill: none; stroke: #000000; stroke-width: 0.8; stroke-linejoin: miter; stroke-linecap: square"/>
   </g>
   <g id="patch_5">
    <path d="M 57.6 162.432 
L 414.72 162.432 
" style="fill: none; stroke: #000000; stroke-width: 0.8; stroke-linejoin: miter; stroke-linecap: square"/>
   </g>
   <g id="patch_6">
    <path d="M 57.6 41.472 
L 414.72 41.472 
" style="fill: none; stroke: #000000; stroke-width: 0.8; stroke-linejoin: miter; stroke-linecap: square"/>
   </g>
   <g id="text_13">
    <!-- Mean Velocity Component V_x Over Time -->
    <g transform="translate(112.135312 35.472) scale(0.12 -0.12)">
     <defs>
      <path id="DejaVuSans-6c" d="M 603 4863 
L 1178 4863 
L 1178 0 
L 603 0 
L 603 4863 
z
" transform="scale(0.015625)"/>
      <path id="DejaVuSans-6f" d="M 1959 3097 
Q 1497 3097 1228 2736 
Q 959 2375 959 1747 
Q 959 1119 1226 758 
Q 1494 397 1959 397 
Q 2419 397 2687 759 
Q 2956 1122 2956 1747 
Q 2956 2369 2687 2733 
Q 2419 3097 1959 3097 
z
M 1959 3584 
Q 2709 3584 3137 3096 
Q 3566 2609 3566 1747 
Q 3566 888 3137 398 
Q 2709 -91 1959 -91 
Q 1206 -91 779 398 
Q 353 888 353 1747 
Q 353 2609 779 3096 
Q 1206 3584 1959 3584 
z
" transform="scale(0.015625)"/>
      <path id="DejaVuSans-63" d="M 3122 3366 
L 3122 2828 
Q 2878 2963 2633 3030 
Q 2388 3097 2138 3097 
Q 1578 3097 1268 2742 
Q 959 2388 959 1747 
Q 959 1106 1268 751 
Q 1578 397 2138 397 
Q 2388 397 2633 464 
Q 2878 531 3122 666 
L 3122 134 
Q 2881 22 2623 -34 
Q 2366 -91 2075 -91 
Q 1284 -91 818 406 
Q 353 903 353 1747 
Q 353 2603 823 3093 
Q 1294 3584 2113 3584 
Q 2378 3584 2631 3529 
Q 2884 3475 3122 3366 
z
" transform="scale(0.015625)"/>
      <path id="DejaVuSans-69" d="M 603 3500 
L 1178 3500 
L 1178 0 
L 603 0 
L 603 3500 
z
M 603 4863 
L 1178 4863 
L 1178 4134 
L 603 4134 
L 603 4863 
z
" transform="scale(0.015625)"/>
      <path id="DejaVuSans-79" d="M 2059 -325 
Q 1816 -950 1584 -1140 
Q 1353 -1331 966 -1331 
L 506 -1331 
L 506 -850 
L 844 -850 
Q 1081 -850 1212 -737 
Q 1344 -625 1503 -206 
L 1606 56 
L 191 3500 
L 800 3500 
L 1894 763 
L 2988 3500 
L 3597 3500 
L 2059 -325 
z
" transform="scale(0.015625)"/>
      <path id="DejaVuSans-43" d="M 4122 4306 
L 4122 3641 
Q 3803 3938 3442 4084 
Q 3081 4231 2675 4231 
Q 1875 4231 1450 3742 
Q 1025 3253 1025 2328 
Q 1025 1406 1450 917 
Q 1875 428 2675 428 
Q 3081 428 3442 575 
Q 3803 722 4122 1019 
L 4122 359 
Q 3791 134 3420 21 
Q 3050 -91 2638 -91 
Q 1578 -91 968 557 
Q 359 1206 359 2328 
Q 359 3453 968 4101 
Q 1578 4750 2638 4750 
Q 3056 4750 3426 4639 
Q 3797 4528 4122 4306 
z
" transform="scale(0.015625)"/>
      <path id="DejaVuSans-6d" d="M 3328 2828 
Q 3544 3216 3844 3400 
Q 4144 3584 4550 3584 
Q 5097 3584 5394 3201 
Q 5691 2819 5691 2113 
L 5691 0 
L 5113 0 
L 5113 2094 
Q 5113 2597 4934 2840 
Q 4756 3084 4391 3084 
Q 3944 3084 3684 2787 
Q 3425 2491 3425 1978 
L 3425 0 
L 2847 0 
L 2847 2094 
Q 2847 2600 2669 2842 
Q 2491 3084 2119 3084 
Q 1678 3084 1418 2786 
Q 1159 2488 1159 1978 
L 1159 0 
L 581 0 
L 581 3500 
L 1159 3500 
L 1159 2956 
Q 1356 3278 1631 3431 
Q 1906 3584 2284 3584 
Q 2666 3584 2933 3390 
Q 3200 3197 3328 2828 
z
" transform="scale(0.015625)"/>
      <path id="DejaVuSans-4f" d="M 2522 4238 
Q 1834 4238 1429 3725 
Q 1025 3213 1025 2328 
Q 1025 1447 1429 934 
Q 1834 422 2522 422 
Q 3209 422 3611 934 
Q 4013 1447 4013 2328 
Q 4013 3213 3611 3725 
Q 3209 4238 2522 4238 
z
M 2522 4750 
Q 3503 4750 4090 4092 
Q 4678 3434 4678 2328 
Q 4678 1225 4090 567 
Q 3503 -91 2522 -91 
Q 1538 -91 948 565 
Q 359 1222 359 2328 
Q 359 3434 948 4092 
Q 1538 4750 2522 4750 
z
" transform="scale(0.015625)"/>
      <path id="DejaVuSans-76" d="M 191 3500 
L 800 3500 
L 1894 563 
L 2988 3500 
L 3597 3500 
L 2284 0 
L 1503 0 
L 191 3500 
z
" transform="scale(0.015625)"/>
      <path id="DejaVuSans-72" d="M 2631 2963 
Q 2534 3019 2420 3045 
Q 2306 3072 2169 3072 
Q 1681 3072 1420 2755 
Q 1159 2438 1159 1844 
L 1159 0 
L 581 0 
L 581 3500 
L 1159 3500 
L 1159 2956 
Q 1341 3275 1631 3429 
Q 1922 3584 2338 3584 
Q 2397 3584 2469 3576 
Q 2541 3569 2628 3553 
L 2631 2963 
z
" transform="scale(0.015625)"/>
      <path id="DejaVuSans-54" d="M -19 4666 
L 3928 4666 
L 3928 4134 
L 2272 4134 
L 2272 0 
L 1638 0 
L 1638 4134 
L -19 4134 
L -19 4666 
z
" transform="scale(0.015625)"/>
     </defs>
     <use xlink:href="#DejaVuSans-4d"/>
     <use xlink:href="#DejaVuSans-65" x="86.279297"/>
     <use xlink:href="#DejaVuSans-61" x="147.802734"/>
     <use xlink:href="#DejaVuSans-6e" x="209.082031"/>
     <use xlink:href="#DejaVuSans-20" x="272.460938"/>
     <use xlink:href="#DejaVuSans-56" x="304.248047"/>
     <use xlink:href="#DejaVuSans-65" x="364.90625"/>
     <use xlink:href="#DejaVuSans-6c" x="426.429688"/>
     <use xlink:href="#DejaVuSans-6f" x="454.212891"/>
     <use xlink:href="#DejaVuSans-63" x="515.394531"/>
     <use xlink:href="#DejaVuSans-69" x="570.375"/>
     <use xlink:href="#DejaVuSans-74" x="598.158203"/>
     <use xlink:href="#DejaVuSans-79" x="637.367188"/>
     <use xlink:href="#DejaVuSans-20" x="696.546875"/>
     <use xlink:href="#DejaVuSans-43" x="728.333984"/>
     <use xlink:href="#DejaVuSans-6f" x="798.158203"/>
     <use xlink:href="#DejaVuSans-6d" x="859.339844"/>
     <use xlink:href="#DejaVuSans-70" x="956.751953"/>
     <use xlink:href="#DejaVuSans-6f" x="1020.228516"/>
     <use xlink:href="#DejaVuSans-6e" x="1081.410156"/>
     <use xlink:href="#DejaVuSans-65" x="1144.789062"/>
     <use xlink:href="#DejaVuSans-6e" x="1206.3125"/>
     <use xlink:href="#DejaVuSans-74" x="1269.691406"/>
     <use xlink:href="#DejaVuSans-20" x="1308.900391"/>
     <use xlink:href="#DejaVuSans-56" x="1340.6875"/>
     <use xlink:href="#DejaVuSans-5f" x="1409.095703"/>
     <use xlink:href="#DejaVuSans-78" x="1459.095703"/>
     <use xlink:href="#DejaVuSans-20" x="1518.275391"/>
     <use xlink:href="#DejaVuSans-4f" x="1550.0625"/>
     <use xlink:href="#DejaVuSans-76" x="1628.773438"/>
     <use xlink:href="#DejaVuSans-65" x="1687.953125"/>
     <use xlink:href="#DejaVuSans-72" x="1749.476562"/>
     <use xlink:href="#DejaVuSans-20" x="1790.589844"/>
     <use xlink:href="#DejaVuSans-54" x="1822.376953"/>
     <use xlink:href="#DejaVuSans-69" x="1880.335938"/>
     <use xlink:href="#DejaVuSans-6d" x="1908.119141"/>
     <use xlink:href="#DejaVuSans-65" x="2005.53125"/>
    </g>
   </g>
  </g>
  <g id="axes_2">
   <g id="patch_7">
    <path d="M 57.6 307.584 
L 414.72 307.584 
L 414.72 186.624 
L 57.6 186.624 
z
" style="fill: #ffffff"/>
   </g>
   <g id="matplotlib.axis_3">
    <g id="xtick_7">
     <g id="line2d_22">
      <path d="M 73.832727 307.584 
L 73.832727 186.624 
" clip-path="url(#pea049cba15)" style="fill: none; stroke: #b0b0b0; stroke-width: 0.8; stroke-linecap: square"/>
     </g>
     <g id="line2d_23">
      <g>
       <use xlink:href="#m87f3dcb778" x="73.832727" y="307.584" style="stroke: #000000; stroke-width: 0.8"/>
      </g>
     </g>
     <g id="text_14">
      <!-- 0 -->
      <g transform="translate(70.651477 322.182437) scale(0.1 -0.1)">
       <use xlink:href="#DejaVuSans-30"/>
      </g>
     </g>
    </g>
    <g id="xtick_8">
     <g id="line2d_24">
      <path d="M 138.77013 307.584 
L 138.77013 186.624 
" clip-path="url(#pea049cba15)" style="fill: none; stroke: #b0b0b0; stroke-width: 0.8; stroke-linecap: square"/>
     </g>
     <g id="line2d_25">
      <g>
       <use xlink:href="#m87f3dcb778" x="138.77013" y="307.584" style="stroke: #000000; stroke-width: 0.8"/>
      </g>
     </g>
     <g id="text_15">
      <!-- 2000 -->
      <g transform="translate(126.04513 322.182437) scale(0.1 -0.1)">
       <use xlink:href="#DejaVuSans-32"/>
       <use xlink:href="#DejaVuSans-30" x="63.623047"/>
       <use xlink:href="#DejaVuSans-30" x="127.246094"/>
       <use xlink:href="#DejaVuSans-30" x="190.869141"/>
      </g>
     </g>
    </g>
    <g id="xtick_9">
     <g id="line2d_26">
      <path d="M 203.707533 307.584 
L 203.707533 186.624 
" clip-path="url(#pea049cba15)" style="fill: none; stroke: #b0b0b0; stroke-width: 0.8; stroke-linecap: square"/>
     </g>
     <g id="line2d_27">
      <g>
       <use xlink:href="#m87f3dcb778" x="203.707533" y="307.584" style="stroke: #000000; stroke-width: 0.8"/>
      </g>
     </g>
     <g id="text_16">
      <!-- 4000 -->
      <g transform="translate(190.982533 322.182437) scale(0.1 -0.1)">
       <use xlink:href="#DejaVuSans-34"/>
       <use xlink:href="#DejaVuSans-30" x="63.623047"/>
       <use xlink:href="#DejaVuSans-30" x="127.246094"/>
       <use xlink:href="#DejaVuSans-30" x="190.869141"/>
      </g>
     </g>
    </g>
    <g id="xtick_10">
     <g id="line2d_28">
      <path d="M 268.644936 307.584 
L 268.644936 186.624 
" clip-path="url(#pea049cba15)" style="fill: none; stroke: #b0b0b0; stroke-width: 0.8; stroke-linecap: square"/>
     </g>
     <g id="line2d_29">
      <g>
       <use xlink:href="#m87f3dcb778" x="268.644936" y="307.584" style="stroke: #000000; stroke-width: 0.8"/>
      </g>
     </g>
     <g id="text_17">
      <!-- 6000 -->
      <g transform="translate(255.919936 322.182437) scale(0.1 -0.1)">
       <use xlink:href="#DejaVuSans-36"/>
       <use xlink:href="#DejaVuSans-30" x="63.623047"/>
       <use xlink:href="#DejaVuSans-30" x="127.246094"/>
       <use xlink:href="#DejaVuSans-30" x="190.869141"/>
      </g>
     </g>
    </g>
    <g id="xtick_11">
     <g id="line2d_30">
      <path d="M 333.582339 307.584 
L 333.582339 186.624 
" clip-path="url(#pea049cba15)" style="fill: none; stroke: #b0b0b0; stroke-width: 0.8; stroke-linecap: square"/>
     </g>
     <g id="line2d_31">
      <g>
       <use xlink:href="#m87f3dcb778" x="333.582339" y="307.584" style="stroke: #000000; stroke-width: 0.8"/>
      </g>
     </g>
     <g id="text_18">
      <!-- 8000 -->
      <g transform="translate(320.857339 322.182437) scale(0.1 -0.1)">
       <use xlink:href="#DejaVuSans-38"/>
       <use xlink:href="#DejaVuSans-30" x="63.623047"/>
       <use xlink:href="#DejaVuSans-30" x="127.246094"/>
       <use xlink:href="#DejaVuSans-30" x="190.869141"/>
      </g>
     </g>
    </g>
    <g id="xtick_12">
     <g id="line2d_32">
      <path d="M 398.519741 307.584 
L 398.519741 186.624 
" clip-path="url(#pea049cba15)" style="fill: none; stroke: #b0b0b0; stroke-width: 0.8; stroke-linecap: square"/>
     </g>
     <g id="line2d_33">
      <g>
       <use xlink:href="#m87f3dcb778" x="398.519741" y="307.584" style="stroke: #000000; stroke-width: 0.8"/>
      </g>
     </g>
     <g id="text_19">
      <!-- 10000 -->
      <g transform="translate(382.613491 322.182437) scale(0.1 -0.1)">
       <use xlink:href="#DejaVuSans-31"/>
       <use xlink:href="#DejaVuSans-30" x="63.623047"/>
       <use xlink:href="#DejaVuSans-30" x="127.246094"/>
       <use xlink:href="#DejaVuSans-30" x="190.869141"/>
       <use xlink:href="#DejaVuSans-30" x="254.492188"/>
      </g>
     </g>
    </g>
    <g id="text_20">
     <!-- Steps -->
     <g transform="translate(222.170156 335.860562) scale(0.1 -0.1)">
      <use xlink:href="#DejaVuSans-53"/>
      <use xlink:href="#DejaVuSans-74" x="63.476562"/>
      <use xlink:href="#DejaVuSans-65" x="102.685547"/>
      <use xlink:href="#DejaVuSans-70" x="164.208984"/>
      <use xlink:href="#DejaVuSans-73" x="227.685547"/>
     </g>
    </g>
   </g>
   <g id="matplotlib.axis_4">
    <g id="ytick_5">
     <g id="line2d_34">
      <path d="M 57.6 305.064411 
L 414.72 305.064411 
" clip-path="url(#pea049cba15)" style="fill: none; stroke: #b0b0b0; stroke-width: 0.8; stroke-linecap: square"/>
     </g>
     <g id="line2d_35">
      <g>
       <use xlink:href="#m6e08455f97" x="57.6" y="305.064411" style="stroke: #000000; stroke-width: 0.8"/>
      </g>
     </g>
     <g id="text_21">
      <!-- −0.1 -->
      <g transform="translate(26.317187 308.86363) scale(0.1 -0.1)">
       <use xlink:href="#DejaVuSans-2212"/>
       <use xlink:href="#DejaVuSans-30" x="83.789062"/>
       <use xlink:href="#DejaVuSans-2e" x="147.412109"/>
       <use xlink:href="#DejaVuSans-31" x="179.199219"/>
      </g>
     </g>
    </g>
    <g id="ytick_6">
     <g id="line2d_36">
      <path d="M 57.6 276.739132 
L 414.72 276.739132 
" clip-path="url(#pea049cba15)" style="fill: none; stroke: #b0b0b0; stroke-width: 0.8; stroke-linecap: square"/>
     </g>
     <g id="line2d_37">
      <g>
       <use xlink:href="#m6e08455f97" x="57.6" y="276.739132" style="stroke: #000000; stroke-width: 0.8"/>
      </g>
     </g>
     <g id="text_22">
      <!-- 0.0 -->
      <g transform="translate(34.696875 280.538351) scale(0.1 -0.1)">
       <use xlink:href="#DejaVuSans-30"/>
       <use xlink:href="#DejaVuSans-2e" x="63.623047"/>
       <use xlink:href="#DejaVuSans-30" x="95.410156"/>
      </g>
     </g>
    </g>
    <g id="ytick_7">
     <g id="line2d_38">
      <path d="M 57.6 248.413854 
L 414.72 248.413854 
" clip-path="url(#pea049cba15)" style="fill: none; stroke: #b0b0b0; stroke-width: 0.8; stroke-linecap: square"/>
     </g>
     <g id="line2d_39">
      <g>
       <use xlink:href="#m6e08455f97" x="57.6" y="248.413854" style="stroke: #000000; stroke-width: 0.8"/>
      </g>
     </g>
     <g id="text_23">
      <!-- 0.1 -->
      <g transform="translate(34.696875 252.213072) scale(0.1 -0.1)">
       <use xlink:href="#DejaVuSans-30"/>
       <use xlink:href="#DejaVuSans-2e" x="63.623047"/>
       <use xlink:href="#DejaVuSans-31" x="95.410156"/>
      </g>
     </g>
    </g>
    <g id="ytick_8">
     <g id="line2d_40">
      <path d="M 57.6 220.088575 
L 414.72 220.088575 
" clip-path="url(#pea049cba15)" style="fill: none; stroke: #b0b0b0; stroke-width: 0.8; stroke-linecap: square"/>
     </g>
     <g id="line2d_41">
      <g>
       <use xlink:href="#m6e08455f97" x="57.6" y="220.088575" style="stroke: #000000; stroke-width: 0.8"/>
      </g>
     </g>
     <g id="text_24">
      <!-- 0.2 -->
      <g transform="translate(34.696875 223.887794) scale(0.1 -0.1)">
       <use xlink:href="#DejaVuSans-30"/>
       <use xlink:href="#DejaVuSans-2e" x="63.623047"/>
       <use xlink:href="#DejaVuSans-32" x="95.410156"/>
      </g>
     </g>
    </g>
    <g id="ytick_9">
     <g id="line2d_42">
      <path d="M 57.6 191.763296 
L 414.72 191.763296 
" clip-path="url(#pea049cba15)" style="fill: none; stroke: #b0b0b0; stroke-width: 0.8; stroke-linecap: square"/>
     </g>
     <g id="line2d_43">
      <g>
       <use xlink:href="#m6e08455f97" x="57.6" y="191.763296" style="stroke: #000000; stroke-width: 0.8"/>
      </g>
     </g>
     <g id="text_25">
      <!-- 0.3 -->
      <g transform="translate(34.696875 195.562515) scale(0.1 -0.1)">
       <defs>
        <path id="DejaVuSans-33" d="M 2597 2516 
Q 3050 2419 3304 2112 
Q 3559 1806 3559 1356 
Q 3559 666 3084 287 
Q 2609 -91 1734 -91 
Q 1441 -91 1130 -33 
Q 819 25 488 141 
L 488 750 
Q 750 597 1062 519 
Q 1375 441 1716 441 
Q 2309 441 2620 675 
Q 2931 909 2931 1356 
Q 2931 1769 2642 2001 
Q 2353 2234 1838 2234 
L 1294 2234 
L 1294 2753 
L 1863 2753 
Q 2328 2753 2575 2939 
Q 2822 3125 2822 3475 
Q 2822 3834 2567 4026 
Q 2313 4219 1838 4219 
Q 1578 4219 1281 4162 
Q 984 4106 628 3988 
L 628 4550 
Q 988 4650 1302 4700 
Q 1616 4750 1894 4750 
Q 2613 4750 3031 4423 
Q 3450 4097 3450 3541 
Q 3450 3153 3228 2886 
Q 3006 2619 2597 2516 
z
" transform="scale(0.015625)"/>
       </defs>
       <use xlink:href="#DejaVuSans-30"/>
       <use xlink:href="#DejaVuSans-2e" x="63.623047"/>
       <use xlink:href="#DejaVuSans-33" x="95.410156"/>
      </g>
     </g>
    </g>
    <g id="text_26">
     <!-- Mean V_y -->
     <g transform="translate(19.959375 271.196187) rotate(-90) scale(0.1 -0.1)">
      <use xlink:href="#DejaVuSans-4d"/>
      <use xlink:href="#DejaVuSans-65" x="86.279297"/>
      <use xlink:href="#DejaVuSans-61" x="147.802734"/>
      <use xlink:href="#DejaVuSans-6e" x="209.082031"/>
      <use xlink:href="#DejaVuSans-20" x="272.460938"/>
      <use xlink:href="#DejaVuSans-56" x="304.248047"/>
      <use xlink:href="#DejaVuSans-5f" x="372.65625"/>
      <use xlink:href="#DejaVuSans-79" x="422.65625"/>
     </g>
    </g>
   </g>
   <g id="line2d_44">
    <path d="M 73.832727 265.727438 
L 74.157414 260.66382 
L 74.449633 258.374554 
L 74.547039 258.34559 
L 74.644445 258.795543 
L 75.034069 262.746592 
L 75.943193 274.173061 
L 76.170474 275.761362 
L 76.430223 277.414932 
L 76.689973 277.802889 
L 76.819848 278.031746 
L 76.852317 278.016704 
L 77.047129 277.606389 
L 77.371816 277.031193 
L 77.469222 277.173676 
L 78.151065 279.327103 
L 78.475752 282.469737 
L 78.800439 284.427936 
L 78.962782 284.497082 
L 79.157594 284.523795 
L 79.255 284.264264 
L 79.644625 281.733826 
L 79.839437 281.127521 
L 80.001781 280.78616 
L 80.196593 280.427471 
L 80.456342 280.329262 
L 80.553748 280.439153 
L 80.813498 281.560817 
L 81.235591 283.805517 
L 81.300529 283.754903 
L 81.560278 282.681107 
L 82.01484 277.25282 
L 82.696683 268.664234 
L 83.086307 266.853208 
L 83.475932 265.094384 
L 83.735681 263.144412 
L 84.190243 259.616779 
L 84.385055 259.464271 
L 84.644805 259.229156 
L 84.872086 258.03698 
L 85.488991 254.767596 
L 85.781209 253.263075 
L 86.040959 250.081636 
L 86.560458 243.98198 
L 86.820208 243.056975 
L 86.982551 242.624386 
L 87.307238 240.354309 
L 87.729331 234.787053 
L 88.346237 226.319567 
L 88.800799 222.080067 
L 89.125486 218.405548 
L 89.352767 217.295288 
L 89.872266 213.295643 
L 90.099547 212.239017 
L 90.164484 212.294503 
L 90.489171 213.417738 
L 90.52164 213.392314 
L 90.651515 213.050317 
L 91.365826 209.72576 
L 91.690513 207.363417 
L 91.787919 207.08071 
L 91.852857 207.159072 
L 91.982731 207.53015 
L 92.047669 207.416119 
L 92.729511 204.086339 
L 93.249011 201.003671 
L 93.671104 199.323507 
L 93.76851 199.070054 
L 94.060728 197.673167 
L 94.742571 193.869072 
L 94.807508 193.729507 
L 94.839977 193.793219 
L 94.904914 193.909915 
L 94.969852 193.812581 
L 95.294539 192.839079 
L 95.52182 192.138243 
L 95.586757 192.178861 
L 95.684163 192.703866 
L 96.982911 203.159775 
L 97.177724 203.629691 
L 97.210192 203.586734 
L 97.405005 203.064701 
L 97.437473 203.088112 
L 97.859566 204.0195 
L 98.02191 204.70056 
L 98.50894 207.271616 
L 98.638815 206.984416 
L 98.963502 206.33165 
L 99.02844 206.367767 
L 99.093377 206.487913 
L 99.288189 207.407648 
L 99.450533 209.219131 
L 99.905095 214.385466 
L 100.034969 214.997736 
L 100.554469 219.443167 
L 100.619406 219.253777 
L 100.814218 217.003992 
L 101.723342 205.292016 
L 101.820748 205.804062 
L 102.340247 209.919312 
L 102.502591 209.70041 
L 102.859746 208.539433 
L 102.957152 208.341263 
L 103.151965 207.186325 
L 103.736401 203.216458 
L 103.963682 202.466692 
L 104.320838 203.257037 
L 104.710462 203.917258 
L 104.840337 204.126141 
L 105.100087 205.308251 
L 105.359836 207.448135 
L 106.496241 223.206715 
L 106.788459 225.731788 
L 107.307958 230.517266 
L 107.502771 231.306035 
L 107.892395 234.339275 
L 107.957332 234.055083 
L 108.152145 232.025644 
L 108.574238 227.873431 
L 108.866456 226.142329 
L 108.931394 226.236799 
L 109.256081 227.190986 
L 109.483361 228.967652 
L 109.710642 230.072413 
L 109.808048 230.083073 
L 110.067798 229.678657 
L 110.100267 229.693727 
L 110.197673 229.979966 
L 110.457422 231.986349 
L 110.911984 235.336124 
L 111.204203 236.726466 
L 111.26914 236.779985 
L 111.301609 236.694415 
L 111.463952 235.88413 
L 111.691233 234.591413 
L 111.950983 234.902299 
L 112.113326 235.079466 
L 112.178264 234.966317 
L 112.632825 233.770079 
L 112.730232 233.985547 
L 113.347137 236.885906 
L 114.451073 244.728967 
L 114.970572 249.944519 
L 115.197853 250.499391 
L 115.230322 250.471357 
L 115.52254 249.431633 
L 115.717352 248.936262 
L 115.814758 249.34909 
L 116.106977 252.512522 
L 116.52907 256.837242 
L 116.658944 258.060094 
L 116.951163 261.105411 
L 117.178444 261.612937 
L 118.477192 265.812871 
L 118.736941 266.602501 
L 118.996691 268.011071 
L 119.061628 267.866887 
L 119.51619 267.003178 
L 119.711002 266.926302 
L 119.873346 266.336528 
L 120.100627 264.155924 
L 120.685063 257.180794 
L 121.594187 250.316108 
L 121.756531 249.951502 
L 122.146155 248.636479 
L 122.990341 245.927533 
L 123.76959 239.620476 
L 123.899465 240.186913 
L 124.02934 240.747643 
L 124.061808 240.700932 
L 124.224152 240.36895 
L 124.256621 240.403136 
L 124.483901 240.612125 
L 124.646245 240.956759 
L 125.360556 243.994682 
L 125.393025 243.979295 
L 125.977462 242.974436 
L 126.042399 243.070744 
L 126.334617 244.286877 
L 126.561898 246.321306 
L 127.01646 250.169261 
L 127.503491 253.516781 
L 127.860646 257.049694 
L 128.250271 260.977462 
L 128.445083 261.550804 
L 128.574958 261.088912 
L 128.899645 259.697046 
L 128.997051 259.678315 
L 129.061988 259.759693 
L 129.094457 259.671996 
L 129.191863 259.553691 
L 129.224332 259.632257 
L 129.354207 260.208762 
L 129.743831 265.470675 
L 130.003581 267.70683 
L 131.042579 273.275862 
L 131.26986 274.236017 
L 131.334797 274.161417 
L 131.562078 273.789655 
L 131.594547 273.813372 
L 131.691953 273.833633 
L 131.724422 273.779652 
L 131.886765 272.916791 
L 132.211452 271.759995 
L 132.633546 270.994301 
L 132.698483 271.107148 
L 132.893295 272.019775 
L 133.607607 274.780486 
L 133.737481 274.627665 
L 133.867356 274.425898 
L 133.932294 274.459319 
L 134.159575 274.515576 
L 134.354387 274.904652 
L 134.386855 274.858783 
L 134.549199 274.074187 
L 134.808949 271.248755 
L 135.231042 267.600659 
L 135.847947 262.108056 
L 136.237571 258.192731 
L 136.302509 258.19063 
L 136.334977 258.238445 
L 136.367446 258.25947 
L 136.497321 257.907367 
L 136.562258 257.929037 
L 136.659665 257.997341 
L 136.757071 258.277153 
L 136.984352 258.869766 
L 137.081758 258.794423 
L 137.27657 258.36348 
L 137.341507 258.43824 
L 137.438913 258.514503 
L 137.471382 258.476222 
L 137.601257 258.380179 
L 137.7636 259.482164 
L 138.77013 269.446043 
L 139.02988 271.548994 
L 139.387035 274.435098 
L 139.711722 276.428656 
L 140.101347 277.434939 
L 140.328628 277.771773 
L 140.685783 278.16725 
L 141.172814 279.724805 
L 141.302689 279.450555 
L 141.497501 278.141701 
L 142.146875 273.597449 
L 142.439093 273.206268 
L 142.471562 273.235857 
L 142.568968 273.408967 
L 142.731312 274.43283 
L 143.607967 281.971442 
L 144.159935 283.998255 
L 144.354747 284.24242 
L 144.484622 283.999412 
L 144.646965 283.917584 
L 144.809309 283.952901 
L 145.231402 284.46289 
L 145.361276 284.389172 
L 145.491151 283.810997 
L 146.172994 277.690176 
L 146.497681 275.082377 
L 147.211992 273.403333 
L 147.439273 273.061112 
L 147.536679 272.843279 
L 147.569148 272.879704 
L 147.731492 273.448704 
L 148.153585 275.4883 
L 148.413334 276.085018 
L 148.478272 275.992659 
L 148.802959 275.111071 
L 148.867896 275.193592 
L 149.192583 275.957396 
L 149.419864 276.418426 
L 149.549739 276.534193 
L 149.809489 277.165764 
L 149.906895 277.65225 
L 150.199113 279.080395 
L 150.296519 279.080393 
L 150.393925 278.871796 
L 150.5238 277.954875 
L 151.562798 267.841145 
L 151.952423 266.828851 
L 152.01736 266.930738 
L 152.244641 267.150358 
L 152.342047 267.279229 
L 152.471922 267.770281 
L 152.796609 271.004592 
L 153.218702 276.415274 
L 153.803139 280.391828 
L 154.225232 283.32332 
L 154.647325 287.297611 
L 154.907075 289.126188 
L 155.394105 296.251021 
L 155.816198 301.304358 
L 155.913604 301.523377 
L 155.946073 301.485538 
L 156.140885 300.820959 
L 156.27076 300.359988 
L 156.335698 300.436853 
L 156.498041 300.749366 
L 156.822728 302.085818 
L 156.887665 301.854414 
L 157.114946 299.79476 
L 157.796789 294.141373 
L 158.056539 293.590558 
L 158.186414 293.221086 
L 158.413694 291.55336 
L 158.640975 290.662943 
L 158.998131 289.220207 
L 160.069598 283.21076 
L 160.361817 281.765975 
L 160.621566 278.680108 
L 161.043659 271.050413 
L 161.498221 264.510287 
L 162.309939 260.741812 
L 162.374876 260.661107 
L 162.472282 260.19954 
L 163.219062 256.091448 
L 163.316468 256.244826 
L 163.511281 257.095778 
L 163.803499 259.551063 
L 164.290529 262.755619 
L 164.582748 263.112159 
L 164.874966 263.22121 
L 165.167184 264.272553 
L 166.076308 269.610559 
L 166.206183 269.823175 
L 166.238652 269.809846 
L 166.368526 269.503432 
L 166.53087 269.328763 
L 166.855557 269.17185 
L 167.082838 268.797614 
L 167.212713 268.857419 
L 167.342587 269.246994 
L 167.472462 269.4605 
L 167.504931 269.443537 
L 167.667274 269.414775 
L 167.862087 269.703609 
L 168.089367 270.389983 
L 168.349117 271.813273 
L 168.868616 274.80575 
L 168.966022 274.601604 
L 169.095897 274.002275 
L 169.77774 270.35343 
L 169.810209 270.363993 
L 169.972552 271.10172 
L 170.52452 274.524 
L 170.78427 275.283854 
L 170.914145 275.159821 
L 171.141425 274.68615 
L 171.173894 274.724168 
L 171.303769 274.881631 
L 171.401175 274.658988 
L 171.628456 273.214539 
L 172.959673 263.936781 
L 173.089548 263.759937 
L 173.122016 263.773279 
L 173.28436 263.818955 
L 173.544109 263.978182 
L 173.738922 263.878724 
L 173.933734 263.562425 
L 174.420764 262.492851 
L 174.550639 262.38061 
L 174.972732 261.336366 
L 175.070138 261.508506 
L 175.557169 263.366594 
L 176.011731 267.872796 
L 176.563699 273.154749 
L 177.732572 283.788907 
L 178.089728 285.248137 
L 178.187134 285.15218 
L 178.414415 284.343368 
L 178.77157 283.400597 
L 179.03132 283.088845 
L 179.323538 283.148384 
L 179.550819 283.177751 
L 179.713163 282.82142 
L 179.972912 281.319113 
L 180.459943 278.718879 
L 180.817098 277.987527 
L 181.466472 277.040299 
L 181.498941 277.076197 
L 181.791159 277.248481 
L 182.01844 276.918398 
L 182.213253 276.829382 
L 182.635346 276.371155 
L 182.797689 276.312147 
L 182.960033 276.912179 
L 183.28472 277.929975 
L 183.609407 278.392557 
L 184.258781 280.767903 
L 185.849747 294.191847 
L 186.109497 295.03418 
L 186.239372 295.190511 
L 186.953683 297.063011 
L 187.180964 297.653278 
L 187.213433 297.638035 
L 187.375776 297.283782 
L 187.667994 295.256743 
L 187.992681 290.051615 
L 188.414775 280.200736 
L 188.934274 268.415586 
L 189.388836 263.929575 
L 190.233022 259.174653 
L 190.427834 258.72526 
L 190.460303 258.736603 
L 190.557709 258.962205 
L 190.817458 260.504023 
L 191.109677 263.767645 
L 192.0188 276.579724 
L 192.862987 288.343199 
L 193.220142 291.867489 
L 193.642235 294.190248 
L 193.739642 294.292189 
L 193.77211 294.254323 
L 193.934454 293.615465 
L 194.324078 291.177407 
L 194.681234 286.08473 
L 195.817638 267.833056 
L 197.213793 258.912783 
L 197.506011 258.295538 
L 197.53848 258.32011 
L 197.733292 258.813231 
L 198.122916 260.799907 
L 199.77882 269.442406 
L 200.103507 270.398213 
L 200.817819 272.952826 
L 201.304849 275.993951 
L 201.759411 278.745008 
L 202.830878 285.50442 
L 203.155565 286.515389 
L 203.740002 288.597372 
L 204.227032 290.598154 
L 204.51925 290.86567 
L 204.551719 290.828887 
L 204.746531 290.305617 
L 205.006281 288.774415 
L 205.395905 286.981693 
L 205.655655 286.329759 
L 206.110217 285.240465 
L 206.434904 284.949075 
L 206.629716 283.832322 
L 206.954403 280.229175 
L 208.090808 266.849414 
L 208.870056 261.426359 
L 209.064869 260.854947 
L 209.162275 260.955186 
L 209.357087 261.699767 
L 209.616837 263.981175 
L 210.201273 268.907789 
L 210.688304 273.087088 
L 211.402615 278.753495 
L 211.629896 279.35571 
L 212.051989 279.456273 
L 212.474082 279.545053 
L 212.993582 280.005193 
L 213.090988 279.921948 
L 213.513081 278.837777 
L 213.77283 278.524295 
L 214.097517 278.504837 
L 214.357267 279.205334 
L 214.714423 280.712361 
L 215.136516 283.734068 
L 215.980702 290.27035 
L 216.207983 290.854558 
L 216.402795 290.819891 
L 216.565139 290.533732 
L 216.79242 289.575634 
L 217.571668 284.438669 
L 218.415855 274.659965 
L 219.487322 262.968871 
L 220.006821 259.245216 
L 220.461383 256.952041 
L 220.753601 256.37045 
L 221.045819 256.317267 
L 221.208163 256.545539 
L 221.435444 257.392567 
L 222.214693 260.824737 
L 222.53938 261.376028 
L 222.799129 262.55129 
L 223.091348 264.930074 
L 224.844658 282.347955 
L 225.396625 285.007842 
L 226.078468 286.676664 
L 226.53303 287.512986 
L 226.825248 288.758214 
L 227.377216 291.156943 
L 227.994122 292.676651 
L 228.156465 292.709406 
L 228.318809 292.450033 
L 228.611027 291.419086 
L 228.870777 290.710397 
L 229.195464 289.807732 
L 229.455213 288.355941 
L 230.03965 282.96499 
L 230.753961 277.334577 
L 231.468273 272.429757 
L 232.117647 267.449817 
L 232.572208 265.38687 
L 232.799489 265.118949 
L 232.929364 265.216713 
L 233.156645 265.785042 
L 233.54627 267.537744 
L 234.098237 271.118599 
L 234.422924 272.446051 
L 234.974892 274.003799 
L 235.52686 276.320696 
L 235.981422 278.090132 
L 236.176234 278.267754 
L 236.306109 278.107327 
L 237.117827 276.5266 
L 237.28017 276.483355 
L 237.604857 276.060713 
L 238.091888 275.687265 
L 239.195824 273.772763 
L 239.682854 272.986352 
L 239.747792 273.104235 
L 240.397166 274.350439 
L 241.403695 276.396982 
L 241.695914 276.503019 
L 241.923195 276.410776 
L 242.637506 275.802357 
L 242.929724 275.697416 
L 243.157005 275.895144 
L 243.384286 276.456694 
L 243.741442 278.054033 
L 244.683034 282.811511 
L 244.910315 282.961971 
L 245.105127 282.784028 
L 245.397346 282.135091 
L 245.819439 280.345171 
L 246.209063 279.270396 
L 246.598688 278.822631 
L 246.955843 278.535188 
L 247.118187 278.739722 
L 247.410405 279.594897 
L 248.059779 281.628923 
L 248.254591 281.667442 
L 248.449403 281.352828 
L 248.77409 280.271391 
L 249.553339 276.648439 
L 250.624806 271.405276 
L 250.917025 270.924012 
L 251.176774 270.866203 
L 251.53393 270.799311 
L 251.923555 270.448845 
L 252.345648 269.768861 
L 252.930084 268.320126 
L 253.417115 267.201391 
L 253.676864 267.088785 
L 254.001551 267.181948 
L 254.261301 267.498901 
L 254.618457 268.361698 
L 255.073019 270.14172 
L 256.436704 277.083366 
L 256.988672 282.491685 
L 257.735452 289.317713 
L 258.774451 296.331647 
L 259.164075 297.785731 
L 259.391356 298.003544 
L 259.553699 297.891607 
L 259.78098 297.41184 
L 260.073199 296.175189 
L 260.397886 293.605381 
L 260.819979 288.08749 
L 261.469353 275.978695 
L 262.346008 260.150208 
L 262.735632 256.768986 
L 262.962913 256.140845 
L 263.060319 256.204733 
L 263.222663 256.755399 
L 263.482412 258.683316 
L 263.904505 263.879453 
L 264.813629 275.427282 
L 265.203253 277.767787 
L 265.495472 278.433217 
L 265.690284 278.437595 
L 265.885096 278.134394 
L 266.144846 277.245862 
L 266.469533 275.20429 
L 266.891626 270.840952 
L 267.930624 259.180476 
L 268.157905 258.502069 
L 268.255311 258.525888 
L 268.417655 258.973665 
L 268.677404 260.632699 
L 269.131966 265.416106 
L 270.625527 282.187333 
L 271.307369 287.050655 
L 272.378836 294.302551 
L 272.995742 298.069101 
L 273.482772 299.816867 
L 273.774991 300.267837 
L 273.969803 300.257144 
L 274.164615 299.934833 
L 274.391896 299.022932 
L 274.684114 296.773073 
L 275.073739 291.784942 
L 275.78805 278.932053 
L 276.632236 264.755851 
L 277.184204 259.063263 
L 277.736172 255.55367 
L 278.125797 254.240368 
L 278.353077 254.01811 
L 278.54789 254.132486 
L 278.840108 254.677732 
L 279.619357 256.839311 
L 280.073919 258.604911 
L 280.496012 261.343393 
L 281.015511 266.353271 
L 281.762291 275.97356 
L 283.353258 297.809107 
L 283.775351 300.406217 
L 284.0351 300.991829 
L 284.164975 300.950329 
L 284.327319 300.595369 
L 284.587068 299.379044 
L 284.976693 296.211147 
L 286.53519 281.603337 
L 286.924815 280.19305 
L 287.346908 279.482345 
L 287.704063 279.241856 
L 287.931344 279.347435 
L 288.191094 279.792359 
L 288.710593 280.712799 
L 288.840468 280.620968 
L 289.03528 280.125679 
L 289.359967 278.530717 
L 289.976873 274.167087 
L 290.983402 267.147522 
L 291.665245 262.529405 
L 292.314619 258.050339 
L 292.606837 257.314703 
L 292.736712 257.319812 
L 292.899056 257.626634 
L 293.126337 258.647647 
L 293.451024 261.383263 
L 293.905585 267.461253 
L 295.399146 289.046035 
L 295.853708 292.292225 
L 296.113457 292.971386 
L 296.243332 292.959436 
L 296.405675 292.645582 
L 296.697894 291.439254 
L 297.217393 288.213015 
L 298.029111 281.3971 
L 298.581078 277.777942 
L 298.905765 276.844091 
L 299.133046 276.714598 
L 299.360327 276.878597 
L 300.431794 277.973829 
L 300.626607 277.745386 
L 300.886356 277.040306 
L 301.340918 274.984559 
L 302.672135 268.651299 
L 302.931884 268.25029 
L 303.094228 268.333745 
L 303.321509 268.808979 
L 303.743602 270.315587 
L 304.165695 272.575971 
L 304.7826 277.511395 
L 305.367037 281.459593 
L 305.724193 282.653478 
L 305.951474 282.845966 
L 306.146286 282.726652 
L 306.406036 282.218011 
L 306.763191 280.934806 
L 307.185284 278.460656 
L 308.484032 269.670424 
L 308.711313 269.397043 
L 308.906126 269.477454 
L 309.815249 270.485786 
L 310.074999 271.129046 
L 310.399686 272.598628 
L 310.886716 276.045326 
L 311.893246 283.303149 
L 312.185464 284.012198 
L 312.412745 284.091209 
L 312.672495 283.8581 
L 314.230993 281.970887 
L 314.55568 281.949479 
L 315.140116 282.025224 
L 315.497272 281.736455 
L 315.854428 281.519962 
L 316.04924 281.648655 
L 316.276521 282.175473 
L 316.568739 283.526568 
L 317.5428 288.594758 
L 317.705144 288.654778 
L 317.867487 288.347865 
L 318.094768 287.276562 
L 318.419455 284.506908 
L 319.003892 277.156469 
L 319.848078 267.203965 
L 320.400046 262.972313 
L 320.724733 261.918247 
L 320.919545 261.810106 
L 321.146826 261.961851 
L 321.53645 262.515563 
L 321.893606 263.405667 
L 322.445574 265.581815 
L 324.198884 273.681578 
L 324.588508 276.862119 
L 325.270351 284.703888 
L 326.147006 294.387364 
L 326.471693 295.917852 
L 326.666505 296.076648 
L 326.828849 295.817092 
L 327.088598 294.75855 
L 327.445754 292.179117 
L 327.932785 286.771177 
L 328.647096 279.002143 
L 329.03672 276.995786 
L 329.523751 275.782883 
L 329.913375 274.497354 
L 330.400406 272.982255 
L 330.595218 272.864152 
L 330.79003 273.025721 
L 331.374467 273.670966 
L 331.53681 273.46002 
L 331.764091 272.708131 
L 332.121247 270.625709 
L 332.932965 265.749184 
L 333.192714 265.235881 
L 333.322589 265.259103 
L 333.484932 265.571767 
L 333.712213 266.580011 
L 334.0369 269.260825 
L 334.523931 275.641836 
L 335.465523 288.421963 
L 335.822679 290.651384 
L 336.082429 291.148013 
L 336.212303 291.067205 
L 336.407116 290.561523 
L 336.764271 288.753075 
L 338.420175 278.210182 
L 339.102018 273.242854 
L 339.329299 272.719123 
L 339.459174 272.777676 
L 339.653986 273.267196 
L 340.011141 274.96113 
L 341.277421 281.571549 
L 341.602108 282.23752 
L 341.861857 282.34611 
L 342.089138 282.170022 
L 342.348888 281.622596 
L 342.641106 280.440612 
L 343.030731 277.778799 
L 344.102198 269.71452 
L 344.29701 269.435761 
L 344.426885 269.587035 
L 344.621697 270.308279 
L 344.946384 272.562402 
L 345.855508 281.136732 
L 346.472413 285.955389 
L 346.764631 286.943224 
L 346.959444 287.041284 
L 347.121787 286.793943 
L 347.349068 285.895493 
L 347.641286 283.633453 
L 348.063379 278.271565 
L 349.069909 264.836826 
L 349.394596 263.002053 
L 349.55694 262.792533 
L 349.589408 262.809379 
L 349.719283 263.067099 
L 349.946564 264.188638 
L 350.336189 267.601961 
L 351.602468 279.830164 
L 351.894686 280.65204 
L 352.121967 280.778724 
L 352.414185 280.637574 
L 352.80381 280.492655 
L 353.128497 280.651502 
L 353.420715 280.724604 
L 353.615527 280.538408 
L 353.940214 279.797443 
L 354.394776 278.821322 
L 354.622057 278.767294 
L 355.109088 278.900244 
L 355.3039 278.472851 
L 355.596118 277.157146 
L 356.31043 273.738336 
L 356.53771 273.487854 
L 356.700054 273.657187 
L 356.959804 274.364125 
L 357.54424 276.744486 
L 357.998802 279.470835 
L 358.907926 286.96324 
L 359.362488 289.598572 
L 359.654706 290.251186 
L 359.817049 290.243421 
L 359.979393 289.971173 
L 360.239142 288.983549 
L 360.596298 286.52757 
L 361.05086 281.618907 
L 361.635297 272.531792 
L 362.609358 256.983597 
L 363.063919 253.153733 
L 363.356138 252.143933 
L 363.518481 252.087634 
L 363.680825 252.408661 
L 363.908106 253.517933 
L 364.232793 256.42561 
L 364.752292 263.517319 
L 366.213384 284.207437 
L 366.79782 289.436992 
L 367.219913 291.637722 
L 367.512132 292.253173 
L 367.706944 292.295445 
L 367.901756 292.097458 
L 368.161506 291.444157 
L 368.518661 289.796856 
L 369.168035 286.831849 
L 369.460254 286.354454 
L 369.655066 286.364569 
L 369.914815 286.654933 
L 370.629127 287.599434 
L 370.888877 287.539688 
L 371.31097 287.151887 
L 371.635657 286.536176 
L 371.960344 285.396265 
L 372.349968 283.052508 
L 373.843528 272.540044 
L 374.070809 272.215503 
L 374.200684 272.300637 
L 374.395496 272.787772 
L 374.752652 274.471625 
L 375.434495 277.622428 
L 375.726713 278.153592 
L 375.921525 278.141485 
L 376.116337 277.81213 
L 376.376087 276.851222 
L 376.700774 274.729254 
L 377.220273 269.498693 
L 377.902116 263.181499 
L 378.324209 261.089408 
L 378.583959 260.608699 
L 378.746302 260.65765 
L 378.941114 261.090851 
L 379.233333 262.49866 
L 379.687895 266.033711 
L 380.402206 273.448438 
L 381.278861 282.363602 
L 381.733423 284.869129 
L 382.382797 287.075862 
L 382.772421 287.845081 
L 383.032171 287.974481 
L 383.226983 287.833292 
L 383.486733 287.306764 
L 384.330919 285.290128 
L 384.5582 285.266236 
L 384.850418 285.495102 
L 385.337449 285.860094 
L 385.532261 285.755738 
L 385.759542 285.33638 
L 386.084229 284.149625 
L 386.473853 281.730927 
L 387.642726 273.693036 
L 388.194694 271.485054 
L 388.454444 271.127613 
L 388.584319 271.226866 
L 388.779131 271.771807 
L 389.103818 273.613955 
L 390.077879 279.757982 
L 390.30516 280.19339 
L 390.435035 280.124036 
L 390.597378 279.699129 
L 390.889597 278.094545 
L 391.344158 274.113208 
L 392.902656 259.148001 
L 393.129937 258.67878 
L 393.259812 258.742451 
L 393.422155 259.168187 
L 393.681905 260.622791 
L 394.071529 264.321105 
L 395.142996 275.389694 
L 395.500152 276.854656 
L 395.824839 277.334574 
L 396.506682 277.999617 
L 396.863838 278.926219 
L 398.162586 283.537682 
L 398.487273 285.709016 
L 398.487273 285.709016 
" clip-path="url(#pea049cba15)" style="fill: none; stroke: #ff0000; stroke-width: 2; stroke-linecap: square"/>
   </g>
   <g id="patch_8">
    <path d="M 57.6 307.584 
L 57.6 186.624 
" style="fill: none; stroke: #000000; stroke-width: 0.8; stroke-linejoin: miter; stroke-linecap: square"/>
   </g>
   <g id="patch_9">
    <path d="M 414.72 307.584 
L 414.72 186.624 
" style="fill: none; stroke: #000000; stroke-width: 0.8; stroke-linejoin: miter; stroke-linecap: square"/>
   </g>
   <g id="patch_10">
    <path d="M 57.6 307.584 
L 414.72 307.584 
" style="fill: none; stroke: #000000; stroke-width: 0.8; stroke-linejoin: miter; stroke-linecap: square"/>
   </g>
   <g id="patch_11">
    <path d="M 57.6 186.624 
L 414.72 186.624 
" style="fill: none; stroke: #000000; stroke-width: 0.8; stroke-linejoin: miter; stroke-linecap: square"/>
   </g>
   <g id="text_27">
    <!-- Mean Velocity Component V_y Over Time -->
    <g transform="translate(112.135312 180.624) scale(0.12 -0.12)">
     <use xlink:href="#DejaVuSans-4d"/>
     <use xlink:href="#DejaVuSans-65" x="86.279297"/>
     <use xlink:href="#DejaVuSans-61" x="147.802734"/>
     <use xlink:href="#DejaVuSans-6e" x="209.082031"/>
     <use xlink:href="#DejaVuSans-20" x="272.460938"/>
     <use xlink:href="#DejaVuSans-56" x="304.248047"/>
     <use xlink:href="#DejaVuSans-65" x="364.90625"/>
     <use xlink:href="#DejaVuSans-6c" x="426.429688"/>
     <use xlink:href="#DejaVuSans-6f" x="454.212891"/>
     <use xlink:href="#DejaVuSans-63" x="515.394531"/>
     <use xlink:href="#DejaVuSans-69" x="570.375"/>
     <use xlink:href="#DejaVuSans-74" x="598.158203"/>
     <use xlink:href="#DejaVuSans-79" x="637.367188"/>
     <use xlink:href="#DejaVuSans-20" x="696.546875"/>
     <use xlink:href="#DejaVuSans-43" x="728.333984"/>
     <use xlink:href="#DejaVuSans-6f" x="798.158203"/>
     <use xlink:href="#DejaVuSans-6d" x="859.339844"/>
     <use xlink:href="#DejaVuSans-70" x="956.751953"/>
     <use xlink:href="#DejaVuSans-6f" x="1020.228516"/>
     <use xlink:href="#DejaVuSans-6e" x="1081.410156"/>
     <use xlink:href="#DejaVuSans-65" x="1144.789062"/>
     <use xlink:href="#DejaVuSans-6e" x="1206.3125"/>
     <use xlink:href="#DejaVuSans-74" x="1269.691406"/>
     <use xlink:href="#DejaVuSans-20" x="1308.900391"/>
     <use xlink:href="#DejaVuSans-56" x="1340.6875"/>
     <use xlink:href="#DejaVuSans-5f" x="1409.095703"/>
     <use xlink:href="#DejaVuSans-79" x="1459.095703"/>
     <use xlink:href="#DejaVuSans-20" x="1518.275391"/>
     <use xlink:href="#DejaVuSans-4f" x="1550.0625"/>
     <use xlink:href="#DejaVuSans-76" x="1628.773438"/>
     <use xlink:href="#DejaVuSans-65" x="1687.953125"/>
     <use xlink:href="#DejaVuSans-72" x="1749.476562"/>
     <use xlink:href="#DejaVuSans-20" x="1790.589844"/>
     <use xlink:href="#DejaVuSans-54" x="1822.376953"/>
     <use xlink:href="#DejaVuSans-69" x="1880.335938"/>
     <use xlink:href="#DejaVuSans-6d" x="1908.119141"/>
     <use xlink:href="#DejaVuSans-65" x="2005.53125"/>
    </g>
   </g>
  </g>
 </g>
 <defs>
  <clipPath id="p463125340b">
   <rect x="57.6" y="41.472" width="357.12" height="120.96"/>
  </clipPath>
  <clipPath id="pea049cba15">
   <rect x="57.6" y="186.624" width="357.12" height="120.96"/>
  </clipPath>
 </defs>
</svg>
